<?xml version="1.0" standalone="no"?>
 <!DOCTYPE svg PUBLIC "-//W3C//DTD SVG 1.1//EN" 
 "http://www.w3.org/Graphics/SVG/1.1/DTD/svg11.dtd"> 
<svg
  xmlns:svg="http://www.w3.org/2000/svg"
  xmlns="http://www.w3.org/2000/svg"
  xmlns:xlink="http://www.w3.org/1999/xlink"
  version="1.1"
  width="297.0022mm" height="210.0072mm" viewBox="0.0000 0.0000 297.0022 210.0072">
<title>SVG Image created as Smart_insoles_2025_v1-Edge_Cuts.svg date 2025/12/04 13:52:14 </title>
  <desc>Image generated by PCBNEW </desc>
<g style="fill:#000000; fill-opacity:1.0000;stroke:#000000; stroke-opacity:1.0000;
stroke-linecap:round; stroke-linejoin:round;"
 transform="translate(0 0) scale(1 1)">
</g>
<g style="fill:none; 
stroke:#000000; stroke-width:0.0500; stroke-opacity:1; 
stroke-linecap:round; stroke-linejoin:round;">
<path d="M127.9610 95.9461
L133.3890 99.0539
" />
<path d="M104.8986 92.9573 A3.0495 3.0495 0.0 0 0 107.8552 95.9500" />
<path d="M171.4807 69.0383
L107.8500 68.9150
" />
<path d="M174.5254 95.9660
L174.5287 72.0863
" />
<path d="M127.9610 95.9461
L107.8552 95.9500
" />
<path d="M107.8500 68.9150 A3.0480 3.0480 0.0 0 0 104.8020 71.9630" />
<path d="M104.8020 71.9630
L104.9007 92.9573
" />
<path d="M174.5287 72.0863 A3.0480 3.0480 0.0 0 0 171.4807 69.0383" />
<path d="M171.4774 99.0140 A3.0479 3.0479 0.0 0 0 174.5254 95.9660" />
<path d="M133.3890 99.0547
L171.4774 99.0140
" />
</g> 
</svg>
