M48
; DRILL file {KiCad 9.0.6-9.0.6~ubuntu24.04.1} date 2025-12-04T11:11:09-0300
; FORMAT={-:-/ absolute / metric / decimal}
; #@! TF.CreationDate,2025-12-04T11:11:09-03:00
; #@! TF.GenerationSoftware,Kicad,Pcbnew,9.0.6-9.0.6~ubuntu24.04.1
; #@! TF.FileFunction,Plated,1,4,PTH
FMAT,2
METRIC
; #@! TA.AperFunction,Plated,PTH,ViaDrill
T1C0.300
; #@! TA.AperFunction,Plated,PTH,ComponentDrill
T2C0.600
; #@! TA.AperFunction,Plated,PTH,ComponentDrill
T3C0.800
%
G90
G05
T1
X106.0Y-75.0
X106.0Y-76.4
X106.0Y-77.8
X106.0Y-79.5
X106.07Y-81.305
X106.1Y-73.8
X106.15Y-89.45
X106.37Y-92.8
X107.5Y-73.8
X108.25Y-80.35
X108.8Y-73.8
X109.0Y-75.15
X109.05Y-82.06
X109.05Y-88.45
X110.0Y-73.8
X110.05Y-75.15
X110.7Y-77.3
X110.8Y-78.7
X110.92Y-76.45
X111.0Y-94.9
X111.55Y-81.5
X111.89Y-76.43
X112.25Y-84.35
X112.76Y-73.7
X113.04Y-94.1
X113.252Y-84.003
X113.525Y-83.251
X113.61Y-80.86
X113.8Y-94.1
X113.85Y-73.7
X114.385Y-90.115
X114.42Y-88.13
X114.5Y-92.05
X114.59Y-94.1
X114.875Y-89.1
X114.9Y-91.1
X114.94Y-73.7
X115.41Y-94.1
X115.601Y-83.301
X115.65Y-78.55
X115.65Y-81.05
X115.85Y-93.35
X115.9Y-86.9
X116.09Y-73.7
X116.24Y-94.1
X116.525Y-81.925
X116.85Y-87.2
X116.9Y-89.075
X116.9Y-91.1
X116.9Y-93.05
X117.04Y-94.1
X117.08Y-73.71
X117.61Y-86.25
X117.68Y-80.36
X117.8Y-87.0
X117.8Y-93.2
X117.84Y-94.1
X118.15Y-73.7
X118.69Y-94.1
X118.85Y-87.15
X118.85Y-91.025
X118.875Y-89.05
X118.875Y-93.075
X119.42Y-76.47
X119.49Y-94.1
X119.65Y-86.85
X119.8Y-93.2
X120.28Y-78.25
X120.29Y-94.1
X120.75Y-89.075
X120.775Y-91.075
X120.8Y-73.25
X120.8Y-76.25
X120.82Y-77.24
X120.99Y-92.08
X120.99Y-94.1
X121.0Y-84.2
X121.05Y-90.15
X121.1Y-88.11
X121.79Y-94.1
X122.35Y-89.7
X122.365Y-87.566
X122.67Y-94.1
X122.69Y-93.29
X122.721Y-82.421
X122.75Y-86.45
X123.342Y-69.745
X123.716Y-84.284
X123.84Y-75.184
X123.968Y-70.491
X124.3Y-83.663
X124.475Y-88.51
X124.7Y-74.32
X124.752Y-82.088
X124.77Y-93.705
X124.93Y-75.542
X125.0Y-85.217
X125.6Y-86.0
X125.681Y-70.471
X125.75Y-73.89
X126.338Y-80.738
X126.5Y-70.25
X126.53Y-87.97
X126.68Y-85.47
X127.07Y-87.54
X127.108Y-78.709
X127.2Y-93.673
X127.35Y-74.3
X127.45Y-80.75
X127.667Y-83.65
X127.848Y-78.404
X128.321Y-70.16
X128.44Y-85.94
X129.087Y-72.361
X129.125Y-93.673
X129.4Y-88.55
X129.85Y-72.405
X129.854Y-93.748
X130.383Y-80.904
X130.81Y-91.6
X131.1Y-95.9
X131.271Y-89.879
X131.7Y-75.6
X131.8Y-72.405
X132.294Y-85.582
X132.65Y-96.15
X133.696Y-86.987
X133.721Y-75.6
X133.875Y-96.3
X135.025Y-97.975
X135.33Y-90.63
X135.367Y-89.981
X135.702Y-75.6
X136.3Y-95.325
X137.25Y-95.15
X137.25Y-97.8
X137.75Y-75.6
X138.325Y-95.1
X138.725Y-96.0
X139.0Y-97.9
X139.319Y-72.75
X139.55Y-91.903
X139.6Y-75.6
X139.65Y-90.15
X139.725Y-90.825
X140.716Y-72.05
X140.97Y-71.11
X141.21Y-80.71
X141.7Y-75.6
X141.725Y-96.665
X142.31Y-77.25
X142.55Y-86.1
X142.8Y-78.15
X142.95Y-81.15
X143.75Y-75.6
X143.8Y-81.1
X144.05Y-96.25
X144.565Y-77.635
X144.653Y-83.2
X144.96Y-92.504
X145.7Y-75.6
X146.95Y-75.6
X147.193Y-70.166
X149.093Y-81.106
X150.18Y-89.72
X150.241Y-78.576
X150.622Y-70.166
X154.55Y-88.55
X155.28Y-77.56
X159.12Y-95.3
X159.12Y-96.5
X159.92Y-95.3
X159.92Y-96.5
X160.101Y-83.101
X160.17Y-89.884
X160.45Y-79.2
X161.35Y-94.69
X161.82Y-85.88
X162.33Y-81.95
X162.7Y-77.7
X162.707Y-76.845
X163.115Y-81.796
X163.3Y-79.2
X163.416Y-89.884
X164.425Y-92.95
X164.776Y-82.524
X168.9Y-90.95
X169.346Y-76.962
X170.3Y-92.55
X172.45Y-91.3
X172.7Y-76.9
T3
X152.635Y-96.925
X155.175Y-96.925
X157.715Y-96.925
T2
G00X111.33Y-71.075
M15
G01X111.33Y-70.275
M16
G05
G00X111.33Y-75.405
M15
G01X111.33Y-74.305
M16
G05
G00X119.97Y-71.075
M15
G01X119.97Y-70.275
M16
G05
G00X119.97Y-75.405
M15
G01X119.97Y-74.305
M16
G05
M30
