<?xml version="1.0" standalone="no"?>
 <!DOCTYPE svg PUBLIC "-//W3C//DTD SVG 1.1//EN" 
 "http://www.w3.org/Graphics/SVG/1.1/DTD/svg11.dtd"> 
<svg
  xmlns:svg="http://www.w3.org/2000/svg"
  xmlns="http://www.w3.org/2000/svg"
  xmlns:xlink="http://www.w3.org/1999/xlink"
  version="1.1"
  width="297.0022mm" height="210.0072mm" viewBox="0.0000 0.0000 297.0022 210.0072">
<title>SVG Image created as Smart_insoles_2025_v1-B_Mask.svg date 2025/12/05 16:25:20 </title>
  <desc>Image generated by PCBNEW </desc>
<g style="fill:#000000; fill-opacity:1.0000;stroke:#000000; stroke-opacity:1.0000;
stroke-linecap:round; stroke-linejoin:round;"
 transform="translate(0 0) scale(1 1)">
<path style="fill:#000000; fill-opacity:1.0000; stroke:none;fill-rule:evenodd;"
d="M 124.3500,93.2000
124.6500,93.2000
124.6500,91.7000
124.3500,91.7000
Z" /> 
<path style="fill:#000000; fill-opacity:1.0000; stroke:none;fill-rule:evenodd;"
d="M 146.6000,91.5000
146.9000,91.5000
146.9000,90.0000
146.6000,90.0000
Z" /> 
<path style="fill:#000000; fill-opacity:1.0000; 
stroke:#000000; stroke-width:0.0100; stroke-opacity:1; 
stroke-linecap:round; stroke-linejoin:round;fill-rule:evenodd;"
d="M 126.7550,72.0425
126.0800,72.0425
126.0800,71.5925
126.7550,71.5925
Z" /> 
<path style="fill:#000000; fill-opacity:1.0000; 
stroke:#000000; stroke-width:0.0100; stroke-opacity:1; 
stroke-linecap:round; stroke-linejoin:round;fill-rule:evenodd;"
d="M 126.7550,72.5425
126.0800,72.5425
126.0800,72.0925
126.7550,72.0925
Z" /> 
<path style="fill:#000000; fill-opacity:1.0000; 
stroke:#000000; stroke-width:0.0100; stroke-opacity:1; 
stroke-linecap:round; stroke-linejoin:round;fill-rule:evenodd;"
d="M 126.7550,73.0425
126.0800,73.0425
126.0800,72.5925
126.7550,72.5925
Z" /> 
<path style="fill:#000000; fill-opacity:1.0000; 
stroke:#000000; stroke-width:0.0100; stroke-opacity:1; 
stroke-linecap:round; stroke-linejoin:round;fill-rule:evenodd;"
d="M 126.8050,71.4925
126.3550,71.4925
126.3550,70.8175
126.8050,70.8175
Z" /> 
<path style="fill:#000000; fill-opacity:1.0000; 
stroke:#000000; stroke-width:0.0100; stroke-opacity:1; 
stroke-linecap:round; stroke-linejoin:round;fill-rule:evenodd;"
d="M 126.8050,73.8175
126.3550,73.8175
126.3550,73.1425
126.8050,73.1425
Z" /> 
<path style="fill:#000000; fill-opacity:1.0000; 
stroke:#000000; stroke-width:0.0100; stroke-opacity:1; 
stroke-linecap:round; stroke-linejoin:round;fill-rule:evenodd;"
d="M 127.3050,71.4925
126.8550,71.4925
126.8550,70.8175
127.3050,70.8175
Z" /> 
<path style="fill:#000000; fill-opacity:1.0000; 
stroke:#000000; stroke-width:0.0100; stroke-opacity:1; 
stroke-linecap:round; stroke-linejoin:round;fill-rule:evenodd;"
d="M 127.3050,73.8175
126.8550,73.8175
126.8550,73.1425
127.3050,73.1425
Z" /> 
<path style="fill:#000000; fill-opacity:1.0000; 
stroke:#000000; stroke-width:0.0100; stroke-opacity:1; 
stroke-linecap:round; stroke-linejoin:round;fill-rule:evenodd;"
d="M 127.8050,71.4925
127.3550,71.4925
127.3550,70.8175
127.8050,70.8175
Z" /> 
<path style="fill:#000000; fill-opacity:1.0000; 
stroke:#000000; stroke-width:0.0100; stroke-opacity:1; 
stroke-linecap:round; stroke-linejoin:round;fill-rule:evenodd;"
d="M 127.8050,73.8175
127.3550,73.8175
127.3550,73.1425
127.8050,73.1425
Z" /> 
<path style="fill:#000000; fill-opacity:1.0000; 
stroke:#000000; stroke-width:0.0100; stroke-opacity:1; 
stroke-linecap:round; stroke-linejoin:round;fill-rule:evenodd;"
d="M 128.3050,71.4925
127.8550,71.4925
127.8550,70.8175
128.3050,70.8175
Z" /> 
<path style="fill:#000000; fill-opacity:1.0000; 
stroke:#000000; stroke-width:0.0100; stroke-opacity:1; 
stroke-linecap:round; stroke-linejoin:round;fill-rule:evenodd;"
d="M 128.3050,73.8175
127.8550,73.8175
127.8550,73.1425
128.3050,73.1425
Z" /> 
<path style="fill:#000000; fill-opacity:1.0000; 
stroke:#000000; stroke-width:0.0100; stroke-opacity:1; 
stroke-linecap:round; stroke-linejoin:round;fill-rule:evenodd;"
d="M 128.5800,72.0425
127.9050,72.0425
127.9050,71.5925
128.5800,71.5925
Z" /> 
<path style="fill:#000000; fill-opacity:1.0000; 
stroke:#000000; stroke-width:0.0100; stroke-opacity:1; 
stroke-linecap:round; stroke-linejoin:round;fill-rule:evenodd;"
d="M 128.5800,72.5425
127.9050,72.5425
127.9050,72.0925
128.5800,72.0925
Z" /> 
<path style="fill:#000000; fill-opacity:1.0000; 
stroke:#000000; stroke-width:0.0100; stroke-opacity:1; 
stroke-linecap:round; stroke-linejoin:round;fill-rule:evenodd;"
d="M 128.5800,73.0425
127.9050,73.0425
127.9050,72.5925
128.5800,72.5925
Z" /> 
<path style="fill:#000000; fill-opacity:1.0000; stroke:none;fill-rule:evenodd;"
d="M 162.0687,95.6200
161.9755,95.6014
161.8964,95.5486
161.8436,95.4695
161.8250,95.3762
161.8250,94.8888
161.8436,94.7955
161.8964,94.7164
161.9755,94.6636
162.0687,94.6450
162.9812,94.6450
163.0745,94.6636
163.1536,94.7164
163.2064,94.7955
163.2250,94.8888
163.2250,95.3762
163.2064,95.4695
163.1536,95.5486
163.0745,95.6014
162.9812,95.6200
Z" /> 
<path style="fill:#000000; fill-opacity:1.0000; stroke:none;fill-rule:evenodd;"
d="M 162.0687,97.4950
161.9755,97.4764
161.8964,97.4236
161.8436,97.3445
161.8250,97.2512
161.8250,96.7638
161.8436,96.6705
161.8964,96.5914
161.9755,96.5386
162.0687,96.5200
162.9812,96.5200
163.0745,96.5386
163.1536,96.5914
163.2064,96.6705
163.2250,96.7638
163.2250,97.2512
163.2064,97.3445
163.1536,97.4236
163.0745,97.4764
162.9812,97.4950
Z" /> 
</g>
<g style="fill:#000000; fill-opacity:1.0000; stroke:none;">
<circle cx="107.7300" cy="88.6700" r="1.0500" /> 
</g>
<g style="fill:#000000; fill-opacity:1.0000; stroke:none;">
<circle cx="157.6900" cy="96.6200" r="0.8000" /> 
<path style="fill:#000000; fill-opacity:1.0000; stroke:none;fill-rule:evenodd;"
d="M 154.4000,97.3700
154.4000,95.8700
155.9000,95.8700
155.9000,97.3700
Z" /> 
</g>
<g style="fill:#000000; fill-opacity:1.0000; stroke:none;">
<circle cx="152.6100" cy="96.6200" r="0.8000" /> 
</g>
<g style="fill:#000000; fill-opacity:1.0000; stroke:none;">
<circle cx="171.6500" cy="71.8650" r="1.0500" /> 
</g>
<g style="fill:#000000; fill-opacity:1.0000; stroke:none;">
<circle cx="171.6500" cy="96.0650" r="1.0500" /> 
<path style="fill:#000000; fill-opacity:1.0000; stroke:none;fill-rule:evenodd;"
d="M 130.8250,90.4250
130.8060,90.5207
130.7518,90.6018
130.6707,90.6560
130.5750,90.6750
129.9000,90.6750
129.8043,90.6560
129.7232,90.6018
129.6690,90.5207
129.6500,90.4250
129.6500,89.4750
129.6690,89.3793
129.7232,89.2982
129.8043,89.2440
129.9000,89.2250
130.5750,89.2250
130.6707,89.2440
130.7518,89.2982
130.8060,89.3793
130.8250,89.4750
Z" /> 
<path style="fill:#000000; fill-opacity:1.0000; stroke:none;fill-rule:evenodd;"
d="M 128.7500,90.4250
128.7310,90.5207
128.6768,90.6018
128.5957,90.6560
128.5000,90.6750
127.8250,90.6750
127.7293,90.6560
127.6482,90.6018
127.5940,90.5207
127.5750,90.4250
127.5750,89.4750
127.5940,89.3793
127.6482,89.2982
127.7293,89.2440
127.8250,89.2250
128.5000,89.2250
128.5957,89.2440
128.6768,89.2982
128.7310,89.3793
128.7500,89.4750
Z" /> 
<path style="fill:#000000; fill-opacity:1.0000; stroke:none;fill-rule:evenodd;"
d="M 134.0750,94.4000
133.9793,94.3810
133.8982,94.3268
133.8440,94.2457
133.8250,94.1500
133.8250,93.4500
133.8440,93.3543
133.8982,93.2732
133.9793,93.2190
134.0750,93.2000
134.9750,93.2000
135.0707,93.2190
135.1518,93.2732
135.2060,93.3543
135.2250,93.4500
135.2250,94.1500
135.2060,94.2457
135.1518,94.3268
135.0707,94.3810
134.9750,94.4000
Z" /> 
<path style="fill:#000000; fill-opacity:1.0000; stroke:none;fill-rule:evenodd;"
d="M 134.0750,92.4000
133.9793,92.3810
133.8982,92.3268
133.8440,92.2457
133.8250,92.1500
133.8250,91.4500
133.8440,91.3543
133.8982,91.2732
133.9793,91.2190
134.0750,91.2000
134.9750,91.2000
135.0707,91.2190
135.1518,91.2732
135.2060,91.3543
135.2250,91.4500
135.2250,92.1500
135.2060,92.2457
135.1518,92.3268
135.0707,92.3810
134.9750,92.4000
Z" /> 
<path style="fill:#000000; fill-opacity:1.0000; stroke:none;fill-rule:evenodd;"
d="M 126.0500,90.1500
126.0310,90.2457
125.9768,90.3268
125.8957,90.3810
125.8000,90.4000
125.1000,90.4000
125.0043,90.3810
124.9232,90.3268
124.8690,90.2457
124.8500,90.1500
124.8500,89.2500
124.8690,89.1543
124.9232,89.0732
125.0043,89.0190
125.1000,89.0000
125.8000,89.0000
125.8957,89.0190
125.9768,89.0732
126.0310,89.1543
126.0500,89.2500
Z" /> 
<path style="fill:#000000; fill-opacity:1.0000; stroke:none;fill-rule:evenodd;"
d="M 124.0500,90.1500
124.0310,90.2457
123.9768,90.3268
123.8957,90.3810
123.8000,90.4000
123.1000,90.4000
123.0043,90.3810
122.9232,90.3268
122.8690,90.2457
122.8500,90.1500
122.8500,89.2500
122.8690,89.1543
122.9232,89.0732
123.0043,89.0190
123.1000,89.0000
123.8000,89.0000
123.8957,89.0190
123.9768,89.0732
124.0310,89.1543
124.0500,89.2500
Z" /> 
<path style="fill:#000000; fill-opacity:1.0000; stroke:none;fill-rule:evenodd;"
d="M 130.3050,70.7300
130.4007,70.7490
130.4818,70.8032
130.5360,70.8843
130.5550,70.9800
130.5550,71.6550
130.5360,71.7507
130.4818,71.8318
130.4007,71.8860
130.3050,71.9050
129.3550,71.9050
129.2593,71.8860
129.1782,71.8318
129.1240,71.7507
129.1050,71.6550
129.1050,70.9800
129.1240,70.8843
129.1782,70.8032
129.2593,70.7490
129.3550,70.7300
Z" /> 
<path style="fill:#000000; fill-opacity:1.0000; stroke:none;fill-rule:evenodd;"
d="M 130.3050,72.8050
130.4007,72.8240
130.4818,72.8782
130.5360,72.9593
130.5550,73.0550
130.5550,73.7300
130.5360,73.8257
130.4818,73.9068
130.4007,73.9610
130.3050,73.9800
129.3550,73.9800
129.2593,73.9610
129.1782,73.9068
129.1240,73.8257
129.1050,73.7300
129.1050,73.0550
129.1240,72.9593
129.1782,72.8782
129.2593,72.8240
129.3550,72.8050
Z" /> 
<path style="fill:#000000; fill-opacity:1.0000; stroke:none;fill-rule:evenodd;"
d="M 124.3500,93.2000
123.8500,93.2000
123.8500,93.1957
123.7847,93.1957
123.6587,93.1619
123.5456,93.0967
123.4533,93.0044
123.3881,92.8913
123.3543,92.7653
123.3543,92.7000
123.3500,92.7000
123.3500,92.2000
123.3543,92.2000
123.3543,92.1347
123.3881,92.0087
123.4533,91.8956
123.5456,91.8033
123.6587,91.7381
123.7847,91.7043
123.8500,91.7043
123.8500,91.7000
124.3500,91.7000
Z" /> 
<path style="fill:#000000; fill-opacity:1.0000; stroke:none;fill-rule:evenodd;"
d="M 125.1500,91.7043
125.2153,91.7043
125.3413,91.7381
125.4544,91.8033
125.5467,91.8956
125.6119,92.0087
125.6457,92.1347
125.6457,92.2000
125.6500,92.2000
125.6500,92.7000
125.6457,92.7000
125.6457,92.7653
125.6119,92.8913
125.5467,93.0044
125.4544,93.0967
125.3413,93.1619
125.2153,93.1957
125.1500,93.1957
125.1500,93.2000
124.6500,93.2000
124.6500,91.7000
125.1500,91.7000
Z" /> 
<path style="fill:#000000; fill-opacity:1.0000; stroke:none;fill-rule:evenodd;"
d="M 126.0500,88.1500
126.0310,88.2457
125.9768,88.3268
125.8957,88.3810
125.8000,88.4000
125.1000,88.4000
125.0043,88.3810
124.9232,88.3268
124.8690,88.2457
124.8500,88.1500
124.8500,87.2500
124.8690,87.1543
124.9232,87.0732
125.0043,87.0190
125.1000,87.0000
125.8000,87.0000
125.8957,87.0190
125.9768,87.0732
126.0310,87.1543
126.0500,87.2500
Z" /> 
<path style="fill:#000000; fill-opacity:1.0000; stroke:none;fill-rule:evenodd;"
d="M 124.0500,88.1500
124.0310,88.2457
123.9768,88.3268
123.8957,88.3810
123.8000,88.4000
123.1000,88.4000
123.0043,88.3810
122.9232,88.3268
122.8690,88.2457
122.8500,88.1500
122.8500,87.2500
122.8690,87.1543
122.9232,87.0732
123.0043,87.0190
123.1000,87.0000
123.8000,87.0000
123.8957,87.0190
123.9768,87.0732
124.0310,87.1543
124.0500,87.2500
Z" /> 
<path style="fill:#000000; fill-opacity:1.0000; stroke:none;fill-rule:evenodd;"
d="M 146.6000,91.5000
146.1000,91.5000
146.1000,91.4957
146.0347,91.4957
145.9087,91.4619
145.7956,91.3967
145.7033,91.3044
145.6381,91.1913
145.6043,91.0653
145.6043,91.0000
145.6000,91.0000
145.6000,90.5000
145.6043,90.5000
145.6043,90.4347
145.6381,90.3087
145.7033,90.1956
145.7956,90.1033
145.9087,90.0381
146.0347,90.0043
146.1000,90.0043
146.1000,90.0000
146.6000,90.0000
Z" /> 
<path style="fill:#000000; fill-opacity:1.0000; stroke:none;fill-rule:evenodd;"
d="M 147.4000,90.0043
147.4653,90.0043
147.5913,90.0381
147.7044,90.1033
147.7967,90.1956
147.8619,90.3087
147.8957,90.4347
147.8957,90.5000
147.9000,90.5000
147.9000,91.0000
147.8957,91.0000
147.8957,91.0653
147.8619,91.1913
147.7967,91.3044
147.7044,91.3967
147.5913,91.4619
147.4653,91.4957
147.4000,91.4957
147.4000,91.5000
146.9000,91.5000
146.9000,90.0000
147.4000,90.0000
Z" /> 
<path style="fill:#000000; fill-opacity:1.0000; stroke:none;fill-rule:evenodd;"
d="M 134.2025,84.3842
134.1949,84.4497
134.1525,84.5457
134.0782,84.6200
133.9822,84.6624
133.9168,84.6700
132.5832,84.6700
132.5178,84.6624
132.4218,84.6200
132.3475,84.5457
132.3051,84.4497
132.2975,84.3842
132.2975,82.4158
132.3051,82.3503
132.3475,82.2543
132.4218,82.1800
132.5178,82.1376
132.5832,82.1300
133.9168,82.1300
133.9822,82.1376
134.0782,82.1800
134.1525,82.2543
134.1949,82.3503
134.2025,82.4158
Z" /> 
<path style="fill:#000000; fill-opacity:1.0000; stroke:none;fill-rule:evenodd;"
d="M 130.1385,84.3842
130.1309,84.4497
130.0885,84.5457
130.0142,84.6200
129.9182,84.6624
129.8527,84.6700
128.5192,84.6700
128.4538,84.6624
128.3578,84.6200
128.2835,84.5457
128.2411,84.4497
128.2335,84.3842
128.2335,82.4158
128.2411,82.3503
128.2835,82.2543
128.3578,82.1800
128.4538,82.1376
128.5192,82.1300
129.8527,82.1300
129.9182,82.1376
130.0142,82.1800
130.0885,82.2543
130.1309,82.3503
130.1385,82.4158
Z" /> 
<path style="fill:#000000; fill-opacity:1.0000; stroke:none;fill-rule:evenodd;"
d="M 128.9175,75.7925
128.8985,75.8882
128.8443,75.9693
128.7632,76.0235
128.6675,76.0425
127.9925,76.0425
127.8968,76.0235
127.8157,75.9693
127.7615,75.8882
127.7425,75.7925
127.7425,74.8425
127.7615,74.7468
127.8157,74.6657
127.8968,74.6115
127.9925,74.5925
128.6675,74.5925
128.7632,74.6115
128.8443,74.6657
128.8985,74.7468
128.9175,74.8425
Z" /> 
<path style="fill:#000000; fill-opacity:1.0000; stroke:none;fill-rule:evenodd;"
d="M 126.8425,75.7925
126.8235,75.8882
126.7693,75.9693
126.6882,76.0235
126.5925,76.0425
125.9175,76.0425
125.8218,76.0235
125.7407,75.9693
125.6865,75.8882
125.6675,75.7925
125.6675,74.8425
125.6865,74.7468
125.7407,74.6657
125.8218,74.6115
125.9175,74.5925
126.5925,74.5925
126.6882,74.6115
126.7693,74.6657
126.8235,74.7468
126.8425,74.8425
Z" /> 
<path style="fill:#000000; fill-opacity:1.0000; stroke:none;fill-rule:evenodd;"
d="M 131.5750,94.4000
131.4793,94.3810
131.3982,94.3268
131.3440,94.2457
131.3250,94.1500
131.3250,93.4500
131.3440,93.3543
131.3982,93.2732
131.4793,93.2190
131.5750,93.2000
132.4750,93.2000
132.5707,93.2190
132.6518,93.2732
132.7060,93.3543
132.7250,93.4500
132.7250,94.1500
132.7060,94.2457
132.6518,94.3268
132.5707,94.3810
132.4750,94.4000
Z" /> 
<path style="fill:#000000; fill-opacity:1.0000; stroke:none;fill-rule:evenodd;"
d="M 131.5750,92.4000
131.4793,92.3810
131.3982,92.3268
131.3440,92.2457
131.3250,92.1500
131.3250,91.4500
131.3440,91.3543
131.3982,91.2732
131.4793,91.2190
131.5750,91.2000
132.4750,91.2000
132.5707,91.2190
132.6518,91.2732
132.7060,91.3543
132.7250,91.4500
132.7250,92.1500
132.7060,92.2457
132.6518,92.3268
132.5707,92.3810
132.4750,92.4000
Z" /> 
<path style="fill:#000000; fill-opacity:1.0000; stroke:none;fill-rule:evenodd;"
d="M 162.9300,90.8100
163.0257,90.8290
163.1068,90.8832
163.1610,90.9643
163.1800,91.0600
163.1800,91.7600
163.1610,91.8557
163.1068,91.9368
163.0257,91.9910
162.9300,92.0100
162.0300,92.0100
161.9343,91.9910
161.8532,91.9368
161.7990,91.8557
161.7800,91.7600
161.7800,91.0600
161.7990,90.9643
161.8532,90.8832
161.9343,90.8290
162.0300,90.8100
Z" /> 
<path style="fill:#000000; fill-opacity:1.0000; stroke:none;fill-rule:evenodd;"
d="M 162.9300,92.8100
163.0257,92.8290
163.1068,92.8832
163.1610,92.9643
163.1800,93.0600
163.1800,93.7600
163.1610,93.8557
163.1068,93.9368
163.0257,93.9910
162.9300,94.0100
162.0300,94.0100
161.9343,93.9910
161.8532,93.9368
161.7990,93.8557
161.7800,93.7600
161.7800,93.0600
161.7990,92.9643
161.8532,92.8832
161.9343,92.8290
162.0300,92.8100
Z" /> 
<path style="fill:#000000; fill-opacity:1.0000; stroke:none;fill-rule:evenodd;"
d="M 147.3000,94.5500
147.2810,94.6457
147.2268,94.7268
147.1457,94.7810
147.0500,94.8000
145.0500,94.8000
144.9543,94.7810
144.8732,94.7268
144.8190,94.6457
144.8000,94.5500
144.8000,93.2500
144.8190,93.1543
144.8732,93.0732
144.9543,93.0190
145.0500,93.0000
147.0500,93.0000
147.1457,93.0190
147.2268,93.0732
147.2810,93.1543
147.3000,93.2500
Z" /> 
<path style="fill:#000000; fill-opacity:1.0000; stroke:none;fill-rule:evenodd;"
d="M 143.3000,94.5500
143.2810,94.6457
143.2268,94.7268
143.1457,94.7810
143.0500,94.8000
141.0500,94.8000
140.9543,94.7810
140.8732,94.7268
140.8190,94.6457
140.8000,94.5500
140.8000,93.2500
140.8190,93.1543
140.8732,93.0732
140.9543,93.0190
141.0500,93.0000
143.0500,93.0000
143.1457,93.0190
143.2268,93.0732
143.2810,93.1543
143.3000,93.2500
Z" /> 
<path style="fill:#000000; fill-opacity:1.0000; stroke:none;fill-rule:evenodd;"
d="M 127.8111,87.9650
127.8179,87.9310
127.8371,87.9021
127.8660,87.8829
127.9000,87.8761
128.6600,87.8761
128.6940,87.8829
128.7229,87.9021
128.7421,87.9310
128.7489,87.9650
128.7489,88.1850
128.7421,88.2190
128.7229,88.2479
128.6940,88.2671
128.6600,88.2739
127.9000,88.2739
127.8660,88.2671
127.8371,88.2479
127.8179,88.2190
127.8111,88.1850
Z" /> 
<path style="fill:#000000; fill-opacity:1.0000; stroke:none;fill-rule:evenodd;"
d="M 127.8111,87.5650
127.8179,87.5310
127.8371,87.5021
127.8660,87.4829
127.9000,87.4761
128.6600,87.4761
128.6940,87.4829
128.7229,87.5021
128.7421,87.5310
128.7489,87.5650
128.7489,87.7850
128.7421,87.8190
128.7229,87.8479
128.6940,87.8671
128.6600,87.8739
127.9000,87.8739
127.8660,87.8671
127.8371,87.8479
127.8179,87.8190
127.8111,87.7850
Z" /> 
<path style="fill:#000000; fill-opacity:1.0000; stroke:none;fill-rule:evenodd;"
d="M 127.8111,87.1650
127.8179,87.1310
127.8371,87.1021
127.8660,87.0829
127.9000,87.0761
128.6600,87.0761
128.6940,87.0829
128.7229,87.1021
128.7421,87.1310
128.7489,87.1650
128.7489,87.3850
128.7421,87.4190
128.7229,87.4479
128.6940,87.4671
128.6600,87.4739
127.9000,87.4739
127.8660,87.4671
127.8371,87.4479
127.8179,87.4190
127.8111,87.3850
Z" /> 
<path style="fill:#000000; fill-opacity:1.0000; stroke:none;fill-rule:evenodd;"
d="M 127.8111,86.7650
127.8179,86.7310
127.8371,86.7021
127.8660,86.6829
127.9000,86.6761
128.6600,86.6761
128.6940,86.6829
128.7229,86.7021
128.7421,86.7310
128.7489,86.7650
128.7489,86.9850
128.7421,87.0190
128.7229,87.0479
128.6940,87.0671
128.6600,87.0739
127.9000,87.0739
127.8660,87.0671
127.8371,87.0479
127.8179,87.0190
127.8111,86.9850
Z" /> 
<path style="fill:#000000; fill-opacity:1.0000; stroke:none;fill-rule:evenodd;"
d="M 127.8111,86.3650
127.8179,86.3310
127.8371,86.3021
127.8660,86.2829
127.9000,86.2761
128.6600,86.2761
128.6940,86.2829
128.7229,86.3021
128.7421,86.3310
128.7489,86.3650
128.7489,86.5850
128.7421,86.6190
128.7229,86.6479
128.6940,86.6671
128.6600,86.6739
127.9000,86.6739
127.8660,86.6671
127.8371,86.6479
127.8179,86.6190
127.8111,86.5850
Z" /> 
<path style="fill:#000000; fill-opacity:1.0000; stroke:none;fill-rule:evenodd;"
d="M 129.7811,86.3650
129.7879,86.3310
129.8071,86.3021
129.8360,86.2829
129.8700,86.2761
130.6300,86.2761
130.6640,86.2829
130.6929,86.3021
130.7121,86.3310
130.7189,86.3650
130.7189,86.5850
130.7121,86.6190
130.6929,86.6479
130.6640,86.6671
130.6300,86.6739
129.8700,86.6739
129.8360,86.6671
129.8071,86.6479
129.7879,86.6190
129.7811,86.5850
Z" /> 
<path style="fill:#000000; fill-opacity:1.0000; stroke:none;fill-rule:evenodd;"
d="M 129.7811,86.7650
129.7879,86.7310
129.8071,86.7021
129.8360,86.6829
129.8700,86.6761
130.6300,86.6761
130.6640,86.6829
130.6929,86.7021
130.7121,86.7310
130.7189,86.7650
130.7189,86.9850
130.7121,87.0190
130.6929,87.0479
130.6640,87.0671
130.6300,87.0739
129.8700,87.0739
129.8360,87.0671
129.8071,87.0479
129.7879,87.0190
129.7811,86.9850
Z" /> 
<path style="fill:#000000; fill-opacity:1.0000; stroke:none;fill-rule:evenodd;"
d="M 129.7811,87.1650
129.7879,87.1310
129.8071,87.1021
129.8360,87.0829
129.8700,87.0761
130.6300,87.0761
130.6640,87.0829
130.6929,87.1021
130.7121,87.1310
130.7189,87.1650
130.7189,87.3850
130.7121,87.4190
130.6929,87.4479
130.6640,87.4671
130.6300,87.4739
129.8700,87.4739
129.8360,87.4671
129.8071,87.4479
129.7879,87.4190
129.7811,87.3850
Z" /> 
<path style="fill:#000000; fill-opacity:1.0000; stroke:none;fill-rule:evenodd;"
d="M 129.7811,87.5650
129.7879,87.5310
129.8071,87.5021
129.8360,87.4829
129.8700,87.4761
130.6300,87.4761
130.6640,87.4829
130.6929,87.5021
130.7121,87.5310
130.7189,87.5650
130.7189,87.7850
130.7121,87.8190
130.6929,87.8479
130.6640,87.8671
130.6300,87.8739
129.8700,87.8739
129.8360,87.8671
129.8071,87.8479
129.7879,87.8190
129.7811,87.7850
Z" /> 
<path style="fill:#000000; fill-opacity:1.0000; stroke:none;fill-rule:evenodd;"
d="M 129.7811,87.9650
129.7879,87.9310
129.8071,87.9021
129.8360,87.8829
129.8700,87.8761
130.6300,87.8761
130.6640,87.8829
130.6929,87.9021
130.7121,87.9310
130.7189,87.9650
130.7189,88.1850
130.7121,88.2190
130.6929,88.2479
130.6640,88.2671
130.6300,88.2739
129.8700,88.2739
129.8360,88.2671
129.8071,88.2479
129.7879,88.2190
129.7811,88.1850
Z" /> 
<path style="fill:#000000; fill-opacity:1.0000; stroke:none;fill-rule:evenodd;"
d="M 128.7515,86.5250
128.7563,86.5007
128.7701,86.4801
128.7907,86.4663
128.8150,86.4615
129.7150,86.4615
129.7393,86.4663
129.7599,86.4801
129.7737,86.5007
129.7785,86.5250
129.7785,88.0250
129.7737,88.0493
129.7599,88.0699
129.7393,88.0837
129.7150,88.0885
128.8150,88.0885
128.7907,88.0837
128.7701,88.0699
128.7563,88.0493
128.7515,88.0250
Z" /> 
</g>
<g style="fill:#000000; fill-opacity:1.0000; stroke:none;">
<circle cx="143.5500" cy="88.5500" r="0.5000" /> 
<path style="fill:#000000; fill-opacity:1.0000; stroke:none;fill-rule:evenodd;"
d="M 143.1125,85.6750
143.1315,85.5793
143.1857,85.4982
143.2668,85.4440
143.3625,85.4250
144.0375,85.4250
144.1332,85.4440
144.2143,85.4982
144.2685,85.5793
144.2875,85.6750
144.2875,86.6250
144.2685,86.7207
144.2143,86.8018
144.1332,86.8560
144.0375,86.8750
143.3625,86.8750
143.2668,86.8560
143.1857,86.8018
143.1315,86.7207
143.1125,86.6250
Z" /> 
<path style="fill:#000000; fill-opacity:1.0000; stroke:none;fill-rule:evenodd;"
d="M 145.1875,85.6750
145.2065,85.5793
145.2607,85.4982
145.3418,85.4440
145.4375,85.4250
146.1125,85.4250
146.2082,85.4440
146.2893,85.4982
146.3435,85.5793
146.3625,85.6750
146.3625,86.6250
146.3435,86.7207
146.2893,86.8018
146.2082,86.8560
146.1125,86.8750
145.4375,86.8750
145.3418,86.8560
145.2607,86.8018
145.2065,86.7207
145.1875,86.6250
Z" /> 
<path style="fill:#000000; fill-opacity:1.0000; stroke:none;fill-rule:evenodd;"
d="M 125.1300,70.9175
125.1300,71.3175
124.2300,71.3175
124.2300,70.9175
Z" /> 
<path style="fill:#000000; fill-opacity:1.0000; stroke:none;fill-rule:evenodd;"
d="M 125.1300,71.7175
125.1300,72.1175
124.2300,72.1175
124.2300,71.7175
Z" /> 
<path style="fill:#000000; fill-opacity:1.0000; stroke:none;fill-rule:evenodd;"
d="M 125.1300,72.5175
125.1300,72.9175
124.2300,72.9175
124.2300,72.5175
Z" /> 
<path style="fill:#000000; fill-opacity:1.0000; stroke:none;fill-rule:evenodd;"
d="M 125.1300,73.3175
125.1300,73.7175
124.2300,73.7175
124.2300,73.3175
Z" /> 
<path style="fill:#000000; fill-opacity:1.0000; stroke:none;fill-rule:evenodd;"
d="M 123.4300,73.3175
123.4300,73.7175
122.5300,73.7175
122.5300,73.3175
Z" /> 
<path style="fill:#000000; fill-opacity:1.0000; stroke:none;fill-rule:evenodd;"
d="M 123.4300,72.5175
123.4300,72.9175
122.5300,72.9175
122.5300,72.5175
Z" /> 
<path style="fill:#000000; fill-opacity:1.0000; stroke:none;fill-rule:evenodd;"
d="M 123.4300,71.7175
123.4300,72.1175
122.5300,72.1175
122.5300,71.7175
Z" /> 
<path style="fill:#000000; fill-opacity:1.0000; stroke:none;fill-rule:evenodd;"
d="M 123.4300,70.9175
123.4300,71.3175
122.5300,71.3175
122.5300,70.9175
Z" /> 
<path style="fill:#000000; fill-opacity:1.0000; stroke:none;fill-rule:evenodd;"
d="M 142.7625,84.0000
142.7739,83.9426
142.8064,83.8939
142.8551,83.8614
142.9125,83.8500
143.9375,83.8500
143.9949,83.8614
144.0436,83.8939
144.0761,83.9426
144.0875,84.0000
144.0875,84.3000
144.0761,84.3574
144.0436,84.4061
143.9949,84.4386
143.9375,84.4500
142.9125,84.4500
142.8551,84.4386
142.8064,84.4061
142.7739,84.3574
142.7625,84.3000
Z" /> 
<path style="fill:#000000; fill-opacity:1.0000; stroke:none;fill-rule:evenodd;"
d="M 142.7625,83.0500
142.7739,82.9926
142.8064,82.9439
142.8551,82.9114
142.9125,82.9000
143.9375,82.9000
143.9949,82.9114
144.0436,82.9439
144.0761,82.9926
144.0875,83.0500
144.0875,83.3500
144.0761,83.4074
144.0436,83.4561
143.9949,83.4886
143.9375,83.5000
142.9125,83.5000
142.8551,83.4886
142.8064,83.4561
142.7739,83.4074
142.7625,83.3500
Z" /> 
<path style="fill:#000000; fill-opacity:1.0000; stroke:none;fill-rule:evenodd;"
d="M 142.7625,82.1000
142.7739,82.0426
142.8064,81.9939
142.8551,81.9614
142.9125,81.9500
143.9375,81.9500
143.9949,81.9614
144.0436,81.9939
144.0761,82.0426
144.0875,82.1000
144.0875,82.4000
144.0761,82.4574
144.0436,82.5061
143.9949,82.5386
143.9375,82.5500
142.9125,82.5500
142.8551,82.5386
142.8064,82.5061
142.7739,82.4574
142.7625,82.4000
Z" /> 
<path style="fill:#000000; fill-opacity:1.0000; stroke:none;fill-rule:evenodd;"
d="M 145.0375,82.1000
145.0489,82.0426
145.0814,81.9939
145.1301,81.9614
145.1875,81.9500
146.2125,81.9500
146.2699,81.9614
146.3186,81.9939
146.3511,82.0426
146.3625,82.1000
146.3625,82.4000
146.3511,82.4574
146.3186,82.5061
146.2699,82.5386
146.2125,82.5500
145.1875,82.5500
145.1301,82.5386
145.0814,82.5061
145.0489,82.4574
145.0375,82.4000
Z" /> 
<path style="fill:#000000; fill-opacity:1.0000; stroke:none;fill-rule:evenodd;"
d="M 145.0375,84.0000
145.0489,83.9426
145.0814,83.8939
145.1301,83.8614
145.1875,83.8500
146.2125,83.8500
146.2699,83.8614
146.3186,83.8939
146.3511,83.9426
146.3625,84.0000
146.3625,84.3000
146.3511,84.3574
146.3186,84.4061
146.2699,84.4386
146.2125,84.4500
145.1875,84.4500
145.1301,84.4386
145.0814,84.4061
145.0489,84.3574
145.0375,84.3000
Z" /> 
<path style="fill:#000000; fill-opacity:1.0000; stroke:none;fill-rule:evenodd;"
d="M 136.2062,81.8375
136.2995,81.8561
136.3786,81.9089
136.4314,81.9880
136.4500,82.0812
136.4500,82.5687
136.4314,82.6620
136.3786,82.7411
136.2995,82.7939
136.2062,82.8125
135.2937,82.8125
135.2005,82.7939
135.1214,82.7411
135.0686,82.6620
135.0500,82.5687
135.0500,82.0812
135.0686,81.9880
135.1214,81.9089
135.2005,81.8561
135.2937,81.8375
Z" /> 
<path style="fill:#000000; fill-opacity:1.0000; stroke:none;fill-rule:evenodd;"
d="M 136.2062,83.7125
136.2995,83.7311
136.3786,83.7839
136.4314,83.8630
136.4500,83.9562
136.4500,84.4437
136.4314,84.5370
136.3786,84.6161
136.2995,84.6689
136.2062,84.6875
135.2937,84.6875
135.2005,84.6689
135.1214,84.6161
135.0686,84.5370
135.0500,84.4437
135.0500,83.9562
135.0686,83.8630
135.1214,83.7839
135.2005,83.7311
135.2937,83.7125
Z" /> 
<path style="fill:#000000; fill-opacity:1.0000; stroke:none;fill-rule:evenodd;"
d="M 137.8000,88.5750
137.7043,88.5560
137.6232,88.5018
137.5690,88.4207
137.5500,88.3250
137.5500,87.6250
137.5690,87.5293
137.6232,87.4482
137.7043,87.3940
137.8000,87.3750
138.7000,87.3750
138.7957,87.3940
138.8768,87.4482
138.9310,87.5293
138.9500,87.6250
138.9500,88.3250
138.9310,88.4207
138.8768,88.5018
138.7957,88.5560
138.7000,88.5750
Z" /> 
<path style="fill:#000000; fill-opacity:1.0000; stroke:none;fill-rule:evenodd;"
d="M 137.8000,86.5750
137.7043,86.5560
137.6232,86.5018
137.5690,86.4207
137.5500,86.3250
137.5500,85.6250
137.5690,85.5293
137.6232,85.4482
137.7043,85.3940
137.8000,85.3750
138.7000,85.3750
138.7957,85.3940
138.8768,85.4482
138.9310,85.5293
138.9500,85.6250
138.9500,86.3250
138.9310,86.4207
138.8768,86.5018
138.7957,86.5560
138.7000,86.5750
Z" /> 
<path style="fill:#000000; fill-opacity:1.0000; stroke:none;fill-rule:evenodd;"
d="M 132.3050,70.7300
132.4007,70.7490
132.4818,70.8032
132.5360,70.8843
132.5550,70.9800
132.5550,71.6550
132.5360,71.7507
132.4818,71.8318
132.4007,71.8860
132.3050,71.9050
131.3550,71.9050
131.2593,71.8860
131.1782,71.8318
131.1240,71.7507
131.1050,71.6550
131.1050,70.9800
131.1240,70.8843
131.1782,70.8032
131.2593,70.7490
131.3550,70.7300
Z" /> 
<path style="fill:#000000; fill-opacity:1.0000; stroke:none;fill-rule:evenodd;"
d="M 132.3050,72.8050
132.4007,72.8240
132.4818,72.8782
132.5360,72.9593
132.5550,73.0550
132.5550,73.7300
132.5360,73.8257
132.4818,73.9068
132.4007,73.9610
132.3050,73.9800
131.3550,73.9800
131.2593,73.9610
131.1782,73.9068
131.1240,73.8257
131.1050,73.7300
131.1050,73.0550
131.1240,72.9593
131.1782,72.8782
131.2593,72.8240
131.3550,72.8050
Z" /> 
<path style="fill:#000000; fill-opacity:1.0000; stroke:none;fill-rule:evenodd;"
d="M 140.1250,91.9020
140.0860,91.8942
140.0529,91.8721
140.0308,91.8390
140.0230,91.8000
140.0230,90.8000
140.0308,90.7610
140.0529,90.7279
140.0860,90.7058
140.1250,90.6980
141.5250,90.6980
141.5640,90.7058
141.5971,90.7279
141.6192,90.7610
141.6270,90.8000
141.6270,91.8000
141.6192,91.8390
141.5971,91.8721
141.5640,91.8942
141.5250,91.9020
Z" /> 
<path style="fill:#000000; fill-opacity:1.0000; stroke:none;fill-rule:evenodd;"
d="M 140.1250,90.0020
140.0860,89.9942
140.0529,89.9721
140.0308,89.9390
140.0230,89.9000
140.0230,88.9000
140.0308,88.8610
140.0529,88.8279
140.0860,88.8058
140.1250,88.7980
141.5250,88.7980
141.5640,88.8058
141.5971,88.8279
141.6192,88.8610
141.6270,88.9000
141.6270,89.9000
141.6192,89.9390
141.5971,89.9721
141.5640,89.9942
141.5250,90.0020
Z" /> 
<path style="fill:#000000; fill-opacity:1.0000; stroke:none;fill-rule:evenodd;"
d="M 142.3250,90.9520
142.2860,90.9442
142.2529,90.9221
142.2308,90.8890
142.2230,90.8500
142.2230,89.8500
142.2308,89.8110
142.2529,89.7779
142.2860,89.7558
142.3250,89.7480
143.7250,89.7480
143.7640,89.7558
143.7971,89.7779
143.8192,89.8110
143.8270,89.8500
143.8270,90.8500
143.8192,90.8890
143.7971,90.9221
143.7640,90.9442
143.7250,90.9520
Z" /> 
<path style="fill:#000000; fill-opacity:1.0000; stroke:none;fill-rule:evenodd;"
d="M 133.9250,85.3800
134.0207,85.3990
134.1018,85.4532
134.1560,85.5343
134.1750,85.6300
134.1750,86.3050
134.1560,86.4007
134.1018,86.4818
134.0207,86.5360
133.9250,86.5550
132.9750,86.5550
132.8793,86.5360
132.7982,86.4818
132.7440,86.4007
132.7250,86.3050
132.7250,85.6300
132.7440,85.5343
132.7982,85.4532
132.8793,85.3990
132.9750,85.3800
Z" /> 
<path style="fill:#000000; fill-opacity:1.0000; stroke:none;fill-rule:evenodd;"
d="M 133.9250,87.4550
134.0207,87.4740
134.1018,87.5282
134.1560,87.6093
134.1750,87.7050
134.1750,88.3800
134.1560,88.4757
134.1018,88.5568
134.0207,88.6110
133.9250,88.6300
132.9750,88.6300
132.8793,88.6110
132.7982,88.5568
132.7440,88.4757
132.7250,88.3800
132.7250,87.7050
132.7440,87.6093
132.7982,87.5282
132.8793,87.4740
132.9750,87.4550
Z" /> 
<path style="fill:#000000; fill-opacity:1.0000; stroke:none;fill-rule:evenodd;"
d="M 138.7062,81.8375
138.7995,81.8561
138.8786,81.9089
138.9314,81.9880
138.9500,82.0812
138.9500,82.5687
138.9314,82.6620
138.8786,82.7411
138.7995,82.7939
138.7062,82.8125
137.7937,82.8125
137.7005,82.7939
137.6214,82.7411
137.5686,82.6620
137.5500,82.5687
137.5500,82.0812
137.5686,81.9880
137.6214,81.9089
137.7005,81.8561
137.7937,81.8375
Z" /> 
<path style="fill:#000000; fill-opacity:1.0000; stroke:none;fill-rule:evenodd;"
d="M 138.7062,83.7125
138.7995,83.7311
138.8786,83.7839
138.9314,83.8630
138.9500,83.9562
138.9500,84.4437
138.9314,84.5370
138.8786,84.6161
138.7995,84.6689
138.7062,84.6875
137.7937,84.6875
137.7005,84.6689
137.6214,84.6161
137.5686,84.5370
137.5500,84.4437
137.5500,83.9562
137.5686,83.8630
137.6214,83.7839
137.7005,83.7311
137.7937,83.7125
Z" /> 
<path style="fill:#000000; fill-opacity:1.0000; stroke:none;fill-rule:evenodd;"
d="M 141.6750,81.5625
141.7707,81.5815
141.8518,81.6357
141.9060,81.7168
141.9250,81.8125
141.9250,82.4875
141.9060,82.5832
141.8518,82.6643
141.7707,82.7185
141.6750,82.7375
140.7250,82.7375
140.6293,82.7185
140.5482,82.6643
140.4940,82.5832
140.4750,82.4875
140.4750,81.8125
140.4940,81.7168
140.5482,81.6357
140.6293,81.5815
140.7250,81.5625
Z" /> 
<path style="fill:#000000; fill-opacity:1.0000; stroke:none;fill-rule:evenodd;"
d="M 141.6750,83.6375
141.7707,83.6565
141.8518,83.7107
141.9060,83.7918
141.9250,83.8875
141.9250,84.5625
141.9060,84.6582
141.8518,84.7393
141.7707,84.7935
141.6750,84.8125
140.7250,84.8125
140.6293,84.7935
140.5482,84.7393
140.4940,84.6582
140.4750,84.5625
140.4750,83.8875
140.4940,83.7918
140.5482,83.7107
140.6293,83.6565
140.7250,83.6375
Z" /> 
<path style="fill:#000000; fill-opacity:1.0000; stroke:none;fill-rule:evenodd;"
d="M 135.3000,88.5750
135.2043,88.5560
135.1232,88.5018
135.0690,88.4207
135.0500,88.3250
135.0500,87.6250
135.0690,87.5293
135.1232,87.4482
135.2043,87.3940
135.3000,87.3750
136.2000,87.3750
136.2957,87.3940
136.3768,87.4482
136.4310,87.5293
136.4500,87.6250
136.4500,88.3250
136.4310,88.4207
136.3768,88.5018
136.2957,88.5560
136.2000,88.5750
Z" /> 
<path style="fill:#000000; fill-opacity:1.0000; stroke:none;fill-rule:evenodd;"
d="M 135.3000,86.5750
135.2043,86.5560
135.1232,86.5018
135.0690,86.4207
135.0500,86.3250
135.0500,85.6250
135.0690,85.5293
135.1232,85.4482
135.2043,85.3940
135.3000,85.3750
136.2000,85.3750
136.2957,85.3940
136.3768,85.4482
136.4310,85.5293
136.4500,85.6250
136.4500,86.3250
136.4310,86.4207
136.3768,86.5018
136.2957,86.5560
136.2000,86.5750
Z" /> 
<path style="fill:#000000; fill-opacity:1.0000; stroke:none;fill-rule:evenodd;"
d="M 118.0280,77.0200
118.0358,76.9810
118.0579,76.9479
118.0910,76.9258
118.1300,76.9180
119.6300,76.9180
119.6690,76.9258
119.7021,76.9479
119.7242,76.9810
119.7320,77.0200
119.7320,80.4200
119.7242,80.4590
119.7021,80.4921
119.6690,80.5142
119.6300,80.5220
118.1300,80.5220
118.0910,80.5142
118.0579,80.4921
118.0358,80.4590
118.0280,80.4200
Z" /> 
<path style="fill:#000000; fill-opacity:1.0000; stroke:none;fill-rule:evenodd;"
d="M 111.3280,77.0200
111.3358,76.9810
111.3579,76.9479
111.3910,76.9258
111.4300,76.9180
112.9300,76.9180
112.9690,76.9258
113.0021,76.9479
113.0242,76.9810
113.0320,77.0200
113.0320,80.4200
113.0242,80.4590
113.0021,80.4921
112.9690,80.5142
112.9300,80.5220
111.4300,80.5220
111.3910,80.5142
111.3579,80.4921
111.3358,80.4590
111.3280,80.4200
Z" /> 
<path style="fill:#000000; fill-opacity:1.0000; stroke:none;fill-rule:evenodd;"
d="M 115.9280,82.7200
115.9358,82.6810
115.9579,82.6479
115.9910,82.6258
116.0300,82.6180
117.0300,82.6180
117.0690,82.6258
117.1021,82.6479
117.1242,82.6810
117.1320,82.7200
117.1320,86.2200
117.1242,86.2590
117.1021,86.2921
117.0690,86.3142
117.0300,86.3220
116.0300,86.3220
115.9910,86.3142
115.9579,86.2921
115.9358,86.2590
115.9280,86.2200
Z" /> 
<path style="fill:#000000; fill-opacity:1.0000; stroke:none;fill-rule:evenodd;"
d="M 113.9280,82.7200
113.9358,82.6810
113.9579,82.6479
113.9910,82.6258
114.0300,82.6180
115.0300,82.6180
115.0690,82.6258
115.1021,82.6479
115.1242,82.6810
115.1320,82.7200
115.1320,86.2200
115.1242,86.2590
115.1021,86.2921
115.0690,86.3142
115.0300,86.3220
114.0300,86.3220
113.9910,86.3142
113.9579,86.2921
113.9358,86.2590
113.9280,86.2200
Z" /> 
</g>
<g style="fill:none; 
stroke:#000000; stroke-width:1.0000; stroke-opacity:1; 
stroke-linecap:round; stroke-linejoin:round;">
<path d="M106.4825 81.3600
L105.6825 81.3600
" />
<path d="M110.8125 81.3600
L109.7125 81.3600
" />
<path d="M106.4825 72.7200
L105.6825 72.7200
" />
<path d="M110.8125 72.7200
L109.7125 72.7200
" />
</g> 
</svg>
