<?xml version="1.0" standalone="no"?>
 <!DOCTYPE svg PUBLIC "-//W3C//DTD SVG 1.1//EN" 
 "http://www.w3.org/Graphics/SVG/1.1/DTD/svg11.dtd"> 
<svg
  xmlns:svg="http://www.w3.org/2000/svg"
  xmlns="http://www.w3.org/2000/svg"
  xmlns:xlink="http://www.w3.org/1999/xlink"
  version="1.1"
  width="297.0022mm" height="210.0072mm" viewBox="0.0000 0.0000 297.0022 210.0072">
<title>SVG Image created as Smart_insoles_2025_v1-Edge_Cuts.svg date 2025/12/05 16:25:20 </title>
  <desc>Image generated by PCBNEW </desc>
<g style="fill:#000000; fill-opacity:1.0000;stroke:#000000; stroke-opacity:1.0000;
stroke-linecap:round; stroke-linejoin:round;"
 transform="translate(0 0) scale(1 1)">
</g>
<g style="fill:none; 
stroke:#000000; stroke-width:0.0500; stroke-opacity:1; 
stroke-linecap:round; stroke-linejoin:round;">
<path d="M107.6780 68.9439 A3.0480 3.0480 0.0 0 0 104.6300 71.9919" />
<path d="M133.8740 95.9739
L139.3346 99.0771
" />
<path d="M104.7266 92.9862 A3.0495 3.0495 0.0 0 0 107.6833 95.9789" />
<path d="M171.3088 69.0672
L107.6780 68.9439
" />
<path d="M174.3534 95.9949
L174.3568 72.1152
" />
<path d="M133.8740 95.9739
L107.6833 95.9789
" />
<path d="M104.6300 71.9919
L104.7287 92.9862
" />
<path d="M174.3568 72.1152 A3.0480 3.0480 0.0 0 0 171.3088 69.0672" />
<path d="M171.3054 99.0429 A3.0479 3.0479 0.0 0 0 174.3534 95.9949" />
<path d="M139.3346 99.0771
L171.3054 99.0429
" />
</g> 
</svg>
