<?xml version="1.0" standalone="no"?>
 <!DOCTYPE svg PUBLIC "-//W3C//DTD SVG 1.1//EN" 
 "http://www.w3.org/Graphics/SVG/1.1/DTD/svg11.dtd"> 
<svg
  xmlns:svg="http://www.w3.org/2000/svg"
  xmlns="http://www.w3.org/2000/svg"
  xmlns:xlink="http://www.w3.org/1999/xlink"
  version="1.1"
  width="297.0022mm" height="210.0072mm" viewBox="0.0000 0.0000 297.0022 210.0072">
<title>SVG Image created as Smart_insoles_2025_v1-B_Silkscreen.svg date 2025/12/05 16:25:19 </title>
  <desc>Image generated by PCBNEW </desc>
<g style="fill:#000000; fill-opacity:1.0000;stroke:#000000; stroke-opacity:1.0000;
stroke-linecap:round; stroke-linejoin:round;"
 transform="translate(0 0) scale(1 1)">
</g>
<g style="fill:none; 
stroke:#000000; stroke-width:0.1524; stroke-opacity:1; 
stroke-linecap:round; stroke-linejoin:round;">
<text x="139.2200" y="80.8700"
transform="scale(-1 1) translate(-278.440000 0)"
textLength="2.2572" font-size="1.3333" lengthAdjust="spacingAndGlyphs"
text-anchor="start" opacity="0" stroke-opacity="0">PG</text>
<g class="stroked-text"><desc>PG</desc>
<path d="M138.8816 80.7377
L138.8816 79.7217
" />
<path d="M138.8816 79.7217
L138.5007 79.7217
" />
<path d="M138.5007 79.7217
L138.4055 79.7701
" />
<path d="M138.4055 79.7701
L138.3578 79.8185
" />
<path d="M138.3578 79.8185
L138.3102 79.9153
" />
<path d="M138.3102 79.9153
L138.3102 80.0604
" />
<path d="M138.3102 80.0604
L138.3578 80.1572
" />
<path d="M138.3578 80.1572
L138.4055 80.2055
" />
<path d="M138.4055 80.2055
L138.5007 80.2539
" />
<path d="M138.5007 80.2539
L138.8816 80.2539
" />
<path d="M137.3578 79.7701
L137.4531 79.7217
" />
<path d="M137.4531 79.7217
L137.5959 79.7217
" />
<path d="M137.5959 79.7217
L137.7388 79.7701
" />
<path d="M137.7388 79.7701
L137.8340 79.8669
" />
<path d="M137.8340 79.8669
L137.8816 79.9636
" />
<path d="M137.8816 79.9636
L137.9293 80.1572
" />
<path d="M137.9293 80.1572
L137.9293 80.3023
" />
<path d="M137.9293 80.3023
L137.8816 80.4958
" />
<path d="M137.8816 80.4958
L137.8340 80.5926
" />
<path d="M137.8340 80.5926
L137.7388 80.6894
" />
<path d="M137.7388 80.6894
L137.5959 80.7377
" />
<path d="M137.5959 80.7377
L137.5007 80.7377
" />
<path d="M137.5007 80.7377
L137.3578 80.6894
" />
<path d="M137.3578 80.6894
L137.3102 80.6410
" />
<path d="M137.3102 80.6410
L137.3102 80.3023
" />
<path d="M137.3102 80.3023
L137.5007 80.3023
" />
</g><text x="136.8600" y="80.8700"
transform="scale(-1 1) translate(-273.720000 0)"
textLength="3.3048" font-size="1.3333" lengthAdjust="spacingAndGlyphs"
text-anchor="start" opacity="0" stroke-opacity="0">CHG</text>
<g class="stroked-text"><desc>CHG</desc>
<path d="M135.9502 80.6410
L135.9978 80.6894
" />
<path d="M135.9978 80.6894
L136.1407 80.7377
" />
<path d="M136.1407 80.7377
L136.2359 80.7377
" />
<path d="M136.2359 80.7377
L136.3788 80.6894
" />
<path d="M136.3788 80.6894
L136.4740 80.5926
" />
<path d="M136.4740 80.5926
L136.5216 80.4958
" />
<path d="M136.5216 80.4958
L136.5693 80.3023
" />
<path d="M136.5693 80.3023
L136.5693 80.1572
" />
<path d="M136.5693 80.1572
L136.5216 79.9636
" />
<path d="M136.5216 79.9636
L136.4740 79.8669
" />
<path d="M136.4740 79.8669
L136.3788 79.7701
" />
<path d="M136.3788 79.7701
L136.2359 79.7217
" />
<path d="M136.2359 79.7217
L136.1407 79.7217
" />
<path d="M136.1407 79.7217
L135.9978 79.7701
" />
<path d="M135.9978 79.7701
L135.9502 79.8185
" />
<path d="M135.5216 80.7377
L135.5216 79.7217
" />
<path d="M135.5216 80.2055
L134.9502 80.2055
" />
<path d="M134.9502 80.7377
L134.9502 79.7217
" />
<path d="M133.9502 79.7701
L134.0455 79.7217
" />
<path d="M134.0455 79.7217
L134.1883 79.7217
" />
<path d="M134.1883 79.7217
L134.3312 79.7701
" />
<path d="M134.3312 79.7701
L134.4264 79.8669
" />
<path d="M134.4264 79.8669
L134.4740 79.9636
" />
<path d="M134.4740 79.9636
L134.5216 80.1572
" />
<path d="M134.5216 80.1572
L134.5216 80.3023
" />
<path d="M134.5216 80.3023
L134.4740 80.4958
" />
<path d="M134.4740 80.4958
L134.4264 80.5926
" />
<path d="M134.4264 80.5926
L134.3312 80.6894
" />
<path d="M134.3312 80.6894
L134.1883 80.7377
" />
<path d="M134.1883 80.7377
L134.0931 80.7377
" />
<path d="M134.0931 80.7377
L133.9502 80.6894
" />
<path d="M133.9502 80.6894
L133.9026 80.6410
" />
<path d="M133.9026 80.6410
L133.9026 80.3023
" />
<path d="M133.9026 80.3023
L134.0931 80.3023
" />
</g><text x="169.9100" y="96.2300"
transform="scale(-1 1) translate(-339.820000 0)"
textLength="6.3500" font-size="1.3547" lengthAdjust="spacingAndGlyphs"
text-anchor="start" opacity="0" stroke-opacity="0">PWR_ON</text>
<g class="stroked-text"><desc>PWR_ON</desc>
<path d="M169.5678 96.0977
L169.5678 95.0817
" />
<path d="M169.5678 95.0817
L169.1808 95.0817
" />
<path d="M169.1808 95.0817
L169.0840 95.1301
" />
<path d="M169.0840 95.1301
L169.0356 95.1785
" />
<path d="M169.0356 95.1785
L168.9873 95.2753
" />
<path d="M168.9873 95.2753
L168.9873 95.4204
" />
<path d="M168.9873 95.4204
L169.0356 95.5172
" />
<path d="M169.0356 95.5172
L169.0840 95.5655
" />
<path d="M169.0840 95.5655
L169.1808 95.6139
" />
<path d="M169.1808 95.6139
L169.5678 95.6139
" />
<path d="M168.6486 95.0817
L168.4067 96.0977
" />
<path d="M168.4067 96.0977
L168.2132 95.3720
" />
<path d="M168.2132 95.3720
L168.0196 96.0977
" />
<path d="M168.0196 96.0977
L167.7777 95.0817
" />
<path d="M166.8101 96.0977
L167.1488 95.6139
" />
<path d="M167.3907 96.0977
L167.3907 95.0817
" />
<path d="M167.3907 95.0817
L167.0036 95.0817
" />
<path d="M167.0036 95.0817
L166.9069 95.1301
" />
<path d="M166.9069 95.1301
L166.8585 95.1785
" />
<path d="M166.8585 95.1785
L166.8101 95.2753
" />
<path d="M166.8101 95.2753
L166.8101 95.4204
" />
<path d="M166.8101 95.4204
L166.8585 95.5172
" />
<path d="M166.8585 95.5172
L166.9069 95.5655
" />
<path d="M166.9069 95.5655
L167.0036 95.6139
" />
<path d="M167.0036 95.6139
L167.3907 95.6139
" />
<path d="M166.6166 96.1945
L165.8425 96.1945
" />
<path d="M165.4071 95.0817
L165.2135 95.0817
" />
<path d="M165.2135 95.0817
L165.1168 95.1301
" />
<path d="M165.1168 95.1301
L165.0200 95.2269
" />
<path d="M165.0200 95.2269
L164.9716 95.4204
" />
<path d="M164.9716 95.4204
L164.9716 95.7591
" />
<path d="M164.9716 95.7591
L165.0200 95.9526
" />
<path d="M165.0200 95.9526
L165.1168 96.0494
" />
<path d="M165.1168 96.0494
L165.2135 96.0977
" />
<path d="M165.2135 96.0977
L165.4071 96.0977
" />
<path d="M165.4071 96.0977
L165.5038 96.0494
" />
<path d="M165.5038 96.0494
L165.6006 95.9526
" />
<path d="M165.6006 95.9526
L165.6490 95.7591
" />
<path d="M165.6490 95.7591
L165.6490 95.4204
" />
<path d="M165.6490 95.4204
L165.6006 95.2269
" />
<path d="M165.6006 95.2269
L165.5038 95.1301
" />
<path d="M165.5038 95.1301
L165.4071 95.0817
" />
<path d="M164.5362 96.0977
L164.5362 95.0817
" />
<path d="M164.5362 95.0817
L163.9556 96.0977
" />
<path d="M163.9556 96.0977
L163.9556 95.0817
" />
</g></g>
<g style="fill:none; 
stroke:#000000; stroke-width:0.2540; stroke-opacity:1; 
stroke-linecap:round; stroke-linejoin:round;">
<g transform="rotate(-180.000000 117.2600 85.2000)">
<text x="117.2600" y="85.2000"
transform="scale(-1 1) translate(-234.520000 0)"
textLength="3.3988" font-size="3.3867" lengthAdjust="spacingAndGlyphs"
text-anchor="start" opacity="0" stroke-opacity="0">-</text>
</g>
<g class="stroked-text"><desc>-</desc>
<path d="M118.0319 86.4917
L119.9671 86.4917
" />
</g><g transform="rotate(-180.000000 110.6100 85.1500)">
<text x="110.6100" y="85.1500"
transform="scale(-1 1) translate(-221.220000 0)"
textLength="3.3988" font-size="3.3867" lengthAdjust="spacingAndGlyphs"
text-anchor="start" opacity="0" stroke-opacity="0">+</text>
</g>
<g class="stroked-text"><desc>+</desc>
<path d="M111.3819 86.4417
L113.3171 86.4417
" />
<path d="M112.3495 85.4741
L112.3495 87.4093
" />
</g></g>
<g style="fill:none; 
stroke:#000000; stroke-width:0.1524; stroke-opacity:1; 
stroke-linecap:round; stroke-linejoin:round;">
<text x="148.0000" y="89.1400"
transform="scale(-1 1) translate(-296.000000 0)"
textLength="3.7810" font-size="1.3333" lengthAdjust="spacingAndGlyphs"
text-anchor="start" opacity="0" stroke-opacity="0">VSEL</text>
<g class="stroked-text"><desc>VSEL</desc>
<path d="M147.8045 87.9917
L147.4712 89.0077
" />
<path d="M147.4712 89.0077
L147.1378 87.9917
" />
<path d="M146.8521 88.9594
L146.7093 89.0077
" />
<path d="M146.7093 89.0077
L146.4712 89.0077
" />
<path d="M146.4712 89.0077
L146.3759 88.9594
" />
<path d="M146.3759 88.9594
L146.3283 88.9110
" />
<path d="M146.3283 88.9110
L146.2807 88.8142
" />
<path d="M146.2807 88.8142
L146.2807 88.7174
" />
<path d="M146.2807 88.7174
L146.3283 88.6207
" />
<path d="M146.3283 88.6207
L146.3759 88.5723
" />
<path d="M146.3759 88.5723
L146.4712 88.5239
" />
<path d="M146.4712 88.5239
L146.6616 88.4755
" />
<path d="M146.6616 88.4755
L146.7569 88.4272
" />
<path d="M146.7569 88.4272
L146.8045 88.3788
" />
<path d="M146.8045 88.3788
L146.8521 88.2820
" />
<path d="M146.8521 88.2820
L146.8521 88.1853
" />
<path d="M146.8521 88.1853
L146.8045 88.0885
" />
<path d="M146.8045 88.0885
L146.7569 88.0401
" />
<path d="M146.7569 88.0401
L146.6616 87.9917
" />
<path d="M146.6616 87.9917
L146.4235 87.9917
" />
<path d="M146.4235 87.9917
L146.2807 88.0401
" />
<path d="M145.8521 88.4755
L145.5188 88.4755
" />
<path d="M145.3759 89.0077
L145.8521 89.0077
" />
<path d="M145.8521 89.0077
L145.8521 87.9917
" />
<path d="M145.8521 87.9917
L145.3759 87.9917
" />
<path d="M144.4712 89.0077
L144.9474 89.0077
" />
<path d="M144.9474 89.0077
L144.9474 87.9917
" />
</g><g transform="rotate(-270.000000 165.4750 87.8000)">
<text x="165.4750" y="87.8000"
transform="scale(-1 1) translate(-330.950000 0)"
textLength="10.8978" font-size="1.3547" lengthAdjust="spacingAndGlyphs"
text-anchor="start" opacity="0" stroke-opacity="0">SENSOR: LEFT</text>
</g>
<g class="stroked-text"><desc>SENSOR: LEFT</desc>
<path d="M165.6556 87.5062
L165.6073 87.3611
" />
<path d="M165.6073 87.3611
L165.6073 87.1192
" />
<path d="M165.6073 87.1192
L165.6556 87.0224
" />
<path d="M165.6556 87.0224
L165.7040 86.9740
" />
<path d="M165.7040 86.9740
L165.8008 86.9256
" />
<path d="M165.8008 86.9256
L165.8975 86.9256
" />
<path d="M165.8975 86.9256
L165.9943 86.9740
" />
<path d="M165.9943 86.9740
L166.0427 87.0224
" />
<path d="M166.0427 87.0224
L166.0911 87.1192
" />
<path d="M166.0911 87.1192
L166.1395 87.3127
" />
<path d="M166.1395 87.3127
L166.1878 87.4095
" />
<path d="M166.1878 87.4095
L166.2362 87.4578
" />
<path d="M166.2362 87.4578
L166.3330 87.5062
" />
<path d="M166.3330 87.5062
L166.4297 87.5062
" />
<path d="M166.4297 87.5062
L166.5265 87.4578
" />
<path d="M166.5265 87.4578
L166.5749 87.4095
" />
<path d="M166.5749 87.4095
L166.6233 87.3127
" />
<path d="M166.6233 87.3127
L166.6233 87.0708
" />
<path d="M166.6233 87.0708
L166.5749 86.9256
" />
<path d="M166.1395 86.4902
L166.1395 86.1515
" />
<path d="M165.6073 86.0064
L165.6073 86.4902
" />
<path d="M165.6073 86.4902
L166.6233 86.4902
" />
<path d="M166.6233 86.4902
L166.6233 86.0064
" />
<path d="M165.6073 85.5710
L166.6233 85.5710
" />
<path d="M166.6233 85.5710
L165.6073 84.9904
" />
<path d="M165.6073 84.9904
L166.6233 84.9904
" />
<path d="M165.6556 84.5550
L165.6073 84.4098
" />
<path d="M165.6073 84.4098
L165.6073 84.1679
" />
<path d="M165.6073 84.1679
L165.6556 84.0712
" />
<path d="M165.6556 84.0712
L165.7040 84.0228
" />
<path d="M165.7040 84.0228
L165.8008 83.9744
" />
<path d="M165.8008 83.9744
L165.8975 83.9744
" />
<path d="M165.8975 83.9744
L165.9943 84.0228
" />
<path d="M165.9943 84.0228
L166.0427 84.0712
" />
<path d="M166.0427 84.0712
L166.0911 84.1679
" />
<path d="M166.0911 84.1679
L166.1395 84.3615
" />
<path d="M166.1395 84.3615
L166.1878 84.4582
" />
<path d="M166.1878 84.4582
L166.2362 84.5066
" />
<path d="M166.2362 84.5066
L166.3330 84.5550
" />
<path d="M166.3330 84.5550
L166.4297 84.5550
" />
<path d="M166.4297 84.5550
L166.5265 84.5066
" />
<path d="M166.5265 84.5066
L166.5749 84.4582
" />
<path d="M166.5749 84.4582
L166.6233 84.3615
" />
<path d="M166.6233 84.3615
L166.6233 84.1195
" />
<path d="M166.6233 84.1195
L166.5749 83.9744
" />
<path d="M166.6233 83.3455
L166.6233 83.1519
" />
<path d="M166.6233 83.1519
L166.5749 83.0552
" />
<path d="M166.5749 83.0552
L166.4781 82.9584
" />
<path d="M166.4781 82.9584
L166.2846 82.9100
" />
<path d="M166.2846 82.9100
L165.9459 82.9100
" />
<path d="M165.9459 82.9100
L165.7524 82.9584
" />
<path d="M165.7524 82.9584
L165.6556 83.0552
" />
<path d="M165.6556 83.0552
L165.6073 83.1519
" />
<path d="M165.6073 83.1519
L165.6073 83.3455
" />
<path d="M165.6073 83.3455
L165.6556 83.4422
" />
<path d="M165.6556 83.4422
L165.7524 83.5390
" />
<path d="M165.7524 83.5390
L165.9459 83.5874
" />
<path d="M165.9459 83.5874
L166.2846 83.5874
" />
<path d="M166.2846 83.5874
L166.4781 83.5390
" />
<path d="M166.4781 83.5390
L166.5749 83.4422
" />
<path d="M166.5749 83.4422
L166.6233 83.3455
" />
<path d="M165.6073 81.8940
L166.0911 82.2327
" />
<path d="M165.6073 82.4746
L166.6233 82.4746
" />
<path d="M166.6233 82.4746
L166.6233 82.0875
" />
<path d="M166.6233 82.0875
L166.5749 81.9908
" />
<path d="M166.5749 81.9908
L166.5265 81.9424
" />
<path d="M166.5265 81.9424
L166.4297 81.8940
" />
<path d="M166.4297 81.8940
L166.2846 81.8940
" />
<path d="M166.2846 81.8940
L166.1878 81.9424
" />
<path d="M166.1878 81.9424
L166.1395 81.9908
" />
<path d="M166.1395 81.9908
L166.0911 82.0875
" />
<path d="M166.0911 82.0875
L166.0911 82.4746
" />
<path d="M165.7040 81.4586
L165.6556 81.4102
" />
<path d="M165.6556 81.4102
L165.6073 81.4586
" />
<path d="M165.6073 81.4586
L165.6556 81.5070
" />
<path d="M165.6556 81.5070
L165.7040 81.4586
" />
<path d="M165.7040 81.4586
L165.6073 81.4586
" />
<path d="M166.2362 81.4586
L166.1878 81.4102
" />
<path d="M166.1878 81.4102
L166.1395 81.4586
" />
<path d="M166.1395 81.4586
L166.1878 81.5070
" />
<path d="M166.1878 81.5070
L166.2362 81.4586
" />
<path d="M166.2362 81.4586
L166.1395 81.4586
" />
<path d="M165.6073 79.7169
L165.6073 80.2007
" />
<path d="M165.6073 80.2007
L166.6233 80.2007
" />
<path d="M166.1395 79.3782
L166.1395 79.0395
" />
<path d="M165.6073 78.8944
L165.6073 79.3782
" />
<path d="M165.6073 79.3782
L166.6233 79.3782
" />
<path d="M166.6233 79.3782
L166.6233 78.8944
" />
<path d="M166.1395 78.1203
L166.1395 78.4590
" />
<path d="M165.6073 78.4590
L166.6233 78.4590
" />
<path d="M166.6233 78.4590
L166.6233 77.9752
" />
<path d="M166.6233 77.7333
L166.6233 77.1527
" />
<path d="M165.6073 77.4430
L166.6233 77.4430
" />
</g><g transform="rotate(-270.000000 172.5998 83.0300)">
<text x="172.5998" y="83.0300"
transform="scale(-1 1) translate(-345.199664 0)"
textLength="10.1143" font-size="1.3333" lengthAdjust="spacingAndGlyphs"
text-anchor="middle" opacity="0" stroke-opacity="0">FPUNE-GEAR</text>
</g>
<g class="stroked-text"><desc>FPUNE-GEAR</desc>
<path d="M173.2539 87.3871
L173.2539 87.7205
" />
<path d="M172.7301 87.7205
L173.7301 87.7205
" />
<path d="M173.7301 87.7205
L173.7301 87.2443
" />
<path d="M172.7301 86.8633
L173.7301 86.8633
" />
<path d="M173.7301 86.8633
L173.7301 86.4824
" />
<path d="M173.7301 86.4824
L173.6825 86.3871
" />
<path d="M173.6825 86.3871
L173.6349 86.3395
" />
<path d="M173.6349 86.3395
L173.5397 86.2919
" />
<path d="M173.5397 86.2919
L173.3968 86.2919
" />
<path d="M173.3968 86.2919
L173.3016 86.3395
" />
<path d="M173.3016 86.3395
L173.2539 86.3871
" />
<path d="M173.2539 86.3871
L173.2063 86.4824
" />
<path d="M173.2063 86.4824
L173.2063 86.8633
" />
<path d="M173.7301 85.8633
L172.9206 85.8633
" />
<path d="M172.9206 85.8633
L172.8254 85.8157
" />
<path d="M172.8254 85.8157
L172.7778 85.7681
" />
<path d="M172.7778 85.7681
L172.7301 85.6729
" />
<path d="M172.7301 85.6729
L172.7301 85.4824
" />
<path d="M172.7301 85.4824
L172.7778 85.3871
" />
<path d="M172.7778 85.3871
L172.8254 85.3395
" />
<path d="M172.8254 85.3395
L172.9206 85.2919
" />
<path d="M172.9206 85.2919
L173.7301 85.2919
" />
<path d="M172.7301 84.8157
L173.7301 84.8157
" />
<path d="M173.7301 84.8157
L172.7301 84.2443
" />
<path d="M172.7301 84.2443
L173.7301 84.2443
" />
<path d="M173.2539 83.7681
L173.2539 83.4348
" />
<path d="M172.7301 83.2919
L172.7301 83.7681
" />
<path d="M172.7301 83.7681
L173.7301 83.7681
" />
<path d="M173.7301 83.7681
L173.7301 83.2919
" />
<path d="M173.1111 82.8633
L173.1111 82.1014
" />
<path d="M173.6825 81.1014
L173.7301 81.1967
" />
<path d="M173.7301 81.1967
L173.7301 81.3395
" />
<path d="M173.7301 81.3395
L173.6825 81.4824
" />
<path d="M173.6825 81.4824
L173.5873 81.5776
" />
<path d="M173.5873 81.5776
L173.4920 81.6252
" />
<path d="M173.4920 81.6252
L173.3016 81.6729
" />
<path d="M173.3016 81.6729
L173.1587 81.6729
" />
<path d="M173.1587 81.6729
L172.9682 81.6252
" />
<path d="M172.9682 81.6252
L172.8730 81.5776
" />
<path d="M172.8730 81.5776
L172.7778 81.4824
" />
<path d="M172.7778 81.4824
L172.7301 81.3395
" />
<path d="M172.7301 81.3395
L172.7301 81.2443
" />
<path d="M172.7301 81.2443
L172.7778 81.1014
" />
<path d="M172.7778 81.1014
L172.8254 81.0538
" />
<path d="M172.8254 81.0538
L173.1587 81.0538
" />
<path d="M173.1587 81.0538
L173.1587 81.2443
" />
<path d="M173.2539 80.6252
L173.2539 80.2919
" />
<path d="M172.7301 80.1490
L172.7301 80.6252
" />
<path d="M172.7301 80.6252
L173.7301 80.6252
" />
<path d="M173.7301 80.6252
L173.7301 80.1490
" />
<path d="M173.0159 79.7681
L173.0159 79.2919
" />
<path d="M172.7301 79.8633
L173.7301 79.5300
" />
<path d="M173.7301 79.5300
L172.7301 79.1967
" />
<path d="M172.7301 78.2919
L173.2063 78.6252
" />
<path d="M172.7301 78.8633
L173.7301 78.8633
" />
<path d="M173.7301 78.8633
L173.7301 78.4824
" />
<path d="M173.7301 78.4824
L173.6825 78.3871
" />
<path d="M173.6825 78.3871
L173.6349 78.3395
" />
<path d="M173.6349 78.3395
L173.5397 78.2919
" />
<path d="M173.5397 78.2919
L173.3968 78.2919
" />
<path d="M173.3968 78.2919
L173.3016 78.3395
" />
<path d="M173.3016 78.3395
L173.2539 78.3871
" />
<path d="M173.2539 78.3871
L173.2063 78.4824
" />
<path d="M173.2063 78.4824
L173.2063 78.8633
" />
</g><g transform="rotate(-270.000000 170.9899 83.0300)">
<text x="170.9899" y="83.0300"
transform="scale(-1 1) translate(-341.979776 0)"
textLength="15.6858" font-size="1.3333" lengthAdjust="spacingAndGlyphs"
text-anchor="middle" opacity="0" stroke-opacity="0">Insole_V1.0 / REV A</text>
</g>
<g class="stroked-text"><desc>Insole_V1.0 / REV A</desc>
<path d="M171.1202 90.5062
L172.1202 90.5062
" />
<path d="M171.7869 90.0300
L171.1202 90.0300
" />
<path d="M171.6916 90.0300
L171.7392 89.9824
" />
<path d="M171.7392 89.9824
L171.7869 89.8871
" />
<path d="M171.7869 89.8871
L171.7869 89.7443
" />
<path d="M171.7869 89.7443
L171.7392 89.6490
" />
<path d="M171.7392 89.6490
L171.6440 89.6014
" />
<path d="M171.6440 89.6014
L171.1202 89.6014
" />
<path d="M171.1678 89.1729
L171.1202 89.0776
" />
<path d="M171.1202 89.0776
L171.1202 88.8871
" />
<path d="M171.1202 88.8871
L171.1678 88.7919
" />
<path d="M171.1678 88.7919
L171.2631 88.7443
" />
<path d="M171.2631 88.7443
L171.3107 88.7443
" />
<path d="M171.3107 88.7443
L171.4059 88.7919
" />
<path d="M171.4059 88.7919
L171.4535 88.8871
" />
<path d="M171.4535 88.8871
L171.4535 89.0300
" />
<path d="M171.4535 89.0300
L171.5011 89.1252
" />
<path d="M171.5011 89.1252
L171.5964 89.1729
" />
<path d="M171.5964 89.1729
L171.6440 89.1729
" />
<path d="M171.6440 89.1729
L171.7392 89.1252
" />
<path d="M171.7392 89.1252
L171.7869 89.0300
" />
<path d="M171.7869 89.0300
L171.7869 88.8871
" />
<path d="M171.7869 88.8871
L171.7392 88.7919
" />
<path d="M171.1202 88.1729
L171.1678 88.2681
" />
<path d="M171.1678 88.2681
L171.2154 88.3157
" />
<path d="M171.2154 88.3157
L171.3107 88.3633
" />
<path d="M171.3107 88.3633
L171.5964 88.3633
" />
<path d="M171.5964 88.3633
L171.6916 88.3157
" />
<path d="M171.6916 88.3157
L171.7392 88.2681
" />
<path d="M171.7392 88.2681
L171.7869 88.1729
" />
<path d="M171.7869 88.1729
L171.7869 88.0300
" />
<path d="M171.7869 88.0300
L171.7392 87.9348
" />
<path d="M171.7392 87.9348
L171.6916 87.8871
" />
<path d="M171.6916 87.8871
L171.5964 87.8395
" />
<path d="M171.5964 87.8395
L171.3107 87.8395
" />
<path d="M171.3107 87.8395
L171.2154 87.8871
" />
<path d="M171.2154 87.8871
L171.1678 87.9348
" />
<path d="M171.1678 87.9348
L171.1202 88.0300
" />
<path d="M171.1202 88.0300
L171.1202 88.1729
" />
<path d="M171.1202 87.2681
L171.1678 87.3633
" />
<path d="M171.1678 87.3633
L171.2631 87.4110
" />
<path d="M171.2631 87.4110
L172.1202 87.4110
" />
<path d="M171.1678 86.5062
L171.1202 86.6014
" />
<path d="M171.1202 86.6014
L171.1202 86.7919
" />
<path d="M171.1202 86.7919
L171.1678 86.8871
" />
<path d="M171.1678 86.8871
L171.2631 86.9348
" />
<path d="M171.2631 86.9348
L171.6440 86.9348
" />
<path d="M171.6440 86.9348
L171.7392 86.8871
" />
<path d="M171.7392 86.8871
L171.7869 86.7919
" />
<path d="M171.7869 86.7919
L171.7869 86.6014
" />
<path d="M171.7869 86.6014
L171.7392 86.5062
" />
<path d="M171.7392 86.5062
L171.6440 86.4586
" />
<path d="M171.6440 86.4586
L171.5488 86.4586
" />
<path d="M171.5488 86.4586
L171.4535 86.9348
" />
<path d="M171.0250 86.2681
L171.0250 85.5062
" />
<path d="M172.1202 85.4110
L171.1202 85.0776
" />
<path d="M171.1202 85.0776
L172.1202 84.7443
" />
<path d="M171.1202 83.8871
L171.1202 84.4586
" />
<path d="M171.1202 84.1729
L172.1202 84.1729
" />
<path d="M172.1202 84.1729
L171.9773 84.2681
" />
<path d="M171.9773 84.2681
L171.8821 84.3633
" />
<path d="M171.8821 84.3633
L171.8345 84.4586
" />
<path d="M171.2154 83.4586
L171.1678 83.4110
" />
<path d="M171.1678 83.4110
L171.1202 83.4586
" />
<path d="M171.1202 83.4586
L171.1678 83.5062
" />
<path d="M171.1678 83.5062
L171.2154 83.4586
" />
<path d="M171.2154 83.4586
L171.1202 83.4586
" />
<path d="M172.1202 82.7919
L172.1202 82.6967
" />
<path d="M172.1202 82.6967
L172.0726 82.6014
" />
<path d="M172.0726 82.6014
L172.0250 82.5538
" />
<path d="M172.0250 82.5538
L171.9297 82.5062
" />
<path d="M171.9297 82.5062
L171.7392 82.4586
" />
<path d="M171.7392 82.4586
L171.5011 82.4586
" />
<path d="M171.5011 82.4586
L171.3107 82.5062
" />
<path d="M171.3107 82.5062
L171.2154 82.5538
" />
<path d="M171.2154 82.5538
L171.1678 82.6014
" />
<path d="M171.1678 82.6014
L171.1202 82.6967
" />
<path d="M171.1202 82.6967
L171.1202 82.7919
" />
<path d="M171.1202 82.7919
L171.1678 82.8871
" />
<path d="M171.1678 82.8871
L171.2154 82.9348
" />
<path d="M171.2154 82.9348
L171.3107 82.9824
" />
<path d="M171.3107 82.9824
L171.5011 83.0300
" />
<path d="M171.5011 83.0300
L171.7392 83.0300
" />
<path d="M171.7392 83.0300
L171.9297 82.9824
" />
<path d="M171.9297 82.9824
L172.0250 82.9348
" />
<path d="M172.0250 82.9348
L172.0726 82.8871
" />
<path d="M172.0726 82.8871
L172.1202 82.7919
" />
<path d="M172.1678 80.5538
L170.8821 81.4110
" />
<path d="M171.1202 78.8871
L171.5964 79.2205
" />
<path d="M171.1202 79.4586
L172.1202 79.4586
" />
<path d="M172.1202 79.4586
L172.1202 79.0776
" />
<path d="M172.1202 79.0776
L172.0726 78.9824
" />
<path d="M172.0726 78.9824
L172.0250 78.9348
" />
<path d="M172.0250 78.9348
L171.9297 78.8871
" />
<path d="M171.9297 78.8871
L171.7869 78.8871
" />
<path d="M171.7869 78.8871
L171.6916 78.9348
" />
<path d="M171.6916 78.9348
L171.6440 78.9824
" />
<path d="M171.6440 78.9824
L171.5964 79.0776
" />
<path d="M171.5964 79.0776
L171.5964 79.4586
" />
<path d="M171.6440 78.4586
L171.6440 78.1252
" />
<path d="M171.1202 77.9824
L171.1202 78.4586
" />
<path d="M171.1202 78.4586
L172.1202 78.4586
" />
<path d="M172.1202 78.4586
L172.1202 77.9824
" />
<path d="M172.1202 77.6967
L171.1202 77.3633
" />
<path d="M171.1202 77.3633
L172.1202 77.0300
" />
<path d="M171.4059 75.9824
L171.4059 75.5062
" />
<path d="M171.1202 76.0776
L172.1202 75.7443
" />
<path d="M172.1202 75.7443
L171.1202 75.4110
" />
</g><g transform="rotate(-270.000000 169.3799 83.0300)">
<text x="169.3799" y="83.0300"
transform="scale(-1 1) translate(-338.759888 0)"
textLength="7.0191" font-size="1.3333" lengthAdjust="spacingAndGlyphs"
text-anchor="middle" opacity="0" stroke-opacity="0">12/2025</text>
</g>
<g class="stroked-text"><desc>12/2025</desc>
<path d="M169.5102 85.6490
L169.5102 86.2205
" />
<path d="M169.5102 85.9348
L170.5102 85.9348
" />
<path d="M170.5102 85.9348
L170.3674 86.0300
" />
<path d="M170.3674 86.0300
L170.2722 86.1252
" />
<path d="M170.2722 86.1252
L170.2245 86.2205
" />
<path d="M170.4150 85.2681
L170.4626 85.2205
" />
<path d="M170.4626 85.2205
L170.5102 85.1252
" />
<path d="M170.5102 85.1252
L170.5102 84.8871
" />
<path d="M170.5102 84.8871
L170.4626 84.7919
" />
<path d="M170.4626 84.7919
L170.4150 84.7443
" />
<path d="M170.4150 84.7443
L170.3198 84.6967
" />
<path d="M170.3198 84.6967
L170.2245 84.6967
" />
<path d="M170.2245 84.6967
L170.0817 84.7443
" />
<path d="M170.0817 84.7443
L169.5102 85.3157
" />
<path d="M169.5102 85.3157
L169.5102 84.6967
" />
<path d="M170.5579 83.5538
L169.2722 84.4110
" />
<path d="M170.4150 83.2681
L170.4626 83.2205
" />
<path d="M170.4626 83.2205
L170.5102 83.1252
" />
<path d="M170.5102 83.1252
L170.5102 82.8871
" />
<path d="M170.5102 82.8871
L170.4626 82.7919
" />
<path d="M170.4626 82.7919
L170.4150 82.7443
" />
<path d="M170.4150 82.7443
L170.3198 82.6967
" />
<path d="M170.3198 82.6967
L170.2245 82.6967
" />
<path d="M170.2245 82.6967
L170.0817 82.7443
" />
<path d="M170.0817 82.7443
L169.5102 83.3157
" />
<path d="M169.5102 83.3157
L169.5102 82.6967
" />
<path d="M170.5102 82.0776
L170.5102 81.9824
" />
<path d="M170.5102 81.9824
L170.4626 81.8871
" />
<path d="M170.4626 81.8871
L170.4150 81.8395
" />
<path d="M170.4150 81.8395
L170.3198 81.7919
" />
<path d="M170.3198 81.7919
L170.1293 81.7443
" />
<path d="M170.1293 81.7443
L169.8912 81.7443
" />
<path d="M169.8912 81.7443
L169.7007 81.7919
" />
<path d="M169.7007 81.7919
L169.6055 81.8395
" />
<path d="M169.6055 81.8395
L169.5579 81.8871
" />
<path d="M169.5579 81.8871
L169.5102 81.9824
" />
<path d="M169.5102 81.9824
L169.5102 82.0776
" />
<path d="M169.5102 82.0776
L169.5579 82.1729
" />
<path d="M169.5579 82.1729
L169.6055 82.2205
" />
<path d="M169.6055 82.2205
L169.7007 82.2681
" />
<path d="M169.7007 82.2681
L169.8912 82.3157
" />
<path d="M169.8912 82.3157
L170.1293 82.3157
" />
<path d="M170.1293 82.3157
L170.3198 82.2681
" />
<path d="M170.3198 82.2681
L170.4150 82.2205
" />
<path d="M170.4150 82.2205
L170.4626 82.1729
" />
<path d="M170.4626 82.1729
L170.5102 82.0776
" />
<path d="M170.4150 81.3633
L170.4626 81.3157
" />
<path d="M170.4626 81.3157
L170.5102 81.2205
" />
<path d="M170.5102 81.2205
L170.5102 80.9824
" />
<path d="M170.5102 80.9824
L170.4626 80.8871
" />
<path d="M170.4626 80.8871
L170.4150 80.8395
" />
<path d="M170.4150 80.8395
L170.3198 80.7919
" />
<path d="M170.3198 80.7919
L170.2245 80.7919
" />
<path d="M170.2245 80.7919
L170.0817 80.8395
" />
<path d="M170.0817 80.8395
L169.5102 81.4110
" />
<path d="M169.5102 81.4110
L169.5102 80.7919
" />
<path d="M170.5102 79.8871
L170.5102 80.3633
" />
<path d="M170.5102 80.3633
L170.0341 80.4110
" />
<path d="M170.0341 80.4110
L170.0817 80.3633
" />
<path d="M170.0817 80.3633
L170.1293 80.2681
" />
<path d="M170.1293 80.2681
L170.1293 80.0300
" />
<path d="M170.1293 80.0300
L170.0817 79.9348
" />
<path d="M170.0817 79.9348
L170.0341 79.8871
" />
<path d="M170.0341 79.8871
L169.9388 79.8395
" />
<path d="M169.9388 79.8395
L169.7007 79.8395
" />
<path d="M169.7007 79.8395
L169.6055 79.8871
" />
<path d="M169.6055 79.8871
L169.5579 79.9348
" />
<path d="M169.5579 79.9348
L169.5102 80.0300
" />
<path d="M169.5102 80.0300
L169.5102 80.2681
" />
<path d="M169.5102 80.2681
L169.5579 80.3633
" />
<path d="M169.5579 80.3633
L169.6055 80.4110
" />
</g><g transform="rotate(-270.000000 167.7700 83.0300)">
<text x="167.7700" y="83.0300"
transform="scale(-1 1) translate(-335.540000 0)"
textLength="9.4953" font-size="1.3333" lengthAdjust="spacingAndGlyphs"
text-anchor="middle" opacity="0" stroke-opacity="0">Ing. René A.</text>
</g>
<g class="stroked-text"><desc>Ing. René A.</desc>
<path d="M167.9003 87.4110
L168.9003 87.4110
" />
<path d="M168.5670 86.9348
L167.9003 86.9348
" />
<path d="M168.4717 86.9348
L168.5194 86.8871
" />
<path d="M168.5194 86.8871
L168.5670 86.7919
" />
<path d="M168.5670 86.7919
L168.5670 86.6490
" />
<path d="M168.5670 86.6490
L168.5194 86.5538
" />
<path d="M168.5194 86.5538
L168.4241 86.5062
" />
<path d="M168.4241 86.5062
L167.9003 86.5062
" />
<path d="M168.5670 85.6014
L167.7574 85.6014
" />
<path d="M167.7574 85.6014
L167.6622 85.6490
" />
<path d="M167.6622 85.6490
L167.6146 85.6967
" />
<path d="M167.6146 85.6967
L167.5670 85.7919
" />
<path d="M167.5670 85.7919
L167.5670 85.9348
" />
<path d="M167.5670 85.9348
L167.6146 86.0300
" />
<path d="M167.9479 85.6014
L167.9003 85.6967
" />
<path d="M167.9003 85.6967
L167.9003 85.8871
" />
<path d="M167.9003 85.8871
L167.9479 85.9824
" />
<path d="M167.9479 85.9824
L167.9955 86.0300
" />
<path d="M167.9955 86.0300
L168.0908 86.0776
" />
<path d="M168.0908 86.0776
L168.3765 86.0776
" />
<path d="M168.3765 86.0776
L168.4717 86.0300
" />
<path d="M168.4717 86.0300
L168.5194 85.9824
" />
<path d="M168.5194 85.9824
L168.5670 85.8871
" />
<path d="M168.5670 85.8871
L168.5670 85.6967
" />
<path d="M168.5670 85.6967
L168.5194 85.6014
" />
<path d="M167.9955 85.1252
L167.9479 85.0776
" />
<path d="M167.9479 85.0776
L167.9003 85.1252
" />
<path d="M167.9003 85.1252
L167.9479 85.1729
" />
<path d="M167.9479 85.1729
L167.9955 85.1252
" />
<path d="M167.9955 85.1252
L167.9003 85.1252
" />
<path d="M167.9003 83.3157
L168.3765 83.6490
" />
<path d="M167.9003 83.8871
L168.9003 83.8871
" />
<path d="M168.9003 83.8871
L168.9003 83.5062
" />
<path d="M168.9003 83.5062
L168.8527 83.4110
" />
<path d="M168.8527 83.4110
L168.8051 83.3633
" />
<path d="M168.8051 83.3633
L168.7098 83.3157
" />
<path d="M168.7098 83.3157
L168.5670 83.3157
" />
<path d="M168.5670 83.3157
L168.4717 83.3633
" />
<path d="M168.4717 83.3633
L168.4241 83.4110
" />
<path d="M168.4241 83.4110
L168.3765 83.5062
" />
<path d="M168.3765 83.5062
L168.3765 83.8871
" />
<path d="M167.9479 82.5062
L167.9003 82.6014
" />
<path d="M167.9003 82.6014
L167.9003 82.7919
" />
<path d="M167.9003 82.7919
L167.9479 82.8871
" />
<path d="M167.9479 82.8871
L168.0432 82.9348
" />
<path d="M168.0432 82.9348
L168.4241 82.9348
" />
<path d="M168.4241 82.9348
L168.5194 82.8871
" />
<path d="M168.5194 82.8871
L168.5670 82.7919
" />
<path d="M168.5670 82.7919
L168.5670 82.6014
" />
<path d="M168.5670 82.6014
L168.5194 82.5062
" />
<path d="M168.5194 82.5062
L168.4241 82.4586
" />
<path d="M168.4241 82.4586
L168.3289 82.4586
" />
<path d="M168.3289 82.4586
L168.2336 82.9348
" />
<path d="M168.5670 82.0300
L167.9003 82.0300
" />
<path d="M168.4717 82.0300
L168.5194 81.9824
" />
<path d="M168.5194 81.9824
L168.5670 81.8871
" />
<path d="M168.5670 81.8871
L168.5670 81.7443
" />
<path d="M168.5670 81.7443
L168.5194 81.6490
" />
<path d="M168.5194 81.6490
L168.4241 81.6014
" />
<path d="M168.4241 81.6014
L167.9003 81.6014
" />
<path d="M167.9479 80.7443
L167.9003 80.8395
" />
<path d="M167.9003 80.8395
L167.9003 81.0300
" />
<path d="M167.9003 81.0300
L167.9479 81.1252
" />
<path d="M167.9479 81.1252
L168.0432 81.1729
" />
<path d="M168.0432 81.1729
L168.4241 81.1729
" />
<path d="M168.4241 81.1729
L168.5194 81.1252
" />
<path d="M168.5194 81.1252
L168.5670 81.0300
" />
<path d="M168.5670 81.0300
L168.5670 80.8395
" />
<path d="M168.5670 80.8395
L168.5194 80.7443
" />
<path d="M168.5194 80.7443
L168.4241 80.6967
" />
<path d="M168.4241 80.6967
L168.3289 80.6967
" />
<path d="M168.3289 80.6967
L168.2336 81.1729
" />
<path d="M168.9479 80.8395
L168.8051 80.9824
" />
<path d="M168.1860 79.5538
L168.1860 79.0776
" />
<path d="M167.9003 79.6490
L168.9003 79.3157
" />
<path d="M168.9003 79.3157
L167.9003 78.9824
" />
<path d="M167.9955 78.6490
L167.9479 78.6014
" />
<path d="M167.9479 78.6014
L167.9003 78.6490
" />
<path d="M167.9003 78.6490
L167.9479 78.6967
" />
<path d="M167.9479 78.6967
L167.9955 78.6490
" />
<path d="M167.9955 78.6490
L167.9003 78.6490
" />
</g><text x="132.8750" y="90.4750"
transform="scale(-1 1) translate(-265.750000 0)"
textLength="3.1620" font-size="1.3333" lengthAdjust="spacingAndGlyphs"
text-anchor="middle" opacity="0" stroke-opacity="0">C16</text>
<g class="stroked-text"><desc>C16</desc>
<path d="M133.5179 90.3345
L133.5655 90.3821
" />
<path d="M133.5655 90.3821
L133.7083 90.4297
" />
<path d="M133.7083 90.4297
L133.8036 90.4297
" />
<path d="M133.8036 90.4297
L133.9464 90.3821
" />
<path d="M133.9464 90.3821
L134.0417 90.2868
" />
<path d="M134.0417 90.2868
L134.0893 90.1916
" />
<path d="M134.0893 90.1916
L134.1369 90.0011
" />
<path d="M134.1369 90.0011
L134.1369 89.8583
" />
<path d="M134.1369 89.8583
L134.0893 89.6678
" />
<path d="M134.0893 89.6678
L134.0417 89.5726
" />
<path d="M134.0417 89.5726
L133.9464 89.4773
" />
<path d="M133.9464 89.4773
L133.8036 89.4297
" />
<path d="M133.8036 89.4297
L133.7083 89.4297
" />
<path d="M133.7083 89.4297
L133.5655 89.4773
" />
<path d="M133.5655 89.4773
L133.5179 89.5249
" />
<path d="M132.5655 90.4297
L133.1369 90.4297
" />
<path d="M132.8512 90.4297
L132.8512 89.4297
" />
<path d="M132.8512 89.4297
L132.9464 89.5726
" />
<path d="M132.9464 89.5726
L133.0417 89.6678
" />
<path d="M133.0417 89.6678
L133.1369 89.7154
" />
<path d="M131.7083 89.4297
L131.8988 89.4297
" />
<path d="M131.8988 89.4297
L131.9940 89.4773
" />
<path d="M131.9940 89.4773
L132.0417 89.5249
" />
<path d="M132.0417 89.5249
L132.1369 89.6678
" />
<path d="M132.1369 89.6678
L132.1845 89.8583
" />
<path d="M132.1845 89.8583
L132.1845 90.2392
" />
<path d="M132.1845 90.2392
L132.1369 90.3345
" />
<path d="M132.1369 90.3345
L132.0893 90.3821
" />
<path d="M132.0893 90.3821
L131.9940 90.4297
" />
<path d="M131.9940 90.4297
L131.8036 90.4297
" />
<path d="M131.8036 90.4297
L131.7083 90.3821
" />
<path d="M131.7083 90.3821
L131.6607 90.3345
" />
<path d="M131.6607 90.3345
L131.6131 90.2392
" />
<path d="M131.6131 90.2392
L131.6131 90.0011
" />
<path d="M131.6131 90.0011
L131.6607 89.9059
" />
<path d="M131.6607 89.9059
L131.7083 89.8583
" />
<path d="M131.7083 89.8583
L131.8036 89.8106
" />
<path d="M131.8036 89.8106
L131.9940 89.8106
" />
<path d="M131.9940 89.8106
L132.0893 89.8583
" />
<path d="M132.0893 89.8583
L132.1369 89.9059
" />
<path d="M132.1369 89.9059
L132.1845 90.0011
" />
</g><g transform="rotate(-90.000000 137.9700 93.3500)">
<text x="137.9700" y="93.8500"
transform="scale(-1 1) translate(-275.940000 0)"
textLength="3.1620" font-size="1.3333" lengthAdjust="spacingAndGlyphs"
text-anchor="middle" opacity="0" stroke-opacity="0">R25</text>
</g>
<g class="stroked-text"><desc>R25</desc>
<path d="M138.4247 92.7071
L137.9485 92.3738
" />
<path d="M138.4247 92.1357
L137.4247 92.1357
" />
<path d="M137.4247 92.1357
L137.4247 92.5167
" />
<path d="M137.4247 92.5167
L137.4723 92.6119
" />
<path d="M137.4723 92.6119
L137.5199 92.6595
" />
<path d="M137.5199 92.6595
L137.6152 92.7071
" />
<path d="M137.6152 92.7071
L137.7580 92.7071
" />
<path d="M137.7580 92.7071
L137.8533 92.6595
" />
<path d="M137.8533 92.6595
L137.9009 92.6119
" />
<path d="M137.9009 92.6119
L137.9485 92.5167
" />
<path d="M137.9485 92.5167
L137.9485 92.1357
" />
<path d="M137.5199 93.0881
L137.4723 93.1357
" />
<path d="M137.4723 93.1357
L137.4247 93.2310
" />
<path d="M137.4247 93.2310
L137.4247 93.4690
" />
<path d="M137.4247 93.4690
L137.4723 93.5643
" />
<path d="M137.4723 93.5643
L137.5199 93.6119
" />
<path d="M137.5199 93.6119
L137.6152 93.6595
" />
<path d="M137.6152 93.6595
L137.7104 93.6595
" />
<path d="M137.7104 93.6595
L137.8533 93.6119
" />
<path d="M137.8533 93.6119
L138.4247 93.0405
" />
<path d="M138.4247 93.0405
L138.4247 93.6595
" />
<path d="M137.4247 94.5643
L137.4247 94.0881
" />
<path d="M137.4247 94.0881
L137.9009 94.0405
" />
<path d="M137.9009 94.0405
L137.8533 94.0881
" />
<path d="M137.8533 94.0881
L137.8056 94.1833
" />
<path d="M137.8056 94.1833
L137.8056 94.4214
" />
<path d="M137.8056 94.4214
L137.8533 94.5167
" />
<path d="M137.8533 94.5167
L137.9009 94.5643
" />
<path d="M137.9009 94.5643
L137.9961 94.6119
" />
<path d="M137.9961 94.6119
L138.2342 94.6119
" />
<path d="M138.2342 94.6119
L138.3295 94.5643
" />
<path d="M138.3295 94.5643
L138.3771 94.5167
" />
<path d="M138.3771 94.5167
L138.4247 94.4214
" />
<path d="M138.4247 94.4214
L138.4247 94.1833
" />
<path d="M138.4247 94.1833
L138.3771 94.0881
" />
<path d="M138.3771 94.0881
L138.3295 94.0405
" />
</g><text x="120.9500" y="90.2000"
transform="scale(-1 1) translate(-241.900000 0)"
textLength="3.1620" font-size="1.3333" lengthAdjust="spacingAndGlyphs"
text-anchor="middle" opacity="0" stroke-opacity="0">R13</text>
<g class="stroked-text"><desc>R13</desc>
<path d="M121.5929 90.1547
L121.9262 89.6785
" />
<path d="M122.1643 90.1547
L122.1643 89.1547
" />
<path d="M122.1643 89.1547
L121.7833 89.1547
" />
<path d="M121.7833 89.1547
L121.6881 89.2023
" />
<path d="M121.6881 89.2023
L121.6405 89.2499
" />
<path d="M121.6405 89.2499
L121.5929 89.3452
" />
<path d="M121.5929 89.3452
L121.5929 89.4880
" />
<path d="M121.5929 89.4880
L121.6405 89.5833
" />
<path d="M121.6405 89.5833
L121.6881 89.6309
" />
<path d="M121.6881 89.6309
L121.7833 89.6785
" />
<path d="M121.7833 89.6785
L122.1643 89.6785
" />
<path d="M120.6405 90.1547
L121.2119 90.1547
" />
<path d="M120.9262 90.1547
L120.9262 89.1547
" />
<path d="M120.9262 89.1547
L121.0214 89.2976
" />
<path d="M121.0214 89.2976
L121.1167 89.3928
" />
<path d="M121.1167 89.3928
L121.2119 89.4404
" />
<path d="M120.3071 89.1547
L119.6881 89.1547
" />
<path d="M119.6881 89.1547
L120.0214 89.5356
" />
<path d="M120.0214 89.5356
L119.8786 89.5356
" />
<path d="M119.8786 89.5356
L119.7833 89.5833
" />
<path d="M119.7833 89.5833
L119.7357 89.6309
" />
<path d="M119.7357 89.6309
L119.6881 89.7261
" />
<path d="M119.6881 89.7261
L119.6881 89.9642
" />
<path d="M119.6881 89.9642
L119.7357 90.0595
" />
<path d="M119.7357 90.0595
L119.7833 90.1071
" />
<path d="M119.7833 90.1071
L119.8786 90.1547
" />
<path d="M119.8786 90.1547
L120.1643 90.1547
" />
<path d="M120.1643 90.1547
L120.2595 90.1071
" />
<path d="M120.2595 90.1071
L120.3071 90.0595
" />
</g><g transform="rotate(-90.000000 134.0000 72.3000)">
<text x="134.0000" y="72.8000"
transform="scale(-1 1) translate(-268.000000 0)"
textLength="3.1620" font-size="1.3333" lengthAdjust="spacingAndGlyphs"
text-anchor="middle" opacity="0" stroke-opacity="0">C15</text>
</g>
<g class="stroked-text"><desc>C15</desc>
<path d="M134.3595 71.6571
L134.4071 71.6095
" />
<path d="M134.4071 71.6095
L134.4547 71.4667
" />
<path d="M134.4547 71.4667
L134.4547 71.3714
" />
<path d="M134.4547 71.3714
L134.4071 71.2286
" />
<path d="M134.4071 71.2286
L134.3118 71.1333
" />
<path d="M134.3118 71.1333
L134.2166 71.0857
" />
<path d="M134.2166 71.0857
L134.0261 71.0381
" />
<path d="M134.0261 71.0381
L133.8833 71.0381
" />
<path d="M133.8833 71.0381
L133.6928 71.0857
" />
<path d="M133.6928 71.0857
L133.5976 71.1333
" />
<path d="M133.5976 71.1333
L133.5023 71.2286
" />
<path d="M133.5023 71.2286
L133.4547 71.3714
" />
<path d="M133.4547 71.3714
L133.4547 71.4667
" />
<path d="M133.4547 71.4667
L133.5023 71.6095
" />
<path d="M133.5023 71.6095
L133.5499 71.6571
" />
<path d="M134.4547 72.6095
L134.4547 72.0381
" />
<path d="M134.4547 72.3238
L133.4547 72.3238
" />
<path d="M133.4547 72.3238
L133.5976 72.2286
" />
<path d="M133.5976 72.2286
L133.6928 72.1333
" />
<path d="M133.6928 72.1333
L133.7404 72.0381
" />
<path d="M133.4547 73.5143
L133.4547 73.0381
" />
<path d="M133.4547 73.0381
L133.9309 72.9905
" />
<path d="M133.9309 72.9905
L133.8833 73.0381
" />
<path d="M133.8833 73.0381
L133.8356 73.1333
" />
<path d="M133.8356 73.1333
L133.8356 73.3714
" />
<path d="M133.8356 73.3714
L133.8833 73.4667
" />
<path d="M133.8833 73.4667
L133.9309 73.5143
" />
<path d="M133.9309 73.5143
L134.0261 73.5619
" />
<path d="M134.0261 73.5619
L134.2642 73.5619
" />
<path d="M134.2642 73.5619
L134.3595 73.5143
" />
<path d="M134.3595 73.5143
L134.4071 73.4667
" />
<path d="M134.4071 73.4667
L134.4547 73.3714
" />
<path d="M134.4547 73.3714
L134.4547 73.1333
" />
<path d="M134.4547 73.1333
L134.4071 73.0381
" />
<path d="M134.4071 73.0381
L134.3595 72.9905
" />
</g><text x="121.1330" y="92.8896"
transform="scale(-1 1) translate(-242.266000 0)"
textLength="2.9715" font-size="1.3333" lengthAdjust="spacingAndGlyphs"
text-anchor="middle" opacity="0" stroke-opacity="0">JP2</text>
<g class="stroked-text"><desc>JP2</desc>
<path d="M121.9663 91.8443
L121.9663 92.5586
" />
<path d="M121.9663 92.5586
L122.0140 92.7014
" />
<path d="M122.0140 92.7014
L122.1092 92.7967
" />
<path d="M122.1092 92.7967
L122.2520 92.8443
" />
<path d="M122.2520 92.8443
L122.3473 92.8443
" />
<path d="M121.4901 92.8443
L121.4901 91.8443
" />
<path d="M121.4901 91.8443
L121.1092 91.8443
" />
<path d="M121.1092 91.8443
L121.0140 91.8919
" />
<path d="M121.0140 91.8919
L120.9663 91.9395
" />
<path d="M120.9663 91.9395
L120.9187 92.0348
" />
<path d="M120.9187 92.0348
L120.9187 92.1776
" />
<path d="M120.9187 92.1776
L120.9663 92.2729
" />
<path d="M120.9663 92.2729
L121.0140 92.3205
" />
<path d="M121.0140 92.3205
L121.1092 92.3681
" />
<path d="M121.1092 92.3681
L121.4901 92.3681
" />
<path d="M120.5378 91.9395
L120.4901 91.8919
" />
<path d="M120.4901 91.8919
L120.3949 91.8443
" />
<path d="M120.3949 91.8443
L120.1568 91.8443
" />
<path d="M120.1568 91.8443
L120.0616 91.8919
" />
<path d="M120.0616 91.8919
L120.0140 91.9395
" />
<path d="M120.0140 91.9395
L119.9663 92.0348
" />
<path d="M119.9663 92.0348
L119.9663 92.1300
" />
<path d="M119.9663 92.1300
L120.0140 92.2729
" />
<path d="M120.0140 92.2729
L120.5854 92.8443
" />
<path d="M120.5854 92.8443
L119.9663 92.8443
" />
</g><text x="120.9500" y="88.2000"
transform="scale(-1 1) translate(-241.900000 0)"
textLength="3.1620" font-size="1.3333" lengthAdjust="spacingAndGlyphs"
text-anchor="middle" opacity="0" stroke-opacity="0">R27</text>
<g class="stroked-text"><desc>R27</desc>
<path d="M121.5929 88.1547
L121.9262 87.6785
" />
<path d="M122.1643 88.1547
L122.1643 87.1547
" />
<path d="M122.1643 87.1547
L121.7833 87.1547
" />
<path d="M121.7833 87.1547
L121.6881 87.2023
" />
<path d="M121.6881 87.2023
L121.6405 87.2499
" />
<path d="M121.6405 87.2499
L121.5929 87.3452
" />
<path d="M121.5929 87.3452
L121.5929 87.4880
" />
<path d="M121.5929 87.4880
L121.6405 87.5833
" />
<path d="M121.6405 87.5833
L121.6881 87.6309
" />
<path d="M121.6881 87.6309
L121.7833 87.6785
" />
<path d="M121.7833 87.6785
L122.1643 87.6785
" />
<path d="M121.2119 87.2499
L121.1643 87.2023
" />
<path d="M121.1643 87.2023
L121.0690 87.1547
" />
<path d="M121.0690 87.1547
L120.8310 87.1547
" />
<path d="M120.8310 87.1547
L120.7357 87.2023
" />
<path d="M120.7357 87.2023
L120.6881 87.2499
" />
<path d="M120.6881 87.2499
L120.6405 87.3452
" />
<path d="M120.6405 87.3452
L120.6405 87.4404
" />
<path d="M120.6405 87.4404
L120.6881 87.5833
" />
<path d="M120.6881 87.5833
L121.2595 88.1547
" />
<path d="M121.2595 88.1547
L120.6405 88.1547
" />
<path d="M120.3071 87.1547
L119.6405 87.1547
" />
<path d="M119.6405 87.1547
L120.0690 88.1547
" />
</g><text x="149.5830" y="91.3146"
transform="scale(-1 1) translate(-299.166000 0)"
textLength="2.9715" font-size="1.3333" lengthAdjust="spacingAndGlyphs"
text-anchor="middle" opacity="0" stroke-opacity="0">JP1</text>
<g class="stroked-text"><desc>JP1</desc>
<path d="M150.4163 90.2693
L150.4163 90.9836
" />
<path d="M150.4163 90.9836
L150.4640 91.1264
" />
<path d="M150.4640 91.1264
L150.5592 91.2217
" />
<path d="M150.5592 91.2217
L150.7020 91.2693
" />
<path d="M150.7020 91.2693
L150.7973 91.2693
" />
<path d="M149.9401 91.2693
L149.9401 90.2693
" />
<path d="M149.9401 90.2693
L149.5592 90.2693
" />
<path d="M149.5592 90.2693
L149.4640 90.3169
" />
<path d="M149.4640 90.3169
L149.4163 90.3645
" />
<path d="M149.4163 90.3645
L149.3687 90.4598
" />
<path d="M149.3687 90.4598
L149.3687 90.6026
" />
<path d="M149.3687 90.6026
L149.4163 90.6979
" />
<path d="M149.4163 90.6979
L149.4640 90.7455
" />
<path d="M149.4640 90.7455
L149.5592 90.7931
" />
<path d="M149.5592 90.7931
L149.9401 90.7931
" />
<path d="M148.4163 91.2693
L148.9878 91.2693
" />
<path d="M148.7020 91.2693
L148.7020 90.2693
" />
<path d="M148.7020 90.2693
L148.7973 90.4122
" />
<path d="M148.7973 90.4122
L148.8925 90.5074
" />
<path d="M148.8925 90.5074
L148.9878 90.5550
" />
</g><g transform="rotate(-90.000000 131.2250 83.3750)">
<text x="131.2250" y="83.8750"
transform="scale(-1 1) translate(-262.450000 0)"
textLength="3.0191" font-size="1.3333" lengthAdjust="spacingAndGlyphs"
text-anchor="middle" opacity="0" stroke-opacity="0">TH1</text>
</g>
<g class="stroked-text"><desc>TH1</desc>
<path d="M130.6797 82.0893
L130.6797 82.6607
" />
<path d="M131.6797 82.3750
L130.6797 82.3750
" />
<path d="M131.6797 82.9940
L130.6797 82.9940
" />
<path d="M131.1559 82.9940
L131.1559 83.5655
" />
<path d="M131.6797 83.5655
L130.6797 83.5655
" />
<path d="M131.6797 84.5655
L131.6797 83.9940
" />
<path d="M131.6797 84.2798
L130.6797 84.2798
" />
<path d="M130.6797 84.2798
L130.8226 84.1845
" />
<path d="M130.8226 84.1845
L130.9178 84.0893
" />
<path d="M130.9178 84.0893
L130.9654 83.9940
" />
</g><text x="127.2800" y="77.4175"
transform="scale(-1 1) translate(-254.560000 0)"
textLength="3.1620" font-size="1.3333" lengthAdjust="spacingAndGlyphs"
text-anchor="middle" opacity="0" stroke-opacity="0">C24</text>
<g class="stroked-text"><desc>C24</desc>
<path d="M127.9229 77.2770
L127.9705 77.3246
" />
<path d="M127.9705 77.3246
L128.1133 77.3722
" />
<path d="M128.1133 77.3722
L128.2086 77.3722
" />
<path d="M128.2086 77.3722
L128.3514 77.3246
" />
<path d="M128.3514 77.3246
L128.4467 77.2293
" />
<path d="M128.4467 77.2293
L128.4943 77.1341
" />
<path d="M128.4943 77.1341
L128.5419 76.9436
" />
<path d="M128.5419 76.9436
L128.5419 76.8008
" />
<path d="M128.5419 76.8008
L128.4943 76.6103
" />
<path d="M128.4943 76.6103
L128.4467 76.5151
" />
<path d="M128.4467 76.5151
L128.3514 76.4198
" />
<path d="M128.3514 76.4198
L128.2086 76.3722
" />
<path d="M128.2086 76.3722
L128.1133 76.3722
" />
<path d="M128.1133 76.3722
L127.9705 76.4198
" />
<path d="M127.9705 76.4198
L127.9229 76.4674
" />
<path d="M127.5419 76.4674
L127.4943 76.4198
" />
<path d="M127.4943 76.4198
L127.3990 76.3722
" />
<path d="M127.3990 76.3722
L127.1610 76.3722
" />
<path d="M127.1610 76.3722
L127.0657 76.4198
" />
<path d="M127.0657 76.4198
L127.0181 76.4674
" />
<path d="M127.0181 76.4674
L126.9705 76.5627
" />
<path d="M126.9705 76.5627
L126.9705 76.6579
" />
<path d="M126.9705 76.6579
L127.0181 76.8008
" />
<path d="M127.0181 76.8008
L127.5895 77.3722
" />
<path d="M127.5895 77.3722
L126.9705 77.3722
" />
<path d="M126.1133 76.7055
L126.1133 77.3722
" />
<path d="M126.3514 76.3246
L126.5895 77.0389
" />
<path d="M126.5895 77.0389
L125.9705 77.0389
" />
</g><g transform="rotate(-90.000000 136.4900 93.3300)">
<text x="136.4900" y="93.8300"
transform="scale(-1 1) translate(-272.980000 0)"
textLength="3.1620" font-size="1.3333" lengthAdjust="spacingAndGlyphs"
text-anchor="middle" opacity="0" stroke-opacity="0">R26</text>
</g>
<g class="stroked-text"><desc>R26</desc>
<path d="M136.9447 92.6871
L136.4685 92.3538
" />
<path d="M136.9447 92.1157
L135.9447 92.1157
" />
<path d="M135.9447 92.1157
L135.9447 92.4967
" />
<path d="M135.9447 92.4967
L135.9923 92.5919
" />
<path d="M135.9923 92.5919
L136.0399 92.6395
" />
<path d="M136.0399 92.6395
L136.1352 92.6871
" />
<path d="M136.1352 92.6871
L136.2780 92.6871
" />
<path d="M136.2780 92.6871
L136.3733 92.6395
" />
<path d="M136.3733 92.6395
L136.4209 92.5919
" />
<path d="M136.4209 92.5919
L136.4685 92.4967
" />
<path d="M136.4685 92.4967
L136.4685 92.1157
" />
<path d="M136.0399 93.0681
L135.9923 93.1157
" />
<path d="M135.9923 93.1157
L135.9447 93.2110
" />
<path d="M135.9447 93.2110
L135.9447 93.4490
" />
<path d="M135.9447 93.4490
L135.9923 93.5443
" />
<path d="M135.9923 93.5443
L136.0399 93.5919
" />
<path d="M136.0399 93.5919
L136.1352 93.6395
" />
<path d="M136.1352 93.6395
L136.2304 93.6395
" />
<path d="M136.2304 93.6395
L136.3733 93.5919
" />
<path d="M136.3733 93.5919
L136.9447 93.0205
" />
<path d="M136.9447 93.0205
L136.9447 93.6395
" />
<path d="M135.9447 94.4967
L135.9447 94.3062
" />
<path d="M135.9447 94.3062
L135.9923 94.2110
" />
<path d="M135.9923 94.2110
L136.0399 94.1633
" />
<path d="M136.0399 94.1633
L136.1828 94.0681
" />
<path d="M136.1828 94.0681
L136.3733 94.0205
" />
<path d="M136.3733 94.0205
L136.7542 94.0205
" />
<path d="M136.7542 94.0205
L136.8495 94.0681
" />
<path d="M136.8495 94.0681
L136.8971 94.1157
" />
<path d="M136.8971 94.1157
L136.9447 94.2110
" />
<path d="M136.9447 94.2110
L136.9447 94.4014
" />
<path d="M136.9447 94.4014
L136.8971 94.4967
" />
<path d="M136.8971 94.4967
L136.8495 94.5443
" />
<path d="M136.8495 94.5443
L136.7542 94.5919
" />
<path d="M136.7542 94.5919
L136.5161 94.5919
" />
<path d="M136.5161 94.5919
L136.4209 94.5443
" />
<path d="M136.4209 94.5443
L136.3733 94.4967
" />
<path d="M136.3733 94.4967
L136.3256 94.4014
" />
<path d="M136.3256 94.4014
L136.3256 94.2110
" />
<path d="M136.3256 94.2110
L136.3733 94.1157
" />
<path d="M136.3733 94.1157
L136.4209 94.0681
" />
<path d="M136.4209 94.0681
L136.5161 94.0205
" />
</g><text x="165.1800" y="92.8200"
transform="scale(-1 1) translate(-330.360000 0)"
textLength="3.1620" font-size="1.3333" lengthAdjust="spacingAndGlyphs"
text-anchor="middle" opacity="0" stroke-opacity="0">R28</text>
<g class="stroked-text"><desc>R28</desc>
<path d="M165.8229 92.7747
L166.1562 92.2985
" />
<path d="M166.3943 92.7747
L166.3943 91.7747
" />
<path d="M166.3943 91.7747
L166.0133 91.7747
" />
<path d="M166.0133 91.7747
L165.9181 91.8223
" />
<path d="M165.9181 91.8223
L165.8705 91.8699
" />
<path d="M165.8705 91.8699
L165.8229 91.9652
" />
<path d="M165.8229 91.9652
L165.8229 92.1080
" />
<path d="M165.8229 92.1080
L165.8705 92.2033
" />
<path d="M165.8705 92.2033
L165.9181 92.2509
" />
<path d="M165.9181 92.2509
L166.0133 92.2985
" />
<path d="M166.0133 92.2985
L166.3943 92.2985
" />
<path d="M165.4419 91.8699
L165.3943 91.8223
" />
<path d="M165.3943 91.8223
L165.2990 91.7747
" />
<path d="M165.2990 91.7747
L165.0610 91.7747
" />
<path d="M165.0610 91.7747
L164.9657 91.8223
" />
<path d="M164.9657 91.8223
L164.9181 91.8699
" />
<path d="M164.9181 91.8699
L164.8705 91.9652
" />
<path d="M164.8705 91.9652
L164.8705 92.0604
" />
<path d="M164.8705 92.0604
L164.9181 92.2033
" />
<path d="M164.9181 92.2033
L165.4895 92.7747
" />
<path d="M165.4895 92.7747
L164.8705 92.7747
" />
<path d="M164.2990 92.2033
L164.3943 92.1556
" />
<path d="M164.3943 92.1556
L164.4419 92.1080
" />
<path d="M164.4419 92.1080
L164.4895 92.0128
" />
<path d="M164.4895 92.0128
L164.4895 91.9652
" />
<path d="M164.4895 91.9652
L164.4419 91.8699
" />
<path d="M164.4419 91.8699
L164.3943 91.8223
" />
<path d="M164.3943 91.8223
L164.2990 91.7747
" />
<path d="M164.2990 91.7747
L164.1086 91.7747
" />
<path d="M164.1086 91.7747
L164.0133 91.8223
" />
<path d="M164.0133 91.8223
L163.9657 91.8699
" />
<path d="M163.9657 91.8699
L163.9181 91.9652
" />
<path d="M163.9181 91.9652
L163.9181 92.0128
" />
<path d="M163.9181 92.0128
L163.9657 92.1080
" />
<path d="M163.9657 92.1080
L164.0133 92.1556
" />
<path d="M164.0133 92.1556
L164.1086 92.2033
" />
<path d="M164.1086 92.2033
L164.2990 92.2033
" />
<path d="M164.2990 92.2033
L164.3943 92.2509
" />
<path d="M164.3943 92.2509
L164.4419 92.2985
" />
<path d="M164.4419 92.2985
L164.4895 92.3937
" />
<path d="M164.4895 92.3937
L164.4895 92.5842
" />
<path d="M164.4895 92.5842
L164.4419 92.6795
" />
<path d="M164.4419 92.6795
L164.3943 92.7271
" />
<path d="M164.3943 92.7271
L164.2990 92.7747
" />
<path d="M164.2990 92.7747
L164.1086 92.7747
" />
<path d="M164.1086 92.7747
L164.0133 92.7271
" />
<path d="M164.0133 92.7271
L163.9657 92.6795
" />
<path d="M163.9657 92.6795
L163.9181 92.5842
" />
<path d="M163.9181 92.5842
L163.9181 92.3937
" />
<path d="M163.9181 92.3937
L163.9657 92.2985
" />
<path d="M163.9657 92.2985
L164.0133 92.2509
" />
<path d="M164.0133 92.2509
L164.1086 92.2033
" />
</g><text x="139.6800" y="94.4800"
transform="scale(-1 1) translate(-279.360000 0)"
textLength="2.2096" font-size="1.3333" lengthAdjust="spacingAndGlyphs"
text-anchor="middle" opacity="0" stroke-opacity="0">D5</text>
<g class="stroked-text"><desc>D5</desc>
<path d="M140.4181 94.4347
L140.4181 93.4347
" />
<path d="M140.4181 93.4347
L140.1800 93.4347
" />
<path d="M140.1800 93.4347
L140.0371 93.4823
" />
<path d="M140.0371 93.4823
L139.9419 93.5776
" />
<path d="M139.9419 93.5776
L139.8943 93.6728
" />
<path d="M139.8943 93.6728
L139.8467 93.8633
" />
<path d="M139.8467 93.8633
L139.8467 94.0061
" />
<path d="M139.8467 94.0061
L139.8943 94.1966
" />
<path d="M139.8943 94.1966
L139.9419 94.2918
" />
<path d="M139.9419 94.2918
L140.0371 94.3871
" />
<path d="M140.0371 94.3871
L140.1800 94.4347
" />
<path d="M140.1800 94.4347
L140.4181 94.4347
" />
<path d="M138.9419 93.4347
L139.4181 93.4347
" />
<path d="M139.4181 93.4347
L139.4657 93.9109
" />
<path d="M139.4657 93.9109
L139.4181 93.8633
" />
<path d="M139.4181 93.8633
L139.3229 93.8156
" />
<path d="M139.3229 93.8156
L139.0848 93.8156
" />
<path d="M139.0848 93.8156
L138.9895 93.8633
" />
<path d="M138.9895 93.8633
L138.9419 93.9109
" />
<path d="M138.9419 93.9109
L138.8943 94.0061
" />
<path d="M138.8943 94.0061
L138.8943 94.2442
" />
<path d="M138.8943 94.2442
L138.9419 94.3395
" />
<path d="M138.9419 94.3395
L138.9895 94.3871
" />
<path d="M138.9895 94.3871
L139.0848 94.4347
" />
<path d="M139.0848 94.4347
L139.3229 94.4347
" />
<path d="M139.3229 94.4347
L139.4181 94.3871
" />
<path d="M139.4181 94.3871
L139.4657 94.3395
" />
</g><text x="129.2500" y="85.9080"
transform="scale(-1 1) translate(-258.500000 0)"
textLength="2.2860" font-size="1.3547" lengthAdjust="spacingAndGlyphs"
text-anchor="middle" opacity="0" stroke-opacity="0">U7</text>
<g class="stroked-text"><desc>U7</desc>
<path d="M130.0241 84.8461
L130.0241 85.6686
" />
<path d="M130.0241 85.6686
L129.9757 85.7653
" />
<path d="M129.9757 85.7653
L129.9273 85.8137
" />
<path d="M129.9273 85.8137
L129.8306 85.8621
" />
<path d="M129.8306 85.8621
L129.6370 85.8621
" />
<path d="M129.6370 85.8621
L129.5403 85.8137
" />
<path d="M129.5403 85.8137
L129.4919 85.7653
" />
<path d="M129.4919 85.7653
L129.4435 85.6686
" />
<path d="M129.4435 85.6686
L129.4435 84.8461
" />
<path d="M129.0565 84.8461
L128.3791 84.8461
" />
<path d="M128.3791 84.8461
L128.8146 85.8621
" />
</g><text x="148.5000" y="86.6000"
transform="scale(-1 1) translate(-297.000000 0)"
textLength="3.1620" font-size="1.3333" lengthAdjust="spacingAndGlyphs"
text-anchor="middle" opacity="0" stroke-opacity="0">C23</text>
<g class="stroked-text"><desc>C23</desc>
<path d="M149.1429 86.4595
L149.1905 86.5071
" />
<path d="M149.1905 86.5071
L149.3333 86.5547
" />
<path d="M149.3333 86.5547
L149.4286 86.5547
" />
<path d="M149.4286 86.5547
L149.5714 86.5071
" />
<path d="M149.5714 86.5071
L149.6667 86.4118
" />
<path d="M149.6667 86.4118
L149.7143 86.3166
" />
<path d="M149.7143 86.3166
L149.7619 86.1261
" />
<path d="M149.7619 86.1261
L149.7619 85.9833
" />
<path d="M149.7619 85.9833
L149.7143 85.7928
" />
<path d="M149.7143 85.7928
L149.6667 85.6976
" />
<path d="M149.6667 85.6976
L149.5714 85.6023
" />
<path d="M149.5714 85.6023
L149.4286 85.5547
" />
<path d="M149.4286 85.5547
L149.3333 85.5547
" />
<path d="M149.3333 85.5547
L149.1905 85.6023
" />
<path d="M149.1905 85.6023
L149.1429 85.6499
" />
<path d="M148.7619 85.6499
L148.7143 85.6023
" />
<path d="M148.7143 85.6023
L148.6190 85.5547
" />
<path d="M148.6190 85.5547
L148.3810 85.5547
" />
<path d="M148.3810 85.5547
L148.2857 85.6023
" />
<path d="M148.2857 85.6023
L148.2381 85.6499
" />
<path d="M148.2381 85.6499
L148.1905 85.7452
" />
<path d="M148.1905 85.7452
L148.1905 85.8404
" />
<path d="M148.1905 85.8404
L148.2381 85.9833
" />
<path d="M148.2381 85.9833
L148.8095 86.5547
" />
<path d="M148.8095 86.5547
L148.1905 86.5547
" />
<path d="M147.8571 85.5547
L147.2381 85.5547
" />
<path d="M147.2381 85.5547
L147.5714 85.9356
" />
<path d="M147.5714 85.9356
L147.4286 85.9356
" />
<path d="M147.4286 85.9356
L147.3333 85.9833
" />
<path d="M147.3333 85.9833
L147.2857 86.0309
" />
<path d="M147.2857 86.0309
L147.2381 86.1261
" />
<path d="M147.2381 86.1261
L147.2381 86.3642
" />
<path d="M147.2381 86.3642
L147.2857 86.4595
" />
<path d="M147.2857 86.4595
L147.3333 86.5071
" />
<path d="M147.3333 86.5071
L147.4286 86.5547
" />
<path d="M147.4286 86.5547
L147.7143 86.5547
" />
<path d="M147.7143 86.5547
L147.8095 86.5071
" />
<path d="M147.8095 86.5071
L147.8571 86.4595
" />
</g><text x="123.2500" y="75.5500"
transform="scale(-1 1) translate(-246.500000 0)"
textLength="3.2572" font-size="1.3333" lengthAdjust="spacingAndGlyphs"
text-anchor="middle" opacity="0" stroke-opacity="0">RN1</text>
<g class="stroked-text"><desc>RN1</desc>
<path d="M123.9405 75.5047
L124.2738 75.0285
" />
<path d="M124.5119 75.5047
L124.5119 74.5047
" />
<path d="M124.5119 74.5047
L124.1310 74.5047
" />
<path d="M124.1310 74.5047
L124.0357 74.5523
" />
<path d="M124.0357 74.5523
L123.9881 74.5999
" />
<path d="M123.9881 74.5999
L123.9405 74.6952
" />
<path d="M123.9405 74.6952
L123.9405 74.8380
" />
<path d="M123.9405 74.8380
L123.9881 74.9333
" />
<path d="M123.9881 74.9333
L124.0357 74.9809
" />
<path d="M124.0357 74.9809
L124.1310 75.0285
" />
<path d="M124.1310 75.0285
L124.5119 75.0285
" />
<path d="M123.5119 75.5047
L123.5119 74.5047
" />
<path d="M123.5119 74.5047
L122.9405 75.5047
" />
<path d="M122.9405 75.5047
L122.9405 74.5047
" />
<path d="M121.9405 75.5047
L122.5119 75.5047
" />
<path d="M122.2262 75.5047
L122.2262 74.5047
" />
<path d="M122.2262 74.5047
L122.3214 74.6476
" />
<path d="M122.3214 74.6476
L122.4167 74.7428
" />
<path d="M122.4167 74.7428
L122.5119 74.7904
" />
</g><text x="144.5625" y="81.1500"
transform="scale(-1 1) translate(-289.125000 0)"
textLength="2.2572" font-size="1.3333" lengthAdjust="spacingAndGlyphs"
text-anchor="middle" opacity="0" stroke-opacity="0">U1</text>
<g class="stroked-text"><desc>U1</desc>
<path d="M145.3244 80.1047
L145.3244 80.9142
" />
<path d="M145.3244 80.9142
L145.2768 81.0095
" />
<path d="M145.2768 81.0095
L145.2292 81.0571
" />
<path d="M145.2292 81.0571
L145.1339 81.1047
" />
<path d="M145.1339 81.1047
L144.9435 81.1047
" />
<path d="M144.9435 81.1047
L144.8482 81.0571
" />
<path d="M144.8482 81.0571
L144.8006 81.0095
" />
<path d="M144.8006 81.0095
L144.7530 80.9142
" />
<path d="M144.7530 80.9142
L144.7530 80.1047
" />
<path d="M143.7530 81.1047
L144.3244 81.1047
" />
<path d="M144.0387 81.1047
L144.0387 80.1047
" />
<path d="M144.0387 80.1047
L144.1339 80.2476
" />
<path d="M144.1339 80.2476
L144.2292 80.3428
" />
<path d="M144.2292 80.3428
L144.3244 80.3904
" />
</g><g transform="rotate(-90.000000 139.9330 87.0396)">
<text x="139.9330" y="87.5396"
transform="scale(-1 1) translate(-279.866000 0)"
textLength="3.1620" font-size="1.3333" lengthAdjust="spacingAndGlyphs"
text-anchor="middle" opacity="0" stroke-opacity="0">R20</text>
</g>
<g class="stroked-text"><desc>R20</desc>
<path d="M140.3877 86.3967
L139.9115 86.0634
" />
<path d="M140.3877 85.8253
L139.3877 85.8253
" />
<path d="M139.3877 85.8253
L139.3877 86.2063
" />
<path d="M139.3877 86.2063
L139.4353 86.3015
" />
<path d="M139.4353 86.3015
L139.4829 86.3491
" />
<path d="M139.4829 86.3491
L139.5782 86.3967
" />
<path d="M139.5782 86.3967
L139.7210 86.3967
" />
<path d="M139.7210 86.3967
L139.8163 86.3491
" />
<path d="M139.8163 86.3491
L139.8639 86.3015
" />
<path d="M139.8639 86.3015
L139.9115 86.2063
" />
<path d="M139.9115 86.2063
L139.9115 85.8253
" />
<path d="M139.4829 86.7777
L139.4353 86.8253
" />
<path d="M139.4353 86.8253
L139.3877 86.9206
" />
<path d="M139.3877 86.9206
L139.3877 87.1586
" />
<path d="M139.3877 87.1586
L139.4353 87.2539
" />
<path d="M139.4353 87.2539
L139.4829 87.3015
" />
<path d="M139.4829 87.3015
L139.5782 87.3491
" />
<path d="M139.5782 87.3491
L139.6734 87.3491
" />
<path d="M139.6734 87.3491
L139.8163 87.3015
" />
<path d="M139.8163 87.3015
L140.3877 86.7301
" />
<path d="M140.3877 86.7301
L140.3877 87.3491
" />
<path d="M139.3877 87.9682
L139.3877 88.0634
" />
<path d="M139.3877 88.0634
L139.4353 88.1586
" />
<path d="M139.4353 88.1586
L139.4829 88.2063
" />
<path d="M139.4829 88.2063
L139.5782 88.2539
" />
<path d="M139.5782 88.2539
L139.7686 88.3015
" />
<path d="M139.7686 88.3015
L140.0067 88.3015
" />
<path d="M140.0067 88.3015
L140.1972 88.2539
" />
<path d="M140.1972 88.2539
L140.2925 88.2063
" />
<path d="M140.2925 88.2063
L140.3401 88.1586
" />
<path d="M140.3401 88.1586
L140.3877 88.0634
" />
<path d="M140.3877 88.0634
L140.3877 87.9682
" />
<path d="M140.3877 87.9682
L140.3401 87.8729
" />
<path d="M140.3401 87.8729
L140.2925 87.8253
" />
<path d="M140.2925 87.8253
L140.1972 87.7777
" />
<path d="M140.1972 87.7777
L140.0067 87.7301
" />
<path d="M140.0067 87.7301
L139.7686 87.7301
" />
<path d="M139.7686 87.7301
L139.5782 87.7777
" />
<path d="M139.5782 87.7777
L139.4829 87.8253
" />
<path d="M139.4829 87.8253
L139.4353 87.8729
" />
<path d="M139.4353 87.8729
L139.3877 87.9682
" />
</g><g transform="rotate(-90.000000 135.9000 72.3000)">
<text x="135.9000" y="72.8000"
transform="scale(-1 1) translate(-271.800000 0)"
textLength="3.1620" font-size="1.3333" lengthAdjust="spacingAndGlyphs"
text-anchor="middle" opacity="0" stroke-opacity="0">C14</text>
</g>
<g class="stroked-text"><desc>C14</desc>
<path d="M136.2595 71.6571
L136.3071 71.6095
" />
<path d="M136.3071 71.6095
L136.3547 71.4667
" />
<path d="M136.3547 71.4667
L136.3547 71.3714
" />
<path d="M136.3547 71.3714
L136.3071 71.2286
" />
<path d="M136.3071 71.2286
L136.2118 71.1333
" />
<path d="M136.2118 71.1333
L136.1166 71.0857
" />
<path d="M136.1166 71.0857
L135.9261 71.0381
" />
<path d="M135.9261 71.0381
L135.7833 71.0381
" />
<path d="M135.7833 71.0381
L135.5928 71.0857
" />
<path d="M135.5928 71.0857
L135.4976 71.1333
" />
<path d="M135.4976 71.1333
L135.4023 71.2286
" />
<path d="M135.4023 71.2286
L135.3547 71.3714
" />
<path d="M135.3547 71.3714
L135.3547 71.4667
" />
<path d="M135.3547 71.4667
L135.4023 71.6095
" />
<path d="M135.4023 71.6095
L135.4499 71.6571
" />
<path d="M136.3547 72.6095
L136.3547 72.0381
" />
<path d="M136.3547 72.3238
L135.3547 72.3238
" />
<path d="M135.3547 72.3238
L135.4976 72.2286
" />
<path d="M135.4976 72.2286
L135.5928 72.1333
" />
<path d="M135.5928 72.1333
L135.6404 72.0381
" />
<path d="M135.6880 73.4667
L136.3547 73.4667
" />
<path d="M135.3071 73.2286
L136.0214 72.9905
" />
<path d="M136.0214 72.9905
L136.0214 73.6095
" />
</g><text x="138.6500" y="90.9080"
transform="scale(-1 1) translate(-277.300000 0)"
textLength="2.2860" font-size="1.3547" lengthAdjust="spacingAndGlyphs"
text-anchor="middle" opacity="0" stroke-opacity="0">Q2</text>
<g class="stroked-text"><desc>Q2</desc>
<path d="M138.7468 90.9589
L138.8435 90.9105
" />
<path d="M138.8435 90.9105
L138.9403 90.8137
" />
<path d="M138.9403 90.8137
L139.0854 90.6686
" />
<path d="M139.0854 90.6686
L139.1822 90.6202
" />
<path d="M139.1822 90.6202
L139.2790 90.6202
" />
<path d="M139.2306 90.8621
L139.3273 90.8137
" />
<path d="M139.3273 90.8137
L139.4241 90.7170
" />
<path d="M139.4241 90.7170
L139.4725 90.5234
" />
<path d="M139.4725 90.5234
L139.4725 90.1848
" />
<path d="M139.4725 90.1848
L139.4241 89.9912
" />
<path d="M139.4241 89.9912
L139.3273 89.8945
" />
<path d="M139.3273 89.8945
L139.2306 89.8461
" />
<path d="M139.2306 89.8461
L139.0370 89.8461
" />
<path d="M139.0370 89.8461
L138.9403 89.8945
" />
<path d="M138.9403 89.8945
L138.8435 89.9912
" />
<path d="M138.8435 89.9912
L138.7951 90.1848
" />
<path d="M138.7951 90.1848
L138.7951 90.5234
" />
<path d="M138.7951 90.5234
L138.8435 90.7170
" />
<path d="M138.8435 90.7170
L138.9403 90.8137
" />
<path d="M138.9403 90.8137
L139.0370 90.8621
" />
<path d="M139.0370 90.8621
L139.2306 90.8621
" />
<path d="M138.4081 89.9429
L138.3597 89.8945
" />
<path d="M138.3597 89.8945
L138.2630 89.8461
" />
<path d="M138.2630 89.8461
L138.0210 89.8461
" />
<path d="M138.0210 89.8461
L137.9243 89.8945
" />
<path d="M137.9243 89.8945
L137.8759 89.9429
" />
<path d="M137.8759 89.9429
L137.8275 90.0396
" />
<path d="M137.8275 90.0396
L137.8275 90.1364
" />
<path d="M137.8275 90.1364
L137.8759 90.2815
" />
<path d="M137.8759 90.2815
L138.4565 90.8621
" />
<path d="M138.4565 90.8621
L137.8275 90.8621
" />
</g><g transform="rotate(-90.000000 131.8330 86.9071)">
<text x="131.8330" y="87.4071"
transform="scale(-1 1) translate(-263.666000 0)"
textLength="3.1620" font-size="1.3333" lengthAdjust="spacingAndGlyphs"
text-anchor="middle" opacity="0" stroke-opacity="0">C19</text>
</g>
<g class="stroked-text"><desc>C19</desc>
<path d="M132.1925 86.2642
L132.2401 86.2166
" />
<path d="M132.2401 86.2166
L132.2877 86.0738
" />
<path d="M132.2877 86.0738
L132.2877 85.9785
" />
<path d="M132.2877 85.9785
L132.2401 85.8357
" />
<path d="M132.2401 85.8357
L132.1448 85.7404
" />
<path d="M132.1448 85.7404
L132.0496 85.6928
" />
<path d="M132.0496 85.6928
L131.8591 85.6452
" />
<path d="M131.8591 85.6452
L131.7163 85.6452
" />
<path d="M131.7163 85.6452
L131.5258 85.6928
" />
<path d="M131.5258 85.6928
L131.4306 85.7404
" />
<path d="M131.4306 85.7404
L131.3353 85.8357
" />
<path d="M131.3353 85.8357
L131.2877 85.9785
" />
<path d="M131.2877 85.9785
L131.2877 86.0738
" />
<path d="M131.2877 86.0738
L131.3353 86.2166
" />
<path d="M131.3353 86.2166
L131.3829 86.2642
" />
<path d="M132.2877 87.2166
L132.2877 86.6452
" />
<path d="M132.2877 86.9309
L131.2877 86.9309
" />
<path d="M131.2877 86.9309
L131.4306 86.8357
" />
<path d="M131.4306 86.8357
L131.5258 86.7404
" />
<path d="M131.5258 86.7404
L131.5734 86.6452
" />
<path d="M132.2877 87.6928
L132.2877 87.8833
" />
<path d="M132.2877 87.8833
L132.2401 87.9785
" />
<path d="M132.2401 87.9785
L132.1925 88.0261
" />
<path d="M132.1925 88.0261
L132.0496 88.1214
" />
<path d="M132.0496 88.1214
L131.8591 88.1690
" />
<path d="M131.8591 88.1690
L131.4782 88.1690
" />
<path d="M131.4782 88.1690
L131.3829 88.1214
" />
<path d="M131.3829 88.1214
L131.3353 88.0738
" />
<path d="M131.3353 88.0738
L131.2877 87.9785
" />
<path d="M131.2877 87.9785
L131.2877 87.7881
" />
<path d="M131.2877 87.7881
L131.3353 87.6928
" />
<path d="M131.3353 87.6928
L131.3829 87.6452
" />
<path d="M131.3829 87.6452
L131.4782 87.5976
" />
<path d="M131.4782 87.5976
L131.7163 87.5976
" />
<path d="M131.7163 87.5976
L131.8115 87.6452
" />
<path d="M131.8115 87.6452
L131.8591 87.6928
" />
<path d="M131.8591 87.6928
L131.9067 87.7881
" />
<path d="M131.9067 87.7881
L131.9067 87.9785
" />
<path d="M131.9067 87.9785
L131.8591 88.0738
" />
<path d="M131.8591 88.0738
L131.8115 88.1214
" />
<path d="M131.8115 88.1214
L131.7163 88.1690
" />
</g><text x="127.9500" y="70.4830"
transform="scale(-1 1) translate(-255.900000 0)"
textLength="2.2860" font-size="1.3547" lengthAdjust="spacingAndGlyphs"
text-anchor="middle" opacity="0" stroke-opacity="0">U3</text>
<g class="stroked-text"><desc>U3</desc>
<path d="M128.7241 69.4211
L128.7241 70.2436
" />
<path d="M128.7241 70.2436
L128.6757 70.3403
" />
<path d="M128.6757 70.3403
L128.6273 70.3887
" />
<path d="M128.6273 70.3887
L128.5306 70.4371
" />
<path d="M128.5306 70.4371
L128.3370 70.4371
" />
<path d="M128.3370 70.4371
L128.2403 70.3887
" />
<path d="M128.2403 70.3887
L128.1919 70.3403
" />
<path d="M128.1919 70.3403
L128.1435 70.2436
" />
<path d="M128.1435 70.2436
L128.1435 69.4211
" />
<path d="M127.7565 69.4211
L127.1275 69.4211
" />
<path d="M127.1275 69.4211
L127.4662 69.8081
" />
<path d="M127.4662 69.8081
L127.3210 69.8081
" />
<path d="M127.3210 69.8081
L127.2243 69.8565
" />
<path d="M127.2243 69.8565
L127.1759 69.9049
" />
<path d="M127.1759 69.9049
L127.1275 70.0017
" />
<path d="M127.1275 70.0017
L127.1275 70.2436
" />
<path d="M127.1275 70.2436
L127.1759 70.3403
" />
<path d="M127.1759 70.3403
L127.2243 70.3887
" />
<path d="M127.2243 70.3887
L127.3210 70.4371
" />
<path d="M127.3210 70.4371
L127.6113 70.4371
" />
<path d="M127.6113 70.4371
L127.7081 70.3887
" />
<path d="M127.7081 70.3887
L127.7565 70.3403
" />
</g><g transform="rotate(-90.000000 141.0750 78.8750)">
<text x="141.0750" y="79.3750"
transform="scale(-1 1) translate(-282.150000 0)"
textLength="3.1620" font-size="1.3333" lengthAdjust="spacingAndGlyphs"
text-anchor="middle" opacity="0" stroke-opacity="0">C22</text>
</g>
<g class="stroked-text"><desc>C22</desc>
<path d="M141.4345 78.2321
L141.4821 78.1845
" />
<path d="M141.4821 78.1845
L141.5297 78.0417
" />
<path d="M141.5297 78.0417
L141.5297 77.9464
" />
<path d="M141.5297 77.9464
L141.4821 77.8036
" />
<path d="M141.4821 77.8036
L141.3868 77.7083
" />
<path d="M141.3868 77.7083
L141.2916 77.6607
" />
<path d="M141.2916 77.6607
L141.1011 77.6131
" />
<path d="M141.1011 77.6131
L140.9583 77.6131
" />
<path d="M140.9583 77.6131
L140.7678 77.6607
" />
<path d="M140.7678 77.6607
L140.6726 77.7083
" />
<path d="M140.6726 77.7083
L140.5773 77.8036
" />
<path d="M140.5773 77.8036
L140.5297 77.9464
" />
<path d="M140.5297 77.9464
L140.5297 78.0417
" />
<path d="M140.5297 78.0417
L140.5773 78.1845
" />
<path d="M140.5773 78.1845
L140.6249 78.2321
" />
<path d="M140.6249 78.6131
L140.5773 78.6607
" />
<path d="M140.5773 78.6607
L140.5297 78.7560
" />
<path d="M140.5297 78.7560
L140.5297 78.9940
" />
<path d="M140.5297 78.9940
L140.5773 79.0893
" />
<path d="M140.5773 79.0893
L140.6249 79.1369
" />
<path d="M140.6249 79.1369
L140.7202 79.1845
" />
<path d="M140.7202 79.1845
L140.8154 79.1845
" />
<path d="M140.8154 79.1845
L140.9583 79.1369
" />
<path d="M140.9583 79.1369
L141.5297 78.5655
" />
<path d="M141.5297 78.5655
L141.5297 79.1845
" />
<path d="M140.6249 79.5655
L140.5773 79.6131
" />
<path d="M140.5773 79.6131
L140.5297 79.7083
" />
<path d="M140.5297 79.7083
L140.5297 79.9464
" />
<path d="M140.5297 79.9464
L140.5773 80.0417
" />
<path d="M140.5773 80.0417
L140.6249 80.0893
" />
<path d="M140.6249 80.0893
L140.7202 80.1369
" />
<path d="M140.7202 80.1369
L140.8154 80.1369
" />
<path d="M140.8154 80.1369
L140.9583 80.0893
" />
<path d="M140.9583 80.0893
L141.5297 79.5179
" />
<path d="M141.5297 79.5179
L141.5297 80.1369
" />
</g><g transform="rotate(-90.000000 136.3250 90.1500)">
<text x="136.3250" y="90.6500"
transform="scale(-1 1) translate(-272.650000 0)"
textLength="3.1620" font-size="1.3333" lengthAdjust="spacingAndGlyphs"
text-anchor="middle" opacity="0" stroke-opacity="0">R21</text>
</g>
<g class="stroked-text"><desc>R21</desc>
<path d="M136.7797 89.5071
L136.3035 89.1738
" />
<path d="M136.7797 88.9357
L135.7797 88.9357
" />
<path d="M135.7797 88.9357
L135.7797 89.3167
" />
<path d="M135.7797 89.3167
L135.8273 89.4119
" />
<path d="M135.8273 89.4119
L135.8749 89.4595
" />
<path d="M135.8749 89.4595
L135.9702 89.5071
" />
<path d="M135.9702 89.5071
L136.1130 89.5071
" />
<path d="M136.1130 89.5071
L136.2083 89.4595
" />
<path d="M136.2083 89.4595
L136.2559 89.4119
" />
<path d="M136.2559 89.4119
L136.3035 89.3167
" />
<path d="M136.3035 89.3167
L136.3035 88.9357
" />
<path d="M135.8749 89.8881
L135.8273 89.9357
" />
<path d="M135.8273 89.9357
L135.7797 90.0310
" />
<path d="M135.7797 90.0310
L135.7797 90.2690
" />
<path d="M135.7797 90.2690
L135.8273 90.3643
" />
<path d="M135.8273 90.3643
L135.8749 90.4119
" />
<path d="M135.8749 90.4119
L135.9702 90.4595
" />
<path d="M135.9702 90.4595
L136.0654 90.4595
" />
<path d="M136.0654 90.4595
L136.2083 90.4119
" />
<path d="M136.2083 90.4119
L136.7797 89.8405
" />
<path d="M136.7797 89.8405
L136.7797 90.4595
" />
<path d="M136.7797 91.4119
L136.7797 90.8405
" />
<path d="M136.7797 91.1262
L135.7797 91.1262
" />
<path d="M135.7797 91.1262
L135.9226 91.0310
" />
<path d="M135.9226 91.0310
L136.0178 90.9357
" />
<path d="M136.0178 90.9357
L136.0654 90.8405
" />
</g></g>
<g style="fill:none; 
stroke:#000000; stroke-width:0.1200; stroke-opacity:1; 
stroke-linecap:round; stroke-linejoin:round;">
<path d="M161.5650 97.7550
L161.5650 95.0700
" />
<path d="M163.4850 95.0700
L163.4850 97.7550
" />
<path d="M163.4850 97.7550
L161.5650 97.7550
" />
<path d="M129.4613 89.2150
L128.9387 89.2150
" />
<path d="M129.4613 90.6850
L128.9387 90.6850
" />
<path d="M133.7900 93.0271
L133.7900 92.5729
" />
<path d="M135.2600 93.0271
L135.2600 92.5729
" />
<path d="M124.6771 88.9650
L124.2229 88.9650
" />
<path d="M124.6771 90.4350
L124.2229 90.4350
" />
<path d="M129.0950 72.0937
L129.0950 72.6163
" />
<path d="M130.5650 72.0937
L130.5650 72.6163
" />
<path d="M123.1000 92.1500
L123.1000 92.7500
" />
<path d="M123.8000 93.4500
L125.2000 93.4500
" />
<path d="M125.2000 91.4500
L123.8000 91.4500
" />
<path d="M125.9000 92.7500
L125.9000 92.1500
" />
<path d="M123.8000 91.4500 A0.7000 0.7000 0.0 0 0 123.1000 92.1500" />
<path d="M123.1000 92.7500 A0.7000 0.7000 0.0 0 0 123.8000 93.4500" />
<path d="M125.9000 92.1500 A0.7000 0.7000 0.0 0 0 125.2000 91.4500" />
<path d="M125.2000 93.4500 A0.7000 0.7000 0.0 0 0 125.9000 92.7500" />
<path d="M124.6771 86.9650
L124.2229 86.9650
" />
<path d="M124.6771 88.4350
L124.2229 88.4350
" />
<path d="M145.3500 90.4500
L145.3500 91.0500
" />
<path d="M146.0500 91.7500
L147.4500 91.7500
" />
<path d="M147.4500 89.7500
L146.0500 89.7500
" />
<path d="M148.1500 91.0500
L148.1500 90.4500
" />
<path d="M146.0500 89.7500 A0.7000 0.7000 0.0 0 0 145.3500 90.4500" />
<path d="M145.3500 91.0500 A0.7000 0.7000 0.0 0 0 146.0500 91.7500" />
<path d="M148.1500 90.4500 A0.7000 0.7000 0.0 0 0 147.4500 89.7500" />
<path d="M147.4500 91.7500 A0.7000 0.7000 0.0 0 0 148.1500 91.0500" />
<path d="M127.5538 74.5825
L127.0312 74.5825
" />
<path d="M127.5538 76.0525
L127.0312 76.0525
" />
<path d="M131.2900 93.0271
L131.2900 92.5729
" />
<path d="M132.7600 93.0271
L132.7600 92.5729
" />
<path d="M163.2150 92.1829
L163.2150 92.6371
" />
<path d="M161.7450 92.1829
L161.7450 92.6371
" />
<path d="M147.5600 92.2500
L142.0500 92.2500
" />
<path d="M147.5600 92.2500
L147.5600 95.5500
" />
<path d="M147.5600 95.5500
L142.0500 95.5500
" />
</g>
<g style="fill:none; 
stroke:#000000; stroke-width:0.1270; stroke-opacity:1; 
stroke-linecap:round; stroke-linejoin:round;">
<path d="M128.2650 86.0450
L130.2650 86.0450
" />
<path d="M128.2650 88.5050
L130.2650 88.5050
" />
</g>
<g style="fill:none; 
stroke:#000000; stroke-width:0.2000; stroke-opacity:1; 
stroke-linecap:round; stroke-linejoin:round;">
<circle cx="127.3650" cy="88.1750" r="0.1000" /> 
</g>
<g style="fill:none; 
stroke:#000000; stroke-width:0.1200; stroke-opacity:1; 
stroke-linecap:round; stroke-linejoin:round;">
<circle cx="143.5500" cy="88.5500" r="0.7000" /> 
<path d="M144.4762 85.4150
L144.9988 85.4150
" />
<path d="M144.4762 86.8850
L144.9988 86.8850
" />
<path d="M123.4300 70.5975
L124.2300 70.5975
" />
<path d="M123.4300 74.0375
L124.2300 74.0375
" />
<path d="M143.6525 81.6400
L143.6525 81.6900
" />
<path d="M143.6525 84.7100
L143.6525 84.7600
" />
<path d="M143.6525 84.7600
L145.4725 84.7600
" />
<path d="M145.4725 81.6400
L143.6525 81.6400
" />
<path d="M145.4725 81.6900
L145.4725 81.6400
" />
<path d="M145.4725 83.5900
L145.4725 82.8100
" />
<path d="M145.4725 84.7600
L145.4725 84.7100
" />
<path style="fill:#000000; fill-opacity:1.0000; 
stroke:#000000; stroke-width:0.1200; stroke-opacity:1; 
stroke-linecap:round; stroke-linejoin:round;fill-rule:evenodd;"
d="M 143.3525,85.0400
142.8725,85.0400
143.1125,84.7100
Z" /> 
</g>
<g style="fill:none; 
stroke:#000000; stroke-width:0.1200; stroke-opacity:1; 
stroke-linecap:round; stroke-linejoin:round;">
<path d="M134.7900 81.5775
L136.7100 81.5775
" />
<path d="M134.7900 84.2625
L134.7900 81.5775
" />
<path d="M136.7100 81.5775
L136.7100 84.2625
" />
<path d="M137.5150 87.2021
L137.5150 86.7479
" />
<path d="M138.9850 87.2021
L138.9850 86.7479
" />
<path d="M131.0950 72.0937
L131.0950 72.6163
" />
<path d="M132.5650 72.0937
L132.5650 72.6163
" />
</g>
<g style="fill:none; 
stroke:#000000; stroke-width:0.2032; stroke-opacity:1; 
stroke-linecap:round; stroke-linejoin:round;">
<path d="M141.7726 91.7724
L142.5854 91.7724
" />
<path d="M142.5854 88.9276
L141.7726 88.9276
" />
<path d="M142.5854 89.5864
L142.5854 88.9276
" />
<path d="M142.5854 91.7724
L142.5854 91.1136
" />
</g>
<g style="fill:none; 
stroke:#000000; stroke-width:0.1200; stroke-opacity:1; 
stroke-linecap:round; stroke-linejoin:round;">
<path d="M132.7150 86.7437
L132.7150 87.2663
" />
<path d="M134.1850 86.7437
L134.1850 87.2663
" />
<path d="M137.2900 81.5775
L139.2100 81.5775
" />
<path d="M137.2900 84.2625
L137.2900 81.5775
" />
<path d="M139.2100 81.5775
L139.2100 84.2625
" />
</g>
<g style="fill:none; 
stroke:#000000; stroke-width:0.1270; stroke-opacity:1; 
stroke-linecap:round; stroke-linejoin:round;">
<path d="M126.0800 70.8175
L126.0800 71.3175
" />
<path d="M126.0800 73.8175
L126.0800 73.3175
" />
<path d="M128.5800 70.8175
L128.5800 71.3175
" />
<path d="M128.5800 73.8175
L128.5800 73.3175
" />
</g>
<g style="fill:none; 
stroke:#000000; stroke-width:0.2000; stroke-opacity:1; 
stroke-linecap:round; stroke-linejoin:round;">
<circle cx="126.5800" cy="70.3175" r="0.1000" /> 
</g>
<g style="fill:none; 
stroke:#000000; stroke-width:0.1200; stroke-opacity:1; 
stroke-linecap:round; stroke-linejoin:round;">
<path d="M140.4650 82.9262
L140.4650 83.4488
" />
<path d="M141.9350 82.9262
L141.9350 83.4488
" />
<path d="M135.0150 87.2021
L135.0150 86.7479
" />
<path d="M136.4850 87.2021
L136.4850 86.7479
" />
</g>
<g style="fill:none; 
stroke:#000000; stroke-width:0.3000; stroke-opacity:1; 
stroke-linecap:round; stroke-linejoin:round;">
<circle cx="113.3800" cy="85.8200" r="0.2500" /> 
</g>
<g style="fill:none; 
stroke:#000000; stroke-width:0.1270; stroke-opacity:1; 
stroke-linecap:round; stroke-linejoin:round;">
<path d="M119.4800 84.8200
L117.4300 84.8200
" />
<path d="M119.4800 80.8200
L119.4800 84.8200
" />
<path d="M113.6300 84.8200
L111.5800 84.8200
" />
<path d="M113.3300 77.2200
L117.7300 77.2200
" />
<path d="M111.5800 84.8200
L111.5800 80.8200
" />
</g> 
</svg>
