M48
; DRILL file {KiCad 9.0.6-9.0.6~ubuntu24.04.1} date 2025-12-05T16:25:23-0300
; FORMAT={-:-/ absolute / metric / decimal}
; #@! TF.CreationDate,2025-12-05T16:25:23-03:00
; #@! TF.GenerationSoftware,Kicad,Pcbnew,9.0.6-9.0.6~ubuntu24.04.1
; #@! TF.FileFunction,Plated,1,4,PTH
FMAT,2
METRIC
; #@! TA.AperFunction,Plated,PTH,ViaDrill
T1C0.300
; #@! TA.AperFunction,Plated,PTH,ComponentDrill
T2C0.600
; #@! TA.AperFunction,Plated,PTH,ComponentDrill
T3C0.800
%
G90
G05
T1
X105.8Y-87.66
X106.37Y-92.8
X108.49Y-73.84
X108.71Y-80.26
X109.4Y-74.98
X109.47Y-87.43
X109.78Y-79.44
X111.165Y-95.065
X111.87Y-70.21
X112.25Y-84.35
X112.41Y-74.59
X113.04Y-94.1
X113.18Y-73.43
X113.7Y-81.83
X113.71Y-79.13
X113.8Y-94.1
X114.385Y-90.115
X114.42Y-88.13
X114.5Y-92.05
X114.59Y-94.1
X114.875Y-89.1
X114.9Y-91.1
X115.02Y-75.75
X115.41Y-94.1
X115.85Y-93.35
X115.9Y-86.9
X116.24Y-94.1
X116.42Y-70.24
X116.51Y-72.22
X116.525Y-82.33
X116.84Y-87.18
X116.9Y-89.075
X116.9Y-91.1
X116.9Y-93.05
X117.04Y-94.1
X117.23Y-77.16
X117.45Y-86.09
X117.8Y-87.0
X117.8Y-93.2
X117.84Y-94.1
X118.69Y-94.1
X118.85Y-87.15
X118.85Y-91.025
X118.875Y-89.05
X118.875Y-93.075
X119.49Y-94.1
X119.65Y-86.85
X119.8Y-93.2
X120.29Y-94.1
X120.75Y-89.075
X120.775Y-91.075
X120.99Y-92.08
X120.99Y-94.1
X121.0Y-84.2
X121.05Y-90.15
X121.1Y-88.11
X121.13Y-72.99
X121.27Y-71.17
X121.79Y-94.1
X122.141Y-82.654
X122.35Y-89.7
X122.365Y-87.566
X122.67Y-94.1
X122.69Y-93.29
X122.7Y-76.04
X122.721Y-82.421
X122.75Y-86.45
X123.342Y-69.745
X123.716Y-84.284
X124.02Y-70.04
X124.25Y-75.07
X124.3Y-83.663
X124.34Y-82.13
X124.475Y-88.51
X124.7Y-74.32
X124.82Y-70.08
X124.93Y-75.542
X125.0Y-85.217
X125.14Y-83.43
X125.31Y-70.6
X125.6Y-86.0
X125.65Y-73.79
X126.26Y-83.19
X126.53Y-87.69
X126.68Y-85.47
X127.07Y-87.54
X127.108Y-78.709
X127.2Y-93.673
X127.24Y-74.31
X127.667Y-83.65
X127.848Y-78.404
X128.321Y-70.16
X128.44Y-85.94
X129.087Y-72.361
X129.125Y-93.673
X129.4Y-88.55
X129.85Y-72.405
X129.854Y-93.748
X130.19Y-79.54
X130.81Y-91.6
X131.271Y-89.879
X131.43Y-77.54
X131.7Y-75.6
X131.8Y-72.405
X132.294Y-85.582
X133.721Y-75.6
X133.726Y-86.956
X135.39Y-90.53
X135.56Y-71.06
X135.702Y-75.6
X136.2Y-91.07
X136.5Y-95.95
X136.55Y-71.21
X136.69Y-72.18
X137.75Y-75.6
X137.77Y-71.85
X137.8Y-96.62
X138.19Y-72.92
X138.33Y-95.72
X138.4Y-69.9
X139.05Y-97.46
X139.29Y-96.28
X139.319Y-72.75
X139.33Y-70.45
X139.48Y-77.28
X139.6Y-75.6
X139.68Y-90.42
X139.84Y-94.59
X140.11Y-96.81
X140.36Y-80.05
X140.65Y-90.4
X141.04Y-98.02
X141.15Y-80.73
X141.7Y-75.6
X141.725Y-96.665
X141.83Y-88.29
X142.55Y-86.1
X142.63Y-85.08
X143.75Y-75.6
X143.9Y-79.37
X144.05Y-97.125
X144.12Y-92.0
X144.96Y-92.504
X145.7Y-75.6
X147.66Y-75.56
X150.18Y-89.72
X150.241Y-78.576
X154.55Y-88.55
X154.96Y-77.57
X159.12Y-95.3
X159.12Y-96.5
X159.89Y-96.39
X159.92Y-95.3
X160.101Y-83.101
X160.17Y-89.884
X160.19Y-79.2
X160.81Y-86.35
X161.35Y-94.69
X161.82Y-85.88
X162.33Y-81.79
X162.61Y-78.62
X163.115Y-81.796
X163.25Y-84.81
X163.32Y-89.43
X163.36Y-78.07
X163.64Y-79.24
X164.15Y-96.47
X164.27Y-84.77
X164.35Y-93.2
X164.94Y-93.88
X165.46Y-94.27
X166.04Y-85.61
X166.07Y-86.72
X168.9Y-90.95
X169.346Y-76.962
X172.45Y-91.3
X172.7Y-76.9
T3
X152.61Y-96.62
X155.15Y-96.62
X157.69Y-96.62
T2
G00X106.483Y-72.72
M15
G01X105.682Y-72.72
M16
G05
G00X106.483Y-81.36
M15
G01X105.682Y-81.36
M16
G05
G00X110.812Y-72.72
M15
G01X109.712Y-72.72
M16
G05
G00X110.812Y-81.36
M15
G01X109.712Y-81.36
M16
G05
M30
