%TF.GenerationSoftware,KiCad,Pcbnew,9.0.6-9.0.6~ubuntu24.04.1*%
%TF.CreationDate,2025-12-05T16:25:40-03:00*%
%TF.ProjectId,Smart_insoles_2025_v1,536d6172-745f-4696-9e73-6f6c65735f32,rev?*%
%TF.SameCoordinates,Original*%
%TF.FileFunction,Copper,L3,Inr*%
%TF.FilePolarity,Positive*%
%FSLAX46Y46*%
G04 Gerber Fmt 4.6, Leading zero omitted, Abs format (unit mm)*
G04 Created by KiCad (PCBNEW 9.0.6-9.0.6~ubuntu24.04.1) date 2025-12-05 16:25:40*
%MOMM*%
%LPD*%
G01*
G04 APERTURE LIST*
%TA.AperFunction,ComponentPad*%
%ADD10C,1.600000*%
%TD*%
%TA.AperFunction,ComponentPad*%
%ADD11R,1.500000X1.500000*%
%TD*%
%TA.AperFunction,HeatsinkPad*%
%ADD12O,1.800000X1.000000*%
%TD*%
%TA.AperFunction,HeatsinkPad*%
%ADD13O,2.100000X1.000000*%
%TD*%
%TA.AperFunction,ViaPad*%
%ADD14C,0.600000*%
%TD*%
%TA.AperFunction,ViaPad*%
%ADD15C,0.450000*%
%TD*%
G04 APERTURE END LIST*
D10*
%TO.N,unconnected-(SW3-C-Pad1)*%
%TO.C,SW3*%
X157690000Y-96620000D03*
D11*
%TO.N,/Battery Circuit Options/VBUS_OUT_B*%
X155150000Y-96620000D03*
D10*
%TO.N,Vsel*%
X152610000Y-96620000D03*
%TD*%
D12*
%TO.N,GND*%
%TO.C,J2*%
X106082500Y-81360000D03*
D13*
X110262500Y-81360000D03*
D12*
X106082500Y-72720000D03*
D13*
X110262500Y-72720000D03*
%TD*%
D14*
%TO.N,VBUS*%
X113710000Y-79130000D03*
X113180000Y-73430000D03*
%TO.N,GND*%
X108710000Y-80260000D03*
%TO.N,VBUS*%
X112410000Y-74590000D03*
X115020000Y-75750000D03*
X109780000Y-79440000D03*
X116510000Y-72220000D03*
X109400000Y-74980000D03*
D15*
%TO.N,+3V3*%
X137800000Y-96620000D03*
X139290000Y-96280000D03*
D14*
X121130000Y-72990000D03*
X122700000Y-76040000D03*
%TO.N,GND*%
X109470000Y-87430000D03*
X105800000Y-87660000D03*
X117230000Y-77160000D03*
X121270000Y-71170000D03*
X108490000Y-73840000D03*
X113700000Y-81830000D03*
X111870000Y-70210000D03*
X116420000Y-70240000D03*
X141830000Y-88290000D03*
X164150000Y-96470000D03*
D15*
X122140793Y-82653953D03*
%TO.N,S3*%
X125140000Y-83430000D03*
D14*
%TO.N,GND*%
X131430000Y-77540000D03*
D15*
X118875000Y-89050000D03*
X112250000Y-84350000D03*
X114900000Y-91100000D03*
X118850000Y-87150000D03*
X116900000Y-91100000D03*
X116900000Y-89075000D03*
X121000000Y-84200000D03*
X120750000Y-89075000D03*
X114420000Y-88130000D03*
X118850000Y-91025000D03*
X114875000Y-89100000D03*
X117800000Y-87000000D03*
X116525000Y-82330000D03*
X121050000Y-90150000D03*
X116840000Y-87180000D03*
X117450000Y-86090000D03*
X121100000Y-88110000D03*
X119650000Y-86850000D03*
X114385000Y-90115000D03*
X120775000Y-91075000D03*
X115900000Y-86900000D03*
D14*
X144120000Y-92000000D03*
D15*
%TO.N,/EN*%
X126680000Y-85470000D03*
X124475000Y-88510000D03*
%TO.N,/FSR_AnalogFE/FSR_IN*%
X140360000Y-80050000D03*
X139480000Y-77280000D03*
%TO.N,/FSR_AnalogFE/FSR_OUT_6*%
X164940000Y-93880000D03*
X136550000Y-71210000D03*
D14*
%TO.N,/FSR_AnalogFE/FSR_OUT_7*%
X166040000Y-85610000D03*
D15*
X139330000Y-70450000D03*
%TO.N,/FSR_AnalogFE/FSR_OUT_5*%
X164270000Y-84770000D03*
X137770000Y-71850000D03*
%TO.N,/FSR_AnalogFE/FSR_OUT_4*%
X161820000Y-85880000D03*
X139319000Y-72750000D03*
%TO.N,+3V3*%
X160190000Y-79200000D03*
X141040000Y-98020000D03*
X138330000Y-95720000D03*
X127847558Y-78403912D03*
X161350000Y-94690000D03*
X141725000Y-96665000D03*
X136500000Y-95950000D03*
X160100735Y-83100735D03*
X140110000Y-96810000D03*
X160170000Y-89884363D03*
X139050000Y-97460000D03*
%TO.N,GND*%
X139600000Y-75600000D03*
X163360000Y-78070000D03*
X129400000Y-88550000D03*
X117040000Y-94100000D03*
X126530000Y-87690000D03*
X150241000Y-78576363D03*
X129125000Y-93672885D03*
X138190000Y-72920000D03*
X124340000Y-82130000D03*
X115410000Y-94100000D03*
X169345800Y-76962000D03*
D14*
X133726259Y-86956186D03*
D15*
X140650000Y-90400000D03*
X141150000Y-80730000D03*
X115850000Y-93350000D03*
X119800000Y-93200000D03*
X150180000Y-89720000D03*
X133720778Y-75600000D03*
X130190000Y-79540000D03*
X135701750Y-75600000D03*
X139840000Y-94590000D03*
X144050000Y-97125000D03*
X121790000Y-94100000D03*
X131271323Y-89878677D03*
X116240000Y-94100000D03*
X154550000Y-88550000D03*
X143900000Y-79370000D03*
X117840000Y-94100000D03*
X111165000Y-95065000D03*
X159890000Y-96390000D03*
X138400000Y-69900000D03*
X106370000Y-92800000D03*
X118875000Y-93075000D03*
X122670000Y-94100000D03*
X137750000Y-75600000D03*
X118690000Y-94100000D03*
X165460000Y-94270000D03*
X164350000Y-93200000D03*
X122690000Y-93290000D03*
X145700000Y-75600000D03*
X120990000Y-92080000D03*
X130810000Y-91600000D03*
X142630000Y-85080000D03*
X143750000Y-75600000D03*
X113800000Y-94100000D03*
X119490000Y-94100000D03*
X132294463Y-85582500D03*
X129850000Y-72405000D03*
X127200000Y-93672885D03*
X131700000Y-75600000D03*
X172450000Y-91300000D03*
X163640000Y-79240163D03*
X116900000Y-93050000D03*
X168900000Y-90950000D03*
X160810000Y-86350000D03*
X114590000Y-94100000D03*
X159920003Y-95300000D03*
X127666511Y-83650000D03*
X131800000Y-72405000D03*
X135560000Y-71060000D03*
X127070000Y-87540000D03*
X122365500Y-87565500D03*
X142550000Y-86100000D03*
X114500000Y-92050000D03*
X117800000Y-93200000D03*
X122350000Y-89700000D03*
X147660000Y-75560000D03*
X120290000Y-94100000D03*
X120990000Y-94100000D03*
X136200000Y-91070000D03*
X136690000Y-72180000D03*
X163115031Y-81795963D03*
X163320000Y-89430000D03*
X166070000Y-86720000D03*
X141700000Y-75600000D03*
X113040000Y-94100000D03*
X122750000Y-86450000D03*
X129087028Y-72360554D03*
X163250000Y-84810000D03*
X144960141Y-92504273D03*
X124930000Y-75542500D03*
X172700000Y-76900000D03*
X127107828Y-78708550D03*
X154960000Y-77570000D03*
X123715735Y-84284265D03*
D14*
X129854433Y-93747885D03*
D15*
X128439853Y-85940001D03*
%TO.N,CS*%
X125650000Y-73790000D03*
X125310000Y-70600000D03*
%TO.N,SDO{slash}SA0*%
X124020000Y-70040000D03*
%TO.N,SCL*%
X124700000Y-74320400D03*
%TO.N,SDA*%
X124250000Y-75070000D03*
%TO.N,I3*%
X162610000Y-78620000D03*
X162330000Y-81790000D03*
%TO.N,S3*%
X125000000Y-85217000D03*
%TO.N,I7*%
X159120000Y-96500000D03*
X159120000Y-95300000D03*
%TO.N,S2*%
X126260000Y-83190000D03*
X125600000Y-86000000D03*
%TO.N,SIG*%
X135390000Y-90530000D03*
X139680000Y-90420000D03*
X122720598Y-82420598D03*
X124300000Y-83662660D03*
%TO.N,INT*%
X128320800Y-70160000D03*
%TO.N,SDX*%
X124820000Y-70080000D03*
%TO.N,SCX*%
X123342216Y-69745012D03*
%TO.N,INT2*%
X127240000Y-74310000D03*
%TD*%
%TA.AperFunction,Conductor*%
%TO.N,GND*%
G36*
X122505730Y-69473136D02*
G01*
X122572728Y-69492951D01*
X122618381Y-69545843D01*
X122628190Y-69615021D01*
X122627105Y-69621326D01*
X122616716Y-69673557D01*
X122616716Y-69816467D01*
X122616716Y-69816469D01*
X122616715Y-69816469D01*
X122644595Y-69956626D01*
X122644597Y-69956632D01*
X122699285Y-70088662D01*
X122699290Y-70088671D01*
X122778683Y-70207490D01*
X122778686Y-70207494D01*
X122879733Y-70308541D01*
X122879737Y-70308544D01*
X122998556Y-70387937D01*
X122998565Y-70387942D01*
X122999635Y-70388385D01*
X123130596Y-70442631D01*
X123130600Y-70442631D01*
X123130601Y-70442632D01*
X123270758Y-70470512D01*
X123373138Y-70470512D01*
X123440177Y-70490197D01*
X123460819Y-70506831D01*
X123557517Y-70603529D01*
X123557521Y-70603532D01*
X123676340Y-70682925D01*
X123676349Y-70682930D01*
X123704967Y-70694784D01*
X123808380Y-70737619D01*
X123808384Y-70737619D01*
X123808385Y-70737620D01*
X123948542Y-70765500D01*
X123948545Y-70765500D01*
X124091457Y-70765500D01*
X124185751Y-70746742D01*
X124231620Y-70737619D01*
X124335033Y-70694783D01*
X124369243Y-70691105D01*
X124403395Y-70687121D01*
X124404013Y-70687367D01*
X124404500Y-70687315D01*
X124436983Y-70697963D01*
X124444451Y-70701617D01*
X124476347Y-70722929D01*
X124552333Y-70754403D01*
X124555802Y-70756101D01*
X124578850Y-70777173D01*
X124603159Y-70796763D01*
X124606033Y-70802026D01*
X124607368Y-70803247D01*
X124607997Y-70805624D01*
X124615864Y-70820030D01*
X124667069Y-70943649D01*
X124667074Y-70943659D01*
X124746467Y-71062478D01*
X124746470Y-71062482D01*
X124847517Y-71163529D01*
X124847521Y-71163532D01*
X124966340Y-71242925D01*
X124966346Y-71242928D01*
X124966347Y-71242929D01*
X125098380Y-71297619D01*
X125098384Y-71297619D01*
X125098385Y-71297620D01*
X125238542Y-71325500D01*
X125238545Y-71325500D01*
X125381457Y-71325500D01*
X125475751Y-71306742D01*
X125521620Y-71297619D01*
X125560638Y-71281457D01*
X135824499Y-71281457D01*
X135852379Y-71421614D01*
X135852381Y-71421620D01*
X135907069Y-71553650D01*
X135907074Y-71553659D01*
X135986467Y-71672478D01*
X135986470Y-71672482D01*
X136087517Y-71773529D01*
X136087521Y-71773532D01*
X136206340Y-71852925D01*
X136206346Y-71852928D01*
X136206347Y-71852929D01*
X136338380Y-71907619D01*
X136338384Y-71907619D01*
X136338385Y-71907620D01*
X136478542Y-71935500D01*
X136478545Y-71935500D01*
X136621457Y-71935500D01*
X136715751Y-71916742D01*
X136761620Y-71907619D01*
X136880831Y-71858239D01*
X136950299Y-71850771D01*
X137012779Y-71882046D01*
X137048431Y-71942135D01*
X137049900Y-71948608D01*
X137072380Y-72061615D01*
X137072381Y-72061620D01*
X137127069Y-72193650D01*
X137127074Y-72193659D01*
X137206467Y-72312478D01*
X137206470Y-72312482D01*
X137307517Y-72413529D01*
X137307521Y-72413532D01*
X137426340Y-72492925D01*
X137426346Y-72492928D01*
X137426347Y-72492929D01*
X137558380Y-72547619D01*
X137558384Y-72547619D01*
X137558385Y-72547620D01*
X137698542Y-72575500D01*
X137698545Y-72575500D01*
X137841457Y-72575500D01*
X137965449Y-72550836D01*
X137975711Y-72548794D01*
X137981620Y-72547619D01*
X138113653Y-72492929D01*
X138232479Y-72413532D01*
X138333532Y-72312479D01*
X138412929Y-72193653D01*
X138467619Y-72061620D01*
X138482562Y-71986498D01*
X138495500Y-71921457D01*
X138495500Y-71778543D01*
X138492338Y-71762648D01*
X170349500Y-71762648D01*
X170349500Y-71967352D01*
X170353878Y-71994995D01*
X170381522Y-72169534D01*
X170444781Y-72364223D01*
X170498678Y-72470000D01*
X170533522Y-72538385D01*
X170537715Y-72546613D01*
X170658028Y-72712213D01*
X170802786Y-72856971D01*
X170944679Y-72960060D01*
X170968390Y-72977287D01*
X171084607Y-73036503D01*
X171150776Y-73070218D01*
X171150778Y-73070218D01*
X171150781Y-73070220D01*
X171222919Y-73093659D01*
X171345465Y-73133477D01*
X171431281Y-73147069D01*
X171547648Y-73165500D01*
X171547649Y-73165500D01*
X171752351Y-73165500D01*
X171752352Y-73165500D01*
X171954534Y-73133477D01*
X172149219Y-73070220D01*
X172151924Y-73068842D01*
X172160445Y-73064500D01*
X172331610Y-72977287D01*
X172432200Y-72904205D01*
X172497213Y-72856971D01*
X172497215Y-72856968D01*
X172497219Y-72856966D01*
X172641966Y-72712219D01*
X172641968Y-72712215D01*
X172641971Y-72712213D01*
X172724089Y-72599185D01*
X172762287Y-72546610D01*
X172855220Y-72364219D01*
X172918477Y-72169534D01*
X172950500Y-71967352D01*
X172950500Y-71762648D01*
X172943745Y-71720000D01*
X172918477Y-71560465D01*
X172872300Y-71418349D01*
X172855220Y-71365781D01*
X172855218Y-71365778D01*
X172855218Y-71365776D01*
X172805073Y-71267362D01*
X172762287Y-71183390D01*
X172754556Y-71172749D01*
X172641971Y-71017786D01*
X172497213Y-70873028D01*
X172331613Y-70752715D01*
X172331612Y-70752714D01*
X172331610Y-70752713D01*
X172273156Y-70722929D01*
X172149223Y-70659781D01*
X171954534Y-70596522D01*
X171768584Y-70567071D01*
X171752352Y-70564500D01*
X171547648Y-70564500D01*
X171531416Y-70567071D01*
X171345465Y-70596522D01*
X171150776Y-70659781D01*
X170968386Y-70752715D01*
X170802786Y-70873028D01*
X170658028Y-71017786D01*
X170537715Y-71183386D01*
X170444781Y-71365776D01*
X170381522Y-71560465D01*
X170356255Y-71720000D01*
X170349500Y-71762648D01*
X138492338Y-71762648D01*
X138478156Y-71691353D01*
X138467619Y-71638380D01*
X138425318Y-71536258D01*
X138412930Y-71506349D01*
X138412925Y-71506340D01*
X138333532Y-71387521D01*
X138333529Y-71387517D01*
X138232482Y-71286470D01*
X138232478Y-71286467D01*
X138113659Y-71207074D01*
X138113650Y-71207069D01*
X137981620Y-71152381D01*
X137981614Y-71152379D01*
X137841457Y-71124500D01*
X137841455Y-71124500D01*
X137698545Y-71124500D01*
X137698543Y-71124500D01*
X137558385Y-71152379D01*
X137558375Y-71152382D01*
X137439168Y-71201759D01*
X137369699Y-71209228D01*
X137307220Y-71177952D01*
X137271568Y-71117863D01*
X137270099Y-71111390D01*
X137247620Y-70998385D01*
X137247619Y-70998384D01*
X137247619Y-70998380D01*
X137201315Y-70886592D01*
X137192930Y-70866349D01*
X137192925Y-70866340D01*
X137113532Y-70747521D01*
X137113529Y-70747517D01*
X137012482Y-70646470D01*
X137012478Y-70646467D01*
X136893659Y-70567074D01*
X136893650Y-70567069D01*
X136761620Y-70512381D01*
X136761614Y-70512379D01*
X136621457Y-70484500D01*
X136621455Y-70484500D01*
X136478545Y-70484500D01*
X136478543Y-70484500D01*
X136338385Y-70512379D01*
X136338379Y-70512381D01*
X136206349Y-70567069D01*
X136206340Y-70567074D01*
X136087521Y-70646467D01*
X136087517Y-70646470D01*
X135986470Y-70747517D01*
X135986467Y-70747521D01*
X135907074Y-70866340D01*
X135907069Y-70866349D01*
X135852381Y-70998379D01*
X135852379Y-70998385D01*
X135824500Y-71138542D01*
X135824500Y-71138545D01*
X135824500Y-71281455D01*
X135824500Y-71281457D01*
X135824499Y-71281457D01*
X125560638Y-71281457D01*
X125653653Y-71242929D01*
X125772479Y-71163532D01*
X125873532Y-71062479D01*
X125952929Y-70943653D01*
X126007619Y-70811620D01*
X126030227Y-70697963D01*
X126035500Y-70671457D01*
X126035500Y-70528542D01*
X126007620Y-70388385D01*
X126007619Y-70388384D01*
X126007619Y-70388380D01*
X125952929Y-70256347D01*
X125952928Y-70256346D01*
X125952925Y-70256340D01*
X125873532Y-70137521D01*
X125873529Y-70137517D01*
X125772482Y-70036470D01*
X125772478Y-70036467D01*
X125653659Y-69957074D01*
X125653649Y-69957069D01*
X125581242Y-69927077D01*
X125560818Y-69910618D01*
X125538217Y-69897308D01*
X125531632Y-69887098D01*
X125526839Y-69883236D01*
X125517993Y-69868383D01*
X125515913Y-69864261D01*
X125462929Y-69736347D01*
X125415651Y-69665591D01*
X125412249Y-69658849D01*
X125407243Y-69631616D01*
X125398971Y-69605196D01*
X125401017Y-69597737D01*
X125399619Y-69590130D01*
X125410130Y-69564515D01*
X125417455Y-69537816D01*
X125423208Y-69532647D01*
X125426145Y-69525492D01*
X125448838Y-69509625D01*
X125469434Y-69491125D01*
X125478097Y-69489167D01*
X125483407Y-69485456D01*
X125496851Y-69484931D01*
X125523188Y-69478982D01*
X127672522Y-69483145D01*
X127739521Y-69502960D01*
X127785174Y-69555852D01*
X127794983Y-69625030D01*
X127765835Y-69688529D01*
X127759968Y-69694820D01*
X127757267Y-69697521D01*
X127677874Y-69816340D01*
X127677869Y-69816349D01*
X127623181Y-69948379D01*
X127623179Y-69948385D01*
X127595300Y-70088542D01*
X127595300Y-70088545D01*
X127595300Y-70231455D01*
X127595300Y-70231457D01*
X127595299Y-70231457D01*
X127623179Y-70371614D01*
X127623181Y-70371620D01*
X127677869Y-70503650D01*
X127677874Y-70503659D01*
X127757267Y-70622478D01*
X127757270Y-70622482D01*
X127858317Y-70723529D01*
X127858321Y-70723532D01*
X127977140Y-70802925D01*
X127977149Y-70802930D01*
X127983653Y-70805624D01*
X128109180Y-70857619D01*
X128109184Y-70857619D01*
X128109185Y-70857620D01*
X128249342Y-70885500D01*
X128249345Y-70885500D01*
X128392257Y-70885500D01*
X128488577Y-70866340D01*
X128532420Y-70857619D01*
X128664453Y-70802929D01*
X128783279Y-70723532D01*
X128884332Y-70622479D01*
X128963729Y-70503653D01*
X129018419Y-70371620D01*
X129046300Y-70231455D01*
X129046300Y-70088545D01*
X129046300Y-70088542D01*
X129018420Y-69948385D01*
X129018419Y-69948384D01*
X129018419Y-69948380D01*
X128963729Y-69816347D01*
X128963728Y-69816346D01*
X128963725Y-69816340D01*
X128884332Y-69697521D01*
X128884329Y-69697517D01*
X128884156Y-69697344D01*
X128884094Y-69697230D01*
X128880467Y-69692811D01*
X128881305Y-69692123D01*
X128850671Y-69636021D01*
X128855655Y-69566329D01*
X128897527Y-69510396D01*
X128962991Y-69485979D01*
X128972069Y-69485663D01*
X139101855Y-69505286D01*
X139168856Y-69525101D01*
X139214509Y-69577993D01*
X139224318Y-69647171D01*
X139195170Y-69710670D01*
X139136319Y-69748331D01*
X139125809Y-69750903D01*
X139118383Y-69752380D01*
X139118379Y-69752381D01*
X138986349Y-69807069D01*
X138986340Y-69807074D01*
X138867521Y-69886467D01*
X138867517Y-69886470D01*
X138766470Y-69987517D01*
X138766467Y-69987521D01*
X138687074Y-70106340D01*
X138687069Y-70106349D01*
X138632381Y-70238379D01*
X138632379Y-70238385D01*
X138604500Y-70378542D01*
X138604500Y-70378545D01*
X138604500Y-70521455D01*
X138604500Y-70521457D01*
X138604499Y-70521457D01*
X138632379Y-70661614D01*
X138632381Y-70661620D01*
X138687069Y-70793650D01*
X138687074Y-70793659D01*
X138766467Y-70912478D01*
X138766470Y-70912482D01*
X138867517Y-71013529D01*
X138867521Y-71013532D01*
X138986340Y-71092925D01*
X138986346Y-71092928D01*
X138986347Y-71092929D01*
X139118380Y-71147619D01*
X139118384Y-71147619D01*
X139118385Y-71147620D01*
X139258542Y-71175500D01*
X139258545Y-71175500D01*
X139401457Y-71175500D01*
X139517690Y-71152379D01*
X139541620Y-71147619D01*
X139673653Y-71092929D01*
X139792479Y-71013532D01*
X139893532Y-70912479D01*
X139972929Y-70793653D01*
X140027619Y-70661620D01*
X140046938Y-70564500D01*
X140055500Y-70521457D01*
X140055500Y-70378542D01*
X140027620Y-70238385D01*
X140027619Y-70238384D01*
X140027619Y-70238380D01*
X139972929Y-70106347D01*
X139972928Y-70106346D01*
X139972925Y-70106340D01*
X139893532Y-69987521D01*
X139893529Y-69987517D01*
X139792482Y-69886470D01*
X139792478Y-69886467D01*
X139673659Y-69807074D01*
X139673650Y-69807069D01*
X139541620Y-69752381D01*
X139541615Y-69752380D01*
X139538676Y-69751795D01*
X139537279Y-69751064D01*
X139535788Y-69750612D01*
X139535873Y-69750328D01*
X139476767Y-69719405D01*
X139442197Y-69658687D01*
X139445942Y-69588917D01*
X139486813Y-69532248D01*
X139551833Y-69506672D01*
X139563101Y-69506179D01*
X171240520Y-69567543D01*
X171242379Y-69567547D01*
X171242851Y-69567674D01*
X171305495Y-69567674D01*
X171305521Y-69567681D01*
X171312200Y-69567868D01*
X171587025Y-69583307D01*
X171600829Y-69584863D01*
X171868753Y-69630388D01*
X171882304Y-69633482D01*
X172143428Y-69708714D01*
X172156549Y-69713306D01*
X172407623Y-69817308D01*
X172420152Y-69823341D01*
X172528520Y-69883236D01*
X172657985Y-69954790D01*
X172669757Y-69962187D01*
X172891398Y-70119452D01*
X172902248Y-70128104D01*
X173104888Y-70309196D01*
X173114715Y-70319023D01*
X173295804Y-70521663D01*
X173304463Y-70532521D01*
X173349875Y-70596523D01*
X173461722Y-70754158D01*
X173469119Y-70765931D01*
X173600571Y-71003773D01*
X173606605Y-71016302D01*
X173685624Y-71207071D01*
X173710598Y-71267362D01*
X173715189Y-71280484D01*
X173780259Y-71506340D01*
X173790424Y-71541622D01*
X173793518Y-71555179D01*
X173839038Y-71823086D01*
X173840595Y-71836903D01*
X173856056Y-72112172D01*
X173856251Y-72119143D01*
X173852913Y-95920233D01*
X173852912Y-95928993D01*
X173852901Y-95929036D01*
X173852902Y-95986681D01*
X173852902Y-95991472D01*
X173852901Y-95991474D01*
X173852707Y-95998402D01*
X173837282Y-96273207D01*
X173835725Y-96287026D01*
X173790211Y-96554936D01*
X173787117Y-96568493D01*
X173711893Y-96829619D01*
X173707301Y-96842745D01*
X173603306Y-97093820D01*
X173597272Y-97106349D01*
X173465827Y-97344185D01*
X173458429Y-97355959D01*
X173301174Y-97577594D01*
X173292503Y-97588467D01*
X173111422Y-97791096D01*
X173101590Y-97800929D01*
X172898956Y-97982013D01*
X172888083Y-97990683D01*
X172666464Y-98147927D01*
X172654690Y-98155325D01*
X172416835Y-98286779D01*
X172404306Y-98292813D01*
X172153236Y-98396804D01*
X172140118Y-98401394D01*
X171878993Y-98476617D01*
X171865436Y-98479711D01*
X171597509Y-98525227D01*
X171583690Y-98526783D01*
X171308716Y-98542217D01*
X171301907Y-98542412D01*
X171301077Y-98542412D01*
X171239527Y-98542412D01*
X171239261Y-98542482D01*
X171230987Y-98542492D01*
X171230985Y-98542491D01*
X171230980Y-98542492D01*
X141774516Y-98573977D01*
X141707455Y-98554364D01*
X141661644Y-98501609D01*
X141651626Y-98432461D01*
X141671281Y-98381085D01*
X141671448Y-98380835D01*
X141682929Y-98363653D01*
X141737619Y-98231620D01*
X141761549Y-98111319D01*
X141765500Y-98091457D01*
X141765500Y-97948542D01*
X141737620Y-97808385D01*
X141737619Y-97808384D01*
X141737619Y-97808380D01*
X141682929Y-97676347D01*
X141682928Y-97676346D01*
X141682925Y-97676340D01*
X141620818Y-97583391D01*
X141599940Y-97516714D01*
X141618424Y-97449333D01*
X141670403Y-97402643D01*
X141723920Y-97390500D01*
X141796457Y-97390500D01*
X141922136Y-97365500D01*
X141936620Y-97362619D01*
X142068653Y-97307929D01*
X142187479Y-97228532D01*
X142288532Y-97127479D01*
X142367929Y-97008653D01*
X142422619Y-96876620D01*
X142439491Y-96791799D01*
X142450500Y-96736457D01*
X142450500Y-96593542D01*
X142439246Y-96536968D01*
X142439246Y-96536967D01*
X142435403Y-96517648D01*
X151309500Y-96517648D01*
X151309500Y-96722351D01*
X151341522Y-96924534D01*
X151404781Y-97119223D01*
X151444727Y-97197620D01*
X151494090Y-97294500D01*
X151497715Y-97301613D01*
X151618028Y-97467213D01*
X151762786Y-97611971D01*
X151851397Y-97676349D01*
X151928390Y-97732287D01*
X152043809Y-97791096D01*
X152110776Y-97825218D01*
X152110778Y-97825218D01*
X152110781Y-97825220D01*
X152181996Y-97848359D01*
X152305465Y-97888477D01*
X152406557Y-97904488D01*
X152507648Y-97920500D01*
X152507649Y-97920500D01*
X152712351Y-97920500D01*
X152712352Y-97920500D01*
X152914534Y-97888477D01*
X153109219Y-97825220D01*
X153109561Y-97825046D01*
X153131640Y-97813796D01*
X153291610Y-97732287D01*
X153423656Y-97636351D01*
X153457213Y-97611971D01*
X153457215Y-97611968D01*
X153457219Y-97611966D01*
X153601966Y-97467219D01*
X153676568Y-97364536D01*
X153731898Y-97321870D01*
X153801511Y-97315891D01*
X153863306Y-97348496D01*
X153897664Y-97409334D01*
X153900177Y-97424166D01*
X153905909Y-97477483D01*
X153956202Y-97612328D01*
X153956206Y-97612335D01*
X154042452Y-97727544D01*
X154042455Y-97727547D01*
X154157664Y-97813793D01*
X154157671Y-97813797D01*
X154292517Y-97864091D01*
X154292516Y-97864091D01*
X154299444Y-97864835D01*
X154352127Y-97870500D01*
X155947872Y-97870499D01*
X156007483Y-97864091D01*
X156142331Y-97813796D01*
X156257546Y-97727546D01*
X156343796Y-97612331D01*
X156394091Y-97477483D01*
X156399823Y-97424162D01*
X156426560Y-97359615D01*
X156483952Y-97319767D01*
X156553777Y-97317273D01*
X156613866Y-97352925D01*
X156623430Y-97364536D01*
X156698028Y-97467212D01*
X156698032Y-97467217D01*
X156842786Y-97611971D01*
X156931397Y-97676349D01*
X157008390Y-97732287D01*
X157123809Y-97791096D01*
X157190776Y-97825218D01*
X157190778Y-97825218D01*
X157190781Y-97825220D01*
X157261996Y-97848359D01*
X157385465Y-97888477D01*
X157486557Y-97904488D01*
X157587648Y-97920500D01*
X157587649Y-97920500D01*
X157792351Y-97920500D01*
X157792352Y-97920500D01*
X157994534Y-97888477D01*
X158189219Y-97825220D01*
X158189561Y-97825046D01*
X158211640Y-97813796D01*
X158371610Y-97732287D01*
X158503656Y-97636351D01*
X158537213Y-97611971D01*
X158537215Y-97611968D01*
X158537219Y-97611966D01*
X158681966Y-97467219D01*
X158802287Y-97301610D01*
X158817546Y-97271661D01*
X158865518Y-97220867D01*
X158933339Y-97204071D01*
X158952222Y-97206340D01*
X159048542Y-97225500D01*
X159048545Y-97225500D01*
X159191457Y-97225500D01*
X159299184Y-97204071D01*
X159331620Y-97197619D01*
X159463653Y-97142929D01*
X159582479Y-97063532D01*
X159683532Y-96962479D01*
X159762929Y-96843653D01*
X159817619Y-96711620D01*
X159838761Y-96605333D01*
X159845500Y-96571457D01*
X159845500Y-96428542D01*
X159817620Y-96288385D01*
X159817619Y-96288384D01*
X159817619Y-96288380D01*
X159775318Y-96186258D01*
X159762930Y-96156349D01*
X159762925Y-96156340D01*
X159684709Y-96039282D01*
X159684707Y-96039280D01*
X159683532Y-96037521D01*
X159633460Y-95987449D01*
X159633197Y-95987183D01*
X159619979Y-95962648D01*
X170349500Y-95962648D01*
X170349500Y-96167351D01*
X170381522Y-96369534D01*
X170444781Y-96564223D01*
X170502086Y-96676689D01*
X170535608Y-96742479D01*
X170537715Y-96746613D01*
X170658028Y-96912213D01*
X170802786Y-97056971D01*
X170921101Y-97142930D01*
X170968390Y-97177287D01*
X171068958Y-97228529D01*
X171150776Y-97270218D01*
X171150778Y-97270218D01*
X171150781Y-97270220D01*
X171247399Y-97301613D01*
X171345465Y-97333477D01*
X171421375Y-97345500D01*
X171547648Y-97365500D01*
X171547649Y-97365500D01*
X171752351Y-97365500D01*
X171752352Y-97365500D01*
X171954534Y-97333477D01*
X172149219Y-97270220D01*
X172331610Y-97177287D01*
X172437642Y-97100251D01*
X172497213Y-97056971D01*
X172497215Y-97056968D01*
X172497219Y-97056966D01*
X172641966Y-96912219D01*
X172641968Y-96912215D01*
X172641971Y-96912213D01*
X172701978Y-96829619D01*
X172762287Y-96746610D01*
X172855220Y-96564219D01*
X172918477Y-96369534D01*
X172950500Y-96167352D01*
X172950500Y-95962648D01*
X172945176Y-95929036D01*
X172918477Y-95760465D01*
X172880521Y-95643650D01*
X172855220Y-95565781D01*
X172855218Y-95565778D01*
X172855218Y-95565776D01*
X172810703Y-95478411D01*
X172762287Y-95383390D01*
X172752195Y-95369500D01*
X172641971Y-95217786D01*
X172497213Y-95073028D01*
X172331613Y-94952715D01*
X172331612Y-94952714D01*
X172331610Y-94952713D01*
X172274653Y-94923691D01*
X172149223Y-94859781D01*
X171954534Y-94796522D01*
X171779995Y-94768878D01*
X171752352Y-94764500D01*
X171547648Y-94764500D01*
X171523329Y-94768351D01*
X171345465Y-94796522D01*
X171150776Y-94859781D01*
X170968386Y-94952715D01*
X170802786Y-95073028D01*
X170658028Y-95217786D01*
X170537715Y-95383386D01*
X170444781Y-95565776D01*
X170381522Y-95760465D01*
X170349500Y-95962648D01*
X159619979Y-95962648D01*
X159616740Y-95956635D01*
X159600208Y-95926358D01*
X159600234Y-95925994D01*
X159600060Y-95925671D01*
X159602723Y-95891179D01*
X159605192Y-95856666D01*
X159605416Y-95856317D01*
X159605440Y-95856009D01*
X159606589Y-95854490D01*
X159633693Y-95812319D01*
X159683529Y-95762482D01*
X159683532Y-95762479D01*
X159762929Y-95643653D01*
X159817619Y-95511620D01*
X159829741Y-95450679D01*
X159845500Y-95371457D01*
X159845500Y-95228542D01*
X159817620Y-95088385D01*
X159817619Y-95088384D01*
X159817619Y-95088380D01*
X159762929Y-94956347D01*
X159762928Y-94956346D01*
X159762925Y-94956340D01*
X159683532Y-94837521D01*
X159683529Y-94837517D01*
X159607469Y-94761457D01*
X160624499Y-94761457D01*
X160652379Y-94901614D01*
X160652381Y-94901620D01*
X160707069Y-95033650D01*
X160707074Y-95033659D01*
X160786467Y-95152478D01*
X160786470Y-95152482D01*
X160887517Y-95253529D01*
X160887521Y-95253532D01*
X161006340Y-95332925D01*
X161006346Y-95332928D01*
X161006347Y-95332929D01*
X161138380Y-95387619D01*
X161138384Y-95387619D01*
X161138385Y-95387620D01*
X161278542Y-95415500D01*
X161278545Y-95415500D01*
X161421457Y-95415500D01*
X161536378Y-95392640D01*
X161561620Y-95387619D01*
X161693653Y-95332929D01*
X161812479Y-95253532D01*
X161913532Y-95152479D01*
X161992929Y-95033653D01*
X162047619Y-94901620D01*
X162061901Y-94829823D01*
X162075500Y-94761457D01*
X162075500Y-94618542D01*
X162047620Y-94478385D01*
X162047619Y-94478384D01*
X162047619Y-94478380D01*
X161992929Y-94346347D01*
X161992928Y-94346346D01*
X161992925Y-94346340D01*
X161913532Y-94227521D01*
X161913529Y-94227517D01*
X161812482Y-94126470D01*
X161812478Y-94126467D01*
X161693659Y-94047074D01*
X161693650Y-94047069D01*
X161561620Y-93992381D01*
X161561614Y-93992379D01*
X161421457Y-93964500D01*
X161421455Y-93964500D01*
X161278545Y-93964500D01*
X161278543Y-93964500D01*
X161138385Y-93992379D01*
X161138379Y-93992381D01*
X161006349Y-94047069D01*
X161006340Y-94047074D01*
X160887521Y-94126467D01*
X160887517Y-94126470D01*
X160786470Y-94227517D01*
X160786467Y-94227521D01*
X160707074Y-94346340D01*
X160707069Y-94346349D01*
X160652381Y-94478379D01*
X160652379Y-94478385D01*
X160624500Y-94618542D01*
X160624500Y-94618545D01*
X160624500Y-94761455D01*
X160624500Y-94761457D01*
X160624499Y-94761457D01*
X159607469Y-94761457D01*
X159582482Y-94736470D01*
X159582478Y-94736467D01*
X159551181Y-94715555D01*
X159463659Y-94657074D01*
X159463650Y-94657069D01*
X159331620Y-94602381D01*
X159331614Y-94602379D01*
X159191457Y-94574500D01*
X159191455Y-94574500D01*
X159048545Y-94574500D01*
X159048543Y-94574500D01*
X158908385Y-94602379D01*
X158908379Y-94602381D01*
X158776349Y-94657069D01*
X158776340Y-94657074D01*
X158657521Y-94736467D01*
X158657517Y-94736470D01*
X158556470Y-94837517D01*
X158556467Y-94837521D01*
X158477074Y-94956340D01*
X158477069Y-94956349D01*
X158422381Y-95088379D01*
X158422379Y-95088385D01*
X158394500Y-95228542D01*
X158394500Y-95317025D01*
X158374815Y-95384064D01*
X158322011Y-95429819D01*
X158252853Y-95439763D01*
X158214208Y-95427511D01*
X158189226Y-95414783D01*
X158189222Y-95414782D01*
X158189219Y-95414780D01*
X158092611Y-95383390D01*
X157994534Y-95351522D01*
X157819995Y-95323878D01*
X157792352Y-95319500D01*
X157587648Y-95319500D01*
X157563329Y-95323351D01*
X157385465Y-95351522D01*
X157190776Y-95414781D01*
X157008386Y-95507715D01*
X156842786Y-95628028D01*
X156698032Y-95772782D01*
X156698028Y-95772787D01*
X156623430Y-95875463D01*
X156568100Y-95918129D01*
X156498487Y-95924108D01*
X156436692Y-95891502D01*
X156402334Y-95830664D01*
X156399822Y-95815831D01*
X156399444Y-95812319D01*
X156395195Y-95772786D01*
X156394091Y-95762516D01*
X156343797Y-95627671D01*
X156343793Y-95627664D01*
X156257547Y-95512455D01*
X156257544Y-95512452D01*
X156142335Y-95426206D01*
X156142328Y-95426202D01*
X156007482Y-95375908D01*
X156007483Y-95375908D01*
X155947883Y-95369501D01*
X155947881Y-95369500D01*
X155947873Y-95369500D01*
X155947864Y-95369500D01*
X154352129Y-95369500D01*
X154352123Y-95369501D01*
X154292516Y-95375908D01*
X154157671Y-95426202D01*
X154157664Y-95426206D01*
X154042455Y-95512452D01*
X154042452Y-95512455D01*
X153956206Y-95627664D01*
X153956202Y-95627671D01*
X153905908Y-95762516D01*
X153900176Y-95815834D01*
X153873438Y-95880385D01*
X153816045Y-95920233D01*
X153746220Y-95922726D01*
X153686131Y-95887073D01*
X153676569Y-95875463D01*
X153601971Y-95772786D01*
X153457213Y-95628028D01*
X153291613Y-95507715D01*
X153291612Y-95507714D01*
X153291610Y-95507713D01*
X153224189Y-95473360D01*
X153109223Y-95414781D01*
X152914534Y-95351522D01*
X152739995Y-95323878D01*
X152712352Y-95319500D01*
X152507648Y-95319500D01*
X152483329Y-95323351D01*
X152305465Y-95351522D01*
X152110776Y-95414781D01*
X151928386Y-95507715D01*
X151762786Y-95628028D01*
X151618028Y-95772786D01*
X151497715Y-95938386D01*
X151404781Y-96120776D01*
X151341522Y-96315465D01*
X151309500Y-96517648D01*
X142435403Y-96517648D01*
X142432859Y-96504860D01*
X142422619Y-96453380D01*
X142367929Y-96321347D01*
X142367928Y-96321346D01*
X142367925Y-96321340D01*
X142288532Y-96202521D01*
X142288529Y-96202517D01*
X142187482Y-96101470D01*
X142187478Y-96101467D01*
X142068659Y-96022074D01*
X142068650Y-96022069D01*
X141936620Y-95967381D01*
X141936614Y-95967379D01*
X141796457Y-95939500D01*
X141796455Y-95939500D01*
X141653545Y-95939500D01*
X141653543Y-95939500D01*
X141513385Y-95967379D01*
X141513379Y-95967381D01*
X141381349Y-96022069D01*
X141381340Y-96022074D01*
X141262521Y-96101467D01*
X141262517Y-96101470D01*
X141161470Y-96202517D01*
X141161467Y-96202521D01*
X141082074Y-96321340D01*
X141082069Y-96321349D01*
X141027381Y-96453379D01*
X141027380Y-96453382D01*
X141016346Y-96508850D01*
X140983959Y-96570760D01*
X140923243Y-96605333D01*
X140853473Y-96601592D01*
X140796802Y-96560724D01*
X140780168Y-96532108D01*
X140752932Y-96466352D01*
X140752925Y-96466340D01*
X140673532Y-96347521D01*
X140673529Y-96347517D01*
X140572482Y-96246470D01*
X140572478Y-96246467D01*
X140453659Y-96167074D01*
X140453650Y-96167069D01*
X140321620Y-96112381D01*
X140321614Y-96112379D01*
X140181457Y-96084500D01*
X140181455Y-96084500D01*
X140077150Y-96084500D01*
X140010111Y-96064815D01*
X139964356Y-96012011D01*
X139962589Y-96007952D01*
X139932932Y-95936353D01*
X139932925Y-95936340D01*
X139853532Y-95817521D01*
X139853529Y-95817517D01*
X139752482Y-95716470D01*
X139752478Y-95716467D01*
X139633659Y-95637074D01*
X139633650Y-95637069D01*
X139501620Y-95582381D01*
X139501614Y-95582379D01*
X139361457Y-95554500D01*
X139361455Y-95554500D01*
X139218545Y-95554500D01*
X139218540Y-95554500D01*
X139159610Y-95566222D01*
X139090018Y-95559995D01*
X139034841Y-95517131D01*
X139020858Y-95492058D01*
X139019996Y-95489978D01*
X138993581Y-95426206D01*
X138972930Y-95376349D01*
X138972925Y-95376340D01*
X138893532Y-95257521D01*
X138893529Y-95257517D01*
X138792482Y-95156470D01*
X138792478Y-95156467D01*
X138673659Y-95077074D01*
X138673650Y-95077069D01*
X138541620Y-95022381D01*
X138541614Y-95022379D01*
X138401457Y-94994500D01*
X138401455Y-94994500D01*
X138258545Y-94994500D01*
X138258543Y-94994500D01*
X138118385Y-95022379D01*
X138118379Y-95022381D01*
X137986349Y-95077069D01*
X137986340Y-95077074D01*
X137867521Y-95156467D01*
X137867517Y-95156470D01*
X137766470Y-95257517D01*
X137766467Y-95257521D01*
X137687074Y-95376340D01*
X137687069Y-95376349D01*
X137632381Y-95508379D01*
X137632379Y-95508385D01*
X137604500Y-95648542D01*
X137604500Y-95791456D01*
X137607480Y-95806439D01*
X137605042Y-95833670D01*
X137606089Y-95860982D01*
X137601973Y-95867959D01*
X137601251Y-95876031D01*
X137584478Y-95897621D01*
X137570593Y-95921163D01*
X137561774Y-95926846D01*
X137558387Y-95931207D01*
X137541654Y-95941368D01*
X137537551Y-95943434D01*
X137456347Y-95977071D01*
X137412080Y-96006648D01*
X137405292Y-96010069D01*
X137378095Y-96015048D01*
X137351712Y-96023309D01*
X137344213Y-96021251D01*
X137336565Y-96022652D01*
X137310997Y-96012139D01*
X137284332Y-96004824D01*
X137279135Y-95999038D01*
X137271945Y-95996082D01*
X137256120Y-95973416D01*
X137237642Y-95952844D01*
X137235660Y-95944110D01*
X137231948Y-95938793D01*
X137231438Y-95925504D01*
X137225500Y-95899329D01*
X137225500Y-95878542D01*
X137197620Y-95738385D01*
X137197619Y-95738384D01*
X137197619Y-95738380D01*
X137142929Y-95606347D01*
X137142928Y-95606346D01*
X137142925Y-95606340D01*
X137063532Y-95487521D01*
X137063529Y-95487517D01*
X136962482Y-95386470D01*
X136962478Y-95386467D01*
X136843659Y-95307074D01*
X136843650Y-95307069D01*
X136711620Y-95252381D01*
X136711614Y-95252379D01*
X136571457Y-95224500D01*
X136571455Y-95224500D01*
X136428545Y-95224500D01*
X136428543Y-95224500D01*
X136288385Y-95252379D01*
X136288379Y-95252381D01*
X136156349Y-95307069D01*
X136156340Y-95307074D01*
X136037521Y-95386467D01*
X136037517Y-95386470D01*
X135936470Y-95487517D01*
X135936467Y-95487521D01*
X135857074Y-95606340D01*
X135857069Y-95606349D01*
X135802381Y-95738379D01*
X135802379Y-95738385D01*
X135774500Y-95878542D01*
X135774500Y-95878545D01*
X135774500Y-96021455D01*
X135774500Y-96021457D01*
X135774499Y-96021457D01*
X135802379Y-96161614D01*
X135802382Y-96161624D01*
X135844243Y-96262686D01*
X135851712Y-96332155D01*
X135820436Y-96394634D01*
X135760347Y-96430286D01*
X135690522Y-96427792D01*
X135668416Y-96417945D01*
X134123141Y-95539775D01*
X134123141Y-95539776D01*
X134122724Y-95539539D01*
X134067109Y-95507444D01*
X134065479Y-95507007D01*
X134064014Y-95506175D01*
X134064005Y-95506172D01*
X134064004Y-95506172D01*
X134002208Y-95490063D01*
X134002208Y-95490064D01*
X134001839Y-95489967D01*
X133939808Y-95473360D01*
X133938121Y-95473360D01*
X133936490Y-95472935D01*
X133936487Y-95472935D01*
X133872714Y-95473369D01*
X133871895Y-95473372D01*
X107701349Y-95478409D01*
X107690320Y-95477920D01*
X107408514Y-95452811D01*
X107394159Y-95450679D01*
X107116368Y-95392640D01*
X107102362Y-95388846D01*
X106833263Y-95298754D01*
X106819795Y-95293350D01*
X106563047Y-95172428D01*
X106550307Y-95165489D01*
X106328220Y-95027098D01*
X106309445Y-95015399D01*
X106297599Y-95007016D01*
X106165743Y-94901614D01*
X106075932Y-94829821D01*
X106065148Y-94820114D01*
X105865691Y-94618224D01*
X105856126Y-94607336D01*
X105681622Y-94383527D01*
X105673386Y-94371585D01*
X105658076Y-94346340D01*
X105526227Y-94128924D01*
X105519441Y-94116097D01*
X105444323Y-93951457D01*
X164214499Y-93951457D01*
X164242379Y-94091614D01*
X164242381Y-94091620D01*
X164297069Y-94223650D01*
X164297074Y-94223659D01*
X164376467Y-94342478D01*
X164376470Y-94342482D01*
X164477517Y-94443529D01*
X164477521Y-94443532D01*
X164596340Y-94522925D01*
X164596346Y-94522928D01*
X164596347Y-94522929D01*
X164728380Y-94577619D01*
X164728384Y-94577619D01*
X164728385Y-94577620D01*
X164868542Y-94605500D01*
X164868545Y-94605500D01*
X165011457Y-94605500D01*
X165105751Y-94586742D01*
X165151620Y-94577619D01*
X165283653Y-94522929D01*
X165402479Y-94443532D01*
X165503532Y-94342479D01*
X165582929Y-94223653D01*
X165637619Y-94091620D01*
X165665500Y-93951455D01*
X165665500Y-93808545D01*
X165665500Y-93808542D01*
X165637620Y-93668385D01*
X165637619Y-93668384D01*
X165637619Y-93668380D01*
X165582929Y-93536347D01*
X165582928Y-93536346D01*
X165582925Y-93536340D01*
X165503532Y-93417521D01*
X165503529Y-93417517D01*
X165402482Y-93316470D01*
X165402478Y-93316467D01*
X165283659Y-93237074D01*
X165283650Y-93237069D01*
X165151620Y-93182381D01*
X165151614Y-93182379D01*
X165011457Y-93154500D01*
X165011455Y-93154500D01*
X164868545Y-93154500D01*
X164868543Y-93154500D01*
X164728385Y-93182379D01*
X164728379Y-93182381D01*
X164596349Y-93237069D01*
X164596340Y-93237074D01*
X164477521Y-93316467D01*
X164477517Y-93316470D01*
X164376470Y-93417517D01*
X164376467Y-93417521D01*
X164297074Y-93536340D01*
X164297069Y-93536349D01*
X164242381Y-93668379D01*
X164242379Y-93668385D01*
X164214500Y-93808542D01*
X164214500Y-93808545D01*
X164214500Y-93951455D01*
X164214500Y-93951457D01*
X164214499Y-93951457D01*
X105444323Y-93951457D01*
X105401634Y-93857894D01*
X105396405Y-93844391D01*
X105309570Y-93574189D01*
X105305955Y-93560174D01*
X105251278Y-93281662D01*
X105249324Y-93267298D01*
X105229627Y-93011172D01*
X105229263Y-93002247D01*
X105228865Y-92917625D01*
X105217979Y-90601457D01*
X134664499Y-90601457D01*
X134692379Y-90741614D01*
X134692381Y-90741620D01*
X134747069Y-90873650D01*
X134747074Y-90873659D01*
X134826467Y-90992478D01*
X134826470Y-90992482D01*
X134927517Y-91093529D01*
X134927521Y-91093532D01*
X135046340Y-91172925D01*
X135046346Y-91172928D01*
X135046347Y-91172929D01*
X135178380Y-91227619D01*
X135178384Y-91227619D01*
X135178385Y-91227620D01*
X135318542Y-91255500D01*
X135318545Y-91255500D01*
X135461457Y-91255500D01*
X135555751Y-91236742D01*
X135601620Y-91227619D01*
X135733653Y-91172929D01*
X135852479Y-91093532D01*
X135953532Y-90992479D01*
X136032929Y-90873653D01*
X136087619Y-90741620D01*
X136115500Y-90601455D01*
X136115500Y-90491457D01*
X138954499Y-90491457D01*
X138982379Y-90631614D01*
X138982381Y-90631620D01*
X139037069Y-90763650D01*
X139037074Y-90763659D01*
X139116467Y-90882478D01*
X139116470Y-90882482D01*
X139217517Y-90983529D01*
X139217521Y-90983532D01*
X139336340Y-91062925D01*
X139336346Y-91062928D01*
X139336347Y-91062929D01*
X139468380Y-91117619D01*
X139468384Y-91117619D01*
X139468385Y-91117620D01*
X139608542Y-91145500D01*
X139608545Y-91145500D01*
X139751457Y-91145500D01*
X139845751Y-91126742D01*
X139891620Y-91117619D01*
X140023653Y-91062929D01*
X140142479Y-90983532D01*
X140243532Y-90882479D01*
X140322929Y-90763653D01*
X140377619Y-90631620D01*
X140387493Y-90581981D01*
X140405500Y-90491457D01*
X140405500Y-90348542D01*
X140377620Y-90208385D01*
X140377619Y-90208384D01*
X140377619Y-90208380D01*
X140322929Y-90076347D01*
X140322928Y-90076346D01*
X140322925Y-90076340D01*
X140243532Y-89957521D01*
X140243529Y-89957517D01*
X140241832Y-89955820D01*
X159444499Y-89955820D01*
X159472379Y-90095977D01*
X159472381Y-90095983D01*
X159527069Y-90228013D01*
X159527074Y-90228022D01*
X159606467Y-90346841D01*
X159606470Y-90346845D01*
X159707517Y-90447892D01*
X159707521Y-90447895D01*
X159826340Y-90527288D01*
X159826346Y-90527291D01*
X159826347Y-90527292D01*
X159958380Y-90581982D01*
X159958384Y-90581982D01*
X159958385Y-90581983D01*
X160098542Y-90609863D01*
X160098545Y-90609863D01*
X160241457Y-90609863D01*
X160335751Y-90591105D01*
X160381620Y-90581982D01*
X160513653Y-90527292D01*
X160632479Y-90447895D01*
X160733532Y-90346842D01*
X160812929Y-90228016D01*
X160867619Y-90095983D01*
X160892580Y-89970500D01*
X160895500Y-89955820D01*
X160895500Y-89812905D01*
X160867620Y-89672748D01*
X160867619Y-89672747D01*
X160867619Y-89672743D01*
X160812929Y-89540710D01*
X160812928Y-89540709D01*
X160812925Y-89540703D01*
X160733532Y-89421884D01*
X160733529Y-89421880D01*
X160632482Y-89320833D01*
X160632478Y-89320830D01*
X160513659Y-89241437D01*
X160513650Y-89241432D01*
X160381620Y-89186744D01*
X160381614Y-89186742D01*
X160241457Y-89158863D01*
X160241455Y-89158863D01*
X160098545Y-89158863D01*
X160098543Y-89158863D01*
X159958385Y-89186742D01*
X159958379Y-89186744D01*
X159826349Y-89241432D01*
X159826340Y-89241437D01*
X159707521Y-89320830D01*
X159707517Y-89320833D01*
X159606470Y-89421880D01*
X159606467Y-89421884D01*
X159527074Y-89540703D01*
X159527069Y-89540712D01*
X159472381Y-89672742D01*
X159472379Y-89672748D01*
X159444500Y-89812905D01*
X159444500Y-89812908D01*
X159444500Y-89955818D01*
X159444500Y-89955820D01*
X159444499Y-89955820D01*
X140241832Y-89955820D01*
X140142482Y-89856470D01*
X140142478Y-89856467D01*
X140023659Y-89777074D01*
X140023650Y-89777069D01*
X139891620Y-89722381D01*
X139891614Y-89722379D01*
X139751457Y-89694500D01*
X139751455Y-89694500D01*
X139608545Y-89694500D01*
X139608543Y-89694500D01*
X139468385Y-89722379D01*
X139468379Y-89722381D01*
X139336349Y-89777069D01*
X139336340Y-89777074D01*
X139217521Y-89856467D01*
X139217517Y-89856470D01*
X139116470Y-89957517D01*
X139116467Y-89957521D01*
X139037074Y-90076340D01*
X139037069Y-90076349D01*
X138982381Y-90208379D01*
X138982379Y-90208385D01*
X138954500Y-90348542D01*
X138954500Y-90348545D01*
X138954500Y-90491455D01*
X138954500Y-90491457D01*
X138954499Y-90491457D01*
X136115500Y-90491457D01*
X136115500Y-90458545D01*
X136115500Y-90458542D01*
X136097220Y-90366645D01*
X136087620Y-90318385D01*
X136087619Y-90318384D01*
X136087619Y-90318380D01*
X136045318Y-90216258D01*
X136032930Y-90186349D01*
X136032925Y-90186340D01*
X135953532Y-90067521D01*
X135953529Y-90067517D01*
X135852482Y-89966470D01*
X135852478Y-89966467D01*
X135733659Y-89887074D01*
X135733650Y-89887069D01*
X135601620Y-89832381D01*
X135601614Y-89832379D01*
X135461457Y-89804500D01*
X135461455Y-89804500D01*
X135318545Y-89804500D01*
X135318543Y-89804500D01*
X135178385Y-89832379D01*
X135178379Y-89832381D01*
X135046349Y-89887069D01*
X135046340Y-89887074D01*
X134927521Y-89966467D01*
X134927517Y-89966470D01*
X134826470Y-90067517D01*
X134826467Y-90067521D01*
X134747074Y-90186340D01*
X134747069Y-90186349D01*
X134692381Y-90318379D01*
X134692379Y-90318385D01*
X134664500Y-90458542D01*
X134664500Y-90458545D01*
X134664500Y-90601455D01*
X134664500Y-90601457D01*
X134664499Y-90601457D01*
X105217979Y-90601457D01*
X105208421Y-88567648D01*
X106429500Y-88567648D01*
X106429500Y-88772351D01*
X106461522Y-88974534D01*
X106524781Y-89169223D01*
X106561574Y-89241432D01*
X106602031Y-89320833D01*
X106617715Y-89351613D01*
X106738028Y-89517213D01*
X106882786Y-89661971D01*
X107037749Y-89774556D01*
X107048390Y-89782287D01*
X107146701Y-89832379D01*
X107230776Y-89875218D01*
X107230778Y-89875218D01*
X107230781Y-89875220D01*
X107335137Y-89909127D01*
X107425465Y-89938477D01*
X107526557Y-89954488D01*
X107627648Y-89970500D01*
X107627649Y-89970500D01*
X107832351Y-89970500D01*
X107832352Y-89970500D01*
X108034534Y-89938477D01*
X108229219Y-89875220D01*
X108411610Y-89782287D01*
X108504590Y-89714732D01*
X108577213Y-89661971D01*
X108577215Y-89661968D01*
X108577219Y-89661966D01*
X108721966Y-89517219D01*
X108721968Y-89517215D01*
X108721971Y-89517213D01*
X108791233Y-89421880D01*
X108842287Y-89351610D01*
X108935220Y-89169219D01*
X108998477Y-88974534D01*
X109030500Y-88772352D01*
X109030500Y-88581457D01*
X123749499Y-88581457D01*
X123777379Y-88721614D01*
X123777381Y-88721620D01*
X123832069Y-88853650D01*
X123832074Y-88853659D01*
X123911467Y-88972478D01*
X123911470Y-88972482D01*
X124012517Y-89073529D01*
X124012521Y-89073532D01*
X124131340Y-89152925D01*
X124131346Y-89152928D01*
X124131347Y-89152929D01*
X124263380Y-89207619D01*
X124263384Y-89207619D01*
X124263385Y-89207620D01*
X124403542Y-89235500D01*
X124403545Y-89235500D01*
X124546457Y-89235500D01*
X124640751Y-89216742D01*
X124686620Y-89207619D01*
X124818653Y-89152929D01*
X124937479Y-89073532D01*
X125038532Y-88972479D01*
X125117929Y-88853653D01*
X125172619Y-88721620D01*
X125200500Y-88581455D01*
X125200500Y-88438545D01*
X125200500Y-88438542D01*
X125172620Y-88298385D01*
X125172619Y-88298384D01*
X125172619Y-88298380D01*
X125117929Y-88166347D01*
X125117928Y-88166346D01*
X125117925Y-88166340D01*
X125038532Y-88047521D01*
X125038529Y-88047517D01*
X124937482Y-87946470D01*
X124937478Y-87946467D01*
X124818659Y-87867074D01*
X124818650Y-87867069D01*
X124686620Y-87812381D01*
X124686614Y-87812379D01*
X124546457Y-87784500D01*
X124546455Y-87784500D01*
X124403545Y-87784500D01*
X124403543Y-87784500D01*
X124263385Y-87812379D01*
X124263379Y-87812381D01*
X124131349Y-87867069D01*
X124131340Y-87867074D01*
X124012521Y-87946467D01*
X124012517Y-87946470D01*
X123911470Y-88047517D01*
X123911467Y-88047521D01*
X123832074Y-88166340D01*
X123832069Y-88166349D01*
X123777381Y-88298379D01*
X123777379Y-88298385D01*
X123749500Y-88438542D01*
X123749500Y-88438545D01*
X123749500Y-88581455D01*
X123749500Y-88581457D01*
X123749499Y-88581457D01*
X109030500Y-88581457D01*
X109030500Y-88567648D01*
X108998477Y-88365466D01*
X108935220Y-88170781D01*
X108935218Y-88170778D01*
X108935218Y-88170776D01*
X108901503Y-88104607D01*
X108842287Y-87988390D01*
X108811829Y-87946468D01*
X108721971Y-87822786D01*
X108577213Y-87678028D01*
X108411613Y-87557715D01*
X108411612Y-87557714D01*
X108411610Y-87557713D01*
X108354653Y-87528691D01*
X108229223Y-87464781D01*
X108034534Y-87401522D01*
X107859995Y-87373878D01*
X107832352Y-87369500D01*
X107627648Y-87369500D01*
X107603329Y-87373351D01*
X107425465Y-87401522D01*
X107230776Y-87464781D01*
X107048386Y-87557715D01*
X106882786Y-87678028D01*
X106738028Y-87822786D01*
X106617715Y-87988386D01*
X106524781Y-88170776D01*
X106461522Y-88365465D01*
X106429500Y-88567648D01*
X105208421Y-88567648D01*
X105193009Y-85288457D01*
X124274499Y-85288457D01*
X124302379Y-85428614D01*
X124302381Y-85428620D01*
X124357069Y-85560650D01*
X124357074Y-85560659D01*
X124436467Y-85679478D01*
X124436470Y-85679482D01*
X124537517Y-85780529D01*
X124537521Y-85780532D01*
X124656340Y-85859925D01*
X124656349Y-85859930D01*
X124794008Y-85916950D01*
X124793348Y-85918542D01*
X124844921Y-85952328D01*
X124873388Y-86016136D01*
X124874500Y-86032707D01*
X124874500Y-86071455D01*
X124874500Y-86071457D01*
X124874499Y-86071457D01*
X124902379Y-86211614D01*
X124902381Y-86211620D01*
X124957069Y-86343650D01*
X124957074Y-86343659D01*
X125036467Y-86462478D01*
X125036470Y-86462482D01*
X125137517Y-86563529D01*
X125137521Y-86563532D01*
X125256340Y-86642925D01*
X125256346Y-86642928D01*
X125256347Y-86642929D01*
X125388380Y-86697619D01*
X125388384Y-86697619D01*
X125388385Y-86697620D01*
X125528542Y-86725500D01*
X125528545Y-86725500D01*
X125671457Y-86725500D01*
X125765751Y-86706742D01*
X125811620Y-86697619D01*
X125943653Y-86642929D01*
X126062479Y-86563532D01*
X126163532Y-86462479D01*
X126242929Y-86343653D01*
X126290730Y-86228250D01*
X126334571Y-86173847D01*
X126400865Y-86151782D01*
X126452742Y-86161141D01*
X126468380Y-86167619D01*
X126468384Y-86167619D01*
X126468385Y-86167620D01*
X126608542Y-86195500D01*
X126608545Y-86195500D01*
X126751457Y-86195500D01*
X126860310Y-86173847D01*
X126891620Y-86167619D01*
X127023653Y-86112929D01*
X127142479Y-86033532D01*
X127224554Y-85951457D01*
X161094499Y-85951457D01*
X161122379Y-86091614D01*
X161122381Y-86091620D01*
X161177069Y-86223650D01*
X161177074Y-86223659D01*
X161256467Y-86342478D01*
X161256470Y-86342482D01*
X161357517Y-86443529D01*
X161357521Y-86443532D01*
X161476340Y-86522925D01*
X161476346Y-86522928D01*
X161476347Y-86522929D01*
X161608380Y-86577619D01*
X161608384Y-86577619D01*
X161608385Y-86577620D01*
X161748542Y-86605500D01*
X161748545Y-86605500D01*
X161891457Y-86605500D01*
X161985751Y-86586742D01*
X162031620Y-86577619D01*
X162163653Y-86522929D01*
X162282479Y-86443532D01*
X162383532Y-86342479D01*
X162462929Y-86223653D01*
X162517619Y-86091620D01*
X162537998Y-85989172D01*
X162545500Y-85951457D01*
X162545500Y-85808542D01*
X162517620Y-85668385D01*
X162517619Y-85668384D01*
X162517619Y-85668380D01*
X162462929Y-85536347D01*
X162462928Y-85536346D01*
X162462925Y-85536340D01*
X162459459Y-85531153D01*
X165239500Y-85531153D01*
X165239500Y-85688846D01*
X165270261Y-85843489D01*
X165270264Y-85843501D01*
X165330602Y-85989172D01*
X165330609Y-85989185D01*
X165418210Y-86120288D01*
X165418213Y-86120292D01*
X165529707Y-86231786D01*
X165529711Y-86231789D01*
X165660814Y-86319390D01*
X165660827Y-86319397D01*
X165719402Y-86343659D01*
X165806503Y-86379737D01*
X165961153Y-86410499D01*
X165961156Y-86410500D01*
X165961158Y-86410500D01*
X166118844Y-86410500D01*
X166118845Y-86410499D01*
X166273497Y-86379737D01*
X166419179Y-86319394D01*
X166550289Y-86231789D01*
X166661789Y-86120289D01*
X166749394Y-85989179D01*
X166809737Y-85843497D01*
X166840500Y-85688842D01*
X166840500Y-85531158D01*
X166840500Y-85531155D01*
X166840499Y-85531153D01*
X166820104Y-85428620D01*
X166809737Y-85376503D01*
X166791937Y-85333529D01*
X166749397Y-85230827D01*
X166749390Y-85230814D01*
X166661789Y-85099711D01*
X166661786Y-85099707D01*
X166550292Y-84988213D01*
X166550288Y-84988210D01*
X166419185Y-84900609D01*
X166419172Y-84900602D01*
X166273501Y-84840264D01*
X166273489Y-84840261D01*
X166118845Y-84809500D01*
X166118842Y-84809500D01*
X165961158Y-84809500D01*
X165961155Y-84809500D01*
X165806510Y-84840261D01*
X165806498Y-84840264D01*
X165660827Y-84900602D01*
X165660814Y-84900609D01*
X165529711Y-84988210D01*
X165529707Y-84988213D01*
X165418213Y-85099707D01*
X165418210Y-85099711D01*
X165330609Y-85230814D01*
X165330602Y-85230827D01*
X165270264Y-85376498D01*
X165270261Y-85376510D01*
X165239500Y-85531153D01*
X162459459Y-85531153D01*
X162383532Y-85417521D01*
X162383529Y-85417517D01*
X162282482Y-85316470D01*
X162282478Y-85316467D01*
X162163659Y-85237074D01*
X162163650Y-85237069D01*
X162031620Y-85182381D01*
X162031614Y-85182379D01*
X161891457Y-85154500D01*
X161891455Y-85154500D01*
X161748545Y-85154500D01*
X161748543Y-85154500D01*
X161608385Y-85182379D01*
X161608379Y-85182381D01*
X161476349Y-85237069D01*
X161476340Y-85237074D01*
X161357521Y-85316467D01*
X161357517Y-85316470D01*
X161256470Y-85417517D01*
X161256467Y-85417521D01*
X161177074Y-85536340D01*
X161177069Y-85536349D01*
X161122381Y-85668379D01*
X161122379Y-85668385D01*
X161094500Y-85808542D01*
X161094500Y-85808545D01*
X161094500Y-85951455D01*
X161094500Y-85951457D01*
X161094499Y-85951457D01*
X127224554Y-85951457D01*
X127243532Y-85932479D01*
X127322929Y-85813653D01*
X127377619Y-85681620D01*
X127401680Y-85560659D01*
X127405500Y-85541457D01*
X127405500Y-85398542D01*
X127377620Y-85258385D01*
X127377619Y-85258384D01*
X127377619Y-85258380D01*
X127322929Y-85126347D01*
X127322928Y-85126346D01*
X127322925Y-85126340D01*
X127243532Y-85007521D01*
X127243529Y-85007517D01*
X127142482Y-84906470D01*
X127142478Y-84906467D01*
X127023659Y-84827074D01*
X127023646Y-84827067D01*
X126975232Y-84807014D01*
X126975231Y-84807014D01*
X126891620Y-84772381D01*
X126891614Y-84772379D01*
X126751457Y-84744500D01*
X126751455Y-84744500D01*
X126608545Y-84744500D01*
X126608543Y-84744500D01*
X126468385Y-84772379D01*
X126468379Y-84772381D01*
X126336349Y-84827069D01*
X126336340Y-84827074D01*
X126217521Y-84906467D01*
X126217517Y-84906470D01*
X126116470Y-85007517D01*
X126116467Y-85007521D01*
X126037074Y-85126340D01*
X126037069Y-85126350D01*
X125989269Y-85241749D01*
X125984172Y-85248073D01*
X125982281Y-85255973D01*
X125962567Y-85274882D01*
X125945427Y-85296153D01*
X125937719Y-85298718D01*
X125931859Y-85304340D01*
X125905055Y-85309589D01*
X125879133Y-85318217D01*
X125869500Y-85316553D01*
X125863292Y-85317769D01*
X125832601Y-85310179D01*
X125828968Y-85309552D01*
X125828115Y-85309213D01*
X125811620Y-85302381D01*
X125810173Y-85302093D01*
X125803760Y-85299548D01*
X125780134Y-85281082D01*
X125755061Y-85264649D01*
X125752896Y-85259795D01*
X125748709Y-85256522D01*
X125738816Y-85228214D01*
X125726608Y-85200834D01*
X125725982Y-85191488D01*
X125725659Y-85190564D01*
X125725863Y-85189711D01*
X125725500Y-85184292D01*
X125725500Y-85145542D01*
X125697620Y-85005385D01*
X125697619Y-85005384D01*
X125697619Y-85005380D01*
X125642929Y-84873347D01*
X125642928Y-84873346D01*
X125642925Y-84873340D01*
X125563532Y-84754521D01*
X125563529Y-84754517D01*
X125507554Y-84698542D01*
X163544500Y-84698542D01*
X163544500Y-84841457D01*
X163572379Y-84981614D01*
X163572381Y-84981620D01*
X163627069Y-85113650D01*
X163627074Y-85113659D01*
X163706467Y-85232478D01*
X163706470Y-85232482D01*
X163807517Y-85333529D01*
X163807521Y-85333532D01*
X163926340Y-85412925D01*
X163926346Y-85412928D01*
X163926347Y-85412929D01*
X164058380Y-85467619D01*
X164058384Y-85467619D01*
X164058385Y-85467620D01*
X164198542Y-85495500D01*
X164198545Y-85495500D01*
X164341457Y-85495500D01*
X164435751Y-85476742D01*
X164481620Y-85467619D01*
X164613653Y-85412929D01*
X164732479Y-85333532D01*
X164833532Y-85232479D01*
X164912929Y-85113653D01*
X164967619Y-84981620D01*
X164995500Y-84841455D01*
X164995500Y-84698545D01*
X164995500Y-84698542D01*
X164967620Y-84558385D01*
X164967619Y-84558384D01*
X164967619Y-84558380D01*
X164912929Y-84426347D01*
X164912928Y-84426346D01*
X164912925Y-84426340D01*
X164833532Y-84307521D01*
X164833529Y-84307517D01*
X164732482Y-84206470D01*
X164732478Y-84206467D01*
X164613659Y-84127074D01*
X164613650Y-84127069D01*
X164481620Y-84072381D01*
X164481614Y-84072379D01*
X164341457Y-84044500D01*
X164341455Y-84044500D01*
X164198545Y-84044500D01*
X164198543Y-84044500D01*
X164058385Y-84072379D01*
X164058379Y-84072381D01*
X163926349Y-84127069D01*
X163926340Y-84127074D01*
X163807521Y-84206467D01*
X163807517Y-84206470D01*
X163706470Y-84307517D01*
X163706467Y-84307521D01*
X163627074Y-84426340D01*
X163627069Y-84426349D01*
X163572381Y-84558379D01*
X163572379Y-84558385D01*
X163544500Y-84698542D01*
X125507554Y-84698542D01*
X125462482Y-84653470D01*
X125462478Y-84653467D01*
X125343659Y-84574074D01*
X125343650Y-84574069D01*
X125211620Y-84519381D01*
X125211614Y-84519379D01*
X125071457Y-84491500D01*
X125071455Y-84491500D01*
X124928545Y-84491500D01*
X124928543Y-84491500D01*
X124788385Y-84519379D01*
X124788379Y-84519381D01*
X124656349Y-84574069D01*
X124656340Y-84574074D01*
X124537521Y-84653467D01*
X124537517Y-84653470D01*
X124436470Y-84754517D01*
X124436467Y-84754521D01*
X124357074Y-84873340D01*
X124357069Y-84873349D01*
X124302381Y-85005379D01*
X124302379Y-85005385D01*
X124274500Y-85145542D01*
X124274500Y-85145545D01*
X124274500Y-85288455D01*
X124274500Y-85288457D01*
X124274499Y-85288457D01*
X105193009Y-85288457D01*
X105185704Y-83734117D01*
X123574499Y-83734117D01*
X123602379Y-83874274D01*
X123602381Y-83874280D01*
X123657069Y-84006310D01*
X123657074Y-84006319D01*
X123736467Y-84125138D01*
X123736470Y-84125142D01*
X123837517Y-84226189D01*
X123837521Y-84226192D01*
X123956340Y-84305585D01*
X123956349Y-84305590D01*
X123961011Y-84307521D01*
X124088380Y-84360279D01*
X124088384Y-84360279D01*
X124088385Y-84360280D01*
X124228542Y-84388160D01*
X124228545Y-84388160D01*
X124371457Y-84388160D01*
X124465751Y-84369402D01*
X124511620Y-84360279D01*
X124643653Y-84305589D01*
X124762479Y-84226192D01*
X124825357Y-84163313D01*
X124886676Y-84129830D01*
X124937228Y-84129379D01*
X125068542Y-84155500D01*
X125068545Y-84155500D01*
X125211457Y-84155500D01*
X125305751Y-84136742D01*
X125351620Y-84127619D01*
X125483653Y-84072929D01*
X125602479Y-83993532D01*
X125703532Y-83892479D01*
X125727836Y-83856104D01*
X125781448Y-83811299D01*
X125850773Y-83802592D01*
X125899831Y-83821894D01*
X125916338Y-83832924D01*
X125916346Y-83832928D01*
X125916347Y-83832929D01*
X126048380Y-83887619D01*
X126048384Y-83887619D01*
X126048385Y-83887620D01*
X126188542Y-83915500D01*
X126188545Y-83915500D01*
X126331457Y-83915500D01*
X126447177Y-83892481D01*
X126471620Y-83887619D01*
X126603653Y-83832929D01*
X126722479Y-83753532D01*
X126823532Y-83652479D01*
X126902929Y-83533653D01*
X126957619Y-83401620D01*
X126974052Y-83319007D01*
X126985500Y-83261457D01*
X126985500Y-83172192D01*
X159375234Y-83172192D01*
X159403114Y-83312349D01*
X159403116Y-83312355D01*
X159457804Y-83444385D01*
X159457809Y-83444394D01*
X159537202Y-83563213D01*
X159537205Y-83563217D01*
X159638252Y-83664264D01*
X159638256Y-83664267D01*
X159757075Y-83743660D01*
X159757084Y-83743665D01*
X159780898Y-83753529D01*
X159889115Y-83798354D01*
X159889119Y-83798354D01*
X159889120Y-83798355D01*
X160029277Y-83826235D01*
X160029280Y-83826235D01*
X160172192Y-83826235D01*
X160291049Y-83802592D01*
X160312355Y-83798354D01*
X160444388Y-83743664D01*
X160563214Y-83664267D01*
X160664267Y-83563214D01*
X160743664Y-83444388D01*
X160798354Y-83312355D01*
X160826235Y-83172190D01*
X160826235Y-83029280D01*
X160826235Y-83029277D01*
X160798355Y-82889120D01*
X160798354Y-82889119D01*
X160798354Y-82889115D01*
X160743664Y-82757082D01*
X160743663Y-82757081D01*
X160743660Y-82757075D01*
X160664267Y-82638256D01*
X160664264Y-82638252D01*
X160563217Y-82537205D01*
X160563213Y-82537202D01*
X160444394Y-82457809D01*
X160444385Y-82457804D01*
X160312355Y-82403116D01*
X160312349Y-82403114D01*
X160172192Y-82375235D01*
X160172190Y-82375235D01*
X160029280Y-82375235D01*
X160029278Y-82375235D01*
X159889120Y-82403114D01*
X159889114Y-82403116D01*
X159757084Y-82457804D01*
X159757075Y-82457809D01*
X159638256Y-82537202D01*
X159638252Y-82537205D01*
X159537205Y-82638252D01*
X159537202Y-82638256D01*
X159457809Y-82757075D01*
X159457804Y-82757084D01*
X159403116Y-82889114D01*
X159403114Y-82889120D01*
X159375235Y-83029277D01*
X159375235Y-83029280D01*
X159375235Y-83172190D01*
X159375235Y-83172192D01*
X159375234Y-83172192D01*
X126985500Y-83172192D01*
X126985500Y-83118542D01*
X126985499Y-83118540D01*
X126971345Y-83047379D01*
X126957620Y-82978385D01*
X126957619Y-82978384D01*
X126957619Y-82978380D01*
X126902929Y-82846347D01*
X126902928Y-82846346D01*
X126902925Y-82846340D01*
X126823532Y-82727521D01*
X126823529Y-82727517D01*
X126722482Y-82626470D01*
X126722478Y-82626467D01*
X126603659Y-82547074D01*
X126603650Y-82547069D01*
X126471620Y-82492381D01*
X126471614Y-82492379D01*
X126331457Y-82464500D01*
X126331455Y-82464500D01*
X126188545Y-82464500D01*
X126188543Y-82464500D01*
X126048385Y-82492379D01*
X126048379Y-82492381D01*
X125916349Y-82547069D01*
X125916340Y-82547074D01*
X125797521Y-82626467D01*
X125797517Y-82626470D01*
X125696468Y-82727519D01*
X125672161Y-82763897D01*
X125618547Y-82808701D01*
X125549222Y-82817407D01*
X125500169Y-82798106D01*
X125483659Y-82787074D01*
X125483650Y-82787069D01*
X125351620Y-82732381D01*
X125351614Y-82732379D01*
X125211457Y-82704500D01*
X125211455Y-82704500D01*
X125068545Y-82704500D01*
X125068543Y-82704500D01*
X124928385Y-82732379D01*
X124928379Y-82732381D01*
X124796349Y-82787069D01*
X124796340Y-82787074D01*
X124677521Y-82866467D01*
X124614643Y-82929345D01*
X124553319Y-82962829D01*
X124502771Y-82963280D01*
X124371458Y-82937160D01*
X124371455Y-82937160D01*
X124228545Y-82937160D01*
X124228543Y-82937160D01*
X124088385Y-82965039D01*
X124088379Y-82965041D01*
X123956349Y-83019729D01*
X123956340Y-83019734D01*
X123837521Y-83099127D01*
X123837517Y-83099130D01*
X123736470Y-83200177D01*
X123736467Y-83200181D01*
X123657074Y-83319000D01*
X123657069Y-83319009D01*
X123602381Y-83451039D01*
X123602379Y-83451045D01*
X123574500Y-83591202D01*
X123574500Y-83591205D01*
X123574500Y-83734115D01*
X123574500Y-83734117D01*
X123574499Y-83734117D01*
X105185704Y-83734117D01*
X105179867Y-82492055D01*
X121995097Y-82492055D01*
X122022977Y-82632212D01*
X122022979Y-82632218D01*
X122077667Y-82764248D01*
X122077672Y-82764257D01*
X122157065Y-82883076D01*
X122157068Y-82883080D01*
X122258115Y-82984127D01*
X122258119Y-82984130D01*
X122376938Y-83063523D01*
X122376944Y-83063526D01*
X122376945Y-83063527D01*
X122508978Y-83118217D01*
X122508982Y-83118217D01*
X122508983Y-83118218D01*
X122649140Y-83146098D01*
X122649143Y-83146098D01*
X122792055Y-83146098D01*
X122886349Y-83127340D01*
X122932218Y-83118217D01*
X123064251Y-83063527D01*
X123183077Y-82984130D01*
X123284130Y-82883077D01*
X123363527Y-82764251D01*
X123418217Y-82632218D01*
X123427340Y-82586349D01*
X123446098Y-82492055D01*
X123446098Y-82349140D01*
X123418218Y-82208983D01*
X123418217Y-82208982D01*
X123418217Y-82208978D01*
X123363527Y-82076945D01*
X123363526Y-82076944D01*
X123363523Y-82076938D01*
X123284130Y-81958119D01*
X123284127Y-81958115D01*
X123187469Y-81861457D01*
X161604499Y-81861457D01*
X161632379Y-82001614D01*
X161632381Y-82001620D01*
X161687069Y-82133650D01*
X161687074Y-82133659D01*
X161766467Y-82252478D01*
X161766470Y-82252482D01*
X161867517Y-82353529D01*
X161867521Y-82353532D01*
X161986340Y-82432925D01*
X161986346Y-82432928D01*
X161986347Y-82432929D01*
X162118380Y-82487619D01*
X162118384Y-82487619D01*
X162118385Y-82487620D01*
X162258542Y-82515500D01*
X162258545Y-82515500D01*
X162401457Y-82515500D01*
X162519329Y-82492053D01*
X162541620Y-82487619D01*
X162673653Y-82432929D01*
X162792479Y-82353532D01*
X162893532Y-82252479D01*
X162972929Y-82133653D01*
X163027619Y-82001620D01*
X163055500Y-81861455D01*
X163055500Y-81718545D01*
X163055500Y-81718542D01*
X163027620Y-81578385D01*
X163027619Y-81578384D01*
X163027619Y-81578380D01*
X162972929Y-81446347D01*
X162972928Y-81446346D01*
X162972925Y-81446340D01*
X162893532Y-81327521D01*
X162893529Y-81327517D01*
X162792482Y-81226470D01*
X162792478Y-81226467D01*
X162673659Y-81147074D01*
X162673650Y-81147069D01*
X162541620Y-81092381D01*
X162541614Y-81092379D01*
X162401457Y-81064500D01*
X162401455Y-81064500D01*
X162258545Y-81064500D01*
X162258543Y-81064500D01*
X162118385Y-81092379D01*
X162118379Y-81092381D01*
X161986349Y-81147069D01*
X161986340Y-81147074D01*
X161867521Y-81226467D01*
X161867517Y-81226470D01*
X161766470Y-81327517D01*
X161766467Y-81327521D01*
X161687074Y-81446340D01*
X161687069Y-81446349D01*
X161632381Y-81578379D01*
X161632379Y-81578385D01*
X161604500Y-81718542D01*
X161604500Y-81718545D01*
X161604500Y-81861455D01*
X161604500Y-81861457D01*
X161604499Y-81861457D01*
X123187469Y-81861457D01*
X123183080Y-81857068D01*
X123183076Y-81857065D01*
X123120952Y-81815555D01*
X123064257Y-81777672D01*
X123064248Y-81777667D01*
X122932218Y-81722979D01*
X122932212Y-81722977D01*
X122792055Y-81695098D01*
X122792053Y-81695098D01*
X122649143Y-81695098D01*
X122649141Y-81695098D01*
X122508983Y-81722977D01*
X122508977Y-81722979D01*
X122376947Y-81777667D01*
X122376938Y-81777672D01*
X122258119Y-81857065D01*
X122258115Y-81857068D01*
X122157068Y-81958115D01*
X122157065Y-81958119D01*
X122077672Y-82076938D01*
X122077667Y-82076947D01*
X122022979Y-82208977D01*
X122022977Y-82208983D01*
X121995098Y-82349140D01*
X121995098Y-82349143D01*
X121995098Y-82492053D01*
X121995098Y-82492055D01*
X121995097Y-82492055D01*
X105179867Y-82492055D01*
X105179529Y-82420210D01*
X105198898Y-82353085D01*
X105251486Y-82307082D01*
X105320597Y-82296814D01*
X105350980Y-82305072D01*
X105390810Y-82321570D01*
X105390818Y-82321572D01*
X105584004Y-82359999D01*
X105584008Y-82360000D01*
X105832500Y-82360000D01*
X105832500Y-81660000D01*
X106332500Y-81660000D01*
X106332500Y-82360000D01*
X106580992Y-82360000D01*
X106580995Y-82359999D01*
X106774181Y-82321572D01*
X106774193Y-82321569D01*
X106956171Y-82246192D01*
X106956184Y-82246185D01*
X107119962Y-82136751D01*
X107119966Y-82136748D01*
X107259248Y-81997466D01*
X107259251Y-81997462D01*
X107368685Y-81833684D01*
X107368692Y-81833671D01*
X107444069Y-81651692D01*
X107444069Y-81651690D01*
X107452362Y-81610000D01*
X106649488Y-81610000D01*
X106666705Y-81600060D01*
X106722560Y-81544205D01*
X106762056Y-81475796D01*
X106782500Y-81399496D01*
X106782500Y-81320504D01*
X106762056Y-81244204D01*
X106722560Y-81175795D01*
X106666705Y-81119940D01*
X106649488Y-81110000D01*
X107452362Y-81110000D01*
X108742638Y-81110000D01*
X109545512Y-81110000D01*
X109528295Y-81119940D01*
X109472440Y-81175795D01*
X109432944Y-81244204D01*
X109412500Y-81320504D01*
X109412500Y-81399496D01*
X109432944Y-81475796D01*
X109472440Y-81544205D01*
X109528295Y-81600060D01*
X109545512Y-81610000D01*
X108742638Y-81610000D01*
X108750930Y-81651690D01*
X108750930Y-81651692D01*
X108826307Y-81833671D01*
X108826314Y-81833684D01*
X108935748Y-81997462D01*
X108935751Y-81997466D01*
X109075033Y-82136748D01*
X109075037Y-82136751D01*
X109238815Y-82246185D01*
X109238828Y-82246192D01*
X109420806Y-82321569D01*
X109420818Y-82321572D01*
X109614004Y-82359999D01*
X109614008Y-82360000D01*
X110012500Y-82360000D01*
X110012500Y-81660000D01*
X110512500Y-81660000D01*
X110512500Y-82360000D01*
X110910992Y-82360000D01*
X110910995Y-82359999D01*
X111104181Y-82321572D01*
X111104193Y-82321569D01*
X111286171Y-82246192D01*
X111286182Y-82246186D01*
X111295519Y-82239948D01*
X111295519Y-82239947D01*
X111449962Y-82136751D01*
X111449966Y-82136748D01*
X111589248Y-81997466D01*
X111589251Y-81997462D01*
X111698685Y-81833684D01*
X111698692Y-81833671D01*
X111774069Y-81651692D01*
X111774069Y-81651690D01*
X111782362Y-81610000D01*
X110979488Y-81610000D01*
X110996705Y-81600060D01*
X111052560Y-81544205D01*
X111092056Y-81475796D01*
X111112500Y-81399496D01*
X111112500Y-81320504D01*
X111092056Y-81244204D01*
X111052560Y-81175795D01*
X110996705Y-81119940D01*
X110979488Y-81110000D01*
X111782362Y-81110000D01*
X111774069Y-81068309D01*
X111774069Y-81068307D01*
X111698692Y-80886328D01*
X111698685Y-80886315D01*
X111589251Y-80722537D01*
X111589248Y-80722533D01*
X111449966Y-80583251D01*
X111449962Y-80583248D01*
X111286184Y-80473814D01*
X111286171Y-80473807D01*
X111104193Y-80398430D01*
X111104181Y-80398427D01*
X110910995Y-80360000D01*
X110512500Y-80360000D01*
X110512500Y-81060000D01*
X110012500Y-81060000D01*
X110012500Y-80338996D01*
X110004279Y-80323941D01*
X110009263Y-80254249D01*
X110051135Y-80198316D01*
X110077986Y-80183024D01*
X110159179Y-80149394D01*
X110200990Y-80121457D01*
X139634499Y-80121457D01*
X139662379Y-80261614D01*
X139662381Y-80261620D01*
X139717069Y-80393650D01*
X139717074Y-80393659D01*
X139796467Y-80512478D01*
X139796470Y-80512482D01*
X139897517Y-80613529D01*
X139897521Y-80613532D01*
X140016340Y-80692925D01*
X140016346Y-80692928D01*
X140016347Y-80692929D01*
X140148380Y-80747619D01*
X140148384Y-80747619D01*
X140148385Y-80747620D01*
X140288542Y-80775500D01*
X140288545Y-80775500D01*
X140431457Y-80775500D01*
X140525751Y-80756742D01*
X140571620Y-80747619D01*
X140703653Y-80692929D01*
X140822479Y-80613532D01*
X140923532Y-80512479D01*
X141002929Y-80393653D01*
X141057619Y-80261620D01*
X141073254Y-80183021D01*
X141085500Y-80121457D01*
X141085500Y-79978542D01*
X141057620Y-79838385D01*
X141057619Y-79838384D01*
X141057619Y-79838380D01*
X141002929Y-79706347D01*
X141002928Y-79706346D01*
X141002925Y-79706340D01*
X140923532Y-79587521D01*
X140923529Y-79587517D01*
X140822482Y-79486470D01*
X140822478Y-79486467D01*
X140703659Y-79407074D01*
X140703650Y-79407069D01*
X140571620Y-79352381D01*
X140571614Y-79352379D01*
X140431457Y-79324500D01*
X140431455Y-79324500D01*
X140288545Y-79324500D01*
X140288543Y-79324500D01*
X140148385Y-79352379D01*
X140148379Y-79352381D01*
X140016349Y-79407069D01*
X140016340Y-79407074D01*
X139897521Y-79486467D01*
X139897517Y-79486470D01*
X139796470Y-79587517D01*
X139796467Y-79587521D01*
X139717074Y-79706340D01*
X139717069Y-79706349D01*
X139662381Y-79838379D01*
X139662379Y-79838385D01*
X139634500Y-79978542D01*
X139634500Y-79978545D01*
X139634500Y-80121455D01*
X139634500Y-80121457D01*
X139634499Y-80121457D01*
X110200990Y-80121457D01*
X110290289Y-80061789D01*
X110401789Y-79950289D01*
X110489394Y-79819179D01*
X110549737Y-79673497D01*
X110580500Y-79518842D01*
X110580500Y-79361158D01*
X110580500Y-79361155D01*
X110580499Y-79361153D01*
X110550203Y-79208846D01*
X110549737Y-79206503D01*
X110540221Y-79183529D01*
X110502524Y-79092518D01*
X110489395Y-79060824D01*
X110489394Y-79060821D01*
X110489392Y-79060818D01*
X110489390Y-79060814D01*
X110482935Y-79051153D01*
X112909500Y-79051153D01*
X112909500Y-79208846D01*
X112940261Y-79363489D01*
X112940264Y-79363501D01*
X113000602Y-79509172D01*
X113000609Y-79509185D01*
X113088210Y-79640288D01*
X113088213Y-79640292D01*
X113199707Y-79751786D01*
X113199711Y-79751789D01*
X113330814Y-79839390D01*
X113330827Y-79839397D01*
X113471392Y-79897620D01*
X113476503Y-79899737D01*
X113631153Y-79930499D01*
X113631156Y-79930500D01*
X113631158Y-79930500D01*
X113788844Y-79930500D01*
X113788845Y-79930499D01*
X113943497Y-79899737D01*
X113980023Y-79884607D01*
X114044522Y-79857892D01*
X114089172Y-79839397D01*
X114089172Y-79839396D01*
X114089179Y-79839394D01*
X114220289Y-79751789D01*
X114331789Y-79640289D01*
X114419394Y-79509179D01*
X114479737Y-79363497D01*
X114498045Y-79271457D01*
X159464499Y-79271457D01*
X159492379Y-79411614D01*
X159492381Y-79411620D01*
X159547069Y-79543650D01*
X159547074Y-79543659D01*
X159626467Y-79662478D01*
X159626470Y-79662482D01*
X159727517Y-79763529D01*
X159727521Y-79763532D01*
X159846340Y-79842925D01*
X159846346Y-79842928D01*
X159846347Y-79842929D01*
X159978380Y-79897619D01*
X159978384Y-79897619D01*
X159978385Y-79897620D01*
X160118542Y-79925500D01*
X160118545Y-79925500D01*
X160261457Y-79925500D01*
X160355751Y-79906742D01*
X160401620Y-79897619D01*
X160533653Y-79842929D01*
X160652479Y-79763532D01*
X160753532Y-79662479D01*
X160832929Y-79543653D01*
X160887619Y-79411620D01*
X160906317Y-79317619D01*
X160915500Y-79271457D01*
X160915500Y-79128542D01*
X160887620Y-78988385D01*
X160887619Y-78988384D01*
X160887619Y-78988380D01*
X160832929Y-78856347D01*
X160832928Y-78856346D01*
X160832925Y-78856340D01*
X160753532Y-78737521D01*
X160753529Y-78737517D01*
X160707469Y-78691457D01*
X161884499Y-78691457D01*
X161912379Y-78831614D01*
X161912381Y-78831620D01*
X161967069Y-78963650D01*
X161967074Y-78963659D01*
X162046467Y-79082478D01*
X162046470Y-79082482D01*
X162147517Y-79183529D01*
X162147521Y-79183532D01*
X162266340Y-79262925D01*
X162266349Y-79262930D01*
X162286935Y-79271457D01*
X162398380Y-79317619D01*
X162398384Y-79317619D01*
X162398385Y-79317620D01*
X162538542Y-79345500D01*
X162538545Y-79345500D01*
X162681457Y-79345500D01*
X162787027Y-79324500D01*
X162821620Y-79317619D01*
X162953653Y-79262929D01*
X163072479Y-79183532D01*
X163173532Y-79082479D01*
X163252929Y-78963653D01*
X163307619Y-78831620D01*
X163324339Y-78747565D01*
X163335500Y-78691457D01*
X163335500Y-78548542D01*
X163307620Y-78408385D01*
X163307619Y-78408384D01*
X163307619Y-78408380D01*
X163252929Y-78276347D01*
X163252928Y-78276346D01*
X163252925Y-78276340D01*
X163173532Y-78157521D01*
X163173529Y-78157517D01*
X163072482Y-78056470D01*
X163072478Y-78056467D01*
X162953659Y-77977074D01*
X162953650Y-77977069D01*
X162821620Y-77922381D01*
X162821614Y-77922379D01*
X162681457Y-77894500D01*
X162681455Y-77894500D01*
X162538545Y-77894500D01*
X162538543Y-77894500D01*
X162398385Y-77922379D01*
X162398379Y-77922381D01*
X162266349Y-77977069D01*
X162266340Y-77977074D01*
X162147521Y-78056467D01*
X162147517Y-78056470D01*
X162046470Y-78157517D01*
X162046467Y-78157521D01*
X161967074Y-78276340D01*
X161967069Y-78276349D01*
X161912381Y-78408379D01*
X161912379Y-78408385D01*
X161884500Y-78548542D01*
X161884500Y-78548545D01*
X161884500Y-78691455D01*
X161884500Y-78691457D01*
X161884499Y-78691457D01*
X160707469Y-78691457D01*
X160652487Y-78636475D01*
X160652481Y-78636470D01*
X160652479Y-78636468D01*
X160651414Y-78635756D01*
X160533659Y-78557074D01*
X160533650Y-78557069D01*
X160401620Y-78502381D01*
X160401614Y-78502379D01*
X160261457Y-78474500D01*
X160261455Y-78474500D01*
X160118545Y-78474500D01*
X160118543Y-78474500D01*
X159978385Y-78502379D01*
X159978379Y-78502381D01*
X159846349Y-78557069D01*
X159846340Y-78557074D01*
X159727521Y-78636467D01*
X159727517Y-78636470D01*
X159626470Y-78737517D01*
X159626467Y-78737521D01*
X159547074Y-78856340D01*
X159547069Y-78856349D01*
X159492381Y-78988379D01*
X159492379Y-78988385D01*
X159464500Y-79128542D01*
X159464500Y-79128545D01*
X159464500Y-79271455D01*
X159464500Y-79271457D01*
X159464499Y-79271457D01*
X114498045Y-79271457D01*
X114510500Y-79208842D01*
X114510500Y-79051158D01*
X114510500Y-79051155D01*
X114510499Y-79051153D01*
X114509640Y-79046834D01*
X114479737Y-78896503D01*
X114452862Y-78831620D01*
X114419397Y-78750827D01*
X114419390Y-78750814D01*
X114331789Y-78619711D01*
X114331786Y-78619707D01*
X114220292Y-78508213D01*
X114220288Y-78508210D01*
X114171138Y-78475369D01*
X127122057Y-78475369D01*
X127149937Y-78615526D01*
X127149939Y-78615532D01*
X127204627Y-78747562D01*
X127204632Y-78747571D01*
X127284025Y-78866390D01*
X127284028Y-78866394D01*
X127385075Y-78967441D01*
X127385079Y-78967444D01*
X127503898Y-79046837D01*
X127503904Y-79046840D01*
X127503905Y-79046841D01*
X127635938Y-79101531D01*
X127635942Y-79101531D01*
X127635943Y-79101532D01*
X127776100Y-79129412D01*
X127776103Y-79129412D01*
X127919015Y-79129412D01*
X128013309Y-79110654D01*
X128059178Y-79101531D01*
X128191211Y-79046841D01*
X128191218Y-79046836D01*
X128191222Y-79046834D01*
X128232350Y-79019353D01*
X128232354Y-79019351D01*
X128278704Y-78988380D01*
X128310037Y-78967444D01*
X128411090Y-78866391D01*
X128490487Y-78747565D01*
X128545177Y-78615532D01*
X128558502Y-78548542D01*
X128573058Y-78475369D01*
X128573058Y-78332454D01*
X128545178Y-78192297D01*
X128545177Y-78192296D01*
X128545177Y-78192292D01*
X128490487Y-78060259D01*
X128490486Y-78060258D01*
X128490483Y-78060252D01*
X128411090Y-77941433D01*
X128411087Y-77941429D01*
X128310040Y-77840382D01*
X128310036Y-77840379D01*
X128191217Y-77760986D01*
X128191208Y-77760981D01*
X128059178Y-77706293D01*
X128059172Y-77706291D01*
X127919015Y-77678412D01*
X127919013Y-77678412D01*
X127776103Y-77678412D01*
X127776101Y-77678412D01*
X127635943Y-77706291D01*
X127635937Y-77706293D01*
X127503907Y-77760981D01*
X127503898Y-77760986D01*
X127385079Y-77840379D01*
X127385075Y-77840382D01*
X127284028Y-77941429D01*
X127284025Y-77941433D01*
X127204632Y-78060252D01*
X127204627Y-78060261D01*
X127149939Y-78192291D01*
X127149937Y-78192297D01*
X127122058Y-78332454D01*
X127122058Y-78332457D01*
X127122058Y-78475367D01*
X127122058Y-78475369D01*
X127122057Y-78475369D01*
X114171138Y-78475369D01*
X114102441Y-78429467D01*
X114102440Y-78429466D01*
X114089187Y-78420610D01*
X114089172Y-78420602D01*
X113943501Y-78360264D01*
X113943489Y-78360261D01*
X113788845Y-78329500D01*
X113788842Y-78329500D01*
X113631158Y-78329500D01*
X113631155Y-78329500D01*
X113476510Y-78360261D01*
X113476498Y-78360264D01*
X113330827Y-78420602D01*
X113330814Y-78420609D01*
X113199711Y-78508210D01*
X113199707Y-78508213D01*
X113088213Y-78619707D01*
X113088210Y-78619711D01*
X113000609Y-78750814D01*
X113000602Y-78750827D01*
X112940264Y-78896498D01*
X112940261Y-78896510D01*
X112909500Y-79051153D01*
X110482935Y-79051153D01*
X110401789Y-78929711D01*
X110401786Y-78929707D01*
X110290292Y-78818213D01*
X110290288Y-78818210D01*
X110159185Y-78730609D01*
X110159172Y-78730602D01*
X110013501Y-78670264D01*
X110013489Y-78670261D01*
X109858845Y-78639500D01*
X109858842Y-78639500D01*
X109701158Y-78639500D01*
X109701155Y-78639500D01*
X109546510Y-78670261D01*
X109546498Y-78670264D01*
X109400827Y-78730602D01*
X109400814Y-78730609D01*
X109269711Y-78818210D01*
X109269707Y-78818213D01*
X109158213Y-78929707D01*
X109158210Y-78929711D01*
X109070609Y-79060814D01*
X109070602Y-79060827D01*
X109010264Y-79206498D01*
X109010261Y-79206510D01*
X108979500Y-79361153D01*
X108979500Y-79518846D01*
X109010261Y-79673489D01*
X109010264Y-79673501D01*
X109070602Y-79819172D01*
X109070609Y-79819185D01*
X109158210Y-79950288D01*
X109158213Y-79950292D01*
X109269707Y-80061786D01*
X109269711Y-80061789D01*
X109400814Y-80149390D01*
X109400827Y-80149397D01*
X109436152Y-80164029D01*
X109490556Y-80207870D01*
X109512621Y-80274164D01*
X109495342Y-80341863D01*
X109444205Y-80389474D01*
X109424699Y-80397250D01*
X109420804Y-80398431D01*
X109238828Y-80473807D01*
X109238815Y-80473814D01*
X109075037Y-80583248D01*
X109075033Y-80583251D01*
X108935751Y-80722533D01*
X108935748Y-80722537D01*
X108826314Y-80886315D01*
X108826307Y-80886328D01*
X108750930Y-81068307D01*
X108750930Y-81068309D01*
X108742638Y-81110000D01*
X107452362Y-81110000D01*
X107444069Y-81068309D01*
X107444069Y-81068307D01*
X107368692Y-80886328D01*
X107368685Y-80886315D01*
X107259251Y-80722537D01*
X107259248Y-80722533D01*
X107119966Y-80583251D01*
X107119962Y-80583248D01*
X106956184Y-80473814D01*
X106956171Y-80473807D01*
X106774193Y-80398430D01*
X106774181Y-80398427D01*
X106580995Y-80360000D01*
X106332500Y-80360000D01*
X106332500Y-81060000D01*
X105832500Y-81060000D01*
X105832500Y-80360000D01*
X105584004Y-80360000D01*
X105390818Y-80398427D01*
X105390811Y-80398429D01*
X105341038Y-80419045D01*
X105271568Y-80426512D01*
X105209090Y-80395237D01*
X105173438Y-80335147D01*
X105169588Y-80305071D01*
X105155706Y-77351457D01*
X138754499Y-77351457D01*
X138782379Y-77491614D01*
X138782381Y-77491620D01*
X138837069Y-77623650D01*
X138837074Y-77623659D01*
X138916467Y-77742478D01*
X138916470Y-77742482D01*
X139017517Y-77843529D01*
X139017521Y-77843532D01*
X139136340Y-77922925D01*
X139136346Y-77922928D01*
X139136347Y-77922929D01*
X139268380Y-77977619D01*
X139268384Y-77977619D01*
X139268385Y-77977620D01*
X139408542Y-78005500D01*
X139408545Y-78005500D01*
X139551457Y-78005500D01*
X139645751Y-77986742D01*
X139691620Y-77977619D01*
X139823653Y-77922929D01*
X139942479Y-77843532D01*
X140043532Y-77742479D01*
X140122929Y-77623653D01*
X140177619Y-77491620D01*
X140205500Y-77351455D01*
X140205500Y-77208545D01*
X140205500Y-77208542D01*
X140177620Y-77068385D01*
X140177619Y-77068384D01*
X140177619Y-77068380D01*
X140122929Y-76936347D01*
X140122928Y-76936346D01*
X140122925Y-76936340D01*
X140043532Y-76817521D01*
X140043529Y-76817517D01*
X139942482Y-76716470D01*
X139942478Y-76716467D01*
X139823659Y-76637074D01*
X139823650Y-76637069D01*
X139691620Y-76582381D01*
X139691614Y-76582379D01*
X139551457Y-76554500D01*
X139551455Y-76554500D01*
X139408545Y-76554500D01*
X139408543Y-76554500D01*
X139268385Y-76582379D01*
X139268379Y-76582381D01*
X139136349Y-76637069D01*
X139136340Y-76637074D01*
X139017521Y-76716467D01*
X139017517Y-76716470D01*
X138916470Y-76817517D01*
X138916467Y-76817521D01*
X138837074Y-76936340D01*
X138837069Y-76936349D01*
X138782381Y-77068379D01*
X138782379Y-77068385D01*
X138754500Y-77208542D01*
X138754500Y-77208545D01*
X138754500Y-77351455D01*
X138754500Y-77351457D01*
X138754499Y-77351457D01*
X105155706Y-77351457D01*
X105144190Y-74901153D01*
X108599500Y-74901153D01*
X108599500Y-75058846D01*
X108630261Y-75213489D01*
X108630264Y-75213501D01*
X108690602Y-75359172D01*
X108690609Y-75359185D01*
X108778210Y-75490288D01*
X108778213Y-75490292D01*
X108889707Y-75601786D01*
X108889711Y-75601789D01*
X109020814Y-75689390D01*
X109020827Y-75689397D01*
X109077642Y-75712930D01*
X109166503Y-75749737D01*
X109321153Y-75780499D01*
X109321156Y-75780500D01*
X109321158Y-75780500D01*
X109478844Y-75780500D01*
X109478845Y-75780499D01*
X109633497Y-75749737D01*
X109779179Y-75689394D01*
X109806479Y-75671153D01*
X114219500Y-75671153D01*
X114219500Y-75828846D01*
X114250261Y-75983489D01*
X114250264Y-75983501D01*
X114310602Y-76129172D01*
X114310609Y-76129185D01*
X114398210Y-76260288D01*
X114398213Y-76260292D01*
X114509707Y-76371786D01*
X114509711Y-76371789D01*
X114640814Y-76459390D01*
X114640827Y-76459397D01*
X114786498Y-76519735D01*
X114786503Y-76519737D01*
X114940092Y-76550288D01*
X114941153Y-76550499D01*
X114941156Y-76550500D01*
X114941158Y-76550500D01*
X115098844Y-76550500D01*
X115098845Y-76550499D01*
X115253497Y-76519737D01*
X115399179Y-76459394D01*
X115530289Y-76371789D01*
X115641789Y-76260289D01*
X115729394Y-76129179D01*
X115789737Y-75983497D01*
X115794182Y-75961153D01*
X121899500Y-75961153D01*
X121899500Y-76118846D01*
X121930261Y-76273489D01*
X121930264Y-76273501D01*
X121990602Y-76419172D01*
X121990609Y-76419185D01*
X122078210Y-76550288D01*
X122078213Y-76550292D01*
X122189707Y-76661786D01*
X122189711Y-76661789D01*
X122320814Y-76749390D01*
X122320827Y-76749397D01*
X122466498Y-76809735D01*
X122466503Y-76809737D01*
X122621153Y-76840499D01*
X122621156Y-76840500D01*
X122621158Y-76840500D01*
X122778844Y-76840500D01*
X122778845Y-76840499D01*
X122933497Y-76809737D01*
X123079179Y-76749394D01*
X123210289Y-76661789D01*
X123321789Y-76550289D01*
X123409394Y-76419179D01*
X123469737Y-76273497D01*
X123500500Y-76118842D01*
X123500500Y-75961158D01*
X123500500Y-75961155D01*
X123500499Y-75961153D01*
X123474181Y-75828844D01*
X123469737Y-75806503D01*
X123469735Y-75806498D01*
X123409397Y-75660827D01*
X123409390Y-75660814D01*
X123321789Y-75529711D01*
X123321786Y-75529707D01*
X123210292Y-75418213D01*
X123210288Y-75418210D01*
X123079185Y-75330609D01*
X123079172Y-75330602D01*
X122933501Y-75270264D01*
X122933489Y-75270261D01*
X122778845Y-75239500D01*
X122778842Y-75239500D01*
X122621158Y-75239500D01*
X122621155Y-75239500D01*
X122466510Y-75270261D01*
X122466498Y-75270264D01*
X122320827Y-75330602D01*
X122320814Y-75330609D01*
X122189711Y-75418210D01*
X122189707Y-75418213D01*
X122078213Y-75529707D01*
X122078210Y-75529711D01*
X121990609Y-75660814D01*
X121990602Y-75660827D01*
X121930264Y-75806498D01*
X121930261Y-75806510D01*
X121899500Y-75961153D01*
X115794182Y-75961153D01*
X115800205Y-75930874D01*
X115800205Y-75930873D01*
X115820499Y-75828846D01*
X115820500Y-75828844D01*
X115820500Y-75671155D01*
X115820499Y-75671153D01*
X115813015Y-75633529D01*
X115789737Y-75516503D01*
X115778879Y-75490289D01*
X115729397Y-75370827D01*
X115729390Y-75370814D01*
X115641789Y-75239711D01*
X115641786Y-75239707D01*
X115543536Y-75141457D01*
X123524499Y-75141457D01*
X123552379Y-75281614D01*
X123552381Y-75281620D01*
X123607069Y-75413650D01*
X123607074Y-75413659D01*
X123686467Y-75532478D01*
X123686470Y-75532482D01*
X123787517Y-75633529D01*
X123787521Y-75633532D01*
X123906340Y-75712925D01*
X123906346Y-75712928D01*
X123906347Y-75712929D01*
X124038380Y-75767619D01*
X124038384Y-75767619D01*
X124038385Y-75767620D01*
X124178542Y-75795500D01*
X124178545Y-75795500D01*
X124321457Y-75795500D01*
X124415751Y-75776742D01*
X124461620Y-75767619D01*
X124593653Y-75712929D01*
X124712479Y-75633532D01*
X124813532Y-75532479D01*
X124892929Y-75413653D01*
X124947619Y-75281620D01*
X124961171Y-75213489D01*
X124975500Y-75141457D01*
X124975500Y-75074080D01*
X124995185Y-75007041D01*
X125038702Y-74966886D01*
X125038587Y-74966714D01*
X125039681Y-74965982D01*
X125041050Y-74964720D01*
X125043640Y-74963334D01*
X125043653Y-74963329D01*
X125162479Y-74883932D01*
X125263532Y-74782879D01*
X125342929Y-74664053D01*
X125342930Y-74664050D01*
X125342932Y-74664047D01*
X125369123Y-74600816D01*
X125378769Y-74577526D01*
X125422609Y-74523123D01*
X125488903Y-74501058D01*
X125517522Y-74503362D01*
X125578542Y-74515500D01*
X125578545Y-74515500D01*
X125721457Y-74515500D01*
X125815751Y-74496742D01*
X125861620Y-74487619D01*
X125993653Y-74432929D01*
X126112479Y-74353532D01*
X126213532Y-74252479D01*
X126291790Y-74135358D01*
X126345402Y-74090553D01*
X126414727Y-74081846D01*
X126477754Y-74112000D01*
X126514474Y-74171443D01*
X126516510Y-74228438D01*
X126514500Y-74238543D01*
X126514500Y-74238545D01*
X126514500Y-74381455D01*
X126514500Y-74381457D01*
X126514499Y-74381457D01*
X126542379Y-74521614D01*
X126542381Y-74521620D01*
X126597069Y-74653650D01*
X126597074Y-74653659D01*
X126676467Y-74772478D01*
X126676470Y-74772482D01*
X126777517Y-74873529D01*
X126777521Y-74873532D01*
X126896340Y-74952925D01*
X126896346Y-74952928D01*
X126896347Y-74952929D01*
X127028380Y-75007619D01*
X127028384Y-75007619D01*
X127028385Y-75007620D01*
X127168542Y-75035500D01*
X127168545Y-75035500D01*
X127311457Y-75035500D01*
X127405751Y-75016742D01*
X127451620Y-75007619D01*
X127583653Y-74952929D01*
X127702479Y-74873532D01*
X127803532Y-74772479D01*
X127882929Y-74653653D01*
X127937619Y-74521620D01*
X127956957Y-74424404D01*
X127965500Y-74381457D01*
X127965500Y-74238542D01*
X127937620Y-74098385D01*
X127937619Y-74098384D01*
X127937619Y-74098380D01*
X127882929Y-73966347D01*
X127882928Y-73966346D01*
X127882925Y-73966340D01*
X127803532Y-73847521D01*
X127803529Y-73847517D01*
X127702482Y-73746470D01*
X127702478Y-73746467D01*
X127583659Y-73667074D01*
X127583650Y-73667069D01*
X127451620Y-73612381D01*
X127451614Y-73612379D01*
X127311457Y-73584500D01*
X127311455Y-73584500D01*
X127168545Y-73584500D01*
X127168543Y-73584500D01*
X127028385Y-73612379D01*
X127028379Y-73612381D01*
X126896349Y-73667069D01*
X126896340Y-73667074D01*
X126777521Y-73746467D01*
X126777517Y-73746470D01*
X126676470Y-73847517D01*
X126598209Y-73964642D01*
X126544596Y-74009446D01*
X126475271Y-74018153D01*
X126412244Y-73987998D01*
X126375525Y-73928555D01*
X126373491Y-73871554D01*
X126375500Y-73861455D01*
X126375500Y-73718545D01*
X126375500Y-73718542D01*
X126347620Y-73578385D01*
X126347619Y-73578384D01*
X126347619Y-73578380D01*
X126293456Y-73447619D01*
X126292930Y-73446349D01*
X126292925Y-73446340D01*
X126213532Y-73327521D01*
X126213529Y-73327517D01*
X126112482Y-73226470D01*
X126112478Y-73226467D01*
X125993659Y-73147074D01*
X125993650Y-73147069D01*
X125861620Y-73092381D01*
X125861614Y-73092379D01*
X125721457Y-73064500D01*
X125721455Y-73064500D01*
X125578545Y-73064500D01*
X125578543Y-73064500D01*
X125438385Y-73092379D01*
X125438379Y-73092381D01*
X125306349Y-73147069D01*
X125306340Y-73147074D01*
X125187521Y-73226467D01*
X125187517Y-73226470D01*
X125086470Y-73327517D01*
X125086467Y-73327521D01*
X125007074Y-73446340D01*
X125007069Y-73446350D01*
X124971230Y-73532873D01*
X124927388Y-73587277D01*
X124861094Y-73609341D01*
X124832479Y-73607038D01*
X124771455Y-73594900D01*
X124628545Y-73594900D01*
X124628543Y-73594900D01*
X124488385Y-73622779D01*
X124488379Y-73622781D01*
X124356349Y-73677469D01*
X124356340Y-73677474D01*
X124237521Y-73756867D01*
X124237517Y-73756870D01*
X124136470Y-73857917D01*
X124136467Y-73857921D01*
X124057074Y-73976740D01*
X124057069Y-73976749D01*
X124002381Y-74108779D01*
X124002379Y-74108785D01*
X123974500Y-74248942D01*
X123974500Y-74316319D01*
X123954815Y-74383358D01*
X123911298Y-74423517D01*
X123911411Y-74423687D01*
X123910337Y-74424404D01*
X123908965Y-74425671D01*
X123906346Y-74427071D01*
X123787525Y-74506464D01*
X123787517Y-74506470D01*
X123686470Y-74607517D01*
X123686467Y-74607521D01*
X123607074Y-74726340D01*
X123607069Y-74726349D01*
X123552381Y-74858379D01*
X123552379Y-74858385D01*
X123524500Y-74998542D01*
X123524500Y-74998545D01*
X123524500Y-75141455D01*
X123524500Y-75141457D01*
X123524499Y-75141457D01*
X115543536Y-75141457D01*
X115530292Y-75128213D01*
X115530288Y-75128210D01*
X115481417Y-75095555D01*
X115399185Y-75040609D01*
X115399172Y-75040602D01*
X115253501Y-74980264D01*
X115253489Y-74980261D01*
X115098845Y-74949500D01*
X115098842Y-74949500D01*
X114941158Y-74949500D01*
X114941155Y-74949500D01*
X114786510Y-74980261D01*
X114786498Y-74980264D01*
X114640827Y-75040602D01*
X114640814Y-75040609D01*
X114509711Y-75128210D01*
X114509707Y-75128213D01*
X114398213Y-75239707D01*
X114398210Y-75239711D01*
X114310609Y-75370814D01*
X114310602Y-75370827D01*
X114250264Y-75516498D01*
X114250261Y-75516510D01*
X114219500Y-75671153D01*
X109806479Y-75671153D01*
X109910289Y-75601789D01*
X109910292Y-75601786D01*
X109934694Y-75577385D01*
X110021786Y-75490292D01*
X110021789Y-75490289D01*
X110109394Y-75359179D01*
X110169737Y-75213497D01*
X110200500Y-75058842D01*
X110200500Y-74901158D01*
X110200500Y-74901155D01*
X110200499Y-74901153D01*
X110199404Y-74895649D01*
X110169737Y-74746503D01*
X110135588Y-74664059D01*
X110109397Y-74600827D01*
X110109391Y-74600816D01*
X110091444Y-74573956D01*
X110091443Y-74573955D01*
X110049480Y-74511153D01*
X111609500Y-74511153D01*
X111609500Y-74668846D01*
X111640261Y-74823489D01*
X111640264Y-74823501D01*
X111700602Y-74969172D01*
X111700609Y-74969185D01*
X111788210Y-75100288D01*
X111788213Y-75100292D01*
X111899707Y-75211786D01*
X111899711Y-75211789D01*
X112030814Y-75299390D01*
X112030827Y-75299397D01*
X112106181Y-75330609D01*
X112176503Y-75359737D01*
X112331153Y-75390499D01*
X112331156Y-75390500D01*
X112331158Y-75390500D01*
X112488844Y-75390500D01*
X112488845Y-75390499D01*
X112643497Y-75359737D01*
X112789179Y-75299394D01*
X112920289Y-75211789D01*
X113031789Y-75100289D01*
X113119394Y-74969179D01*
X113179737Y-74823497D01*
X113210500Y-74668842D01*
X113210500Y-74511158D01*
X113210500Y-74511155D01*
X113193067Y-74423517D01*
X113182829Y-74372048D01*
X113189056Y-74302459D01*
X113231918Y-74247281D01*
X113280255Y-74226241D01*
X113328831Y-74216578D01*
X113413497Y-74199737D01*
X113559179Y-74139394D01*
X113690289Y-74051789D01*
X113801789Y-73940289D01*
X113889394Y-73809179D01*
X113949737Y-73663497D01*
X113980500Y-73508842D01*
X113980500Y-73351158D01*
X113980500Y-73351155D01*
X113980499Y-73351153D01*
X113952915Y-73212482D01*
X113949737Y-73196503D01*
X113907138Y-73093659D01*
X113889397Y-73050827D01*
X113889390Y-73050814D01*
X113801789Y-72919711D01*
X113801786Y-72919707D01*
X113690292Y-72808213D01*
X113690288Y-72808210D01*
X113559185Y-72720609D01*
X113559172Y-72720602D01*
X113413501Y-72660264D01*
X113413489Y-72660261D01*
X113258845Y-72629500D01*
X113258842Y-72629500D01*
X113101158Y-72629500D01*
X113101155Y-72629500D01*
X112946510Y-72660261D01*
X112946498Y-72660264D01*
X112800827Y-72720602D01*
X112800814Y-72720609D01*
X112669711Y-72808210D01*
X112669707Y-72808213D01*
X112558213Y-72919707D01*
X112558210Y-72919711D01*
X112470609Y-73050814D01*
X112470602Y-73050827D01*
X112410264Y-73196498D01*
X112410261Y-73196510D01*
X112379500Y-73351153D01*
X112379500Y-73351158D01*
X112379500Y-73508842D01*
X112379500Y-73508844D01*
X112379499Y-73508844D01*
X112407170Y-73647949D01*
X112400943Y-73717541D01*
X112358080Y-73772718D01*
X112309745Y-73793758D01*
X112176508Y-73820261D01*
X112176498Y-73820264D01*
X112030827Y-73880602D01*
X112030814Y-73880609D01*
X111899711Y-73968210D01*
X111899707Y-73968213D01*
X111788213Y-74079707D01*
X111788210Y-74079711D01*
X111700609Y-74210814D01*
X111700602Y-74210827D01*
X111640264Y-74356498D01*
X111640261Y-74356510D01*
X111609500Y-74511153D01*
X110049480Y-74511153D01*
X110021789Y-74469711D01*
X110021786Y-74469707D01*
X109910292Y-74358213D01*
X109910288Y-74358210D01*
X109779185Y-74270609D01*
X109779172Y-74270602D01*
X109633501Y-74210264D01*
X109633489Y-74210261D01*
X109478845Y-74179500D01*
X109478842Y-74179500D01*
X109321158Y-74179500D01*
X109321155Y-74179500D01*
X109166510Y-74210261D01*
X109166498Y-74210264D01*
X109020827Y-74270602D01*
X109020814Y-74270609D01*
X108889711Y-74358210D01*
X108889707Y-74358213D01*
X108778213Y-74469707D01*
X108778210Y-74469711D01*
X108690609Y-74600814D01*
X108690602Y-74600827D01*
X108630264Y-74746498D01*
X108630261Y-74746510D01*
X108599500Y-74901153D01*
X105144190Y-74901153D01*
X105138843Y-73763360D01*
X105158213Y-73696233D01*
X105210801Y-73650230D01*
X105279912Y-73639962D01*
X105310295Y-73648220D01*
X105390810Y-73681570D01*
X105390818Y-73681572D01*
X105584004Y-73719999D01*
X105584008Y-73720000D01*
X105832500Y-73720000D01*
X105832500Y-73020000D01*
X106332500Y-73020000D01*
X106332500Y-73720000D01*
X106580992Y-73720000D01*
X106580995Y-73719999D01*
X106774181Y-73681572D01*
X106774193Y-73681569D01*
X106956171Y-73606192D01*
X106956184Y-73606185D01*
X107119962Y-73496751D01*
X107119966Y-73496748D01*
X107259248Y-73357466D01*
X107259251Y-73357462D01*
X107368685Y-73193684D01*
X107368692Y-73193671D01*
X107444069Y-73011692D01*
X107444069Y-73011690D01*
X107452362Y-72970000D01*
X106649488Y-72970000D01*
X106666705Y-72960060D01*
X106722560Y-72904205D01*
X106762056Y-72835796D01*
X106782500Y-72759496D01*
X106782500Y-72680504D01*
X106762056Y-72604204D01*
X106722560Y-72535795D01*
X106666705Y-72479940D01*
X106649488Y-72470000D01*
X107452362Y-72470000D01*
X108742638Y-72470000D01*
X109545512Y-72470000D01*
X109528295Y-72479940D01*
X109472440Y-72535795D01*
X109432944Y-72604204D01*
X109412500Y-72680504D01*
X109412500Y-72759496D01*
X109432944Y-72835796D01*
X109472440Y-72904205D01*
X109528295Y-72960060D01*
X109545512Y-72970000D01*
X108742638Y-72970000D01*
X108750930Y-73011690D01*
X108750930Y-73011692D01*
X108826307Y-73193671D01*
X108826314Y-73193684D01*
X108935748Y-73357462D01*
X108935751Y-73357466D01*
X109075033Y-73496748D01*
X109075037Y-73496751D01*
X109238815Y-73606185D01*
X109238828Y-73606192D01*
X109420806Y-73681569D01*
X109420818Y-73681572D01*
X109614004Y-73719999D01*
X109614008Y-73720000D01*
X110012500Y-73720000D01*
X110012500Y-73020000D01*
X110512500Y-73020000D01*
X110512500Y-73720000D01*
X110910992Y-73720000D01*
X110910995Y-73719999D01*
X111104181Y-73681572D01*
X111104193Y-73681569D01*
X111286171Y-73606192D01*
X111286184Y-73606185D01*
X111449962Y-73496751D01*
X111449966Y-73496748D01*
X111589248Y-73357466D01*
X111589251Y-73357462D01*
X111698685Y-73193684D01*
X111698692Y-73193671D01*
X111774069Y-73011692D01*
X111774069Y-73011690D01*
X111782362Y-72970000D01*
X110979488Y-72970000D01*
X110996705Y-72960060D01*
X111052560Y-72904205D01*
X111092056Y-72835796D01*
X111112500Y-72759496D01*
X111112500Y-72680504D01*
X111092056Y-72604204D01*
X111052560Y-72535795D01*
X110996705Y-72479940D01*
X110979488Y-72470000D01*
X111782362Y-72470000D01*
X111774069Y-72428309D01*
X111774069Y-72428307D01*
X111698692Y-72246328D01*
X111698685Y-72246315D01*
X111670382Y-72203957D01*
X111628417Y-72141153D01*
X115709500Y-72141153D01*
X115709500Y-72298846D01*
X115740261Y-72453489D01*
X115740264Y-72453501D01*
X115800602Y-72599172D01*
X115800609Y-72599185D01*
X115888210Y-72730288D01*
X115888213Y-72730292D01*
X115999707Y-72841786D01*
X115999711Y-72841789D01*
X116130814Y-72929390D01*
X116130827Y-72929397D01*
X116276498Y-72989735D01*
X116276503Y-72989737D01*
X116428644Y-73020000D01*
X116431153Y-73020499D01*
X116431156Y-73020500D01*
X116431158Y-73020500D01*
X116588844Y-73020500D01*
X116588845Y-73020499D01*
X116743497Y-72989737D01*
X116889179Y-72929394D01*
X116916479Y-72911153D01*
X120329500Y-72911153D01*
X120329500Y-73068846D01*
X120360261Y-73223489D01*
X120360264Y-73223501D01*
X120420602Y-73369172D01*
X120420609Y-73369185D01*
X120508210Y-73500288D01*
X120508213Y-73500292D01*
X120619707Y-73611786D01*
X120619711Y-73611789D01*
X120750814Y-73699390D01*
X120750827Y-73699397D01*
X120889581Y-73756870D01*
X120896503Y-73759737D01*
X121046131Y-73789500D01*
X121051153Y-73790499D01*
X121051156Y-73790500D01*
X121051158Y-73790500D01*
X121208844Y-73790500D01*
X121208845Y-73790499D01*
X121363497Y-73759737D01*
X121509179Y-73699394D01*
X121640289Y-73611789D01*
X121751789Y-73500289D01*
X121839394Y-73369179D01*
X121846859Y-73351158D01*
X121856651Y-73327517D01*
X121899737Y-73223497D01*
X121930500Y-73068842D01*
X121930500Y-72911158D01*
X121930500Y-72911155D01*
X121930499Y-72911153D01*
X121919720Y-72856966D01*
X121912657Y-72821457D01*
X138593499Y-72821457D01*
X138621379Y-72961614D01*
X138621381Y-72961620D01*
X138676069Y-73093650D01*
X138676074Y-73093659D01*
X138755467Y-73212478D01*
X138755470Y-73212482D01*
X138856517Y-73313529D01*
X138856521Y-73313532D01*
X138975340Y-73392925D01*
X138975346Y-73392928D01*
X138975347Y-73392929D01*
X139107380Y-73447619D01*
X139107384Y-73447619D01*
X139107385Y-73447620D01*
X139247542Y-73475500D01*
X139247545Y-73475500D01*
X139390457Y-73475500D01*
X139484751Y-73456742D01*
X139530620Y-73447619D01*
X139662653Y-73392929D01*
X139781479Y-73313532D01*
X139882532Y-73212479D01*
X139961929Y-73093653D01*
X140016619Y-72961620D01*
X140028040Y-72904205D01*
X140044500Y-72821457D01*
X140044500Y-72678542D01*
X140016620Y-72538385D01*
X140016619Y-72538384D01*
X140016619Y-72538380D01*
X139961929Y-72406347D01*
X139961928Y-72406346D01*
X139961925Y-72406340D01*
X139882532Y-72287521D01*
X139882529Y-72287517D01*
X139781482Y-72186470D01*
X139781478Y-72186467D01*
X139662659Y-72107074D01*
X139662650Y-72107069D01*
X139530620Y-72052381D01*
X139530614Y-72052379D01*
X139390457Y-72024500D01*
X139390455Y-72024500D01*
X139247545Y-72024500D01*
X139247543Y-72024500D01*
X139107385Y-72052379D01*
X139107379Y-72052381D01*
X138975349Y-72107069D01*
X138975340Y-72107074D01*
X138856521Y-72186467D01*
X138856517Y-72186470D01*
X138755470Y-72287517D01*
X138755467Y-72287521D01*
X138676074Y-72406340D01*
X138676069Y-72406349D01*
X138621381Y-72538379D01*
X138621379Y-72538385D01*
X138593500Y-72678542D01*
X138593500Y-72678545D01*
X138593500Y-72821455D01*
X138593500Y-72821457D01*
X138593499Y-72821457D01*
X121912657Y-72821457D01*
X121899737Y-72756503D01*
X121888879Y-72730289D01*
X121839397Y-72610827D01*
X121839390Y-72610814D01*
X121751789Y-72479711D01*
X121751786Y-72479707D01*
X121640292Y-72368213D01*
X121640288Y-72368210D01*
X121509185Y-72280609D01*
X121509172Y-72280602D01*
X121363501Y-72220264D01*
X121363489Y-72220261D01*
X121208845Y-72189500D01*
X121208842Y-72189500D01*
X121051158Y-72189500D01*
X121051155Y-72189500D01*
X120896510Y-72220261D01*
X120896498Y-72220264D01*
X120750827Y-72280602D01*
X120750814Y-72280609D01*
X120619711Y-72368210D01*
X120619707Y-72368213D01*
X120508213Y-72479707D01*
X120508210Y-72479711D01*
X120420609Y-72610814D01*
X120420602Y-72610827D01*
X120360264Y-72756498D01*
X120360261Y-72756510D01*
X120329500Y-72911153D01*
X116916479Y-72911153D01*
X117020289Y-72841789D01*
X117026282Y-72835796D01*
X117044694Y-72817385D01*
X117131786Y-72730292D01*
X117131789Y-72730289D01*
X117219394Y-72599179D01*
X117279737Y-72453497D01*
X117310500Y-72298842D01*
X117310500Y-72141158D01*
X117310500Y-72141155D01*
X117310499Y-72141153D01*
X117294678Y-72061615D01*
X117279737Y-71986503D01*
X117279735Y-71986498D01*
X117219397Y-71840827D01*
X117219390Y-71840814D01*
X117131789Y-71709711D01*
X117131786Y-71709707D01*
X117020292Y-71598213D01*
X117020288Y-71598210D01*
X116889185Y-71510609D01*
X116889172Y-71510602D01*
X116743501Y-71450264D01*
X116743489Y-71450261D01*
X116588845Y-71419500D01*
X116588842Y-71419500D01*
X116431158Y-71419500D01*
X116431155Y-71419500D01*
X116276510Y-71450261D01*
X116276498Y-71450264D01*
X116130827Y-71510602D01*
X116130814Y-71510609D01*
X115999711Y-71598210D01*
X115999707Y-71598213D01*
X115888213Y-71709707D01*
X115888210Y-71709711D01*
X115800609Y-71840814D01*
X115800602Y-71840827D01*
X115740264Y-71986498D01*
X115740261Y-71986510D01*
X115709500Y-72141153D01*
X111628417Y-72141153D01*
X111589251Y-72082537D01*
X111589248Y-72082533D01*
X111449966Y-71943251D01*
X111449962Y-71943248D01*
X111286184Y-71833814D01*
X111286171Y-71833807D01*
X111104193Y-71758430D01*
X111104181Y-71758427D01*
X110910995Y-71720000D01*
X110512500Y-71720000D01*
X110512500Y-72420000D01*
X110012500Y-72420000D01*
X110012500Y-71720000D01*
X109614004Y-71720000D01*
X109420818Y-71758427D01*
X109420806Y-71758430D01*
X109238828Y-71833807D01*
X109238815Y-71833814D01*
X109075037Y-71943248D01*
X109075033Y-71943251D01*
X108935751Y-72082533D01*
X108935748Y-72082537D01*
X108826314Y-72246315D01*
X108826307Y-72246328D01*
X108750930Y-72428307D01*
X108750930Y-72428309D01*
X108742638Y-72470000D01*
X107452362Y-72470000D01*
X107444069Y-72428309D01*
X107444069Y-72428307D01*
X107368692Y-72246328D01*
X107368685Y-72246315D01*
X107259251Y-72082537D01*
X107259248Y-72082533D01*
X107119966Y-71943251D01*
X107119962Y-71943248D01*
X106956184Y-71833814D01*
X106956171Y-71833807D01*
X106774193Y-71758430D01*
X106774181Y-71758427D01*
X106580995Y-71720000D01*
X106332500Y-71720000D01*
X106332500Y-72420000D01*
X105832500Y-72420000D01*
X105832500Y-71720000D01*
X105584004Y-71720000D01*
X105390818Y-71758427D01*
X105390810Y-71758429D01*
X105325859Y-71785332D01*
X105317490Y-71786231D01*
X105310298Y-71790599D01*
X105283268Y-71789909D01*
X105256389Y-71792799D01*
X105248864Y-71789032D01*
X105240451Y-71788818D01*
X105218086Y-71773625D01*
X105193911Y-71761524D01*
X105189616Y-71754286D01*
X105182655Y-71749557D01*
X105172054Y-71724685D01*
X105158259Y-71701434D01*
X105157847Y-71691353D01*
X105155260Y-71685282D01*
X105156160Y-71650000D01*
X105158134Y-71638387D01*
X105193216Y-71431901D01*
X105196309Y-71418349D01*
X105271541Y-71157209D01*
X105276132Y-71144091D01*
X105297324Y-71092929D01*
X105380128Y-70893018D01*
X105386151Y-70880512D01*
X105517613Y-70642647D01*
X105525008Y-70630879D01*
X105530966Y-70622482D01*
X105682269Y-70409239D01*
X105690924Y-70398385D01*
X105872023Y-70195736D01*
X105881835Y-70185924D01*
X106084493Y-70004818D01*
X106095330Y-69996177D01*
X106316984Y-69838905D01*
X106328747Y-69831514D01*
X106566611Y-69700052D01*
X106579111Y-69694032D01*
X106830196Y-69590029D01*
X106843308Y-69585441D01*
X107104453Y-69510207D01*
X107117996Y-69507116D01*
X107385928Y-69461594D01*
X107399718Y-69460040D01*
X107674422Y-69444614D01*
X107681545Y-69444420D01*
X122505730Y-69473136D01*
G37*
%TD.AperFunction*%
%TD*%
M02*
