%TF.GenerationSoftware,KiCad,Pcbnew,9.0.6-9.0.6~ubuntu24.04.1*%
%TF.CreationDate,2025-12-05T16:25:40-03:00*%
%TF.ProjectId,Smart_insoles_2025_v1,536d6172-745f-4696-9e73-6f6c65735f32,rev?*%
%TF.SameCoordinates,Original*%
%TF.FileFunction,Soldermask,Top*%
%TF.FilePolarity,Negative*%
%FSLAX46Y46*%
G04 Gerber Fmt 4.6, Leading zero omitted, Abs format (unit mm)*
G04 Created by KiCad (PCBNEW 9.0.6-9.0.6~ubuntu24.04.1) date 2025-12-05 16:25:40*
%MOMM*%
%LPD*%
G01*
G04 APERTURE LIST*
G04 Aperture macros list*
%AMRoundRect*
0 Rectangle with rounded corners*
0 $1 Rounding radius*
0 $2 $3 $4 $5 $6 $7 $8 $9 X,Y pos of 4 corners*
0 Add a 4 corners polygon primitive as box body*
4,1,4,$2,$3,$4,$5,$6,$7,$8,$9,$2,$3,0*
0 Add four circle primitives for the rounded corners*
1,1,$1+$1,$2,$3*
1,1,$1+$1,$4,$5*
1,1,$1+$1,$6,$7*
1,1,$1+$1,$8,$9*
0 Add four rect primitives between the rounded corners*
20,1,$1+$1,$2,$3,$4,$5,0*
20,1,$1+$1,$4,$5,$6,$7,0*
20,1,$1+$1,$6,$7,$8,$9,0*
20,1,$1+$1,$8,$9,$2,$3,0*%
G04 Aperture macros list end*
%ADD10C,0.010000*%
%ADD11RoundRect,0.250000X0.262500X0.450000X-0.262500X0.450000X-0.262500X-0.450000X0.262500X-0.450000X0*%
%ADD12C,1.000000*%
%ADD13RoundRect,0.250000X0.337500X0.475000X-0.337500X0.475000X-0.337500X-0.475000X0.337500X-0.475000X0*%
%ADD14RoundRect,0.300000X-0.700000X0.300000X-0.700000X-0.300000X0.700000X-0.300000X0.700000X0.300000X0*%
%ADD15RoundRect,0.102000X-0.600000X-0.600000X0.600000X-0.600000X0.600000X0.600000X-0.600000X0.600000X0*%
%ADD16RoundRect,0.102000X-0.750000X-0.800000X0.750000X-0.800000X0.750000X0.800000X-0.750000X0.800000X0*%
%ADD17RoundRect,0.250000X0.350000X0.450000X-0.350000X0.450000X-0.350000X-0.450000X0.350000X-0.450000X0*%
%ADD18RoundRect,0.250000X-0.475000X0.337500X-0.475000X-0.337500X0.475000X-0.337500X0.475000X0.337500X0*%
%ADD19RoundRect,0.102000X-0.736600X-0.177800X0.736600X-0.177800X0.736600X0.177800X-0.736600X0.177800X0*%
%ADD20RoundRect,0.250000X0.475000X-0.337500X0.475000X0.337500X-0.475000X0.337500X-0.475000X-0.337500X0*%
%ADD21RoundRect,0.250000X-0.450000X0.262500X-0.450000X-0.262500X0.450000X-0.262500X0.450000X0.262500X0*%
%ADD22RoundRect,0.250000X-0.262500X-0.450000X0.262500X-0.450000X0.262500X0.450000X-0.262500X0.450000X0*%
%ADD23RoundRect,0.250000X-0.337500X-0.475000X0.337500X-0.475000X0.337500X0.475000X-0.337500X0.475000X0*%
%ADD24RoundRect,0.102000X0.600000X0.600000X-0.600000X0.600000X-0.600000X-0.600000X0.600000X-0.600000X0*%
%ADD25RoundRect,0.102000X0.750000X0.800000X-0.750000X0.800000X-0.750000X-0.800000X0.750000X-0.800000X0*%
%ADD26RoundRect,0.300000X0.700000X-0.300000X0.700000X0.300000X-0.700000X0.300000X-0.700000X-0.300000X0*%
%ADD27RoundRect,0.250000X0.450000X-0.262500X0.450000X0.262500X-0.450000X0.262500X-0.450000X-0.262500X0*%
%ADD28RoundRect,0.102000X0.400000X0.200000X-0.400000X0.200000X-0.400000X-0.200000X0.400000X-0.200000X0*%
%ADD29RoundRect,0.102000X0.200000X0.400000X-0.200000X0.400000X-0.200000X-0.400000X0.200000X-0.400000X0*%
%ADD30RoundRect,0.102000X0.725000X0.725000X-0.725000X0.725000X-0.725000X-0.725000X0.725000X-0.725000X0*%
%ADD31RoundRect,0.102000X0.350000X0.350000X-0.350000X0.350000X-0.350000X-0.350000X0.350000X-0.350000X0*%
%ADD32RoundRect,0.100000X0.637500X0.100000X-0.637500X0.100000X-0.637500X-0.100000X0.637500X-0.100000X0*%
%ADD33RoundRect,0.099250X-0.662750X-0.297750X0.662750X-0.297750X0.662750X0.297750X-0.662750X0.297750X0*%
%ADD34C,1.600000*%
%ADD35R,1.500000X1.500000*%
%ADD36RoundRect,0.150000X0.150000X0.625000X-0.150000X0.625000X-0.150000X-0.625000X0.150000X-0.625000X0*%
%ADD37RoundRect,0.500000X0.500000X0.750000X-0.500000X0.750000X-0.500000X-0.750000X0.500000X-0.750000X0*%
%ADD38O,1.800000X1.000000*%
%ADD39O,2.100000X1.000000*%
%ADD40RoundRect,0.150000X-0.425000X0.150000X-0.425000X-0.150000X0.425000X-0.150000X0.425000X0.150000X0*%
%ADD41RoundRect,0.075000X-0.500000X0.075000X-0.500000X-0.075000X0.500000X-0.075000X0.500000X0.075000X0*%
%ADD42R,0.600000X1.200000*%
G04 APERTURE END LIST*
D10*
%TO.C,U5*%
X120680000Y-92210000D02*
X120020000Y-92870000D01*
X119030000Y-92870000D01*
X119030000Y-91220000D01*
X120680000Y-91220000D01*
X120680000Y-92210000D01*
G36*
X120680000Y-92210000D02*
G01*
X120020000Y-92870000D01*
X119030000Y-92870000D01*
X119030000Y-91220000D01*
X120680000Y-91220000D01*
X120680000Y-92210000D01*
G37*
%TD*%
D11*
%TO.C,R24*%
X119937500Y-76390000D03*
X121762500Y-76390000D03*
%TD*%
D12*
%TO.C,TP9*%
X122330000Y-72420000D03*
%TD*%
D13*
%TO.C,C20*%
X120347500Y-70280000D03*
X118272500Y-70280000D03*
%TD*%
D14*
%TO.C,SW2*%
X117220000Y-75820000D03*
X117220000Y-80020000D03*
%TD*%
D11*
%TO.C,R29*%
X120152500Y-72210000D03*
X118327500Y-72210000D03*
%TD*%
D12*
%TO.C,TP15*%
X130500000Y-77350000D03*
%TD*%
D15*
%TO.C,PT7*%
X167167000Y-85560400D03*
D16*
X170417000Y-86560400D03*
D15*
X167167000Y-87560400D03*
%TD*%
D17*
%TO.C,R8*%
X167345800Y-78176600D03*
X169345800Y-78176600D03*
%TD*%
D18*
%TO.C,C11*%
X172417000Y-87547900D03*
X172417000Y-85472900D03*
%TD*%
D11*
%TO.C,R15*%
X167077500Y-89800000D03*
X168902500Y-89800000D03*
%TD*%
%TO.C,R14*%
X170511165Y-89802400D03*
X172336165Y-89802400D03*
%TD*%
D19*
%TO.C,U8*%
X164802499Y-77284363D03*
X164802499Y-77944763D03*
X164802499Y-78579763D03*
X164802499Y-79240163D03*
X164802499Y-79900563D03*
X164802499Y-80535563D03*
X164802499Y-81195963D03*
X158960499Y-81195963D03*
X158960499Y-80535563D03*
X158960499Y-79900563D03*
X158960499Y-79240163D03*
X158960499Y-78579763D03*
X158960499Y-77944763D03*
X158960499Y-77284363D03*
%TD*%
%TO.C,U9*%
X164756499Y-87928563D03*
X164756499Y-88588963D03*
X164756499Y-89223963D03*
X164756499Y-89884363D03*
X164756499Y-90544763D03*
X164756499Y-91179763D03*
X164756499Y-91840163D03*
X158914499Y-91840163D03*
X158914499Y-91179763D03*
X158914499Y-90544763D03*
X158914499Y-89884363D03*
X158914499Y-89223963D03*
X158914499Y-88588963D03*
X158914499Y-87928563D03*
%TD*%
D11*
%TO.C,R6*%
X170987500Y-78176600D03*
X172812500Y-78176600D03*
%TD*%
D15*
%TO.C,PT2*%
X167274500Y-83207000D03*
D16*
X170524500Y-82207000D03*
D15*
X167274500Y-81207000D03*
%TD*%
D18*
%TO.C,C6*%
X172550000Y-83187500D03*
X172550000Y-81112500D03*
%TD*%
D20*
%TO.C,C28*%
X113165000Y-70242500D03*
X113165000Y-72317500D03*
%TD*%
%TO.C,C27*%
X115140000Y-70242500D03*
X115140000Y-72317500D03*
%TD*%
D21*
%TO.C,R23*%
X108570000Y-85492500D03*
X108570000Y-83667500D03*
%TD*%
D12*
%TO.C,TP3*%
X114330000Y-75060000D03*
%TD*%
%TO.C,TP8*%
X121140000Y-83010000D03*
%TD*%
D21*
%TO.C,R30*%
X106560000Y-85500000D03*
X106560000Y-83675000D03*
%TD*%
D12*
%TO.C,TP7*%
X122220000Y-74430000D03*
%TD*%
%TO.C,TP16*%
X144110000Y-90990000D03*
%TD*%
D22*
%TO.C,R10*%
X151252499Y-89779763D03*
X153077499Y-89779763D03*
%TD*%
D12*
%TO.C,TP6*%
X109800000Y-94530000D03*
%TD*%
D23*
%TO.C,C17*%
X161262500Y-93400000D03*
X163337500Y-93400000D03*
%TD*%
D24*
%TO.C,PT1*%
X156500000Y-83025000D03*
D25*
X153250000Y-82025000D03*
D24*
X156500000Y-81025000D03*
%TD*%
D26*
%TO.C,SW1*%
X127150000Y-88850000D03*
X127150000Y-84650000D03*
%TD*%
D11*
%TO.C,R31*%
X128522500Y-90650000D03*
X126697500Y-90650000D03*
%TD*%
D22*
%TO.C,R3*%
X154917500Y-78740000D03*
X156742500Y-78740000D03*
%TD*%
D27*
%TO.C,R22*%
X130060000Y-86450000D03*
X130060000Y-84625000D03*
%TD*%
D20*
%TO.C,C13*%
X150500000Y-87887500D03*
X150500000Y-85812500D03*
%TD*%
D28*
%TO.C,U5*%
X123780000Y-94070000D03*
X123780000Y-93270000D03*
X123780000Y-92470000D03*
X123780000Y-91670000D03*
X123780000Y-90870000D03*
X123780000Y-90070000D03*
X123780000Y-89270000D03*
X123780000Y-88470000D03*
X123780000Y-87670000D03*
X123780000Y-86870000D03*
X123780000Y-86070000D03*
D29*
X122680000Y-85170000D03*
X121880000Y-85170000D03*
X121080000Y-85170000D03*
X120280000Y-85170000D03*
X119480000Y-85170000D03*
X118680000Y-85170000D03*
X117880000Y-85170000D03*
X117080000Y-85170000D03*
X116280000Y-85170000D03*
X115480000Y-85170000D03*
X114680000Y-85170000D03*
X113880000Y-85170000D03*
X113080000Y-85170000D03*
D28*
X111980000Y-86070000D03*
X111980000Y-86870000D03*
X111980000Y-87670000D03*
X111980000Y-88470000D03*
X111980000Y-89270000D03*
X111980000Y-90070000D03*
X111980000Y-90870000D03*
X111980000Y-91670000D03*
X111980000Y-92470000D03*
X111980000Y-93270000D03*
X111980000Y-94070000D03*
D29*
X113080000Y-94970000D03*
X113880000Y-94970000D03*
X114680000Y-94970000D03*
X115480000Y-94970000D03*
X116280000Y-94970000D03*
X117080000Y-94970000D03*
X117880000Y-94970000D03*
X118680000Y-94970000D03*
X119480000Y-94970000D03*
X120280000Y-94970000D03*
X121080000Y-94970000D03*
X121880000Y-94970000D03*
X122680000Y-94970000D03*
D30*
X117880000Y-92045000D03*
X115905000Y-92045000D03*
X115905000Y-90070000D03*
X115905000Y-88095000D03*
X117880000Y-88095000D03*
X119855000Y-88095000D03*
X119855000Y-90070000D03*
X117880000Y-90070000D03*
D31*
X111930000Y-95020000D03*
X111930000Y-85120000D03*
X123830000Y-85120000D03*
X123830000Y-95020000D03*
%TD*%
D23*
%TO.C,C26*%
X137912500Y-91670000D03*
X139987500Y-91670000D03*
%TD*%
D24*
%TO.C,PT5*%
X156340000Y-93960000D03*
D25*
X153090000Y-92960000D03*
D24*
X156340000Y-91960000D03*
%TD*%
D32*
%TO.C,U2*%
X143902500Y-87045000D03*
X143902500Y-86395000D03*
X143902500Y-85745000D03*
X143902500Y-85095000D03*
X143902500Y-84445000D03*
X143902500Y-83795000D03*
X143902500Y-83145000D03*
X143902500Y-82495000D03*
X143902500Y-81845000D03*
X143902500Y-81195000D03*
X143902500Y-80545000D03*
X143902500Y-79895000D03*
X136477500Y-79895000D03*
X136477500Y-80545000D03*
X136477500Y-81195000D03*
X136477500Y-81845000D03*
X136477500Y-82495000D03*
X136477500Y-83145000D03*
X136477500Y-83795000D03*
X136477500Y-84445000D03*
X136477500Y-85095000D03*
X136477500Y-85745000D03*
X136477500Y-86395000D03*
X136477500Y-87045000D03*
%TD*%
D23*
%TO.C,C25*%
X137950000Y-88850000D03*
X140025000Y-88850000D03*
%TD*%
D20*
%TO.C,C12*%
X150500000Y-93887500D03*
X150500000Y-91812500D03*
%TD*%
%TO.C,C5*%
X147340000Y-97632500D03*
X147340000Y-95557500D03*
%TD*%
D11*
%TO.C,R1*%
X133062500Y-80050000D03*
X131237500Y-80050000D03*
%TD*%
D15*
%TO.C,PT3*%
X161600000Y-71400000D03*
D16*
X164850000Y-72400000D03*
D15*
X161600000Y-73400000D03*
%TD*%
D20*
%TO.C,C21*%
X132560000Y-86645000D03*
X132560000Y-84570000D03*
%TD*%
D33*
%TO.C,U4*%
X142910000Y-95715000D03*
X142910000Y-96665000D03*
X142910000Y-97615000D03*
X145200000Y-97615000D03*
X145200000Y-95715000D03*
%TD*%
D23*
%TO.C,C4*%
X142897999Y-93884363D03*
X144972999Y-93884363D03*
%TD*%
D18*
%TO.C,C3*%
X130400000Y-92662500D03*
X130400000Y-94737500D03*
%TD*%
D34*
%TO.C,SW3*%
X157690000Y-96620000D03*
D35*
X155150000Y-96620000D03*
D34*
X152610000Y-96620000D03*
%TD*%
D18*
%TO.C,C7*%
X147660000Y-77572500D03*
X147660000Y-79647500D03*
%TD*%
%TO.C,C9*%
X167350000Y-71462500D03*
X167350000Y-73537500D03*
%TD*%
%TO.C,C10*%
X168200000Y-95262500D03*
X168200000Y-97337500D03*
%TD*%
D24*
%TO.C,PT0*%
X156500000Y-76580000D03*
D25*
X153250000Y-75580000D03*
D24*
X156500000Y-74580000D03*
%TD*%
D13*
%TO.C,C29*%
X124362500Y-80950000D03*
X122287500Y-80950000D03*
%TD*%
D20*
%TO.C,C8*%
X150500000Y-83262500D03*
X150500000Y-81187500D03*
%TD*%
D12*
%TO.C,TP14*%
X123960000Y-71270000D03*
%TD*%
D18*
%TO.C,C1*%
X128375000Y-92600000D03*
X128375000Y-94675000D03*
%TD*%
D12*
%TO.C,TP2*%
X128500000Y-77350000D03*
%TD*%
D24*
%TO.C,PT4*%
X156500000Y-87679763D03*
D25*
X153250000Y-86679763D03*
D24*
X156500000Y-85679763D03*
%TD*%
D12*
%TO.C,TP11*%
X126500000Y-77350000D03*
%TD*%
%TO.C,TP12*%
X135600000Y-88960000D03*
%TD*%
%TO.C,TP1*%
X106400000Y-91790000D03*
%TD*%
D21*
%TO.C,R18*%
X140525000Y-93665000D03*
X140525000Y-95490000D03*
%TD*%
D18*
%TO.C,C2*%
X126200000Y-92477500D03*
X126200000Y-94552500D03*
%TD*%
D22*
%TO.C,R4*%
X151137500Y-78940000D03*
X152962500Y-78940000D03*
%TD*%
%TO.C,R11*%
X154640499Y-89779763D03*
X156465499Y-89779763D03*
%TD*%
D12*
%TO.C,TP10*%
X122250000Y-70130000D03*
%TD*%
%TO.C,TP13*%
X159460000Y-84590000D03*
%TD*%
D36*
%TO.C,J1*%
X147693600Y-74333200D03*
X146693600Y-74333200D03*
X145693600Y-74333200D03*
X144693600Y-74333200D03*
X143693600Y-74333200D03*
X142693600Y-74333200D03*
X141693600Y-74333200D03*
X140693600Y-74333200D03*
X139693600Y-74333200D03*
X138693600Y-74333200D03*
X137693600Y-74333200D03*
X136693600Y-74333200D03*
X135693600Y-74333200D03*
X134693600Y-74333200D03*
X133693600Y-74333200D03*
X132693600Y-74333200D03*
X131693600Y-74333200D03*
X130693600Y-74333200D03*
X129693600Y-74333200D03*
X128693600Y-74333200D03*
D37*
X149826800Y-71725200D03*
X126712800Y-71725200D03*
%TD*%
D15*
%TO.C,PT6*%
X162800000Y-95515000D03*
D16*
X166050000Y-96515000D03*
D15*
X162800000Y-97515000D03*
%TD*%
D12*
%TO.C,TP5*%
X107760000Y-94560000D03*
%TD*%
D23*
%TO.C,C18*%
X161262500Y-83050000D03*
X163337500Y-83050000D03*
%TD*%
D38*
%TO.C,J2*%
X106082500Y-81360000D03*
D39*
X110262500Y-81360000D03*
D38*
X106082500Y-72720000D03*
D39*
X110262500Y-72720000D03*
D40*
X110837500Y-73840000D03*
X110837500Y-74640000D03*
D41*
X110837500Y-75290000D03*
X110837500Y-76290000D03*
X110837500Y-77790000D03*
X110837500Y-78790000D03*
D40*
X110837500Y-79440000D03*
X110837500Y-80240000D03*
X110837500Y-80240000D03*
X110837500Y-79440000D03*
D41*
X110837500Y-78290000D03*
X110837500Y-77290000D03*
X110837500Y-76790000D03*
X110837500Y-75790000D03*
D40*
X110837500Y-74640000D03*
X110837500Y-73840000D03*
%TD*%
D42*
%TO.C,IC1*%
X112770000Y-78220000D03*
X113720000Y-78220000D03*
X114670000Y-78220000D03*
X114670000Y-80720000D03*
X113720000Y-80720000D03*
X112770000Y-80720000D03*
%TD*%
M02*
