M48
; DRILL file {KiCad 9.0.6-9.0.6~ubuntu24.04.1} date 2025-12-05T16:25:40-0300
; FORMAT={-:-/ absolute / inch / decimal}
; #@! TF.CreationDate,2025-12-05T16:25:40-03:00
; #@! TF.GenerationSoftware,Kicad,Pcbnew,9.0.6-9.0.6~ubuntu24.04.1
; #@! TF.FileFunction,Plated,1,4,PTH
FMAT,2
INCH
; #@! TA.AperFunction,Plated,PTH,ViaDrill
T1C0.0118
; #@! TA.AperFunction,Plated,PTH,ComponentDrill
T2C0.0236
; #@! TA.AperFunction,Plated,PTH,ComponentDrill
T3C0.0315
%
G90
G05
T1
X4.1654Y-3.4512
X4.1878Y-3.6535
X4.2713Y-2.9071
X4.2799Y-3.1598
X4.3071Y-2.952
X4.3098Y-3.4421
X4.322Y-3.1276
X4.3766Y-3.7427
X4.4043Y-2.7642
X4.4193Y-3.3209
X4.4256Y-2.9366
X4.4504Y-3.7047
X4.4559Y-2.8909
X4.4764Y-3.2217
X4.4768Y-3.1154
X4.4803Y-3.7047
X4.5033Y-3.5478
X4.5047Y-3.4697
X4.5079Y-3.624
X4.5114Y-3.7047
X4.5226Y-3.5079
X4.5236Y-3.5866
X4.5283Y-2.9823
X4.5437Y-3.7047
X4.561Y-3.6752
X4.563Y-3.4213
X4.5764Y-3.7047
X4.5835Y-2.7654
X4.587Y-2.8433
X4.5876Y-3.2413
X4.6Y-3.4323
X4.6024Y-3.5069
X4.6024Y-3.5866
X4.6024Y-3.6634
X4.6079Y-3.7047
X4.6154Y-3.0378
X4.624Y-3.3894
X4.6378Y-3.4252
X4.6378Y-3.6693
X4.6394Y-3.7047
X4.6728Y-3.7047
X4.6791Y-3.4311
X4.6791Y-3.5837
X4.6801Y-3.5059
X4.6801Y-3.6644
X4.7043Y-3.7047
X4.7106Y-3.4193
X4.7165Y-3.6693
X4.7358Y-3.7047
X4.7539Y-3.5069
X4.7549Y-3.5856
X4.7634Y-3.6252
X4.7634Y-3.7047
X4.7638Y-3.315
X4.7657Y-3.5492
X4.7677Y-3.4689
X4.7689Y-2.8736
X4.7744Y-2.802
X4.7949Y-3.7047
X4.8087Y-3.2541
X4.8169Y-3.5315
X4.8175Y-3.4475
X4.8295Y-3.7047
X4.8303Y-3.6728
X4.8307Y-2.9937
X4.8315Y-3.2449
X4.8327Y-3.4035
X4.856Y-2.7459
X4.8707Y-3.3183
X4.8827Y-2.7575
X4.8917Y-2.9555
X4.8937Y-3.2938
X4.8953Y-3.2335
X4.9006Y-3.4846
X4.9094Y-2.926
X4.9142Y-2.7591
X4.9185Y-2.9741
X4.9213Y-3.355
X4.9268Y-3.2846
X4.9335Y-2.7795
X4.9449Y-3.3858
X4.9469Y-2.9051
X4.9709Y-3.2752
X4.9815Y-3.4524
X4.9874Y-3.365
X5.0028Y-3.4465
X5.0042Y-3.0988
X5.0079Y-3.6879
X5.0094Y-2.9256
X5.0262Y-3.2933
X5.0334Y-3.0868
X5.052Y-2.7622
X5.0567Y-3.3835
X5.0822Y-2.8488
X5.0837Y-3.6879
X5.0945Y-3.4862
X5.1122Y-2.8506
X5.1124Y-3.6909
X5.1256Y-3.1315
X5.15Y-3.6063
X5.1682Y-3.5385
X5.1744Y-3.0528
X5.185Y-2.9764
X5.189Y-2.8506
X5.2084Y-3.3694
X5.2646Y-2.9764
X5.2648Y-3.4235
X5.3303Y-3.5642
X5.337Y-2.7976
X5.3426Y-2.9764
X5.3622Y-3.5854
X5.374Y-3.7776
X5.376Y-2.8035
X5.3815Y-2.8417
X5.4232Y-2.9764
X5.424Y-2.8287
X5.4252Y-3.8039
X5.4406Y-2.8709
X5.4461Y-3.7685
X5.4488Y-2.752
X5.4744Y-3.837
X5.4839Y-3.7906
X5.485Y-2.8642
X5.4854Y-2.7736
X5.4913Y-3.0425
X5.4961Y-2.9764
X5.4992Y-3.5598
X5.5055Y-3.724
X5.5161Y-3.8114
X5.526Y-3.1516
X5.5374Y-3.5591
X5.5528Y-3.8591
X5.5571Y-3.1783
X5.5787Y-2.9764
X5.5797Y-3.8057
X5.5839Y-3.476
X5.6122Y-3.3898
X5.6154Y-3.3496
X5.6594Y-2.9764
X5.6654Y-3.1248
X5.6713Y-3.8238
X5.674Y-3.622
X5.7071Y-3.6419
X5.7362Y-2.9764
X5.8134Y-2.9748
X5.9126Y-3.5323
X5.915Y-3.0936
X6.0846Y-3.4862
X6.1008Y-3.0539
X6.2646Y-3.752
X6.2646Y-3.7992
X6.2949Y-3.7949
X6.2961Y-3.752
X6.3032Y-3.2717
X6.3059Y-3.5388
X6.3067Y-3.1181
X6.3311Y-3.3996
X6.3524Y-3.728
X6.3709Y-3.3811
X6.3909Y-3.2201
X6.402Y-3.0953
X6.4219Y-3.2203
X6.4272Y-3.339
X6.4299Y-3.5209
X6.4315Y-3.0736
X6.4425Y-3.1197
X6.4626Y-3.798
X6.4673Y-3.3374
X6.4705Y-3.6693
X6.4937Y-3.6961
X6.5142Y-3.7114
X6.537Y-3.3705
X6.5382Y-3.4142
X6.6496Y-3.5807
X6.6672Y-3.03
X6.7894Y-3.5945
X6.7992Y-3.0276
T3
X6.0083Y-3.8039
X6.1083Y-3.8039
X6.2083Y-3.8039
T2
G00X4.1922Y-2.863
M15
G01X4.1607Y-2.863
M16
G05
G00X4.1922Y-3.2031
M15
G01X4.1607Y-3.2031
M16
G05
G00X4.3627Y-2.863
M15
G01X4.3194Y-2.863
M16
G05
G00X4.3627Y-3.2031
M15
G01X4.3194Y-3.2031
M16
G05
M30
