%TF.GenerationSoftware,KiCad,Pcbnew,9.0.6-9.0.6~ubuntu24.04.1*%
%TF.CreationDate,2025-12-05T16:25:40-03:00*%
%TF.ProjectId,Smart_insoles_2025_v1,536d6172-745f-4696-9e73-6f6c65735f32,rev?*%
%TF.SameCoordinates,Original*%
%TF.FileFunction,Soldermask,Bot*%
%TF.FilePolarity,Negative*%
%FSLAX46Y46*%
G04 Gerber Fmt 4.6, Leading zero omitted, Abs format (unit mm)*
G04 Created by KiCad (PCBNEW 9.0.6-9.0.6~ubuntu24.04.1) date 2025-12-05 16:25:40*
%MOMM*%
%LPD*%
G01*
G04 APERTURE LIST*
G04 Aperture macros list*
%AMRoundRect*
0 Rectangle with rounded corners*
0 $1 Rounding radius*
0 $2 $3 $4 $5 $6 $7 $8 $9 X,Y pos of 4 corners*
0 Add a 4 corners polygon primitive as box body*
4,1,4,$2,$3,$4,$5,$6,$7,$8,$9,$2,$3,0*
0 Add four circle primitives for the rounded corners*
1,1,$1+$1,$2,$3*
1,1,$1+$1,$4,$5*
1,1,$1+$1,$6,$7*
1,1,$1+$1,$8,$9*
0 Add four rect primitives between the rounded corners*
20,1,$1+$1,$2,$3,$4,$5,0*
20,1,$1+$1,$4,$5,$6,$7,0*
20,1,$1+$1,$6,$7,$8,$9,0*
20,1,$1+$1,$8,$9,$2,$3,0*%
%AMFreePoly0*
4,1,23,0.500000,-0.750000,0.000000,-0.750000,0.000000,-0.745722,-0.065263,-0.745722,-0.191342,-0.711940,-0.304381,-0.646677,-0.396677,-0.554381,-0.461940,-0.441342,-0.495722,-0.315263,-0.495722,-0.250000,-0.500000,-0.250000,-0.500000,0.250000,-0.495722,0.250000,-0.495722,0.315263,-0.461940,0.441342,-0.396677,0.554381,-0.304381,0.646677,-0.191342,0.711940,-0.065263,0.745722,0.000000,0.745722,
0.000000,0.750000,0.500000,0.750000,0.500000,-0.750000,0.500000,-0.750000,$1*%
%AMFreePoly1*
4,1,23,0.000000,0.745722,0.065263,0.745722,0.191342,0.711940,0.304381,0.646677,0.396677,0.554381,0.461940,0.441342,0.495722,0.315263,0.495722,0.250000,0.500000,0.250000,0.500000,-0.250000,0.495722,-0.250000,0.495722,-0.315263,0.461940,-0.441342,0.396677,-0.554381,0.304381,-0.646677,0.191342,-0.711940,0.065263,-0.745722,0.000000,-0.745722,0.000000,-0.750000,-0.500000,-0.750000,
-0.500000,0.750000,0.000000,0.750000,0.000000,0.745722,0.000000,0.745722,$1*%
G04 Aperture macros list end*
%ADD10C,0.010000*%
%ADD11RoundRect,0.243750X0.456250X-0.243750X0.456250X0.243750X-0.456250X0.243750X-0.456250X-0.243750X0*%
%ADD12C,2.100000*%
%ADD13C,1.600000*%
%ADD14R,1.500000X1.500000*%
%ADD15RoundRect,0.250000X0.337500X0.475000X-0.337500X0.475000X-0.337500X-0.475000X0.337500X-0.475000X0*%
%ADD16RoundRect,0.250000X0.450000X-0.350000X0.450000X0.350000X-0.450000X0.350000X-0.450000X-0.350000X0*%
%ADD17RoundRect,0.250000X0.350000X0.450000X-0.350000X0.450000X-0.350000X-0.450000X0.350000X-0.450000X0*%
%ADD18RoundRect,0.250000X-0.475000X0.337500X-0.475000X-0.337500X0.475000X-0.337500X0.475000X0.337500X0*%
%ADD19FreePoly0,0.000000*%
%ADD20FreePoly1,0.000000*%
%ADD21RoundRect,0.285750X0.666750X0.984250X-0.666750X0.984250X-0.666750X-0.984250X0.666750X-0.984250X0*%
%ADD22RoundRect,0.250000X-0.450000X0.350000X-0.450000X-0.350000X0.450000X-0.350000X0.450000X0.350000X0*%
%ADD23RoundRect,0.250000X1.000000X0.650000X-1.000000X0.650000X-1.000000X-0.650000X1.000000X-0.650000X0*%
%ADD24RoundRect,0.088900X-0.380000X-0.110000X0.380000X-0.110000X0.380000X0.110000X-0.380000X0.110000X0*%
%ADD25RoundRect,0.063500X-0.450000X-0.750000X0.450000X-0.750000X0.450000X0.750000X-0.450000X0.750000X0*%
%ADD26C,1.000000*%
%ADD27RoundRect,0.250000X-0.337500X-0.475000X0.337500X-0.475000X0.337500X0.475000X-0.337500X0.475000X0*%
%ADD28R,0.900000X0.400000*%
%ADD29RoundRect,0.150000X-0.512500X-0.150000X0.512500X-0.150000X0.512500X0.150000X-0.512500X0.150000X0*%
%ADD30RoundRect,0.243750X-0.456250X0.243750X-0.456250X-0.243750X0.456250X-0.243750X0.456250X0.243750X0*%
%ADD31RoundRect,0.102000X0.700000X-0.500000X0.700000X0.500000X-0.700000X0.500000X-0.700000X-0.500000X0*%
%ADD32RoundRect,0.102000X-0.750000X-1.700000X0.750000X-1.700000X0.750000X1.700000X-0.750000X1.700000X0*%
%ADD33RoundRect,0.102000X-0.500000X-1.750000X0.500000X-1.750000X0.500000X1.750000X-0.500000X1.750000X0*%
%ADD34O,1.800000X1.000000*%
%ADD35O,2.100000X1.000000*%
G04 APERTURE END LIST*
%TO.C,JP2*%
G36*
X124350000Y-93200000D02*
G01*
X124650000Y-93200000D01*
X124650000Y-91700000D01*
X124350000Y-91700000D01*
X124350000Y-93200000D01*
G37*
%TO.C,JP1*%
G36*
X146600000Y-91500000D02*
G01*
X146900000Y-91500000D01*
X146900000Y-90000000D01*
X146600000Y-90000000D01*
X146600000Y-91500000D01*
G37*
D10*
%TO.C,U3*%
X126755000Y-72042500D02*
X126080000Y-72042500D01*
X126080000Y-71592500D01*
X126755000Y-71592500D01*
X126755000Y-72042500D01*
G36*
X126755000Y-72042500D02*
G01*
X126080000Y-72042500D01*
X126080000Y-71592500D01*
X126755000Y-71592500D01*
X126755000Y-72042500D01*
G37*
X126755000Y-72542500D02*
X126080000Y-72542500D01*
X126080000Y-72092500D01*
X126755000Y-72092500D01*
X126755000Y-72542500D01*
G36*
X126755000Y-72542500D02*
G01*
X126080000Y-72542500D01*
X126080000Y-72092500D01*
X126755000Y-72092500D01*
X126755000Y-72542500D01*
G37*
X126755000Y-73042500D02*
X126080000Y-73042500D01*
X126080000Y-72592500D01*
X126755000Y-72592500D01*
X126755000Y-73042500D01*
G36*
X126755000Y-73042500D02*
G01*
X126080000Y-73042500D01*
X126080000Y-72592500D01*
X126755000Y-72592500D01*
X126755000Y-73042500D01*
G37*
X126805000Y-71492500D02*
X126355000Y-71492500D01*
X126355000Y-70817500D01*
X126805000Y-70817500D01*
X126805000Y-71492500D01*
G36*
X126805000Y-71492500D02*
G01*
X126355000Y-71492500D01*
X126355000Y-70817500D01*
X126805000Y-70817500D01*
X126805000Y-71492500D01*
G37*
X126805000Y-73817500D02*
X126355000Y-73817500D01*
X126355000Y-73142500D01*
X126805000Y-73142500D01*
X126805000Y-73817500D01*
G36*
X126805000Y-73817500D02*
G01*
X126355000Y-73817500D01*
X126355000Y-73142500D01*
X126805000Y-73142500D01*
X126805000Y-73817500D01*
G37*
X127305000Y-71492500D02*
X126855000Y-71492500D01*
X126855000Y-70817500D01*
X127305000Y-70817500D01*
X127305000Y-71492500D01*
G36*
X127305000Y-71492500D02*
G01*
X126855000Y-71492500D01*
X126855000Y-70817500D01*
X127305000Y-70817500D01*
X127305000Y-71492500D01*
G37*
X127305000Y-73817500D02*
X126855000Y-73817500D01*
X126855000Y-73142500D01*
X127305000Y-73142500D01*
X127305000Y-73817500D01*
G36*
X127305000Y-73817500D02*
G01*
X126855000Y-73817500D01*
X126855000Y-73142500D01*
X127305000Y-73142500D01*
X127305000Y-73817500D01*
G37*
X127805000Y-71492500D02*
X127355000Y-71492500D01*
X127355000Y-70817500D01*
X127805000Y-70817500D01*
X127805000Y-71492500D01*
G36*
X127805000Y-71492500D02*
G01*
X127355000Y-71492500D01*
X127355000Y-70817500D01*
X127805000Y-70817500D01*
X127805000Y-71492500D01*
G37*
X127805000Y-73817500D02*
X127355000Y-73817500D01*
X127355000Y-73142500D01*
X127805000Y-73142500D01*
X127805000Y-73817500D01*
G36*
X127805000Y-73817500D02*
G01*
X127355000Y-73817500D01*
X127355000Y-73142500D01*
X127805000Y-73142500D01*
X127805000Y-73817500D01*
G37*
X128305000Y-71492500D02*
X127855000Y-71492500D01*
X127855000Y-70817500D01*
X128305000Y-70817500D01*
X128305000Y-71492500D01*
G36*
X128305000Y-71492500D02*
G01*
X127855000Y-71492500D01*
X127855000Y-70817500D01*
X128305000Y-70817500D01*
X128305000Y-71492500D01*
G37*
X128305000Y-73817500D02*
X127855000Y-73817500D01*
X127855000Y-73142500D01*
X128305000Y-73142500D01*
X128305000Y-73817500D01*
G36*
X128305000Y-73817500D02*
G01*
X127855000Y-73817500D01*
X127855000Y-73142500D01*
X128305000Y-73142500D01*
X128305000Y-73817500D01*
G37*
X128580000Y-72042500D02*
X127905000Y-72042500D01*
X127905000Y-71592500D01*
X128580000Y-71592500D01*
X128580000Y-72042500D01*
G36*
X128580000Y-72042500D02*
G01*
X127905000Y-72042500D01*
X127905000Y-71592500D01*
X128580000Y-71592500D01*
X128580000Y-72042500D01*
G37*
X128580000Y-72542500D02*
X127905000Y-72542500D01*
X127905000Y-72092500D01*
X128580000Y-72092500D01*
X128580000Y-72542500D01*
G36*
X128580000Y-72542500D02*
G01*
X127905000Y-72542500D01*
X127905000Y-72092500D01*
X128580000Y-72092500D01*
X128580000Y-72542500D01*
G37*
X128580000Y-73042500D02*
X127905000Y-73042500D01*
X127905000Y-72592500D01*
X128580000Y-72592500D01*
X128580000Y-73042500D01*
G36*
X128580000Y-73042500D02*
G01*
X127905000Y-73042500D01*
X127905000Y-72592500D01*
X128580000Y-72592500D01*
X128580000Y-73042500D01*
G37*
%TD*%
D11*
%TO.C,D2*%
X162525000Y-95132500D03*
X162525000Y-97007500D03*
%TD*%
D12*
%TO.C,H1*%
X107730000Y-88670000D03*
%TD*%
D13*
%TO.C,SW3*%
X157690000Y-96620000D03*
D14*
X155150000Y-96620000D03*
D13*
X152610000Y-96620000D03*
%TD*%
D12*
%TO.C,H3*%
X171650000Y-71865000D03*
%TD*%
%TO.C,H2*%
X171650000Y-96065000D03*
%TD*%
D15*
%TO.C,C16*%
X130237500Y-89950000D03*
X128162500Y-89950000D03*
%TD*%
D16*
%TO.C,R25*%
X134525000Y-93800000D03*
X134525000Y-91800000D03*
%TD*%
D17*
%TO.C,R13*%
X125450000Y-89700000D03*
X123450000Y-89700000D03*
%TD*%
D18*
%TO.C,C15*%
X129830000Y-71317500D03*
X129830000Y-73392500D03*
%TD*%
D19*
%TO.C,JP2*%
X123850000Y-92450000D03*
D20*
X125150000Y-92450000D03*
%TD*%
D17*
%TO.C,R27*%
X125450000Y-87700000D03*
X123450000Y-87700000D03*
%TD*%
D19*
%TO.C,JP1*%
X146100000Y-90750000D03*
D20*
X147400000Y-90750000D03*
%TD*%
D21*
%TO.C,TH1*%
X133250000Y-83400000D03*
X129186000Y-83400000D03*
%TD*%
D15*
%TO.C,C24*%
X128330000Y-75317500D03*
X126255000Y-75317500D03*
%TD*%
D16*
%TO.C,R26*%
X132025000Y-93800000D03*
X132025000Y-91800000D03*
%TD*%
D22*
%TO.C,R28*%
X162480000Y-91410000D03*
X162480000Y-93410000D03*
%TD*%
D23*
%TO.C,D5*%
X146050000Y-93900000D03*
X142050000Y-93900000D03*
%TD*%
D24*
%TO.C,U7*%
X128280000Y-88075000D03*
X128280000Y-87675000D03*
X128280000Y-87275000D03*
X128280000Y-86875000D03*
X128280000Y-86475000D03*
X130250000Y-86475000D03*
X130250000Y-86875000D03*
X130250000Y-87275000D03*
X130250000Y-87675000D03*
X130250000Y-88075000D03*
D25*
X129265000Y-87275000D03*
%TD*%
D26*
%TO.C,TP4*%
X143550000Y-88550000D03*
%TD*%
D27*
%TO.C,C23*%
X143700000Y-86150000D03*
X145775000Y-86150000D03*
%TD*%
D28*
%TO.C,RN1*%
X124680000Y-71117500D03*
X124680000Y-71917500D03*
X124680000Y-72717500D03*
X124680000Y-73517500D03*
X122980000Y-73517500D03*
X122980000Y-72717500D03*
X122980000Y-71917500D03*
X122980000Y-71117500D03*
%TD*%
D29*
%TO.C,U1*%
X143425000Y-84150000D03*
X143425000Y-83200000D03*
X143425000Y-82250000D03*
X145700000Y-82250000D03*
X145700000Y-84150000D03*
%TD*%
D30*
%TO.C,D1*%
X135750000Y-82325000D03*
X135750000Y-84200000D03*
%TD*%
D16*
%TO.C,R20*%
X138250000Y-87975000D03*
X138250000Y-85975000D03*
%TD*%
D18*
%TO.C,C14*%
X131830000Y-71317500D03*
X131830000Y-73392500D03*
%TD*%
D31*
%TO.C,Q2*%
X140825000Y-91300000D03*
X140825000Y-89400000D03*
X143025000Y-90350000D03*
%TD*%
D18*
%TO.C,C19*%
X133450000Y-85967500D03*
X133450000Y-88042500D03*
%TD*%
D30*
%TO.C,D3*%
X138250000Y-82325000D03*
X138250000Y-84200000D03*
%TD*%
D18*
%TO.C,C22*%
X141200000Y-82150000D03*
X141200000Y-84225000D03*
%TD*%
D16*
%TO.C,R21*%
X135750000Y-87975000D03*
X135750000Y-85975000D03*
%TD*%
D32*
%TO.C,J4*%
X118880000Y-78720000D03*
X112180000Y-78720000D03*
D33*
X116530000Y-84470000D03*
X114530000Y-84470000D03*
%TD*%
D34*
%TO.C,J2*%
X106082500Y-81360000D03*
D35*
X110262500Y-81360000D03*
D34*
X106082500Y-72720000D03*
D35*
X110262500Y-72720000D03*
%TD*%
M02*
