%TF.GenerationSoftware,KiCad,Pcbnew,9.0.6-9.0.6~ubuntu24.04.1*%
%TF.CreationDate,2025-12-05T16:25:40-03:00*%
%TF.ProjectId,Smart_insoles_2025_v1,536d6172-745f-4696-9e73-6f6c65735f32,rev?*%
%TF.SameCoordinates,Original*%
%TF.FileFunction,Legend,Bot*%
%TF.FilePolarity,Positive*%
%FSLAX46Y46*%
G04 Gerber Fmt 4.6, Leading zero omitted, Abs format (unit mm)*
G04 Created by KiCad (PCBNEW 9.0.6-9.0.6~ubuntu24.04.1) date 2025-12-05 16:25:40*
%MOMM*%
%LPD*%
G01*
G04 APERTURE LIST*
G04 Aperture macros list*
%AMRoundRect*
0 Rectangle with rounded corners*
0 $1 Rounding radius*
0 $2 $3 $4 $5 $6 $7 $8 $9 X,Y pos of 4 corners*
0 Add a 4 corners polygon primitive as box body*
4,1,4,$2,$3,$4,$5,$6,$7,$8,$9,$2,$3,0*
0 Add four circle primitives for the rounded corners*
1,1,$1+$1,$2,$3*
1,1,$1+$1,$4,$5*
1,1,$1+$1,$6,$7*
1,1,$1+$1,$8,$9*
0 Add four rect primitives between the rounded corners*
20,1,$1+$1,$2,$3,$4,$5,0*
20,1,$1+$1,$4,$5,$6,$7,0*
20,1,$1+$1,$6,$7,$8,$9,0*
20,1,$1+$1,$8,$9,$2,$3,0*%
%AMFreePoly0*
4,1,23,0.500000,-0.750000,0.000000,-0.750000,0.000000,-0.745722,-0.065263,-0.745722,-0.191342,-0.711940,-0.304381,-0.646677,-0.396677,-0.554381,-0.461940,-0.441342,-0.495722,-0.315263,-0.495722,-0.250000,-0.500000,-0.250000,-0.500000,0.250000,-0.495722,0.250000,-0.495722,0.315263,-0.461940,0.441342,-0.396677,0.554381,-0.304381,0.646677,-0.191342,0.711940,-0.065263,0.745722,0.000000,0.745722,
0.000000,0.750000,0.500000,0.750000,0.500000,-0.750000,0.500000,-0.750000,$1*%
%AMFreePoly1*
4,1,23,0.000000,0.745722,0.065263,0.745722,0.191342,0.711940,0.304381,0.646677,0.396677,0.554381,0.461940,0.441342,0.495722,0.315263,0.495722,0.250000,0.500000,0.250000,0.500000,-0.250000,0.495722,-0.250000,0.495722,-0.315263,0.461940,-0.441342,0.396677,-0.554381,0.304381,-0.646677,0.191342,-0.711940,0.065263,-0.745722,0.000000,-0.745722,0.000000,-0.750000,-0.500000,-0.750000,
-0.500000,0.750000,0.000000,0.750000,0.000000,0.745722,0.000000,0.745722,$1*%
G04 Aperture macros list end*
%ADD10C,0.152400*%
%ADD11C,0.254000*%
%ADD12C,0.120000*%
%ADD13C,0.127000*%
%ADD14C,0.200000*%
%ADD15C,0.203200*%
%ADD16C,0.300000*%
%ADD17C,0.010000*%
%ADD18RoundRect,0.243750X0.456250X-0.243750X0.456250X0.243750X-0.456250X0.243750X-0.456250X-0.243750X0*%
%ADD19C,2.100000*%
%ADD20C,1.600000*%
%ADD21R,1.500000X1.500000*%
%ADD22RoundRect,0.250000X0.337500X0.475000X-0.337500X0.475000X-0.337500X-0.475000X0.337500X-0.475000X0*%
%ADD23RoundRect,0.250000X0.450000X-0.350000X0.450000X0.350000X-0.450000X0.350000X-0.450000X-0.350000X0*%
%ADD24RoundRect,0.250000X0.350000X0.450000X-0.350000X0.450000X-0.350000X-0.450000X0.350000X-0.450000X0*%
%ADD25RoundRect,0.250000X-0.475000X0.337500X-0.475000X-0.337500X0.475000X-0.337500X0.475000X0.337500X0*%
%ADD26FreePoly0,0.000000*%
%ADD27FreePoly1,0.000000*%
%ADD28RoundRect,0.285750X0.666750X0.984250X-0.666750X0.984250X-0.666750X-0.984250X0.666750X-0.984250X0*%
%ADD29RoundRect,0.250000X-0.450000X0.350000X-0.450000X-0.350000X0.450000X-0.350000X0.450000X0.350000X0*%
%ADD30RoundRect,0.250000X1.000000X0.650000X-1.000000X0.650000X-1.000000X-0.650000X1.000000X-0.650000X0*%
%ADD31RoundRect,0.088900X-0.380000X-0.110000X0.380000X-0.110000X0.380000X0.110000X-0.380000X0.110000X0*%
%ADD32RoundRect,0.063500X-0.450000X-0.750000X0.450000X-0.750000X0.450000X0.750000X-0.450000X0.750000X0*%
%ADD33C,1.000000*%
%ADD34RoundRect,0.250000X-0.337500X-0.475000X0.337500X-0.475000X0.337500X0.475000X-0.337500X0.475000X0*%
%ADD35R,0.900000X0.400000*%
%ADD36RoundRect,0.150000X-0.512500X-0.150000X0.512500X-0.150000X0.512500X0.150000X-0.512500X0.150000X0*%
%ADD37RoundRect,0.243750X-0.456250X0.243750X-0.456250X-0.243750X0.456250X-0.243750X0.456250X0.243750X0*%
%ADD38RoundRect,0.102000X0.700000X-0.500000X0.700000X0.500000X-0.700000X0.500000X-0.700000X-0.500000X0*%
%ADD39RoundRect,0.102000X-0.750000X-1.700000X0.750000X-1.700000X0.750000X1.700000X-0.750000X1.700000X0*%
%ADD40RoundRect,0.102000X-0.500000X-1.750000X0.500000X-1.750000X0.500000X1.750000X-0.500000X1.750000X0*%
%ADD41O,1.800000X1.000000*%
%ADD42O,2.100000X1.000000*%
G04 APERTURE END LIST*
D10*
X138881641Y-80737735D02*
X138881641Y-79721735D01*
X138881641Y-79721735D02*
X138500689Y-79721735D01*
X138500689Y-79721735D02*
X138405451Y-79770116D01*
X138405451Y-79770116D02*
X138357832Y-79818497D01*
X138357832Y-79818497D02*
X138310213Y-79915259D01*
X138310213Y-79915259D02*
X138310213Y-80060402D01*
X138310213Y-80060402D02*
X138357832Y-80157164D01*
X138357832Y-80157164D02*
X138405451Y-80205545D01*
X138405451Y-80205545D02*
X138500689Y-80253926D01*
X138500689Y-80253926D02*
X138881641Y-80253926D01*
X137357832Y-79770116D02*
X137453070Y-79721735D01*
X137453070Y-79721735D02*
X137595927Y-79721735D01*
X137595927Y-79721735D02*
X137738784Y-79770116D01*
X137738784Y-79770116D02*
X137834022Y-79866878D01*
X137834022Y-79866878D02*
X137881641Y-79963640D01*
X137881641Y-79963640D02*
X137929260Y-80157164D01*
X137929260Y-80157164D02*
X137929260Y-80302307D01*
X137929260Y-80302307D02*
X137881641Y-80495831D01*
X137881641Y-80495831D02*
X137834022Y-80592593D01*
X137834022Y-80592593D02*
X137738784Y-80689355D01*
X137738784Y-80689355D02*
X137595927Y-80737735D01*
X137595927Y-80737735D02*
X137500689Y-80737735D01*
X137500689Y-80737735D02*
X137357832Y-80689355D01*
X137357832Y-80689355D02*
X137310213Y-80640974D01*
X137310213Y-80640974D02*
X137310213Y-80302307D01*
X137310213Y-80302307D02*
X137500689Y-80302307D01*
X135950213Y-80640974D02*
X135997832Y-80689355D01*
X135997832Y-80689355D02*
X136140689Y-80737735D01*
X136140689Y-80737735D02*
X136235927Y-80737735D01*
X136235927Y-80737735D02*
X136378784Y-80689355D01*
X136378784Y-80689355D02*
X136474022Y-80592593D01*
X136474022Y-80592593D02*
X136521641Y-80495831D01*
X136521641Y-80495831D02*
X136569260Y-80302307D01*
X136569260Y-80302307D02*
X136569260Y-80157164D01*
X136569260Y-80157164D02*
X136521641Y-79963640D01*
X136521641Y-79963640D02*
X136474022Y-79866878D01*
X136474022Y-79866878D02*
X136378784Y-79770116D01*
X136378784Y-79770116D02*
X136235927Y-79721735D01*
X136235927Y-79721735D02*
X136140689Y-79721735D01*
X136140689Y-79721735D02*
X135997832Y-79770116D01*
X135997832Y-79770116D02*
X135950213Y-79818497D01*
X135521641Y-80737735D02*
X135521641Y-79721735D01*
X135521641Y-80205545D02*
X134950213Y-80205545D01*
X134950213Y-80737735D02*
X134950213Y-79721735D01*
X133950213Y-79770116D02*
X134045451Y-79721735D01*
X134045451Y-79721735D02*
X134188308Y-79721735D01*
X134188308Y-79721735D02*
X134331165Y-79770116D01*
X134331165Y-79770116D02*
X134426403Y-79866878D01*
X134426403Y-79866878D02*
X134474022Y-79963640D01*
X134474022Y-79963640D02*
X134521641Y-80157164D01*
X134521641Y-80157164D02*
X134521641Y-80302307D01*
X134521641Y-80302307D02*
X134474022Y-80495831D01*
X134474022Y-80495831D02*
X134426403Y-80592593D01*
X134426403Y-80592593D02*
X134331165Y-80689355D01*
X134331165Y-80689355D02*
X134188308Y-80737735D01*
X134188308Y-80737735D02*
X134093070Y-80737735D01*
X134093070Y-80737735D02*
X133950213Y-80689355D01*
X133950213Y-80689355D02*
X133902594Y-80640974D01*
X133902594Y-80640974D02*
X133902594Y-80302307D01*
X133902594Y-80302307D02*
X134093070Y-80302307D01*
X169567832Y-96097735D02*
X169567832Y-95081735D01*
X169567832Y-95081735D02*
X169180784Y-95081735D01*
X169180784Y-95081735D02*
X169084022Y-95130116D01*
X169084022Y-95130116D02*
X169035641Y-95178497D01*
X169035641Y-95178497D02*
X168987260Y-95275259D01*
X168987260Y-95275259D02*
X168987260Y-95420402D01*
X168987260Y-95420402D02*
X169035641Y-95517164D01*
X169035641Y-95517164D02*
X169084022Y-95565545D01*
X169084022Y-95565545D02*
X169180784Y-95613926D01*
X169180784Y-95613926D02*
X169567832Y-95613926D01*
X168648594Y-95081735D02*
X168406689Y-96097735D01*
X168406689Y-96097735D02*
X168213165Y-95372021D01*
X168213165Y-95372021D02*
X168019641Y-96097735D01*
X168019641Y-96097735D02*
X167777737Y-95081735D01*
X166810117Y-96097735D02*
X167148784Y-95613926D01*
X167390689Y-96097735D02*
X167390689Y-95081735D01*
X167390689Y-95081735D02*
X167003641Y-95081735D01*
X167003641Y-95081735D02*
X166906879Y-95130116D01*
X166906879Y-95130116D02*
X166858498Y-95178497D01*
X166858498Y-95178497D02*
X166810117Y-95275259D01*
X166810117Y-95275259D02*
X166810117Y-95420402D01*
X166810117Y-95420402D02*
X166858498Y-95517164D01*
X166858498Y-95517164D02*
X166906879Y-95565545D01*
X166906879Y-95565545D02*
X167003641Y-95613926D01*
X167003641Y-95613926D02*
X167390689Y-95613926D01*
X166616594Y-96194497D02*
X165842498Y-96194497D01*
X165407070Y-95081735D02*
X165213546Y-95081735D01*
X165213546Y-95081735D02*
X165116784Y-95130116D01*
X165116784Y-95130116D02*
X165020022Y-95226878D01*
X165020022Y-95226878D02*
X164971641Y-95420402D01*
X164971641Y-95420402D02*
X164971641Y-95759069D01*
X164971641Y-95759069D02*
X165020022Y-95952593D01*
X165020022Y-95952593D02*
X165116784Y-96049355D01*
X165116784Y-96049355D02*
X165213546Y-96097735D01*
X165213546Y-96097735D02*
X165407070Y-96097735D01*
X165407070Y-96097735D02*
X165503832Y-96049355D01*
X165503832Y-96049355D02*
X165600594Y-95952593D01*
X165600594Y-95952593D02*
X165648975Y-95759069D01*
X165648975Y-95759069D02*
X165648975Y-95420402D01*
X165648975Y-95420402D02*
X165600594Y-95226878D01*
X165600594Y-95226878D02*
X165503832Y-95130116D01*
X165503832Y-95130116D02*
X165407070Y-95081735D01*
X164536213Y-96097735D02*
X164536213Y-95081735D01*
X164536213Y-95081735D02*
X163955641Y-96097735D01*
X163955641Y-96097735D02*
X163955641Y-95081735D01*
D11*
X118031866Y-86491674D02*
X119967105Y-86491674D01*
X111381866Y-86441674D02*
X113317105Y-86441674D01*
X112349485Y-85474055D02*
X112349485Y-87409293D01*
D10*
X147804498Y-87991735D02*
X147471165Y-89007735D01*
X147471165Y-89007735D02*
X147137832Y-87991735D01*
X146852117Y-88959355D02*
X146709260Y-89007735D01*
X146709260Y-89007735D02*
X146471165Y-89007735D01*
X146471165Y-89007735D02*
X146375927Y-88959355D01*
X146375927Y-88959355D02*
X146328308Y-88910974D01*
X146328308Y-88910974D02*
X146280689Y-88814212D01*
X146280689Y-88814212D02*
X146280689Y-88717450D01*
X146280689Y-88717450D02*
X146328308Y-88620688D01*
X146328308Y-88620688D02*
X146375927Y-88572307D01*
X146375927Y-88572307D02*
X146471165Y-88523926D01*
X146471165Y-88523926D02*
X146661641Y-88475545D01*
X146661641Y-88475545D02*
X146756879Y-88427164D01*
X146756879Y-88427164D02*
X146804498Y-88378783D01*
X146804498Y-88378783D02*
X146852117Y-88282021D01*
X146852117Y-88282021D02*
X146852117Y-88185259D01*
X146852117Y-88185259D02*
X146804498Y-88088497D01*
X146804498Y-88088497D02*
X146756879Y-88040116D01*
X146756879Y-88040116D02*
X146661641Y-87991735D01*
X146661641Y-87991735D02*
X146423546Y-87991735D01*
X146423546Y-87991735D02*
X146280689Y-88040116D01*
X145852117Y-88475545D02*
X145518784Y-88475545D01*
X145375927Y-89007735D02*
X145852117Y-89007735D01*
X145852117Y-89007735D02*
X145852117Y-87991735D01*
X145852117Y-87991735D02*
X145375927Y-87991735D01*
X144471165Y-89007735D02*
X144947355Y-89007735D01*
X144947355Y-89007735D02*
X144947355Y-87991735D01*
X165655645Y-87506213D02*
X165607264Y-87361070D01*
X165607264Y-87361070D02*
X165607264Y-87119165D01*
X165607264Y-87119165D02*
X165655645Y-87022403D01*
X165655645Y-87022403D02*
X165704025Y-86974022D01*
X165704025Y-86974022D02*
X165800787Y-86925641D01*
X165800787Y-86925641D02*
X165897549Y-86925641D01*
X165897549Y-86925641D02*
X165994311Y-86974022D01*
X165994311Y-86974022D02*
X166042692Y-87022403D01*
X166042692Y-87022403D02*
X166091073Y-87119165D01*
X166091073Y-87119165D02*
X166139454Y-87312689D01*
X166139454Y-87312689D02*
X166187835Y-87409451D01*
X166187835Y-87409451D02*
X166236216Y-87457832D01*
X166236216Y-87457832D02*
X166332978Y-87506213D01*
X166332978Y-87506213D02*
X166429740Y-87506213D01*
X166429740Y-87506213D02*
X166526502Y-87457832D01*
X166526502Y-87457832D02*
X166574883Y-87409451D01*
X166574883Y-87409451D02*
X166623264Y-87312689D01*
X166623264Y-87312689D02*
X166623264Y-87070784D01*
X166623264Y-87070784D02*
X166574883Y-86925641D01*
X166139454Y-86490213D02*
X166139454Y-86151546D01*
X165607264Y-86006403D02*
X165607264Y-86490213D01*
X165607264Y-86490213D02*
X166623264Y-86490213D01*
X166623264Y-86490213D02*
X166623264Y-86006403D01*
X165607264Y-85570975D02*
X166623264Y-85570975D01*
X166623264Y-85570975D02*
X165607264Y-84990403D01*
X165607264Y-84990403D02*
X166623264Y-84990403D01*
X165655645Y-84554975D02*
X165607264Y-84409832D01*
X165607264Y-84409832D02*
X165607264Y-84167927D01*
X165607264Y-84167927D02*
X165655645Y-84071165D01*
X165655645Y-84071165D02*
X165704025Y-84022784D01*
X165704025Y-84022784D02*
X165800787Y-83974403D01*
X165800787Y-83974403D02*
X165897549Y-83974403D01*
X165897549Y-83974403D02*
X165994311Y-84022784D01*
X165994311Y-84022784D02*
X166042692Y-84071165D01*
X166042692Y-84071165D02*
X166091073Y-84167927D01*
X166091073Y-84167927D02*
X166139454Y-84361451D01*
X166139454Y-84361451D02*
X166187835Y-84458213D01*
X166187835Y-84458213D02*
X166236216Y-84506594D01*
X166236216Y-84506594D02*
X166332978Y-84554975D01*
X166332978Y-84554975D02*
X166429740Y-84554975D01*
X166429740Y-84554975D02*
X166526502Y-84506594D01*
X166526502Y-84506594D02*
X166574883Y-84458213D01*
X166574883Y-84458213D02*
X166623264Y-84361451D01*
X166623264Y-84361451D02*
X166623264Y-84119546D01*
X166623264Y-84119546D02*
X166574883Y-83974403D01*
X166623264Y-83345451D02*
X166623264Y-83151927D01*
X166623264Y-83151927D02*
X166574883Y-83055165D01*
X166574883Y-83055165D02*
X166478121Y-82958403D01*
X166478121Y-82958403D02*
X166284597Y-82910022D01*
X166284597Y-82910022D02*
X165945930Y-82910022D01*
X165945930Y-82910022D02*
X165752406Y-82958403D01*
X165752406Y-82958403D02*
X165655645Y-83055165D01*
X165655645Y-83055165D02*
X165607264Y-83151927D01*
X165607264Y-83151927D02*
X165607264Y-83345451D01*
X165607264Y-83345451D02*
X165655645Y-83442213D01*
X165655645Y-83442213D02*
X165752406Y-83538975D01*
X165752406Y-83538975D02*
X165945930Y-83587356D01*
X165945930Y-83587356D02*
X166284597Y-83587356D01*
X166284597Y-83587356D02*
X166478121Y-83538975D01*
X166478121Y-83538975D02*
X166574883Y-83442213D01*
X166574883Y-83442213D02*
X166623264Y-83345451D01*
X165607264Y-81894022D02*
X166091073Y-82232689D01*
X165607264Y-82474594D02*
X166623264Y-82474594D01*
X166623264Y-82474594D02*
X166623264Y-82087546D01*
X166623264Y-82087546D02*
X166574883Y-81990784D01*
X166574883Y-81990784D02*
X166526502Y-81942403D01*
X166526502Y-81942403D02*
X166429740Y-81894022D01*
X166429740Y-81894022D02*
X166284597Y-81894022D01*
X166284597Y-81894022D02*
X166187835Y-81942403D01*
X166187835Y-81942403D02*
X166139454Y-81990784D01*
X166139454Y-81990784D02*
X166091073Y-82087546D01*
X166091073Y-82087546D02*
X166091073Y-82474594D01*
X165704025Y-81458594D02*
X165655645Y-81410213D01*
X165655645Y-81410213D02*
X165607264Y-81458594D01*
X165607264Y-81458594D02*
X165655645Y-81506975D01*
X165655645Y-81506975D02*
X165704025Y-81458594D01*
X165704025Y-81458594D02*
X165607264Y-81458594D01*
X166236216Y-81458594D02*
X166187835Y-81410213D01*
X166187835Y-81410213D02*
X166139454Y-81458594D01*
X166139454Y-81458594D02*
X166187835Y-81506975D01*
X166187835Y-81506975D02*
X166236216Y-81458594D01*
X166236216Y-81458594D02*
X166139454Y-81458594D01*
X165607264Y-79716879D02*
X165607264Y-80200689D01*
X165607264Y-80200689D02*
X166623264Y-80200689D01*
X166139454Y-79378213D02*
X166139454Y-79039546D01*
X165607264Y-78894403D02*
X165607264Y-79378213D01*
X165607264Y-79378213D02*
X166623264Y-79378213D01*
X166623264Y-79378213D02*
X166623264Y-78894403D01*
X166139454Y-78120308D02*
X166139454Y-78458975D01*
X165607264Y-78458975D02*
X166623264Y-78458975D01*
X166623264Y-78458975D02*
X166623264Y-77975165D01*
X166623264Y-77733261D02*
X166623264Y-77152689D01*
X165607264Y-77442975D02*
X166623264Y-77442975D01*
X173253947Y-87387142D02*
X173253947Y-87720475D01*
X172730137Y-87720475D02*
X173730137Y-87720475D01*
X173730137Y-87720475D02*
X173730137Y-87244285D01*
X172730137Y-86863332D02*
X173730137Y-86863332D01*
X173730137Y-86863332D02*
X173730137Y-86482380D01*
X173730137Y-86482380D02*
X173682518Y-86387142D01*
X173682518Y-86387142D02*
X173634899Y-86339523D01*
X173634899Y-86339523D02*
X173539661Y-86291904D01*
X173539661Y-86291904D02*
X173396804Y-86291904D01*
X173396804Y-86291904D02*
X173301566Y-86339523D01*
X173301566Y-86339523D02*
X173253947Y-86387142D01*
X173253947Y-86387142D02*
X173206328Y-86482380D01*
X173206328Y-86482380D02*
X173206328Y-86863332D01*
X173730137Y-85863332D02*
X172920614Y-85863332D01*
X172920614Y-85863332D02*
X172825376Y-85815713D01*
X172825376Y-85815713D02*
X172777757Y-85768094D01*
X172777757Y-85768094D02*
X172730137Y-85672856D01*
X172730137Y-85672856D02*
X172730137Y-85482380D01*
X172730137Y-85482380D02*
X172777757Y-85387142D01*
X172777757Y-85387142D02*
X172825376Y-85339523D01*
X172825376Y-85339523D02*
X172920614Y-85291904D01*
X172920614Y-85291904D02*
X173730137Y-85291904D01*
X172730137Y-84815713D02*
X173730137Y-84815713D01*
X173730137Y-84815713D02*
X172730137Y-84244285D01*
X172730137Y-84244285D02*
X173730137Y-84244285D01*
X173253947Y-83768094D02*
X173253947Y-83434761D01*
X172730137Y-83291904D02*
X172730137Y-83768094D01*
X172730137Y-83768094D02*
X173730137Y-83768094D01*
X173730137Y-83768094D02*
X173730137Y-83291904D01*
X173111090Y-82863332D02*
X173111090Y-82101428D01*
X173682518Y-81101428D02*
X173730137Y-81196666D01*
X173730137Y-81196666D02*
X173730137Y-81339523D01*
X173730137Y-81339523D02*
X173682518Y-81482380D01*
X173682518Y-81482380D02*
X173587280Y-81577618D01*
X173587280Y-81577618D02*
X173492042Y-81625237D01*
X173492042Y-81625237D02*
X173301566Y-81672856D01*
X173301566Y-81672856D02*
X173158709Y-81672856D01*
X173158709Y-81672856D02*
X172968233Y-81625237D01*
X172968233Y-81625237D02*
X172872995Y-81577618D01*
X172872995Y-81577618D02*
X172777757Y-81482380D01*
X172777757Y-81482380D02*
X172730137Y-81339523D01*
X172730137Y-81339523D02*
X172730137Y-81244285D01*
X172730137Y-81244285D02*
X172777757Y-81101428D01*
X172777757Y-81101428D02*
X172825376Y-81053809D01*
X172825376Y-81053809D02*
X173158709Y-81053809D01*
X173158709Y-81053809D02*
X173158709Y-81244285D01*
X173253947Y-80625237D02*
X173253947Y-80291904D01*
X172730137Y-80149047D02*
X172730137Y-80625237D01*
X172730137Y-80625237D02*
X173730137Y-80625237D01*
X173730137Y-80625237D02*
X173730137Y-80149047D01*
X173015852Y-79768094D02*
X173015852Y-79291904D01*
X172730137Y-79863332D02*
X173730137Y-79529999D01*
X173730137Y-79529999D02*
X172730137Y-79196666D01*
X172730137Y-78291904D02*
X173206328Y-78625237D01*
X172730137Y-78863332D02*
X173730137Y-78863332D01*
X173730137Y-78863332D02*
X173730137Y-78482380D01*
X173730137Y-78482380D02*
X173682518Y-78387142D01*
X173682518Y-78387142D02*
X173634899Y-78339523D01*
X173634899Y-78339523D02*
X173539661Y-78291904D01*
X173539661Y-78291904D02*
X173396804Y-78291904D01*
X173396804Y-78291904D02*
X173301566Y-78339523D01*
X173301566Y-78339523D02*
X173253947Y-78387142D01*
X173253947Y-78387142D02*
X173206328Y-78482380D01*
X173206328Y-78482380D02*
X173206328Y-78863332D01*
X171120193Y-90506190D02*
X172120193Y-90506190D01*
X171786860Y-90030000D02*
X171120193Y-90030000D01*
X171691622Y-90030000D02*
X171739241Y-89982381D01*
X171739241Y-89982381D02*
X171786860Y-89887143D01*
X171786860Y-89887143D02*
X171786860Y-89744286D01*
X171786860Y-89744286D02*
X171739241Y-89649048D01*
X171739241Y-89649048D02*
X171644003Y-89601429D01*
X171644003Y-89601429D02*
X171120193Y-89601429D01*
X171167813Y-89172857D02*
X171120193Y-89077619D01*
X171120193Y-89077619D02*
X171120193Y-88887143D01*
X171120193Y-88887143D02*
X171167813Y-88791905D01*
X171167813Y-88791905D02*
X171263051Y-88744286D01*
X171263051Y-88744286D02*
X171310670Y-88744286D01*
X171310670Y-88744286D02*
X171405908Y-88791905D01*
X171405908Y-88791905D02*
X171453527Y-88887143D01*
X171453527Y-88887143D02*
X171453527Y-89030000D01*
X171453527Y-89030000D02*
X171501146Y-89125238D01*
X171501146Y-89125238D02*
X171596384Y-89172857D01*
X171596384Y-89172857D02*
X171644003Y-89172857D01*
X171644003Y-89172857D02*
X171739241Y-89125238D01*
X171739241Y-89125238D02*
X171786860Y-89030000D01*
X171786860Y-89030000D02*
X171786860Y-88887143D01*
X171786860Y-88887143D02*
X171739241Y-88791905D01*
X171120193Y-88172857D02*
X171167813Y-88268095D01*
X171167813Y-88268095D02*
X171215432Y-88315714D01*
X171215432Y-88315714D02*
X171310670Y-88363333D01*
X171310670Y-88363333D02*
X171596384Y-88363333D01*
X171596384Y-88363333D02*
X171691622Y-88315714D01*
X171691622Y-88315714D02*
X171739241Y-88268095D01*
X171739241Y-88268095D02*
X171786860Y-88172857D01*
X171786860Y-88172857D02*
X171786860Y-88030000D01*
X171786860Y-88030000D02*
X171739241Y-87934762D01*
X171739241Y-87934762D02*
X171691622Y-87887143D01*
X171691622Y-87887143D02*
X171596384Y-87839524D01*
X171596384Y-87839524D02*
X171310670Y-87839524D01*
X171310670Y-87839524D02*
X171215432Y-87887143D01*
X171215432Y-87887143D02*
X171167813Y-87934762D01*
X171167813Y-87934762D02*
X171120193Y-88030000D01*
X171120193Y-88030000D02*
X171120193Y-88172857D01*
X171120193Y-87268095D02*
X171167813Y-87363333D01*
X171167813Y-87363333D02*
X171263051Y-87410952D01*
X171263051Y-87410952D02*
X172120193Y-87410952D01*
X171167813Y-86506190D02*
X171120193Y-86601428D01*
X171120193Y-86601428D02*
X171120193Y-86791904D01*
X171120193Y-86791904D02*
X171167813Y-86887142D01*
X171167813Y-86887142D02*
X171263051Y-86934761D01*
X171263051Y-86934761D02*
X171644003Y-86934761D01*
X171644003Y-86934761D02*
X171739241Y-86887142D01*
X171739241Y-86887142D02*
X171786860Y-86791904D01*
X171786860Y-86791904D02*
X171786860Y-86601428D01*
X171786860Y-86601428D02*
X171739241Y-86506190D01*
X171739241Y-86506190D02*
X171644003Y-86458571D01*
X171644003Y-86458571D02*
X171548765Y-86458571D01*
X171548765Y-86458571D02*
X171453527Y-86934761D01*
X171024955Y-86268095D02*
X171024955Y-85506190D01*
X172120193Y-85410951D02*
X171120193Y-85077618D01*
X171120193Y-85077618D02*
X172120193Y-84744285D01*
X171120193Y-83887142D02*
X171120193Y-84458570D01*
X171120193Y-84172856D02*
X172120193Y-84172856D01*
X172120193Y-84172856D02*
X171977336Y-84268094D01*
X171977336Y-84268094D02*
X171882098Y-84363332D01*
X171882098Y-84363332D02*
X171834479Y-84458570D01*
X171215432Y-83458570D02*
X171167813Y-83410951D01*
X171167813Y-83410951D02*
X171120193Y-83458570D01*
X171120193Y-83458570D02*
X171167813Y-83506189D01*
X171167813Y-83506189D02*
X171215432Y-83458570D01*
X171215432Y-83458570D02*
X171120193Y-83458570D01*
X172120193Y-82791904D02*
X172120193Y-82696666D01*
X172120193Y-82696666D02*
X172072574Y-82601428D01*
X172072574Y-82601428D02*
X172024955Y-82553809D01*
X172024955Y-82553809D02*
X171929717Y-82506190D01*
X171929717Y-82506190D02*
X171739241Y-82458571D01*
X171739241Y-82458571D02*
X171501146Y-82458571D01*
X171501146Y-82458571D02*
X171310670Y-82506190D01*
X171310670Y-82506190D02*
X171215432Y-82553809D01*
X171215432Y-82553809D02*
X171167813Y-82601428D01*
X171167813Y-82601428D02*
X171120193Y-82696666D01*
X171120193Y-82696666D02*
X171120193Y-82791904D01*
X171120193Y-82791904D02*
X171167813Y-82887142D01*
X171167813Y-82887142D02*
X171215432Y-82934761D01*
X171215432Y-82934761D02*
X171310670Y-82982380D01*
X171310670Y-82982380D02*
X171501146Y-83029999D01*
X171501146Y-83029999D02*
X171739241Y-83029999D01*
X171739241Y-83029999D02*
X171929717Y-82982380D01*
X171929717Y-82982380D02*
X172024955Y-82934761D01*
X172024955Y-82934761D02*
X172072574Y-82887142D01*
X172072574Y-82887142D02*
X172120193Y-82791904D01*
X172167813Y-80553809D02*
X170882098Y-81410951D01*
X171120193Y-78887142D02*
X171596384Y-79220475D01*
X171120193Y-79458570D02*
X172120193Y-79458570D01*
X172120193Y-79458570D02*
X172120193Y-79077618D01*
X172120193Y-79077618D02*
X172072574Y-78982380D01*
X172072574Y-78982380D02*
X172024955Y-78934761D01*
X172024955Y-78934761D02*
X171929717Y-78887142D01*
X171929717Y-78887142D02*
X171786860Y-78887142D01*
X171786860Y-78887142D02*
X171691622Y-78934761D01*
X171691622Y-78934761D02*
X171644003Y-78982380D01*
X171644003Y-78982380D02*
X171596384Y-79077618D01*
X171596384Y-79077618D02*
X171596384Y-79458570D01*
X171644003Y-78458570D02*
X171644003Y-78125237D01*
X171120193Y-77982380D02*
X171120193Y-78458570D01*
X171120193Y-78458570D02*
X172120193Y-78458570D01*
X172120193Y-78458570D02*
X172120193Y-77982380D01*
X172120193Y-77696665D02*
X171120193Y-77363332D01*
X171120193Y-77363332D02*
X172120193Y-77029999D01*
X171405908Y-75982379D02*
X171405908Y-75506189D01*
X171120193Y-76077617D02*
X172120193Y-75744284D01*
X172120193Y-75744284D02*
X171120193Y-75410951D01*
X169510249Y-85649047D02*
X169510249Y-86220475D01*
X169510249Y-85934761D02*
X170510249Y-85934761D01*
X170510249Y-85934761D02*
X170367392Y-86029999D01*
X170367392Y-86029999D02*
X170272154Y-86125237D01*
X170272154Y-86125237D02*
X170224535Y-86220475D01*
X170415011Y-85268094D02*
X170462630Y-85220475D01*
X170462630Y-85220475D02*
X170510249Y-85125237D01*
X170510249Y-85125237D02*
X170510249Y-84887142D01*
X170510249Y-84887142D02*
X170462630Y-84791904D01*
X170462630Y-84791904D02*
X170415011Y-84744285D01*
X170415011Y-84744285D02*
X170319773Y-84696666D01*
X170319773Y-84696666D02*
X170224535Y-84696666D01*
X170224535Y-84696666D02*
X170081678Y-84744285D01*
X170081678Y-84744285D02*
X169510249Y-85315713D01*
X169510249Y-85315713D02*
X169510249Y-84696666D01*
X170557869Y-83553809D02*
X169272154Y-84410951D01*
X170415011Y-83268094D02*
X170462630Y-83220475D01*
X170462630Y-83220475D02*
X170510249Y-83125237D01*
X170510249Y-83125237D02*
X170510249Y-82887142D01*
X170510249Y-82887142D02*
X170462630Y-82791904D01*
X170462630Y-82791904D02*
X170415011Y-82744285D01*
X170415011Y-82744285D02*
X170319773Y-82696666D01*
X170319773Y-82696666D02*
X170224535Y-82696666D01*
X170224535Y-82696666D02*
X170081678Y-82744285D01*
X170081678Y-82744285D02*
X169510249Y-83315713D01*
X169510249Y-83315713D02*
X169510249Y-82696666D01*
X170510249Y-82077618D02*
X170510249Y-81982380D01*
X170510249Y-81982380D02*
X170462630Y-81887142D01*
X170462630Y-81887142D02*
X170415011Y-81839523D01*
X170415011Y-81839523D02*
X170319773Y-81791904D01*
X170319773Y-81791904D02*
X170129297Y-81744285D01*
X170129297Y-81744285D02*
X169891202Y-81744285D01*
X169891202Y-81744285D02*
X169700726Y-81791904D01*
X169700726Y-81791904D02*
X169605488Y-81839523D01*
X169605488Y-81839523D02*
X169557869Y-81887142D01*
X169557869Y-81887142D02*
X169510249Y-81982380D01*
X169510249Y-81982380D02*
X169510249Y-82077618D01*
X169510249Y-82077618D02*
X169557869Y-82172856D01*
X169557869Y-82172856D02*
X169605488Y-82220475D01*
X169605488Y-82220475D02*
X169700726Y-82268094D01*
X169700726Y-82268094D02*
X169891202Y-82315713D01*
X169891202Y-82315713D02*
X170129297Y-82315713D01*
X170129297Y-82315713D02*
X170319773Y-82268094D01*
X170319773Y-82268094D02*
X170415011Y-82220475D01*
X170415011Y-82220475D02*
X170462630Y-82172856D01*
X170462630Y-82172856D02*
X170510249Y-82077618D01*
X170415011Y-81363332D02*
X170462630Y-81315713D01*
X170462630Y-81315713D02*
X170510249Y-81220475D01*
X170510249Y-81220475D02*
X170510249Y-80982380D01*
X170510249Y-80982380D02*
X170462630Y-80887142D01*
X170462630Y-80887142D02*
X170415011Y-80839523D01*
X170415011Y-80839523D02*
X170319773Y-80791904D01*
X170319773Y-80791904D02*
X170224535Y-80791904D01*
X170224535Y-80791904D02*
X170081678Y-80839523D01*
X170081678Y-80839523D02*
X169510249Y-81410951D01*
X169510249Y-81410951D02*
X169510249Y-80791904D01*
X170510249Y-79887142D02*
X170510249Y-80363332D01*
X170510249Y-80363332D02*
X170034059Y-80410951D01*
X170034059Y-80410951D02*
X170081678Y-80363332D01*
X170081678Y-80363332D02*
X170129297Y-80268094D01*
X170129297Y-80268094D02*
X170129297Y-80029999D01*
X170129297Y-80029999D02*
X170081678Y-79934761D01*
X170081678Y-79934761D02*
X170034059Y-79887142D01*
X170034059Y-79887142D02*
X169938821Y-79839523D01*
X169938821Y-79839523D02*
X169700726Y-79839523D01*
X169700726Y-79839523D02*
X169605488Y-79887142D01*
X169605488Y-79887142D02*
X169557869Y-79934761D01*
X169557869Y-79934761D02*
X169510249Y-80029999D01*
X169510249Y-80029999D02*
X169510249Y-80268094D01*
X169510249Y-80268094D02*
X169557869Y-80363332D01*
X169557869Y-80363332D02*
X169605488Y-80410951D01*
X167900305Y-87410951D02*
X168900305Y-87410951D01*
X168566972Y-86934761D02*
X167900305Y-86934761D01*
X168471734Y-86934761D02*
X168519353Y-86887142D01*
X168519353Y-86887142D02*
X168566972Y-86791904D01*
X168566972Y-86791904D02*
X168566972Y-86649047D01*
X168566972Y-86649047D02*
X168519353Y-86553809D01*
X168519353Y-86553809D02*
X168424115Y-86506190D01*
X168424115Y-86506190D02*
X167900305Y-86506190D01*
X168566972Y-85601428D02*
X167757448Y-85601428D01*
X167757448Y-85601428D02*
X167662210Y-85649047D01*
X167662210Y-85649047D02*
X167614591Y-85696666D01*
X167614591Y-85696666D02*
X167566972Y-85791904D01*
X167566972Y-85791904D02*
X167566972Y-85934761D01*
X167566972Y-85934761D02*
X167614591Y-86029999D01*
X167947925Y-85601428D02*
X167900305Y-85696666D01*
X167900305Y-85696666D02*
X167900305Y-85887142D01*
X167900305Y-85887142D02*
X167947925Y-85982380D01*
X167947925Y-85982380D02*
X167995544Y-86029999D01*
X167995544Y-86029999D02*
X168090782Y-86077618D01*
X168090782Y-86077618D02*
X168376496Y-86077618D01*
X168376496Y-86077618D02*
X168471734Y-86029999D01*
X168471734Y-86029999D02*
X168519353Y-85982380D01*
X168519353Y-85982380D02*
X168566972Y-85887142D01*
X168566972Y-85887142D02*
X168566972Y-85696666D01*
X168566972Y-85696666D02*
X168519353Y-85601428D01*
X167995544Y-85125237D02*
X167947925Y-85077618D01*
X167947925Y-85077618D02*
X167900305Y-85125237D01*
X167900305Y-85125237D02*
X167947925Y-85172856D01*
X167947925Y-85172856D02*
X167995544Y-85125237D01*
X167995544Y-85125237D02*
X167900305Y-85125237D01*
X167900305Y-83315714D02*
X168376496Y-83649047D01*
X167900305Y-83887142D02*
X168900305Y-83887142D01*
X168900305Y-83887142D02*
X168900305Y-83506190D01*
X168900305Y-83506190D02*
X168852686Y-83410952D01*
X168852686Y-83410952D02*
X168805067Y-83363333D01*
X168805067Y-83363333D02*
X168709829Y-83315714D01*
X168709829Y-83315714D02*
X168566972Y-83315714D01*
X168566972Y-83315714D02*
X168471734Y-83363333D01*
X168471734Y-83363333D02*
X168424115Y-83410952D01*
X168424115Y-83410952D02*
X168376496Y-83506190D01*
X168376496Y-83506190D02*
X168376496Y-83887142D01*
X167947925Y-82506190D02*
X167900305Y-82601428D01*
X167900305Y-82601428D02*
X167900305Y-82791904D01*
X167900305Y-82791904D02*
X167947925Y-82887142D01*
X167947925Y-82887142D02*
X168043163Y-82934761D01*
X168043163Y-82934761D02*
X168424115Y-82934761D01*
X168424115Y-82934761D02*
X168519353Y-82887142D01*
X168519353Y-82887142D02*
X168566972Y-82791904D01*
X168566972Y-82791904D02*
X168566972Y-82601428D01*
X168566972Y-82601428D02*
X168519353Y-82506190D01*
X168519353Y-82506190D02*
X168424115Y-82458571D01*
X168424115Y-82458571D02*
X168328877Y-82458571D01*
X168328877Y-82458571D02*
X168233639Y-82934761D01*
X168566972Y-82029999D02*
X167900305Y-82029999D01*
X168471734Y-82029999D02*
X168519353Y-81982380D01*
X168519353Y-81982380D02*
X168566972Y-81887142D01*
X168566972Y-81887142D02*
X168566972Y-81744285D01*
X168566972Y-81744285D02*
X168519353Y-81649047D01*
X168519353Y-81649047D02*
X168424115Y-81601428D01*
X168424115Y-81601428D02*
X167900305Y-81601428D01*
X167947925Y-80744285D02*
X167900305Y-80839523D01*
X167900305Y-80839523D02*
X167900305Y-81029999D01*
X167900305Y-81029999D02*
X167947925Y-81125237D01*
X167947925Y-81125237D02*
X168043163Y-81172856D01*
X168043163Y-81172856D02*
X168424115Y-81172856D01*
X168424115Y-81172856D02*
X168519353Y-81125237D01*
X168519353Y-81125237D02*
X168566972Y-81029999D01*
X168566972Y-81029999D02*
X168566972Y-80839523D01*
X168566972Y-80839523D02*
X168519353Y-80744285D01*
X168519353Y-80744285D02*
X168424115Y-80696666D01*
X168424115Y-80696666D02*
X168328877Y-80696666D01*
X168328877Y-80696666D02*
X168233639Y-81172856D01*
X168947925Y-80839523D02*
X168805067Y-80982380D01*
X168186020Y-79553808D02*
X168186020Y-79077618D01*
X167900305Y-79649046D02*
X168900305Y-79315713D01*
X168900305Y-79315713D02*
X167900305Y-78982380D01*
X167995544Y-78649046D02*
X167947925Y-78601427D01*
X167947925Y-78601427D02*
X167900305Y-78649046D01*
X167900305Y-78649046D02*
X167947925Y-78696665D01*
X167947925Y-78696665D02*
X167995544Y-78649046D01*
X167995544Y-78649046D02*
X167900305Y-78649046D01*
X133517857Y-90334455D02*
X133565476Y-90382075D01*
X133565476Y-90382075D02*
X133708333Y-90429694D01*
X133708333Y-90429694D02*
X133803571Y-90429694D01*
X133803571Y-90429694D02*
X133946428Y-90382075D01*
X133946428Y-90382075D02*
X134041666Y-90286836D01*
X134041666Y-90286836D02*
X134089285Y-90191598D01*
X134089285Y-90191598D02*
X134136904Y-90001122D01*
X134136904Y-90001122D02*
X134136904Y-89858265D01*
X134136904Y-89858265D02*
X134089285Y-89667789D01*
X134089285Y-89667789D02*
X134041666Y-89572551D01*
X134041666Y-89572551D02*
X133946428Y-89477313D01*
X133946428Y-89477313D02*
X133803571Y-89429694D01*
X133803571Y-89429694D02*
X133708333Y-89429694D01*
X133708333Y-89429694D02*
X133565476Y-89477313D01*
X133565476Y-89477313D02*
X133517857Y-89524932D01*
X132565476Y-90429694D02*
X133136904Y-90429694D01*
X132851190Y-90429694D02*
X132851190Y-89429694D01*
X132851190Y-89429694D02*
X132946428Y-89572551D01*
X132946428Y-89572551D02*
X133041666Y-89667789D01*
X133041666Y-89667789D02*
X133136904Y-89715408D01*
X131708333Y-89429694D02*
X131898809Y-89429694D01*
X131898809Y-89429694D02*
X131994047Y-89477313D01*
X131994047Y-89477313D02*
X132041666Y-89524932D01*
X132041666Y-89524932D02*
X132136904Y-89667789D01*
X132136904Y-89667789D02*
X132184523Y-89858265D01*
X132184523Y-89858265D02*
X132184523Y-90239217D01*
X132184523Y-90239217D02*
X132136904Y-90334455D01*
X132136904Y-90334455D02*
X132089285Y-90382075D01*
X132089285Y-90382075D02*
X131994047Y-90429694D01*
X131994047Y-90429694D02*
X131803571Y-90429694D01*
X131803571Y-90429694D02*
X131708333Y-90382075D01*
X131708333Y-90382075D02*
X131660714Y-90334455D01*
X131660714Y-90334455D02*
X131613095Y-90239217D01*
X131613095Y-90239217D02*
X131613095Y-90001122D01*
X131613095Y-90001122D02*
X131660714Y-89905884D01*
X131660714Y-89905884D02*
X131708333Y-89858265D01*
X131708333Y-89858265D02*
X131803571Y-89810646D01*
X131803571Y-89810646D02*
X131994047Y-89810646D01*
X131994047Y-89810646D02*
X132089285Y-89858265D01*
X132089285Y-89858265D02*
X132136904Y-89905884D01*
X132136904Y-89905884D02*
X132184523Y-90001122D01*
X138424694Y-92707142D02*
X137948503Y-92373809D01*
X138424694Y-92135714D02*
X137424694Y-92135714D01*
X137424694Y-92135714D02*
X137424694Y-92516666D01*
X137424694Y-92516666D02*
X137472313Y-92611904D01*
X137472313Y-92611904D02*
X137519932Y-92659523D01*
X137519932Y-92659523D02*
X137615170Y-92707142D01*
X137615170Y-92707142D02*
X137758027Y-92707142D01*
X137758027Y-92707142D02*
X137853265Y-92659523D01*
X137853265Y-92659523D02*
X137900884Y-92611904D01*
X137900884Y-92611904D02*
X137948503Y-92516666D01*
X137948503Y-92516666D02*
X137948503Y-92135714D01*
X137519932Y-93088095D02*
X137472313Y-93135714D01*
X137472313Y-93135714D02*
X137424694Y-93230952D01*
X137424694Y-93230952D02*
X137424694Y-93469047D01*
X137424694Y-93469047D02*
X137472313Y-93564285D01*
X137472313Y-93564285D02*
X137519932Y-93611904D01*
X137519932Y-93611904D02*
X137615170Y-93659523D01*
X137615170Y-93659523D02*
X137710408Y-93659523D01*
X137710408Y-93659523D02*
X137853265Y-93611904D01*
X137853265Y-93611904D02*
X138424694Y-93040476D01*
X138424694Y-93040476D02*
X138424694Y-93659523D01*
X137424694Y-94564285D02*
X137424694Y-94088095D01*
X137424694Y-94088095D02*
X137900884Y-94040476D01*
X137900884Y-94040476D02*
X137853265Y-94088095D01*
X137853265Y-94088095D02*
X137805646Y-94183333D01*
X137805646Y-94183333D02*
X137805646Y-94421428D01*
X137805646Y-94421428D02*
X137853265Y-94516666D01*
X137853265Y-94516666D02*
X137900884Y-94564285D01*
X137900884Y-94564285D02*
X137996122Y-94611904D01*
X137996122Y-94611904D02*
X138234217Y-94611904D01*
X138234217Y-94611904D02*
X138329455Y-94564285D01*
X138329455Y-94564285D02*
X138377075Y-94516666D01*
X138377075Y-94516666D02*
X138424694Y-94421428D01*
X138424694Y-94421428D02*
X138424694Y-94183333D01*
X138424694Y-94183333D02*
X138377075Y-94088095D01*
X138377075Y-94088095D02*
X138329455Y-94040476D01*
X121592857Y-90154694D02*
X121926190Y-89678503D01*
X122164285Y-90154694D02*
X122164285Y-89154694D01*
X122164285Y-89154694D02*
X121783333Y-89154694D01*
X121783333Y-89154694D02*
X121688095Y-89202313D01*
X121688095Y-89202313D02*
X121640476Y-89249932D01*
X121640476Y-89249932D02*
X121592857Y-89345170D01*
X121592857Y-89345170D02*
X121592857Y-89488027D01*
X121592857Y-89488027D02*
X121640476Y-89583265D01*
X121640476Y-89583265D02*
X121688095Y-89630884D01*
X121688095Y-89630884D02*
X121783333Y-89678503D01*
X121783333Y-89678503D02*
X122164285Y-89678503D01*
X120640476Y-90154694D02*
X121211904Y-90154694D01*
X120926190Y-90154694D02*
X120926190Y-89154694D01*
X120926190Y-89154694D02*
X121021428Y-89297551D01*
X121021428Y-89297551D02*
X121116666Y-89392789D01*
X121116666Y-89392789D02*
X121211904Y-89440408D01*
X120307142Y-89154694D02*
X119688095Y-89154694D01*
X119688095Y-89154694D02*
X120021428Y-89535646D01*
X120021428Y-89535646D02*
X119878571Y-89535646D01*
X119878571Y-89535646D02*
X119783333Y-89583265D01*
X119783333Y-89583265D02*
X119735714Y-89630884D01*
X119735714Y-89630884D02*
X119688095Y-89726122D01*
X119688095Y-89726122D02*
X119688095Y-89964217D01*
X119688095Y-89964217D02*
X119735714Y-90059455D01*
X119735714Y-90059455D02*
X119783333Y-90107075D01*
X119783333Y-90107075D02*
X119878571Y-90154694D01*
X119878571Y-90154694D02*
X120164285Y-90154694D01*
X120164285Y-90154694D02*
X120259523Y-90107075D01*
X120259523Y-90107075D02*
X120307142Y-90059455D01*
X134359455Y-71657142D02*
X134407075Y-71609523D01*
X134407075Y-71609523D02*
X134454694Y-71466666D01*
X134454694Y-71466666D02*
X134454694Y-71371428D01*
X134454694Y-71371428D02*
X134407075Y-71228571D01*
X134407075Y-71228571D02*
X134311836Y-71133333D01*
X134311836Y-71133333D02*
X134216598Y-71085714D01*
X134216598Y-71085714D02*
X134026122Y-71038095D01*
X134026122Y-71038095D02*
X133883265Y-71038095D01*
X133883265Y-71038095D02*
X133692789Y-71085714D01*
X133692789Y-71085714D02*
X133597551Y-71133333D01*
X133597551Y-71133333D02*
X133502313Y-71228571D01*
X133502313Y-71228571D02*
X133454694Y-71371428D01*
X133454694Y-71371428D02*
X133454694Y-71466666D01*
X133454694Y-71466666D02*
X133502313Y-71609523D01*
X133502313Y-71609523D02*
X133549932Y-71657142D01*
X134454694Y-72609523D02*
X134454694Y-72038095D01*
X134454694Y-72323809D02*
X133454694Y-72323809D01*
X133454694Y-72323809D02*
X133597551Y-72228571D01*
X133597551Y-72228571D02*
X133692789Y-72133333D01*
X133692789Y-72133333D02*
X133740408Y-72038095D01*
X133454694Y-73514285D02*
X133454694Y-73038095D01*
X133454694Y-73038095D02*
X133930884Y-72990476D01*
X133930884Y-72990476D02*
X133883265Y-73038095D01*
X133883265Y-73038095D02*
X133835646Y-73133333D01*
X133835646Y-73133333D02*
X133835646Y-73371428D01*
X133835646Y-73371428D02*
X133883265Y-73466666D01*
X133883265Y-73466666D02*
X133930884Y-73514285D01*
X133930884Y-73514285D02*
X134026122Y-73561904D01*
X134026122Y-73561904D02*
X134264217Y-73561904D01*
X134264217Y-73561904D02*
X134359455Y-73514285D01*
X134359455Y-73514285D02*
X134407075Y-73466666D01*
X134407075Y-73466666D02*
X134454694Y-73371428D01*
X134454694Y-73371428D02*
X134454694Y-73133333D01*
X134454694Y-73133333D02*
X134407075Y-73038095D01*
X134407075Y-73038095D02*
X134359455Y-72990476D01*
X121966333Y-91844294D02*
X121966333Y-92558579D01*
X121966333Y-92558579D02*
X122013952Y-92701436D01*
X122013952Y-92701436D02*
X122109190Y-92796675D01*
X122109190Y-92796675D02*
X122252047Y-92844294D01*
X122252047Y-92844294D02*
X122347285Y-92844294D01*
X121490142Y-92844294D02*
X121490142Y-91844294D01*
X121490142Y-91844294D02*
X121109190Y-91844294D01*
X121109190Y-91844294D02*
X121013952Y-91891913D01*
X121013952Y-91891913D02*
X120966333Y-91939532D01*
X120966333Y-91939532D02*
X120918714Y-92034770D01*
X120918714Y-92034770D02*
X120918714Y-92177627D01*
X120918714Y-92177627D02*
X120966333Y-92272865D01*
X120966333Y-92272865D02*
X121013952Y-92320484D01*
X121013952Y-92320484D02*
X121109190Y-92368103D01*
X121109190Y-92368103D02*
X121490142Y-92368103D01*
X120537761Y-91939532D02*
X120490142Y-91891913D01*
X120490142Y-91891913D02*
X120394904Y-91844294D01*
X120394904Y-91844294D02*
X120156809Y-91844294D01*
X120156809Y-91844294D02*
X120061571Y-91891913D01*
X120061571Y-91891913D02*
X120013952Y-91939532D01*
X120013952Y-91939532D02*
X119966333Y-92034770D01*
X119966333Y-92034770D02*
X119966333Y-92130008D01*
X119966333Y-92130008D02*
X120013952Y-92272865D01*
X120013952Y-92272865D02*
X120585380Y-92844294D01*
X120585380Y-92844294D02*
X119966333Y-92844294D01*
X121592857Y-88154694D02*
X121926190Y-87678503D01*
X122164285Y-88154694D02*
X122164285Y-87154694D01*
X122164285Y-87154694D02*
X121783333Y-87154694D01*
X121783333Y-87154694D02*
X121688095Y-87202313D01*
X121688095Y-87202313D02*
X121640476Y-87249932D01*
X121640476Y-87249932D02*
X121592857Y-87345170D01*
X121592857Y-87345170D02*
X121592857Y-87488027D01*
X121592857Y-87488027D02*
X121640476Y-87583265D01*
X121640476Y-87583265D02*
X121688095Y-87630884D01*
X121688095Y-87630884D02*
X121783333Y-87678503D01*
X121783333Y-87678503D02*
X122164285Y-87678503D01*
X121211904Y-87249932D02*
X121164285Y-87202313D01*
X121164285Y-87202313D02*
X121069047Y-87154694D01*
X121069047Y-87154694D02*
X120830952Y-87154694D01*
X120830952Y-87154694D02*
X120735714Y-87202313D01*
X120735714Y-87202313D02*
X120688095Y-87249932D01*
X120688095Y-87249932D02*
X120640476Y-87345170D01*
X120640476Y-87345170D02*
X120640476Y-87440408D01*
X120640476Y-87440408D02*
X120688095Y-87583265D01*
X120688095Y-87583265D02*
X121259523Y-88154694D01*
X121259523Y-88154694D02*
X120640476Y-88154694D01*
X120307142Y-87154694D02*
X119640476Y-87154694D01*
X119640476Y-87154694D02*
X120069047Y-88154694D01*
X150416333Y-90269294D02*
X150416333Y-90983579D01*
X150416333Y-90983579D02*
X150463952Y-91126436D01*
X150463952Y-91126436D02*
X150559190Y-91221675D01*
X150559190Y-91221675D02*
X150702047Y-91269294D01*
X150702047Y-91269294D02*
X150797285Y-91269294D01*
X149940142Y-91269294D02*
X149940142Y-90269294D01*
X149940142Y-90269294D02*
X149559190Y-90269294D01*
X149559190Y-90269294D02*
X149463952Y-90316913D01*
X149463952Y-90316913D02*
X149416333Y-90364532D01*
X149416333Y-90364532D02*
X149368714Y-90459770D01*
X149368714Y-90459770D02*
X149368714Y-90602627D01*
X149368714Y-90602627D02*
X149416333Y-90697865D01*
X149416333Y-90697865D02*
X149463952Y-90745484D01*
X149463952Y-90745484D02*
X149559190Y-90793103D01*
X149559190Y-90793103D02*
X149940142Y-90793103D01*
X148416333Y-91269294D02*
X148987761Y-91269294D01*
X148702047Y-91269294D02*
X148702047Y-90269294D01*
X148702047Y-90269294D02*
X148797285Y-90412151D01*
X148797285Y-90412151D02*
X148892523Y-90507389D01*
X148892523Y-90507389D02*
X148987761Y-90555008D01*
X130679694Y-82089286D02*
X130679694Y-82660714D01*
X131679694Y-82375000D02*
X130679694Y-82375000D01*
X131679694Y-82994048D02*
X130679694Y-82994048D01*
X131155884Y-82994048D02*
X131155884Y-83565476D01*
X131679694Y-83565476D02*
X130679694Y-83565476D01*
X131679694Y-84565476D02*
X131679694Y-83994048D01*
X131679694Y-84279762D02*
X130679694Y-84279762D01*
X130679694Y-84279762D02*
X130822551Y-84184524D01*
X130822551Y-84184524D02*
X130917789Y-84089286D01*
X130917789Y-84089286D02*
X130965408Y-83994048D01*
X127922857Y-77276955D02*
X127970476Y-77324575D01*
X127970476Y-77324575D02*
X128113333Y-77372194D01*
X128113333Y-77372194D02*
X128208571Y-77372194D01*
X128208571Y-77372194D02*
X128351428Y-77324575D01*
X128351428Y-77324575D02*
X128446666Y-77229336D01*
X128446666Y-77229336D02*
X128494285Y-77134098D01*
X128494285Y-77134098D02*
X128541904Y-76943622D01*
X128541904Y-76943622D02*
X128541904Y-76800765D01*
X128541904Y-76800765D02*
X128494285Y-76610289D01*
X128494285Y-76610289D02*
X128446666Y-76515051D01*
X128446666Y-76515051D02*
X128351428Y-76419813D01*
X128351428Y-76419813D02*
X128208571Y-76372194D01*
X128208571Y-76372194D02*
X128113333Y-76372194D01*
X128113333Y-76372194D02*
X127970476Y-76419813D01*
X127970476Y-76419813D02*
X127922857Y-76467432D01*
X127541904Y-76467432D02*
X127494285Y-76419813D01*
X127494285Y-76419813D02*
X127399047Y-76372194D01*
X127399047Y-76372194D02*
X127160952Y-76372194D01*
X127160952Y-76372194D02*
X127065714Y-76419813D01*
X127065714Y-76419813D02*
X127018095Y-76467432D01*
X127018095Y-76467432D02*
X126970476Y-76562670D01*
X126970476Y-76562670D02*
X126970476Y-76657908D01*
X126970476Y-76657908D02*
X127018095Y-76800765D01*
X127018095Y-76800765D02*
X127589523Y-77372194D01*
X127589523Y-77372194D02*
X126970476Y-77372194D01*
X126113333Y-76705527D02*
X126113333Y-77372194D01*
X126351428Y-76324575D02*
X126589523Y-77038860D01*
X126589523Y-77038860D02*
X125970476Y-77038860D01*
X136944694Y-92687142D02*
X136468503Y-92353809D01*
X136944694Y-92115714D02*
X135944694Y-92115714D01*
X135944694Y-92115714D02*
X135944694Y-92496666D01*
X135944694Y-92496666D02*
X135992313Y-92591904D01*
X135992313Y-92591904D02*
X136039932Y-92639523D01*
X136039932Y-92639523D02*
X136135170Y-92687142D01*
X136135170Y-92687142D02*
X136278027Y-92687142D01*
X136278027Y-92687142D02*
X136373265Y-92639523D01*
X136373265Y-92639523D02*
X136420884Y-92591904D01*
X136420884Y-92591904D02*
X136468503Y-92496666D01*
X136468503Y-92496666D02*
X136468503Y-92115714D01*
X136039932Y-93068095D02*
X135992313Y-93115714D01*
X135992313Y-93115714D02*
X135944694Y-93210952D01*
X135944694Y-93210952D02*
X135944694Y-93449047D01*
X135944694Y-93449047D02*
X135992313Y-93544285D01*
X135992313Y-93544285D02*
X136039932Y-93591904D01*
X136039932Y-93591904D02*
X136135170Y-93639523D01*
X136135170Y-93639523D02*
X136230408Y-93639523D01*
X136230408Y-93639523D02*
X136373265Y-93591904D01*
X136373265Y-93591904D02*
X136944694Y-93020476D01*
X136944694Y-93020476D02*
X136944694Y-93639523D01*
X135944694Y-94496666D02*
X135944694Y-94306190D01*
X135944694Y-94306190D02*
X135992313Y-94210952D01*
X135992313Y-94210952D02*
X136039932Y-94163333D01*
X136039932Y-94163333D02*
X136182789Y-94068095D01*
X136182789Y-94068095D02*
X136373265Y-94020476D01*
X136373265Y-94020476D02*
X136754217Y-94020476D01*
X136754217Y-94020476D02*
X136849455Y-94068095D01*
X136849455Y-94068095D02*
X136897075Y-94115714D01*
X136897075Y-94115714D02*
X136944694Y-94210952D01*
X136944694Y-94210952D02*
X136944694Y-94401428D01*
X136944694Y-94401428D02*
X136897075Y-94496666D01*
X136897075Y-94496666D02*
X136849455Y-94544285D01*
X136849455Y-94544285D02*
X136754217Y-94591904D01*
X136754217Y-94591904D02*
X136516122Y-94591904D01*
X136516122Y-94591904D02*
X136420884Y-94544285D01*
X136420884Y-94544285D02*
X136373265Y-94496666D01*
X136373265Y-94496666D02*
X136325646Y-94401428D01*
X136325646Y-94401428D02*
X136325646Y-94210952D01*
X136325646Y-94210952D02*
X136373265Y-94115714D01*
X136373265Y-94115714D02*
X136420884Y-94068095D01*
X136420884Y-94068095D02*
X136516122Y-94020476D01*
X165822857Y-92774694D02*
X166156190Y-92298503D01*
X166394285Y-92774694D02*
X166394285Y-91774694D01*
X166394285Y-91774694D02*
X166013333Y-91774694D01*
X166013333Y-91774694D02*
X165918095Y-91822313D01*
X165918095Y-91822313D02*
X165870476Y-91869932D01*
X165870476Y-91869932D02*
X165822857Y-91965170D01*
X165822857Y-91965170D02*
X165822857Y-92108027D01*
X165822857Y-92108027D02*
X165870476Y-92203265D01*
X165870476Y-92203265D02*
X165918095Y-92250884D01*
X165918095Y-92250884D02*
X166013333Y-92298503D01*
X166013333Y-92298503D02*
X166394285Y-92298503D01*
X165441904Y-91869932D02*
X165394285Y-91822313D01*
X165394285Y-91822313D02*
X165299047Y-91774694D01*
X165299047Y-91774694D02*
X165060952Y-91774694D01*
X165060952Y-91774694D02*
X164965714Y-91822313D01*
X164965714Y-91822313D02*
X164918095Y-91869932D01*
X164918095Y-91869932D02*
X164870476Y-91965170D01*
X164870476Y-91965170D02*
X164870476Y-92060408D01*
X164870476Y-92060408D02*
X164918095Y-92203265D01*
X164918095Y-92203265D02*
X165489523Y-92774694D01*
X165489523Y-92774694D02*
X164870476Y-92774694D01*
X164299047Y-92203265D02*
X164394285Y-92155646D01*
X164394285Y-92155646D02*
X164441904Y-92108027D01*
X164441904Y-92108027D02*
X164489523Y-92012789D01*
X164489523Y-92012789D02*
X164489523Y-91965170D01*
X164489523Y-91965170D02*
X164441904Y-91869932D01*
X164441904Y-91869932D02*
X164394285Y-91822313D01*
X164394285Y-91822313D02*
X164299047Y-91774694D01*
X164299047Y-91774694D02*
X164108571Y-91774694D01*
X164108571Y-91774694D02*
X164013333Y-91822313D01*
X164013333Y-91822313D02*
X163965714Y-91869932D01*
X163965714Y-91869932D02*
X163918095Y-91965170D01*
X163918095Y-91965170D02*
X163918095Y-92012789D01*
X163918095Y-92012789D02*
X163965714Y-92108027D01*
X163965714Y-92108027D02*
X164013333Y-92155646D01*
X164013333Y-92155646D02*
X164108571Y-92203265D01*
X164108571Y-92203265D02*
X164299047Y-92203265D01*
X164299047Y-92203265D02*
X164394285Y-92250884D01*
X164394285Y-92250884D02*
X164441904Y-92298503D01*
X164441904Y-92298503D02*
X164489523Y-92393741D01*
X164489523Y-92393741D02*
X164489523Y-92584217D01*
X164489523Y-92584217D02*
X164441904Y-92679455D01*
X164441904Y-92679455D02*
X164394285Y-92727075D01*
X164394285Y-92727075D02*
X164299047Y-92774694D01*
X164299047Y-92774694D02*
X164108571Y-92774694D01*
X164108571Y-92774694D02*
X164013333Y-92727075D01*
X164013333Y-92727075D02*
X163965714Y-92679455D01*
X163965714Y-92679455D02*
X163918095Y-92584217D01*
X163918095Y-92584217D02*
X163918095Y-92393741D01*
X163918095Y-92393741D02*
X163965714Y-92298503D01*
X163965714Y-92298503D02*
X164013333Y-92250884D01*
X164013333Y-92250884D02*
X164108571Y-92203265D01*
X140418094Y-94434694D02*
X140418094Y-93434694D01*
X140418094Y-93434694D02*
X140179999Y-93434694D01*
X140179999Y-93434694D02*
X140037142Y-93482313D01*
X140037142Y-93482313D02*
X139941904Y-93577551D01*
X139941904Y-93577551D02*
X139894285Y-93672789D01*
X139894285Y-93672789D02*
X139846666Y-93863265D01*
X139846666Y-93863265D02*
X139846666Y-94006122D01*
X139846666Y-94006122D02*
X139894285Y-94196598D01*
X139894285Y-94196598D02*
X139941904Y-94291836D01*
X139941904Y-94291836D02*
X140037142Y-94387075D01*
X140037142Y-94387075D02*
X140179999Y-94434694D01*
X140179999Y-94434694D02*
X140418094Y-94434694D01*
X138941904Y-93434694D02*
X139418094Y-93434694D01*
X139418094Y-93434694D02*
X139465713Y-93910884D01*
X139465713Y-93910884D02*
X139418094Y-93863265D01*
X139418094Y-93863265D02*
X139322856Y-93815646D01*
X139322856Y-93815646D02*
X139084761Y-93815646D01*
X139084761Y-93815646D02*
X138989523Y-93863265D01*
X138989523Y-93863265D02*
X138941904Y-93910884D01*
X138941904Y-93910884D02*
X138894285Y-94006122D01*
X138894285Y-94006122D02*
X138894285Y-94244217D01*
X138894285Y-94244217D02*
X138941904Y-94339455D01*
X138941904Y-94339455D02*
X138989523Y-94387075D01*
X138989523Y-94387075D02*
X139084761Y-94434694D01*
X139084761Y-94434694D02*
X139322856Y-94434694D01*
X139322856Y-94434694D02*
X139418094Y-94387075D01*
X139418094Y-94387075D02*
X139465713Y-94339455D01*
X130024095Y-84846095D02*
X130024095Y-85668572D01*
X130024095Y-85668572D02*
X129975714Y-85765334D01*
X129975714Y-85765334D02*
X129927333Y-85813715D01*
X129927333Y-85813715D02*
X129830571Y-85862095D01*
X129830571Y-85862095D02*
X129637047Y-85862095D01*
X129637047Y-85862095D02*
X129540285Y-85813715D01*
X129540285Y-85813715D02*
X129491904Y-85765334D01*
X129491904Y-85765334D02*
X129443523Y-85668572D01*
X129443523Y-85668572D02*
X129443523Y-84846095D01*
X129056476Y-84846095D02*
X128379142Y-84846095D01*
X128379142Y-84846095D02*
X128814571Y-85862095D01*
X149142857Y-86459455D02*
X149190476Y-86507075D01*
X149190476Y-86507075D02*
X149333333Y-86554694D01*
X149333333Y-86554694D02*
X149428571Y-86554694D01*
X149428571Y-86554694D02*
X149571428Y-86507075D01*
X149571428Y-86507075D02*
X149666666Y-86411836D01*
X149666666Y-86411836D02*
X149714285Y-86316598D01*
X149714285Y-86316598D02*
X149761904Y-86126122D01*
X149761904Y-86126122D02*
X149761904Y-85983265D01*
X149761904Y-85983265D02*
X149714285Y-85792789D01*
X149714285Y-85792789D02*
X149666666Y-85697551D01*
X149666666Y-85697551D02*
X149571428Y-85602313D01*
X149571428Y-85602313D02*
X149428571Y-85554694D01*
X149428571Y-85554694D02*
X149333333Y-85554694D01*
X149333333Y-85554694D02*
X149190476Y-85602313D01*
X149190476Y-85602313D02*
X149142857Y-85649932D01*
X148761904Y-85649932D02*
X148714285Y-85602313D01*
X148714285Y-85602313D02*
X148619047Y-85554694D01*
X148619047Y-85554694D02*
X148380952Y-85554694D01*
X148380952Y-85554694D02*
X148285714Y-85602313D01*
X148285714Y-85602313D02*
X148238095Y-85649932D01*
X148238095Y-85649932D02*
X148190476Y-85745170D01*
X148190476Y-85745170D02*
X148190476Y-85840408D01*
X148190476Y-85840408D02*
X148238095Y-85983265D01*
X148238095Y-85983265D02*
X148809523Y-86554694D01*
X148809523Y-86554694D02*
X148190476Y-86554694D01*
X147857142Y-85554694D02*
X147238095Y-85554694D01*
X147238095Y-85554694D02*
X147571428Y-85935646D01*
X147571428Y-85935646D02*
X147428571Y-85935646D01*
X147428571Y-85935646D02*
X147333333Y-85983265D01*
X147333333Y-85983265D02*
X147285714Y-86030884D01*
X147285714Y-86030884D02*
X147238095Y-86126122D01*
X147238095Y-86126122D02*
X147238095Y-86364217D01*
X147238095Y-86364217D02*
X147285714Y-86459455D01*
X147285714Y-86459455D02*
X147333333Y-86507075D01*
X147333333Y-86507075D02*
X147428571Y-86554694D01*
X147428571Y-86554694D02*
X147714285Y-86554694D01*
X147714285Y-86554694D02*
X147809523Y-86507075D01*
X147809523Y-86507075D02*
X147857142Y-86459455D01*
X123940476Y-75504694D02*
X124273809Y-75028503D01*
X124511904Y-75504694D02*
X124511904Y-74504694D01*
X124511904Y-74504694D02*
X124130952Y-74504694D01*
X124130952Y-74504694D02*
X124035714Y-74552313D01*
X124035714Y-74552313D02*
X123988095Y-74599932D01*
X123988095Y-74599932D02*
X123940476Y-74695170D01*
X123940476Y-74695170D02*
X123940476Y-74838027D01*
X123940476Y-74838027D02*
X123988095Y-74933265D01*
X123988095Y-74933265D02*
X124035714Y-74980884D01*
X124035714Y-74980884D02*
X124130952Y-75028503D01*
X124130952Y-75028503D02*
X124511904Y-75028503D01*
X123511904Y-75504694D02*
X123511904Y-74504694D01*
X123511904Y-74504694D02*
X122940476Y-75504694D01*
X122940476Y-75504694D02*
X122940476Y-74504694D01*
X121940476Y-75504694D02*
X122511904Y-75504694D01*
X122226190Y-75504694D02*
X122226190Y-74504694D01*
X122226190Y-74504694D02*
X122321428Y-74647551D01*
X122321428Y-74647551D02*
X122416666Y-74742789D01*
X122416666Y-74742789D02*
X122511904Y-74790408D01*
X145324404Y-80104694D02*
X145324404Y-80914217D01*
X145324404Y-80914217D02*
X145276785Y-81009455D01*
X145276785Y-81009455D02*
X145229166Y-81057075D01*
X145229166Y-81057075D02*
X145133928Y-81104694D01*
X145133928Y-81104694D02*
X144943452Y-81104694D01*
X144943452Y-81104694D02*
X144848214Y-81057075D01*
X144848214Y-81057075D02*
X144800595Y-81009455D01*
X144800595Y-81009455D02*
X144752976Y-80914217D01*
X144752976Y-80914217D02*
X144752976Y-80104694D01*
X143752976Y-81104694D02*
X144324404Y-81104694D01*
X144038690Y-81104694D02*
X144038690Y-80104694D01*
X144038690Y-80104694D02*
X144133928Y-80247551D01*
X144133928Y-80247551D02*
X144229166Y-80342789D01*
X144229166Y-80342789D02*
X144324404Y-80390408D01*
X140387694Y-86396742D02*
X139911503Y-86063409D01*
X140387694Y-85825314D02*
X139387694Y-85825314D01*
X139387694Y-85825314D02*
X139387694Y-86206266D01*
X139387694Y-86206266D02*
X139435313Y-86301504D01*
X139435313Y-86301504D02*
X139482932Y-86349123D01*
X139482932Y-86349123D02*
X139578170Y-86396742D01*
X139578170Y-86396742D02*
X139721027Y-86396742D01*
X139721027Y-86396742D02*
X139816265Y-86349123D01*
X139816265Y-86349123D02*
X139863884Y-86301504D01*
X139863884Y-86301504D02*
X139911503Y-86206266D01*
X139911503Y-86206266D02*
X139911503Y-85825314D01*
X139482932Y-86777695D02*
X139435313Y-86825314D01*
X139435313Y-86825314D02*
X139387694Y-86920552D01*
X139387694Y-86920552D02*
X139387694Y-87158647D01*
X139387694Y-87158647D02*
X139435313Y-87253885D01*
X139435313Y-87253885D02*
X139482932Y-87301504D01*
X139482932Y-87301504D02*
X139578170Y-87349123D01*
X139578170Y-87349123D02*
X139673408Y-87349123D01*
X139673408Y-87349123D02*
X139816265Y-87301504D01*
X139816265Y-87301504D02*
X140387694Y-86730076D01*
X140387694Y-86730076D02*
X140387694Y-87349123D01*
X139387694Y-87968171D02*
X139387694Y-88063409D01*
X139387694Y-88063409D02*
X139435313Y-88158647D01*
X139435313Y-88158647D02*
X139482932Y-88206266D01*
X139482932Y-88206266D02*
X139578170Y-88253885D01*
X139578170Y-88253885D02*
X139768646Y-88301504D01*
X139768646Y-88301504D02*
X140006741Y-88301504D01*
X140006741Y-88301504D02*
X140197217Y-88253885D01*
X140197217Y-88253885D02*
X140292455Y-88206266D01*
X140292455Y-88206266D02*
X140340075Y-88158647D01*
X140340075Y-88158647D02*
X140387694Y-88063409D01*
X140387694Y-88063409D02*
X140387694Y-87968171D01*
X140387694Y-87968171D02*
X140340075Y-87872933D01*
X140340075Y-87872933D02*
X140292455Y-87825314D01*
X140292455Y-87825314D02*
X140197217Y-87777695D01*
X140197217Y-87777695D02*
X140006741Y-87730076D01*
X140006741Y-87730076D02*
X139768646Y-87730076D01*
X139768646Y-87730076D02*
X139578170Y-87777695D01*
X139578170Y-87777695D02*
X139482932Y-87825314D01*
X139482932Y-87825314D02*
X139435313Y-87872933D01*
X139435313Y-87872933D02*
X139387694Y-87968171D01*
X136259455Y-71657142D02*
X136307075Y-71609523D01*
X136307075Y-71609523D02*
X136354694Y-71466666D01*
X136354694Y-71466666D02*
X136354694Y-71371428D01*
X136354694Y-71371428D02*
X136307075Y-71228571D01*
X136307075Y-71228571D02*
X136211836Y-71133333D01*
X136211836Y-71133333D02*
X136116598Y-71085714D01*
X136116598Y-71085714D02*
X135926122Y-71038095D01*
X135926122Y-71038095D02*
X135783265Y-71038095D01*
X135783265Y-71038095D02*
X135592789Y-71085714D01*
X135592789Y-71085714D02*
X135497551Y-71133333D01*
X135497551Y-71133333D02*
X135402313Y-71228571D01*
X135402313Y-71228571D02*
X135354694Y-71371428D01*
X135354694Y-71371428D02*
X135354694Y-71466666D01*
X135354694Y-71466666D02*
X135402313Y-71609523D01*
X135402313Y-71609523D02*
X135449932Y-71657142D01*
X136354694Y-72609523D02*
X136354694Y-72038095D01*
X136354694Y-72323809D02*
X135354694Y-72323809D01*
X135354694Y-72323809D02*
X135497551Y-72228571D01*
X135497551Y-72228571D02*
X135592789Y-72133333D01*
X135592789Y-72133333D02*
X135640408Y-72038095D01*
X135688027Y-73466666D02*
X136354694Y-73466666D01*
X135307075Y-73228571D02*
X136021360Y-72990476D01*
X136021360Y-72990476D02*
X136021360Y-73609523D01*
X138746761Y-90958857D02*
X138843523Y-90910476D01*
X138843523Y-90910476D02*
X138940285Y-90813715D01*
X138940285Y-90813715D02*
X139085428Y-90668572D01*
X139085428Y-90668572D02*
X139182190Y-90620191D01*
X139182190Y-90620191D02*
X139278952Y-90620191D01*
X139230571Y-90862095D02*
X139327333Y-90813715D01*
X139327333Y-90813715D02*
X139424095Y-90716953D01*
X139424095Y-90716953D02*
X139472476Y-90523429D01*
X139472476Y-90523429D02*
X139472476Y-90184762D01*
X139472476Y-90184762D02*
X139424095Y-89991238D01*
X139424095Y-89991238D02*
X139327333Y-89894476D01*
X139327333Y-89894476D02*
X139230571Y-89846095D01*
X139230571Y-89846095D02*
X139037047Y-89846095D01*
X139037047Y-89846095D02*
X138940285Y-89894476D01*
X138940285Y-89894476D02*
X138843523Y-89991238D01*
X138843523Y-89991238D02*
X138795142Y-90184762D01*
X138795142Y-90184762D02*
X138795142Y-90523429D01*
X138795142Y-90523429D02*
X138843523Y-90716953D01*
X138843523Y-90716953D02*
X138940285Y-90813715D01*
X138940285Y-90813715D02*
X139037047Y-90862095D01*
X139037047Y-90862095D02*
X139230571Y-90862095D01*
X138408095Y-89942857D02*
X138359714Y-89894476D01*
X138359714Y-89894476D02*
X138262952Y-89846095D01*
X138262952Y-89846095D02*
X138021047Y-89846095D01*
X138021047Y-89846095D02*
X137924285Y-89894476D01*
X137924285Y-89894476D02*
X137875904Y-89942857D01*
X137875904Y-89942857D02*
X137827523Y-90039619D01*
X137827523Y-90039619D02*
X137827523Y-90136381D01*
X137827523Y-90136381D02*
X137875904Y-90281524D01*
X137875904Y-90281524D02*
X138456476Y-90862095D01*
X138456476Y-90862095D02*
X137827523Y-90862095D01*
X132192455Y-86264242D02*
X132240075Y-86216623D01*
X132240075Y-86216623D02*
X132287694Y-86073766D01*
X132287694Y-86073766D02*
X132287694Y-85978528D01*
X132287694Y-85978528D02*
X132240075Y-85835671D01*
X132240075Y-85835671D02*
X132144836Y-85740433D01*
X132144836Y-85740433D02*
X132049598Y-85692814D01*
X132049598Y-85692814D02*
X131859122Y-85645195D01*
X131859122Y-85645195D02*
X131716265Y-85645195D01*
X131716265Y-85645195D02*
X131525789Y-85692814D01*
X131525789Y-85692814D02*
X131430551Y-85740433D01*
X131430551Y-85740433D02*
X131335313Y-85835671D01*
X131335313Y-85835671D02*
X131287694Y-85978528D01*
X131287694Y-85978528D02*
X131287694Y-86073766D01*
X131287694Y-86073766D02*
X131335313Y-86216623D01*
X131335313Y-86216623D02*
X131382932Y-86264242D01*
X132287694Y-87216623D02*
X132287694Y-86645195D01*
X132287694Y-86930909D02*
X131287694Y-86930909D01*
X131287694Y-86930909D02*
X131430551Y-86835671D01*
X131430551Y-86835671D02*
X131525789Y-86740433D01*
X131525789Y-86740433D02*
X131573408Y-86645195D01*
X132287694Y-87692814D02*
X132287694Y-87883290D01*
X132287694Y-87883290D02*
X132240075Y-87978528D01*
X132240075Y-87978528D02*
X132192455Y-88026147D01*
X132192455Y-88026147D02*
X132049598Y-88121385D01*
X132049598Y-88121385D02*
X131859122Y-88169004D01*
X131859122Y-88169004D02*
X131478170Y-88169004D01*
X131478170Y-88169004D02*
X131382932Y-88121385D01*
X131382932Y-88121385D02*
X131335313Y-88073766D01*
X131335313Y-88073766D02*
X131287694Y-87978528D01*
X131287694Y-87978528D02*
X131287694Y-87788052D01*
X131287694Y-87788052D02*
X131335313Y-87692814D01*
X131335313Y-87692814D02*
X131382932Y-87645195D01*
X131382932Y-87645195D02*
X131478170Y-87597576D01*
X131478170Y-87597576D02*
X131716265Y-87597576D01*
X131716265Y-87597576D02*
X131811503Y-87645195D01*
X131811503Y-87645195D02*
X131859122Y-87692814D01*
X131859122Y-87692814D02*
X131906741Y-87788052D01*
X131906741Y-87788052D02*
X131906741Y-87978528D01*
X131906741Y-87978528D02*
X131859122Y-88073766D01*
X131859122Y-88073766D02*
X131811503Y-88121385D01*
X131811503Y-88121385D02*
X131716265Y-88169004D01*
X128724095Y-69421095D02*
X128724095Y-70243572D01*
X128724095Y-70243572D02*
X128675714Y-70340334D01*
X128675714Y-70340334D02*
X128627333Y-70388715D01*
X128627333Y-70388715D02*
X128530571Y-70437095D01*
X128530571Y-70437095D02*
X128337047Y-70437095D01*
X128337047Y-70437095D02*
X128240285Y-70388715D01*
X128240285Y-70388715D02*
X128191904Y-70340334D01*
X128191904Y-70340334D02*
X128143523Y-70243572D01*
X128143523Y-70243572D02*
X128143523Y-69421095D01*
X127756476Y-69421095D02*
X127127523Y-69421095D01*
X127127523Y-69421095D02*
X127466190Y-69808143D01*
X127466190Y-69808143D02*
X127321047Y-69808143D01*
X127321047Y-69808143D02*
X127224285Y-69856524D01*
X127224285Y-69856524D02*
X127175904Y-69904905D01*
X127175904Y-69904905D02*
X127127523Y-70001667D01*
X127127523Y-70001667D02*
X127127523Y-70243572D01*
X127127523Y-70243572D02*
X127175904Y-70340334D01*
X127175904Y-70340334D02*
X127224285Y-70388715D01*
X127224285Y-70388715D02*
X127321047Y-70437095D01*
X127321047Y-70437095D02*
X127611333Y-70437095D01*
X127611333Y-70437095D02*
X127708095Y-70388715D01*
X127708095Y-70388715D02*
X127756476Y-70340334D01*
X141434455Y-78232142D02*
X141482075Y-78184523D01*
X141482075Y-78184523D02*
X141529694Y-78041666D01*
X141529694Y-78041666D02*
X141529694Y-77946428D01*
X141529694Y-77946428D02*
X141482075Y-77803571D01*
X141482075Y-77803571D02*
X141386836Y-77708333D01*
X141386836Y-77708333D02*
X141291598Y-77660714D01*
X141291598Y-77660714D02*
X141101122Y-77613095D01*
X141101122Y-77613095D02*
X140958265Y-77613095D01*
X140958265Y-77613095D02*
X140767789Y-77660714D01*
X140767789Y-77660714D02*
X140672551Y-77708333D01*
X140672551Y-77708333D02*
X140577313Y-77803571D01*
X140577313Y-77803571D02*
X140529694Y-77946428D01*
X140529694Y-77946428D02*
X140529694Y-78041666D01*
X140529694Y-78041666D02*
X140577313Y-78184523D01*
X140577313Y-78184523D02*
X140624932Y-78232142D01*
X140624932Y-78613095D02*
X140577313Y-78660714D01*
X140577313Y-78660714D02*
X140529694Y-78755952D01*
X140529694Y-78755952D02*
X140529694Y-78994047D01*
X140529694Y-78994047D02*
X140577313Y-79089285D01*
X140577313Y-79089285D02*
X140624932Y-79136904D01*
X140624932Y-79136904D02*
X140720170Y-79184523D01*
X140720170Y-79184523D02*
X140815408Y-79184523D01*
X140815408Y-79184523D02*
X140958265Y-79136904D01*
X140958265Y-79136904D02*
X141529694Y-78565476D01*
X141529694Y-78565476D02*
X141529694Y-79184523D01*
X140624932Y-79565476D02*
X140577313Y-79613095D01*
X140577313Y-79613095D02*
X140529694Y-79708333D01*
X140529694Y-79708333D02*
X140529694Y-79946428D01*
X140529694Y-79946428D02*
X140577313Y-80041666D01*
X140577313Y-80041666D02*
X140624932Y-80089285D01*
X140624932Y-80089285D02*
X140720170Y-80136904D01*
X140720170Y-80136904D02*
X140815408Y-80136904D01*
X140815408Y-80136904D02*
X140958265Y-80089285D01*
X140958265Y-80089285D02*
X141529694Y-79517857D01*
X141529694Y-79517857D02*
X141529694Y-80136904D01*
X136779694Y-89507142D02*
X136303503Y-89173809D01*
X136779694Y-88935714D02*
X135779694Y-88935714D01*
X135779694Y-88935714D02*
X135779694Y-89316666D01*
X135779694Y-89316666D02*
X135827313Y-89411904D01*
X135827313Y-89411904D02*
X135874932Y-89459523D01*
X135874932Y-89459523D02*
X135970170Y-89507142D01*
X135970170Y-89507142D02*
X136113027Y-89507142D01*
X136113027Y-89507142D02*
X136208265Y-89459523D01*
X136208265Y-89459523D02*
X136255884Y-89411904D01*
X136255884Y-89411904D02*
X136303503Y-89316666D01*
X136303503Y-89316666D02*
X136303503Y-88935714D01*
X135874932Y-89888095D02*
X135827313Y-89935714D01*
X135827313Y-89935714D02*
X135779694Y-90030952D01*
X135779694Y-90030952D02*
X135779694Y-90269047D01*
X135779694Y-90269047D02*
X135827313Y-90364285D01*
X135827313Y-90364285D02*
X135874932Y-90411904D01*
X135874932Y-90411904D02*
X135970170Y-90459523D01*
X135970170Y-90459523D02*
X136065408Y-90459523D01*
X136065408Y-90459523D02*
X136208265Y-90411904D01*
X136208265Y-90411904D02*
X136779694Y-89840476D01*
X136779694Y-89840476D02*
X136779694Y-90459523D01*
X136779694Y-91411904D02*
X136779694Y-90840476D01*
X136779694Y-91126190D02*
X135779694Y-91126190D01*
X135779694Y-91126190D02*
X135922551Y-91030952D01*
X135922551Y-91030952D02*
X136017789Y-90935714D01*
X136017789Y-90935714D02*
X136065408Y-90840476D01*
D12*
%TO.C,D2*%
X161565000Y-97755000D02*
X161565000Y-95070000D01*
X163485000Y-95070000D02*
X163485000Y-97755000D01*
X163485000Y-97755000D02*
X161565000Y-97755000D01*
%TO.C,C16*%
X129461252Y-89215000D02*
X128938748Y-89215000D01*
X129461252Y-90685000D02*
X128938748Y-90685000D01*
%TO.C,R25*%
X133790000Y-93027064D02*
X133790000Y-92572936D01*
X135260000Y-93027064D02*
X135260000Y-92572936D01*
%TO.C,R13*%
X124677064Y-88965000D02*
X124222936Y-88965000D01*
X124677064Y-90435000D02*
X124222936Y-90435000D01*
%TO.C,C15*%
X129095000Y-72093748D02*
X129095000Y-72616252D01*
X130565000Y-72093748D02*
X130565000Y-72616252D01*
%TO.C,JP2*%
X123100000Y-92150000D02*
X123100000Y-92750000D01*
X123800000Y-93450000D02*
X125200000Y-93450000D01*
X125200000Y-91450000D02*
X123800000Y-91450000D01*
X125900000Y-92750000D02*
X125900000Y-92150000D01*
X123100000Y-92150000D02*
G75*
G02*
X123800000Y-91450000I699999J1D01*
G01*
X123800000Y-93450000D02*
G75*
G02*
X123100000Y-92750000I-1J699999D01*
G01*
X125200000Y-91450000D02*
G75*
G02*
X125900000Y-92150000I0J-700000D01*
G01*
X125900000Y-92750000D02*
G75*
G02*
X125200000Y-93450000I-700000J0D01*
G01*
%TO.C,R27*%
X124677064Y-86965000D02*
X124222936Y-86965000D01*
X124677064Y-88435000D02*
X124222936Y-88435000D01*
%TO.C,JP1*%
X145350000Y-90450000D02*
X145350000Y-91050000D01*
X146050000Y-91750000D02*
X147450000Y-91750000D01*
X147450000Y-89750000D02*
X146050000Y-89750000D01*
X148150000Y-91050000D02*
X148150000Y-90450000D01*
X145350000Y-90450000D02*
G75*
G02*
X146050000Y-89750000I699999J1D01*
G01*
X146050000Y-91750000D02*
G75*
G02*
X145350000Y-91050000I-1J699999D01*
G01*
X147450000Y-89750000D02*
G75*
G02*
X148150000Y-90450000I0J-700000D01*
G01*
X148150000Y-91050000D02*
G75*
G02*
X147450000Y-91750000I-700000J0D01*
G01*
%TO.C,C24*%
X127553752Y-74582500D02*
X127031248Y-74582500D01*
X127553752Y-76052500D02*
X127031248Y-76052500D01*
%TO.C,R26*%
X131290000Y-93027064D02*
X131290000Y-92572936D01*
X132760000Y-93027064D02*
X132760000Y-92572936D01*
%TO.C,R28*%
X163215000Y-92182936D02*
X163215000Y-92637064D01*
X161745000Y-92182936D02*
X161745000Y-92637064D01*
%TO.C,D5*%
X147560000Y-92250000D02*
X142050000Y-92250000D01*
X147560000Y-92250000D02*
X147560000Y-95550000D01*
X147560000Y-95550000D02*
X142050000Y-95550000D01*
D13*
%TO.C,U7*%
X128265000Y-86045000D02*
X130265000Y-86045000D01*
X128265000Y-88505000D02*
X130265000Y-88505000D01*
D14*
X127465000Y-88175000D02*
G75*
G02*
X127265000Y-88175000I-100000J0D01*
G01*
X127265000Y-88175000D02*
G75*
G02*
X127465000Y-88175000I100000J0D01*
G01*
D12*
%TO.C,TP4*%
X144250000Y-88550000D02*
G75*
G02*
X142850000Y-88550000I-700000J0D01*
G01*
X142850000Y-88550000D02*
G75*
G02*
X144250000Y-88550000I700000J0D01*
G01*
%TO.C,C23*%
X144476248Y-85415000D02*
X144998752Y-85415000D01*
X144476248Y-86885000D02*
X144998752Y-86885000D01*
%TO.C,RN1*%
X123430000Y-70597500D02*
X124230000Y-70597500D01*
X123430000Y-74037500D02*
X124230000Y-74037500D01*
%TO.C,U1*%
X143652500Y-81640000D02*
X143652500Y-81690000D01*
X143652500Y-84710000D02*
X143652500Y-84760000D01*
X143652500Y-84760000D02*
X145472500Y-84760000D01*
X145472500Y-81640000D02*
X143652500Y-81640000D01*
X145472500Y-81690000D02*
X145472500Y-81640000D01*
X145472500Y-83590000D02*
X145472500Y-82810000D01*
X145472500Y-84760000D02*
X145472500Y-84710000D01*
X143352500Y-85040000D02*
X142872500Y-85040000D01*
X143112500Y-84710000D01*
X143352500Y-85040000D01*
G36*
X143352500Y-85040000D02*
G01*
X142872500Y-85040000D01*
X143112500Y-84710000D01*
X143352500Y-85040000D01*
G37*
%TO.C,D1*%
X134790000Y-81577500D02*
X136710000Y-81577500D01*
X134790000Y-84262500D02*
X134790000Y-81577500D01*
X136710000Y-81577500D02*
X136710000Y-84262500D01*
%TO.C,R20*%
X137515000Y-87202064D02*
X137515000Y-86747936D01*
X138985000Y-87202064D02*
X138985000Y-86747936D01*
%TO.C,C14*%
X131095000Y-72093748D02*
X131095000Y-72616252D01*
X132565000Y-72093748D02*
X132565000Y-72616252D01*
D15*
%TO.C,Q2*%
X141772600Y-91772400D02*
X142585400Y-91772400D01*
X142585400Y-88927600D02*
X141772600Y-88927600D01*
X142585400Y-89586400D02*
X142585400Y-88927600D01*
X142585400Y-91772400D02*
X142585400Y-91113600D01*
D12*
%TO.C,C19*%
X132715000Y-86743748D02*
X132715000Y-87266252D01*
X134185000Y-86743748D02*
X134185000Y-87266252D01*
%TO.C,D3*%
X137290000Y-81577500D02*
X139210000Y-81577500D01*
X137290000Y-84262500D02*
X137290000Y-81577500D01*
X139210000Y-81577500D02*
X139210000Y-84262500D01*
D13*
%TO.C,U3*%
X126080000Y-70817500D02*
X126080000Y-71317500D01*
X126080000Y-73817500D02*
X126080000Y-73317500D01*
X128580000Y-70817500D02*
X128580000Y-71317500D01*
X128580000Y-73817500D02*
X128580000Y-73317500D01*
D14*
X126680000Y-70317500D02*
G75*
G02*
X126480000Y-70317500I-100000J0D01*
G01*
X126480000Y-70317500D02*
G75*
G02*
X126680000Y-70317500I100000J0D01*
G01*
D12*
%TO.C,C22*%
X140465000Y-82926248D02*
X140465000Y-83448752D01*
X141935000Y-82926248D02*
X141935000Y-83448752D01*
%TO.C,R21*%
X135015000Y-87202064D02*
X135015000Y-86747936D01*
X136485000Y-87202064D02*
X136485000Y-86747936D01*
D16*
%TO.C,J4*%
X113480000Y-85820000D02*
G75*
G02*
X113280000Y-85820000I-100000J0D01*
G01*
X113280000Y-85820000D02*
G75*
G02*
X113480000Y-85820000I100000J0D01*
G01*
D13*
X119480000Y-84820000D02*
X117430000Y-84820000D01*
X119480000Y-80820000D02*
X119480000Y-84820000D01*
X113630000Y-84820000D02*
X111580000Y-84820000D01*
X113330000Y-77220000D02*
X117730000Y-77220000D01*
X111580000Y-84820000D02*
X111580000Y-80820000D01*
%TD*%
%LPC*%
%TO.C,JP2*%
G36*
X124350000Y-93200000D02*
G01*
X124650000Y-93200000D01*
X124650000Y-91700000D01*
X124350000Y-91700000D01*
X124350000Y-93200000D01*
G37*
%TO.C,JP1*%
G36*
X146600000Y-91500000D02*
G01*
X146900000Y-91500000D01*
X146900000Y-90000000D01*
X146600000Y-90000000D01*
X146600000Y-91500000D01*
G37*
D17*
%TO.C,U3*%
X126755000Y-72042500D02*
X126080000Y-72042500D01*
X126080000Y-71592500D01*
X126755000Y-71592500D01*
X126755000Y-72042500D01*
G36*
X126755000Y-72042500D02*
G01*
X126080000Y-72042500D01*
X126080000Y-71592500D01*
X126755000Y-71592500D01*
X126755000Y-72042500D01*
G37*
X126755000Y-72542500D02*
X126080000Y-72542500D01*
X126080000Y-72092500D01*
X126755000Y-72092500D01*
X126755000Y-72542500D01*
G36*
X126755000Y-72542500D02*
G01*
X126080000Y-72542500D01*
X126080000Y-72092500D01*
X126755000Y-72092500D01*
X126755000Y-72542500D01*
G37*
X126755000Y-73042500D02*
X126080000Y-73042500D01*
X126080000Y-72592500D01*
X126755000Y-72592500D01*
X126755000Y-73042500D01*
G36*
X126755000Y-73042500D02*
G01*
X126080000Y-73042500D01*
X126080000Y-72592500D01*
X126755000Y-72592500D01*
X126755000Y-73042500D01*
G37*
X126805000Y-71492500D02*
X126355000Y-71492500D01*
X126355000Y-70817500D01*
X126805000Y-70817500D01*
X126805000Y-71492500D01*
G36*
X126805000Y-71492500D02*
G01*
X126355000Y-71492500D01*
X126355000Y-70817500D01*
X126805000Y-70817500D01*
X126805000Y-71492500D01*
G37*
X126805000Y-73817500D02*
X126355000Y-73817500D01*
X126355000Y-73142500D01*
X126805000Y-73142500D01*
X126805000Y-73817500D01*
G36*
X126805000Y-73817500D02*
G01*
X126355000Y-73817500D01*
X126355000Y-73142500D01*
X126805000Y-73142500D01*
X126805000Y-73817500D01*
G37*
X127305000Y-71492500D02*
X126855000Y-71492500D01*
X126855000Y-70817500D01*
X127305000Y-70817500D01*
X127305000Y-71492500D01*
G36*
X127305000Y-71492500D02*
G01*
X126855000Y-71492500D01*
X126855000Y-70817500D01*
X127305000Y-70817500D01*
X127305000Y-71492500D01*
G37*
X127305000Y-73817500D02*
X126855000Y-73817500D01*
X126855000Y-73142500D01*
X127305000Y-73142500D01*
X127305000Y-73817500D01*
G36*
X127305000Y-73817500D02*
G01*
X126855000Y-73817500D01*
X126855000Y-73142500D01*
X127305000Y-73142500D01*
X127305000Y-73817500D01*
G37*
X127805000Y-71492500D02*
X127355000Y-71492500D01*
X127355000Y-70817500D01*
X127805000Y-70817500D01*
X127805000Y-71492500D01*
G36*
X127805000Y-71492500D02*
G01*
X127355000Y-71492500D01*
X127355000Y-70817500D01*
X127805000Y-70817500D01*
X127805000Y-71492500D01*
G37*
X127805000Y-73817500D02*
X127355000Y-73817500D01*
X127355000Y-73142500D01*
X127805000Y-73142500D01*
X127805000Y-73817500D01*
G36*
X127805000Y-73817500D02*
G01*
X127355000Y-73817500D01*
X127355000Y-73142500D01*
X127805000Y-73142500D01*
X127805000Y-73817500D01*
G37*
X128305000Y-71492500D02*
X127855000Y-71492500D01*
X127855000Y-70817500D01*
X128305000Y-70817500D01*
X128305000Y-71492500D01*
G36*
X128305000Y-71492500D02*
G01*
X127855000Y-71492500D01*
X127855000Y-70817500D01*
X128305000Y-70817500D01*
X128305000Y-71492500D01*
G37*
X128305000Y-73817500D02*
X127855000Y-73817500D01*
X127855000Y-73142500D01*
X128305000Y-73142500D01*
X128305000Y-73817500D01*
G36*
X128305000Y-73817500D02*
G01*
X127855000Y-73817500D01*
X127855000Y-73142500D01*
X128305000Y-73142500D01*
X128305000Y-73817500D01*
G37*
X128580000Y-72042500D02*
X127905000Y-72042500D01*
X127905000Y-71592500D01*
X128580000Y-71592500D01*
X128580000Y-72042500D01*
G36*
X128580000Y-72042500D02*
G01*
X127905000Y-72042500D01*
X127905000Y-71592500D01*
X128580000Y-71592500D01*
X128580000Y-72042500D01*
G37*
X128580000Y-72542500D02*
X127905000Y-72542500D01*
X127905000Y-72092500D01*
X128580000Y-72092500D01*
X128580000Y-72542500D01*
G36*
X128580000Y-72542500D02*
G01*
X127905000Y-72542500D01*
X127905000Y-72092500D01*
X128580000Y-72092500D01*
X128580000Y-72542500D01*
G37*
X128580000Y-73042500D02*
X127905000Y-73042500D01*
X127905000Y-72592500D01*
X128580000Y-72592500D01*
X128580000Y-73042500D01*
G36*
X128580000Y-73042500D02*
G01*
X127905000Y-73042500D01*
X127905000Y-72592500D01*
X128580000Y-72592500D01*
X128580000Y-73042500D01*
G37*
%TD*%
D18*
%TO.C,D2*%
X162525000Y-95132500D03*
X162525000Y-97007500D03*
%TD*%
D19*
%TO.C,H1*%
X107730000Y-88670000D03*
%TD*%
D20*
%TO.C,SW3*%
X157690000Y-96620000D03*
D21*
X155150000Y-96620000D03*
D20*
X152610000Y-96620000D03*
%TD*%
D19*
%TO.C,H3*%
X171650000Y-71865000D03*
%TD*%
%TO.C,H2*%
X171650000Y-96065000D03*
%TD*%
D22*
%TO.C,C16*%
X130237500Y-89950000D03*
X128162500Y-89950000D03*
%TD*%
D23*
%TO.C,R25*%
X134525000Y-93800000D03*
X134525000Y-91800000D03*
%TD*%
D24*
%TO.C,R13*%
X125450000Y-89700000D03*
X123450000Y-89700000D03*
%TD*%
D25*
%TO.C,C15*%
X129830000Y-71317500D03*
X129830000Y-73392500D03*
%TD*%
D26*
%TO.C,JP2*%
X123850000Y-92450000D03*
D27*
X125150000Y-92450000D03*
%TD*%
D24*
%TO.C,R27*%
X125450000Y-87700000D03*
X123450000Y-87700000D03*
%TD*%
D26*
%TO.C,JP1*%
X146100000Y-90750000D03*
D27*
X147400000Y-90750000D03*
%TD*%
D28*
%TO.C,TH1*%
X133250000Y-83400000D03*
X129186000Y-83400000D03*
%TD*%
D22*
%TO.C,C24*%
X128330000Y-75317500D03*
X126255000Y-75317500D03*
%TD*%
D23*
%TO.C,R26*%
X132025000Y-93800000D03*
X132025000Y-91800000D03*
%TD*%
D29*
%TO.C,R28*%
X162480000Y-91410000D03*
X162480000Y-93410000D03*
%TD*%
D30*
%TO.C,D5*%
X146050000Y-93900000D03*
X142050000Y-93900000D03*
%TD*%
D31*
%TO.C,U7*%
X128280000Y-88075000D03*
X128280000Y-87675000D03*
X128280000Y-87275000D03*
X128280000Y-86875000D03*
X128280000Y-86475000D03*
X130250000Y-86475000D03*
X130250000Y-86875000D03*
X130250000Y-87275000D03*
X130250000Y-87675000D03*
X130250000Y-88075000D03*
D32*
X129265000Y-87275000D03*
%TD*%
D33*
%TO.C,TP4*%
X143550000Y-88550000D03*
%TD*%
D34*
%TO.C,C23*%
X143700000Y-86150000D03*
X145775000Y-86150000D03*
%TD*%
D35*
%TO.C,RN1*%
X124680000Y-71117500D03*
X124680000Y-71917500D03*
X124680000Y-72717500D03*
X124680000Y-73517500D03*
X122980000Y-73517500D03*
X122980000Y-72717500D03*
X122980000Y-71917500D03*
X122980000Y-71117500D03*
%TD*%
D36*
%TO.C,U1*%
X143425000Y-84150000D03*
X143425000Y-83200000D03*
X143425000Y-82250000D03*
X145700000Y-82250000D03*
X145700000Y-84150000D03*
%TD*%
D37*
%TO.C,D1*%
X135750000Y-82325000D03*
X135750000Y-84200000D03*
%TD*%
D23*
%TO.C,R20*%
X138250000Y-87975000D03*
X138250000Y-85975000D03*
%TD*%
D25*
%TO.C,C14*%
X131830000Y-71317500D03*
X131830000Y-73392500D03*
%TD*%
D38*
%TO.C,Q2*%
X140825000Y-91300000D03*
X140825000Y-89400000D03*
X143025000Y-90350000D03*
%TD*%
D25*
%TO.C,C19*%
X133450000Y-85967500D03*
X133450000Y-88042500D03*
%TD*%
D37*
%TO.C,D3*%
X138250000Y-82325000D03*
X138250000Y-84200000D03*
%TD*%
D25*
%TO.C,C22*%
X141200000Y-82150000D03*
X141200000Y-84225000D03*
%TD*%
D23*
%TO.C,R21*%
X135750000Y-87975000D03*
X135750000Y-85975000D03*
%TD*%
D39*
%TO.C,J4*%
X118880000Y-78720000D03*
X112180000Y-78720000D03*
D40*
X116530000Y-84470000D03*
X114530000Y-84470000D03*
%TD*%
D41*
%TO.C,J2*%
X106082500Y-81360000D03*
D42*
X110262500Y-81360000D03*
D41*
X106082500Y-72720000D03*
D42*
X110262500Y-72720000D03*
%TD*%
%LPD*%
M02*
