%TF.GenerationSoftware,KiCad,Pcbnew,9.0.2*%
%TF.CreationDate,2025-11-18T20:52:18-03:00*%
%TF.ProjectId,Smart_insoles_2025_v1,536d6172-745f-4696-9e73-6f6c65735f32,rev?*%
%TF.SameCoordinates,Original*%
%TF.FileFunction,Legend,Top*%
%TF.FilePolarity,Positive*%
%FSLAX46Y46*%
G04 Gerber Fmt 4.6, Leading zero omitted, Abs format (unit mm)*
G04 Created by KiCad (PCBNEW 9.0.2) date 2025-11-18 20:52:18*
%MOMM*%
%LPD*%
G01*
G04 APERTURE LIST*
%ADD10C,0.100000*%
%ADD11C,0.150000*%
%ADD12C,0.254000*%
%ADD13C,0.120000*%
%ADD14C,0.127000*%
%ADD15C,0.240000*%
%ADD16C,0.200000*%
%ADD17C,0.152400*%
G04 APERTURE END LIST*
D10*
X113656265Y-84024800D02*
X113799122Y-84072419D01*
X113799122Y-84072419D02*
X114037217Y-84072419D01*
X114037217Y-84072419D02*
X114132455Y-84024800D01*
X114132455Y-84024800D02*
X114180074Y-83977180D01*
X114180074Y-83977180D02*
X114227693Y-83881942D01*
X114227693Y-83881942D02*
X114227693Y-83786704D01*
X114227693Y-83786704D02*
X114180074Y-83691466D01*
X114180074Y-83691466D02*
X114132455Y-83643847D01*
X114132455Y-83643847D02*
X114037217Y-83596228D01*
X114037217Y-83596228D02*
X113846741Y-83548609D01*
X113846741Y-83548609D02*
X113751503Y-83500990D01*
X113751503Y-83500990D02*
X113703884Y-83453371D01*
X113703884Y-83453371D02*
X113656265Y-83358133D01*
X113656265Y-83358133D02*
X113656265Y-83262895D01*
X113656265Y-83262895D02*
X113703884Y-83167657D01*
X113703884Y-83167657D02*
X113751503Y-83120038D01*
X113751503Y-83120038D02*
X113846741Y-83072419D01*
X113846741Y-83072419D02*
X114084836Y-83072419D01*
X114084836Y-83072419D02*
X114227693Y-83120038D01*
X114656265Y-83548609D02*
X114989598Y-83548609D01*
X115132455Y-84072419D02*
X114656265Y-84072419D01*
X114656265Y-84072419D02*
X114656265Y-83072419D01*
X114656265Y-83072419D02*
X115132455Y-83072419D01*
X115561027Y-84072419D02*
X115561027Y-83072419D01*
X115561027Y-83072419D02*
X116132455Y-84072419D01*
X116132455Y-84072419D02*
X116132455Y-83072419D01*
X116561027Y-84024800D02*
X116703884Y-84072419D01*
X116703884Y-84072419D02*
X116941979Y-84072419D01*
X116941979Y-84072419D02*
X117037217Y-84024800D01*
X117037217Y-84024800D02*
X117084836Y-83977180D01*
X117084836Y-83977180D02*
X117132455Y-83881942D01*
X117132455Y-83881942D02*
X117132455Y-83786704D01*
X117132455Y-83786704D02*
X117084836Y-83691466D01*
X117084836Y-83691466D02*
X117037217Y-83643847D01*
X117037217Y-83643847D02*
X116941979Y-83596228D01*
X116941979Y-83596228D02*
X116751503Y-83548609D01*
X116751503Y-83548609D02*
X116656265Y-83500990D01*
X116656265Y-83500990D02*
X116608646Y-83453371D01*
X116608646Y-83453371D02*
X116561027Y-83358133D01*
X116561027Y-83358133D02*
X116561027Y-83262895D01*
X116561027Y-83262895D02*
X116608646Y-83167657D01*
X116608646Y-83167657D02*
X116656265Y-83120038D01*
X116656265Y-83120038D02*
X116751503Y-83072419D01*
X116751503Y-83072419D02*
X116989598Y-83072419D01*
X116989598Y-83072419D02*
X117132455Y-83120038D01*
X117751503Y-83072419D02*
X117941979Y-83072419D01*
X117941979Y-83072419D02*
X118037217Y-83120038D01*
X118037217Y-83120038D02*
X118132455Y-83215276D01*
X118132455Y-83215276D02*
X118180074Y-83405752D01*
X118180074Y-83405752D02*
X118180074Y-83739085D01*
X118180074Y-83739085D02*
X118132455Y-83929561D01*
X118132455Y-83929561D02*
X118037217Y-84024800D01*
X118037217Y-84024800D02*
X117941979Y-84072419D01*
X117941979Y-84072419D02*
X117751503Y-84072419D01*
X117751503Y-84072419D02*
X117656265Y-84024800D01*
X117656265Y-84024800D02*
X117561027Y-83929561D01*
X117561027Y-83929561D02*
X117513408Y-83739085D01*
X117513408Y-83739085D02*
X117513408Y-83405752D01*
X117513408Y-83405752D02*
X117561027Y-83215276D01*
X117561027Y-83215276D02*
X117656265Y-83120038D01*
X117656265Y-83120038D02*
X117751503Y-83072419D01*
X119180074Y-84072419D02*
X118846741Y-83596228D01*
X118608646Y-84072419D02*
X118608646Y-83072419D01*
X118608646Y-83072419D02*
X118989598Y-83072419D01*
X118989598Y-83072419D02*
X119084836Y-83120038D01*
X119084836Y-83120038D02*
X119132455Y-83167657D01*
X119132455Y-83167657D02*
X119180074Y-83262895D01*
X119180074Y-83262895D02*
X119180074Y-83405752D01*
X119180074Y-83405752D02*
X119132455Y-83500990D01*
X119132455Y-83500990D02*
X119084836Y-83548609D01*
X119084836Y-83548609D02*
X118989598Y-83596228D01*
X118989598Y-83596228D02*
X118608646Y-83596228D01*
X119608646Y-83977180D02*
X119656265Y-84024800D01*
X119656265Y-84024800D02*
X119608646Y-84072419D01*
X119608646Y-84072419D02*
X119561027Y-84024800D01*
X119561027Y-84024800D02*
X119608646Y-83977180D01*
X119608646Y-83977180D02*
X119608646Y-84072419D01*
X119608646Y-83453371D02*
X119656265Y-83500990D01*
X119656265Y-83500990D02*
X119608646Y-83548609D01*
X119608646Y-83548609D02*
X119561027Y-83500990D01*
X119561027Y-83500990D02*
X119608646Y-83453371D01*
X119608646Y-83453371D02*
X119608646Y-83548609D01*
X121322931Y-84072419D02*
X120846741Y-84072419D01*
X120846741Y-84072419D02*
X120846741Y-83072419D01*
X121656265Y-83548609D02*
X121989598Y-83548609D01*
X122132455Y-84072419D02*
X121656265Y-84072419D01*
X121656265Y-84072419D02*
X121656265Y-83072419D01*
X121656265Y-83072419D02*
X122132455Y-83072419D01*
X122894360Y-83548609D02*
X122561027Y-83548609D01*
X122561027Y-84072419D02*
X122561027Y-83072419D01*
X122561027Y-83072419D02*
X123037217Y-83072419D01*
X123275313Y-83072419D02*
X123846741Y-83072419D01*
X123561027Y-84072419D02*
X123561027Y-83072419D01*
D11*
X148434641Y-90234582D02*
X148101308Y-89758391D01*
X147863213Y-90234582D02*
X147863213Y-89234582D01*
X147863213Y-89234582D02*
X148244165Y-89234582D01*
X148244165Y-89234582D02*
X148339403Y-89282201D01*
X148339403Y-89282201D02*
X148387022Y-89329820D01*
X148387022Y-89329820D02*
X148434641Y-89425058D01*
X148434641Y-89425058D02*
X148434641Y-89567915D01*
X148434641Y-89567915D02*
X148387022Y-89663153D01*
X148387022Y-89663153D02*
X148339403Y-89710772D01*
X148339403Y-89710772D02*
X148244165Y-89758391D01*
X148244165Y-89758391D02*
X147863213Y-89758391D01*
X149387022Y-90234582D02*
X148815594Y-90234582D01*
X149101308Y-90234582D02*
X149101308Y-89234582D01*
X149101308Y-89234582D02*
X149006070Y-89377439D01*
X149006070Y-89377439D02*
X148910832Y-89472677D01*
X148910832Y-89472677D02*
X148815594Y-89520296D01*
X150006070Y-89234582D02*
X150101308Y-89234582D01*
X150101308Y-89234582D02*
X150196546Y-89282201D01*
X150196546Y-89282201D02*
X150244165Y-89329820D01*
X150244165Y-89329820D02*
X150291784Y-89425058D01*
X150291784Y-89425058D02*
X150339403Y-89615534D01*
X150339403Y-89615534D02*
X150339403Y-89853629D01*
X150339403Y-89853629D02*
X150291784Y-90044105D01*
X150291784Y-90044105D02*
X150244165Y-90139343D01*
X150244165Y-90139343D02*
X150196546Y-90186963D01*
X150196546Y-90186963D02*
X150101308Y-90234582D01*
X150101308Y-90234582D02*
X150006070Y-90234582D01*
X150006070Y-90234582D02*
X149910832Y-90186963D01*
X149910832Y-90186963D02*
X149863213Y-90139343D01*
X149863213Y-90139343D02*
X149815594Y-90044105D01*
X149815594Y-90044105D02*
X149767975Y-89853629D01*
X149767975Y-89853629D02*
X149767975Y-89615534D01*
X149767975Y-89615534D02*
X149815594Y-89425058D01*
X149815594Y-89425058D02*
X149863213Y-89329820D01*
X149863213Y-89329820D02*
X149910832Y-89282201D01*
X149910832Y-89282201D02*
X150006070Y-89234582D01*
X107938095Y-93354819D02*
X108509523Y-93354819D01*
X108223809Y-94354819D02*
X108223809Y-93354819D01*
X108747619Y-93354819D02*
X109414285Y-94354819D01*
X109414285Y-93354819D02*
X108747619Y-94354819D01*
X161457142Y-91959580D02*
X161409523Y-92007200D01*
X161409523Y-92007200D02*
X161266666Y-92054819D01*
X161266666Y-92054819D02*
X161171428Y-92054819D01*
X161171428Y-92054819D02*
X161028571Y-92007200D01*
X161028571Y-92007200D02*
X160933333Y-91911961D01*
X160933333Y-91911961D02*
X160885714Y-91816723D01*
X160885714Y-91816723D02*
X160838095Y-91626247D01*
X160838095Y-91626247D02*
X160838095Y-91483390D01*
X160838095Y-91483390D02*
X160885714Y-91292914D01*
X160885714Y-91292914D02*
X160933333Y-91197676D01*
X160933333Y-91197676D02*
X161028571Y-91102438D01*
X161028571Y-91102438D02*
X161171428Y-91054819D01*
X161171428Y-91054819D02*
X161266666Y-91054819D01*
X161266666Y-91054819D02*
X161409523Y-91102438D01*
X161409523Y-91102438D02*
X161457142Y-91150057D01*
X162409523Y-92054819D02*
X161838095Y-92054819D01*
X162123809Y-92054819D02*
X162123809Y-91054819D01*
X162123809Y-91054819D02*
X162028571Y-91197676D01*
X162028571Y-91197676D02*
X161933333Y-91292914D01*
X161933333Y-91292914D02*
X161838095Y-91340533D01*
X162742857Y-91054819D02*
X163409523Y-91054819D01*
X163409523Y-91054819D02*
X162980952Y-92054819D01*
X158133306Y-82479895D02*
X157799918Y-82003626D01*
X157561783Y-82479895D02*
X157561783Y-81479730D01*
X157561783Y-81479730D02*
X157942798Y-81479730D01*
X157942798Y-81479730D02*
X158038052Y-81527357D01*
X158038052Y-81527357D02*
X158085679Y-81574984D01*
X158085679Y-81574984D02*
X158133306Y-81670238D01*
X158133306Y-81670238D02*
X158133306Y-81813119D01*
X158133306Y-81813119D02*
X158085679Y-81908373D01*
X158085679Y-81908373D02*
X158038052Y-81955999D01*
X158038052Y-81955999D02*
X157942798Y-82003626D01*
X157942798Y-82003626D02*
X157561783Y-82003626D01*
X159038217Y-81479730D02*
X158561948Y-81479730D01*
X158561948Y-81479730D02*
X158514321Y-81955999D01*
X158514321Y-81955999D02*
X158561948Y-81908373D01*
X158561948Y-81908373D02*
X158657202Y-81860746D01*
X158657202Y-81860746D02*
X158895336Y-81860746D01*
X158895336Y-81860746D02*
X158990590Y-81908373D01*
X158990590Y-81908373D02*
X159038217Y-81955999D01*
X159038217Y-81955999D02*
X159085844Y-82051253D01*
X159085844Y-82051253D02*
X159085844Y-82289388D01*
X159085844Y-82289388D02*
X159038217Y-82384642D01*
X159038217Y-82384642D02*
X158990590Y-82432269D01*
X158990590Y-82432269D02*
X158895336Y-82479895D01*
X158895336Y-82479895D02*
X158657202Y-82479895D01*
X158657202Y-82479895D02*
X158561948Y-82432269D01*
X158561948Y-82432269D02*
X158514321Y-82384642D01*
X125716667Y-87357200D02*
X125859524Y-87404819D01*
X125859524Y-87404819D02*
X126097619Y-87404819D01*
X126097619Y-87404819D02*
X126192857Y-87357200D01*
X126192857Y-87357200D02*
X126240476Y-87309580D01*
X126240476Y-87309580D02*
X126288095Y-87214342D01*
X126288095Y-87214342D02*
X126288095Y-87119104D01*
X126288095Y-87119104D02*
X126240476Y-87023866D01*
X126240476Y-87023866D02*
X126192857Y-86976247D01*
X126192857Y-86976247D02*
X126097619Y-86928628D01*
X126097619Y-86928628D02*
X125907143Y-86881009D01*
X125907143Y-86881009D02*
X125811905Y-86833390D01*
X125811905Y-86833390D02*
X125764286Y-86785771D01*
X125764286Y-86785771D02*
X125716667Y-86690533D01*
X125716667Y-86690533D02*
X125716667Y-86595295D01*
X125716667Y-86595295D02*
X125764286Y-86500057D01*
X125764286Y-86500057D02*
X125811905Y-86452438D01*
X125811905Y-86452438D02*
X125907143Y-86404819D01*
X125907143Y-86404819D02*
X126145238Y-86404819D01*
X126145238Y-86404819D02*
X126288095Y-86452438D01*
X126621429Y-86404819D02*
X126859524Y-87404819D01*
X126859524Y-87404819D02*
X127050000Y-86690533D01*
X127050000Y-86690533D02*
X127240476Y-87404819D01*
X127240476Y-87404819D02*
X127478572Y-86404819D01*
X128383333Y-87404819D02*
X127811905Y-87404819D01*
X128097619Y-87404819D02*
X128097619Y-86404819D01*
X128097619Y-86404819D02*
X128002381Y-86547676D01*
X128002381Y-86547676D02*
X127907143Y-86642914D01*
X127907143Y-86642914D02*
X127811905Y-86690533D01*
X170780807Y-91907219D02*
X170447474Y-91431028D01*
X170209379Y-91907219D02*
X170209379Y-90907219D01*
X170209379Y-90907219D02*
X170590331Y-90907219D01*
X170590331Y-90907219D02*
X170685569Y-90954838D01*
X170685569Y-90954838D02*
X170733188Y-91002457D01*
X170733188Y-91002457D02*
X170780807Y-91097695D01*
X170780807Y-91097695D02*
X170780807Y-91240552D01*
X170780807Y-91240552D02*
X170733188Y-91335790D01*
X170733188Y-91335790D02*
X170685569Y-91383409D01*
X170685569Y-91383409D02*
X170590331Y-91431028D01*
X170590331Y-91431028D02*
X170209379Y-91431028D01*
X171733188Y-91907219D02*
X171161760Y-91907219D01*
X171447474Y-91907219D02*
X171447474Y-90907219D01*
X171447474Y-90907219D02*
X171352236Y-91050076D01*
X171352236Y-91050076D02*
X171256998Y-91145314D01*
X171256998Y-91145314D02*
X171161760Y-91192933D01*
X172590331Y-91240552D02*
X172590331Y-91907219D01*
X172352236Y-90859600D02*
X172114141Y-91573885D01*
X172114141Y-91573885D02*
X172733188Y-91573885D01*
X152614632Y-78989182D02*
X152281299Y-78512991D01*
X152043204Y-78989182D02*
X152043204Y-77989182D01*
X152043204Y-77989182D02*
X152424156Y-77989182D01*
X152424156Y-77989182D02*
X152519394Y-78036801D01*
X152519394Y-78036801D02*
X152567013Y-78084420D01*
X152567013Y-78084420D02*
X152614632Y-78179658D01*
X152614632Y-78179658D02*
X152614632Y-78322515D01*
X152614632Y-78322515D02*
X152567013Y-78417753D01*
X152567013Y-78417753D02*
X152519394Y-78465372D01*
X152519394Y-78465372D02*
X152424156Y-78512991D01*
X152424156Y-78512991D02*
X152043204Y-78512991D01*
X152947966Y-77989182D02*
X153567013Y-77989182D01*
X153567013Y-77989182D02*
X153233680Y-78370134D01*
X153233680Y-78370134D02*
X153376537Y-78370134D01*
X153376537Y-78370134D02*
X153471775Y-78417753D01*
X153471775Y-78417753D02*
X153519394Y-78465372D01*
X153519394Y-78465372D02*
X153567013Y-78560610D01*
X153567013Y-78560610D02*
X153567013Y-78798705D01*
X153567013Y-78798705D02*
X153519394Y-78893943D01*
X153519394Y-78893943D02*
X153471775Y-78941563D01*
X153471775Y-78941563D02*
X153376537Y-78989182D01*
X153376537Y-78989182D02*
X153090823Y-78989182D01*
X153090823Y-78989182D02*
X152995585Y-78941563D01*
X152995585Y-78941563D02*
X152947966Y-78893943D01*
X132054819Y-84142857D02*
X131578628Y-84476190D01*
X132054819Y-84714285D02*
X131054819Y-84714285D01*
X131054819Y-84714285D02*
X131054819Y-84333333D01*
X131054819Y-84333333D02*
X131102438Y-84238095D01*
X131102438Y-84238095D02*
X131150057Y-84190476D01*
X131150057Y-84190476D02*
X131245295Y-84142857D01*
X131245295Y-84142857D02*
X131388152Y-84142857D01*
X131388152Y-84142857D02*
X131483390Y-84190476D01*
X131483390Y-84190476D02*
X131531009Y-84238095D01*
X131531009Y-84238095D02*
X131578628Y-84333333D01*
X131578628Y-84333333D02*
X131578628Y-84714285D01*
X131150057Y-83761904D02*
X131102438Y-83714285D01*
X131102438Y-83714285D02*
X131054819Y-83619047D01*
X131054819Y-83619047D02*
X131054819Y-83380952D01*
X131054819Y-83380952D02*
X131102438Y-83285714D01*
X131102438Y-83285714D02*
X131150057Y-83238095D01*
X131150057Y-83238095D02*
X131245295Y-83190476D01*
X131245295Y-83190476D02*
X131340533Y-83190476D01*
X131340533Y-83190476D02*
X131483390Y-83238095D01*
X131483390Y-83238095D02*
X132054819Y-83809523D01*
X132054819Y-83809523D02*
X132054819Y-83190476D01*
X131150057Y-82809523D02*
X131102438Y-82761904D01*
X131102438Y-82761904D02*
X131054819Y-82666666D01*
X131054819Y-82666666D02*
X131054819Y-82428571D01*
X131054819Y-82428571D02*
X131102438Y-82333333D01*
X131102438Y-82333333D02*
X131150057Y-82285714D01*
X131150057Y-82285714D02*
X131245295Y-82238095D01*
X131245295Y-82238095D02*
X131340533Y-82238095D01*
X131340533Y-82238095D02*
X131483390Y-82285714D01*
X131483390Y-82285714D02*
X132054819Y-82857142D01*
X132054819Y-82857142D02*
X132054819Y-82238095D01*
D12*
X114360237Y-82174318D02*
X114360237Y-80904318D01*
X115690714Y-82053365D02*
X115630238Y-82113842D01*
X115630238Y-82113842D02*
X115448809Y-82174318D01*
X115448809Y-82174318D02*
X115327857Y-82174318D01*
X115327857Y-82174318D02*
X115146428Y-82113842D01*
X115146428Y-82113842D02*
X115025476Y-81992889D01*
X115025476Y-81992889D02*
X114964999Y-81871937D01*
X114964999Y-81871937D02*
X114904523Y-81630032D01*
X114904523Y-81630032D02*
X114904523Y-81448603D01*
X114904523Y-81448603D02*
X114964999Y-81206699D01*
X114964999Y-81206699D02*
X115025476Y-81085746D01*
X115025476Y-81085746D02*
X115146428Y-80964794D01*
X115146428Y-80964794D02*
X115327857Y-80904318D01*
X115327857Y-80904318D02*
X115448809Y-80904318D01*
X115448809Y-80904318D02*
X115630238Y-80964794D01*
X115630238Y-80964794D02*
X115690714Y-81025270D01*
X116900238Y-82174318D02*
X116174523Y-82174318D01*
X116537380Y-82174318D02*
X116537380Y-80904318D01*
X116537380Y-80904318D02*
X116416428Y-81085746D01*
X116416428Y-81085746D02*
X116295476Y-81206699D01*
X116295476Y-81206699D02*
X116174523Y-81267175D01*
D11*
X149732079Y-87322620D02*
X149779699Y-87370239D01*
X149779699Y-87370239D02*
X149827318Y-87513096D01*
X149827318Y-87513096D02*
X149827318Y-87608334D01*
X149827318Y-87608334D02*
X149779699Y-87751191D01*
X149779699Y-87751191D02*
X149684460Y-87846429D01*
X149684460Y-87846429D02*
X149589222Y-87894048D01*
X149589222Y-87894048D02*
X149398746Y-87941667D01*
X149398746Y-87941667D02*
X149255889Y-87941667D01*
X149255889Y-87941667D02*
X149065413Y-87894048D01*
X149065413Y-87894048D02*
X148970175Y-87846429D01*
X148970175Y-87846429D02*
X148874937Y-87751191D01*
X148874937Y-87751191D02*
X148827318Y-87608334D01*
X148827318Y-87608334D02*
X148827318Y-87513096D01*
X148827318Y-87513096D02*
X148874937Y-87370239D01*
X148874937Y-87370239D02*
X148922556Y-87322620D01*
X149827318Y-86370239D02*
X149827318Y-86941667D01*
X149827318Y-86655953D02*
X148827318Y-86655953D01*
X148827318Y-86655953D02*
X148970175Y-86751191D01*
X148970175Y-86751191D02*
X149065413Y-86846429D01*
X149065413Y-86846429D02*
X149113032Y-86941667D01*
X148827318Y-86036905D02*
X148827318Y-85417858D01*
X148827318Y-85417858D02*
X149208270Y-85751191D01*
X149208270Y-85751191D02*
X149208270Y-85608334D01*
X149208270Y-85608334D02*
X149255889Y-85513096D01*
X149255889Y-85513096D02*
X149303508Y-85465477D01*
X149303508Y-85465477D02*
X149398746Y-85417858D01*
X149398746Y-85417858D02*
X149636841Y-85417858D01*
X149636841Y-85417858D02*
X149732079Y-85465477D01*
X149732079Y-85465477D02*
X149779699Y-85513096D01*
X149779699Y-85513096D02*
X149827318Y-85608334D01*
X149827318Y-85608334D02*
X149827318Y-85894048D01*
X149827318Y-85894048D02*
X149779699Y-85989286D01*
X149779699Y-85989286D02*
X149732079Y-86036905D01*
X164179201Y-86984658D02*
X163845813Y-86508389D01*
X163607678Y-86984658D02*
X163607678Y-85984493D01*
X163607678Y-85984493D02*
X163988693Y-85984493D01*
X163988693Y-85984493D02*
X164083947Y-86032120D01*
X164083947Y-86032120D02*
X164131574Y-86079747D01*
X164131574Y-86079747D02*
X164179201Y-86175001D01*
X164179201Y-86175001D02*
X164179201Y-86317882D01*
X164179201Y-86317882D02*
X164131574Y-86413136D01*
X164131574Y-86413136D02*
X164083947Y-86460762D01*
X164083947Y-86460762D02*
X163988693Y-86508389D01*
X163988693Y-86508389D02*
X163607678Y-86508389D01*
X165131739Y-86984658D02*
X164560216Y-86984658D01*
X164845978Y-86984658D02*
X164845978Y-85984493D01*
X164845978Y-85984493D02*
X164750724Y-86127374D01*
X164750724Y-86127374D02*
X164655470Y-86222628D01*
X164655470Y-86222628D02*
X164560216Y-86270255D01*
X165989023Y-85984493D02*
X165798516Y-85984493D01*
X165798516Y-85984493D02*
X165703262Y-86032120D01*
X165703262Y-86032120D02*
X165655635Y-86079747D01*
X165655635Y-86079747D02*
X165560381Y-86222628D01*
X165560381Y-86222628D02*
X165512754Y-86413136D01*
X165512754Y-86413136D02*
X165512754Y-86794151D01*
X165512754Y-86794151D02*
X165560381Y-86889405D01*
X165560381Y-86889405D02*
X165608008Y-86937032D01*
X165608008Y-86937032D02*
X165703262Y-86984658D01*
X165703262Y-86984658D02*
X165893769Y-86984658D01*
X165893769Y-86984658D02*
X165989023Y-86937032D01*
X165989023Y-86937032D02*
X166036650Y-86889405D01*
X166036650Y-86889405D02*
X166084277Y-86794151D01*
X166084277Y-86794151D02*
X166084277Y-86556016D01*
X166084277Y-86556016D02*
X166036650Y-86460762D01*
X166036650Y-86460762D02*
X165989023Y-86413136D01*
X165989023Y-86413136D02*
X165893769Y-86365509D01*
X165893769Y-86365509D02*
X165703262Y-86365509D01*
X165703262Y-86365509D02*
X165608008Y-86413136D01*
X165608008Y-86413136D02*
X165560381Y-86460762D01*
X165560381Y-86460762D02*
X165512754Y-86556016D01*
X167533333Y-77154819D02*
X167200000Y-76678628D01*
X166961905Y-77154819D02*
X166961905Y-76154819D01*
X166961905Y-76154819D02*
X167342857Y-76154819D01*
X167342857Y-76154819D02*
X167438095Y-76202438D01*
X167438095Y-76202438D02*
X167485714Y-76250057D01*
X167485714Y-76250057D02*
X167533333Y-76345295D01*
X167533333Y-76345295D02*
X167533333Y-76488152D01*
X167533333Y-76488152D02*
X167485714Y-76583390D01*
X167485714Y-76583390D02*
X167438095Y-76631009D01*
X167438095Y-76631009D02*
X167342857Y-76678628D01*
X167342857Y-76678628D02*
X166961905Y-76678628D01*
X168104762Y-76583390D02*
X168009524Y-76535771D01*
X168009524Y-76535771D02*
X167961905Y-76488152D01*
X167961905Y-76488152D02*
X167914286Y-76392914D01*
X167914286Y-76392914D02*
X167914286Y-76345295D01*
X167914286Y-76345295D02*
X167961905Y-76250057D01*
X167961905Y-76250057D02*
X168009524Y-76202438D01*
X168009524Y-76202438D02*
X168104762Y-76154819D01*
X168104762Y-76154819D02*
X168295238Y-76154819D01*
X168295238Y-76154819D02*
X168390476Y-76202438D01*
X168390476Y-76202438D02*
X168438095Y-76250057D01*
X168438095Y-76250057D02*
X168485714Y-76345295D01*
X168485714Y-76345295D02*
X168485714Y-76392914D01*
X168485714Y-76392914D02*
X168438095Y-76488152D01*
X168438095Y-76488152D02*
X168390476Y-76535771D01*
X168390476Y-76535771D02*
X168295238Y-76583390D01*
X168295238Y-76583390D02*
X168104762Y-76583390D01*
X168104762Y-76583390D02*
X168009524Y-76631009D01*
X168009524Y-76631009D02*
X167961905Y-76678628D01*
X167961905Y-76678628D02*
X167914286Y-76773866D01*
X167914286Y-76773866D02*
X167914286Y-76964342D01*
X167914286Y-76964342D02*
X167961905Y-77059580D01*
X167961905Y-77059580D02*
X168009524Y-77107200D01*
X168009524Y-77107200D02*
X168104762Y-77154819D01*
X168104762Y-77154819D02*
X168295238Y-77154819D01*
X168295238Y-77154819D02*
X168390476Y-77107200D01*
X168390476Y-77107200D02*
X168438095Y-77059580D01*
X168438095Y-77059580D02*
X168485714Y-76964342D01*
X168485714Y-76964342D02*
X168485714Y-76773866D01*
X168485714Y-76773866D02*
X168438095Y-76678628D01*
X168438095Y-76678628D02*
X168390476Y-76631009D01*
X168390476Y-76631009D02*
X168295238Y-76583390D01*
X120738095Y-101904819D02*
X120738095Y-102714342D01*
X120738095Y-102714342D02*
X120785714Y-102809580D01*
X120785714Y-102809580D02*
X120833333Y-102857200D01*
X120833333Y-102857200D02*
X120928571Y-102904819D01*
X120928571Y-102904819D02*
X121119047Y-102904819D01*
X121119047Y-102904819D02*
X121214285Y-102857200D01*
X121214285Y-102857200D02*
X121261904Y-102809580D01*
X121261904Y-102809580D02*
X121309523Y-102714342D01*
X121309523Y-102714342D02*
X121309523Y-101904819D01*
X122261904Y-101904819D02*
X121785714Y-101904819D01*
X121785714Y-101904819D02*
X121738095Y-102381009D01*
X121738095Y-102381009D02*
X121785714Y-102333390D01*
X121785714Y-102333390D02*
X121880952Y-102285771D01*
X121880952Y-102285771D02*
X122119047Y-102285771D01*
X122119047Y-102285771D02*
X122214285Y-102333390D01*
X122214285Y-102333390D02*
X122261904Y-102381009D01*
X122261904Y-102381009D02*
X122309523Y-102476247D01*
X122309523Y-102476247D02*
X122309523Y-102714342D01*
X122309523Y-102714342D02*
X122261904Y-102809580D01*
X122261904Y-102809580D02*
X122214285Y-102857200D01*
X122214285Y-102857200D02*
X122119047Y-102904819D01*
X122119047Y-102904819D02*
X121880952Y-102904819D01*
X121880952Y-102904819D02*
X121785714Y-102857200D01*
X121785714Y-102857200D02*
X121738095Y-102809580D01*
X167361642Y-91865219D02*
X167028309Y-91389028D01*
X166790214Y-91865219D02*
X166790214Y-90865219D01*
X166790214Y-90865219D02*
X167171166Y-90865219D01*
X167171166Y-90865219D02*
X167266404Y-90912838D01*
X167266404Y-90912838D02*
X167314023Y-90960457D01*
X167314023Y-90960457D02*
X167361642Y-91055695D01*
X167361642Y-91055695D02*
X167361642Y-91198552D01*
X167361642Y-91198552D02*
X167314023Y-91293790D01*
X167314023Y-91293790D02*
X167266404Y-91341409D01*
X167266404Y-91341409D02*
X167171166Y-91389028D01*
X167171166Y-91389028D02*
X166790214Y-91389028D01*
X168314023Y-91865219D02*
X167742595Y-91865219D01*
X168028309Y-91865219D02*
X168028309Y-90865219D01*
X168028309Y-90865219D02*
X167933071Y-91008076D01*
X167933071Y-91008076D02*
X167837833Y-91103314D01*
X167837833Y-91103314D02*
X167742595Y-91150933D01*
X169218785Y-90865219D02*
X168742595Y-90865219D01*
X168742595Y-90865219D02*
X168694976Y-91341409D01*
X168694976Y-91341409D02*
X168742595Y-91293790D01*
X168742595Y-91293790D02*
X168837833Y-91246171D01*
X168837833Y-91246171D02*
X169075928Y-91246171D01*
X169075928Y-91246171D02*
X169171166Y-91293790D01*
X169171166Y-91293790D02*
X169218785Y-91341409D01*
X169218785Y-91341409D02*
X169266404Y-91436647D01*
X169266404Y-91436647D02*
X169266404Y-91674742D01*
X169266404Y-91674742D02*
X169218785Y-91769980D01*
X169218785Y-91769980D02*
X169171166Y-91817600D01*
X169171166Y-91817600D02*
X169075928Y-91865219D01*
X169075928Y-91865219D02*
X168837833Y-91865219D01*
X168837833Y-91865219D02*
X168742595Y-91817600D01*
X168742595Y-91817600D02*
X168694976Y-91769980D01*
X165168805Y-83574258D02*
X164835417Y-83097989D01*
X164597282Y-83574258D02*
X164597282Y-82574093D01*
X164597282Y-82574093D02*
X164978297Y-82574093D01*
X164978297Y-82574093D02*
X165073551Y-82621720D01*
X165073551Y-82621720D02*
X165121178Y-82669347D01*
X165121178Y-82669347D02*
X165168805Y-82764601D01*
X165168805Y-82764601D02*
X165168805Y-82907482D01*
X165168805Y-82907482D02*
X165121178Y-83002736D01*
X165121178Y-83002736D02*
X165073551Y-83050362D01*
X165073551Y-83050362D02*
X164978297Y-83097989D01*
X164978297Y-83097989D02*
X164597282Y-83097989D01*
X165502193Y-82574093D02*
X166168970Y-82574093D01*
X166168970Y-82574093D02*
X165740328Y-83574258D01*
X128422142Y-98184580D02*
X128374523Y-98232200D01*
X128374523Y-98232200D02*
X128231666Y-98279819D01*
X128231666Y-98279819D02*
X128136428Y-98279819D01*
X128136428Y-98279819D02*
X127993571Y-98232200D01*
X127993571Y-98232200D02*
X127898333Y-98136961D01*
X127898333Y-98136961D02*
X127850714Y-98041723D01*
X127850714Y-98041723D02*
X127803095Y-97851247D01*
X127803095Y-97851247D02*
X127803095Y-97708390D01*
X127803095Y-97708390D02*
X127850714Y-97517914D01*
X127850714Y-97517914D02*
X127898333Y-97422676D01*
X127898333Y-97422676D02*
X127993571Y-97327438D01*
X127993571Y-97327438D02*
X128136428Y-97279819D01*
X128136428Y-97279819D02*
X128231666Y-97279819D01*
X128231666Y-97279819D02*
X128374523Y-97327438D01*
X128374523Y-97327438D02*
X128422142Y-97375057D01*
X128803095Y-97375057D02*
X128850714Y-97327438D01*
X128850714Y-97327438D02*
X128945952Y-97279819D01*
X128945952Y-97279819D02*
X129184047Y-97279819D01*
X129184047Y-97279819D02*
X129279285Y-97327438D01*
X129279285Y-97327438D02*
X129326904Y-97375057D01*
X129326904Y-97375057D02*
X129374523Y-97470295D01*
X129374523Y-97470295D02*
X129374523Y-97565533D01*
X129374523Y-97565533D02*
X129326904Y-97708390D01*
X129326904Y-97708390D02*
X128755476Y-98279819D01*
X128755476Y-98279819D02*
X129374523Y-98279819D01*
X130231666Y-97279819D02*
X130041190Y-97279819D01*
X130041190Y-97279819D02*
X129945952Y-97327438D01*
X129945952Y-97327438D02*
X129898333Y-97375057D01*
X129898333Y-97375057D02*
X129803095Y-97517914D01*
X129803095Y-97517914D02*
X129755476Y-97708390D01*
X129755476Y-97708390D02*
X129755476Y-98089342D01*
X129755476Y-98089342D02*
X129803095Y-98184580D01*
X129803095Y-98184580D02*
X129850714Y-98232200D01*
X129850714Y-98232200D02*
X129945952Y-98279819D01*
X129945952Y-98279819D02*
X130136428Y-98279819D01*
X130136428Y-98279819D02*
X130231666Y-98232200D01*
X130231666Y-98232200D02*
X130279285Y-98184580D01*
X130279285Y-98184580D02*
X130326904Y-98089342D01*
X130326904Y-98089342D02*
X130326904Y-97851247D01*
X130326904Y-97851247D02*
X130279285Y-97756009D01*
X130279285Y-97756009D02*
X130231666Y-97708390D01*
X130231666Y-97708390D02*
X130136428Y-97660771D01*
X130136428Y-97660771D02*
X129945952Y-97660771D01*
X129945952Y-97660771D02*
X129850714Y-97708390D01*
X129850714Y-97708390D02*
X129803095Y-97756009D01*
X129803095Y-97756009D02*
X129755476Y-97851247D01*
X154264871Y-93834658D02*
X153931483Y-93358389D01*
X153693348Y-93834658D02*
X153693348Y-92834493D01*
X153693348Y-92834493D02*
X154074363Y-92834493D01*
X154074363Y-92834493D02*
X154169617Y-92882120D01*
X154169617Y-92882120D02*
X154217244Y-92929747D01*
X154217244Y-92929747D02*
X154264871Y-93025001D01*
X154264871Y-93025001D02*
X154264871Y-93167882D01*
X154264871Y-93167882D02*
X154217244Y-93263136D01*
X154217244Y-93263136D02*
X154169617Y-93310762D01*
X154169617Y-93310762D02*
X154074363Y-93358389D01*
X154074363Y-93358389D02*
X153693348Y-93358389D01*
X155217409Y-93834658D02*
X154645886Y-93834658D01*
X154931648Y-93834658D02*
X154931648Y-92834493D01*
X154931648Y-92834493D02*
X154836394Y-92977374D01*
X154836394Y-92977374D02*
X154741140Y-93072628D01*
X154741140Y-93072628D02*
X154645886Y-93120255D01*
X155550797Y-92834493D02*
X156217574Y-92834493D01*
X156217574Y-92834493D02*
X155788932Y-93834658D01*
X136963594Y-84224182D02*
X136963594Y-85033705D01*
X136963594Y-85033705D02*
X137011213Y-85128943D01*
X137011213Y-85128943D02*
X137058832Y-85176563D01*
X137058832Y-85176563D02*
X137154070Y-85224182D01*
X137154070Y-85224182D02*
X137344546Y-85224182D01*
X137344546Y-85224182D02*
X137439784Y-85176563D01*
X137439784Y-85176563D02*
X137487403Y-85128943D01*
X137487403Y-85128943D02*
X137535022Y-85033705D01*
X137535022Y-85033705D02*
X137535022Y-84224182D01*
X137963594Y-84319420D02*
X138011213Y-84271801D01*
X138011213Y-84271801D02*
X138106451Y-84224182D01*
X138106451Y-84224182D02*
X138344546Y-84224182D01*
X138344546Y-84224182D02*
X138439784Y-84271801D01*
X138439784Y-84271801D02*
X138487403Y-84319420D01*
X138487403Y-84319420D02*
X138535022Y-84414658D01*
X138535022Y-84414658D02*
X138535022Y-84509896D01*
X138535022Y-84509896D02*
X138487403Y-84652753D01*
X138487403Y-84652753D02*
X137915975Y-85224182D01*
X137915975Y-85224182D02*
X138535022Y-85224182D01*
X172678633Y-80059580D02*
X172631014Y-80107200D01*
X172631014Y-80107200D02*
X172488157Y-80154819D01*
X172488157Y-80154819D02*
X172392919Y-80154819D01*
X172392919Y-80154819D02*
X172250062Y-80107200D01*
X172250062Y-80107200D02*
X172154824Y-80011961D01*
X172154824Y-80011961D02*
X172107205Y-79916723D01*
X172107205Y-79916723D02*
X172059586Y-79726247D01*
X172059586Y-79726247D02*
X172059586Y-79583390D01*
X172059586Y-79583390D02*
X172107205Y-79392914D01*
X172107205Y-79392914D02*
X172154824Y-79297676D01*
X172154824Y-79297676D02*
X172250062Y-79202438D01*
X172250062Y-79202438D02*
X172392919Y-79154819D01*
X172392919Y-79154819D02*
X172488157Y-79154819D01*
X172488157Y-79154819D02*
X172631014Y-79202438D01*
X172631014Y-79202438D02*
X172678633Y-79250057D01*
X173535776Y-79154819D02*
X173345300Y-79154819D01*
X173345300Y-79154819D02*
X173250062Y-79202438D01*
X173250062Y-79202438D02*
X173202443Y-79250057D01*
X173202443Y-79250057D02*
X173107205Y-79392914D01*
X173107205Y-79392914D02*
X173059586Y-79583390D01*
X173059586Y-79583390D02*
X173059586Y-79964342D01*
X173059586Y-79964342D02*
X173107205Y-80059580D01*
X173107205Y-80059580D02*
X173154824Y-80107200D01*
X173154824Y-80107200D02*
X173250062Y-80154819D01*
X173250062Y-80154819D02*
X173440538Y-80154819D01*
X173440538Y-80154819D02*
X173535776Y-80107200D01*
X173535776Y-80107200D02*
X173583395Y-80059580D01*
X173583395Y-80059580D02*
X173631014Y-79964342D01*
X173631014Y-79964342D02*
X173631014Y-79726247D01*
X173631014Y-79726247D02*
X173583395Y-79631009D01*
X173583395Y-79631009D02*
X173535776Y-79583390D01*
X173535776Y-79583390D02*
X173440538Y-79535771D01*
X173440538Y-79535771D02*
X173250062Y-79535771D01*
X173250062Y-79535771D02*
X173154824Y-79583390D01*
X173154824Y-79583390D02*
X173107205Y-79631009D01*
X173107205Y-79631009D02*
X173059586Y-79726247D01*
X171733333Y-77054819D02*
X171400000Y-76578628D01*
X171161905Y-77054819D02*
X171161905Y-76054819D01*
X171161905Y-76054819D02*
X171542857Y-76054819D01*
X171542857Y-76054819D02*
X171638095Y-76102438D01*
X171638095Y-76102438D02*
X171685714Y-76150057D01*
X171685714Y-76150057D02*
X171733333Y-76245295D01*
X171733333Y-76245295D02*
X171733333Y-76388152D01*
X171733333Y-76388152D02*
X171685714Y-76483390D01*
X171685714Y-76483390D02*
X171638095Y-76531009D01*
X171638095Y-76531009D02*
X171542857Y-76578628D01*
X171542857Y-76578628D02*
X171161905Y-76578628D01*
X172590476Y-76054819D02*
X172400000Y-76054819D01*
X172400000Y-76054819D02*
X172304762Y-76102438D01*
X172304762Y-76102438D02*
X172257143Y-76150057D01*
X172257143Y-76150057D02*
X172161905Y-76292914D01*
X172161905Y-76292914D02*
X172114286Y-76483390D01*
X172114286Y-76483390D02*
X172114286Y-76864342D01*
X172114286Y-76864342D02*
X172161905Y-76959580D01*
X172161905Y-76959580D02*
X172209524Y-77007200D01*
X172209524Y-77007200D02*
X172304762Y-77054819D01*
X172304762Y-77054819D02*
X172495238Y-77054819D01*
X172495238Y-77054819D02*
X172590476Y-77007200D01*
X172590476Y-77007200D02*
X172638095Y-76959580D01*
X172638095Y-76959580D02*
X172685714Y-76864342D01*
X172685714Y-76864342D02*
X172685714Y-76626247D01*
X172685714Y-76626247D02*
X172638095Y-76531009D01*
X172638095Y-76531009D02*
X172590476Y-76483390D01*
X172590476Y-76483390D02*
X172495238Y-76435771D01*
X172495238Y-76435771D02*
X172304762Y-76435771D01*
X172304762Y-76435771D02*
X172209524Y-76483390D01*
X172209524Y-76483390D02*
X172161905Y-76531009D01*
X172161905Y-76531009D02*
X172114286Y-76626247D01*
X128322142Y-96319580D02*
X128274523Y-96367200D01*
X128274523Y-96367200D02*
X128131666Y-96414819D01*
X128131666Y-96414819D02*
X128036428Y-96414819D01*
X128036428Y-96414819D02*
X127893571Y-96367200D01*
X127893571Y-96367200D02*
X127798333Y-96271961D01*
X127798333Y-96271961D02*
X127750714Y-96176723D01*
X127750714Y-96176723D02*
X127703095Y-95986247D01*
X127703095Y-95986247D02*
X127703095Y-95843390D01*
X127703095Y-95843390D02*
X127750714Y-95652914D01*
X127750714Y-95652914D02*
X127798333Y-95557676D01*
X127798333Y-95557676D02*
X127893571Y-95462438D01*
X127893571Y-95462438D02*
X128036428Y-95414819D01*
X128036428Y-95414819D02*
X128131666Y-95414819D01*
X128131666Y-95414819D02*
X128274523Y-95462438D01*
X128274523Y-95462438D02*
X128322142Y-95510057D01*
X128703095Y-95510057D02*
X128750714Y-95462438D01*
X128750714Y-95462438D02*
X128845952Y-95414819D01*
X128845952Y-95414819D02*
X129084047Y-95414819D01*
X129084047Y-95414819D02*
X129179285Y-95462438D01*
X129179285Y-95462438D02*
X129226904Y-95510057D01*
X129226904Y-95510057D02*
X129274523Y-95605295D01*
X129274523Y-95605295D02*
X129274523Y-95700533D01*
X129274523Y-95700533D02*
X129226904Y-95843390D01*
X129226904Y-95843390D02*
X128655476Y-96414819D01*
X128655476Y-96414819D02*
X129274523Y-96414819D01*
X130179285Y-95414819D02*
X129703095Y-95414819D01*
X129703095Y-95414819D02*
X129655476Y-95891009D01*
X129655476Y-95891009D02*
X129703095Y-95843390D01*
X129703095Y-95843390D02*
X129798333Y-95795771D01*
X129798333Y-95795771D02*
X130036428Y-95795771D01*
X130036428Y-95795771D02*
X130131666Y-95843390D01*
X130131666Y-95843390D02*
X130179285Y-95891009D01*
X130179285Y-95891009D02*
X130226904Y-95986247D01*
X130226904Y-95986247D02*
X130226904Y-96224342D01*
X130226904Y-96224342D02*
X130179285Y-96319580D01*
X130179285Y-96319580D02*
X130131666Y-96367200D01*
X130131666Y-96367200D02*
X130036428Y-96414819D01*
X130036428Y-96414819D02*
X129798333Y-96414819D01*
X129798333Y-96414819D02*
X129703095Y-96367200D01*
X129703095Y-96367200D02*
X129655476Y-96319580D01*
X149595079Y-94462220D02*
X149642699Y-94509839D01*
X149642699Y-94509839D02*
X149690318Y-94652696D01*
X149690318Y-94652696D02*
X149690318Y-94747934D01*
X149690318Y-94747934D02*
X149642699Y-94890791D01*
X149642699Y-94890791D02*
X149547460Y-94986029D01*
X149547460Y-94986029D02*
X149452222Y-95033648D01*
X149452222Y-95033648D02*
X149261746Y-95081267D01*
X149261746Y-95081267D02*
X149118889Y-95081267D01*
X149118889Y-95081267D02*
X148928413Y-95033648D01*
X148928413Y-95033648D02*
X148833175Y-94986029D01*
X148833175Y-94986029D02*
X148737937Y-94890791D01*
X148737937Y-94890791D02*
X148690318Y-94747934D01*
X148690318Y-94747934D02*
X148690318Y-94652696D01*
X148690318Y-94652696D02*
X148737937Y-94509839D01*
X148737937Y-94509839D02*
X148785556Y-94462220D01*
X149690318Y-93509839D02*
X149690318Y-94081267D01*
X149690318Y-93795553D02*
X148690318Y-93795553D01*
X148690318Y-93795553D02*
X148833175Y-93890791D01*
X148833175Y-93890791D02*
X148928413Y-93986029D01*
X148928413Y-93986029D02*
X148976032Y-94081267D01*
X148785556Y-93128886D02*
X148737937Y-93081267D01*
X148737937Y-93081267D02*
X148690318Y-92986029D01*
X148690318Y-92986029D02*
X148690318Y-92747934D01*
X148690318Y-92747934D02*
X148737937Y-92652696D01*
X148737937Y-92652696D02*
X148785556Y-92605077D01*
X148785556Y-92605077D02*
X148880794Y-92557458D01*
X148880794Y-92557458D02*
X148976032Y-92557458D01*
X148976032Y-92557458D02*
X149118889Y-92605077D01*
X149118889Y-92605077D02*
X149690318Y-93176505D01*
X149690318Y-93176505D02*
X149690318Y-92557458D01*
X149133333Y-97159580D02*
X149085714Y-97207200D01*
X149085714Y-97207200D02*
X148942857Y-97254819D01*
X148942857Y-97254819D02*
X148847619Y-97254819D01*
X148847619Y-97254819D02*
X148704762Y-97207200D01*
X148704762Y-97207200D02*
X148609524Y-97111961D01*
X148609524Y-97111961D02*
X148561905Y-97016723D01*
X148561905Y-97016723D02*
X148514286Y-96826247D01*
X148514286Y-96826247D02*
X148514286Y-96683390D01*
X148514286Y-96683390D02*
X148561905Y-96492914D01*
X148561905Y-96492914D02*
X148609524Y-96397676D01*
X148609524Y-96397676D02*
X148704762Y-96302438D01*
X148704762Y-96302438D02*
X148847619Y-96254819D01*
X148847619Y-96254819D02*
X148942857Y-96254819D01*
X148942857Y-96254819D02*
X149085714Y-96302438D01*
X149085714Y-96302438D02*
X149133333Y-96350057D01*
X150038095Y-96254819D02*
X149561905Y-96254819D01*
X149561905Y-96254819D02*
X149514286Y-96731009D01*
X149514286Y-96731009D02*
X149561905Y-96683390D01*
X149561905Y-96683390D02*
X149657143Y-96635771D01*
X149657143Y-96635771D02*
X149895238Y-96635771D01*
X149895238Y-96635771D02*
X149990476Y-96683390D01*
X149990476Y-96683390D02*
X150038095Y-96731009D01*
X150038095Y-96731009D02*
X150085714Y-96826247D01*
X150085714Y-96826247D02*
X150085714Y-97064342D01*
X150085714Y-97064342D02*
X150038095Y-97159580D01*
X150038095Y-97159580D02*
X149990476Y-97207200D01*
X149990476Y-97207200D02*
X149895238Y-97254819D01*
X149895238Y-97254819D02*
X149657143Y-97254819D01*
X149657143Y-97254819D02*
X149561905Y-97207200D01*
X149561905Y-97207200D02*
X149514286Y-97159580D01*
X130123333Y-82989819D02*
X129790000Y-82513628D01*
X129551905Y-82989819D02*
X129551905Y-81989819D01*
X129551905Y-81989819D02*
X129932857Y-81989819D01*
X129932857Y-81989819D02*
X130028095Y-82037438D01*
X130028095Y-82037438D02*
X130075714Y-82085057D01*
X130075714Y-82085057D02*
X130123333Y-82180295D01*
X130123333Y-82180295D02*
X130123333Y-82323152D01*
X130123333Y-82323152D02*
X130075714Y-82418390D01*
X130075714Y-82418390D02*
X130028095Y-82466009D01*
X130028095Y-82466009D02*
X129932857Y-82513628D01*
X129932857Y-82513628D02*
X129551905Y-82513628D01*
X131075714Y-82989819D02*
X130504286Y-82989819D01*
X130790000Y-82989819D02*
X130790000Y-81989819D01*
X130790000Y-81989819D02*
X130694762Y-82132676D01*
X130694762Y-82132676D02*
X130599524Y-82227914D01*
X130599524Y-82227914D02*
X130504286Y-82275533D01*
X129663095Y-91731819D02*
X130234523Y-91731819D01*
X129948809Y-92731819D02*
X129948809Y-91731819D01*
X130567857Y-92731819D02*
X130567857Y-91731819D01*
X130567857Y-91731819D02*
X130948809Y-91731819D01*
X130948809Y-91731819D02*
X131044047Y-91779438D01*
X131044047Y-91779438D02*
X131091666Y-91827057D01*
X131091666Y-91827057D02*
X131139285Y-91922295D01*
X131139285Y-91922295D02*
X131139285Y-92065152D01*
X131139285Y-92065152D02*
X131091666Y-92160390D01*
X131091666Y-92160390D02*
X131044047Y-92208009D01*
X131044047Y-92208009D02*
X130948809Y-92255628D01*
X130948809Y-92255628D02*
X130567857Y-92255628D01*
X131520238Y-91827057D02*
X131567857Y-91779438D01*
X131567857Y-91779438D02*
X131663095Y-91731819D01*
X131663095Y-91731819D02*
X131901190Y-91731819D01*
X131901190Y-91731819D02*
X131996428Y-91779438D01*
X131996428Y-91779438D02*
X132044047Y-91827057D01*
X132044047Y-91827057D02*
X132091666Y-91922295D01*
X132091666Y-91922295D02*
X132091666Y-92017533D01*
X132091666Y-92017533D02*
X132044047Y-92160390D01*
X132044047Y-92160390D02*
X131472619Y-92731819D01*
X131472619Y-92731819D02*
X132091666Y-92731819D01*
X107666667Y-82507200D02*
X107809524Y-82554819D01*
X107809524Y-82554819D02*
X108047619Y-82554819D01*
X108047619Y-82554819D02*
X108142857Y-82507200D01*
X108142857Y-82507200D02*
X108190476Y-82459580D01*
X108190476Y-82459580D02*
X108238095Y-82364342D01*
X108238095Y-82364342D02*
X108238095Y-82269104D01*
X108238095Y-82269104D02*
X108190476Y-82173866D01*
X108190476Y-82173866D02*
X108142857Y-82126247D01*
X108142857Y-82126247D02*
X108047619Y-82078628D01*
X108047619Y-82078628D02*
X107857143Y-82031009D01*
X107857143Y-82031009D02*
X107761905Y-81983390D01*
X107761905Y-81983390D02*
X107714286Y-81935771D01*
X107714286Y-81935771D02*
X107666667Y-81840533D01*
X107666667Y-81840533D02*
X107666667Y-81745295D01*
X107666667Y-81745295D02*
X107714286Y-81650057D01*
X107714286Y-81650057D02*
X107761905Y-81602438D01*
X107761905Y-81602438D02*
X107857143Y-81554819D01*
X107857143Y-81554819D02*
X108095238Y-81554819D01*
X108095238Y-81554819D02*
X108238095Y-81602438D01*
X108571429Y-81554819D02*
X108809524Y-82554819D01*
X108809524Y-82554819D02*
X109000000Y-81840533D01*
X109000000Y-81840533D02*
X109190476Y-82554819D01*
X109190476Y-82554819D02*
X109428572Y-81554819D01*
X109761905Y-81650057D02*
X109809524Y-81602438D01*
X109809524Y-81602438D02*
X109904762Y-81554819D01*
X109904762Y-81554819D02*
X110142857Y-81554819D01*
X110142857Y-81554819D02*
X110238095Y-81602438D01*
X110238095Y-81602438D02*
X110285714Y-81650057D01*
X110285714Y-81650057D02*
X110333333Y-81745295D01*
X110333333Y-81745295D02*
X110333333Y-81840533D01*
X110333333Y-81840533D02*
X110285714Y-81983390D01*
X110285714Y-81983390D02*
X109714286Y-82554819D01*
X109714286Y-82554819D02*
X110333333Y-82554819D01*
X164268805Y-75474258D02*
X163935417Y-74997989D01*
X163697282Y-75474258D02*
X163697282Y-74474093D01*
X163697282Y-74474093D02*
X164078297Y-74474093D01*
X164078297Y-74474093D02*
X164173551Y-74521720D01*
X164173551Y-74521720D02*
X164221178Y-74569347D01*
X164221178Y-74569347D02*
X164268805Y-74664601D01*
X164268805Y-74664601D02*
X164268805Y-74807482D01*
X164268805Y-74807482D02*
X164221178Y-74902736D01*
X164221178Y-74902736D02*
X164173551Y-74950362D01*
X164173551Y-74950362D02*
X164078297Y-74997989D01*
X164078297Y-74997989D02*
X163697282Y-74997989D01*
X164745074Y-75474258D02*
X164935582Y-75474258D01*
X164935582Y-75474258D02*
X165030835Y-75426632D01*
X165030835Y-75426632D02*
X165078462Y-75379005D01*
X165078462Y-75379005D02*
X165173716Y-75236124D01*
X165173716Y-75236124D02*
X165221343Y-75045616D01*
X165221343Y-75045616D02*
X165221343Y-74664601D01*
X165221343Y-74664601D02*
X165173716Y-74569347D01*
X165173716Y-74569347D02*
X165126089Y-74521720D01*
X165126089Y-74521720D02*
X165030835Y-74474093D01*
X165030835Y-74474093D02*
X164840328Y-74474093D01*
X164840328Y-74474093D02*
X164745074Y-74521720D01*
X164745074Y-74521720D02*
X164697447Y-74569347D01*
X164697447Y-74569347D02*
X164649820Y-74664601D01*
X164649820Y-74664601D02*
X164649820Y-74902736D01*
X164649820Y-74902736D02*
X164697447Y-74997989D01*
X164697447Y-74997989D02*
X164745074Y-75045616D01*
X164745074Y-75045616D02*
X164840328Y-75093243D01*
X164840328Y-75093243D02*
X165030835Y-75093243D01*
X165030835Y-75093243D02*
X165126089Y-75045616D01*
X165126089Y-75045616D02*
X165173716Y-74997989D01*
X165173716Y-74997989D02*
X165221343Y-74902736D01*
X130484580Y-89642857D02*
X130532200Y-89690476D01*
X130532200Y-89690476D02*
X130579819Y-89833333D01*
X130579819Y-89833333D02*
X130579819Y-89928571D01*
X130579819Y-89928571D02*
X130532200Y-90071428D01*
X130532200Y-90071428D02*
X130436961Y-90166666D01*
X130436961Y-90166666D02*
X130341723Y-90214285D01*
X130341723Y-90214285D02*
X130151247Y-90261904D01*
X130151247Y-90261904D02*
X130008390Y-90261904D01*
X130008390Y-90261904D02*
X129817914Y-90214285D01*
X129817914Y-90214285D02*
X129722676Y-90166666D01*
X129722676Y-90166666D02*
X129627438Y-90071428D01*
X129627438Y-90071428D02*
X129579819Y-89928571D01*
X129579819Y-89928571D02*
X129579819Y-89833333D01*
X129579819Y-89833333D02*
X129627438Y-89690476D01*
X129627438Y-89690476D02*
X129675057Y-89642857D01*
X129675057Y-89261904D02*
X129627438Y-89214285D01*
X129627438Y-89214285D02*
X129579819Y-89119047D01*
X129579819Y-89119047D02*
X129579819Y-88880952D01*
X129579819Y-88880952D02*
X129627438Y-88785714D01*
X129627438Y-88785714D02*
X129675057Y-88738095D01*
X129675057Y-88738095D02*
X129770295Y-88690476D01*
X129770295Y-88690476D02*
X129865533Y-88690476D01*
X129865533Y-88690476D02*
X130008390Y-88738095D01*
X130008390Y-88738095D02*
X130579819Y-89309523D01*
X130579819Y-89309523D02*
X130579819Y-88690476D01*
X130579819Y-87738095D02*
X130579819Y-88309523D01*
X130579819Y-88023809D02*
X129579819Y-88023809D01*
X129579819Y-88023809D02*
X129722676Y-88119047D01*
X129722676Y-88119047D02*
X129817914Y-88214285D01*
X129817914Y-88214285D02*
X129865533Y-88309523D01*
X115316666Y-71029819D02*
X115316666Y-71744104D01*
X115316666Y-71744104D02*
X115269047Y-71886961D01*
X115269047Y-71886961D02*
X115173809Y-71982200D01*
X115173809Y-71982200D02*
X115030952Y-72029819D01*
X115030952Y-72029819D02*
X114935714Y-72029819D01*
X115745238Y-71125057D02*
X115792857Y-71077438D01*
X115792857Y-71077438D02*
X115888095Y-71029819D01*
X115888095Y-71029819D02*
X116126190Y-71029819D01*
X116126190Y-71029819D02*
X116221428Y-71077438D01*
X116221428Y-71077438D02*
X116269047Y-71125057D01*
X116269047Y-71125057D02*
X116316666Y-71220295D01*
X116316666Y-71220295D02*
X116316666Y-71315533D01*
X116316666Y-71315533D02*
X116269047Y-71458390D01*
X116269047Y-71458390D02*
X115697619Y-72029819D01*
X115697619Y-72029819D02*
X116316666Y-72029819D01*
X161091594Y-89090982D02*
X161091594Y-89900505D01*
X161091594Y-89900505D02*
X161139213Y-89995743D01*
X161139213Y-89995743D02*
X161186832Y-90043363D01*
X161186832Y-90043363D02*
X161282070Y-90090982D01*
X161282070Y-90090982D02*
X161472546Y-90090982D01*
X161472546Y-90090982D02*
X161567784Y-90043363D01*
X161567784Y-90043363D02*
X161615403Y-89995743D01*
X161615403Y-89995743D02*
X161663022Y-89900505D01*
X161663022Y-89900505D02*
X161663022Y-89090982D01*
X162186832Y-90090982D02*
X162377308Y-90090982D01*
X162377308Y-90090982D02*
X162472546Y-90043363D01*
X162472546Y-90043363D02*
X162520165Y-89995743D01*
X162520165Y-89995743D02*
X162615403Y-89852886D01*
X162615403Y-89852886D02*
X162663022Y-89662410D01*
X162663022Y-89662410D02*
X162663022Y-89281458D01*
X162663022Y-89281458D02*
X162615403Y-89186220D01*
X162615403Y-89186220D02*
X162567784Y-89138601D01*
X162567784Y-89138601D02*
X162472546Y-89090982D01*
X162472546Y-89090982D02*
X162282070Y-89090982D01*
X162282070Y-89090982D02*
X162186832Y-89138601D01*
X162186832Y-89138601D02*
X162139213Y-89186220D01*
X162139213Y-89186220D02*
X162091594Y-89281458D01*
X162091594Y-89281458D02*
X162091594Y-89519553D01*
X162091594Y-89519553D02*
X162139213Y-89614791D01*
X162139213Y-89614791D02*
X162186832Y-89662410D01*
X162186832Y-89662410D02*
X162282070Y-89710029D01*
X162282070Y-89710029D02*
X162472546Y-89710029D01*
X162472546Y-89710029D02*
X162567784Y-89662410D01*
X162567784Y-89662410D02*
X162615403Y-89614791D01*
X162615403Y-89614791D02*
X162663022Y-89519553D01*
X107016667Y-76554819D02*
X107350000Y-77554819D01*
X107350000Y-77554819D02*
X107683333Y-76554819D01*
X108350000Y-77031009D02*
X108492857Y-77078628D01*
X108492857Y-77078628D02*
X108540476Y-77126247D01*
X108540476Y-77126247D02*
X108588095Y-77221485D01*
X108588095Y-77221485D02*
X108588095Y-77364342D01*
X108588095Y-77364342D02*
X108540476Y-77459580D01*
X108540476Y-77459580D02*
X108492857Y-77507200D01*
X108492857Y-77507200D02*
X108397619Y-77554819D01*
X108397619Y-77554819D02*
X108016667Y-77554819D01*
X108016667Y-77554819D02*
X108016667Y-76554819D01*
X108016667Y-76554819D02*
X108350000Y-76554819D01*
X108350000Y-76554819D02*
X108445238Y-76602438D01*
X108445238Y-76602438D02*
X108492857Y-76650057D01*
X108492857Y-76650057D02*
X108540476Y-76745295D01*
X108540476Y-76745295D02*
X108540476Y-76840533D01*
X108540476Y-76840533D02*
X108492857Y-76935771D01*
X108492857Y-76935771D02*
X108445238Y-76983390D01*
X108445238Y-76983390D02*
X108350000Y-77031009D01*
X108350000Y-77031009D02*
X108016667Y-77031009D01*
X109016667Y-76554819D02*
X109016667Y-77364342D01*
X109016667Y-77364342D02*
X109064286Y-77459580D01*
X109064286Y-77459580D02*
X109111905Y-77507200D01*
X109111905Y-77507200D02*
X109207143Y-77554819D01*
X109207143Y-77554819D02*
X109397619Y-77554819D01*
X109397619Y-77554819D02*
X109492857Y-77507200D01*
X109492857Y-77507200D02*
X109540476Y-77459580D01*
X109540476Y-77459580D02*
X109588095Y-77364342D01*
X109588095Y-77364342D02*
X109588095Y-76554819D01*
X110016667Y-77507200D02*
X110159524Y-77554819D01*
X110159524Y-77554819D02*
X110397619Y-77554819D01*
X110397619Y-77554819D02*
X110492857Y-77507200D01*
X110492857Y-77507200D02*
X110540476Y-77459580D01*
X110540476Y-77459580D02*
X110588095Y-77364342D01*
X110588095Y-77364342D02*
X110588095Y-77269104D01*
X110588095Y-77269104D02*
X110540476Y-77173866D01*
X110540476Y-77173866D02*
X110492857Y-77126247D01*
X110492857Y-77126247D02*
X110397619Y-77078628D01*
X110397619Y-77078628D02*
X110207143Y-77031009D01*
X110207143Y-77031009D02*
X110111905Y-76983390D01*
X110111905Y-76983390D02*
X110064286Y-76935771D01*
X110064286Y-76935771D02*
X110016667Y-76840533D01*
X110016667Y-76840533D02*
X110016667Y-76745295D01*
X110016667Y-76745295D02*
X110064286Y-76650057D01*
X110064286Y-76650057D02*
X110111905Y-76602438D01*
X110111905Y-76602438D02*
X110207143Y-76554819D01*
X110207143Y-76554819D02*
X110445238Y-76554819D01*
X110445238Y-76554819D02*
X110588095Y-76602438D01*
X140138095Y-97154819D02*
X140138095Y-97964342D01*
X140138095Y-97964342D02*
X140185714Y-98059580D01*
X140185714Y-98059580D02*
X140233333Y-98107200D01*
X140233333Y-98107200D02*
X140328571Y-98154819D01*
X140328571Y-98154819D02*
X140519047Y-98154819D01*
X140519047Y-98154819D02*
X140614285Y-98107200D01*
X140614285Y-98107200D02*
X140661904Y-98059580D01*
X140661904Y-98059580D02*
X140709523Y-97964342D01*
X140709523Y-97964342D02*
X140709523Y-97154819D01*
X141614285Y-97488152D02*
X141614285Y-98154819D01*
X141376190Y-97107200D02*
X141138095Y-97821485D01*
X141138095Y-97821485D02*
X141757142Y-97821485D01*
X106888095Y-72119819D02*
X106888095Y-71119819D01*
X106888095Y-71596009D02*
X107459523Y-71596009D01*
X107459523Y-72119819D02*
X107459523Y-71119819D01*
X108459523Y-72119819D02*
X107888095Y-72119819D01*
X108173809Y-72119819D02*
X108173809Y-71119819D01*
X108173809Y-71119819D02*
X108078571Y-71262676D01*
X108078571Y-71262676D02*
X107983333Y-71357914D01*
X107983333Y-71357914D02*
X107888095Y-71405533D01*
X143768832Y-92563943D02*
X143721213Y-92611563D01*
X143721213Y-92611563D02*
X143578356Y-92659182D01*
X143578356Y-92659182D02*
X143483118Y-92659182D01*
X143483118Y-92659182D02*
X143340261Y-92611563D01*
X143340261Y-92611563D02*
X143245023Y-92516324D01*
X143245023Y-92516324D02*
X143197404Y-92421086D01*
X143197404Y-92421086D02*
X143149785Y-92230610D01*
X143149785Y-92230610D02*
X143149785Y-92087753D01*
X143149785Y-92087753D02*
X143197404Y-91897277D01*
X143197404Y-91897277D02*
X143245023Y-91802039D01*
X143245023Y-91802039D02*
X143340261Y-91706801D01*
X143340261Y-91706801D02*
X143483118Y-91659182D01*
X143483118Y-91659182D02*
X143578356Y-91659182D01*
X143578356Y-91659182D02*
X143721213Y-91706801D01*
X143721213Y-91706801D02*
X143768832Y-91754420D01*
X144625975Y-91992515D02*
X144625975Y-92659182D01*
X144387880Y-91611563D02*
X144149785Y-92325848D01*
X144149785Y-92325848D02*
X144768832Y-92325848D01*
X106359580Y-80642857D02*
X106407200Y-80690476D01*
X106407200Y-80690476D02*
X106454819Y-80833333D01*
X106454819Y-80833333D02*
X106454819Y-80928571D01*
X106454819Y-80928571D02*
X106407200Y-81071428D01*
X106407200Y-81071428D02*
X106311961Y-81166666D01*
X106311961Y-81166666D02*
X106216723Y-81214285D01*
X106216723Y-81214285D02*
X106026247Y-81261904D01*
X106026247Y-81261904D02*
X105883390Y-81261904D01*
X105883390Y-81261904D02*
X105692914Y-81214285D01*
X105692914Y-81214285D02*
X105597676Y-81166666D01*
X105597676Y-81166666D02*
X105502438Y-81071428D01*
X105502438Y-81071428D02*
X105454819Y-80928571D01*
X105454819Y-80928571D02*
X105454819Y-80833333D01*
X105454819Y-80833333D02*
X105502438Y-80690476D01*
X105502438Y-80690476D02*
X105550057Y-80642857D01*
X105550057Y-80261904D02*
X105502438Y-80214285D01*
X105502438Y-80214285D02*
X105454819Y-80119047D01*
X105454819Y-80119047D02*
X105454819Y-79880952D01*
X105454819Y-79880952D02*
X105502438Y-79785714D01*
X105502438Y-79785714D02*
X105550057Y-79738095D01*
X105550057Y-79738095D02*
X105645295Y-79690476D01*
X105645295Y-79690476D02*
X105740533Y-79690476D01*
X105740533Y-79690476D02*
X105883390Y-79738095D01*
X105883390Y-79738095D02*
X106454819Y-80309523D01*
X106454819Y-80309523D02*
X106454819Y-79690476D01*
X105454819Y-79071428D02*
X105454819Y-78976190D01*
X105454819Y-78976190D02*
X105502438Y-78880952D01*
X105502438Y-78880952D02*
X105550057Y-78833333D01*
X105550057Y-78833333D02*
X105645295Y-78785714D01*
X105645295Y-78785714D02*
X105835771Y-78738095D01*
X105835771Y-78738095D02*
X106073866Y-78738095D01*
X106073866Y-78738095D02*
X106264342Y-78785714D01*
X106264342Y-78785714D02*
X106359580Y-78833333D01*
X106359580Y-78833333D02*
X106407200Y-78880952D01*
X106407200Y-78880952D02*
X106454819Y-78976190D01*
X106454819Y-78976190D02*
X106454819Y-79071428D01*
X106454819Y-79071428D02*
X106407200Y-79166666D01*
X106407200Y-79166666D02*
X106359580Y-79214285D01*
X106359580Y-79214285D02*
X106264342Y-79261904D01*
X106264342Y-79261904D02*
X106073866Y-79309523D01*
X106073866Y-79309523D02*
X105835771Y-79309523D01*
X105835771Y-79309523D02*
X105645295Y-79261904D01*
X105645295Y-79261904D02*
X105550057Y-79214285D01*
X105550057Y-79214285D02*
X105502438Y-79166666D01*
X105502438Y-79166666D02*
X105454819Y-79071428D01*
X128684580Y-90856666D02*
X128732200Y-90904285D01*
X128732200Y-90904285D02*
X128779819Y-91047142D01*
X128779819Y-91047142D02*
X128779819Y-91142380D01*
X128779819Y-91142380D02*
X128732200Y-91285237D01*
X128732200Y-91285237D02*
X128636961Y-91380475D01*
X128636961Y-91380475D02*
X128541723Y-91428094D01*
X128541723Y-91428094D02*
X128351247Y-91475713D01*
X128351247Y-91475713D02*
X128208390Y-91475713D01*
X128208390Y-91475713D02*
X128017914Y-91428094D01*
X128017914Y-91428094D02*
X127922676Y-91380475D01*
X127922676Y-91380475D02*
X127827438Y-91285237D01*
X127827438Y-91285237D02*
X127779819Y-91142380D01*
X127779819Y-91142380D02*
X127779819Y-91047142D01*
X127779819Y-91047142D02*
X127827438Y-90904285D01*
X127827438Y-90904285D02*
X127875057Y-90856666D01*
X127779819Y-90523332D02*
X127779819Y-89904285D01*
X127779819Y-89904285D02*
X128160771Y-90237618D01*
X128160771Y-90237618D02*
X128160771Y-90094761D01*
X128160771Y-90094761D02*
X128208390Y-89999523D01*
X128208390Y-89999523D02*
X128256009Y-89951904D01*
X128256009Y-89951904D02*
X128351247Y-89904285D01*
X128351247Y-89904285D02*
X128589342Y-89904285D01*
X128589342Y-89904285D02*
X128684580Y-89951904D01*
X128684580Y-89951904D02*
X128732200Y-89999523D01*
X128732200Y-89999523D02*
X128779819Y-90094761D01*
X128779819Y-90094761D02*
X128779819Y-90380475D01*
X128779819Y-90380475D02*
X128732200Y-90475713D01*
X128732200Y-90475713D02*
X128684580Y-90523332D01*
X149787014Y-75751029D02*
X149834634Y-75798648D01*
X149834634Y-75798648D02*
X149882253Y-75941505D01*
X149882253Y-75941505D02*
X149882253Y-76036743D01*
X149882253Y-76036743D02*
X149834634Y-76179600D01*
X149834634Y-76179600D02*
X149739395Y-76274838D01*
X149739395Y-76274838D02*
X149644157Y-76322457D01*
X149644157Y-76322457D02*
X149453681Y-76370076D01*
X149453681Y-76370076D02*
X149310824Y-76370076D01*
X149310824Y-76370076D02*
X149120348Y-76322457D01*
X149120348Y-76322457D02*
X149025110Y-76274838D01*
X149025110Y-76274838D02*
X148929872Y-76179600D01*
X148929872Y-76179600D02*
X148882253Y-76036743D01*
X148882253Y-76036743D02*
X148882253Y-75941505D01*
X148882253Y-75941505D02*
X148929872Y-75798648D01*
X148929872Y-75798648D02*
X148977491Y-75751029D01*
X148882253Y-75417695D02*
X148882253Y-74751029D01*
X148882253Y-74751029D02*
X149882253Y-75179600D01*
X166833333Y-70359580D02*
X166785714Y-70407200D01*
X166785714Y-70407200D02*
X166642857Y-70454819D01*
X166642857Y-70454819D02*
X166547619Y-70454819D01*
X166547619Y-70454819D02*
X166404762Y-70407200D01*
X166404762Y-70407200D02*
X166309524Y-70311961D01*
X166309524Y-70311961D02*
X166261905Y-70216723D01*
X166261905Y-70216723D02*
X166214286Y-70026247D01*
X166214286Y-70026247D02*
X166214286Y-69883390D01*
X166214286Y-69883390D02*
X166261905Y-69692914D01*
X166261905Y-69692914D02*
X166309524Y-69597676D01*
X166309524Y-69597676D02*
X166404762Y-69502438D01*
X166404762Y-69502438D02*
X166547619Y-69454819D01*
X166547619Y-69454819D02*
X166642857Y-69454819D01*
X166642857Y-69454819D02*
X166785714Y-69502438D01*
X166785714Y-69502438D02*
X166833333Y-69550057D01*
X167309524Y-70454819D02*
X167500000Y-70454819D01*
X167500000Y-70454819D02*
X167595238Y-70407200D01*
X167595238Y-70407200D02*
X167642857Y-70359580D01*
X167642857Y-70359580D02*
X167738095Y-70216723D01*
X167738095Y-70216723D02*
X167785714Y-70026247D01*
X167785714Y-70026247D02*
X167785714Y-69645295D01*
X167785714Y-69645295D02*
X167738095Y-69550057D01*
X167738095Y-69550057D02*
X167690476Y-69502438D01*
X167690476Y-69502438D02*
X167595238Y-69454819D01*
X167595238Y-69454819D02*
X167404762Y-69454819D01*
X167404762Y-69454819D02*
X167309524Y-69502438D01*
X167309524Y-69502438D02*
X167261905Y-69550057D01*
X167261905Y-69550057D02*
X167214286Y-69645295D01*
X167214286Y-69645295D02*
X167214286Y-69883390D01*
X167214286Y-69883390D02*
X167261905Y-69978628D01*
X167261905Y-69978628D02*
X167309524Y-70026247D01*
X167309524Y-70026247D02*
X167404762Y-70073866D01*
X167404762Y-70073866D02*
X167595238Y-70073866D01*
X167595238Y-70073866D02*
X167690476Y-70026247D01*
X167690476Y-70026247D02*
X167738095Y-69978628D01*
X167738095Y-69978628D02*
X167785714Y-69883390D01*
X168959580Y-97242857D02*
X169007200Y-97290476D01*
X169007200Y-97290476D02*
X169054819Y-97433333D01*
X169054819Y-97433333D02*
X169054819Y-97528571D01*
X169054819Y-97528571D02*
X169007200Y-97671428D01*
X169007200Y-97671428D02*
X168911961Y-97766666D01*
X168911961Y-97766666D02*
X168816723Y-97814285D01*
X168816723Y-97814285D02*
X168626247Y-97861904D01*
X168626247Y-97861904D02*
X168483390Y-97861904D01*
X168483390Y-97861904D02*
X168292914Y-97814285D01*
X168292914Y-97814285D02*
X168197676Y-97766666D01*
X168197676Y-97766666D02*
X168102438Y-97671428D01*
X168102438Y-97671428D02*
X168054819Y-97528571D01*
X168054819Y-97528571D02*
X168054819Y-97433333D01*
X168054819Y-97433333D02*
X168102438Y-97290476D01*
X168102438Y-97290476D02*
X168150057Y-97242857D01*
X169054819Y-96290476D02*
X169054819Y-96861904D01*
X169054819Y-96576190D02*
X168054819Y-96576190D01*
X168054819Y-96576190D02*
X168197676Y-96671428D01*
X168197676Y-96671428D02*
X168292914Y-96766666D01*
X168292914Y-96766666D02*
X168340533Y-96861904D01*
X168054819Y-95671428D02*
X168054819Y-95576190D01*
X168054819Y-95576190D02*
X168102438Y-95480952D01*
X168102438Y-95480952D02*
X168150057Y-95433333D01*
X168150057Y-95433333D02*
X168245295Y-95385714D01*
X168245295Y-95385714D02*
X168435771Y-95338095D01*
X168435771Y-95338095D02*
X168673866Y-95338095D01*
X168673866Y-95338095D02*
X168864342Y-95385714D01*
X168864342Y-95385714D02*
X168959580Y-95433333D01*
X168959580Y-95433333D02*
X169007200Y-95480952D01*
X169007200Y-95480952D02*
X169054819Y-95576190D01*
X169054819Y-95576190D02*
X169054819Y-95671428D01*
X169054819Y-95671428D02*
X169007200Y-95766666D01*
X169007200Y-95766666D02*
X168959580Y-95814285D01*
X168959580Y-95814285D02*
X168864342Y-95861904D01*
X168864342Y-95861904D02*
X168673866Y-95909523D01*
X168673866Y-95909523D02*
X168435771Y-95909523D01*
X168435771Y-95909523D02*
X168245295Y-95861904D01*
X168245295Y-95861904D02*
X168150057Y-95814285D01*
X168150057Y-95814285D02*
X168102438Y-95766666D01*
X168102438Y-95766666D02*
X168054819Y-95671428D01*
X154437506Y-73314895D02*
X154104118Y-72838626D01*
X153865983Y-73314895D02*
X153865983Y-72314730D01*
X153865983Y-72314730D02*
X154246998Y-72314730D01*
X154246998Y-72314730D02*
X154342252Y-72362357D01*
X154342252Y-72362357D02*
X154389879Y-72409984D01*
X154389879Y-72409984D02*
X154437506Y-72505238D01*
X154437506Y-72505238D02*
X154437506Y-72648119D01*
X154437506Y-72648119D02*
X154389879Y-72743373D01*
X154389879Y-72743373D02*
X154342252Y-72790999D01*
X154342252Y-72790999D02*
X154246998Y-72838626D01*
X154246998Y-72838626D02*
X153865983Y-72838626D01*
X154818521Y-72409984D02*
X154866148Y-72362357D01*
X154866148Y-72362357D02*
X154961402Y-72314730D01*
X154961402Y-72314730D02*
X155199536Y-72314730D01*
X155199536Y-72314730D02*
X155294790Y-72362357D01*
X155294790Y-72362357D02*
X155342417Y-72409984D01*
X155342417Y-72409984D02*
X155390044Y-72505238D01*
X155390044Y-72505238D02*
X155390044Y-72600492D01*
X155390044Y-72600492D02*
X155342417Y-72743373D01*
X155342417Y-72743373D02*
X154770894Y-73314895D01*
X154770894Y-73314895D02*
X155390044Y-73314895D01*
X105963095Y-89352438D02*
X105867857Y-89304819D01*
X105867857Y-89304819D02*
X105725000Y-89304819D01*
X105725000Y-89304819D02*
X105582143Y-89352438D01*
X105582143Y-89352438D02*
X105486905Y-89447676D01*
X105486905Y-89447676D02*
X105439286Y-89542914D01*
X105439286Y-89542914D02*
X105391667Y-89733390D01*
X105391667Y-89733390D02*
X105391667Y-89876247D01*
X105391667Y-89876247D02*
X105439286Y-90066723D01*
X105439286Y-90066723D02*
X105486905Y-90161961D01*
X105486905Y-90161961D02*
X105582143Y-90257200D01*
X105582143Y-90257200D02*
X105725000Y-90304819D01*
X105725000Y-90304819D02*
X105820238Y-90304819D01*
X105820238Y-90304819D02*
X105963095Y-90257200D01*
X105963095Y-90257200D02*
X106010714Y-90209580D01*
X106010714Y-90209580D02*
X106010714Y-89876247D01*
X106010714Y-89876247D02*
X105820238Y-89876247D01*
X106439286Y-90304819D02*
X106439286Y-89304819D01*
X106439286Y-89304819D02*
X107010714Y-90304819D01*
X107010714Y-90304819D02*
X107010714Y-89304819D01*
X107486905Y-90304819D02*
X107486905Y-89304819D01*
X107486905Y-89304819D02*
X107725000Y-89304819D01*
X107725000Y-89304819D02*
X107867857Y-89352438D01*
X107867857Y-89352438D02*
X107963095Y-89447676D01*
X107963095Y-89447676D02*
X108010714Y-89542914D01*
X108010714Y-89542914D02*
X108058333Y-89733390D01*
X108058333Y-89733390D02*
X108058333Y-89876247D01*
X108058333Y-89876247D02*
X108010714Y-90066723D01*
X108010714Y-90066723D02*
X107963095Y-90161961D01*
X107963095Y-90161961D02*
X107867857Y-90257200D01*
X107867857Y-90257200D02*
X107725000Y-90304819D01*
X107725000Y-90304819D02*
X107486905Y-90304819D01*
X161246594Y-78542582D02*
X161246594Y-79352105D01*
X161246594Y-79352105D02*
X161294213Y-79447343D01*
X161294213Y-79447343D02*
X161341832Y-79494963D01*
X161341832Y-79494963D02*
X161437070Y-79542582D01*
X161437070Y-79542582D02*
X161627546Y-79542582D01*
X161627546Y-79542582D02*
X161722784Y-79494963D01*
X161722784Y-79494963D02*
X161770403Y-79447343D01*
X161770403Y-79447343D02*
X161818022Y-79352105D01*
X161818022Y-79352105D02*
X161818022Y-78542582D01*
X162437070Y-78971153D02*
X162341832Y-78923534D01*
X162341832Y-78923534D02*
X162294213Y-78875915D01*
X162294213Y-78875915D02*
X162246594Y-78780677D01*
X162246594Y-78780677D02*
X162246594Y-78733058D01*
X162246594Y-78733058D02*
X162294213Y-78637820D01*
X162294213Y-78637820D02*
X162341832Y-78590201D01*
X162341832Y-78590201D02*
X162437070Y-78542582D01*
X162437070Y-78542582D02*
X162627546Y-78542582D01*
X162627546Y-78542582D02*
X162722784Y-78590201D01*
X162722784Y-78590201D02*
X162770403Y-78637820D01*
X162770403Y-78637820D02*
X162818022Y-78733058D01*
X162818022Y-78733058D02*
X162818022Y-78780677D01*
X162818022Y-78780677D02*
X162770403Y-78875915D01*
X162770403Y-78875915D02*
X162722784Y-78923534D01*
X162722784Y-78923534D02*
X162627546Y-78971153D01*
X162627546Y-78971153D02*
X162437070Y-78971153D01*
X162437070Y-78971153D02*
X162341832Y-79018772D01*
X162341832Y-79018772D02*
X162294213Y-79066391D01*
X162294213Y-79066391D02*
X162246594Y-79161629D01*
X162246594Y-79161629D02*
X162246594Y-79352105D01*
X162246594Y-79352105D02*
X162294213Y-79447343D01*
X162294213Y-79447343D02*
X162341832Y-79494963D01*
X162341832Y-79494963D02*
X162437070Y-79542582D01*
X162437070Y-79542582D02*
X162627546Y-79542582D01*
X162627546Y-79542582D02*
X162722784Y-79494963D01*
X162722784Y-79494963D02*
X162770403Y-79447343D01*
X162770403Y-79447343D02*
X162818022Y-79352105D01*
X162818022Y-79352105D02*
X162818022Y-79161629D01*
X162818022Y-79161629D02*
X162770403Y-79066391D01*
X162770403Y-79066391D02*
X162722784Y-79018772D01*
X162722784Y-79018772D02*
X162627546Y-78971153D01*
X149659915Y-82391666D02*
X149707535Y-82439285D01*
X149707535Y-82439285D02*
X149755154Y-82582142D01*
X149755154Y-82582142D02*
X149755154Y-82677380D01*
X149755154Y-82677380D02*
X149707535Y-82820237D01*
X149707535Y-82820237D02*
X149612296Y-82915475D01*
X149612296Y-82915475D02*
X149517058Y-82963094D01*
X149517058Y-82963094D02*
X149326582Y-83010713D01*
X149326582Y-83010713D02*
X149183725Y-83010713D01*
X149183725Y-83010713D02*
X148993249Y-82963094D01*
X148993249Y-82963094D02*
X148898011Y-82915475D01*
X148898011Y-82915475D02*
X148802773Y-82820237D01*
X148802773Y-82820237D02*
X148755154Y-82677380D01*
X148755154Y-82677380D02*
X148755154Y-82582142D01*
X148755154Y-82582142D02*
X148802773Y-82439285D01*
X148802773Y-82439285D02*
X148850392Y-82391666D01*
X149183725Y-81820237D02*
X149136106Y-81915475D01*
X149136106Y-81915475D02*
X149088487Y-81963094D01*
X149088487Y-81963094D02*
X148993249Y-82010713D01*
X148993249Y-82010713D02*
X148945630Y-82010713D01*
X148945630Y-82010713D02*
X148850392Y-81963094D01*
X148850392Y-81963094D02*
X148802773Y-81915475D01*
X148802773Y-81915475D02*
X148755154Y-81820237D01*
X148755154Y-81820237D02*
X148755154Y-81629761D01*
X148755154Y-81629761D02*
X148802773Y-81534523D01*
X148802773Y-81534523D02*
X148850392Y-81486904D01*
X148850392Y-81486904D02*
X148945630Y-81439285D01*
X148945630Y-81439285D02*
X148993249Y-81439285D01*
X148993249Y-81439285D02*
X149088487Y-81486904D01*
X149088487Y-81486904D02*
X149136106Y-81534523D01*
X149136106Y-81534523D02*
X149183725Y-81629761D01*
X149183725Y-81629761D02*
X149183725Y-81820237D01*
X149183725Y-81820237D02*
X149231344Y-81915475D01*
X149231344Y-81915475D02*
X149278963Y-81963094D01*
X149278963Y-81963094D02*
X149374201Y-82010713D01*
X149374201Y-82010713D02*
X149564677Y-82010713D01*
X149564677Y-82010713D02*
X149659915Y-81963094D01*
X149659915Y-81963094D02*
X149707535Y-81915475D01*
X149707535Y-81915475D02*
X149755154Y-81820237D01*
X149755154Y-81820237D02*
X149755154Y-81629761D01*
X149755154Y-81629761D02*
X149707535Y-81534523D01*
X149707535Y-81534523D02*
X149659915Y-81486904D01*
X149659915Y-81486904D02*
X149564677Y-81439285D01*
X149564677Y-81439285D02*
X149374201Y-81439285D01*
X149374201Y-81439285D02*
X149278963Y-81486904D01*
X149278963Y-81486904D02*
X149231344Y-81534523D01*
X149231344Y-81534523D02*
X149183725Y-81629761D01*
X170888095Y-72319819D02*
X170888095Y-71319819D01*
X170888095Y-71796009D02*
X171459523Y-71796009D01*
X171459523Y-72319819D02*
X171459523Y-71319819D01*
X171840476Y-71319819D02*
X172459523Y-71319819D01*
X172459523Y-71319819D02*
X172126190Y-71700771D01*
X172126190Y-71700771D02*
X172269047Y-71700771D01*
X172269047Y-71700771D02*
X172364285Y-71748390D01*
X172364285Y-71748390D02*
X172411904Y-71796009D01*
X172411904Y-71796009D02*
X172459523Y-71891247D01*
X172459523Y-71891247D02*
X172459523Y-72129342D01*
X172459523Y-72129342D02*
X172411904Y-72224580D01*
X172411904Y-72224580D02*
X172364285Y-72272200D01*
X172364285Y-72272200D02*
X172269047Y-72319819D01*
X172269047Y-72319819D02*
X171983333Y-72319819D01*
X171983333Y-72319819D02*
X171888095Y-72272200D01*
X171888095Y-72272200D02*
X171840476Y-72224580D01*
X136570833Y-92819580D02*
X136523214Y-92867200D01*
X136523214Y-92867200D02*
X136380357Y-92914819D01*
X136380357Y-92914819D02*
X136285119Y-92914819D01*
X136285119Y-92914819D02*
X136142262Y-92867200D01*
X136142262Y-92867200D02*
X136047024Y-92771961D01*
X136047024Y-92771961D02*
X135999405Y-92676723D01*
X135999405Y-92676723D02*
X135951786Y-92486247D01*
X135951786Y-92486247D02*
X135951786Y-92343390D01*
X135951786Y-92343390D02*
X135999405Y-92152914D01*
X135999405Y-92152914D02*
X136047024Y-92057676D01*
X136047024Y-92057676D02*
X136142262Y-91962438D01*
X136142262Y-91962438D02*
X136285119Y-91914819D01*
X136285119Y-91914819D02*
X136380357Y-91914819D01*
X136380357Y-91914819D02*
X136523214Y-91962438D01*
X136523214Y-91962438D02*
X136570833Y-92010057D01*
X137523214Y-92914819D02*
X136951786Y-92914819D01*
X137237500Y-92914819D02*
X137237500Y-91914819D01*
X137237500Y-91914819D02*
X137142262Y-92057676D01*
X137142262Y-92057676D02*
X137047024Y-92152914D01*
X137047024Y-92152914D02*
X136951786Y-92200533D01*
X174259580Y-87242857D02*
X174307200Y-87290476D01*
X174307200Y-87290476D02*
X174354819Y-87433333D01*
X174354819Y-87433333D02*
X174354819Y-87528571D01*
X174354819Y-87528571D02*
X174307200Y-87671428D01*
X174307200Y-87671428D02*
X174211961Y-87766666D01*
X174211961Y-87766666D02*
X174116723Y-87814285D01*
X174116723Y-87814285D02*
X173926247Y-87861904D01*
X173926247Y-87861904D02*
X173783390Y-87861904D01*
X173783390Y-87861904D02*
X173592914Y-87814285D01*
X173592914Y-87814285D02*
X173497676Y-87766666D01*
X173497676Y-87766666D02*
X173402438Y-87671428D01*
X173402438Y-87671428D02*
X173354819Y-87528571D01*
X173354819Y-87528571D02*
X173354819Y-87433333D01*
X173354819Y-87433333D02*
X173402438Y-87290476D01*
X173402438Y-87290476D02*
X173450057Y-87242857D01*
X174354819Y-86290476D02*
X174354819Y-86861904D01*
X174354819Y-86576190D02*
X173354819Y-86576190D01*
X173354819Y-86576190D02*
X173497676Y-86671428D01*
X173497676Y-86671428D02*
X173592914Y-86766666D01*
X173592914Y-86766666D02*
X173640533Y-86861904D01*
X174354819Y-85338095D02*
X174354819Y-85909523D01*
X174354819Y-85623809D02*
X173354819Y-85623809D01*
X173354819Y-85623809D02*
X173497676Y-85719047D01*
X173497676Y-85719047D02*
X173592914Y-85814285D01*
X173592914Y-85814285D02*
X173640533Y-85909523D01*
X111654819Y-79742857D02*
X111178628Y-80076190D01*
X111654819Y-80314285D02*
X110654819Y-80314285D01*
X110654819Y-80314285D02*
X110654819Y-79933333D01*
X110654819Y-79933333D02*
X110702438Y-79838095D01*
X110702438Y-79838095D02*
X110750057Y-79790476D01*
X110750057Y-79790476D02*
X110845295Y-79742857D01*
X110845295Y-79742857D02*
X110988152Y-79742857D01*
X110988152Y-79742857D02*
X111083390Y-79790476D01*
X111083390Y-79790476D02*
X111131009Y-79838095D01*
X111131009Y-79838095D02*
X111178628Y-79933333D01*
X111178628Y-79933333D02*
X111178628Y-80314285D01*
X110750057Y-79361904D02*
X110702438Y-79314285D01*
X110702438Y-79314285D02*
X110654819Y-79219047D01*
X110654819Y-79219047D02*
X110654819Y-78980952D01*
X110654819Y-78980952D02*
X110702438Y-78885714D01*
X110702438Y-78885714D02*
X110750057Y-78838095D01*
X110750057Y-78838095D02*
X110845295Y-78790476D01*
X110845295Y-78790476D02*
X110940533Y-78790476D01*
X110940533Y-78790476D02*
X111083390Y-78838095D01*
X111083390Y-78838095D02*
X111654819Y-79409523D01*
X111654819Y-79409523D02*
X111654819Y-78790476D01*
X110654819Y-78457142D02*
X110654819Y-77838095D01*
X110654819Y-77838095D02*
X111035771Y-78171428D01*
X111035771Y-78171428D02*
X111035771Y-78028571D01*
X111035771Y-78028571D02*
X111083390Y-77933333D01*
X111083390Y-77933333D02*
X111131009Y-77885714D01*
X111131009Y-77885714D02*
X111226247Y-77838095D01*
X111226247Y-77838095D02*
X111464342Y-77838095D01*
X111464342Y-77838095D02*
X111559580Y-77885714D01*
X111559580Y-77885714D02*
X111607200Y-77933333D01*
X111607200Y-77933333D02*
X111654819Y-78028571D01*
X111654819Y-78028571D02*
X111654819Y-78314285D01*
X111654819Y-78314285D02*
X111607200Y-78409523D01*
X111607200Y-78409523D02*
X111559580Y-78457142D01*
X158009536Y-86884658D02*
X157676148Y-86408389D01*
X157438013Y-86884658D02*
X157438013Y-85884493D01*
X157438013Y-85884493D02*
X157819028Y-85884493D01*
X157819028Y-85884493D02*
X157914282Y-85932120D01*
X157914282Y-85932120D02*
X157961909Y-85979747D01*
X157961909Y-85979747D02*
X158009536Y-86075001D01*
X158009536Y-86075001D02*
X158009536Y-86217882D01*
X158009536Y-86217882D02*
X157961909Y-86313136D01*
X157961909Y-86313136D02*
X157914282Y-86360762D01*
X157914282Y-86360762D02*
X157819028Y-86408389D01*
X157819028Y-86408389D02*
X157438013Y-86408389D01*
X158962074Y-86884658D02*
X158390551Y-86884658D01*
X158676313Y-86884658D02*
X158676313Y-85884493D01*
X158676313Y-85884493D02*
X158581059Y-86027374D01*
X158581059Y-86027374D02*
X158485805Y-86122628D01*
X158485805Y-86122628D02*
X158390551Y-86170255D01*
X159343089Y-85979747D02*
X159390716Y-85932120D01*
X159390716Y-85932120D02*
X159485970Y-85884493D01*
X159485970Y-85884493D02*
X159724104Y-85884493D01*
X159724104Y-85884493D02*
X159819358Y-85932120D01*
X159819358Y-85932120D02*
X159866985Y-85979747D01*
X159866985Y-85979747D02*
X159914612Y-86075001D01*
X159914612Y-86075001D02*
X159914612Y-86170255D01*
X159914612Y-86170255D02*
X159866985Y-86313136D01*
X159866985Y-86313136D02*
X159295462Y-86884658D01*
X159295462Y-86884658D02*
X159914612Y-86884658D01*
X139454819Y-95142857D02*
X138978628Y-95476190D01*
X139454819Y-95714285D02*
X138454819Y-95714285D01*
X138454819Y-95714285D02*
X138454819Y-95333333D01*
X138454819Y-95333333D02*
X138502438Y-95238095D01*
X138502438Y-95238095D02*
X138550057Y-95190476D01*
X138550057Y-95190476D02*
X138645295Y-95142857D01*
X138645295Y-95142857D02*
X138788152Y-95142857D01*
X138788152Y-95142857D02*
X138883390Y-95190476D01*
X138883390Y-95190476D02*
X138931009Y-95238095D01*
X138931009Y-95238095D02*
X138978628Y-95333333D01*
X138978628Y-95333333D02*
X138978628Y-95714285D01*
X139454819Y-94190476D02*
X139454819Y-94761904D01*
X139454819Y-94476190D02*
X138454819Y-94476190D01*
X138454819Y-94476190D02*
X138597676Y-94571428D01*
X138597676Y-94571428D02*
X138692914Y-94666666D01*
X138692914Y-94666666D02*
X138740533Y-94761904D01*
X138883390Y-93619047D02*
X138835771Y-93714285D01*
X138835771Y-93714285D02*
X138788152Y-93761904D01*
X138788152Y-93761904D02*
X138692914Y-93809523D01*
X138692914Y-93809523D02*
X138645295Y-93809523D01*
X138645295Y-93809523D02*
X138550057Y-93761904D01*
X138550057Y-93761904D02*
X138502438Y-93714285D01*
X138502438Y-93714285D02*
X138454819Y-93619047D01*
X138454819Y-93619047D02*
X138454819Y-93428571D01*
X138454819Y-93428571D02*
X138502438Y-93333333D01*
X138502438Y-93333333D02*
X138550057Y-93285714D01*
X138550057Y-93285714D02*
X138645295Y-93238095D01*
X138645295Y-93238095D02*
X138692914Y-93238095D01*
X138692914Y-93238095D02*
X138788152Y-93285714D01*
X138788152Y-93285714D02*
X138835771Y-93333333D01*
X138835771Y-93333333D02*
X138883390Y-93428571D01*
X138883390Y-93428571D02*
X138883390Y-93619047D01*
X138883390Y-93619047D02*
X138931009Y-93714285D01*
X138931009Y-93714285D02*
X138978628Y-93761904D01*
X138978628Y-93761904D02*
X139073866Y-93809523D01*
X139073866Y-93809523D02*
X139264342Y-93809523D01*
X139264342Y-93809523D02*
X139359580Y-93761904D01*
X139359580Y-93761904D02*
X139407200Y-93714285D01*
X139407200Y-93714285D02*
X139454819Y-93619047D01*
X139454819Y-93619047D02*
X139454819Y-93428571D01*
X139454819Y-93428571D02*
X139407200Y-93333333D01*
X139407200Y-93333333D02*
X139359580Y-93285714D01*
X139359580Y-93285714D02*
X139264342Y-93238095D01*
X139264342Y-93238095D02*
X139073866Y-93238095D01*
X139073866Y-93238095D02*
X138978628Y-93285714D01*
X138978628Y-93285714D02*
X138931009Y-93333333D01*
X138931009Y-93333333D02*
X138883390Y-93428571D01*
X126159580Y-90966666D02*
X126207200Y-91014285D01*
X126207200Y-91014285D02*
X126254819Y-91157142D01*
X126254819Y-91157142D02*
X126254819Y-91252380D01*
X126254819Y-91252380D02*
X126207200Y-91395237D01*
X126207200Y-91395237D02*
X126111961Y-91490475D01*
X126111961Y-91490475D02*
X126016723Y-91538094D01*
X126016723Y-91538094D02*
X125826247Y-91585713D01*
X125826247Y-91585713D02*
X125683390Y-91585713D01*
X125683390Y-91585713D02*
X125492914Y-91538094D01*
X125492914Y-91538094D02*
X125397676Y-91490475D01*
X125397676Y-91490475D02*
X125302438Y-91395237D01*
X125302438Y-91395237D02*
X125254819Y-91252380D01*
X125254819Y-91252380D02*
X125254819Y-91157142D01*
X125254819Y-91157142D02*
X125302438Y-91014285D01*
X125302438Y-91014285D02*
X125350057Y-90966666D01*
X125350057Y-90585713D02*
X125302438Y-90538094D01*
X125302438Y-90538094D02*
X125254819Y-90442856D01*
X125254819Y-90442856D02*
X125254819Y-90204761D01*
X125254819Y-90204761D02*
X125302438Y-90109523D01*
X125302438Y-90109523D02*
X125350057Y-90061904D01*
X125350057Y-90061904D02*
X125445295Y-90014285D01*
X125445295Y-90014285D02*
X125540533Y-90014285D01*
X125540533Y-90014285D02*
X125683390Y-90061904D01*
X125683390Y-90061904D02*
X126254819Y-90633332D01*
X126254819Y-90633332D02*
X126254819Y-90014285D01*
X149180832Y-79031182D02*
X148847499Y-78554991D01*
X148609404Y-79031182D02*
X148609404Y-78031182D01*
X148609404Y-78031182D02*
X148990356Y-78031182D01*
X148990356Y-78031182D02*
X149085594Y-78078801D01*
X149085594Y-78078801D02*
X149133213Y-78126420D01*
X149133213Y-78126420D02*
X149180832Y-78221658D01*
X149180832Y-78221658D02*
X149180832Y-78364515D01*
X149180832Y-78364515D02*
X149133213Y-78459753D01*
X149133213Y-78459753D02*
X149085594Y-78507372D01*
X149085594Y-78507372D02*
X148990356Y-78554991D01*
X148990356Y-78554991D02*
X148609404Y-78554991D01*
X150037975Y-78364515D02*
X150037975Y-79031182D01*
X149799880Y-77983563D02*
X149561785Y-78697848D01*
X149561785Y-78697848D02*
X150180832Y-78697848D01*
X151822641Y-90234582D02*
X151489308Y-89758391D01*
X151251213Y-90234582D02*
X151251213Y-89234582D01*
X151251213Y-89234582D02*
X151632165Y-89234582D01*
X151632165Y-89234582D02*
X151727403Y-89282201D01*
X151727403Y-89282201D02*
X151775022Y-89329820D01*
X151775022Y-89329820D02*
X151822641Y-89425058D01*
X151822641Y-89425058D02*
X151822641Y-89567915D01*
X151822641Y-89567915D02*
X151775022Y-89663153D01*
X151775022Y-89663153D02*
X151727403Y-89710772D01*
X151727403Y-89710772D02*
X151632165Y-89758391D01*
X151632165Y-89758391D02*
X151251213Y-89758391D01*
X152775022Y-90234582D02*
X152203594Y-90234582D01*
X152489308Y-90234582D02*
X152489308Y-89234582D01*
X152489308Y-89234582D02*
X152394070Y-89377439D01*
X152394070Y-89377439D02*
X152298832Y-89472677D01*
X152298832Y-89472677D02*
X152203594Y-89520296D01*
X153727403Y-90234582D02*
X153155975Y-90234582D01*
X153441689Y-90234582D02*
X153441689Y-89234582D01*
X153441689Y-89234582D02*
X153346451Y-89377439D01*
X153346451Y-89377439D02*
X153251213Y-89472677D01*
X153251213Y-89472677D02*
X153155975Y-89520296D01*
X137866666Y-75649819D02*
X137866666Y-76364104D01*
X137866666Y-76364104D02*
X137819047Y-76506961D01*
X137819047Y-76506961D02*
X137723809Y-76602200D01*
X137723809Y-76602200D02*
X137580952Y-76649819D01*
X137580952Y-76649819D02*
X137485714Y-76649819D01*
X138866666Y-76649819D02*
X138295238Y-76649819D01*
X138580952Y-76649819D02*
X138580952Y-75649819D01*
X138580952Y-75649819D02*
X138485714Y-75792676D01*
X138485714Y-75792676D02*
X138390476Y-75887914D01*
X138390476Y-75887914D02*
X138295238Y-75935533D01*
X120257142Y-77654819D02*
X119923809Y-77178628D01*
X119685714Y-77654819D02*
X119685714Y-76654819D01*
X119685714Y-76654819D02*
X120066666Y-76654819D01*
X120066666Y-76654819D02*
X120161904Y-76702438D01*
X120161904Y-76702438D02*
X120209523Y-76750057D01*
X120209523Y-76750057D02*
X120257142Y-76845295D01*
X120257142Y-76845295D02*
X120257142Y-76988152D01*
X120257142Y-76988152D02*
X120209523Y-77083390D01*
X120209523Y-77083390D02*
X120161904Y-77131009D01*
X120161904Y-77131009D02*
X120066666Y-77178628D01*
X120066666Y-77178628D02*
X119685714Y-77178628D01*
X120590476Y-76654819D02*
X121209523Y-76654819D01*
X121209523Y-76654819D02*
X120876190Y-77035771D01*
X120876190Y-77035771D02*
X121019047Y-77035771D01*
X121019047Y-77035771D02*
X121114285Y-77083390D01*
X121114285Y-77083390D02*
X121161904Y-77131009D01*
X121161904Y-77131009D02*
X121209523Y-77226247D01*
X121209523Y-77226247D02*
X121209523Y-77464342D01*
X121209523Y-77464342D02*
X121161904Y-77559580D01*
X121161904Y-77559580D02*
X121114285Y-77607200D01*
X121114285Y-77607200D02*
X121019047Y-77654819D01*
X121019047Y-77654819D02*
X120733333Y-77654819D01*
X120733333Y-77654819D02*
X120638095Y-77607200D01*
X120638095Y-77607200D02*
X120590476Y-77559580D01*
X121828571Y-76654819D02*
X121923809Y-76654819D01*
X121923809Y-76654819D02*
X122019047Y-76702438D01*
X122019047Y-76702438D02*
X122066666Y-76750057D01*
X122066666Y-76750057D02*
X122114285Y-76845295D01*
X122114285Y-76845295D02*
X122161904Y-77035771D01*
X122161904Y-77035771D02*
X122161904Y-77273866D01*
X122161904Y-77273866D02*
X122114285Y-77464342D01*
X122114285Y-77464342D02*
X122066666Y-77559580D01*
X122066666Y-77559580D02*
X122019047Y-77607200D01*
X122019047Y-77607200D02*
X121923809Y-77654819D01*
X121923809Y-77654819D02*
X121828571Y-77654819D01*
X121828571Y-77654819D02*
X121733333Y-77607200D01*
X121733333Y-77607200D02*
X121685714Y-77559580D01*
X121685714Y-77559580D02*
X121638095Y-77464342D01*
X121638095Y-77464342D02*
X121590476Y-77273866D01*
X121590476Y-77273866D02*
X121590476Y-77035771D01*
X121590476Y-77035771D02*
X121638095Y-76845295D01*
X121638095Y-76845295D02*
X121685714Y-76750057D01*
X121685714Y-76750057D02*
X121733333Y-76702438D01*
X121733333Y-76702438D02*
X121828571Y-76654819D01*
X158757037Y-97054895D02*
X158423649Y-96578626D01*
X158185514Y-97054895D02*
X158185514Y-96054730D01*
X158185514Y-96054730D02*
X158566529Y-96054730D01*
X158566529Y-96054730D02*
X158661783Y-96102357D01*
X158661783Y-96102357D02*
X158709410Y-96149984D01*
X158709410Y-96149984D02*
X158757037Y-96245238D01*
X158757037Y-96245238D02*
X158757037Y-96388119D01*
X158757037Y-96388119D02*
X158709410Y-96483373D01*
X158709410Y-96483373D02*
X158661783Y-96530999D01*
X158661783Y-96530999D02*
X158566529Y-96578626D01*
X158566529Y-96578626D02*
X158185514Y-96578626D01*
X159709575Y-97054895D02*
X159138052Y-97054895D01*
X159423814Y-97054895D02*
X159423814Y-96054730D01*
X159423814Y-96054730D02*
X159328560Y-96197611D01*
X159328560Y-96197611D02*
X159233306Y-96292865D01*
X159233306Y-96292865D02*
X159138052Y-96340492D01*
X160185844Y-97054895D02*
X160376352Y-97054895D01*
X160376352Y-97054895D02*
X160471605Y-97007269D01*
X160471605Y-97007269D02*
X160519232Y-96959642D01*
X160519232Y-96959642D02*
X160614486Y-96816761D01*
X160614486Y-96816761D02*
X160662113Y-96626253D01*
X160662113Y-96626253D02*
X160662113Y-96245238D01*
X160662113Y-96245238D02*
X160614486Y-96149984D01*
X160614486Y-96149984D02*
X160566859Y-96102357D01*
X160566859Y-96102357D02*
X160471605Y-96054730D01*
X160471605Y-96054730D02*
X160281098Y-96054730D01*
X160281098Y-96054730D02*
X160185844Y-96102357D01*
X160185844Y-96102357D02*
X160138217Y-96149984D01*
X160138217Y-96149984D02*
X160090590Y-96245238D01*
X160090590Y-96245238D02*
X160090590Y-96483373D01*
X160090590Y-96483373D02*
X160138217Y-96578626D01*
X160138217Y-96578626D02*
X160185844Y-96626253D01*
X160185844Y-96626253D02*
X160281098Y-96673880D01*
X160281098Y-96673880D02*
X160471605Y-96673880D01*
X160471605Y-96673880D02*
X160566859Y-96626253D01*
X160566859Y-96626253D02*
X160614486Y-96578626D01*
X160614486Y-96578626D02*
X160662113Y-96483373D01*
X106454819Y-77442857D02*
X105978628Y-77776190D01*
X106454819Y-78014285D02*
X105454819Y-78014285D01*
X105454819Y-78014285D02*
X105454819Y-77633333D01*
X105454819Y-77633333D02*
X105502438Y-77538095D01*
X105502438Y-77538095D02*
X105550057Y-77490476D01*
X105550057Y-77490476D02*
X105645295Y-77442857D01*
X105645295Y-77442857D02*
X105788152Y-77442857D01*
X105788152Y-77442857D02*
X105883390Y-77490476D01*
X105883390Y-77490476D02*
X105931009Y-77538095D01*
X105931009Y-77538095D02*
X105978628Y-77633333D01*
X105978628Y-77633333D02*
X105978628Y-78014285D01*
X105550057Y-77061904D02*
X105502438Y-77014285D01*
X105502438Y-77014285D02*
X105454819Y-76919047D01*
X105454819Y-76919047D02*
X105454819Y-76680952D01*
X105454819Y-76680952D02*
X105502438Y-76585714D01*
X105502438Y-76585714D02*
X105550057Y-76538095D01*
X105550057Y-76538095D02*
X105645295Y-76490476D01*
X105645295Y-76490476D02*
X105740533Y-76490476D01*
X105740533Y-76490476D02*
X105883390Y-76538095D01*
X105883390Y-76538095D02*
X106454819Y-77109523D01*
X106454819Y-77109523D02*
X106454819Y-76490476D01*
X106454819Y-76014285D02*
X106454819Y-75823809D01*
X106454819Y-75823809D02*
X106407200Y-75728571D01*
X106407200Y-75728571D02*
X106359580Y-75680952D01*
X106359580Y-75680952D02*
X106216723Y-75585714D01*
X106216723Y-75585714D02*
X106026247Y-75538095D01*
X106026247Y-75538095D02*
X105645295Y-75538095D01*
X105645295Y-75538095D02*
X105550057Y-75585714D01*
X105550057Y-75585714D02*
X105502438Y-75633333D01*
X105502438Y-75633333D02*
X105454819Y-75728571D01*
X105454819Y-75728571D02*
X105454819Y-75919047D01*
X105454819Y-75919047D02*
X105502438Y-76014285D01*
X105502438Y-76014285D02*
X105550057Y-76061904D01*
X105550057Y-76061904D02*
X105645295Y-76109523D01*
X105645295Y-76109523D02*
X105883390Y-76109523D01*
X105883390Y-76109523D02*
X105978628Y-76061904D01*
X105978628Y-76061904D02*
X106026247Y-76014285D01*
X106026247Y-76014285D02*
X106073866Y-75919047D01*
X106073866Y-75919047D02*
X106073866Y-75728571D01*
X106073866Y-75728571D02*
X106026247Y-75633333D01*
X106026247Y-75633333D02*
X105978628Y-75585714D01*
X105978628Y-75585714D02*
X105883390Y-75538095D01*
X108583333Y-92154819D02*
X108250000Y-91678628D01*
X108011905Y-92154819D02*
X108011905Y-91154819D01*
X108011905Y-91154819D02*
X108392857Y-91154819D01*
X108392857Y-91154819D02*
X108488095Y-91202438D01*
X108488095Y-91202438D02*
X108535714Y-91250057D01*
X108535714Y-91250057D02*
X108583333Y-91345295D01*
X108583333Y-91345295D02*
X108583333Y-91488152D01*
X108583333Y-91488152D02*
X108535714Y-91583390D01*
X108535714Y-91583390D02*
X108488095Y-91631009D01*
X108488095Y-91631009D02*
X108392857Y-91678628D01*
X108392857Y-91678628D02*
X108011905Y-91678628D01*
X108916667Y-91154819D02*
X109583333Y-92154819D01*
X109583333Y-91154819D02*
X108916667Y-92154819D01*
X170888095Y-96519819D02*
X170888095Y-95519819D01*
X170888095Y-95996009D02*
X171459523Y-95996009D01*
X171459523Y-96519819D02*
X171459523Y-95519819D01*
X171888095Y-95615057D02*
X171935714Y-95567438D01*
X171935714Y-95567438D02*
X172030952Y-95519819D01*
X172030952Y-95519819D02*
X172269047Y-95519819D01*
X172269047Y-95519819D02*
X172364285Y-95567438D01*
X172364285Y-95567438D02*
X172411904Y-95615057D01*
X172411904Y-95615057D02*
X172459523Y-95710295D01*
X172459523Y-95710295D02*
X172459523Y-95805533D01*
X172459523Y-95805533D02*
X172411904Y-95948390D01*
X172411904Y-95948390D02*
X171840476Y-96519819D01*
X171840476Y-96519819D02*
X172459523Y-96519819D01*
X161657142Y-85159580D02*
X161609523Y-85207200D01*
X161609523Y-85207200D02*
X161466666Y-85254819D01*
X161466666Y-85254819D02*
X161371428Y-85254819D01*
X161371428Y-85254819D02*
X161228571Y-85207200D01*
X161228571Y-85207200D02*
X161133333Y-85111961D01*
X161133333Y-85111961D02*
X161085714Y-85016723D01*
X161085714Y-85016723D02*
X161038095Y-84826247D01*
X161038095Y-84826247D02*
X161038095Y-84683390D01*
X161038095Y-84683390D02*
X161085714Y-84492914D01*
X161085714Y-84492914D02*
X161133333Y-84397676D01*
X161133333Y-84397676D02*
X161228571Y-84302438D01*
X161228571Y-84302438D02*
X161371428Y-84254819D01*
X161371428Y-84254819D02*
X161466666Y-84254819D01*
X161466666Y-84254819D02*
X161609523Y-84302438D01*
X161609523Y-84302438D02*
X161657142Y-84350057D01*
X162609523Y-85254819D02*
X162038095Y-85254819D01*
X162323809Y-85254819D02*
X162323809Y-84254819D01*
X162323809Y-84254819D02*
X162228571Y-84397676D01*
X162228571Y-84397676D02*
X162133333Y-84492914D01*
X162133333Y-84492914D02*
X162038095Y-84540533D01*
X163180952Y-84683390D02*
X163085714Y-84635771D01*
X163085714Y-84635771D02*
X163038095Y-84588152D01*
X163038095Y-84588152D02*
X162990476Y-84492914D01*
X162990476Y-84492914D02*
X162990476Y-84445295D01*
X162990476Y-84445295D02*
X163038095Y-84350057D01*
X163038095Y-84350057D02*
X163085714Y-84302438D01*
X163085714Y-84302438D02*
X163180952Y-84254819D01*
X163180952Y-84254819D02*
X163371428Y-84254819D01*
X163371428Y-84254819D02*
X163466666Y-84302438D01*
X163466666Y-84302438D02*
X163514285Y-84350057D01*
X163514285Y-84350057D02*
X163561904Y-84445295D01*
X163561904Y-84445295D02*
X163561904Y-84492914D01*
X163561904Y-84492914D02*
X163514285Y-84588152D01*
X163514285Y-84588152D02*
X163466666Y-84635771D01*
X163466666Y-84635771D02*
X163371428Y-84683390D01*
X163371428Y-84683390D02*
X163180952Y-84683390D01*
X163180952Y-84683390D02*
X163085714Y-84731009D01*
X163085714Y-84731009D02*
X163038095Y-84778628D01*
X163038095Y-84778628D02*
X162990476Y-84873866D01*
X162990476Y-84873866D02*
X162990476Y-85064342D01*
X162990476Y-85064342D02*
X163038095Y-85159580D01*
X163038095Y-85159580D02*
X163085714Y-85207200D01*
X163085714Y-85207200D02*
X163180952Y-85254819D01*
X163180952Y-85254819D02*
X163371428Y-85254819D01*
X163371428Y-85254819D02*
X163466666Y-85207200D01*
X163466666Y-85207200D02*
X163514285Y-85159580D01*
X163514285Y-85159580D02*
X163561904Y-85064342D01*
X163561904Y-85064342D02*
X163561904Y-84873866D01*
X163561904Y-84873866D02*
X163514285Y-84778628D01*
X163514285Y-84778628D02*
X163466666Y-84731009D01*
X163466666Y-84731009D02*
X163371428Y-84683390D01*
D13*
%TO.C,R10*%
X151937935Y-89044763D02*
X152392063Y-89044763D01*
X151937935Y-90514763D02*
X152392063Y-90514763D01*
%TO.C,TX*%
X106175000Y-93090000D02*
X107575000Y-93090000D01*
X106175000Y-94490000D02*
X106175000Y-93090000D01*
X107575000Y-93090000D02*
X107575000Y-94490000D01*
X107575000Y-94490000D02*
X106175000Y-94490000D01*
%TO.C,C17*%
X161678747Y-92696963D02*
X162201251Y-92696963D01*
X161678747Y-94166963D02*
X162201251Y-94166963D01*
D14*
%TO.C,R5*%
X152775000Y-80225000D02*
X152775000Y-80825000D01*
X152775000Y-83825000D02*
X152775000Y-83225000D01*
X155425000Y-80225000D02*
X152775000Y-80225000D01*
X155425000Y-83825000D02*
X152775000Y-83825000D01*
D15*
X157640670Y-83583000D02*
G75*
G02*
X157400670Y-83583000I-120000J0D01*
G01*
X157400670Y-83583000D02*
G75*
G02*
X157640670Y-83583000I120000J0D01*
G01*
D13*
%TO.C,SW1*%
X125480000Y-84880000D02*
X125780000Y-84880000D01*
X125480000Y-89020000D02*
X125480000Y-84880000D01*
X125780000Y-89020000D02*
X125480000Y-89020000D01*
X128320000Y-84880000D02*
X128620000Y-84880000D01*
X128620000Y-84880000D02*
X128620000Y-89020000D01*
X128620000Y-89020000D02*
X128320000Y-89020000D01*
%TO.C,R14*%
X171650729Y-89067400D02*
X171196601Y-89067400D01*
X171650729Y-90537400D02*
X171196601Y-90537400D01*
%TO.C,R3*%
X155466735Y-77799363D02*
X155920863Y-77799363D01*
X155466735Y-79269363D02*
X155920863Y-79269363D01*
%TO.C,R22*%
X129115000Y-83250436D02*
X129115000Y-83704564D01*
X130585000Y-83250436D02*
X130585000Y-83704564D01*
D16*
%TO.C,IC1*%
X114050000Y-80565000D02*
X114050000Y-79365000D01*
X114188000Y-78415000D02*
X117112000Y-78415000D01*
X114188000Y-79015000D02*
X114188000Y-78415000D01*
X117112000Y-78415000D02*
X117112000Y-79015000D01*
X117112000Y-79015000D02*
X114188000Y-79015000D01*
D13*
%TO.C,C13*%
X150317499Y-86941015D02*
X150317499Y-86418511D01*
X151787499Y-86941015D02*
X151787499Y-86418511D01*
D14*
%TO.C,R16*%
X168117000Y-84760400D02*
X170767000Y-84760400D01*
X168117000Y-88360400D02*
X170767000Y-88360400D01*
X170767000Y-84760400D02*
X170767000Y-85360400D01*
X170767000Y-88360400D02*
X170767000Y-87760400D01*
D15*
X166141330Y-85002400D02*
G75*
G02*
X165901330Y-85002400I-120000J0D01*
G01*
X165901330Y-85002400D02*
G75*
G02*
X166141330Y-85002400I120000J0D01*
G01*
D13*
%TO.C,R8*%
X168572864Y-77441600D02*
X168118736Y-77441600D01*
X168572864Y-78911600D02*
X168118736Y-78911600D01*
D14*
%TO.C,U5*%
X111225000Y-101115000D02*
X111225000Y-95735000D01*
X124425000Y-95735000D02*
X124425000Y-101115000D01*
X124425000Y-101115000D02*
X111225000Y-101115000D01*
D16*
X125175000Y-94115000D02*
G75*
G02*
X124975000Y-94115000I-100000J0D01*
G01*
X124975000Y-94115000D02*
G75*
G02*
X125175000Y-94115000I100000J0D01*
G01*
D13*
%TO.C,R15*%
X168231564Y-89025400D02*
X167777436Y-89025400D01*
X168231564Y-90495400D02*
X167777436Y-90495400D01*
D14*
%TO.C,R7*%
X168224500Y-80407000D02*
X170874500Y-80407000D01*
X168224500Y-84007000D02*
X170874500Y-84007000D01*
X170874500Y-80407000D02*
X170874500Y-81007000D01*
X170874500Y-84007000D02*
X170874500Y-83407000D01*
D15*
X166248830Y-80649000D02*
G75*
G02*
X166008830Y-80649000I-120000J0D01*
G01*
X166008830Y-80649000D02*
G75*
G02*
X166248830Y-80649000I120000J0D01*
G01*
D13*
%TO.C,C26*%
X132113748Y-97090000D02*
X132636252Y-97090000D01*
X132113748Y-98560000D02*
X132636252Y-98560000D01*
D14*
%TO.C,R17*%
X152752499Y-91579763D02*
X152752499Y-92179763D01*
X152752499Y-95179763D02*
X152752499Y-94579763D01*
X155402499Y-91579763D02*
X152752499Y-91579763D01*
X155402499Y-95179763D02*
X152752499Y-95179763D01*
D15*
X157618169Y-94937763D02*
G75*
G02*
X157378169Y-94937763I-120000J0D01*
G01*
X157378169Y-94937763D02*
G75*
G02*
X157618169Y-94937763I120000J0D01*
G01*
D14*
%TO.C,U2*%
X141540000Y-77050000D02*
X134040000Y-77050000D01*
X141540000Y-92450000D02*
X134040000Y-92450000D01*
D16*
X144590000Y-92335000D02*
G75*
G02*
X144390000Y-92335000I-100000J0D01*
G01*
X144390000Y-92335000D02*
G75*
G02*
X144590000Y-92335000I100000J0D01*
G01*
D13*
%TO.C,C6*%
X172110300Y-81895748D02*
X172110300Y-82418252D01*
X173580300Y-81895748D02*
X173580300Y-82418252D01*
%TO.C,R6*%
X172114064Y-77472000D02*
X171659936Y-77472000D01*
X172114064Y-78942000D02*
X171659936Y-78942000D01*
%TO.C,C25*%
X132113748Y-95090000D02*
X132636252Y-95090000D01*
X132113748Y-96560000D02*
X132636252Y-96560000D01*
%TO.C,C12*%
X150167499Y-93841015D02*
X150167499Y-93318511D01*
X151637499Y-93841015D02*
X151637499Y-93318511D01*
%TO.C,C5*%
X146605000Y-96856252D02*
X146605000Y-96333748D01*
X148075000Y-96856252D02*
X148075000Y-96333748D01*
%TO.C,R1*%
X130404564Y-79715000D02*
X129950436Y-79715000D01*
X130404564Y-81185000D02*
X129950436Y-81185000D01*
%TO.C,TP2*%
X130225000Y-93025000D02*
X131625000Y-93025000D01*
X130225000Y-94425000D02*
X130225000Y-93025000D01*
X131625000Y-93025000D02*
X131625000Y-94425000D01*
X131625000Y-94425000D02*
X130225000Y-94425000D01*
%TO.C,SW2*%
X107680000Y-83532500D02*
X107980000Y-83532500D01*
X107680000Y-87672500D02*
X107680000Y-83532500D01*
X107980000Y-87672500D02*
X107680000Y-87672500D01*
X110520000Y-83532500D02*
X110820000Y-83532500D01*
X110820000Y-83532500D02*
X110820000Y-87672500D01*
X110820000Y-87672500D02*
X110520000Y-87672500D01*
D14*
%TO.C,R9*%
X162735499Y-70584363D02*
X165385499Y-70584363D01*
X162735499Y-74184363D02*
X165385499Y-74184363D01*
X165385499Y-70584363D02*
X165385499Y-71184363D01*
X165385499Y-74184363D02*
X165385499Y-73584363D01*
D15*
X160759829Y-70826363D02*
G75*
G02*
X160519829Y-70826363I-120000J0D01*
G01*
X160519829Y-70826363D02*
G75*
G02*
X160759829Y-70826363I120000J0D01*
G01*
D13*
%TO.C,C21*%
X129115000Y-87588752D02*
X129115000Y-87066248D01*
X130585000Y-87588752D02*
X130585000Y-87066248D01*
%TO.C,J2*%
X110980000Y-71675000D02*
X110980000Y-73375000D01*
X120320000Y-71675000D02*
X120320000Y-73375000D01*
D17*
%TO.C,U9*%
X159574899Y-92424363D02*
X164096099Y-92424363D01*
X161530699Y-87344363D02*
X159574899Y-87344363D01*
X162140299Y-87344363D02*
X161530699Y-87344363D01*
X164096099Y-87344363D02*
X162140299Y-87344363D01*
D10*
X162140299Y-87344363D02*
G75*
G02*
X161530699Y-87344363I-304800J0D01*
G01*
D13*
%TO.C,VBUS*%
X108150000Y-74715000D02*
X109550000Y-74715000D01*
X108150000Y-76115000D02*
X108150000Y-74715000D01*
X109550000Y-74715000D02*
X109550000Y-76115000D01*
X109550000Y-76115000D02*
X108150000Y-76115000D01*
D14*
%TO.C,U4*%
X143890000Y-95215000D02*
X144220000Y-95215000D01*
X144220000Y-98115000D02*
X143890000Y-98115000D01*
D16*
X141805000Y-95715000D02*
G75*
G02*
X141605000Y-95715000I-100000J0D01*
G01*
X141605000Y-95715000D02*
G75*
G02*
X141805000Y-95715000I100000J0D01*
G01*
D13*
%TO.C,C4*%
X143674247Y-93149363D02*
X144196751Y-93149363D01*
X143674247Y-94619363D02*
X144196751Y-94619363D01*
%TO.C,C20*%
X105515000Y-87326252D02*
X105515000Y-86803748D01*
X106985000Y-87326252D02*
X106985000Y-86803748D01*
%TO.C,C3*%
X127590000Y-93266248D02*
X127590000Y-93788752D01*
X129060000Y-93266248D02*
X129060000Y-93788752D01*
%TO.C,C7*%
X150372434Y-75845615D02*
X150372434Y-75323111D01*
X151842434Y-75845615D02*
X151842434Y-75323111D01*
%TO.C,C9*%
X166365000Y-72242148D02*
X166365000Y-72764652D01*
X167835000Y-72242148D02*
X167835000Y-72764652D01*
%TO.C,C10*%
X166215000Y-96203748D02*
X166215000Y-96726252D01*
X167685000Y-96203748D02*
X167685000Y-96726252D01*
D14*
%TO.C,R2*%
X152900000Y-73675000D02*
X152900000Y-74275000D01*
X152900000Y-77275000D02*
X152900000Y-76675000D01*
X155550000Y-73675000D02*
X152900000Y-73675000D01*
X155550000Y-77275000D02*
X152900000Y-77275000D01*
D15*
X157765670Y-77033000D02*
G75*
G02*
X157525670Y-77033000I-120000J0D01*
G01*
X157525670Y-77033000D02*
G75*
G02*
X157765670Y-77033000I120000J0D01*
G01*
D13*
%TO.C,GND*%
X108325000Y-88900000D02*
X109725000Y-88900000D01*
X108325000Y-90300000D02*
X108325000Y-88900000D01*
X109725000Y-88900000D02*
X109725000Y-90300000D01*
X109725000Y-90300000D02*
X108325000Y-90300000D01*
D17*
%TO.C,U8*%
X159620899Y-81780163D02*
X164142099Y-81780163D01*
X161576699Y-76700163D02*
X159620899Y-76700163D01*
X162186299Y-76700163D02*
X161576699Y-76700163D01*
X164142099Y-76700163D02*
X162186299Y-76700163D01*
D10*
X162186299Y-76700163D02*
G75*
G02*
X161576699Y-76700163I-304800J0D01*
G01*
D13*
%TO.C,C8*%
X150245335Y-82486252D02*
X150245335Y-81963748D01*
X151715335Y-82486252D02*
X151715335Y-81963748D01*
%TO.C,C1*%
X136986252Y-93340000D02*
X136463748Y-93340000D01*
X136986252Y-94810000D02*
X136463748Y-94810000D01*
%TO.C,C11*%
X171682000Y-86249148D02*
X171682000Y-86771652D01*
X173152000Y-86249148D02*
X173152000Y-86771652D01*
%TO.C,R23*%
X112065000Y-78475436D02*
X112065000Y-78929564D01*
X113535000Y-78475436D02*
X113535000Y-78929564D01*
D14*
%TO.C,R12*%
X152752499Y-84879763D02*
X152752499Y-85479763D01*
X152752499Y-88479763D02*
X152752499Y-87879763D01*
X155402499Y-84879763D02*
X152752499Y-84879763D01*
X155402499Y-88479763D02*
X152752499Y-88479763D01*
D15*
X157618169Y-88237763D02*
G75*
G02*
X157378169Y-88237763I-120000J0D01*
G01*
X157378169Y-88237763D02*
G75*
G02*
X157618169Y-88237763I120000J0D01*
G01*
D13*
%TO.C,R18*%
X139790000Y-94350436D02*
X139790000Y-94804564D01*
X141260000Y-94350436D02*
X141260000Y-94804564D01*
%TO.C,C2*%
X125165000Y-93253748D02*
X125165000Y-93776252D01*
X126635000Y-93253748D02*
X126635000Y-93776252D01*
%TO.C,R4*%
X152032935Y-77841363D02*
X152487063Y-77841363D01*
X152032935Y-79311363D02*
X152487063Y-79311363D01*
%TO.C,R11*%
X155325935Y-89044763D02*
X155780063Y-89044763D01*
X155325935Y-90514763D02*
X155780063Y-90514763D01*
%TO.C,J1*%
X127090000Y-73950000D02*
X127090000Y-71500000D01*
X128060000Y-69530000D02*
X128700000Y-69530000D01*
X128140000Y-73950000D02*
X127090000Y-73950000D01*
X128700000Y-69530000D02*
X147700000Y-69530000D01*
X147440192Y-75715000D02*
X147959808Y-75715000D01*
X147700000Y-69530000D02*
X148340000Y-69530000D01*
X147700000Y-75265000D02*
X147440192Y-75715000D01*
X147959808Y-75715000D02*
X147700000Y-75265000D01*
X149310000Y-71500000D02*
X149310000Y-73950000D01*
X149310000Y-73950000D02*
X148260000Y-73950000D01*
%TO.C,R30*%
X117865000Y-78067936D02*
X117865000Y-78522064D01*
X119335000Y-78067936D02*
X119335000Y-78522064D01*
D14*
%TO.C,R19*%
X162650000Y-94715000D02*
X165300000Y-94715000D01*
X162650000Y-98315000D02*
X165300000Y-98315000D01*
X165300000Y-94715000D02*
X165300000Y-95315000D01*
X165300000Y-98315000D02*
X165300000Y-97715000D01*
D15*
X160674330Y-94957000D02*
G75*
G02*
X160434330Y-94957000I-120000J0D01*
G01*
X160434330Y-94957000D02*
G75*
G02*
X160674330Y-94957000I120000J0D01*
G01*
D13*
%TO.C,R29*%
X105515000Y-82975436D02*
X105515000Y-83429564D01*
X106985000Y-82975436D02*
X106985000Y-83429564D01*
%TO.C,RX*%
X105750000Y-90915000D02*
X107150000Y-90915000D01*
X105750000Y-92315000D02*
X105750000Y-90915000D01*
X107150000Y-90915000D02*
X107150000Y-92315000D01*
X107150000Y-92315000D02*
X105750000Y-92315000D01*
%TO.C,C18*%
X162038748Y-82315000D02*
X162561252Y-82315000D01*
X162038748Y-83785000D02*
X162561252Y-83785000D01*
%TD*%
M02*
