%TF.GenerationSoftware,KiCad,Pcbnew,9.0.2*%
%TF.CreationDate,2025-11-18T20:52:18-03:00*%
%TF.ProjectId,Smart_insoles_2025_v1,536d6172-745f-4696-9e73-6f6c65735f32,rev?*%
%TF.SameCoordinates,Original*%
%TF.FileFunction,Copper,L4,Bot*%
%TF.FilePolarity,Positive*%
%FSLAX46Y46*%
G04 Gerber Fmt 4.6, Leading zero omitted, Abs format (unit mm)*
G04 Created by KiCad (PCBNEW 9.0.2) date 2025-11-18 20:52:18*
%MOMM*%
%LPD*%
G01*
G04 APERTURE LIST*
G04 Aperture macros list*
%AMRoundRect*
0 Rectangle with rounded corners*
0 $1 Rounding radius*
0 $2 $3 $4 $5 $6 $7 $8 $9 X,Y pos of 4 corners*
0 Add a 4 corners polygon primitive as box body*
4,1,4,$2,$3,$4,$5,$6,$7,$8,$9,$2,$3,0*
0 Add four circle primitives for the rounded corners*
1,1,$1+$1,$2,$3*
1,1,$1+$1,$4,$5*
1,1,$1+$1,$6,$7*
1,1,$1+$1,$8,$9*
0 Add four rect primitives between the rounded corners*
20,1,$1+$1,$2,$3,$4,$5,0*
20,1,$1+$1,$4,$5,$6,$7,0*
20,1,$1+$1,$6,$7,$8,$9,0*
20,1,$1+$1,$8,$9,$2,$3,0*%
%AMFreePoly0*
4,1,23,0.500000,-0.750000,0.000000,-0.750000,0.000000,-0.745722,-0.065263,-0.745722,-0.191342,-0.711940,-0.304381,-0.646677,-0.396677,-0.554381,-0.461940,-0.441342,-0.495722,-0.315263,-0.495722,-0.250000,-0.500000,-0.250000,-0.500000,0.250000,-0.495722,0.250000,-0.495722,0.315263,-0.461940,0.441342,-0.396677,0.554381,-0.304381,0.646677,-0.191342,0.711940,-0.065263,0.745722,0.000000,0.745722,
0.000000,0.750000,0.500000,0.750000,0.500000,-0.750000,0.500000,-0.750000,$1*%
%AMFreePoly1*
4,1,23,0.000000,0.745722,0.065263,0.745722,0.191342,0.711940,0.304381,0.646677,0.396677,0.554381,0.461940,0.441342,0.495722,0.315263,0.495722,0.250000,0.500000,0.250000,0.500000,-0.250000,0.495722,-0.250000,0.495722,-0.315263,0.461940,-0.441342,0.396677,-0.554381,0.304381,-0.646677,0.191342,-0.711940,0.065263,-0.745722,0.000000,-0.745722,0.000000,-0.750000,-0.500000,-0.750000,
-0.500000,0.750000,0.000000,0.750000,0.000000,0.745722,0.000000,0.745722,$1*%
G04 Aperture macros list end*
%TA.AperFunction,HeatsinkPad*%
%ADD10O,1.000000X2.100000*%
%TD*%
%TA.AperFunction,HeatsinkPad*%
%ADD11O,1.000000X1.800000*%
%TD*%
%TA.AperFunction,SMDPad,CuDef*%
%ADD12RoundRect,0.250000X0.337500X0.475000X-0.337500X0.475000X-0.337500X-0.475000X0.337500X-0.475000X0*%
%TD*%
%TA.AperFunction,SMDPad,CuDef*%
%ADD13RoundRect,0.250000X0.450000X-0.350000X0.450000X0.350000X-0.450000X0.350000X-0.450000X-0.350000X0*%
%TD*%
%TA.AperFunction,SMDPad,CuDef*%
%ADD14RoundRect,0.250000X0.350000X0.450000X-0.350000X0.450000X-0.350000X-0.450000X0.350000X-0.450000X0*%
%TD*%
%TA.AperFunction,SMDPad,CuDef*%
%ADD15RoundRect,0.250000X-0.475000X0.337500X-0.475000X-0.337500X0.475000X-0.337500X0.475000X0.337500X0*%
%TD*%
%TA.AperFunction,SMDPad,CuDef*%
%ADD16FreePoly0,0.000000*%
%TD*%
%TA.AperFunction,SMDPad,CuDef*%
%ADD17FreePoly1,0.000000*%
%TD*%
%TA.AperFunction,SMDPad,CuDef*%
%ADD18RoundRect,0.285750X0.666750X0.984250X-0.666750X0.984250X-0.666750X-0.984250X0.666750X-0.984250X0*%
%TD*%
%TA.AperFunction,SMDPad,CuDef*%
%ADD19RoundRect,0.250000X1.000000X0.650000X-1.000000X0.650000X-1.000000X-0.650000X1.000000X-0.650000X0*%
%TD*%
%TA.AperFunction,SMDPad,CuDef*%
%ADD20R,0.760000X0.220000*%
%TD*%
%TA.AperFunction,SMDPad,CuDef*%
%ADD21R,0.900000X1.500000*%
%TD*%
%TA.AperFunction,SMDPad,CuDef*%
%ADD22R,1.000000X1.000000*%
%TD*%
%TA.AperFunction,SMDPad,CuDef*%
%ADD23R,1.000000X0.800000*%
%TD*%
%TA.AperFunction,SMDPad,CuDef*%
%ADD24R,0.700000X1.500000*%
%TD*%
%TA.AperFunction,SMDPad,CuDef*%
%ADD25RoundRect,0.250000X-0.337500X-0.475000X0.337500X-0.475000X0.337500X0.475000X-0.337500X0.475000X0*%
%TD*%
%TA.AperFunction,SMDPad,CuDef*%
%ADD26R,0.900000X0.400000*%
%TD*%
%TA.AperFunction,SMDPad,CuDef*%
%ADD27RoundRect,0.243750X-0.456250X0.243750X-0.456250X-0.243750X0.456250X-0.243750X0.456250X0.243750X0*%
%TD*%
%TA.AperFunction,SMDPad,CuDef*%
%ADD28RoundRect,0.150000X-0.512500X-0.150000X0.512500X-0.150000X0.512500X0.150000X-0.512500X0.150000X0*%
%TD*%
%TA.AperFunction,SMDPad,CuDef*%
%ADD29R,1.000000X3.500000*%
%TD*%
%TA.AperFunction,SMDPad,CuDef*%
%ADD30R,1.500000X3.400000*%
%TD*%
%TA.AperFunction,SMDPad,CuDef*%
%ADD31R,1.400000X1.000000*%
%TD*%
%TA.AperFunction,SMDPad,CuDef*%
%ADD32R,0.350000X0.575000*%
%TD*%
%TA.AperFunction,SMDPad,CuDef*%
%ADD33R,0.575000X0.350000*%
%TD*%
%TA.AperFunction,ViaPad*%
%ADD34C,0.600000*%
%TD*%
%TA.AperFunction,Conductor*%
%ADD35C,0.200000*%
%TD*%
%TA.AperFunction,Conductor*%
%ADD36C,0.254000*%
%TD*%
%TA.AperFunction,Conductor*%
%ADD37C,0.381000*%
%TD*%
%TA.AperFunction,Conductor*%
%ADD38C,0.203200*%
%TD*%
%TA.AperFunction,Conductor*%
%ADD39C,0.152400*%
%TD*%
G04 APERTURE END LIST*
D10*
%TO.P,J2,S1,SHIELD*%
%TO.N,GND*%
X119970000Y-74680000D03*
D11*
X119970000Y-70500000D03*
D10*
X111330000Y-74680000D03*
D11*
X111330000Y-70500000D03*
%TD*%
D12*
%TO.P,C16,1*%
%TO.N,GND*%
X130250000Y-89600000D03*
%TO.P,C16,2*%
%TO.N,/Battery Circuit Options/IN*%
X128175000Y-89600000D03*
%TD*%
D13*
%TO.P,R25,1*%
%TO.N,/Battery Circuit Options/IN*%
X134425000Y-93600000D03*
%TO.P,R25,2*%
%TO.N,Net-(Q2-Pad1)*%
X134425000Y-91600000D03*
%TD*%
D14*
%TO.P,R13,1*%
%TO.N,/Battery Circuit Options/ISET*%
X124350000Y-89550000D03*
%TO.P,R13,2*%
%TO.N,GND*%
X122350000Y-89550000D03*
%TD*%
D15*
%TO.P,C15,1*%
%TO.N,+3V3*%
X129830000Y-71317500D03*
%TO.P,C15,2*%
%TO.N,GND*%
X129830000Y-73392500D03*
%TD*%
D16*
%TO.P,JP2,1,A*%
%TO.N,VBUS*%
X123850000Y-92450000D03*
D17*
%TO.P,JP2,2,B*%
%TO.N,/Battery Circuit Options/IN*%
X125150000Y-92450000D03*
%TD*%
D14*
%TO.P,R27,1*%
%TO.N,/Battery Circuit Options/PRETERM*%
X124350000Y-87550000D03*
%TO.P,R27,2*%
%TO.N,GND*%
X122350000Y-87550000D03*
%TD*%
D16*
%TO.P,JP1,1,A*%
%TO.N,Net-(D5-K)*%
X146625000Y-88850000D03*
D17*
%TO.P,JP1,2,B*%
%TO.N,Net-(JP1-B)*%
X147925000Y-88850000D03*
%TD*%
D18*
%TO.P,TH1,1*%
%TO.N,/Battery Circuit Options/TS*%
X133250000Y-83400000D03*
%TO.P,TH1,2*%
%TO.N,GND*%
X129186000Y-83400000D03*
%TD*%
D12*
%TO.P,C24,1*%
%TO.N,+3V3*%
X128330000Y-75317500D03*
%TO.P,C24,2*%
%TO.N,GND*%
X126255000Y-75317500D03*
%TD*%
D13*
%TO.P,R26,1*%
%TO.N,/Battery Circuit Options/IN*%
X131925000Y-93600000D03*
%TO.P,R26,2*%
%TO.N,GND*%
X131925000Y-91600000D03*
%TD*%
%TO.P,R28,1*%
%TO.N,+3V3*%
X147700000Y-84150000D03*
%TO.P,R28,2*%
%TO.N,Net-(D2-A)*%
X147700000Y-82150000D03*
%TD*%
D19*
%TO.P,D5,1,K*%
%TO.N,Net-(D5-K)*%
X145950000Y-94300000D03*
%TO.P,D5,2,A*%
%TO.N,/Battery Circuit Options/IN*%
X141950000Y-94300000D03*
%TD*%
D20*
%TO.P,U7,1,IN*%
%TO.N,/Battery Circuit Options/IN*%
X128280000Y-88075000D03*
%TO.P,U7,2,ISET*%
%TO.N,/Battery Circuit Options/ISET*%
X128280000Y-87675000D03*
%TO.P,U7,3,VSS*%
%TO.N,GND*%
X128280000Y-87275000D03*
%TO.P,U7,4,PRETERM*%
%TO.N,/Battery Circuit Options/PRETERM*%
X128280000Y-86875000D03*
%TO.P,U7,5,~{PG}*%
%TO.N,/Battery Circuit Options/~{PG}*%
X128280000Y-86475000D03*
%TO.P,U7,6*%
%TO.N,N/C*%
X130250000Y-86475000D03*
%TO.P,U7,7,ISET2*%
%TO.N,GND*%
X130250000Y-86875000D03*
%TO.P,U7,8,~{CHG}*%
%TO.N,/Battery Circuit Options/~{CHG}*%
X130250000Y-87275000D03*
%TO.P,U7,9,TS*%
%TO.N,/Battery Circuit Options/TS*%
X130250000Y-87675000D03*
%TO.P,U7,10,OUT*%
%TO.N,/Battery Circuit Options/VBat*%
X130250000Y-88075000D03*
D21*
%TO.P,U7,11,EXP*%
%TO.N,GND*%
X129265000Y-87275000D03*
%TD*%
D22*
%TO.P,TP4,1,1*%
%TO.N,Vsel*%
X144450000Y-88425000D03*
%TD*%
D23*
%TO.P,SW3,*%
%TO.N,*%
X158425000Y-98335000D03*
X158425000Y-96125000D03*
X151125000Y-98335000D03*
X151125000Y-96125000D03*
D24*
%TO.P,SW3,1,C*%
%TO.N,unconnected-(SW3-C-Pad1)*%
X157025000Y-95475000D03*
%TO.P,SW3,2,B*%
%TO.N,Net-(JP1-B)*%
X154025000Y-95475000D03*
%TO.P,SW3,3,A*%
%TO.N,Vsel*%
X152525000Y-95475000D03*
%TD*%
D25*
%TO.P,C23,1*%
%TO.N,GND*%
X143700000Y-86150000D03*
%TO.P,C23,2*%
%TO.N,+3V3*%
X145775000Y-86150000D03*
%TD*%
D26*
%TO.P,RN1,1,R1.1*%
%TO.N,CS*%
X124680000Y-71117500D03*
%TO.P,RN1,2,R2.1*%
%TO.N,SDO{slash}SA0*%
X124680000Y-71917500D03*
%TO.P,RN1,3,R3.1*%
%TO.N,SDA*%
X124680000Y-72717500D03*
%TO.P,RN1,4,R4.1*%
%TO.N,SCL*%
X124680000Y-73517500D03*
%TO.P,RN1,5,R4.2*%
%TO.N,+3V3*%
X122980000Y-73517500D03*
%TO.P,RN1,6,R3.2*%
X122980000Y-72717500D03*
%TO.P,RN1,7,R2.2*%
X122980000Y-71917500D03*
%TO.P,RN1,8,R1.2*%
X122980000Y-71117500D03*
%TD*%
D27*
%TO.P,D2,1,K*%
%TO.N,GND*%
X150200000Y-82212500D03*
%TO.P,D2,2,A*%
%TO.N,Net-(D2-A)*%
X150200000Y-84087500D03*
%TD*%
D28*
%TO.P,U1,1,V_{IN}*%
%TO.N,Vsel*%
X143425000Y-84150000D03*
%TO.P,U1,2,V_{SS}*%
%TO.N,GND*%
X143425000Y-83200000D03*
%TO.P,U1,3,CE*%
%TO.N,Vsel*%
X143425000Y-82250000D03*
%TO.P,U1,4,NC*%
%TO.N,unconnected-(U1-NC-Pad4)*%
X145700000Y-82250000D03*
%TO.P,U1,5,V_{OUT}*%
%TO.N,+3V3*%
X145700000Y-84150000D03*
%TD*%
D29*
%TO.P,J4,1,1*%
%TO.N,/Battery Circuit Options/VBat*%
X114525000Y-83712500D03*
%TO.P,J4,2,2*%
%TO.N,GND*%
X116525000Y-83712500D03*
D30*
%TO.P,J4,S1,SHIELD*%
%TO.N,unconnected-(J4-SHIELD-PadS1)*%
X112175000Y-77962500D03*
%TO.P,J4,S2,SHIELD__1*%
%TO.N,unconnected-(J4-SHIELD__1-PadS2)*%
X118875000Y-77962500D03*
%TD*%
D27*
%TO.P,D1,1,K*%
%TO.N,/Battery Circuit Options/~{CHG}*%
X135750000Y-82325000D03*
%TO.P,D1,2,A*%
%TO.N,/Battery Circuit Options/OUT_~{CHG}*%
X135750000Y-84200000D03*
%TD*%
D13*
%TO.P,R20,1*%
%TO.N,/Battery Circuit Options/VBat*%
X138250000Y-87975000D03*
%TO.P,R20,2*%
%TO.N,/Battery Circuit Options/OUT_~{PG}*%
X138250000Y-85975000D03*
%TD*%
D15*
%TO.P,C14,1*%
%TO.N,+3V3*%
X131830000Y-71317500D03*
%TO.P,C14,2*%
%TO.N,GND*%
X131830000Y-73392500D03*
%TD*%
D31*
%TO.P,Q2,1*%
%TO.N,Net-(Q2-Pad1)*%
X140825000Y-91300000D03*
%TO.P,Q2,2*%
%TO.N,/Battery Circuit Options/VBat*%
X140825000Y-89400000D03*
%TO.P,Q2,3*%
%TO.N,Net-(D5-K)*%
X143025000Y-90350000D03*
%TD*%
D15*
%TO.P,C19,1*%
%TO.N,GND*%
X133450000Y-86000000D03*
%TO.P,C19,2*%
%TO.N,/Battery Circuit Options/VBat*%
X133450000Y-88075000D03*
%TD*%
D27*
%TO.P,D3,1,K*%
%TO.N,/Battery Circuit Options/~{PG}*%
X138250000Y-82325000D03*
%TO.P,D3,2,A*%
%TO.N,/Battery Circuit Options/OUT_~{PG}*%
X138250000Y-84200000D03*
%TD*%
D32*
%TO.P,U3,1,SDO/SA0*%
%TO.N,SDO{slash}SA0*%
X126580000Y-71155000D03*
%TO.P,U3,2,SDX*%
%TO.N,SDX*%
X127080000Y-71155000D03*
%TO.P,U3,3,SCX*%
%TO.N,SCX*%
X127580000Y-71155000D03*
%TO.P,U3,4,INT1*%
%TO.N,INT*%
X128080000Y-71155000D03*
D33*
%TO.P,U3,5,VDDIO*%
%TO.N,+3V3*%
X128242500Y-71817500D03*
%TO.P,U3,6,GND*%
%TO.N,GND*%
X128242500Y-72317500D03*
%TO.P,U3,7,GND__1*%
X128242500Y-72817500D03*
D32*
%TO.P,U3,8,VDD*%
%TO.N,+3V3*%
X128080000Y-73480000D03*
%TO.P,U3,9,INT2*%
%TO.N,INT2*%
X127580000Y-73480000D03*
%TO.P,U3,10,NC*%
%TO.N,unconnected-(U3-NC-Pad10)*%
X127080000Y-73480000D03*
%TO.P,U3,11,NC__1*%
%TO.N,unconnected-(U3-NC__1-Pad11)*%
X126580000Y-73480000D03*
D33*
%TO.P,U3,12,CS*%
%TO.N,CS*%
X126417500Y-72817500D03*
%TO.P,U3,13,SCL*%
%TO.N,SCL*%
X126417500Y-72317500D03*
%TO.P,U3,14,SDA*%
%TO.N,SDA*%
X126417500Y-71817500D03*
%TD*%
D15*
%TO.P,C22,1*%
%TO.N,GND*%
X141200000Y-82150000D03*
%TO.P,C22,2*%
%TO.N,Vsel*%
X141200000Y-84225000D03*
%TD*%
D13*
%TO.P,R21,1*%
%TO.N,/Battery Circuit Options/VBat*%
X135750000Y-87975000D03*
%TO.P,R21,2*%
%TO.N,/Battery Circuit Options/OUT_~{CHG}*%
X135750000Y-85975000D03*
%TD*%
D34*
%TO.N,Net-(U5-IO9)*%
X111300000Y-82200000D03*
X113100000Y-83450000D03*
%TO.N,Net-(U5-EN)*%
X126908038Y-86323520D03*
X123216808Y-88550000D03*
%TO.N,/FSR_AnalogFE/FSR_IN*%
X137038465Y-83708465D03*
X135470000Y-80940000D03*
%TO.N,/FSR_AnalogFE/FSR_OUT_6*%
X168770000Y-92460000D03*
X140970000Y-71110000D03*
%TO.N,/FSR_AnalogFE/FSR_OUT_7*%
X138640000Y-70300000D03*
X169340000Y-84210000D03*
%TO.N,/FSR_AnalogFE/FSR_OUT_5*%
X161300000Y-90490000D03*
X140870000Y-72360000D03*
%TO.N,/FSR_AnalogFE/FSR_OUT_4*%
X161730000Y-81795963D03*
X138770000Y-75500000D03*
%TO.N,+3V3*%
X160037285Y-98202795D03*
X160700000Y-80000000D03*
X106090000Y-80960000D03*
X123670000Y-80660000D03*
X160350000Y-94800000D03*
X141190000Y-97200000D03*
X160100735Y-83100735D03*
X149250000Y-98000000D03*
X129590000Y-96450000D03*
X160400000Y-89850000D03*
%TO.N,GND*%
X140050000Y-72850000D03*
X117050000Y-94250000D03*
X127050000Y-90350000D03*
X149850000Y-78400000D03*
X128500000Y-95950000D03*
X115420000Y-94020000D03*
X169400000Y-76750000D03*
X140250000Y-81200000D03*
X115850000Y-93350000D03*
X119800000Y-93200000D03*
X150070000Y-89460000D03*
X129800000Y-89750000D03*
X134185504Y-76108698D03*
X114300000Y-88200000D03*
X128027646Y-80991357D03*
X136100000Y-76000000D03*
X139900000Y-92600000D03*
X144200000Y-97842047D03*
X121800000Y-94200000D03*
X117800000Y-87000000D03*
X140600000Y-77800000D03*
X116250000Y-94065000D03*
X155230000Y-88880000D03*
X115650000Y-81050000D03*
X117850000Y-94150000D03*
X109200000Y-86600000D03*
X111000000Y-94900000D03*
X107800000Y-89600000D03*
X122680000Y-94080000D03*
X138800000Y-72700000D03*
X118700000Y-94200000D03*
X164200000Y-94550000D03*
X122690000Y-93290000D03*
X145700000Y-73050000D03*
X130550000Y-91500000D03*
X119650000Y-86850000D03*
X115900000Y-86900000D03*
X144950000Y-83150000D03*
X144200000Y-73000000D03*
X113810000Y-94010000D03*
X119500000Y-94150000D03*
X134700000Y-87020000D03*
X130970000Y-72380000D03*
X127045573Y-96023885D03*
X132400000Y-75850000D03*
X172450000Y-91300000D03*
X111100000Y-80350000D03*
X121050000Y-90150000D03*
X163300000Y-79200000D03*
X114385000Y-90115000D03*
X117170000Y-81430000D03*
X169100000Y-88550000D03*
X114600000Y-93990000D03*
X135750000Y-95200000D03*
X127560000Y-83650000D03*
X131780000Y-74742500D03*
X126763142Y-88003142D03*
X121300000Y-86500000D03*
X146800000Y-87450000D03*
X114500000Y-92050000D03*
X117800000Y-93200000D03*
X122250000Y-90800000D03*
X148650000Y-73650000D03*
X120300000Y-94250000D03*
X121000000Y-94200000D03*
X124770000Y-93705000D03*
X162900000Y-84050000D03*
X163415637Y-89884363D03*
X142144265Y-72844265D03*
X106150000Y-89450000D03*
X113050000Y-94015000D03*
X122750000Y-86450000D03*
X129030000Y-72419100D03*
X146250000Y-92850000D03*
X134850000Y-95900000D03*
X118500000Y-80350000D03*
X135050000Y-97850000D03*
X124930000Y-75542500D03*
X172700000Y-76900000D03*
X121000000Y-84200000D03*
X155280000Y-77560000D03*
X124385000Y-85165000D03*
X112200000Y-84150000D03*
X149000000Y-80000000D03*
X128400000Y-85864998D03*
%TO.N,VBUS*%
X107440000Y-75700000D03*
%TO.N,CS*%
X125750000Y-73890000D03*
X125540000Y-70330000D03*
%TO.N,SDO{slash}SA0*%
X123780000Y-70390000D03*
%TO.N,SCL*%
X124720000Y-74530000D03*
%TO.N,SDA*%
X123820000Y-74540000D03*
%TO.N,I3*%
X159600000Y-84450000D03*
X162700000Y-77700000D03*
%TO.N,I0*%
X145750000Y-79650000D03*
X148900000Y-77500000D03*
X148900000Y-77500000D03*
X148900000Y-77500000D03*
X147350000Y-78450000D03*
X148750000Y-75600000D03*
%TO.N,S3*%
X126338258Y-80738258D03*
X124920000Y-83650000D03*
%TO.N,I7*%
X163700000Y-87450000D03*
X159120000Y-95150000D03*
X149450000Y-97100000D03*
X162450000Y-86450000D03*
%TO.N,I1*%
X147010000Y-80620000D03*
X148088182Y-79521818D03*
%TO.N,I5*%
X149000000Y-91360000D03*
X151720000Y-93280000D03*
%TO.N,S2*%
X127230000Y-80930000D03*
X126000000Y-83700000D03*
%TO.N,SIG*%
X126349000Y-85750000D03*
X137990000Y-90750000D03*
X121910000Y-82600000D03*
X136230000Y-90360000D03*
%TO.N,INT*%
X128720000Y-70100000D03*
%TO.N,IO8*%
X115524999Y-83376471D03*
%TO.N,IO10*%
X119950000Y-83700000D03*
%TD*%
D35*
%TO.N,Net-(U5-IO9)*%
X112550000Y-83450000D02*
X111300000Y-82200000D01*
X111250000Y-82200000D02*
X111200000Y-82150000D01*
X111300000Y-82200000D02*
X111250000Y-82200000D01*
X113100000Y-83450000D02*
X112550000Y-83450000D01*
%TO.N,Net-(U5-EN)*%
X123251000Y-88515808D02*
X123216808Y-88550000D01*
X123566840Y-86549000D02*
X123251000Y-86864840D01*
X123251000Y-86864840D02*
X123251000Y-88515808D01*
X126682558Y-86549000D02*
X123566840Y-86549000D01*
X126908038Y-86323520D02*
X126682558Y-86549000D01*
D36*
%TO.N,Net-(D2-A)*%
X148262500Y-82150000D02*
X150200000Y-84087500D01*
X147700000Y-82150000D02*
X148262500Y-82150000D01*
D35*
%TO.N,/FSR_AnalogFE/FSR_IN*%
X135842146Y-80940000D02*
X137020000Y-82117854D01*
X137020000Y-83320000D02*
X137020000Y-83690000D01*
X135470000Y-80940000D02*
X135842146Y-80940000D01*
X137020000Y-82117854D02*
X137020000Y-83320000D01*
X137020000Y-83690000D02*
X137038465Y-83708465D01*
%TO.N,/FSR_AnalogFE/FSR_OUT_6*%
X168770000Y-92460000D02*
X170280000Y-90950000D01*
X167190000Y-71110000D02*
X140970000Y-71110000D01*
X170280000Y-74200000D02*
X167190000Y-71110000D01*
X170280000Y-90950000D02*
X170280000Y-74200000D01*
%TO.N,/FSR_AnalogFE/FSR_OUT_7*%
X140100000Y-71760000D02*
X138640000Y-70300000D01*
X169340000Y-79150000D02*
X167700000Y-77510000D01*
X167700000Y-77510000D02*
X167700000Y-73820000D01*
X169340000Y-84210000D02*
X169340000Y-79150000D01*
X165640000Y-71760000D02*
X140100000Y-71760000D01*
X167700000Y-73820000D02*
X165640000Y-71760000D01*
%TO.N,/FSR_AnalogFE/FSR_OUT_5*%
X163139000Y-84651000D02*
X163148943Y-84651000D01*
X161300000Y-86490000D02*
X163139000Y-84651000D01*
X162760000Y-72220000D02*
X140870000Y-72220000D01*
X163148943Y-84651000D02*
X163501000Y-84298943D01*
X163501000Y-84298943D02*
X163501000Y-84289000D01*
X161300000Y-90490000D02*
X161300000Y-86490000D01*
X163501000Y-84289000D02*
X164260000Y-83530000D01*
X164260000Y-83530000D02*
X164260000Y-73720000D01*
X140870000Y-72220000D02*
X140870000Y-72360000D01*
X164260000Y-73720000D02*
X162760000Y-72220000D01*
%TO.N,/FSR_AnalogFE/FSR_OUT_4*%
X151239000Y-73049000D02*
X151680000Y-73490000D01*
X139720000Y-74070000D02*
X146210000Y-74070000D01*
X147231000Y-73049000D02*
X151239000Y-73049000D01*
X146210000Y-74070000D02*
X147231000Y-73049000D01*
X151680000Y-73490000D02*
X159850000Y-73490000D01*
X138790000Y-75480000D02*
X138790000Y-74880000D01*
X161730000Y-75370000D02*
X161730000Y-81795963D01*
X139660000Y-74010000D02*
X139720000Y-74070000D01*
X138790000Y-74880000D02*
X139660000Y-74010000D01*
X138770000Y-75500000D02*
X138790000Y-75480000D01*
X159850000Y-73490000D02*
X161730000Y-75370000D01*
D36*
%TO.N,Net-(JP1-B)*%
X154025000Y-92075000D02*
X154025000Y-95475000D01*
X147925000Y-88850000D02*
X149825000Y-90750000D01*
X152700000Y-90750000D02*
X154025000Y-92075000D01*
X149825000Y-90750000D02*
X152700000Y-90750000D01*
%TO.N,/Battery Circuit Options/~{PG}*%
X126932000Y-83910127D02*
X126980000Y-83958127D01*
X138250000Y-82325000D02*
X136175000Y-80250000D01*
X126980000Y-83341873D02*
X126932000Y-83389873D01*
X126932000Y-83389873D02*
X126932000Y-83910127D01*
X129400000Y-80250000D02*
X129300000Y-80150000D01*
X129300000Y-80150000D02*
X129300000Y-80670000D01*
X136175000Y-80250000D02*
X129400000Y-80250000D01*
X128057000Y-86437000D02*
X128083875Y-86437000D01*
X126980000Y-83958127D02*
X126980000Y-85360000D01*
X126980000Y-82990000D02*
X126980000Y-83341873D01*
X129300000Y-80670000D02*
X126980000Y-82990000D01*
X126980000Y-85360000D02*
X128057000Y-86437000D01*
D37*
%TO.N,+3V3*%
X131830000Y-71317500D02*
X133255000Y-71317500D01*
X129810000Y-76590000D02*
X123520000Y-76590000D01*
X141190000Y-97200000D02*
X141148500Y-97158500D01*
X158450000Y-85600000D02*
X160150000Y-87300000D01*
X128469429Y-94941500D02*
X112998571Y-94941500D01*
X108491500Y-87692501D02*
X106070000Y-85271001D01*
X151550000Y-85350000D02*
X152079600Y-84820400D01*
X160700000Y-81500000D02*
X159099265Y-83100735D01*
X160350000Y-94800000D02*
X160350000Y-97750000D01*
X147700000Y-84150000D02*
X145700000Y-84150000D01*
X128537500Y-75317500D02*
X129810000Y-76590000D01*
X152200000Y-84700000D02*
X152200000Y-81200000D01*
D38*
X129330000Y-71817500D02*
X129830000Y-71317500D01*
D37*
X145775000Y-86150000D02*
X145775000Y-84225000D01*
X138313400Y-76330000D02*
X137220000Y-76330000D01*
X160400000Y-87550000D02*
X160400000Y-90800000D01*
X128330000Y-75317500D02*
X128330000Y-73663500D01*
X108491500Y-90434429D02*
X108491500Y-87692501D01*
X160400000Y-90800000D02*
X160400000Y-94750000D01*
X133730000Y-74607929D02*
X136272071Y-77150000D01*
X158450000Y-83750000D02*
X158450000Y-84000000D01*
X141148500Y-97158500D02*
X130686429Y-97158500D01*
X122980000Y-76050000D02*
X122980000Y-73517500D01*
X106070000Y-85271001D02*
X106070000Y-80980000D01*
X122980000Y-79970000D02*
X122980000Y-76050000D01*
X160350000Y-97750000D02*
X160037285Y-98062715D01*
X159099265Y-83100735D02*
X158450000Y-83750000D01*
X148900000Y-85350000D02*
X151550000Y-85350000D01*
X128330000Y-75317500D02*
X128596500Y-75584000D01*
X152200000Y-81200000D02*
X150713571Y-79713571D01*
X148400547Y-97150547D02*
X141239453Y-97150547D01*
X149250000Y-98000000D02*
X148400547Y-97150547D01*
X136272071Y-77150000D02*
X136400000Y-77150000D01*
X133255000Y-71317500D02*
X133730000Y-71792500D01*
X130370000Y-77150000D02*
X136272071Y-77150000D01*
X137220000Y-76330000D02*
X136400000Y-77150000D01*
X130686429Y-97158500D02*
X128469429Y-94941500D01*
X112998571Y-94941500D02*
X108491500Y-90434429D01*
X147700000Y-84150000D02*
X148900000Y-85350000D01*
X160700000Y-80000000D02*
X160700000Y-81500000D01*
X133730000Y-71792500D02*
X133730000Y-74607929D01*
X152079600Y-84820400D02*
X153900000Y-83000000D01*
X141239453Y-97150547D02*
X141190000Y-97200000D01*
D38*
X128242500Y-71817500D02*
X129330000Y-71817500D01*
D37*
X128330000Y-73663500D02*
X128146500Y-73480000D01*
X123520000Y-76590000D02*
X122980000Y-76050000D01*
X122980000Y-73517500D02*
X122980000Y-71117500D01*
X152079600Y-84820400D02*
X152200000Y-84700000D01*
X129810000Y-76590000D02*
X130370000Y-77150000D01*
X146307929Y-76330000D02*
X138313400Y-76330000D01*
X160037285Y-98062715D02*
X160037285Y-98202795D01*
X145775000Y-84225000D02*
X145700000Y-84150000D01*
X160150000Y-87300000D02*
X160400000Y-87550000D01*
X160000000Y-83000000D02*
X160100735Y-83100735D01*
X160100735Y-83100735D02*
X159099265Y-83100735D01*
X158450000Y-84000000D02*
X158450000Y-85600000D01*
X129830000Y-71317500D02*
X131830000Y-71317500D01*
X150713571Y-79713571D02*
X149691500Y-79713571D01*
X123670000Y-80660000D02*
X122980000Y-79970000D01*
X153900000Y-83000000D02*
X160000000Y-83000000D01*
X149691500Y-79713571D02*
X146307929Y-76330000D01*
X128330000Y-75317500D02*
X128537500Y-75317500D01*
D39*
%TO.N,/Battery Circuit Options/~{CHG}*%
X130794616Y-87275000D02*
X131346600Y-86723016D01*
X131346600Y-86723016D02*
X131346600Y-82353400D01*
X131346600Y-82353400D02*
X132550000Y-81150000D01*
X130250000Y-87275000D02*
X130794616Y-87275000D01*
X134575000Y-81150000D02*
X135750000Y-82325000D01*
X132550000Y-81150000D02*
X134575000Y-81150000D01*
D37*
%TO.N,/Battery Circuit Options/VBat*%
X139400000Y-87850000D02*
X138375000Y-87850000D01*
X117530571Y-80358500D02*
X118872071Y-81700000D01*
X139850000Y-86900000D02*
X140100000Y-87150000D01*
X114525000Y-83712500D02*
X114525000Y-81197071D01*
D36*
X138250000Y-87975000D02*
X135750000Y-87975000D01*
X139675000Y-89400000D02*
X138250000Y-87975000D01*
X135750000Y-87975000D02*
X133550000Y-87975000D01*
X133450000Y-88075000D02*
X133412000Y-88113000D01*
D37*
X137281500Y-79631500D02*
X139850000Y-82200000D01*
X124400000Y-81700000D02*
X126468500Y-79631500D01*
X139850000Y-82200000D02*
X139850000Y-86900000D01*
D36*
X133412000Y-88113000D02*
X130250000Y-88113000D01*
X140825000Y-89400000D02*
X139675000Y-89400000D01*
D37*
X126468500Y-79631500D02*
X137281500Y-79631500D01*
X114525000Y-81197071D02*
X115363571Y-80358500D01*
X138375000Y-87850000D02*
X138250000Y-87975000D01*
X140100000Y-87150000D02*
X139400000Y-87850000D01*
D36*
X133550000Y-87975000D02*
X133450000Y-88075000D01*
D37*
X118872071Y-81700000D02*
X124400000Y-81700000D01*
X115363571Y-80358500D02*
X117530571Y-80358500D01*
D39*
%TO.N,GND*%
X130250000Y-86875000D02*
X129665000Y-86875000D01*
D36*
X129255000Y-72817500D02*
X129830000Y-73392500D01*
D37*
X130970000Y-72380000D02*
X129957500Y-73392500D01*
D39*
X129265000Y-87275000D02*
X129265000Y-86372600D01*
D37*
X131830000Y-73392500D02*
X131830000Y-74692500D01*
D39*
X129665000Y-86875000D02*
X129265000Y-87275000D01*
D37*
X128100000Y-83650000D02*
X128350000Y-83400000D01*
D36*
X131925000Y-91600000D02*
X130650000Y-91600000D01*
D37*
X128350000Y-83400000D02*
X129186000Y-83400000D01*
D39*
X128842400Y-85950000D02*
X128550000Y-85950000D01*
D37*
X122350000Y-90700000D02*
X122250000Y-90800000D01*
X122350000Y-89550000D02*
X122350000Y-90700000D01*
D39*
X129265000Y-86372600D02*
X128842400Y-85950000D01*
D37*
X122350000Y-87550000D02*
X121300000Y-86500000D01*
X129957500Y-73392500D02*
X129830000Y-73392500D01*
X140250000Y-81200000D02*
X141200000Y-82150000D01*
D38*
X128242500Y-72317500D02*
X129005000Y-72317500D01*
D37*
X131830000Y-74692500D02*
X131780000Y-74742500D01*
X133450000Y-86000000D02*
X133600000Y-86000000D01*
X143700000Y-86150000D02*
X145000000Y-87450000D01*
D39*
X126763142Y-88001728D02*
X127489870Y-87275000D01*
D37*
X117170000Y-83067500D02*
X116525000Y-83712500D01*
D39*
X128550000Y-85950000D02*
X128485002Y-85950000D01*
D36*
X130650000Y-91600000D02*
X130550000Y-91500000D01*
D39*
X126763142Y-88003142D02*
X126763142Y-88001728D01*
D38*
X129005000Y-72317500D02*
X129030000Y-72292500D01*
D37*
X143425000Y-83200000D02*
X144900000Y-83200000D01*
D39*
X127489870Y-87275000D02*
X128280000Y-87275000D01*
D37*
X117170000Y-81430000D02*
X117170000Y-83067500D01*
X150200000Y-82212500D02*
X149000000Y-81012500D01*
X127560000Y-83650000D02*
X128100000Y-83650000D01*
X125155000Y-75317500D02*
X124930000Y-75542500D01*
X145000000Y-87450000D02*
X146800000Y-87450000D01*
X134570000Y-86970000D02*
X134620000Y-87020000D01*
X144900000Y-83200000D02*
X144950000Y-83150000D01*
D38*
X129030000Y-72292500D02*
X129030000Y-72419100D01*
D37*
X126255000Y-75317500D02*
X125155000Y-75317500D01*
D39*
X128485002Y-85950000D02*
X128400000Y-85864998D01*
D36*
X128242500Y-72817500D02*
X129255000Y-72817500D01*
D37*
X133600000Y-86000000D02*
X134570000Y-86970000D01*
X149000000Y-81012500D02*
X149000000Y-80000000D01*
X134620000Y-87020000D02*
X134700000Y-87020000D01*
D36*
%TO.N,/Battery Circuit Options/OUT_~{PG}*%
X138250000Y-84200000D02*
X138250000Y-85975000D01*
%TO.N,/Battery Circuit Options/OUT_~{CHG}*%
X135750000Y-84200000D02*
X135750000Y-85975000D01*
%TO.N,Net-(D5-K)*%
X143025000Y-91375000D02*
X143025000Y-90350000D01*
X145125000Y-90350000D02*
X146625000Y-88850000D01*
X143025000Y-90350000D02*
X145125000Y-90350000D01*
X145950000Y-94300000D02*
X143025000Y-91375000D01*
D37*
%TO.N,VBUS*%
X115877929Y-92450000D02*
X114786429Y-91358500D01*
X112980571Y-91358500D02*
X107440000Y-85817929D01*
X114786429Y-91358500D02*
X112980571Y-91358500D01*
X123850000Y-92450000D02*
X115877929Y-92450000D01*
X107440000Y-85817929D02*
X107440000Y-75700000D01*
D39*
%TO.N,Net-(Q2-Pad1)*%
X140525000Y-91600000D02*
X140825000Y-91300000D01*
X134425000Y-91600000D02*
X140525000Y-91600000D01*
%TO.N,/Battery Circuit Options/ISET*%
X127635600Y-87675000D02*
X127484635Y-87825965D01*
X126031155Y-89550000D02*
X124350000Y-89550000D01*
X127484635Y-87825965D02*
X127484635Y-88096520D01*
X127484635Y-88096520D02*
X126031155Y-89550000D01*
X128280000Y-87675000D02*
X127635600Y-87675000D01*
%TO.N,/Battery Circuit Options/PRETERM*%
X127075000Y-86875000D02*
X128280000Y-86875000D01*
X124350000Y-87550000D02*
X126400000Y-87550000D01*
X126400000Y-87550000D02*
X127075000Y-86875000D01*
%TO.N,CS*%
X126305000Y-72817500D02*
X126417500Y-72817500D01*
X125750000Y-73372500D02*
X126305000Y-72817500D01*
X125750000Y-73890000D02*
X125750000Y-73372500D01*
X124752500Y-71117500D02*
X125540000Y-70330000D01*
X124680000Y-71117500D02*
X124752500Y-71117500D01*
X124680000Y-71117500D02*
X124232200Y-71117500D01*
%TO.N,SDO{slash}SA0*%
X124680000Y-71917500D02*
X124955000Y-71917500D01*
X124680000Y-71917500D02*
X124275600Y-71917500D01*
X124275600Y-71917500D02*
X123780000Y-71421900D01*
X123780000Y-71421900D02*
X123780000Y-70390000D01*
X124955000Y-71917500D02*
X125717500Y-71155000D01*
X125717500Y-71155000D02*
X126580000Y-71155000D01*
%TO.N,SCL*%
X124680000Y-73517500D02*
X125084400Y-73517500D01*
X125480000Y-73121900D02*
X125480000Y-72892500D01*
X124720000Y-74440000D02*
X124720000Y-74530000D01*
X125084400Y-73517500D02*
X125480000Y-73121900D01*
X124680000Y-73517500D02*
X124680000Y-74400000D01*
X124690000Y-74410000D02*
X124720000Y-74440000D01*
X125480000Y-72892500D02*
X126055000Y-72317500D01*
X124680000Y-74400000D02*
X124690000Y-74410000D01*
X126055000Y-72317500D02*
X126417500Y-72317500D01*
%TO.N,SDA*%
X124680000Y-72717500D02*
X124430000Y-72717500D01*
X124430000Y-72717500D02*
X123820000Y-73327500D01*
X123820000Y-73327500D02*
X123820000Y-74540000D01*
X125855000Y-71817500D02*
X126417500Y-71817500D01*
X124680000Y-72717500D02*
X124955000Y-72717500D01*
X124955000Y-72717500D02*
X125855000Y-71817500D01*
%TO.N,/Battery Circuit Options/TS*%
X130894400Y-87675000D02*
X131700000Y-86869400D01*
X133150000Y-83400000D02*
X133250000Y-83400000D01*
X130250000Y-87675000D02*
X130894400Y-87675000D01*
X131700000Y-84850000D02*
X133150000Y-83400000D01*
X131700000Y-86869400D02*
X131700000Y-84850000D01*
D35*
%TO.N,I3*%
X162700000Y-82910000D02*
X161160000Y-84450000D01*
X162700000Y-77700000D02*
X162700000Y-82910000D01*
X161160000Y-84450000D02*
X159600000Y-84450000D01*
%TO.N,I0*%
X145750000Y-79650000D02*
X146150000Y-79650000D01*
X146150000Y-79650000D02*
X147350000Y-78450000D01*
X148700000Y-75650000D02*
X148750000Y-75600000D01*
X148700000Y-77300000D02*
X148700000Y-75650000D01*
X148900000Y-77500000D02*
X148700000Y-77300000D01*
%TO.N,S3*%
X125590000Y-82980000D02*
X125590000Y-81486516D01*
X124920000Y-83650000D02*
X125590000Y-82980000D01*
X125590000Y-81486516D02*
X126338258Y-80738258D01*
%TO.N,I7*%
X159120000Y-95424000D02*
X159226000Y-95424000D01*
X159226000Y-96826000D02*
X158924000Y-96826000D01*
X162700000Y-86450000D02*
X162450000Y-86450000D01*
X152007215Y-97100000D02*
X149450000Y-97100000D01*
X163700000Y-87450000D02*
X162700000Y-86450000D01*
X159226000Y-95424000D02*
X159226000Y-96826000D01*
X159120000Y-95150000D02*
X159120000Y-95424000D01*
X157222000Y-98036000D02*
X152943215Y-98036000D01*
X152943215Y-98036000D02*
X152007215Y-97100000D01*
X158924000Y-96826000D02*
X158550000Y-97200000D01*
X158550000Y-97200000D02*
X158058000Y-97200000D01*
X158058000Y-97200000D02*
X157222000Y-98036000D01*
%TO.N,I1*%
X147010000Y-80620000D02*
X148060000Y-79570000D01*
X148060000Y-79550000D02*
X148088182Y-79521818D01*
X148060000Y-79570000D02*
X148060000Y-79550000D01*
%TO.N,I5*%
X149000000Y-91360000D02*
X149800000Y-91360000D01*
X149800000Y-91360000D02*
X151720000Y-93280000D01*
%TO.N,S2*%
X126000000Y-83700000D02*
X126000000Y-83850000D01*
X126000000Y-83850000D02*
X125990000Y-83860000D01*
X126190000Y-81970000D02*
X126190000Y-83510000D01*
X126190000Y-83510000D02*
X126000000Y-83700000D01*
X127230000Y-80930000D02*
X126190000Y-81970000D01*
%TO.N,SIG*%
X126180000Y-85900000D02*
X122880000Y-82600000D01*
X126349000Y-85750000D02*
X126199000Y-85900000D01*
X122880000Y-82600000D02*
X121910000Y-82600000D01*
X126199000Y-85900000D02*
X126180000Y-85900000D01*
X137990000Y-90750000D02*
X136620000Y-90750000D01*
X136620000Y-90750000D02*
X136230000Y-90360000D01*
%TO.N,INT*%
X128080000Y-70260000D02*
X128080000Y-71155000D01*
X128720000Y-70100000D02*
X128620000Y-70000000D01*
X128620000Y-70000000D02*
X128180000Y-70000000D01*
X128180000Y-70160000D02*
X128080000Y-70260000D01*
X128180000Y-70000000D02*
X128180000Y-70160000D01*
D39*
%TO.N,/Battery Circuit Options/IN*%
X126050000Y-92450000D02*
X125150000Y-92450000D01*
X128280000Y-88075000D02*
X128280000Y-89495000D01*
D35*
X141950000Y-94300000D02*
X135125000Y-94300000D01*
X135125000Y-94300000D02*
X134425000Y-93600000D01*
D39*
X128280000Y-89495000D02*
X128175000Y-89600000D01*
D35*
X131925000Y-93600000D02*
X131150000Y-93600000D01*
D39*
X128175000Y-90325000D02*
X126050000Y-92450000D01*
D35*
X134425000Y-93600000D02*
X131925000Y-93600000D01*
D39*
X128175000Y-89600000D02*
X128175000Y-90325000D01*
D35*
X131150000Y-93600000D02*
X128175000Y-90625000D01*
X128175000Y-90625000D02*
X128175000Y-89600000D01*
D37*
%TO.N,Vsel*%
X141275000Y-84150000D02*
X141200000Y-84225000D01*
D36*
X152525000Y-95475000D02*
X152200000Y-95150000D01*
D37*
X143425000Y-84150000D02*
X142113000Y-84150000D01*
D36*
X143425000Y-82250000D02*
X143032350Y-82250000D01*
X143094000Y-88425000D02*
X144450000Y-88425000D01*
X144000000Y-94872000D02*
X144000000Y-93350000D01*
D37*
X141200000Y-84225000D02*
X141200000Y-86650000D01*
X142113000Y-84150000D02*
X141275000Y-84150000D01*
D36*
X145228000Y-96100000D02*
X144000000Y-94872000D01*
X143032350Y-82250000D02*
X142113000Y-83169350D01*
X141900000Y-89619000D02*
X143094000Y-88425000D01*
X150544000Y-95150000D02*
X149594000Y-96100000D01*
X141900000Y-91250000D02*
X141900000Y-89619000D01*
X149594000Y-96100000D02*
X145228000Y-96100000D01*
X142113000Y-83169350D02*
X142113000Y-84150000D01*
X144000000Y-93350000D02*
X141900000Y-91250000D01*
X152200000Y-95150000D02*
X150544000Y-95150000D01*
D37*
X141200000Y-86650000D02*
X142975000Y-88425000D01*
X142975000Y-88425000D02*
X144450000Y-88425000D01*
%TD*%
M02*
