M48
; DRILL file {KiCad 9.0.2} date 2025-11-18T20:52:20-0300
; FORMAT={-:-/ absolute / metric / decimal}
; #@! TF.CreationDate,2025-11-18T20:52:20-03:00
; #@! TF.GenerationSoftware,Kicad,Pcbnew,9.0.2
; #@! TF.FileFunction,Plated,1,4,PTH
FMAT,2
METRIC
; #@! TA.AperFunction,Plated,PTH,ViaDrill
T1C0.300
; #@! TA.AperFunction,Plated,PTH,ComponentDrill
T2C0.600
%
G90
G05
T1
X106.09Y-80.96
X106.15Y-89.45
X107.44Y-75.7
X107.8Y-89.6
X109.2Y-86.6
X111.0Y-94.9
X111.1Y-80.35
X111.3Y-82.2
X112.2Y-84.15
X113.05Y-94.015
X113.1Y-83.45
X113.81Y-94.01
X114.3Y-88.2
X114.385Y-90.115
X114.5Y-92.05
X114.6Y-93.99
X115.42Y-94.02
X115.525Y-83.376
X115.65Y-81.05
X115.85Y-93.35
X115.9Y-86.9
X116.25Y-94.065
X117.05Y-94.25
X117.17Y-81.43
X117.8Y-87.0
X117.8Y-93.2
X117.85Y-94.15
X118.5Y-80.35
X118.7Y-94.2
X119.5Y-94.15
X119.65Y-86.85
X119.8Y-93.2
X119.95Y-83.7
X120.3Y-94.25
X121.0Y-84.2
X121.0Y-94.2
X121.05Y-90.15
X121.3Y-86.5
X121.8Y-94.2
X121.91Y-82.6
X122.25Y-90.8
X122.68Y-94.08
X122.69Y-93.29
X122.75Y-86.45
X123.217Y-88.55
X123.67Y-80.66
X123.78Y-70.39
X123.82Y-74.54
X124.385Y-85.165
X124.72Y-74.53
X124.77Y-93.705
X124.92Y-83.65
X124.93Y-75.542
X125.54Y-70.33
X125.75Y-73.89
X126.0Y-83.7
X126.338Y-80.738
X126.349Y-85.75
X126.763Y-88.003
X126.908Y-86.324
X127.046Y-96.024
X127.05Y-90.35
X127.23Y-80.93
X127.56Y-83.65
X128.028Y-80.991
X128.4Y-85.865
X128.5Y-95.95
X128.72Y-70.1
X129.03Y-72.419
X129.59Y-96.45
X129.8Y-89.75
X130.55Y-91.5
X130.97Y-72.38
X131.78Y-74.742
X132.4Y-75.85
X134.186Y-76.109
X134.7Y-87.02
X134.85Y-95.9
X135.05Y-97.85
X135.47Y-80.94
X135.75Y-95.2
X136.1Y-76.0
X136.23Y-90.36
X137.038Y-83.708
X137.99Y-90.75
X138.64Y-70.3
X138.77Y-75.5
X138.8Y-72.7
X139.9Y-92.6
X140.05Y-72.85
X140.25Y-81.2
X140.6Y-77.8
X140.87Y-72.36
X140.97Y-71.11
X141.19Y-97.2
X142.144Y-72.844
X144.2Y-73.0
X144.2Y-97.842
X144.95Y-83.15
X145.7Y-73.05
X145.75Y-79.65
X146.25Y-92.85
X146.8Y-87.45
X147.01Y-80.62
X147.35Y-78.45
X148.088Y-79.522
X148.65Y-73.65
X148.75Y-75.6
X148.9Y-77.5
X148.9Y-77.5
X148.9Y-77.5
X149.0Y-80.0
X149.0Y-91.36
X149.25Y-98.0
X149.45Y-97.1
X149.85Y-78.4
X150.07Y-89.46
X151.72Y-93.28
X155.23Y-88.88
X155.28Y-77.56
X159.12Y-95.15
X159.6Y-84.45
X160.037Y-98.203
X160.101Y-83.101
X160.35Y-94.8
X160.4Y-89.85
X160.7Y-80.0
X161.3Y-90.49
X161.73Y-81.796
X162.45Y-86.45
X162.7Y-77.7
X162.9Y-84.05
X163.3Y-79.2
X163.416Y-89.884
X163.7Y-87.45
X164.2Y-94.55
X168.77Y-92.46
X169.1Y-88.55
X169.34Y-84.21
X169.4Y-76.75
X172.45Y-91.3
X172.7Y-76.9
T2
G00X111.33Y-70.9
M15
G01X111.33Y-70.1
M16
G05
G00X111.33Y-75.23
M15
G01X111.33Y-74.13
M16
G05
G00X119.97Y-70.9
M15
G01X119.97Y-70.1
M16
G05
G00X119.97Y-75.23
M15
G01X119.97Y-74.13
M16
G05
M30
