<?xml version="1.0" standalone="no"?>
 <!DOCTYPE svg PUBLIC "-//W3C//DTD SVG 1.1//EN" 
 "http://www.w3.org/Graphics/SVG/1.1/DTD/svg11.dtd"> 
<svg
  xmlns:svg="http://www.w3.org/2000/svg"
  xmlns="http://www.w3.org/2000/svg"
  xmlns:xlink="http://www.w3.org/1999/xlink"
  version="1.1"
  width="71.776739mm" height="32.192739mm" viewBox="103.777000 67.890000 71.776739 32.192739">
<title>SVG Image created as Smart_insoles_2025_v1-B_Paste.svg date 2025/12/03 21:53:55 </title>
  <desc>Image generated by PCBNEW </desc>
<g style="fill:#000000; fill-opacity:1.0000;stroke:#000000; stroke-opacity:1.0000;
stroke-linecap:round; stroke-linejoin:round;"
 transform="translate(0 0) scale(1 1)">
<path style="fill:#000000; fill-opacity:1.0000; 
stroke:#000000; stroke-width:0.0100; stroke-opacity:1; 
stroke-linecap:round; stroke-linejoin:round;fill-rule:evenodd;"
d="M 129.5500,87.7500
128.9800,87.7500
128.9800,86.8000
129.5500,86.8000
Z" /> 
<path style="fill:#000000; fill-opacity:1.0000; stroke:none;fill-rule:evenodd;"
d="M 129.8700,87.7850
129.8700,87.5650
130.6300,87.5650
130.6300,87.7850
Z" /> 
<path style="fill:#000000; fill-opacity:1.0000; stroke:none;fill-rule:evenodd;"
d="M 127.9000,88.1850
127.9000,87.9650
128.6600,87.9650
128.6600,88.1850
Z" /> 
<path style="fill:#000000; fill-opacity:1.0000; stroke:none;fill-rule:evenodd;"
d="M 127.9000,87.7850
127.9000,87.5650
128.6600,87.5650
128.6600,87.7850
Z" /> 
<path style="fill:#000000; fill-opacity:1.0000; stroke:none;fill-rule:evenodd;"
d="M 127.9000,87.3850
127.9000,87.1650
128.6600,87.1650
128.6600,87.3850
Z" /> 
<path style="fill:#000000; fill-opacity:1.0000; stroke:none;fill-rule:evenodd;"
d="M 127.9000,86.9850
127.9000,86.7650
128.6600,86.7650
128.6600,86.9850
Z" /> 
<path style="fill:#000000; fill-opacity:1.0000; stroke:none;fill-rule:evenodd;"
d="M 127.9000,86.5850
127.9000,86.3650
128.6600,86.3650
128.6600,86.5850
Z" /> 
<path style="fill:#000000; fill-opacity:1.0000; stroke:none;fill-rule:evenodd;"
d="M 129.8700,86.5850
129.8700,86.3650
130.6300,86.3650
130.6300,86.5850
Z" /> 
<path style="fill:#000000; fill-opacity:1.0000; stroke:none;fill-rule:evenodd;"
d="M 129.8700,86.9850
129.8700,86.7650
130.6300,86.7650
130.6300,86.9850
Z" /> 
<path style="fill:#000000; fill-opacity:1.0000; stroke:none;fill-rule:evenodd;"
d="M 129.8700,87.3850
129.8700,87.1650
130.6300,87.1650
130.6300,87.3850
Z" /> 
<path style="fill:#000000; fill-opacity:1.0000; stroke:none;fill-rule:evenodd;"
d="M 129.8700,88.1850
129.8700,87.9650
130.6300,87.9650
130.6300,88.1850
Z" /> 
<path style="fill:#000000; fill-opacity:1.0000; stroke:none;fill-rule:evenodd;"
d="M 137.8000,86.5750
137.7043,86.5560
137.6232,86.5018
137.5690,86.4207
137.5500,86.3250
137.5500,85.6250
137.5690,85.5293
137.6232,85.4482
137.7043,85.3940
137.8000,85.3750
138.7000,85.3750
138.7957,85.3940
138.8768,85.4482
138.9310,85.5293
138.9500,85.6250
138.9500,86.3250
138.9310,86.4207
138.8768,86.5018
138.7957,86.5560
138.7000,86.5750
Z" /> 
<path style="fill:#000000; fill-opacity:1.0000; stroke:none;fill-rule:evenodd;"
d="M 137.8000,88.5750
137.7043,88.5560
137.6232,88.5018
137.5690,88.4207
137.5500,88.3250
137.5500,87.6250
137.5690,87.5293
137.6232,87.4482
137.7043,87.3940
137.8000,87.3750
138.7000,87.3750
138.7957,87.3940
138.8768,87.4482
138.9310,87.5293
138.9500,87.6250
138.9500,88.3250
138.9310,88.4207
138.8768,88.5018
138.7957,88.5560
138.7000,88.5750
Z" /> 
<path style="fill:#000000; fill-opacity:1.0000; stroke:none;fill-rule:evenodd;"
d="M 138.7062,83.7125
138.7995,83.7311
138.8786,83.7839
138.9314,83.8630
138.9500,83.9562
138.9500,84.4437
138.9314,84.5370
138.8786,84.6161
138.7995,84.6689
138.7062,84.6875
137.7937,84.6875
137.7005,84.6689
137.6214,84.6161
137.5686,84.5370
137.5500,84.4437
137.5500,83.9562
137.5686,83.8630
137.6214,83.7839
137.7005,83.7311
137.7937,83.7125
Z" /> 
<path style="fill:#000000; fill-opacity:1.0000; stroke:none;fill-rule:evenodd;"
d="M 138.7062,81.8375
138.7995,81.8561
138.8786,81.9089
138.9314,81.9880
138.9500,82.0812
138.9500,82.5687
138.9314,82.6620
138.8786,82.7411
138.7995,82.7939
138.7062,82.8125
137.7937,82.8125
137.7005,82.7939
137.6214,82.7411
137.5686,82.6620
137.5500,82.5687
137.5500,82.0812
137.5686,81.9880
137.6214,81.9089
137.7005,81.8561
137.7937,81.8375
Z" /> 
<path style="fill:#000000; fill-opacity:1.0000; stroke:none;fill-rule:evenodd;"
d="M 132.3050,70.7300
132.4007,70.7490
132.4818,70.8032
132.5360,70.8843
132.5550,70.9800
132.5550,71.6550
132.5360,71.7507
132.4818,71.8318
132.4007,71.8860
132.3050,71.9050
131.3550,71.9050
131.2593,71.8860
131.1782,71.8318
131.1240,71.7507
131.1050,71.6550
131.1050,70.9800
131.1240,70.8843
131.1782,70.8032
131.2593,70.7490
131.3550,70.7300
Z" /> 
<path style="fill:#000000; fill-opacity:1.0000; stroke:none;fill-rule:evenodd;"
d="M 132.3050,72.8050
132.4007,72.8240
132.4818,72.8782
132.5360,72.9593
132.5550,73.0550
132.5550,73.7300
132.5360,73.8257
132.4818,73.9068
132.4007,73.9610
132.3050,73.9800
131.3550,73.9800
131.2593,73.9610
131.1782,73.9068
131.1240,73.8257
131.1050,73.7300
131.1050,73.0550
131.1240,72.9593
131.1782,72.8782
131.2593,72.8240
131.3550,72.8050
Z" /> 
<path style="fill:#000000; fill-opacity:1.0000; stroke:none;fill-rule:evenodd;"
d="M 130.3050,70.7300
130.4007,70.7490
130.4818,70.8032
130.5360,70.8843
130.5550,70.9800
130.5550,71.6550
130.5360,71.7507
130.4818,71.8318
130.4007,71.8860
130.3050,71.9050
129.3550,71.9050
129.2593,71.8860
129.1782,71.8318
129.1240,71.7507
129.1050,71.6550
129.1050,70.9800
129.1240,70.8843
129.1782,70.8032
129.2593,70.7490
129.3550,70.7300
Z" /> 
<path style="fill:#000000; fill-opacity:1.0000; stroke:none;fill-rule:evenodd;"
d="M 130.3050,72.8050
130.4007,72.8240
130.4818,72.8782
130.5360,72.9593
130.5550,73.0550
130.5550,73.7300
130.5360,73.8257
130.4818,73.9068
130.4007,73.9610
130.3050,73.9800
129.3550,73.9800
129.2593,73.9610
129.1782,73.9068
129.1240,73.8257
129.1050,73.7300
129.1050,73.0550
129.1240,72.9593
129.1782,72.8782
129.2593,72.8240
129.3550,72.8050
Z" /> 
<path style="fill:#000000; fill-opacity:1.0000; stroke:none;fill-rule:evenodd;"
d="M 130.8250,90.4250
130.8060,90.5207
130.7518,90.6018
130.6707,90.6560
130.5750,90.6750
129.9000,90.6750
129.8043,90.6560
129.7232,90.6018
129.6690,90.5207
129.6500,90.4250
129.6500,89.4750
129.6690,89.3793
129.7232,89.2982
129.8043,89.2440
129.9000,89.2250
130.5750,89.2250
130.6707,89.2440
130.7518,89.2982
130.8060,89.3793
130.8250,89.4750
Z" /> 
<path style="fill:#000000; fill-opacity:1.0000; stroke:none;fill-rule:evenodd;"
d="M 128.7500,90.4250
128.7310,90.5207
128.6768,90.6018
128.5957,90.6560
128.5000,90.6750
127.8250,90.6750
127.7293,90.6560
127.6482,90.6018
127.5940,90.5207
127.5750,90.4250
127.5750,89.4750
127.5940,89.3793
127.6482,89.2982
127.7293,89.2440
127.8250,89.2250
128.5000,89.2250
128.5957,89.2440
128.6768,89.2982
128.7310,89.3793
128.7500,89.4750
Z" /> 
<path style="fill:#000000; fill-opacity:1.0000; stroke:none;fill-rule:evenodd;"
d="M 133.9250,85.4125
134.0207,85.4315
134.1018,85.4857
134.1560,85.5668
134.1750,85.6625
134.1750,86.3375
134.1560,86.4332
134.1018,86.5143
134.0207,86.5685
133.9250,86.5875
132.9750,86.5875
132.8793,86.5685
132.7982,86.5143
132.7440,86.4332
132.7250,86.3375
132.7250,85.6625
132.7440,85.5668
132.7982,85.4857
132.8793,85.4315
132.9750,85.4125
Z" /> 
<path style="fill:#000000; fill-opacity:1.0000; stroke:none;fill-rule:evenodd;"
d="M 133.9250,87.4875
134.0207,87.5065
134.1018,87.5607
134.1560,87.6418
134.1750,87.7375
134.1750,88.4125
134.1560,88.5082
134.1018,88.5893
134.0207,88.6435
133.9250,88.6625
132.9750,88.6625
132.8793,88.6435
132.7982,88.5893
132.7440,88.5082
132.7250,88.4125
132.7250,87.7375
132.7440,87.6418
132.7982,87.5607
132.8793,87.5065
132.9750,87.4875
Z" /> 
<path style="fill:#000000; fill-opacity:1.0000; stroke:none;fill-rule:evenodd;"
d="M 141.6750,81.5625
141.7707,81.5815
141.8518,81.6357
141.9060,81.7168
141.9250,81.8125
141.9250,82.4875
141.9060,82.5832
141.8518,82.6643
141.7707,82.7185
141.6750,82.7375
140.7250,82.7375
140.6293,82.7185
140.5482,82.6643
140.4940,82.5832
140.4750,82.4875
140.4750,81.8125
140.4940,81.7168
140.5482,81.6357
140.6293,81.5815
140.7250,81.5625
Z" /> 
<path style="fill:#000000; fill-opacity:1.0000; stroke:none;fill-rule:evenodd;"
d="M 141.6750,83.6375
141.7707,83.6565
141.8518,83.7107
141.9060,83.7918
141.9250,83.8875
141.9250,84.5625
141.9060,84.6582
141.8518,84.7393
141.7707,84.7935
141.6750,84.8125
140.7250,84.8125
140.6293,84.7935
140.5482,84.7393
140.4940,84.6582
140.4750,84.5625
140.4750,83.8875
140.4940,83.7918
140.5482,83.7107
140.6293,83.6565
140.7250,83.6375
Z" /> 
<path style="fill:#000000; fill-opacity:1.0000; stroke:none;fill-rule:evenodd;"
d="M 143.1125,85.6750
143.1315,85.5793
143.1857,85.4982
143.2668,85.4440
143.3625,85.4250
144.0375,85.4250
144.1332,85.4440
144.2143,85.4982
144.2685,85.5793
144.2875,85.6750
144.2875,86.6250
144.2685,86.7207
144.2143,86.8018
144.1332,86.8560
144.0375,86.8750
143.3625,86.8750
143.2668,86.8560
143.1857,86.8018
143.1315,86.7207
143.1125,86.6250
Z" /> 
<path style="fill:#000000; fill-opacity:1.0000; stroke:none;fill-rule:evenodd;"
d="M 145.1875,85.6750
145.2065,85.5793
145.2607,85.4982
145.3418,85.4440
145.4375,85.4250
146.1125,85.4250
146.2082,85.4440
146.2893,85.4982
146.3435,85.5793
146.3625,85.6750
146.3625,86.6250
146.3435,86.7207
146.2893,86.8018
146.2082,86.8560
146.1125,86.8750
145.4375,86.8750
145.3418,86.8560
145.2607,86.8018
145.2065,86.7207
145.1875,86.6250
Z" /> 
<path style="fill:#000000; fill-opacity:1.0000; stroke:none;fill-rule:evenodd;"
d="M 128.9175,75.7925
128.8985,75.8882
128.8443,75.9693
128.7632,76.0235
128.6675,76.0425
127.9925,76.0425
127.8968,76.0235
127.8157,75.9693
127.7615,75.8882
127.7425,75.7925
127.7425,74.8425
127.7615,74.7468
127.8157,74.6657
127.8968,74.6115
127.9925,74.5925
128.6675,74.5925
128.7632,74.6115
128.8443,74.6657
128.8985,74.7468
128.9175,74.8425
Z" /> 
<path style="fill:#000000; fill-opacity:1.0000; stroke:none;fill-rule:evenodd;"
d="M 126.8425,75.7925
126.8235,75.8882
126.7693,75.9693
126.6882,76.0235
126.5925,76.0425
125.9175,76.0425
125.8218,76.0235
125.7407,75.9693
125.6865,75.8882
125.6675,75.7925
125.6675,74.8425
125.6865,74.7468
125.7407,74.6657
125.8218,74.6115
125.9175,74.5925
126.5925,74.5925
126.6882,74.6115
126.7693,74.6657
126.8235,74.7468
126.8425,74.8425
Z" /> 
<path style="fill:#000000; fill-opacity:1.0000; stroke:none;fill-rule:evenodd;"
d="M 136.2062,81.8375
136.2995,81.8561
136.3786,81.9089
136.4314,81.9880
136.4500,82.0812
136.4500,82.5687
136.4314,82.6620
136.3786,82.7411
136.2995,82.7939
136.2062,82.8125
135.2937,82.8125
135.2005,82.7939
135.1214,82.7411
135.0686,82.6620
135.0500,82.5687
135.0500,82.0812
135.0686,81.9880
135.1214,81.9089
135.2005,81.8561
135.2937,81.8375
Z" /> 
<path style="fill:#000000; fill-opacity:1.0000; stroke:none;fill-rule:evenodd;"
d="M 136.2062,83.7125
136.2995,83.7311
136.3786,83.7839
136.4314,83.8630
136.4500,83.9562
136.4500,84.4437
136.4314,84.5370
136.3786,84.6161
136.2995,84.6689
136.2062,84.6875
135.2937,84.6875
135.2005,84.6689
135.1214,84.6161
135.0686,84.5370
135.0500,84.4437
135.0500,83.9562
135.0686,83.8630
135.1214,83.7839
135.2005,83.7311
135.2937,83.7125
Z" /> 
<path style="fill:#000000; fill-opacity:1.0000; stroke:none;fill-rule:evenodd;"
d="M 150.6562,81.7250
150.7495,81.7436
150.8286,81.7964
150.8814,81.8755
150.9000,81.9688
150.9000,82.4562
150.8814,82.5495
150.8286,82.6286
150.7495,82.6814
150.6562,82.7000
149.7438,82.7000
149.6505,82.6814
149.5714,82.6286
149.5186,82.5495
149.5000,82.4562
149.5000,81.9688
149.5186,81.8755
149.5714,81.7964
149.6505,81.7436
149.7438,81.7250
Z" /> 
<path style="fill:#000000; fill-opacity:1.0000; stroke:none;fill-rule:evenodd;"
d="M 150.6562,83.6000
150.7495,83.6186
150.8286,83.6714
150.8814,83.7505
150.9000,83.8438
150.9000,84.3312
150.8814,84.4245
150.8286,84.5036
150.7495,84.5564
150.6562,84.5750
149.7438,84.5750
149.6505,84.5564
149.5714,84.5036
149.5186,84.4245
149.5000,84.3312
149.5000,83.8438
149.5186,83.7505
149.5714,83.6714
149.6505,83.6186
149.7438,83.6000
Z" /> 
<path style="fill:#000000; fill-opacity:1.0000; stroke:none;fill-rule:evenodd;"
d="M 126.0500,90.1500
126.0310,90.2457
125.9768,90.3268
125.8957,90.3810
125.8000,90.4000
125.1000,90.4000
125.0043,90.3810
124.9232,90.3268
124.8690,90.2457
124.8500,90.1500
124.8500,89.2500
124.8690,89.1543
124.9232,89.0732
125.0043,89.0190
125.1000,89.0000
125.8000,89.0000
125.8957,89.0190
125.9768,89.0732
126.0310,89.1543
126.0500,89.2500
Z" /> 
<path style="fill:#000000; fill-opacity:1.0000; stroke:none;fill-rule:evenodd;"
d="M 124.0500,90.1500
124.0310,90.2457
123.9768,90.3268
123.8957,90.3810
123.8000,90.4000
123.1000,90.4000
123.0043,90.3810
122.9232,90.3268
122.8690,90.2457
122.8500,90.1500
122.8500,89.2500
122.8690,89.1543
122.9232,89.0732
123.0043,89.0190
123.1000,89.0000
123.8000,89.0000
123.8957,89.0190
123.9768,89.0732
124.0310,89.1543
124.0500,89.2500
Z" /> 
<path style="fill:#000000; fill-opacity:1.0000; stroke:none;fill-rule:evenodd;"
d="M 135.3000,88.5750
135.2043,88.5560
135.1232,88.5018
135.0690,88.4207
135.0500,88.3250
135.0500,87.6250
135.0690,87.5293
135.1232,87.4482
135.2043,87.3940
135.3000,87.3750
136.2000,87.3750
136.2957,87.3940
136.3768,87.4482
136.4310,87.5293
136.4500,87.6250
136.4500,88.3250
136.4310,88.4207
136.3768,88.5018
136.2957,88.5560
136.2000,88.5750
Z" /> 
<path style="fill:#000000; fill-opacity:1.0000; stroke:none;fill-rule:evenodd;"
d="M 135.3000,86.5750
135.2043,86.5560
135.1232,86.5018
135.0690,86.4207
135.0500,86.3250
135.0500,85.6250
135.0690,85.5293
135.1232,85.4482
135.2043,85.3940
135.3000,85.3750
136.2000,85.3750
136.2957,85.3940
136.3768,85.4482
136.4310,85.5293
136.4500,85.6250
136.4500,86.3250
136.4310,86.4207
136.3768,86.5018
136.2957,86.5560
136.2000,86.5750
Z" /> 
<path style="fill:#000000; fill-opacity:1.0000; stroke:none;fill-rule:evenodd;"
d="M 134.0750,94.4000
133.9793,94.3810
133.8982,94.3268
133.8440,94.2457
133.8250,94.1500
133.8250,93.4500
133.8440,93.3543
133.8982,93.2732
133.9793,93.2190
134.0750,93.2000
134.9750,93.2000
135.0707,93.2190
135.1518,93.2732
135.2060,93.3543
135.2250,93.4500
135.2250,94.1500
135.2060,94.2457
135.1518,94.3268
135.0707,94.3810
134.9750,94.4000
Z" /> 
<path style="fill:#000000; fill-opacity:1.0000; stroke:none;fill-rule:evenodd;"
d="M 134.0750,92.4000
133.9793,92.3810
133.8982,92.3268
133.8440,92.2457
133.8250,92.1500
133.8250,91.4500
133.8440,91.3543
133.8982,91.2732
133.9793,91.2190
134.0750,91.2000
134.9750,91.2000
135.0707,91.2190
135.1518,91.2732
135.2060,91.3543
135.2250,91.4500
135.2250,92.1500
135.2060,92.2457
135.1518,92.3268
135.0707,92.3810
134.9750,92.4000
Z" /> 
<path style="fill:#000000; fill-opacity:1.0000; stroke:none;fill-rule:evenodd;"
d="M 131.5750,94.4000
131.4793,94.3810
131.3982,94.3268
131.3440,94.2457
131.3250,94.1500
131.3250,93.4500
131.3440,93.3543
131.3982,93.2732
131.4793,93.2190
131.5750,93.2000
132.4750,93.2000
132.5707,93.2190
132.6518,93.2732
132.7060,93.3543
132.7250,93.4500
132.7250,94.1500
132.7060,94.2457
132.6518,94.3268
132.5707,94.3810
132.4750,94.4000
Z" /> 
<path style="fill:#000000; fill-opacity:1.0000; stroke:none;fill-rule:evenodd;"
d="M 131.5750,92.4000
131.4793,92.3810
131.3982,92.3268
131.3440,92.2457
131.3250,92.1500
131.3250,91.4500
131.3440,91.3543
131.3982,91.2732
131.4793,91.2190
131.5750,91.2000
132.4750,91.2000
132.5707,91.2190
132.6518,91.2732
132.7060,91.3543
132.7250,91.4500
132.7250,92.1500
132.7060,92.2457
132.6518,92.3268
132.5707,92.3810
132.4750,92.4000
Z" /> 
<path style="fill:#000000; fill-opacity:1.0000; stroke:none;fill-rule:evenodd;"
d="M 147.2500,84.7500
147.1543,84.7310
147.0732,84.6768
147.0190,84.5957
147.0000,84.5000
147.0000,83.8000
147.0190,83.7043
147.0732,83.6232
147.1543,83.5690
147.2500,83.5500
148.1500,83.5500
148.2457,83.5690
148.3268,83.6232
148.3810,83.7043
148.4000,83.8000
148.4000,84.5000
148.3810,84.5957
148.3268,84.6768
148.2457,84.7310
148.1500,84.7500
Z" /> 
<path style="fill:#000000; fill-opacity:1.0000; stroke:none;fill-rule:evenodd;"
d="M 147.2500,82.7500
147.1543,82.7310
147.0732,82.6768
147.0190,82.5957
147.0000,82.5000
147.0000,81.8000
147.0190,81.7043
147.0732,81.6232
147.1543,81.5690
147.2500,81.5500
148.1500,81.5500
148.2457,81.5690
148.3268,81.6232
148.3810,81.7043
148.4000,81.8000
148.4000,82.5000
148.3810,82.5957
148.3268,82.6768
148.2457,82.7310
148.1500,82.7500
Z" /> 
<path style="fill:#000000; fill-opacity:1.0000; stroke:none;fill-rule:evenodd;"
d="M 125.1300,70.9175
125.1300,71.3175
124.2300,71.3175
124.2300,70.9175
Z" /> 
<path style="fill:#000000; fill-opacity:1.0000; stroke:none;fill-rule:evenodd;"
d="M 125.1300,71.7175
125.1300,72.1175
124.2300,72.1175
124.2300,71.7175
Z" /> 
<path style="fill:#000000; fill-opacity:1.0000; stroke:none;fill-rule:evenodd;"
d="M 125.1300,72.5175
125.1300,72.9175
124.2300,72.9175
124.2300,72.5175
Z" /> 
<path style="fill:#000000; fill-opacity:1.0000; stroke:none;fill-rule:evenodd;"
d="M 125.1300,73.3175
125.1300,73.7175
124.2300,73.7175
124.2300,73.3175
Z" /> 
<path style="fill:#000000; fill-opacity:1.0000; stroke:none;fill-rule:evenodd;"
d="M 123.4300,73.3175
123.4300,73.7175
122.5300,73.7175
122.5300,73.3175
Z" /> 
<path style="fill:#000000; fill-opacity:1.0000; stroke:none;fill-rule:evenodd;"
d="M 123.4300,72.5175
123.4300,72.9175
122.5300,72.9175
122.5300,72.5175
Z" /> 
<path style="fill:#000000; fill-opacity:1.0000; stroke:none;fill-rule:evenodd;"
d="M 123.4300,71.7175
123.4300,72.1175
122.5300,72.1175
122.5300,71.7175
Z" /> 
<path style="fill:#000000; fill-opacity:1.0000; stroke:none;fill-rule:evenodd;"
d="M 123.4300,70.9175
123.4300,71.3175
122.5300,71.3175
122.5300,70.9175
Z" /> 
<path style="fill:#000000; fill-opacity:1.0000; stroke:none;fill-rule:evenodd;"
d="M 134.2025,84.3842
134.1949,84.4497
134.1525,84.5457
134.0782,84.6200
133.9822,84.6624
133.9168,84.6700
132.5832,84.6700
132.5178,84.6624
132.4218,84.6200
132.3475,84.5457
132.3051,84.4497
132.2975,84.3842
132.2975,82.4158
132.3051,82.3503
132.3475,82.2543
132.4218,82.1800
132.5178,82.1376
132.5832,82.1300
133.9168,82.1300
133.9822,82.1376
134.0782,82.1800
134.1525,82.2543
134.1949,82.3503
134.2025,82.4158
Z" /> 
<path style="fill:#000000; fill-opacity:1.0000; stroke:none;fill-rule:evenodd;"
d="M 130.1385,84.3842
130.1309,84.4497
130.0885,84.5457
130.0142,84.6200
129.9182,84.6624
129.8527,84.6700
128.5192,84.6700
128.4538,84.6624
128.3578,84.6200
128.2835,84.5457
128.2411,84.4497
128.2335,84.3842
128.2335,82.4158
128.2411,82.3503
128.2835,82.2543
128.3578,82.1800
128.4538,82.1376
128.5192,82.1300
129.8527,82.1300
129.9182,82.1376
130.0142,82.1800
130.0885,82.2543
130.1309,82.3503
130.1385,82.4158
Z" /> 
<path style="fill:#000000; fill-opacity:1.0000; stroke:none;fill-rule:evenodd;"
d="M 147.3000,94.5500
147.2810,94.6457
147.2268,94.7268
147.1457,94.7810
147.0500,94.8000
145.0500,94.8000
144.9543,94.7810
144.8732,94.7268
144.8190,94.6457
144.8000,94.5500
144.8000,93.2500
144.8190,93.1543
144.8732,93.0732
144.9543,93.0190
145.0500,93.0000
147.0500,93.0000
147.1457,93.0190
147.2268,93.0732
147.2810,93.1543
147.3000,93.2500
Z" /> 
<path style="fill:#000000; fill-opacity:1.0000; stroke:none;fill-rule:evenodd;"
d="M 143.3000,94.5500
143.2810,94.6457
143.2268,94.7268
143.1457,94.7810
143.0500,94.8000
141.0500,94.8000
140.9543,94.7810
140.8732,94.7268
140.8190,94.6457
140.8000,94.5500
140.8000,93.2500
140.8190,93.1543
140.8732,93.0732
140.9543,93.0190
141.0500,93.0000
143.0500,93.0000
143.1457,93.0190
143.2268,93.0732
143.2810,93.1543
143.3000,93.2500
Z" /> 
<path style="fill:#000000; fill-opacity:1.0000; stroke:none;fill-rule:evenodd;"
d="M 142.7625,84.0000
142.7739,83.9426
142.8064,83.8939
142.8551,83.8614
142.9125,83.8500
143.9375,83.8500
143.9949,83.8614
144.0436,83.8939
144.0761,83.9426
144.0875,84.0000
144.0875,84.3000
144.0761,84.3574
144.0436,84.4061
143.9949,84.4386
143.9375,84.4500
142.9125,84.4500
142.8551,84.4386
142.8064,84.4061
142.7739,84.3574
142.7625,84.3000
Z" /> 
<path style="fill:#000000; fill-opacity:1.0000; stroke:none;fill-rule:evenodd;"
d="M 142.7625,83.0500
142.7739,82.9926
142.8064,82.9439
142.8551,82.9114
142.9125,82.9000
143.9375,82.9000
143.9949,82.9114
144.0436,82.9439
144.0761,82.9926
144.0875,83.0500
144.0875,83.3500
144.0761,83.4074
144.0436,83.4561
143.9949,83.4886
143.9375,83.5000
142.9125,83.5000
142.8551,83.4886
142.8064,83.4561
142.7739,83.4074
142.7625,83.3500
Z" /> 
<path style="fill:#000000; fill-opacity:1.0000; stroke:none;fill-rule:evenodd;"
d="M 142.7625,82.1000
142.7739,82.0426
142.8064,81.9939
142.8551,81.9614
142.9125,81.9500
143.9375,81.9500
143.9949,81.9614
144.0436,81.9939
144.0761,82.0426
144.0875,82.1000
144.0875,82.4000
144.0761,82.4574
144.0436,82.5061
143.9949,82.5386
143.9375,82.5500
142.9125,82.5500
142.8551,82.5386
142.8064,82.5061
142.7739,82.4574
142.7625,82.4000
Z" /> 
<path style="fill:#000000; fill-opacity:1.0000; stroke:none;fill-rule:evenodd;"
d="M 145.0375,82.1000
145.0489,82.0426
145.0814,81.9939
145.1301,81.9614
145.1875,81.9500
146.2125,81.9500
146.2699,81.9614
146.3186,81.9939
146.3511,82.0426
146.3625,82.1000
146.3625,82.4000
146.3511,82.4574
146.3186,82.5061
146.2699,82.5386
146.2125,82.5500
145.1875,82.5500
145.1301,82.5386
145.0814,82.5061
145.0489,82.4574
145.0375,82.4000
Z" /> 
<path style="fill:#000000; fill-opacity:1.0000; stroke:none;fill-rule:evenodd;"
d="M 145.0375,84.0000
145.0489,83.9426
145.0814,83.8939
145.1301,83.8614
145.1875,83.8500
146.2125,83.8500
146.2699,83.8614
146.3186,83.8939
146.3511,83.9426
146.3625,84.0000
146.3625,84.3000
146.3511,84.3574
146.3186,84.4061
146.2699,84.4386
146.2125,84.4500
145.1875,84.4500
145.1301,84.4386
145.0814,84.4061
145.0489,84.3574
145.0375,84.3000
Z" /> 
<path style="fill:#000000; fill-opacity:1.0000; stroke:none;fill-rule:evenodd;"
d="M 114.1000,85.7000
114.1000,82.2000
115.1000,82.2000
115.1000,85.7000
Z" /> 
<path style="fill:#000000; fill-opacity:1.0000; stroke:none;fill-rule:evenodd;"
d="M 116.1000,85.7000
116.1000,82.2000
117.1000,82.2000
117.1000,85.7000
Z" /> 
<path style="fill:#000000; fill-opacity:1.0000; stroke:none;fill-rule:evenodd;"
d="M 111.5000,79.9000
111.5000,76.5000
113.0000,76.5000
113.0000,79.9000
Z" /> 
<path style="fill:#000000; fill-opacity:1.0000; stroke:none;fill-rule:evenodd;"
d="M 118.2000,79.9000
118.2000,76.5000
119.7000,76.5000
119.7000,79.9000
Z" /> 
<path style="fill:#000000; fill-opacity:1.0000; stroke:none;fill-rule:evenodd;"
d="M 141.5250,91.8000
140.1250,91.8000
140.1250,90.8000
141.5250,90.8000
Z" /> 
<path style="fill:#000000; fill-opacity:1.0000; stroke:none;fill-rule:evenodd;"
d="M 141.5250,89.9000
140.1250,89.9000
140.1250,88.9000
141.5250,88.9000
Z" /> 
<path style="fill:#000000; fill-opacity:1.0000; stroke:none;fill-rule:evenodd;"
d="M 143.7250,90.8500
142.3250,90.8500
142.3250,89.8500
143.7250,89.8500
Z" /> 
<path style="fill:#000000; fill-opacity:1.0000; stroke:none;fill-rule:evenodd;"
d="M 126.4050,70.8675
126.7550,70.8675
126.7550,71.4425
126.4050,71.4425
Z" /> 
<path style="fill:#000000; fill-opacity:1.0000; stroke:none;fill-rule:evenodd;"
d="M 126.9050,70.8675
127.2550,70.8675
127.2550,71.4425
126.9050,71.4425
Z" /> 
<path style="fill:#000000; fill-opacity:1.0000; stroke:none;fill-rule:evenodd;"
d="M 127.4050,70.8675
127.7550,70.8675
127.7550,71.4425
127.4050,71.4425
Z" /> 
<path style="fill:#000000; fill-opacity:1.0000; stroke:none;fill-rule:evenodd;"
d="M 127.9050,70.8675
128.2550,70.8675
128.2550,71.4425
127.9050,71.4425
Z" /> 
<path style="fill:#000000; fill-opacity:1.0000; stroke:none;fill-rule:evenodd;"
d="M 127.9550,71.6425
128.5300,71.6425
128.5300,71.9925
127.9550,71.9925
Z" /> 
<path style="fill:#000000; fill-opacity:1.0000; stroke:none;fill-rule:evenodd;"
d="M 127.9550,72.1425
128.5300,72.1425
128.5300,72.4925
127.9550,72.4925
Z" /> 
<path style="fill:#000000; fill-opacity:1.0000; stroke:none;fill-rule:evenodd;"
d="M 127.9550,72.6425
128.5300,72.6425
128.5300,72.9925
127.9550,72.9925
Z" /> 
<path style="fill:#000000; fill-opacity:1.0000; stroke:none;fill-rule:evenodd;"
d="M 127.9050,73.1925
128.2550,73.1925
128.2550,73.7675
127.9050,73.7675
Z" /> 
<path style="fill:#000000; fill-opacity:1.0000; stroke:none;fill-rule:evenodd;"
d="M 127.4050,73.1925
127.7550,73.1925
127.7550,73.7675
127.4050,73.7675
Z" /> 
<path style="fill:#000000; fill-opacity:1.0000; stroke:none;fill-rule:evenodd;"
d="M 126.9050,73.1925
127.2550,73.1925
127.2550,73.7675
126.9050,73.7675
Z" /> 
<path style="fill:#000000; fill-opacity:1.0000; stroke:none;fill-rule:evenodd;"
d="M 126.4050,73.1925
126.7550,73.1925
126.7550,73.7675
126.4050,73.7675
Z" /> 
<path style="fill:#000000; fill-opacity:1.0000; stroke:none;fill-rule:evenodd;"
d="M 126.1300,72.6425
126.7050,72.6425
126.7050,72.9925
126.1300,72.9925
Z" /> 
<path style="fill:#000000; fill-opacity:1.0000; stroke:none;fill-rule:evenodd;"
d="M 126.1300,72.1425
126.7050,72.1425
126.7050,72.4925
126.1300,72.4925
Z" /> 
<path style="fill:#000000; fill-opacity:1.0000; stroke:none;fill-rule:evenodd;"
d="M 126.1300,71.6425
126.7050,71.6425
126.7050,71.9925
126.1300,71.9925
Z" /> 
<path style="fill:#000000; fill-opacity:1.0000; stroke:none;fill-rule:evenodd;"
d="M 126.0500,88.1500
126.0310,88.2457
125.9768,88.3268
125.8957,88.3810
125.8000,88.4000
125.1000,88.4000
125.0043,88.3810
124.9232,88.3268
124.8690,88.2457
124.8500,88.1500
124.8500,87.2500
124.8690,87.1543
124.9232,87.0732
125.0043,87.0190
125.1000,87.0000
125.8000,87.0000
125.8957,87.0190
125.9768,87.0732
126.0310,87.1543
126.0500,87.2500
Z" /> 
<path style="fill:#000000; fill-opacity:1.0000; stroke:none;fill-rule:evenodd;"
d="M 124.0500,88.1500
124.0310,88.2457
123.9768,88.3268
123.8957,88.3810
123.8000,88.4000
123.1000,88.4000
123.0043,88.3810
122.9232,88.3268
122.8690,88.2457
122.8500,88.1500
122.8500,87.2500
122.8690,87.1543
122.9232,87.0732
123.0043,87.0190
123.1000,87.0000
123.8000,87.0000
123.8957,87.0190
123.9768,87.0732
124.0310,87.1543
124.0500,87.2500
Z" /> 
</g> 
</svg>
