<?xml version="1.0" standalone="no"?>
 <!DOCTYPE svg PUBLIC "-//W3C//DTD SVG 1.1//EN" 
 "http://www.w3.org/Graphics/SVG/1.1/DTD/svg11.dtd"> 
<svg
  xmlns:svg="http://www.w3.org/2000/svg"
  xmlns="http://www.w3.org/2000/svg"
  xmlns:xlink="http://www.w3.org/1999/xlink"
  version="1.1"
  width="71.776739mm" height="32.192739mm" viewBox="103.777000 67.890000 71.776739 32.192739">
<title>SVG Image created as Smart_insoles_2025_v1-B_SilkS.svg date 2025/12/03 21:53:55 </title>
  <desc>Image generated by PCBNEW </desc>
<g style="fill:#000000; fill-opacity:1.0000;stroke:#000000; stroke-opacity:1.0000;
stroke-linecap:round; stroke-linejoin:round;"
 transform="translate(0 0) scale(1 1)">
</g>
<g style="fill:none; 
stroke:#000000; stroke-width:0.1529; stroke-opacity:1; 
stroke-linecap:round; stroke-linejoin:round;">
<g transform="rotate(-270.000000 165.4750 87.8000)">
<text x="165.4750" y="87.8000"
transform="scale(-1 1) translate(-330.950000 0)"
textLength="10.8993" font-size="1.3547" lengthAdjust="spacingAndGlyphs"
text-anchor="start" opacity="0" stroke-opacity="0">SENSOR: LEFT</text>
</g>
<g class="stroked-text"><desc>SENSOR: LEFT</desc>
<path d="M165.6557 87.5059
L165.6073 87.3607
" />
<path d="M165.6073 87.3607
L165.6073 87.1188
" />
<path d="M165.6073 87.1188
L165.6557 87.0221
" />
<path d="M165.6557 87.0221
L165.7041 86.9737
" />
<path d="M165.7041 86.9737
L165.8008 86.9253
" />
<path d="M165.8008 86.9253
L165.8976 86.9253
" />
<path d="M165.8976 86.9253
L165.9943 86.9737
" />
<path d="M165.9943 86.9737
L166.0427 87.0221
" />
<path d="M166.0427 87.0221
L166.0911 87.1188
" />
<path d="M166.0911 87.1188
L166.1395 87.3124
" />
<path d="M166.1395 87.3124
L166.1879 87.4091
" />
<path d="M166.1879 87.4091
L166.2362 87.4575
" />
<path d="M166.2362 87.4575
L166.3330 87.5059
" />
<path d="M166.3330 87.5059
L166.4298 87.5059
" />
<path d="M166.4298 87.5059
L166.5265 87.4575
" />
<path d="M166.5265 87.4575
L166.5749 87.4091
" />
<path d="M166.5749 87.4091
L166.6233 87.3124
" />
<path d="M166.6233 87.3124
L166.6233 87.0704
" />
<path d="M166.6233 87.0704
L166.5749 86.9253
" />
<path d="M166.1395 86.4899
L166.1395 86.1512
" />
<path d="M165.6073 86.0061
L165.6073 86.4899
" />
<path d="M165.6073 86.4899
L166.6233 86.4899
" />
<path d="M166.6233 86.4899
L166.6233 86.0061
" />
<path d="M165.6073 85.5706
L166.6233 85.5706
" />
<path d="M166.6233 85.5706
L165.6073 84.9901
" />
<path d="M165.6073 84.9901
L166.6233 84.9901
" />
<path d="M165.6557 84.5546
L165.6073 84.4095
" />
<path d="M165.6073 84.4095
L165.6073 84.1676
" />
<path d="M165.6073 84.1676
L165.6557 84.0708
" />
<path d="M165.6557 84.0708
L165.7041 84.0224
" />
<path d="M165.7041 84.0224
L165.8008 83.9741
" />
<path d="M165.8008 83.9741
L165.8976 83.9741
" />
<path d="M165.8976 83.9741
L165.9943 84.0224
" />
<path d="M165.9943 84.0224
L166.0427 84.0708
" />
<path d="M166.0427 84.0708
L166.0911 84.1676
" />
<path d="M166.0911 84.1676
L166.1395 84.3611
" />
<path d="M166.1395 84.3611
L166.1879 84.4579
" />
<path d="M166.1879 84.4579
L166.2362 84.5063
" />
<path d="M166.2362 84.5063
L166.3330 84.5546
" />
<path d="M166.3330 84.5546
L166.4298 84.5546
" />
<path d="M166.4298 84.5546
L166.5265 84.5063
" />
<path d="M166.5265 84.5063
L166.5749 84.4579
" />
<path d="M166.5749 84.4579
L166.6233 84.3611
" />
<path d="M166.6233 84.3611
L166.6233 84.1192
" />
<path d="M166.6233 84.1192
L166.5749 83.9741
" />
<path d="M166.6233 83.3451
L166.6233 83.1516
" />
<path d="M166.6233 83.1516
L166.5749 83.0548
" />
<path d="M166.5749 83.0548
L166.4781 82.9581
" />
<path d="M166.4781 82.9581
L166.2846 82.9097
" />
<path d="M166.2846 82.9097
L165.9460 82.9097
" />
<path d="M165.9460 82.9097
L165.7524 82.9581
" />
<path d="M165.7524 82.9581
L165.6557 83.0548
" />
<path d="M165.6557 83.0548
L165.6073 83.1516
" />
<path d="M165.6073 83.1516
L165.6073 83.3451
" />
<path d="M165.6073 83.3451
L165.6557 83.4419
" />
<path d="M165.6557 83.4419
L165.7524 83.5386
" />
<path d="M165.7524 83.5386
L165.9460 83.5870
" />
<path d="M165.9460 83.5870
L166.2846 83.5870
" />
<path d="M166.2846 83.5870
L166.4781 83.5386
" />
<path d="M166.4781 83.5386
L166.5749 83.4419
" />
<path d="M166.5749 83.4419
L166.6233 83.3451
" />
<path d="M165.6073 81.8937
L166.0911 82.2324
" />
<path d="M165.6073 82.4743
L166.6233 82.4743
" />
<path d="M166.6233 82.4743
L166.6233 82.0872
" />
<path d="M166.6233 82.0872
L166.5749 81.9904
" />
<path d="M166.5749 81.9904
L166.5265 81.9421
" />
<path d="M166.5265 81.9421
L166.4298 81.8937
" />
<path d="M166.4298 81.8937
L166.2846 81.8937
" />
<path d="M166.2846 81.8937
L166.1879 81.9421
" />
<path d="M166.1879 81.9421
L166.1395 81.9904
" />
<path d="M166.1395 81.9904
L166.0911 82.0872
" />
<path d="M166.0911 82.0872
L166.0911 82.4743
" />
<path d="M165.7041 81.4583
L165.6557 81.4099
" />
<path d="M165.6557 81.4099
L165.6073 81.4583
" />
<path d="M165.6073 81.4583
L165.6557 81.5066
" />
<path d="M165.6557 81.5066
L165.7041 81.4583
" />
<path d="M165.7041 81.4583
L165.6073 81.4583
" />
<path d="M166.2362 81.4583
L166.1879 81.4099
" />
<path d="M166.1879 81.4099
L166.1395 81.4583
" />
<path d="M166.1395 81.4583
L166.1879 81.5066
" />
<path d="M166.1879 81.5066
L166.2362 81.4583
" />
<path d="M166.2362 81.4583
L166.1395 81.4583
" />
<path d="M165.6073 79.7165
L165.6073 80.2004
" />
<path d="M165.6073 80.2004
L166.6233 80.2004
" />
<path d="M166.1395 79.3779
L166.1395 79.0392
" />
<path d="M165.6073 78.8941
L165.6073 79.3779
" />
<path d="M165.6073 79.3779
L166.6233 79.3779
" />
<path d="M166.6233 79.3779
L166.6233 78.8941
" />
<path d="M166.1395 78.1200
L166.1395 78.4586
" />
<path d="M165.6073 78.4586
L166.6233 78.4586
" />
<path d="M166.6233 78.4586
L166.6233 77.9748
" />
<path d="M166.6233 77.7329
L166.6233 77.1524
" />
<path d="M165.6073 77.4426
L166.6233 77.4426
" />
</g><g transform="rotate(-270.000000 172.5998 83.0300)">
<text x="172.5998" y="83.0300"
transform="scale(-1 1) translate(-345.199664 0)"
textLength="10.1159" font-size="1.3333" lengthAdjust="spacingAndGlyphs"
text-anchor="middle" opacity="0" stroke-opacity="0">FPUNE-GEAR</text>
</g>
<g class="stroked-text"><desc>FPUNE-GEAR</desc>
<path d="M173.2540 87.3871
L173.2540 87.7205
" />
<path d="M172.7302 87.7205
L173.7302 87.7205
" />
<path d="M173.7302 87.7205
L173.7302 87.2443
" />
<path d="M172.7302 86.8633
L173.7302 86.8633
" />
<path d="M173.7302 86.8633
L173.7302 86.4824
" />
<path d="M173.7302 86.4824
L173.6825 86.3871
" />
<path d="M173.6825 86.3871
L173.6349 86.3395
" />
<path d="M173.6349 86.3395
L173.5397 86.2919
" />
<path d="M173.5397 86.2919
L173.3968 86.2919
" />
<path d="M173.3968 86.2919
L173.3016 86.3395
" />
<path d="M173.3016 86.3395
L173.2540 86.3871
" />
<path d="M173.2540 86.3871
L173.2064 86.4824
" />
<path d="M173.2064 86.4824
L173.2064 86.8633
" />
<path d="M173.7302 85.8633
L172.9206 85.8633
" />
<path d="M172.9206 85.8633
L172.8254 85.8157
" />
<path d="M172.8254 85.8157
L172.7778 85.7681
" />
<path d="M172.7778 85.7681
L172.7302 85.6729
" />
<path d="M172.7302 85.6729
L172.7302 85.4824
" />
<path d="M172.7302 85.4824
L172.7778 85.3871
" />
<path d="M172.7778 85.3871
L172.8254 85.3395
" />
<path d="M172.8254 85.3395
L172.9206 85.2919
" />
<path d="M172.9206 85.2919
L173.7302 85.2919
" />
<path d="M172.7302 84.8157
L173.7302 84.8157
" />
<path d="M173.7302 84.8157
L172.7302 84.2443
" />
<path d="M172.7302 84.2443
L173.7302 84.2443
" />
<path d="M173.2540 83.7681
L173.2540 83.4348
" />
<path d="M172.7302 83.2919
L172.7302 83.7681
" />
<path d="M172.7302 83.7681
L173.7302 83.7681
" />
<path d="M173.7302 83.7681
L173.7302 83.2919
" />
<path d="M173.1111 82.8633
L173.1111 82.1014
" />
<path d="M173.6825 81.1014
L173.7302 81.1967
" />
<path d="M173.7302 81.1967
L173.7302 81.3395
" />
<path d="M173.7302 81.3395
L173.6825 81.4824
" />
<path d="M173.6825 81.4824
L173.5873 81.5776
" />
<path d="M173.5873 81.5776
L173.4921 81.6252
" />
<path d="M173.4921 81.6252
L173.3016 81.6729
" />
<path d="M173.3016 81.6729
L173.1587 81.6729
" />
<path d="M173.1587 81.6729
L172.9683 81.6252
" />
<path d="M172.9683 81.6252
L172.8730 81.5776
" />
<path d="M172.8730 81.5776
L172.7778 81.4824
" />
<path d="M172.7778 81.4824
L172.7302 81.3395
" />
<path d="M172.7302 81.3395
L172.7302 81.2443
" />
<path d="M172.7302 81.2443
L172.7778 81.1014
" />
<path d="M172.7778 81.1014
L172.8254 81.0538
" />
<path d="M172.8254 81.0538
L173.1587 81.0538
" />
<path d="M173.1587 81.0538
L173.1587 81.2443
" />
<path d="M173.2540 80.6252
L173.2540 80.2919
" />
<path d="M172.7302 80.1490
L172.7302 80.6252
" />
<path d="M172.7302 80.6252
L173.7302 80.6252
" />
<path d="M173.7302 80.6252
L173.7302 80.1490
" />
<path d="M173.0159 79.7681
L173.0159 79.2919
" />
<path d="M172.7302 79.8633
L173.7302 79.5300
" />
<path d="M173.7302 79.5300
L172.7302 79.1967
" />
<path d="M172.7302 78.2919
L173.2064 78.6252
" />
<path d="M172.7302 78.8633
L173.7302 78.8633
" />
<path d="M173.7302 78.8633
L173.7302 78.4824
" />
<path d="M173.7302 78.4824
L173.6825 78.3871
" />
<path d="M173.6825 78.3871
L173.6349 78.3395
" />
<path d="M173.6349 78.3395
L173.5397 78.2919
" />
<path d="M173.5397 78.2919
L173.3968 78.2919
" />
<path d="M173.3968 78.2919
L173.3016 78.3395
" />
<path d="M173.3016 78.3395
L173.2540 78.3871
" />
<path d="M173.2540 78.3871
L173.2064 78.4824
" />
<path d="M173.2064 78.4824
L173.2064 78.8633
" />
</g><g transform="rotate(-270.000000 170.9899 83.0300)">
<text x="170.9899" y="83.0300"
transform="scale(-1 1) translate(-341.979776 0)"
textLength="15.6873" font-size="1.3333" lengthAdjust="spacingAndGlyphs"
text-anchor="middle" opacity="0" stroke-opacity="0">Insole_V1.0 / REV A</text>
</g>
<g class="stroked-text"><desc>Insole_V1.0 / REV A</desc>
<path d="M171.1202 90.5062
L172.1202 90.5062
" />
<path d="M171.7869 90.0300
L171.1202 90.0300
" />
<path d="M171.6916 90.0300
L171.7393 89.9824
" />
<path d="M171.7393 89.9824
L171.7869 89.8871
" />
<path d="M171.7869 89.8871
L171.7869 89.7443
" />
<path d="M171.7869 89.7443
L171.7393 89.6490
" />
<path d="M171.7393 89.6490
L171.6440 89.6014
" />
<path d="M171.6440 89.6014
L171.1202 89.6014
" />
<path d="M171.1678 89.1729
L171.1202 89.0776
" />
<path d="M171.1202 89.0776
L171.1202 88.8871
" />
<path d="M171.1202 88.8871
L171.1678 88.7919
" />
<path d="M171.1678 88.7919
L171.2631 88.7443
" />
<path d="M171.2631 88.7443
L171.3107 88.7443
" />
<path d="M171.3107 88.7443
L171.4059 88.7919
" />
<path d="M171.4059 88.7919
L171.4536 88.8871
" />
<path d="M171.4536 88.8871
L171.4536 89.0300
" />
<path d="M171.4536 89.0300
L171.5012 89.1252
" />
<path d="M171.5012 89.1252
L171.5964 89.1729
" />
<path d="M171.5964 89.1729
L171.6440 89.1729
" />
<path d="M171.6440 89.1729
L171.7393 89.1252
" />
<path d="M171.7393 89.1252
L171.7869 89.0300
" />
<path d="M171.7869 89.0300
L171.7869 88.8871
" />
<path d="M171.7869 88.8871
L171.7393 88.7919
" />
<path d="M171.1202 88.1729
L171.1678 88.2681
" />
<path d="M171.1678 88.2681
L171.2155 88.3157
" />
<path d="M171.2155 88.3157
L171.3107 88.3633
" />
<path d="M171.3107 88.3633
L171.5964 88.3633
" />
<path d="M171.5964 88.3633
L171.6916 88.3157
" />
<path d="M171.6916 88.3157
L171.7393 88.2681
" />
<path d="M171.7393 88.2681
L171.7869 88.1729
" />
<path d="M171.7869 88.1729
L171.7869 88.0300
" />
<path d="M171.7869 88.0300
L171.7393 87.9348
" />
<path d="M171.7393 87.9348
L171.6916 87.8871
" />
<path d="M171.6916 87.8871
L171.5964 87.8395
" />
<path d="M171.5964 87.8395
L171.3107 87.8395
" />
<path d="M171.3107 87.8395
L171.2155 87.8871
" />
<path d="M171.2155 87.8871
L171.1678 87.9348
" />
<path d="M171.1678 87.9348
L171.1202 88.0300
" />
<path d="M171.1202 88.0300
L171.1202 88.1729
" />
<path d="M171.1202 87.2681
L171.1678 87.3633
" />
<path d="M171.1678 87.3633
L171.2631 87.4110
" />
<path d="M171.2631 87.4110
L172.1202 87.4110
" />
<path d="M171.1678 86.5062
L171.1202 86.6014
" />
<path d="M171.1202 86.6014
L171.1202 86.7919
" />
<path d="M171.1202 86.7919
L171.1678 86.8871
" />
<path d="M171.1678 86.8871
L171.2631 86.9348
" />
<path d="M171.2631 86.9348
L171.6440 86.9348
" />
<path d="M171.6440 86.9348
L171.7393 86.8871
" />
<path d="M171.7393 86.8871
L171.7869 86.7919
" />
<path d="M171.7869 86.7919
L171.7869 86.6014
" />
<path d="M171.7869 86.6014
L171.7393 86.5062
" />
<path d="M171.7393 86.5062
L171.6440 86.4586
" />
<path d="M171.6440 86.4586
L171.5488 86.4586
" />
<path d="M171.5488 86.4586
L171.4536 86.9348
" />
<path d="M171.0250 86.2681
L171.0250 85.5062
" />
<path d="M172.1202 85.4110
L171.1202 85.0776
" />
<path d="M171.1202 85.0776
L172.1202 84.7443
" />
<path d="M171.1202 83.8871
L171.1202 84.4586
" />
<path d="M171.1202 84.1729
L172.1202 84.1729
" />
<path d="M172.1202 84.1729
L171.9774 84.2681
" />
<path d="M171.9774 84.2681
L171.8821 84.3633
" />
<path d="M171.8821 84.3633
L171.8345 84.4586
" />
<path d="M171.2155 83.4586
L171.1678 83.4110
" />
<path d="M171.1678 83.4110
L171.1202 83.4586
" />
<path d="M171.1202 83.4586
L171.1678 83.5062
" />
<path d="M171.1678 83.5062
L171.2155 83.4586
" />
<path d="M171.2155 83.4586
L171.1202 83.4586
" />
<path d="M172.1202 82.7919
L172.1202 82.6967
" />
<path d="M172.1202 82.6967
L172.0726 82.6014
" />
<path d="M172.0726 82.6014
L172.0250 82.5538
" />
<path d="M172.0250 82.5538
L171.9297 82.5062
" />
<path d="M171.9297 82.5062
L171.7393 82.4586
" />
<path d="M171.7393 82.4586
L171.5012 82.4586
" />
<path d="M171.5012 82.4586
L171.3107 82.5062
" />
<path d="M171.3107 82.5062
L171.2155 82.5538
" />
<path d="M171.2155 82.5538
L171.1678 82.6014
" />
<path d="M171.1678 82.6014
L171.1202 82.6967
" />
<path d="M171.1202 82.6967
L171.1202 82.7919
" />
<path d="M171.1202 82.7919
L171.1678 82.8871
" />
<path d="M171.1678 82.8871
L171.2155 82.9348
" />
<path d="M171.2155 82.9348
L171.3107 82.9824
" />
<path d="M171.3107 82.9824
L171.5012 83.0300
" />
<path d="M171.5012 83.0300
L171.7393 83.0300
" />
<path d="M171.7393 83.0300
L171.9297 82.9824
" />
<path d="M171.9297 82.9824
L172.0250 82.9348
" />
<path d="M172.0250 82.9348
L172.0726 82.8871
" />
<path d="M172.0726 82.8871
L172.1202 82.7919
" />
<path d="M172.1678 80.5538
L170.8821 81.4110
" />
<path d="M171.1202 78.8871
L171.5964 79.2205
" />
<path d="M171.1202 79.4586
L172.1202 79.4586
" />
<path d="M172.1202 79.4586
L172.1202 79.0776
" />
<path d="M172.1202 79.0776
L172.0726 78.9824
" />
<path d="M172.0726 78.9824
L172.0250 78.9348
" />
<path d="M172.0250 78.9348
L171.9297 78.8871
" />
<path d="M171.9297 78.8871
L171.7869 78.8871
" />
<path d="M171.7869 78.8871
L171.6916 78.9348
" />
<path d="M171.6916 78.9348
L171.6440 78.9824
" />
<path d="M171.6440 78.9824
L171.5964 79.0776
" />
<path d="M171.5964 79.0776
L171.5964 79.4586
" />
<path d="M171.6440 78.4586
L171.6440 78.1252
" />
<path d="M171.1202 77.9824
L171.1202 78.4586
" />
<path d="M171.1202 78.4586
L172.1202 78.4586
" />
<path d="M172.1202 78.4586
L172.1202 77.9824
" />
<path d="M172.1202 77.6967
L171.1202 77.3633
" />
<path d="M171.1202 77.3633
L172.1202 77.0300
" />
<path d="M171.4059 75.9824
L171.4059 75.5062
" />
<path d="M171.1202 76.0776
L172.1202 75.7443
" />
<path d="M172.1202 75.7443
L171.1202 75.4110
" />
</g><g transform="rotate(-270.000000 169.3799 83.0300)">
<text x="169.3799" y="83.0300"
transform="scale(-1 1) translate(-338.759888 0)"
textLength="7.0206" font-size="1.3333" lengthAdjust="spacingAndGlyphs"
text-anchor="middle" opacity="0" stroke-opacity="0">12/2025</text>
</g>
<g class="stroked-text"><desc>12/2025</desc>
<path d="M169.5103 85.6490
L169.5103 86.2205
" />
<path d="M169.5103 85.9348
L170.5103 85.9348
" />
<path d="M170.5103 85.9348
L170.3674 86.0300
" />
<path d="M170.3674 86.0300
L170.2722 86.1252
" />
<path d="M170.2722 86.1252
L170.2246 86.2205
" />
<path d="M170.4150 85.2681
L170.4627 85.2205
" />
<path d="M170.4627 85.2205
L170.5103 85.1252
" />
<path d="M170.5103 85.1252
L170.5103 84.8871
" />
<path d="M170.5103 84.8871
L170.4627 84.7919
" />
<path d="M170.4627 84.7919
L170.4150 84.7443
" />
<path d="M170.4150 84.7443
L170.3198 84.6967
" />
<path d="M170.3198 84.6967
L170.2246 84.6967
" />
<path d="M170.2246 84.6967
L170.0817 84.7443
" />
<path d="M170.0817 84.7443
L169.5103 85.3157
" />
<path d="M169.5103 85.3157
L169.5103 84.6967
" />
<path d="M170.5579 83.5538
L169.2722 84.4110
" />
<path d="M170.4150 83.2681
L170.4627 83.2205
" />
<path d="M170.4627 83.2205
L170.5103 83.1252
" />
<path d="M170.5103 83.1252
L170.5103 82.8871
" />
<path d="M170.5103 82.8871
L170.4627 82.7919
" />
<path d="M170.4627 82.7919
L170.4150 82.7443
" />
<path d="M170.4150 82.7443
L170.3198 82.6967
" />
<path d="M170.3198 82.6967
L170.2246 82.6967
" />
<path d="M170.2246 82.6967
L170.0817 82.7443
" />
<path d="M170.0817 82.7443
L169.5103 83.3157
" />
<path d="M169.5103 83.3157
L169.5103 82.6967
" />
<path d="M170.5103 82.0776
L170.5103 81.9824
" />
<path d="M170.5103 81.9824
L170.4627 81.8871
" />
<path d="M170.4627 81.8871
L170.4150 81.8395
" />
<path d="M170.4150 81.8395
L170.3198 81.7919
" />
<path d="M170.3198 81.7919
L170.1293 81.7443
" />
<path d="M170.1293 81.7443
L169.8912 81.7443
" />
<path d="M169.8912 81.7443
L169.7008 81.7919
" />
<path d="M169.7008 81.7919
L169.6055 81.8395
" />
<path d="M169.6055 81.8395
L169.5579 81.8871
" />
<path d="M169.5579 81.8871
L169.5103 81.9824
" />
<path d="M169.5103 81.9824
L169.5103 82.0776
" />
<path d="M169.5103 82.0776
L169.5579 82.1729
" />
<path d="M169.5579 82.1729
L169.6055 82.2205
" />
<path d="M169.6055 82.2205
L169.7008 82.2681
" />
<path d="M169.7008 82.2681
L169.8912 82.3157
" />
<path d="M169.8912 82.3157
L170.1293 82.3157
" />
<path d="M170.1293 82.3157
L170.3198 82.2681
" />
<path d="M170.3198 82.2681
L170.4150 82.2205
" />
<path d="M170.4150 82.2205
L170.4627 82.1729
" />
<path d="M170.4627 82.1729
L170.5103 82.0776
" />
<path d="M170.4150 81.3633
L170.4627 81.3157
" />
<path d="M170.4627 81.3157
L170.5103 81.2205
" />
<path d="M170.5103 81.2205
L170.5103 80.9824
" />
<path d="M170.5103 80.9824
L170.4627 80.8871
" />
<path d="M170.4627 80.8871
L170.4150 80.8395
" />
<path d="M170.4150 80.8395
L170.3198 80.7919
" />
<path d="M170.3198 80.7919
L170.2246 80.7919
" />
<path d="M170.2246 80.7919
L170.0817 80.8395
" />
<path d="M170.0817 80.8395
L169.5103 81.4110
" />
<path d="M169.5103 81.4110
L169.5103 80.7919
" />
<path d="M170.5103 79.8871
L170.5103 80.3633
" />
<path d="M170.5103 80.3633
L170.0341 80.4110
" />
<path d="M170.0341 80.4110
L170.0817 80.3633
" />
<path d="M170.0817 80.3633
L170.1293 80.2681
" />
<path d="M170.1293 80.2681
L170.1293 80.0300
" />
<path d="M170.1293 80.0300
L170.0817 79.9348
" />
<path d="M170.0817 79.9348
L170.0341 79.8871
" />
<path d="M170.0341 79.8871
L169.9388 79.8395
" />
<path d="M169.9388 79.8395
L169.7008 79.8395
" />
<path d="M169.7008 79.8395
L169.6055 79.8871
" />
<path d="M169.6055 79.8871
L169.5579 79.9348
" />
<path d="M169.5579 79.9348
L169.5103 80.0300
" />
<path d="M169.5103 80.0300
L169.5103 80.2681
" />
<path d="M169.5103 80.2681
L169.5579 80.3633
" />
<path d="M169.5579 80.3633
L169.6055 80.4110
" />
</g><g transform="rotate(-270.000000 167.7700 83.0300)">
<text x="167.7700" y="83.0300"
transform="scale(-1 1) translate(-335.540000 0)"
textLength="9.4968" font-size="1.3333" lengthAdjust="spacingAndGlyphs"
text-anchor="middle" opacity="0" stroke-opacity="0">Ing. René A.</text>
</g>
<g class="stroked-text"><desc>Ing. René A.</desc>
<path d="M167.9003 87.4110
L168.9003 87.4110
" />
<path d="M168.5670 86.9348
L167.9003 86.9348
" />
<path d="M168.4718 86.9348
L168.5194 86.8871
" />
<path d="M168.5194 86.8871
L168.5670 86.7919
" />
<path d="M168.5670 86.7919
L168.5670 86.6490
" />
<path d="M168.5670 86.6490
L168.5194 86.5538
" />
<path d="M168.5194 86.5538
L168.4241 86.5062
" />
<path d="M168.4241 86.5062
L167.9003 86.5062
" />
<path d="M168.5670 85.6014
L167.7575 85.6014
" />
<path d="M167.7575 85.6014
L167.6622 85.6490
" />
<path d="M167.6622 85.6490
L167.6146 85.6967
" />
<path d="M167.6146 85.6967
L167.5670 85.7919
" />
<path d="M167.5670 85.7919
L167.5670 85.9348
" />
<path d="M167.5670 85.9348
L167.6146 86.0300
" />
<path d="M167.9480 85.6014
L167.9003 85.6967
" />
<path d="M167.9003 85.6967
L167.9003 85.8871
" />
<path d="M167.9003 85.8871
L167.9480 85.9824
" />
<path d="M167.9480 85.9824
L167.9956 86.0300
" />
<path d="M167.9956 86.0300
L168.0908 86.0776
" />
<path d="M168.0908 86.0776
L168.3765 86.0776
" />
<path d="M168.3765 86.0776
L168.4718 86.0300
" />
<path d="M168.4718 86.0300
L168.5194 85.9824
" />
<path d="M168.5194 85.9824
L168.5670 85.8871
" />
<path d="M168.5670 85.8871
L168.5670 85.6967
" />
<path d="M168.5670 85.6967
L168.5194 85.6014
" />
<path d="M167.9956 85.1252
L167.9480 85.0776
" />
<path d="M167.9480 85.0776
L167.9003 85.1252
" />
<path d="M167.9003 85.1252
L167.9480 85.1729
" />
<path d="M167.9480 85.1729
L167.9956 85.1252
" />
<path d="M167.9956 85.1252
L167.9003 85.1252
" />
<path d="M167.9003 83.3157
L168.3765 83.6490
" />
<path d="M167.9003 83.8871
L168.9003 83.8871
" />
<path d="M168.9003 83.8871
L168.9003 83.5062
" />
<path d="M168.9003 83.5062
L168.8527 83.4110
" />
<path d="M168.8527 83.4110
L168.8051 83.3633
" />
<path d="M168.8051 83.3633
L168.7099 83.3157
" />
<path d="M168.7099 83.3157
L168.5670 83.3157
" />
<path d="M168.5670 83.3157
L168.4718 83.3633
" />
<path d="M168.4718 83.3633
L168.4241 83.4110
" />
<path d="M168.4241 83.4110
L168.3765 83.5062
" />
<path d="M168.3765 83.5062
L168.3765 83.8871
" />
<path d="M167.9480 82.5062
L167.9003 82.6014
" />
<path d="M167.9003 82.6014
L167.9003 82.7919
" />
<path d="M167.9003 82.7919
L167.9480 82.8871
" />
<path d="M167.9480 82.8871
L168.0432 82.9348
" />
<path d="M168.0432 82.9348
L168.4241 82.9348
" />
<path d="M168.4241 82.9348
L168.5194 82.8871
" />
<path d="M168.5194 82.8871
L168.5670 82.7919
" />
<path d="M168.5670 82.7919
L168.5670 82.6014
" />
<path d="M168.5670 82.6014
L168.5194 82.5062
" />
<path d="M168.5194 82.5062
L168.4241 82.4586
" />
<path d="M168.4241 82.4586
L168.3289 82.4586
" />
<path d="M168.3289 82.4586
L168.2337 82.9348
" />
<path d="M168.5670 82.0300
L167.9003 82.0300
" />
<path d="M168.4718 82.0300
L168.5194 81.9824
" />
<path d="M168.5194 81.9824
L168.5670 81.8871
" />
<path d="M168.5670 81.8871
L168.5670 81.7443
" />
<path d="M168.5670 81.7443
L168.5194 81.6490
" />
<path d="M168.5194 81.6490
L168.4241 81.6014
" />
<path d="M168.4241 81.6014
L167.9003 81.6014
" />
<path d="M167.9480 80.7443
L167.9003 80.8395
" />
<path d="M167.9003 80.8395
L167.9003 81.0300
" />
<path d="M167.9003 81.0300
L167.9480 81.1252
" />
<path d="M167.9480 81.1252
L168.0432 81.1729
" />
<path d="M168.0432 81.1729
L168.4241 81.1729
" />
<path d="M168.4241 81.1729
L168.5194 81.1252
" />
<path d="M168.5194 81.1252
L168.5670 81.0300
" />
<path d="M168.5670 81.0300
L168.5670 80.8395
" />
<path d="M168.5670 80.8395
L168.5194 80.7443
" />
<path d="M168.5194 80.7443
L168.4241 80.6967
" />
<path d="M168.4241 80.6967
L168.3289 80.6967
" />
<path d="M168.3289 80.6967
L168.2337 81.1729
" />
<path d="M168.9480 80.8395
L168.8051 80.9824
" />
<path d="M168.1860 79.5538
L168.1860 79.0776
" />
<path d="M167.9003 79.6490
L168.9003 79.3157
" />
<path d="M168.9003 79.3157
L167.9003 78.9824
" />
<path d="M167.9956 78.6490
L167.9480 78.6014
" />
<path d="M167.9480 78.6014
L167.9003 78.6490
" />
<path d="M167.9003 78.6490
L167.9480 78.6967
" />
<path d="M167.9480 78.6967
L167.9956 78.6490
" />
<path d="M167.9956 78.6490
L167.9003 78.6490
" />
</g></g>
<g style="fill:none; 
stroke:#000000; stroke-width:0.1500; stroke-opacity:1; 
stroke-linecap:round; stroke-linejoin:round;">
<text x="129.2500" y="85.9080"
transform="scale(-1 1) translate(-258.500000 0)"
textLength="2.2788" font-size="1.3547" lengthAdjust="spacingAndGlyphs"
text-anchor="middle" opacity="0" stroke-opacity="0">U7</text>
<g class="stroked-text"><desc>U7</desc>
<path d="M130.0241 84.8462
L130.0241 85.6687
" />
<path d="M130.0241 85.6687
L129.9757 85.7655
" />
<path d="M129.9757 85.7655
L129.9273 85.8138
" />
<path d="M129.9273 85.8138
L129.8306 85.8622
" />
<path d="M129.8306 85.8622
L129.6370 85.8622
" />
<path d="M129.6370 85.8622
L129.5403 85.8138
" />
<path d="M129.5403 85.8138
L129.4919 85.7655
" />
<path d="M129.4919 85.7655
L129.4435 85.6687
" />
<path d="M129.4435 85.6687
L129.4435 84.8462
" />
<path d="M129.0565 84.8462
L128.3791 84.8462
" />
<path d="M128.3791 84.8462
L128.8146 85.8622
" />
</g><g transform="rotate(-90.000000 139.9330 87.0396)">
<text x="139.9330" y="87.5396"
transform="scale(-1 1) translate(-279.866000 0)"
textLength="3.1548" font-size="1.3333" lengthAdjust="spacingAndGlyphs"
text-anchor="middle" opacity="0" stroke-opacity="0">R20</text>
</g>
<g class="stroked-text"><desc>R20</desc>
<path d="M140.3878 86.3967
L139.9116 86.0634
" />
<path d="M140.3878 85.8253
L139.3878 85.8253
" />
<path d="M139.3878 85.8253
L139.3878 86.2063
" />
<path d="M139.3878 86.2063
L139.4354 86.3015
" />
<path d="M139.4354 86.3015
L139.4831 86.3491
" />
<path d="M139.4831 86.3491
L139.5783 86.3967
" />
<path d="M139.5783 86.3967
L139.7212 86.3967
" />
<path d="M139.7212 86.3967
L139.8164 86.3491
" />
<path d="M139.8164 86.3491
L139.8640 86.3015
" />
<path d="M139.8640 86.3015
L139.9116 86.2063
" />
<path d="M139.9116 86.2063
L139.9116 85.8253
" />
<path d="M139.4831 86.7777
L139.4354 86.8253
" />
<path d="M139.4354 86.8253
L139.3878 86.9206
" />
<path d="M139.3878 86.9206
L139.3878 87.1586
" />
<path d="M139.3878 87.1586
L139.4354 87.2539
" />
<path d="M139.4354 87.2539
L139.4831 87.3015
" />
<path d="M139.4831 87.3015
L139.5783 87.3491
" />
<path d="M139.5783 87.3491
L139.6735 87.3491
" />
<path d="M139.6735 87.3491
L139.8164 87.3015
" />
<path d="M139.8164 87.3015
L140.3878 86.7301
" />
<path d="M140.3878 86.7301
L140.3878 87.3491
" />
<path d="M139.3878 87.9682
L139.3878 88.0634
" />
<path d="M139.3878 88.0634
L139.4354 88.1586
" />
<path d="M139.4354 88.1586
L139.4831 88.2063
" />
<path d="M139.4831 88.2063
L139.5783 88.2539
" />
<path d="M139.5783 88.2539
L139.7688 88.3015
" />
<path d="M139.7688 88.3015
L140.0069 88.3015
" />
<path d="M140.0069 88.3015
L140.1973 88.2539
" />
<path d="M140.1973 88.2539
L140.2926 88.2063
" />
<path d="M140.2926 88.2063
L140.3402 88.1586
" />
<path d="M140.3402 88.1586
L140.3878 88.0634
" />
<path d="M140.3878 88.0634
L140.3878 87.9682
" />
<path d="M140.3878 87.9682
L140.3402 87.8729
" />
<path d="M140.3402 87.8729
L140.2926 87.8253
" />
<path d="M140.2926 87.8253
L140.1973 87.7777
" />
<path d="M140.1973 87.7777
L140.0069 87.7301
" />
<path d="M140.0069 87.7301
L139.7688 87.7301
" />
<path d="M139.7688 87.7301
L139.5783 87.7777
" />
<path d="M139.5783 87.7777
L139.4831 87.8253
" />
<path d="M139.4831 87.8253
L139.4354 87.8729
" />
<path d="M139.4354 87.8729
L139.3878 87.9682
" />
</g><g transform="rotate(-90.000000 138.1330 79.9396)">
<text x="138.1330" y="80.4396"
transform="scale(-1 1) translate(-276.266000 0)"
textLength="2.2024" font-size="1.3333" lengthAdjust="spacingAndGlyphs"
text-anchor="middle" opacity="0" stroke-opacity="0">D3</text>
</g>
<g class="stroked-text"><desc>D3</desc>
<path d="M138.5878 79.2015
L137.5878 79.2015
" />
<path d="M137.5878 79.2015
L137.5878 79.4396
" />
<path d="M137.5878 79.4396
L137.6354 79.5825
" />
<path d="M137.6354 79.5825
L137.7307 79.6777
" />
<path d="M137.7307 79.6777
L137.8259 79.7253
" />
<path d="M137.8259 79.7253
L138.0164 79.7729
" />
<path d="M138.0164 79.7729
L138.1592 79.7729
" />
<path d="M138.1592 79.7729
L138.3497 79.7253
" />
<path d="M138.3497 79.7253
L138.4450 79.6777
" />
<path d="M138.4450 79.6777
L138.5402 79.5825
" />
<path d="M138.5402 79.5825
L138.5878 79.4396
" />
<path d="M138.5878 79.4396
L138.5878 79.2015
" />
<path d="M137.5878 80.1063
L137.5878 80.7253
" />
<path d="M137.5878 80.7253
L137.9688 80.3920
" />
<path d="M137.9688 80.3920
L137.9688 80.5348
" />
<path d="M137.9688 80.5348
L138.0164 80.6301
" />
<path d="M138.0164 80.6301
L138.0640 80.6777
" />
<path d="M138.0640 80.6777
L138.1592 80.7253
" />
<path d="M138.1592 80.7253
L138.3973 80.7253
" />
<path d="M138.3973 80.7253
L138.4926 80.6777
" />
<path d="M138.4926 80.6777
L138.5402 80.6301
" />
<path d="M138.5402 80.6301
L138.5878 80.5348
" />
<path d="M138.5878 80.5348
L138.5878 80.2491
" />
<path d="M138.5878 80.2491
L138.5402 80.1539
" />
<path d="M138.5402 80.1539
L138.4926 80.1063
" />
</g></g>
<g style="fill:none; 
stroke:#000000; stroke-width:0.1529; stroke-opacity:1; 
stroke-linecap:round; stroke-linejoin:round;">
<g transform="rotate(-90.000000 135.9000 72.3000)">
<text x="135.9000" y="72.8000"
transform="scale(-1 1) translate(-271.800000 0)"
textLength="3.1635" font-size="1.3333" lengthAdjust="spacingAndGlyphs"
text-anchor="middle" opacity="0" stroke-opacity="0">C14</text>
</g>
<g class="stroked-text"><desc>C14</desc>
<path d="M136.2594 71.6571
L136.3070 71.6095
" />
<path d="M136.3070 71.6095
L136.3547 71.4667
" />
<path d="M136.3547 71.4667
L136.3547 71.3714
" />
<path d="M136.3547 71.3714
L136.3070 71.2286
" />
<path d="M136.3070 71.2286
L136.2118 71.1333
" />
<path d="M136.2118 71.1333
L136.1166 71.0857
" />
<path d="M136.1166 71.0857
L135.9261 71.0381
" />
<path d="M135.9261 71.0381
L135.7832 71.0381
" />
<path d="M135.7832 71.0381
L135.5928 71.0857
" />
<path d="M135.5928 71.0857
L135.4975 71.1333
" />
<path d="M135.4975 71.1333
L135.4023 71.2286
" />
<path d="M135.4023 71.2286
L135.3547 71.3714
" />
<path d="M135.3547 71.3714
L135.3547 71.4667
" />
<path d="M135.3547 71.4667
L135.4023 71.6095
" />
<path d="M135.4023 71.6095
L135.4499 71.6571
" />
<path d="M136.3547 72.6095
L136.3547 72.0381
" />
<path d="M136.3547 72.3238
L135.3547 72.3238
" />
<path d="M135.3547 72.3238
L135.4975 72.2286
" />
<path d="M135.4975 72.2286
L135.5928 72.1333
" />
<path d="M135.5928 72.1333
L135.6404 72.0381
" />
<path d="M135.6880 73.4667
L136.3547 73.4667
" />
<path d="M135.3070 73.2286
L136.0213 72.9905
" />
<path d="M136.0213 72.9905
L136.0213 73.6095
" />
</g><g transform="rotate(-90.000000 134.0000 72.3000)">
<text x="134.0000" y="72.8000"
transform="scale(-1 1) translate(-268.000000 0)"
textLength="3.1635" font-size="1.3333" lengthAdjust="spacingAndGlyphs"
text-anchor="middle" opacity="0" stroke-opacity="0">C15</text>
</g>
<g class="stroked-text"><desc>C15</desc>
<path d="M134.3594 71.6571
L134.4070 71.6095
" />
<path d="M134.4070 71.6095
L134.4547 71.4667
" />
<path d="M134.4547 71.4667
L134.4547 71.3714
" />
<path d="M134.4547 71.3714
L134.4070 71.2286
" />
<path d="M134.4070 71.2286
L134.3118 71.1333
" />
<path d="M134.3118 71.1333
L134.2166 71.0857
" />
<path d="M134.2166 71.0857
L134.0261 71.0381
" />
<path d="M134.0261 71.0381
L133.8832 71.0381
" />
<path d="M133.8832 71.0381
L133.6928 71.0857
" />
<path d="M133.6928 71.0857
L133.5975 71.1333
" />
<path d="M133.5975 71.1333
L133.5023 71.2286
" />
<path d="M133.5023 71.2286
L133.4547 71.3714
" />
<path d="M133.4547 71.3714
L133.4547 71.4667
" />
<path d="M133.4547 71.4667
L133.5023 71.6095
" />
<path d="M133.5023 71.6095
L133.5499 71.6571
" />
<path d="M134.4547 72.6095
L134.4547 72.0381
" />
<path d="M134.4547 72.3238
L133.4547 72.3238
" />
<path d="M133.4547 72.3238
L133.5975 72.2286
" />
<path d="M133.5975 72.2286
L133.6928 72.1333
" />
<path d="M133.6928 72.1333
L133.7404 72.0381
" />
<path d="M133.4547 73.5143
L133.4547 73.0381
" />
<path d="M133.4547 73.0381
L133.9309 72.9905
" />
<path d="M133.9309 72.9905
L133.8832 73.0381
" />
<path d="M133.8832 73.0381
L133.8356 73.1333
" />
<path d="M133.8356 73.1333
L133.8356 73.3714
" />
<path d="M133.8356 73.3714
L133.8832 73.4667
" />
<path d="M133.8832 73.4667
L133.9309 73.5143
" />
<path d="M133.9309 73.5143
L134.0261 73.5619
" />
<path d="M134.0261 73.5619
L134.2642 73.5619
" />
<path d="M134.2642 73.5619
L134.3594 73.5143
" />
<path d="M134.3594 73.5143
L134.4070 73.4667
" />
<path d="M134.4070 73.4667
L134.4547 73.3714
" />
<path d="M134.4547 73.3714
L134.4547 73.1333
" />
<path d="M134.4547 73.1333
L134.4070 73.0381
" />
<path d="M134.4070 73.0381
L134.3594 72.9905
" />
</g></g>
<g style="fill:none; 
stroke:#000000; stroke-width:0.1500; stroke-opacity:1; 
stroke-linecap:round; stroke-linejoin:round;">
<text x="132.8750" y="90.4750"
transform="scale(-1 1) translate(-265.750000 0)"
textLength="3.1548" font-size="1.3333" lengthAdjust="spacingAndGlyphs"
text-anchor="middle" opacity="0" stroke-opacity="0">C16</text>
<g class="stroked-text"><desc>C16</desc>
<path d="M133.5179 90.3346
L133.5655 90.3822
" />
<path d="M133.5655 90.3822
L133.7083 90.4298
" />
<path d="M133.7083 90.4298
L133.8036 90.4298
" />
<path d="M133.8036 90.4298
L133.9464 90.3822
" />
<path d="M133.9464 90.3822
L134.0417 90.2870
" />
<path d="M134.0417 90.2870
L134.0893 90.1917
" />
<path d="M134.0893 90.1917
L134.1369 90.0012
" />
<path d="M134.1369 90.0012
L134.1369 89.8584
" />
<path d="M134.1369 89.8584
L134.0893 89.6679
" />
<path d="M134.0893 89.6679
L134.0417 89.5727
" />
<path d="M134.0417 89.5727
L133.9464 89.4774
" />
<path d="M133.9464 89.4774
L133.8036 89.4298
" />
<path d="M133.8036 89.4298
L133.7083 89.4298
" />
<path d="M133.7083 89.4298
L133.5655 89.4774
" />
<path d="M133.5655 89.4774
L133.5179 89.5251
" />
<path d="M132.5655 90.4298
L133.1369 90.4298
" />
<path d="M132.8512 90.4298
L132.8512 89.4298
" />
<path d="M132.8512 89.4298
L132.9464 89.5727
" />
<path d="M132.9464 89.5727
L133.0417 89.6679
" />
<path d="M133.0417 89.6679
L133.1369 89.7155
" />
<path d="M131.7083 89.4298
L131.8988 89.4298
" />
<path d="M131.8988 89.4298
L131.9940 89.4774
" />
<path d="M131.9940 89.4774
L132.0417 89.5251
" />
<path d="M132.0417 89.5251
L132.1369 89.6679
" />
<path d="M132.1369 89.6679
L132.1845 89.8584
" />
<path d="M132.1845 89.8584
L132.1845 90.2393
" />
<path d="M132.1845 90.2393
L132.1369 90.3346
" />
<path d="M132.1369 90.3346
L132.0893 90.3822
" />
<path d="M132.0893 90.3822
L131.9940 90.4298
" />
<path d="M131.9940 90.4298
L131.8036 90.4298
" />
<path d="M131.8036 90.4298
L131.7083 90.3822
" />
<path d="M131.7083 90.3822
L131.6607 90.3346
" />
<path d="M131.6607 90.3346
L131.6131 90.2393
" />
<path d="M131.6131 90.2393
L131.6131 90.0012
" />
<path d="M131.6131 90.0012
L131.6607 89.9060
" />
<path d="M131.6607 89.9060
L131.7083 89.8584
" />
<path d="M131.7083 89.8584
L131.8036 89.8108
" />
<path d="M131.8036 89.8108
L131.9940 89.8108
" />
<path d="M131.9940 89.8108
L132.0893 89.8584
" />
<path d="M132.0893 89.8584
L132.1369 89.9060
" />
<path d="M132.1369 89.9060
L132.1845 90.0012
" />
</g><g transform="rotate(-90.000000 131.8330 86.9396)">
<text x="131.8330" y="87.4396"
transform="scale(-1 1) translate(-263.666000 0)"
textLength="3.1548" font-size="1.3333" lengthAdjust="spacingAndGlyphs"
text-anchor="middle" opacity="0" stroke-opacity="0">C19</text>
</g>
<g class="stroked-text"><desc>C19</desc>
<path d="M132.1926 86.2967
L132.2402 86.2491
" />
<path d="M132.2402 86.2491
L132.2878 86.1063
" />
<path d="M132.2878 86.1063
L132.2878 86.0110
" />
<path d="M132.2878 86.0110
L132.2402 85.8682
" />
<path d="M132.2402 85.8682
L132.1450 85.7729
" />
<path d="M132.1450 85.7729
L132.0497 85.7253
" />
<path d="M132.0497 85.7253
L131.8592 85.6777
" />
<path d="M131.8592 85.6777
L131.7164 85.6777
" />
<path d="M131.7164 85.6777
L131.5259 85.7253
" />
<path d="M131.5259 85.7253
L131.4307 85.7729
" />
<path d="M131.4307 85.7729
L131.3354 85.8682
" />
<path d="M131.3354 85.8682
L131.2878 86.0110
" />
<path d="M131.2878 86.0110
L131.2878 86.1063
" />
<path d="M131.2878 86.1063
L131.3354 86.2491
" />
<path d="M131.3354 86.2491
L131.3831 86.2967
" />
<path d="M132.2878 87.2491
L132.2878 86.6777
" />
<path d="M132.2878 86.9634
L131.2878 86.9634
" />
<path d="M131.2878 86.9634
L131.4307 86.8682
" />
<path d="M131.4307 86.8682
L131.5259 86.7729
" />
<path d="M131.5259 86.7729
L131.5735 86.6777
" />
<path d="M132.2878 87.7253
L132.2878 87.9158
" />
<path d="M132.2878 87.9158
L132.2402 88.0110
" />
<path d="M132.2402 88.0110
L132.1926 88.0586
" />
<path d="M132.1926 88.0586
L132.0497 88.1539
" />
<path d="M132.0497 88.1539
L131.8592 88.2015
" />
<path d="M131.8592 88.2015
L131.4783 88.2015
" />
<path d="M131.4783 88.2015
L131.3831 88.1539
" />
<path d="M131.3831 88.1539
L131.3354 88.1063
" />
<path d="M131.3354 88.1063
L131.2878 88.0110
" />
<path d="M131.2878 88.0110
L131.2878 87.8206
" />
<path d="M131.2878 87.8206
L131.3354 87.7253
" />
<path d="M131.3354 87.7253
L131.3831 87.6777
" />
<path d="M131.3831 87.6777
L131.4783 87.6301
" />
<path d="M131.4783 87.6301
L131.7164 87.6301
" />
<path d="M131.7164 87.6301
L131.8116 87.6777
" />
<path d="M131.8116 87.6777
L131.8592 87.7253
" />
<path d="M131.8592 87.7253
L131.9069 87.8206
" />
<path d="M131.9069 87.8206
L131.9069 88.0110
" />
<path d="M131.9069 88.0110
L131.8592 88.1063
" />
<path d="M131.8592 88.1063
L131.8116 88.1539
" />
<path d="M131.8116 88.1539
L131.7164 88.2015
" />
</g><g transform="rotate(-90.000000 141.0750 78.8750)">
<text x="141.0750" y="79.3750"
transform="scale(-1 1) translate(-282.150000 0)"
textLength="3.1548" font-size="1.3333" lengthAdjust="spacingAndGlyphs"
text-anchor="middle" opacity="0" stroke-opacity="0">C22</text>
</g>
<g class="stroked-text"><desc>C22</desc>
<path d="M141.4346 78.2321
L141.4822 78.1845
" />
<path d="M141.4822 78.1845
L141.5298 78.0417
" />
<path d="M141.5298 78.0417
L141.5298 77.9464
" />
<path d="M141.5298 77.9464
L141.4822 77.8036
" />
<path d="M141.4822 77.8036
L141.3870 77.7083
" />
<path d="M141.3870 77.7083
L141.2917 77.6607
" />
<path d="M141.2917 77.6607
L141.1012 77.6131
" />
<path d="M141.1012 77.6131
L140.9584 77.6131
" />
<path d="M140.9584 77.6131
L140.7679 77.6607
" />
<path d="M140.7679 77.6607
L140.6727 77.7083
" />
<path d="M140.6727 77.7083
L140.5774 77.8036
" />
<path d="M140.5774 77.8036
L140.5298 77.9464
" />
<path d="M140.5298 77.9464
L140.5298 78.0417
" />
<path d="M140.5298 78.0417
L140.5774 78.1845
" />
<path d="M140.5774 78.1845
L140.6251 78.2321
" />
<path d="M140.6251 78.6131
L140.5774 78.6607
" />
<path d="M140.5774 78.6607
L140.5298 78.7560
" />
<path d="M140.5298 78.7560
L140.5298 78.9940
" />
<path d="M140.5298 78.9940
L140.5774 79.0893
" />
<path d="M140.5774 79.0893
L140.6251 79.1369
" />
<path d="M140.6251 79.1369
L140.7203 79.1845
" />
<path d="M140.7203 79.1845
L140.8155 79.1845
" />
<path d="M140.8155 79.1845
L140.9584 79.1369
" />
<path d="M140.9584 79.1369
L141.5298 78.5655
" />
<path d="M141.5298 78.5655
L141.5298 79.1845
" />
<path d="M140.6251 79.5655
L140.5774 79.6131
" />
<path d="M140.5774 79.6131
L140.5298 79.7083
" />
<path d="M140.5298 79.7083
L140.5298 79.9464
" />
<path d="M140.5298 79.9464
L140.5774 80.0417
" />
<path d="M140.5774 80.0417
L140.6251 80.0893
" />
<path d="M140.6251 80.0893
L140.7203 80.1369
" />
<path d="M140.7203 80.1369
L140.8155 80.1369
" />
<path d="M140.8155 80.1369
L140.9584 80.0893
" />
<path d="M140.9584 80.0893
L141.5298 79.5179
" />
<path d="M141.5298 79.5179
L141.5298 80.1369
" />
</g><text x="148.5000" y="86.6000"
transform="scale(-1 1) translate(-297.000000 0)"
textLength="3.1548" font-size="1.3333" lengthAdjust="spacingAndGlyphs"
text-anchor="middle" opacity="0" stroke-opacity="0">C23</text>
<g class="stroked-text"><desc>C23</desc>
<path d="M149.1429 86.4596
L149.1905 86.5072
" />
<path d="M149.1905 86.5072
L149.3333 86.5548
" />
<path d="M149.3333 86.5548
L149.4286 86.5548
" />
<path d="M149.4286 86.5548
L149.5714 86.5072
" />
<path d="M149.5714 86.5072
L149.6667 86.4120
" />
<path d="M149.6667 86.4120
L149.7143 86.3167
" />
<path d="M149.7143 86.3167
L149.7619 86.1262
" />
<path d="M149.7619 86.1262
L149.7619 85.9834
" />
<path d="M149.7619 85.9834
L149.7143 85.7929
" />
<path d="M149.7143 85.7929
L149.6667 85.6977
" />
<path d="M149.6667 85.6977
L149.5714 85.6024
" />
<path d="M149.5714 85.6024
L149.4286 85.5548
" />
<path d="M149.4286 85.5548
L149.3333 85.5548
" />
<path d="M149.3333 85.5548
L149.1905 85.6024
" />
<path d="M149.1905 85.6024
L149.1429 85.6501
" />
<path d="M148.7619 85.6501
L148.7143 85.6024
" />
<path d="M148.7143 85.6024
L148.6190 85.5548
" />
<path d="M148.6190 85.5548
L148.3810 85.5548
" />
<path d="M148.3810 85.5548
L148.2857 85.6024
" />
<path d="M148.2857 85.6024
L148.2381 85.6501
" />
<path d="M148.2381 85.6501
L148.1905 85.7453
" />
<path d="M148.1905 85.7453
L148.1905 85.8405
" />
<path d="M148.1905 85.8405
L148.2381 85.9834
" />
<path d="M148.2381 85.9834
L148.8095 86.5548
" />
<path d="M148.8095 86.5548
L148.1905 86.5548
" />
<path d="M147.8571 85.5548
L147.2381 85.5548
" />
<path d="M147.2381 85.5548
L147.5714 85.9358
" />
<path d="M147.5714 85.9358
L147.4286 85.9358
" />
<path d="M147.4286 85.9358
L147.3333 85.9834
" />
<path d="M147.3333 85.9834
L147.2857 86.0310
" />
<path d="M147.2857 86.0310
L147.2381 86.1262
" />
<path d="M147.2381 86.1262
L147.2381 86.3643
" />
<path d="M147.2381 86.3643
L147.2857 86.4596
" />
<path d="M147.2857 86.4596
L147.3333 86.5072
" />
<path d="M147.3333 86.5072
L147.4286 86.5548
" />
<path d="M147.4286 86.5548
L147.7143 86.5548
" />
<path d="M147.7143 86.5548
L147.8095 86.5072
" />
<path d="M147.8095 86.5072
L147.8571 86.4596
" />
</g></g>
<g style="fill:none; 
stroke:#000000; stroke-width:0.1250; stroke-opacity:1; 
stroke-linecap:round; stroke-linejoin:round;">
<text x="127.2800" y="77.4175"
transform="scale(-1 1) translate(-254.560000 0)"
textLength="3.0798" font-size="1.3333" lengthAdjust="spacingAndGlyphs"
text-anchor="middle" opacity="0" stroke-opacity="0">C24</text>
<g class="stroked-text"><desc>C24</desc>
<path d="M127.9229 77.2784
L127.9705 77.3260
" />
<path d="M127.9705 77.3260
L128.1133 77.3736
" />
<path d="M128.1133 77.3736
L128.2086 77.3736
" />
<path d="M128.2086 77.3736
L128.3514 77.3260
" />
<path d="M128.3514 77.3260
L128.4467 77.2308
" />
<path d="M128.4467 77.2308
L128.4943 77.1355
" />
<path d="M128.4943 77.1355
L128.5419 76.9450
" />
<path d="M128.5419 76.9450
L128.5419 76.8022
" />
<path d="M128.5419 76.8022
L128.4943 76.6117
" />
<path d="M128.4943 76.6117
L128.4467 76.5165
" />
<path d="M128.4467 76.5165
L128.3514 76.4212
" />
<path d="M128.3514 76.4212
L128.2086 76.3736
" />
<path d="M128.2086 76.3736
L128.1133 76.3736
" />
<path d="M128.1133 76.3736
L127.9705 76.4212
" />
<path d="M127.9705 76.4212
L127.9229 76.4689
" />
<path d="M127.5419 76.4689
L127.4943 76.4212
" />
<path d="M127.4943 76.4212
L127.3990 76.3736
" />
<path d="M127.3990 76.3736
L127.1610 76.3736
" />
<path d="M127.1610 76.3736
L127.0657 76.4212
" />
<path d="M127.0657 76.4212
L127.0181 76.4689
" />
<path d="M127.0181 76.4689
L126.9705 76.5641
" />
<path d="M126.9705 76.5641
L126.9705 76.6593
" />
<path d="M126.9705 76.6593
L127.0181 76.8022
" />
<path d="M127.0181 76.8022
L127.5895 77.3736
" />
<path d="M127.5895 77.3736
L126.9705 77.3736
" />
<path d="M126.1133 76.7070
L126.1133 77.3736
" />
<path d="M126.3514 76.3260
L126.5895 77.0403
" />
<path d="M126.5895 77.0403
L125.9705 77.0403
" />
</g></g>
<g style="fill:none; 
stroke:#000000; stroke-width:0.1500; stroke-opacity:1; 
stroke-linecap:round; stroke-linejoin:round;">
<g transform="rotate(-90.000000 135.7330 79.9396)">
<text x="135.7330" y="80.4396"
transform="scale(-1 1) translate(-271.466000 0)"
textLength="2.2024" font-size="1.3333" lengthAdjust="spacingAndGlyphs"
text-anchor="middle" opacity="0" stroke-opacity="0">D1</text>
</g>
<g class="stroked-text"><desc>D1</desc>
<path d="M136.1878 79.2015
L135.1878 79.2015
" />
<path d="M135.1878 79.2015
L135.1878 79.4396
" />
<path d="M135.1878 79.4396
L135.2354 79.5825
" />
<path d="M135.2354 79.5825
L135.3307 79.6777
" />
<path d="M135.3307 79.6777
L135.4259 79.7253
" />
<path d="M135.4259 79.7253
L135.6164 79.7729
" />
<path d="M135.6164 79.7729
L135.7592 79.7729
" />
<path d="M135.7592 79.7729
L135.9497 79.7253
" />
<path d="M135.9497 79.7253
L136.0450 79.6777
" />
<path d="M136.0450 79.6777
L136.1402 79.5825
" />
<path d="M136.1402 79.5825
L136.1878 79.4396
" />
<path d="M136.1878 79.4396
L136.1878 79.2015
" />
<path d="M136.1878 80.7253
L136.1878 80.1539
" />
<path d="M136.1878 80.4396
L135.1878 80.4396
" />
<path d="M135.1878 80.4396
L135.3307 80.3444
" />
<path d="M135.3307 80.3444
L135.4259 80.2491
" />
<path d="M135.4259 80.2491
L135.4735 80.1539
" />
</g><g transform="rotate(-90.000000 150.2000 80.1500)">
<text x="150.2000" y="80.6500"
transform="scale(-1 1) translate(-300.400000 0)"
textLength="2.2024" font-size="1.3333" lengthAdjust="spacingAndGlyphs"
text-anchor="middle" opacity="0" stroke-opacity="0">D2</text>
</g>
<g class="stroked-text"><desc>D2</desc>
<path d="M150.6548 79.4119
L149.6548 79.4119
" />
<path d="M149.6548 79.4119
L149.6548 79.6500
" />
<path d="M149.6548 79.6500
L149.7024 79.7929
" />
<path d="M149.7024 79.7929
L149.7977 79.8881
" />
<path d="M149.7977 79.8881
L149.8929 79.9357
" />
<path d="M149.8929 79.9357
L150.0834 79.9833
" />
<path d="M150.0834 79.9833
L150.2262 79.9833
" />
<path d="M150.2262 79.9833
L150.4167 79.9357
" />
<path d="M150.4167 79.9357
L150.5120 79.8881
" />
<path d="M150.5120 79.8881
L150.6072 79.7929
" />
<path d="M150.6072 79.7929
L150.6548 79.6500
" />
<path d="M150.6548 79.6500
L150.6548 79.4119
" />
<path d="M149.7501 80.3643
L149.7024 80.4119
" />
<path d="M149.7024 80.4119
L149.6548 80.5071
" />
<path d="M149.6548 80.5071
L149.6548 80.7452
" />
<path d="M149.6548 80.7452
L149.7024 80.8405
" />
<path d="M149.7024 80.8405
L149.7501 80.8881
" />
<path d="M149.7501 80.8881
L149.8453 80.9357
" />
<path d="M149.8453 80.9357
L149.9405 80.9357
" />
<path d="M149.9405 80.9357
L150.0834 80.8881
" />
<path d="M150.0834 80.8881
L150.6548 80.3167
" />
<path d="M150.6548 80.3167
L150.6548 80.9357
" />
</g><text x="149.5830" y="91.3146"
transform="scale(-1 1) translate(-299.166000 0)"
textLength="2.9643" font-size="1.3333" lengthAdjust="spacingAndGlyphs"
text-anchor="middle" opacity="0" stroke-opacity="0">JP1</text>
<g class="stroked-text"><desc>JP1</desc>
<path d="M150.4163 90.2694
L150.4163 90.9837
" />
<path d="M150.4163 90.9837
L150.4640 91.1266
" />
<path d="M150.4640 91.1266
L150.5592 91.2218
" />
<path d="M150.5592 91.2218
L150.7020 91.2694
" />
<path d="M150.7020 91.2694
L150.7973 91.2694
" />
<path d="M149.9401 91.2694
L149.9401 90.2694
" />
<path d="M149.9401 90.2694
L149.5592 90.2694
" />
<path d="M149.5592 90.2694
L149.4640 90.3170
" />
<path d="M149.4640 90.3170
L149.4163 90.3647
" />
<path d="M149.4163 90.3647
L149.3687 90.4599
" />
<path d="M149.3687 90.4599
L149.3687 90.6028
" />
<path d="M149.3687 90.6028
L149.4163 90.6980
" />
<path d="M149.4163 90.6980
L149.4640 90.7456
" />
<path d="M149.4640 90.7456
L149.5592 90.7932
" />
<path d="M149.5592 90.7932
L149.9401 90.7932
" />
<path d="M148.4163 91.2694
L148.9878 91.2694
" />
<path d="M148.7020 91.2694
L148.7020 90.2694
" />
<path d="M148.7020 90.2694
L148.7973 90.4123
" />
<path d="M148.7973 90.4123
L148.8925 90.5075
" />
<path d="M148.8925 90.5075
L148.9878 90.5551
" />
</g><text x="121.1330" y="92.8896"
transform="scale(-1 1) translate(-242.266000 0)"
textLength="2.9643" font-size="1.3333" lengthAdjust="spacingAndGlyphs"
text-anchor="middle" opacity="0" stroke-opacity="0">JP2</text>
<g class="stroked-text"><desc>JP2</desc>
<path d="M121.9663 91.8444
L121.9663 92.5587
" />
<path d="M121.9663 92.5587
L122.0140 92.7016
" />
<path d="M122.0140 92.7016
L122.1092 92.7968
" />
<path d="M122.1092 92.7968
L122.2520 92.8444
" />
<path d="M122.2520 92.8444
L122.3473 92.8444
" />
<path d="M121.4901 92.8444
L121.4901 91.8444
" />
<path d="M121.4901 91.8444
L121.1092 91.8444
" />
<path d="M121.1092 91.8444
L121.0140 91.8920
" />
<path d="M121.0140 91.8920
L120.9663 91.9397
" />
<path d="M120.9663 91.9397
L120.9187 92.0349
" />
<path d="M120.9187 92.0349
L120.9187 92.1778
" />
<path d="M120.9187 92.1778
L120.9663 92.2730
" />
<path d="M120.9663 92.2730
L121.0140 92.3206
" />
<path d="M121.0140 92.3206
L121.1092 92.3682
" />
<path d="M121.1092 92.3682
L121.4901 92.3682
" />
<path d="M120.5378 91.9397
L120.4901 91.8920
" />
<path d="M120.4901 91.8920
L120.3949 91.8444
" />
<path d="M120.3949 91.8444
L120.1568 91.8444
" />
<path d="M120.1568 91.8444
L120.0616 91.8920
" />
<path d="M120.0616 91.8920
L120.0140 91.9397
" />
<path d="M120.0140 91.9397
L119.9663 92.0349
" />
<path d="M119.9663 92.0349
L119.9663 92.1301
" />
<path d="M119.9663 92.1301
L120.0140 92.2730
" />
<path d="M120.0140 92.2730
L120.5854 92.8444
" />
<path d="M120.5854 92.8444
L119.9663 92.8444
" />
</g><text x="120.9500" y="90.2000"
transform="scale(-1 1) translate(-241.900000 0)"
textLength="3.1548" font-size="1.3333" lengthAdjust="spacingAndGlyphs"
text-anchor="middle" opacity="0" stroke-opacity="0">R13</text>
<g class="stroked-text"><desc>R13</desc>
<path d="M121.5929 90.1548
L121.9262 89.6786
" />
<path d="M122.1643 90.1548
L122.1643 89.1548
" />
<path d="M122.1643 89.1548
L121.7833 89.1548
" />
<path d="M121.7833 89.1548
L121.6881 89.2024
" />
<path d="M121.6881 89.2024
L121.6405 89.2501
" />
<path d="M121.6405 89.2501
L121.5929 89.3453
" />
<path d="M121.5929 89.3453
L121.5929 89.4882
" />
<path d="M121.5929 89.4882
L121.6405 89.5834
" />
<path d="M121.6405 89.5834
L121.6881 89.6310
" />
<path d="M121.6881 89.6310
L121.7833 89.6786
" />
<path d="M121.7833 89.6786
L122.1643 89.6786
" />
<path d="M120.6405 90.1548
L121.2119 90.1548
" />
<path d="M120.9262 90.1548
L120.9262 89.1548
" />
<path d="M120.9262 89.1548
L121.0214 89.2977
" />
<path d="M121.0214 89.2977
L121.1167 89.3929
" />
<path d="M121.1167 89.3929
L121.2119 89.4405
" />
<path d="M120.3071 89.1548
L119.6881 89.1548
" />
<path d="M119.6881 89.1548
L120.0214 89.5358
" />
<path d="M120.0214 89.5358
L119.8786 89.5358
" />
<path d="M119.8786 89.5358
L119.7833 89.5834
" />
<path d="M119.7833 89.5834
L119.7357 89.6310
" />
<path d="M119.7357 89.6310
L119.6881 89.7262
" />
<path d="M119.6881 89.7262
L119.6881 89.9643
" />
<path d="M119.6881 89.9643
L119.7357 90.0596
" />
<path d="M119.7357 90.0596
L119.7833 90.1072
" />
<path d="M119.7833 90.1072
L119.8786 90.1548
" />
<path d="M119.8786 90.1548
L120.1643 90.1548
" />
<path d="M120.1643 90.1548
L120.2595 90.1072
" />
<path d="M120.2595 90.1072
L120.3071 90.0596
" />
</g><g transform="rotate(-90.000000 136.3250 90.1500)">
<text x="136.3250" y="90.6500"
transform="scale(-1 1) translate(-272.650000 0)"
textLength="3.1548" font-size="1.3333" lengthAdjust="spacingAndGlyphs"
text-anchor="middle" opacity="0" stroke-opacity="0">R21</text>
</g>
<g class="stroked-text"><desc>R21</desc>
<path d="M136.7798 89.5071
L136.3036 89.1738
" />
<path d="M136.7798 88.9357
L135.7798 88.9357
" />
<path d="M135.7798 88.9357
L135.7798 89.3167
" />
<path d="M135.7798 89.3167
L135.8274 89.4119
" />
<path d="M135.8274 89.4119
L135.8751 89.4595
" />
<path d="M135.8751 89.4595
L135.9703 89.5071
" />
<path d="M135.9703 89.5071
L136.1132 89.5071
" />
<path d="M136.1132 89.5071
L136.2084 89.4595
" />
<path d="M136.2084 89.4595
L136.2560 89.4119
" />
<path d="M136.2560 89.4119
L136.3036 89.3167
" />
<path d="M136.3036 89.3167
L136.3036 88.9357
" />
<path d="M135.8751 89.8881
L135.8274 89.9357
" />
<path d="M135.8274 89.9357
L135.7798 90.0310
" />
<path d="M135.7798 90.0310
L135.7798 90.2690
" />
<path d="M135.7798 90.2690
L135.8274 90.3643
" />
<path d="M135.8274 90.3643
L135.8751 90.4119
" />
<path d="M135.8751 90.4119
L135.9703 90.4595
" />
<path d="M135.9703 90.4595
L136.0655 90.4595
" />
<path d="M136.0655 90.4595
L136.2084 90.4119
" />
<path d="M136.2084 90.4119
L136.7798 89.8405
" />
<path d="M136.7798 89.8405
L136.7798 90.4595
" />
<path d="M136.7798 91.4119
L136.7798 90.8405
" />
<path d="M136.7798 91.1262
L135.7798 91.1262
" />
<path d="M135.7798 91.1262
L135.9227 91.0310
" />
<path d="M135.9227 91.0310
L136.0179 90.9357
" />
<path d="M136.0179 90.9357
L136.0655 90.8405
" />
</g><g transform="rotate(-90.000000 134.4080 96.3000)">
<text x="134.4080" y="96.8000"
transform="scale(-1 1) translate(-268.816000 0)"
textLength="3.1548" font-size="1.3333" lengthAdjust="spacingAndGlyphs"
text-anchor="middle" opacity="0" stroke-opacity="0">R25</text>
</g>
<g class="stroked-text"><desc>R25</desc>
<path d="M134.8628 95.6571
L134.3866 95.3238
" />
<path d="M134.8628 95.0857
L133.8628 95.0857
" />
<path d="M133.8628 95.0857
L133.8628 95.4667
" />
<path d="M133.8628 95.4667
L133.9104 95.5619
" />
<path d="M133.9104 95.5619
L133.9581 95.6095
" />
<path d="M133.9581 95.6095
L134.0533 95.6571
" />
<path d="M134.0533 95.6571
L134.1962 95.6571
" />
<path d="M134.1962 95.6571
L134.2914 95.6095
" />
<path d="M134.2914 95.6095
L134.3390 95.5619
" />
<path d="M134.3390 95.5619
L134.3866 95.4667
" />
<path d="M134.3866 95.4667
L134.3866 95.0857
" />
<path d="M133.9581 96.0381
L133.9104 96.0857
" />
<path d="M133.9104 96.0857
L133.8628 96.1810
" />
<path d="M133.8628 96.1810
L133.8628 96.4190
" />
<path d="M133.8628 96.4190
L133.9104 96.5143
" />
<path d="M133.9104 96.5143
L133.9581 96.5619
" />
<path d="M133.9581 96.5619
L134.0533 96.6095
" />
<path d="M134.0533 96.6095
L134.1485 96.6095
" />
<path d="M134.1485 96.6095
L134.2914 96.5619
" />
<path d="M134.2914 96.5619
L134.8628 95.9905
" />
<path d="M134.8628 95.9905
L134.8628 96.6095
" />
<path d="M133.8628 97.5143
L133.8628 97.0381
" />
<path d="M133.8628 97.0381
L134.3390 96.9905
" />
<path d="M134.3390 96.9905
L134.2914 97.0381
" />
<path d="M134.2914 97.0381
L134.2438 97.1333
" />
<path d="M134.2438 97.1333
L134.2438 97.3714
" />
<path d="M134.2438 97.3714
L134.2914 97.4667
" />
<path d="M134.2914 97.4667
L134.3390 97.5143
" />
<path d="M134.3390 97.5143
L134.4342 97.5619
" />
<path d="M134.4342 97.5619
L134.6723 97.5619
" />
<path d="M134.6723 97.5619
L134.7676 97.5143
" />
<path d="M134.7676 97.5143
L134.8152 97.4667
" />
<path d="M134.8152 97.4667
L134.8628 97.3714
" />
<path d="M134.8628 97.3714
L134.8628 97.1333
" />
<path d="M134.8628 97.1333
L134.8152 97.0381
" />
<path d="M134.8152 97.0381
L134.7676 96.9905
" />
</g><g transform="rotate(-90.000000 132.0250 96.3000)">
<text x="132.0250" y="96.8000"
transform="scale(-1 1) translate(-264.050000 0)"
textLength="3.1548" font-size="1.3333" lengthAdjust="spacingAndGlyphs"
text-anchor="middle" opacity="0" stroke-opacity="0">R26</text>
</g>
<g class="stroked-text"><desc>R26</desc>
<path d="M132.4798 95.6571
L132.0036 95.3238
" />
<path d="M132.4798 95.0857
L131.4798 95.0857
" />
<path d="M131.4798 95.0857
L131.4798 95.4667
" />
<path d="M131.4798 95.4667
L131.5274 95.5619
" />
<path d="M131.5274 95.5619
L131.5751 95.6095
" />
<path d="M131.5751 95.6095
L131.6703 95.6571
" />
<path d="M131.6703 95.6571
L131.8132 95.6571
" />
<path d="M131.8132 95.6571
L131.9084 95.6095
" />
<path d="M131.9084 95.6095
L131.9560 95.5619
" />
<path d="M131.9560 95.5619
L132.0036 95.4667
" />
<path d="M132.0036 95.4667
L132.0036 95.0857
" />
<path d="M131.5751 96.0381
L131.5274 96.0857
" />
<path d="M131.5274 96.0857
L131.4798 96.1810
" />
<path d="M131.4798 96.1810
L131.4798 96.4190
" />
<path d="M131.4798 96.4190
L131.5274 96.5143
" />
<path d="M131.5274 96.5143
L131.5751 96.5619
" />
<path d="M131.5751 96.5619
L131.6703 96.6095
" />
<path d="M131.6703 96.6095
L131.7655 96.6095
" />
<path d="M131.7655 96.6095
L131.9084 96.5619
" />
<path d="M131.9084 96.5619
L132.4798 95.9905
" />
<path d="M132.4798 95.9905
L132.4798 96.6095
" />
<path d="M131.4798 97.4667
L131.4798 97.2762
" />
<path d="M131.4798 97.2762
L131.5274 97.1810
" />
<path d="M131.5274 97.1810
L131.5751 97.1333
" />
<path d="M131.5751 97.1333
L131.7179 97.0381
" />
<path d="M131.7179 97.0381
L131.9084 96.9905
" />
<path d="M131.9084 96.9905
L132.2893 96.9905
" />
<path d="M132.2893 96.9905
L132.3846 97.0381
" />
<path d="M132.3846 97.0381
L132.4322 97.0857
" />
<path d="M132.4322 97.0857
L132.4798 97.1810
" />
<path d="M132.4798 97.1810
L132.4798 97.3714
" />
<path d="M132.4798 97.3714
L132.4322 97.4667
" />
<path d="M132.4322 97.4667
L132.3846 97.5143
" />
<path d="M132.3846 97.5143
L132.2893 97.5619
" />
<path d="M132.2893 97.5619
L132.0512 97.5619
" />
<path d="M132.0512 97.5619
L131.9560 97.5143
" />
<path d="M131.9560 97.5143
L131.9084 97.4667
" />
<path d="M131.9084 97.4667
L131.8608 97.3714
" />
<path d="M131.8608 97.3714
L131.8608 97.1810
" />
<path d="M131.8608 97.1810
L131.9084 97.0857
" />
<path d="M131.9084 97.0857
L131.9560 97.0381
" />
<path d="M131.9560 97.0381
L132.0512 96.9905
" />
</g><g transform="rotate(-90.000000 147.7000 79.6500)">
<text x="147.7000" y="80.1500"
transform="scale(-1 1) translate(-295.400000 0)"
textLength="3.1548" font-size="1.3333" lengthAdjust="spacingAndGlyphs"
text-anchor="middle" opacity="0" stroke-opacity="0">R28</text>
</g>
<g class="stroked-text"><desc>R28</desc>
<path d="M148.1548 79.0071
L147.6786 78.6738
" />
<path d="M148.1548 78.4357
L147.1548 78.4357
" />
<path d="M147.1548 78.4357
L147.1548 78.8167
" />
<path d="M147.1548 78.8167
L147.2024 78.9119
" />
<path d="M147.2024 78.9119
L147.2501 78.9595
" />
<path d="M147.2501 78.9595
L147.3453 79.0071
" />
<path d="M147.3453 79.0071
L147.4882 79.0071
" />
<path d="M147.4882 79.0071
L147.5834 78.9595
" />
<path d="M147.5834 78.9595
L147.6310 78.9119
" />
<path d="M147.6310 78.9119
L147.6786 78.8167
" />
<path d="M147.6786 78.8167
L147.6786 78.4357
" />
<path d="M147.2501 79.3881
L147.2024 79.4357
" />
<path d="M147.2024 79.4357
L147.1548 79.5310
" />
<path d="M147.1548 79.5310
L147.1548 79.7690
" />
<path d="M147.1548 79.7690
L147.2024 79.8643
" />
<path d="M147.2024 79.8643
L147.2501 79.9119
" />
<path d="M147.2501 79.9119
L147.3453 79.9595
" />
<path d="M147.3453 79.9595
L147.4405 79.9595
" />
<path d="M147.4405 79.9595
L147.5834 79.9119
" />
<path d="M147.5834 79.9119
L148.1548 79.3405
" />
<path d="M148.1548 79.3405
L148.1548 79.9595
" />
<path d="M147.5834 80.5310
L147.5358 80.4357
" />
<path d="M147.5358 80.4357
L147.4882 80.3881
" />
<path d="M147.4882 80.3881
L147.3929 80.3405
" />
<path d="M147.3929 80.3405
L147.3453 80.3405
" />
<path d="M147.3453 80.3405
L147.2501 80.3881
" />
<path d="M147.2501 80.3881
L147.2024 80.4357
" />
<path d="M147.2024 80.4357
L147.1548 80.5310
" />
<path d="M147.1548 80.5310
L147.1548 80.7214
" />
<path d="M147.1548 80.7214
L147.2024 80.8167
" />
<path d="M147.2024 80.8167
L147.2501 80.8643
" />
<path d="M147.2501 80.8643
L147.3453 80.9119
" />
<path d="M147.3453 80.9119
L147.3929 80.9119
" />
<path d="M147.3929 80.9119
L147.4882 80.8643
" />
<path d="M147.4882 80.8643
L147.5358 80.8167
" />
<path d="M147.5358 80.8167
L147.5834 80.7214
" />
<path d="M147.5834 80.7214
L147.5834 80.5310
" />
<path d="M147.5834 80.5310
L147.6310 80.4357
" />
<path d="M147.6310 80.4357
L147.6786 80.3881
" />
<path d="M147.6786 80.3881
L147.7739 80.3405
" />
<path d="M147.7739 80.3405
L147.9643 80.3405
" />
<path d="M147.9643 80.3405
L148.0596 80.3881
" />
<path d="M148.0596 80.3881
L148.1072 80.4357
" />
<path d="M148.1072 80.4357
L148.1548 80.5310
" />
<path d="M148.1548 80.5310
L148.1548 80.7214
" />
<path d="M148.1548 80.7214
L148.1072 80.8167
" />
<path d="M148.1072 80.8167
L148.0596 80.8643
" />
<path d="M148.0596 80.8643
L147.9643 80.9119
" />
<path d="M147.9643 80.9119
L147.7739 80.9119
" />
<path d="M147.7739 80.9119
L147.6786 80.8643
" />
<path d="M147.6786 80.8643
L147.6310 80.8167
" />
<path d="M147.6310 80.8167
L147.5834 80.7214
" />
</g><text x="123.2500" y="75.5500"
transform="scale(-1 1) translate(-246.500000 0)"
textLength="3.2500" font-size="1.3333" lengthAdjust="spacingAndGlyphs"
text-anchor="middle" opacity="0" stroke-opacity="0">RN1</text>
<g class="stroked-text"><desc>RN1</desc>
<path d="M123.9405 75.5048
L124.2738 75.0286
" />
<path d="M124.5119 75.5048
L124.5119 74.5048
" />
<path d="M124.5119 74.5048
L124.1310 74.5048
" />
<path d="M124.1310 74.5048
L124.0357 74.5524
" />
<path d="M124.0357 74.5524
L123.9881 74.6001
" />
<path d="M123.9881 74.6001
L123.9405 74.6953
" />
<path d="M123.9405 74.6953
L123.9405 74.8382
" />
<path d="M123.9405 74.8382
L123.9881 74.9334
" />
<path d="M123.9881 74.9334
L124.0357 74.9810
" />
<path d="M124.0357 74.9810
L124.1310 75.0286
" />
<path d="M124.1310 75.0286
L124.5119 75.0286
" />
<path d="M123.5119 75.5048
L123.5119 74.5048
" />
<path d="M123.5119 74.5048
L122.9405 75.5048
" />
<path d="M122.9405 75.5048
L122.9405 74.5048
" />
<path d="M121.9405 75.5048
L122.5119 75.5048
" />
<path d="M122.2262 75.5048
L122.2262 74.5048
" />
<path d="M122.2262 74.5048
L122.3214 74.6477
" />
<path d="M122.3214 74.6477
L122.4167 74.7429
" />
<path d="M122.4167 74.7429
L122.5119 74.7905
" />
</g></g>
<g style="fill:none; 
stroke:#000000; stroke-width:0.1000; stroke-opacity:1; 
stroke-linecap:round; stroke-linejoin:round;">
<g transform="rotate(-90.000000 131.2250 83.3750)">
<text x="131.2250" y="83.8750"
transform="scale(-1 1) translate(-262.450000 0)"
textLength="2.8619" font-size="1.3333" lengthAdjust="spacingAndGlyphs"
text-anchor="middle" opacity="0" stroke-opacity="0">TH1</text>
</g>
<g class="stroked-text"><desc>TH1</desc>
<path d="M130.6824 82.0893
L130.6824 82.6607
" />
<path d="M131.6824 82.3750
L130.6824 82.3750
" />
<path d="M131.6824 82.9940
L130.6824 82.9940
" />
<path d="M131.1586 82.9940
L131.1586 83.5655
" />
<path d="M131.6824 83.5655
L130.6824 83.5655
" />
<path d="M131.6824 84.5655
L131.6824 83.9940
" />
<path d="M131.6824 84.2798
L130.6824 84.2798
" />
<path d="M130.6824 84.2798
L130.8253 84.1845
" />
<path d="M130.8253 84.1845
L130.9205 84.0893
" />
<path d="M130.9205 84.0893
L130.9681 83.9940
" />
</g></g>
<g style="fill:none; 
stroke:#000000; stroke-width:0.1500; stroke-opacity:1; 
stroke-linecap:round; stroke-linejoin:round;">
<text x="146.8250" y="89.0750"
transform="scale(-1 1) translate(-293.650000 0)"
textLength="2.9643" font-size="1.3333" lengthAdjust="spacingAndGlyphs"
text-anchor="middle" opacity="0" stroke-opacity="0">TP4</text>
<g class="stroked-text"><desc>TP4</desc>
<path d="M148.0869 88.0298
L147.5155 88.0298
" />
<path d="M147.8012 89.0298
L147.8012 88.0298
" />
<path d="M147.1821 89.0298
L147.1821 88.0298
" />
<path d="M147.1821 88.0298
L146.8012 88.0298
" />
<path d="M146.8012 88.0298
L146.7060 88.0774
" />
<path d="M146.7060 88.0774
L146.6583 88.1251
" />
<path d="M146.6583 88.1251
L146.6107 88.2203
" />
<path d="M146.6107 88.2203
L146.6107 88.3632
" />
<path d="M146.6107 88.3632
L146.6583 88.4584
" />
<path d="M146.6583 88.4584
L146.7060 88.5060
" />
<path d="M146.7060 88.5060
L146.8012 88.5536
" />
<path d="M146.8012 88.5536
L147.1821 88.5536
" />
<path d="M145.7536 88.3632
L145.7536 89.0298
" />
<path d="M145.9917 87.9822
L146.2298 88.6965
" />
<path d="M146.2298 88.6965
L145.6107 88.6965
" />
</g><text x="139.4000" y="94.4000"
transform="scale(-1 1) translate(-278.800000 0)"
textLength="2.2024" font-size="1.3333" lengthAdjust="spacingAndGlyphs"
text-anchor="middle" opacity="0" stroke-opacity="0">D5</text>
<g class="stroked-text"><desc>D5</desc>
<path d="M140.1381 94.3548
L140.1381 93.3548
" />
<path d="M140.1381 93.3548
L139.9000 93.3548
" />
<path d="M139.9000 93.3548
L139.7571 93.4024
" />
<path d="M139.7571 93.4024
L139.6619 93.4977
" />
<path d="M139.6619 93.4977
L139.6143 93.5929
" />
<path d="M139.6143 93.5929
L139.5667 93.7834
" />
<path d="M139.5667 93.7834
L139.5667 93.9262
" />
<path d="M139.5667 93.9262
L139.6143 94.1167
" />
<path d="M139.6143 94.1167
L139.6619 94.2120
" />
<path d="M139.6619 94.2120
L139.7571 94.3072
" />
<path d="M139.7571 94.3072
L139.9000 94.3548
" />
<path d="M139.9000 94.3548
L140.1381 94.3548
" />
<path d="M138.6619 93.3548
L139.1381 93.3548
" />
<path d="M139.1381 93.3548
L139.1857 93.8310
" />
<path d="M139.1857 93.8310
L139.1381 93.7834
" />
<path d="M139.1381 93.7834
L139.0429 93.7358
" />
<path d="M139.0429 93.7358
L138.8048 93.7358
" />
<path d="M138.8048 93.7358
L138.7095 93.7834
" />
<path d="M138.7095 93.7834
L138.6619 93.8310
" />
<path d="M138.6619 93.8310
L138.6143 93.9262
" />
<path d="M138.6143 93.9262
L138.6143 94.1643
" />
<path d="M138.6143 94.1643
L138.6619 94.2596
" />
<path d="M138.6619 94.2596
L138.7095 94.3072
" />
<path d="M138.7095 94.3072
L138.8048 94.3548
" />
<path d="M138.8048 94.3548
L139.0429 94.3548
" />
<path d="M139.0429 94.3548
L139.1381 94.3072
" />
<path d="M139.1381 94.3072
L139.1857 94.2596
" />
</g><text x="144.5625" y="81.1500"
transform="scale(-1 1) translate(-289.125000 0)"
textLength="2.2500" font-size="1.3333" lengthAdjust="spacingAndGlyphs"
text-anchor="middle" opacity="0" stroke-opacity="0">U1</text>
<g class="stroked-text"><desc>U1</desc>
<path d="M145.3244 80.1048
L145.3244 80.9143
" />
<path d="M145.3244 80.9143
L145.2768 81.0096
" />
<path d="M145.2768 81.0096
L145.2292 81.0572
" />
<path d="M145.2292 81.0572
L145.1339 81.1048
" />
<path d="M145.1339 81.1048
L144.9435 81.1048
" />
<path d="M144.9435 81.1048
L144.8482 81.0572
" />
<path d="M144.8482 81.0572
L144.8006 81.0096
" />
<path d="M144.8006 81.0096
L144.7530 80.9143
" />
<path d="M144.7530 80.9143
L144.7530 80.1048
" />
<path d="M143.7530 81.1048
L144.3244 81.1048
" />
<path d="M144.0387 81.1048
L144.0387 80.1048
" />
<path d="M144.0387 80.1048
L144.1339 80.2477
" />
<path d="M144.1339 80.2477
L144.2292 80.3429
" />
<path d="M144.2292 80.3429
L144.3244 80.3905
" />
</g><text x="115.6830" y="81.9657"
transform="scale(-1 1) translate(-231.366000 0)"
textLength="1.9676" font-size="1.3363" lengthAdjust="spacingAndGlyphs"
text-anchor="middle" opacity="0" stroke-opacity="0">J4</text>
<g class="stroked-text"><desc>J4</desc>
<path d="M116.0171 80.9182
L116.0171 81.6341
" />
<path d="M116.0171 81.6341
L116.0648 81.7773
" />
<path d="M116.0648 81.7773
L116.1602 81.8727
" />
<path d="M116.1602 81.8727
L116.3034 81.9204
" />
<path d="M116.3034 81.9204
L116.3988 81.9204
" />
<path d="M115.1103 81.2523
L115.1103 81.9204
" />
<path d="M115.3489 80.8705
L115.5876 81.5864
" />
<path d="M115.5876 81.5864
L114.9671 81.5864
" />
</g><text x="138.6500" y="90.8001"
transform="scale(-1 1) translate(-277.300000 0)"
textLength="1.8905" font-size="1.0670" lengthAdjust="spacingAndGlyphs"
text-anchor="middle" opacity="0" stroke-opacity="0">Q2</text>
<g class="stroked-text"><desc>Q2</desc>
<path d="M138.7262 90.8386
L138.8024 90.8005
" />
<path d="M138.8024 90.8005
L138.8786 90.7243
" />
<path d="M138.8786 90.7243
L138.9930 90.6100
" />
<path d="M138.9930 90.6100
L139.0692 90.5719
" />
<path d="M139.0692 90.5719
L139.1454 90.5719
" />
<path d="M139.1073 90.7624
L139.1835 90.7243
" />
<path d="M139.1835 90.7243
L139.2597 90.6481
" />
<path d="M139.2597 90.6481
L139.2978 90.4957
" />
<path d="M139.2978 90.4957
L139.2978 90.2289
" />
<path d="M139.2978 90.2289
L139.2597 90.0765
" />
<path d="M139.2597 90.0765
L139.1835 90.0003
" />
<path d="M139.1835 90.0003
L139.1073 89.9622
" />
<path d="M139.1073 89.9622
L138.9549 89.9622
" />
<path d="M138.9549 89.9622
L138.8786 90.0003
" />
<path d="M138.8786 90.0003
L138.8024 90.0765
" />
<path d="M138.8024 90.0765
L138.7643 90.2289
" />
<path d="M138.7643 90.2289
L138.7643 90.4957
" />
<path d="M138.7643 90.4957
L138.8024 90.6481
" />
<path d="M138.8024 90.6481
L138.8786 90.7243
" />
<path d="M138.8786 90.7243
L138.9549 90.7624
" />
<path d="M138.9549 90.7624
L139.1073 90.7624
" />
<path d="M138.4595 90.0384
L138.4214 90.0003
" />
<path d="M138.4214 90.0003
L138.3451 89.9622
" />
<path d="M138.3451 89.9622
L138.1546 89.9622
" />
<path d="M138.1546 89.9622
L138.0784 90.0003
" />
<path d="M138.0784 90.0003
L138.0403 90.0384
" />
<path d="M138.0403 90.0384
L138.0022 90.1146
" />
<path d="M138.0022 90.1146
L138.0022 90.1908
" />
<path d="M138.0022 90.1908
L138.0403 90.3051
" />
<path d="M138.0403 90.3051
L138.4976 90.7624
" />
<path d="M138.4976 90.7624
L138.0022 90.7624
" />
</g></g>
<g style="fill:none; 
stroke:#000000; stroke-width:0.1529; stroke-opacity:1; 
stroke-linecap:round; stroke-linejoin:round;">
<text x="127.9500" y="70.4830"
transform="scale(-1 1) translate(-255.900000 0)"
textLength="2.2875" font-size="1.3547" lengthAdjust="spacingAndGlyphs"
text-anchor="middle" opacity="0" stroke-opacity="0">U3</text>
<g class="stroked-text"><desc>U3</desc>
<path d="M128.7241 69.4211
L128.7241 70.2435
" />
<path d="M128.7241 70.2435
L128.6757 70.3403
" />
<path d="M128.6757 70.3403
L128.6273 70.3887
" />
<path d="M128.6273 70.3887
L128.5306 70.4371
" />
<path d="M128.5306 70.4371
L128.3370 70.4371
" />
<path d="M128.3370 70.4371
L128.2403 70.3887
" />
<path d="M128.2403 70.3887
L128.1919 70.3403
" />
<path d="M128.1919 70.3403
L128.1435 70.2435
" />
<path d="M128.1435 70.2435
L128.1435 69.4211
" />
<path d="M127.7565 69.4211
L127.1275 69.4211
" />
<path d="M127.1275 69.4211
L127.4662 69.8081
" />
<path d="M127.4662 69.8081
L127.3210 69.8081
" />
<path d="M127.3210 69.8081
L127.2243 69.8565
" />
<path d="M127.2243 69.8565
L127.1759 69.9049
" />
<path d="M127.1759 69.9049
L127.1275 70.0016
" />
<path d="M127.1275 70.0016
L127.1275 70.2435
" />
<path d="M127.1275 70.2435
L127.1759 70.3403
" />
<path d="M127.1759 70.3403
L127.2243 70.3887
" />
<path d="M127.2243 70.3887
L127.3210 70.4371
" />
<path d="M127.3210 70.4371
L127.6113 70.4371
" />
<path d="M127.6113 70.4371
L127.7081 70.3887
" />
<path d="M127.7081 70.3887
L127.7565 70.3403
" />
</g></g>
<g style="fill:none; 
stroke:#000000; stroke-width:0.1500; stroke-opacity:1; 
stroke-linecap:round; stroke-linejoin:round;">
<text x="120.9500" y="88.2000"
transform="scale(-1 1) translate(-241.900000 0)"
textLength="3.1548" font-size="1.3333" lengthAdjust="spacingAndGlyphs"
text-anchor="middle" opacity="0" stroke-opacity="0">R27</text>
<g class="stroked-text"><desc>R27</desc>
<path d="M121.5929 88.1548
L121.9262 87.6786
" />
<path d="M122.1643 88.1548
L122.1643 87.1548
" />
<path d="M122.1643 87.1548
L121.7833 87.1548
" />
<path d="M121.7833 87.1548
L121.6881 87.2024
" />
<path d="M121.6881 87.2024
L121.6405 87.2501
" />
<path d="M121.6405 87.2501
L121.5929 87.3453
" />
<path d="M121.5929 87.3453
L121.5929 87.4882
" />
<path d="M121.5929 87.4882
L121.6405 87.5834
" />
<path d="M121.6405 87.5834
L121.6881 87.6310
" />
<path d="M121.6881 87.6310
L121.7833 87.6786
" />
<path d="M121.7833 87.6786
L122.1643 87.6786
" />
<path d="M121.2119 87.2501
L121.1643 87.2024
" />
<path d="M121.1643 87.2024
L121.0690 87.1548
" />
<path d="M121.0690 87.1548
L120.8310 87.1548
" />
<path d="M120.8310 87.1548
L120.7357 87.2024
" />
<path d="M120.7357 87.2024
L120.6881 87.2501
" />
<path d="M120.6881 87.2501
L120.6405 87.3453
" />
<path d="M120.6405 87.3453
L120.6405 87.4405
" />
<path d="M120.6405 87.4405
L120.6881 87.5834
" />
<path d="M120.6881 87.5834
L121.2595 88.1548
" />
<path d="M121.2595 88.1548
L120.6405 88.1548
" />
<path d="M120.3071 87.1548
L119.6405 87.1548
" />
<path d="M119.6405 87.1548
L120.0690 88.1548
" />
</g></g>
<g style="fill:none; 
stroke:#000000; stroke-width:0.1270; stroke-opacity:1; 
stroke-linecap:round; stroke-linejoin:round;">
<path d="M128.2650 86.0450
L130.2650 86.0450
" />
<path d="M128.2650 88.5050
L130.2650 88.5050
" />
</g>
<g style="fill:none; 
stroke:#000000; stroke-width:0.2000; stroke-opacity:1; 
stroke-linecap:round; stroke-linejoin:round;">
<circle cx="127.3650" cy="88.1750" r="0.1000" /> 
</g>
<g style="fill:none; 
stroke:#000000; stroke-width:0.1200; stroke-opacity:1; 
stroke-linecap:round; stroke-linejoin:round;">
<path d="M138.9850 87.2021
L138.9850 86.7479
" />
<path d="M137.5150 87.2021
L137.5150 86.7479
" />
<path d="M139.2100 81.5775
L139.2100 84.2625
" />
<path d="M137.2900 84.2625
L137.2900 81.5775
" />
<path d="M137.2900 81.5775
L139.2100 81.5775
" />
<path d="M131.0950 72.0937
L131.0950 72.6163
" />
<path d="M132.5650 72.0937
L132.5650 72.6163
" />
<path d="M129.0950 72.0937
L129.0950 72.6163
" />
<path d="M130.5650 72.0937
L130.5650 72.6163
" />
<path d="M129.4613 89.2150
L128.9387 89.2150
" />
<path d="M129.4613 90.6850
L128.9387 90.6850
" />
<path d="M132.7150 86.7762
L132.7150 87.2988
" />
<path d="M134.1850 86.7762
L134.1850 87.2988
" />
<path d="M140.4650 82.9262
L140.4650 83.4488
" />
<path d="M141.9350 82.9262
L141.9350 83.4488
" />
<path d="M144.4762 85.4150
L144.9988 85.4150
" />
<path d="M144.4762 86.8850
L144.9988 86.8850
" />
<path d="M127.5538 74.5825
L127.0312 74.5825
" />
<path d="M127.5538 76.0525
L127.0312 76.0525
" />
<path d="M134.7900 81.5775
L136.7100 81.5775
" />
<path d="M134.7900 84.2625
L134.7900 81.5775
" />
<path d="M136.7100 81.5775
L136.7100 84.2625
" />
<path d="M149.2400 81.4650
L151.1600 81.4650
" />
<path d="M149.2400 84.1500
L149.2400 81.4650
" />
<path d="M151.1600 81.4650
L151.1600 84.1500
" />
<path d="M145.3500 90.4500
L145.3500 91.0500
" />
<path d="M146.0500 91.7500
L147.4500 91.7500
" />
<path d="M147.4500 89.7500
L146.0500 89.7500
" />
<path d="M148.1500 91.0500
L148.1500 90.4500
" />
<path d="M146.0500 89.7500 A0.7000 0.7000 0.0 0 0 145.3500 90.4500" />
<path d="M145.3500 91.0500 A0.7000 0.7000 0.0 0 0 146.0500 91.7500" />
<path d="M148.1500 90.4500 A0.7000 0.7000 0.0 0 0 147.4500 89.7500" />
<path d="M147.4500 91.7500 A0.7000 0.7000 0.0 0 0 148.1500 91.0500" />
<path d="M123.1000 92.1500
L123.1000 92.7500
" />
<path d="M123.8000 93.4500
L125.2000 93.4500
" />
<path d="M125.2000 91.4500
L123.8000 91.4500
" />
<path d="M125.9000 92.7500
L125.9000 92.1500
" />
<path d="M123.8000 91.4500 A0.7000 0.7000 0.0 0 0 123.1000 92.1500" />
<path d="M123.1000 92.7500 A0.7000 0.7000 0.0 0 0 123.8000 93.4500" />
<path d="M125.9000 92.1500 A0.7000 0.7000 0.0 0 0 125.2000 91.4500" />
<path d="M125.2000 93.4500 A0.7000 0.7000 0.0 0 0 125.9000 92.7500" />
<path d="M124.6771 88.9650
L124.2229 88.9650
" />
<path d="M124.6771 90.4350
L124.2229 90.4350
" />
<path d="M135.0150 87.2021
L135.0150 86.7479
" />
<path d="M136.4850 87.2021
L136.4850 86.7479
" />
<path d="M133.7900 93.0271
L133.7900 92.5729
" />
<path d="M135.2600 93.0271
L135.2600 92.5729
" />
<path d="M131.2900 93.0271
L131.2900 92.5729
" />
<path d="M132.7600 93.0271
L132.7600 92.5729
" />
<path d="M146.9650 83.3771
L146.9650 82.9229
" />
<path d="M148.4350 83.3771
L148.4350 82.9229
" />
<path d="M123.4300 70.5975
L124.2300 70.5975
" />
<path d="M123.4300 74.0375
L124.2300 74.0375
" />
<path d="M143.7500 87.7250
L143.7500 89.1250
" />
<path d="M143.7500 89.1250
L145.1500 89.1250
" />
<path d="M145.1500 87.7250
L143.7500 87.7250
" />
<path d="M145.1500 89.1250
L145.1500 87.7250
" />
<path d="M147.5600 92.2500
L142.0500 92.2500
" />
<path d="M147.5600 92.2500
L147.5600 95.5500
" />
<path d="M147.5600 95.5500
L142.0500 95.5500
" />
<path d="M143.6525 81.6400
L143.6525 81.6900
" />
<path d="M143.6525 84.7100
L143.6525 84.7600
" />
<path d="M143.6525 84.7600
L145.4725 84.7600
" />
<path d="M145.4725 81.6400
L143.6525 81.6400
" />
<path d="M145.4725 81.6900
L145.4725 81.6400
" />
<path d="M145.4725 83.5900
L145.4725 82.8100
" />
<path d="M145.4725 84.7600
L145.4725 84.7100
" />
<path style="fill:#000000; fill-opacity:1.0000; 
stroke:#000000; stroke-width:0.1200; stroke-opacity:1; 
stroke-linecap:round; stroke-linejoin:round;fill-rule:evenodd;"
d="M 143.3525,85.0400
142.8725,85.0400
143.1125,84.7100
Z" /> 
</g>
<g style="fill:none; 
stroke:#000000; stroke-width:0.1270; stroke-opacity:1; 
stroke-linecap:round; stroke-linejoin:round;">
<path d="M111.6500 84.3000
L111.6500 80.3000
" />
<path d="M113.4000 76.7000
L117.8000 76.7000
" />
<path d="M113.7000 84.3000
L111.6500 84.3000
" />
<path d="M119.5500 80.3000
L119.5500 84.3000
" />
<path d="M119.5500 84.3000
L117.5000 84.3000
" />
</g>
<g style="fill:none; 
stroke:#000000; stroke-width:0.3000; stroke-opacity:1; 
stroke-linecap:round; stroke-linejoin:round;">
<circle cx="113.4500" cy="85.3000" r="0.2500" /> 
</g>
<g style="fill:none; 
stroke:#000000; stroke-width:0.2032; stroke-opacity:1; 
stroke-linecap:round; stroke-linejoin:round;">
<path d="M141.7726 91.7724
L142.5854 91.7724
" />
<path d="M142.5854 88.9276
L141.7726 88.9276
" />
<path d="M142.5854 89.5864
L142.5854 88.9276
" />
<path d="M142.5854 91.7724
L142.5854 91.1136
" />
</g>
<g style="fill:none; 
stroke:#000000; stroke-width:0.1270; stroke-opacity:1; 
stroke-linecap:round; stroke-linejoin:round;">
<path d="M126.0800 70.8175
L126.0800 71.3175
" />
<path d="M126.0800 73.8175
L126.0800 73.3175
" />
<path d="M128.5800 70.8175
L128.5800 71.3175
" />
<path d="M128.5800 73.8175
L128.5800 73.3175
" />
</g>
<g style="fill:none; 
stroke:#000000; stroke-width:0.2000; stroke-opacity:1; 
stroke-linecap:round; stroke-linejoin:round;">
<circle cx="126.5800" cy="70.3175" r="0.1000" /> 
</g>
<g style="fill:none; 
stroke:#000000; stroke-width:0.1200; stroke-opacity:1; 
stroke-linecap:round; stroke-linejoin:round;">
<path d="M124.6771 86.9650
L124.2229 86.9650
" />
<path d="M124.6771 88.4350
L124.2229 88.4350
" />
</g> 
</svg>
