<?xml version="1.0" standalone="no"?>
 <!DOCTYPE svg PUBLIC "-//W3C//DTD SVG 1.1//EN" 
 "http://www.w3.org/Graphics/SVG/1.1/DTD/svg11.dtd"> 
<svg
  xmlns:svg="http://www.w3.org/2000/svg"
  xmlns="http://www.w3.org/2000/svg"
  xmlns:xlink="http://www.w3.org/1999/xlink"
  version="1.1"
  width="71.776739mm" height="32.192739mm" viewBox="103.777000 67.890000 71.776739 32.192739">
<title>SVG Image created as Smart_insoles_2025_v1-F_Paste.svg date 2025/12/03 21:53:55 </title>
  <desc>Image generated by PCBNEW </desc>
<g style="fill:#000000; fill-opacity:1.0000;stroke:#000000; stroke-opacity:1.0000;
stroke-linecap:round; stroke-linejoin:round;"
 transform="translate(0 0) scale(1 1)">
<path style="fill:#000000; fill-opacity:1.0000; 
stroke:#000000; stroke-width:0.0100; stroke-opacity:1; 
stroke-linecap:round; stroke-linejoin:round;fill-rule:evenodd;"
d="M 120.5800,92.1700
119.9800,92.7700
119.1300,92.7700
119.1300,91.3200
120.5800,91.3200
Z" /> 
<path style="fill:#000000; fill-opacity:1.0000; stroke:none;fill-rule:evenodd;"
d="M 119.1500,75.7150
119.1386,75.7724
119.1061,75.8211
119.0574,75.8536
119.0000,75.8650
118.7000,75.8650
118.6426,75.8536
118.5939,75.8211
118.5614,75.7724
118.5500,75.7150
118.5500,74.8650
118.5614,74.8076
118.5939,74.7589
118.6426,74.7264
118.7000,74.7150
119.0000,74.7150
119.0574,74.7264
119.1061,74.7589
119.1386,74.8076
119.1500,74.8650
Z" /> 
<path style="fill:#000000; fill-opacity:1.0000; stroke:none;fill-rule:evenodd;"
d="M 118.3500,75.7150
118.3386,75.7724
118.3061,75.8211
118.2574,75.8536
118.2000,75.8650
117.9000,75.8650
117.8426,75.8536
117.7939,75.8211
117.7614,75.7724
117.7500,75.7150
117.7500,74.8650
117.7614,74.8076
117.7939,74.7589
117.8426,74.7264
117.9000,74.7150
118.2000,74.7150
118.2574,74.7264
118.3061,74.7589
118.3386,74.8076
118.3500,74.8650
Z" /> 
<path style="fill:#000000; fill-opacity:1.0000; stroke:none;fill-rule:evenodd;"
d="M 117.0500,75.7900
117.0443,75.8187
117.0280,75.8430
117.0037,75.8593
116.9750,75.8650
116.8250,75.8650
116.7963,75.8593
116.7720,75.8430
116.7557,75.8187
116.7500,75.7900
116.7500,74.7900
116.7557,74.7613
116.7720,74.7370
116.7963,74.7207
116.8250,74.7150
116.9750,74.7150
117.0037,74.7207
117.0280,74.7370
117.0443,74.7613
117.0500,74.7900
Z" /> 
<path style="fill:#000000; fill-opacity:1.0000; stroke:none;fill-rule:evenodd;"
d="M 116.0500,75.7900
116.0443,75.8187
116.0280,75.8430
116.0037,75.8593
115.9750,75.8650
115.8250,75.8650
115.7963,75.8593
115.7720,75.8430
115.7557,75.8187
115.7500,75.7900
115.7500,74.7900
115.7557,74.7613
115.7720,74.7370
115.7963,74.7207
115.8250,74.7150
115.9750,74.7150
116.0037,74.7207
116.0280,74.7370
116.0443,74.7613
116.0500,74.7900
Z" /> 
<path style="fill:#000000; fill-opacity:1.0000; stroke:none;fill-rule:evenodd;"
d="M 115.5500,75.7900
115.5443,75.8187
115.5280,75.8430
115.5037,75.8593
115.4750,75.8650
115.3250,75.8650
115.2963,75.8593
115.2720,75.8430
115.2557,75.8187
115.2500,75.7900
115.2500,74.7900
115.2557,74.7613
115.2720,74.7370
115.2963,74.7207
115.3250,74.7150
115.4750,74.7150
115.5037,74.7207
115.5280,74.7370
115.5443,74.7613
115.5500,74.7900
Z" /> 
<path style="fill:#000000; fill-opacity:1.0000; stroke:none;fill-rule:evenodd;"
d="M 114.5500,75.7900
114.5443,75.8187
114.5280,75.8430
114.5037,75.8593
114.4750,75.8650
114.3250,75.8650
114.2963,75.8593
114.2720,75.8430
114.2557,75.8187
114.2500,75.7900
114.2500,74.7900
114.2557,74.7613
114.2720,74.7370
114.2963,74.7207
114.3250,74.7150
114.4750,74.7150
114.5037,74.7207
114.5280,74.7370
114.5443,74.7613
114.5500,74.7900
Z" /> 
<path style="fill:#000000; fill-opacity:1.0000; stroke:none;fill-rule:evenodd;"
d="M 113.5500,75.7150
113.5386,75.7724
113.5061,75.8211
113.4574,75.8536
113.4000,75.8650
113.1000,75.8650
113.0426,75.8536
112.9939,75.8211
112.9614,75.7724
112.9500,75.7150
112.9500,74.8650
112.9614,74.8076
112.9939,74.7589
113.0426,74.7264
113.1000,74.7150
113.4000,74.7150
113.4574,74.7264
113.5061,74.7589
113.5386,74.8076
113.5500,74.8650
Z" /> 
<path style="fill:#000000; fill-opacity:1.0000; stroke:none;fill-rule:evenodd;"
d="M 112.7500,75.7150
112.7386,75.7724
112.7061,75.8211
112.6574,75.8536
112.6000,75.8650
112.3000,75.8650
112.2426,75.8536
112.1939,75.8211
112.1614,75.7724
112.1500,75.7150
112.1500,74.8650
112.1614,74.8076
112.1939,74.7589
112.2426,74.7264
112.3000,74.7150
112.6000,74.7150
112.6574,74.7264
112.7061,74.7589
112.7386,74.8076
112.7500,74.8650
Z" /> 
<path style="fill:#000000; fill-opacity:1.0000; stroke:none;fill-rule:evenodd;"
d="M 112.7500,75.7150
112.7386,75.7724
112.7061,75.8211
112.6574,75.8536
112.6000,75.8650
112.3000,75.8650
112.2426,75.8536
112.1939,75.8211
112.1614,75.7724
112.1500,75.7150
112.1500,74.8650
112.1614,74.8076
112.1939,74.7589
112.2426,74.7264
112.3000,74.7150
112.6000,74.7150
112.6574,74.7264
112.7061,74.7589
112.7386,74.8076
112.7500,74.8650
Z" /> 
<path style="fill:#000000; fill-opacity:1.0000; stroke:none;fill-rule:evenodd;"
d="M 113.5500,75.7150
113.5386,75.7724
113.5061,75.8211
113.4574,75.8536
113.4000,75.8650
113.1000,75.8650
113.0426,75.8536
112.9939,75.8211
112.9614,75.7724
112.9500,75.7150
112.9500,74.8650
112.9614,74.8076
112.9939,74.7589
113.0426,74.7264
113.1000,74.7150
113.4000,74.7150
113.4574,74.7264
113.5061,74.7589
113.5386,74.8076
113.5500,74.8650
Z" /> 
<path style="fill:#000000; fill-opacity:1.0000; stroke:none;fill-rule:evenodd;"
d="M 114.0500,75.7900
114.0443,75.8187
114.0280,75.8430
114.0037,75.8593
113.9750,75.8650
113.8250,75.8650
113.7963,75.8593
113.7720,75.8430
113.7557,75.8187
113.7500,75.7900
113.7500,74.7900
113.7557,74.7613
113.7720,74.7370
113.7963,74.7207
113.8250,74.7150
113.9750,74.7150
114.0037,74.7207
114.0280,74.7370
114.0443,74.7613
114.0500,74.7900
Z" /> 
<path style="fill:#000000; fill-opacity:1.0000; stroke:none;fill-rule:evenodd;"
d="M 115.0500,75.7900
115.0443,75.8187
115.0280,75.8430
115.0037,75.8593
114.9750,75.8650
114.8250,75.8650
114.7963,75.8593
114.7720,75.8430
114.7557,75.8187
114.7500,75.7900
114.7500,74.7900
114.7557,74.7613
114.7720,74.7370
114.7963,74.7207
114.8250,74.7150
114.9750,74.7150
115.0037,74.7207
115.0280,74.7370
115.0443,74.7613
115.0500,74.7900
Z" /> 
<path style="fill:#000000; fill-opacity:1.0000; stroke:none;fill-rule:evenodd;"
d="M 116.5500,75.7900
116.5443,75.8187
116.5280,75.8430
116.5037,75.8593
116.4750,75.8650
116.3250,75.8650
116.2963,75.8593
116.2720,75.8430
116.2557,75.8187
116.2500,75.7900
116.2500,74.7900
116.2557,74.7613
116.2720,74.7370
116.2963,74.7207
116.3250,74.7150
116.4750,74.7150
116.5037,74.7207
116.5280,74.7370
116.5443,74.7613
116.5500,74.7900
Z" /> 
<path style="fill:#000000; fill-opacity:1.0000; stroke:none;fill-rule:evenodd;"
d="M 117.5500,75.7900
117.5443,75.8187
117.5280,75.8430
117.5037,75.8593
117.4750,75.8650
117.3250,75.8650
117.2963,75.8593
117.2720,75.8430
117.2557,75.8187
117.2500,75.7900
117.2500,74.7900
117.2557,74.7613
117.2720,74.7370
117.2963,74.7207
117.3250,74.7150
117.4750,74.7150
117.5037,74.7207
117.5280,74.7370
117.5443,74.7613
117.5500,74.7900
Z" /> 
<path style="fill:#000000; fill-opacity:1.0000; stroke:none;fill-rule:evenodd;"
d="M 118.3500,75.7150
118.3386,75.7724
118.3061,75.8211
118.2574,75.8536
118.2000,75.8650
117.9000,75.8650
117.8426,75.8536
117.7939,75.8211
117.7614,75.7724
117.7500,75.7150
117.7500,74.8650
117.7614,74.8076
117.7939,74.7589
117.8426,74.7264
117.9000,74.7150
118.2000,74.7150
118.2574,74.7264
118.3061,74.7589
118.3386,74.8076
118.3500,74.8650
Z" /> 
<path style="fill:#000000; fill-opacity:1.0000; stroke:none;fill-rule:evenodd;"
d="M 119.1500,75.7150
119.1386,75.7724
119.1061,75.8211
119.0574,75.8536
119.0000,75.8650
118.7000,75.8650
118.6426,75.8536
118.5939,75.8211
118.5614,75.7724
118.5500,75.7150
118.5500,74.8650
118.5614,74.8076
118.5939,74.7589
118.6426,74.7264
118.7000,74.7150
119.0000,74.7150
119.0574,74.7264
119.1061,74.7589
119.1386,74.8076
119.1500,74.8650
Z" /> 
</g>
<g style="fill:none; 
stroke:#000000; stroke-width:1.0000; stroke-opacity:1; 
stroke-linecap:round; stroke-linejoin:round;">
<path d="M119.9700 75.2650
L119.9700 74.1650
" />
<path d="M119.9700 70.9350
L119.9700 70.1350
" />
<path d="M111.3300 75.2650
L111.3300 74.1650
" />
<path d="M111.3300 70.9350
L111.3300 70.1350
" />
<path style="fill:#000000; fill-opacity:1.0000; stroke:none;fill-rule:evenodd;"
d="M 134.6250,93.3750
134.6440,93.2793
134.6982,93.1982
134.7793,93.1440
134.8750,93.1250
135.5500,93.1250
135.6457,93.1440
135.7268,93.1982
135.7810,93.2793
135.8000,93.3750
135.8000,94.3250
135.7810,94.4207
135.7268,94.5018
135.6457,94.5560
135.5500,94.5750
134.8750,94.5750
134.7793,94.5560
134.6982,94.5018
134.6440,94.4207
134.6250,94.3250
Z" /> 
<path style="fill:#000000; fill-opacity:1.0000; stroke:none;fill-rule:evenodd;"
d="M 136.7000,93.3750
136.7190,93.2793
136.7732,93.1982
136.8543,93.1440
136.9500,93.1250
137.6250,93.1250
137.7207,93.1440
137.8018,93.1982
137.8560,93.2793
137.8750,93.3750
137.8750,94.3250
137.8560,94.4207
137.8018,94.5018
137.7207,94.5560
137.6250,94.5750
136.9500,94.5750
136.8543,94.5560
136.7732,94.5018
136.7190,94.4207
136.7000,94.3250
Z" /> 
<path style="fill:#000000; fill-opacity:1.0000; stroke:none;fill-rule:evenodd;"
d="M 126.6750,91.8900
126.7707,91.9090
126.8518,91.9632
126.9060,92.0443
126.9250,92.1400
126.9250,92.8150
126.9060,92.9107
126.8518,92.9918
126.7707,93.0460
126.6750,93.0650
125.7250,93.0650
125.6293,93.0460
125.5482,92.9918
125.4940,92.9107
125.4750,92.8150
125.4750,92.1400
125.4940,92.0443
125.5482,91.9632
125.6293,91.9090
125.7250,91.8900
Z" /> 
<path style="fill:#000000; fill-opacity:1.0000; stroke:none;fill-rule:evenodd;"
d="M 126.6750,93.9650
126.7707,93.9840
126.8518,94.0382
126.9060,94.1193
126.9250,94.2150
126.9250,94.8900
126.9060,94.9857
126.8518,95.0668
126.7707,95.1210
126.6750,95.1400
125.7250,95.1400
125.6293,95.1210
125.5482,95.0668
125.4940,94.9857
125.4750,94.8900
125.4750,94.2150
125.4940,94.1193
125.5482,94.0382
125.6293,93.9840
125.7250,93.9650
Z" /> 
<path style="fill:#000000; fill-opacity:1.0000; stroke:none;fill-rule:evenodd;"
d="M 129.3250,91.9250
129.4207,91.9440
129.5018,91.9982
129.5560,92.0793
129.5750,92.1750
129.5750,92.8500
129.5560,92.9457
129.5018,93.0268
129.4207,93.0810
129.3250,93.1000
128.3750,93.1000
128.2793,93.0810
128.1982,93.0268
128.1440,92.9457
128.1250,92.8500
128.1250,92.1750
128.1440,92.0793
128.1982,91.9982
128.2793,91.9440
128.3750,91.9250
Z" /> 
<path style="fill:#000000; fill-opacity:1.0000; stroke:none;fill-rule:evenodd;"
d="M 129.3250,94.0000
129.4207,94.0190
129.5018,94.0732
129.5560,94.1543
129.5750,94.2500
129.5750,94.9250
129.5560,95.0207
129.5018,95.1018
129.4207,95.1560
129.3250,95.1750
128.3750,95.1750
128.2793,95.1560
128.1982,95.1018
128.1440,95.0207
128.1250,94.9250
128.1250,94.2500
128.1440,94.1543
128.1982,94.0732
128.2793,94.0190
128.3750,94.0000
Z" /> 
<path style="fill:#000000; fill-opacity:1.0000; stroke:none;fill-rule:evenodd;"
d="M 142.3105,93.4094
142.3295,93.3137
142.3837,93.2326
142.4648,93.1784
142.5605,93.1594
143.2355,93.1594
143.3312,93.1784
143.4123,93.2326
143.4665,93.3137
143.4855,93.4094
143.4855,94.3594
143.4665,94.4550
143.4123,94.5361
143.3312,94.5903
143.2355,94.6094
142.5605,94.6094
142.4648,94.5903
142.3837,94.5361
142.3295,94.4550
142.3105,94.3594
Z" /> 
<path style="fill:#000000; fill-opacity:1.0000; stroke:none;fill-rule:evenodd;"
d="M 144.3855,93.4094
144.4045,93.3137
144.4587,93.2326
144.5398,93.1784
144.6355,93.1594
145.3105,93.1594
145.4062,93.1784
145.4873,93.2326
145.5415,93.3137
145.5605,93.4094
145.5605,94.3594
145.5415,94.4550
145.4873,94.5361
145.4062,94.5903
145.3105,94.6094
144.6355,94.6094
144.5398,94.5903
144.4587,94.5361
144.4045,94.4550
144.3855,94.3594
Z" /> 
<path style="fill:#000000; fill-opacity:1.0000; stroke:none;fill-rule:evenodd;"
d="M 146.8650,98.2200
146.7693,98.2010
146.6882,98.1468
146.6340,98.0657
146.6150,97.9700
146.6150,97.2950
146.6340,97.1993
146.6882,97.1182
146.7693,97.0640
146.8650,97.0450
147.8150,97.0450
147.9107,97.0640
147.9918,97.1182
148.0460,97.1993
148.0650,97.2950
148.0650,97.9700
148.0460,98.0657
147.9918,98.1468
147.9107,98.2010
147.8150,98.2200
Z" /> 
<path style="fill:#000000; fill-opacity:1.0000; stroke:none;fill-rule:evenodd;"
d="M 146.8650,96.1450
146.7693,96.1260
146.6882,96.0718
146.6340,95.9907
146.6150,95.8950
146.6150,95.2200
146.6340,95.1243
146.6882,95.0432
146.7693,94.9890
146.8650,94.9700
147.8150,94.9700
147.9107,94.9890
147.9918,95.0432
148.0460,95.1243
148.0650,95.2200
148.0650,95.8950
148.0460,95.9907
147.9918,96.0718
147.9107,96.1260
147.8150,96.1450
Z" /> 
<path style="fill:#000000; fill-opacity:1.0000; stroke:none;fill-rule:evenodd;"
d="M 173.1750,80.4750
173.2707,80.4940
173.3518,80.5482
173.4060,80.6293
173.4250,80.7250
173.4250,81.4000
173.4060,81.4957
173.3518,81.5768
173.2707,81.6310
173.1750,81.6500
172.2250,81.6500
172.1293,81.6310
172.0482,81.5768
171.9940,81.4957
171.9750,81.4000
171.9750,80.7250
171.9940,80.6293
172.0482,80.5482
172.1293,80.4940
172.2250,80.4750
Z" /> 
<path style="fill:#000000; fill-opacity:1.0000; stroke:none;fill-rule:evenodd;"
d="M 173.1750,82.5500
173.2707,82.5690
173.3518,82.6232
173.4060,82.7043
173.4250,82.8000
173.4250,83.4750
173.4060,83.5707
173.3518,83.6518
173.2707,83.7060
173.1750,83.7250
172.2250,83.7250
172.1293,83.7060
172.0482,83.6518
171.9940,83.5707
171.9750,83.4750
171.9750,82.8000
171.9940,82.7043
172.0482,82.6232
172.1293,82.5690
172.2250,82.5500
Z" /> 
<path style="fill:#000000; fill-opacity:1.0000; stroke:none;fill-rule:evenodd;"
d="M 150.5250,77.2250
150.4293,77.2060
150.3482,77.1518
150.2940,77.0707
150.2750,76.9750
150.2750,76.3000
150.2940,76.2043
150.3482,76.1232
150.4293,76.0690
150.5250,76.0500
151.4750,76.0500
151.5707,76.0690
151.6518,76.1232
151.7060,76.2043
151.7250,76.3000
151.7250,76.9750
151.7060,77.0707
151.6518,77.1518
151.5707,77.2060
151.4750,77.2250
Z" /> 
<path style="fill:#000000; fill-opacity:1.0000; stroke:none;fill-rule:evenodd;"
d="M 150.5250,75.1500
150.4293,75.1310
150.3482,75.0768
150.2940,74.9957
150.2750,74.9000
150.2750,74.2250
150.2940,74.1293
150.3482,74.0482
150.4293,73.9940
150.5250,73.9750
151.4750,73.9750
151.5707,73.9940
151.6518,74.0482
151.7060,74.1293
151.7250,74.2250
151.7250,74.9000
151.7060,74.9957
151.6518,75.0768
151.5707,75.1310
151.4750,75.1500
Z" /> 
<path style="fill:#000000; fill-opacity:1.0000; stroke:none;fill-rule:evenodd;"
d="M 150.0250,83.8500
149.9293,83.8310
149.8482,83.7768
149.7940,83.6957
149.7750,83.6000
149.7750,82.9250
149.7940,82.8293
149.8482,82.7482
149.9293,82.6940
150.0250,82.6750
150.9750,82.6750
151.0707,82.6940
151.1518,82.7482
151.2060,82.8293
151.2250,82.9250
151.2250,83.6000
151.2060,83.6957
151.1518,83.7768
151.0707,83.8310
150.9750,83.8500
Z" /> 
<path style="fill:#000000; fill-opacity:1.0000; stroke:none;fill-rule:evenodd;"
d="M 150.0250,81.7750
149.9293,81.7560
149.8482,81.7018
149.7940,81.6207
149.7750,81.5250
149.7750,80.8500
149.7940,80.7543
149.8482,80.6732
149.9293,80.6190
150.0250,80.6000
150.9750,80.6000
151.0707,80.6190
151.1518,80.6732
151.2060,80.7543
151.2250,80.8500
151.2250,81.5250
151.2060,81.6207
151.1518,81.7018
151.0707,81.7560
150.9750,81.7750
Z" /> 
<path style="fill:#000000; fill-opacity:1.0000; stroke:none;fill-rule:evenodd;"
d="M 167.8250,70.8750
167.9207,70.8940
168.0018,70.9482
168.0560,71.0293
168.0750,71.1250
168.0750,71.8000
168.0560,71.8957
168.0018,71.9768
167.9207,72.0310
167.8250,72.0500
166.8750,72.0500
166.7793,72.0310
166.6982,71.9768
166.6440,71.8957
166.6250,71.8000
166.6250,71.1250
166.6440,71.0293
166.6982,70.9482
166.7793,70.8940
166.8750,70.8750
Z" /> 
<path style="fill:#000000; fill-opacity:1.0000; stroke:none;fill-rule:evenodd;"
d="M 167.8250,72.9500
167.9207,72.9690
168.0018,73.0232
168.0560,73.1043
168.0750,73.2000
168.0750,73.8750
168.0560,73.9707
168.0018,74.0518
167.9207,74.1060
167.8250,74.1250
166.8750,74.1250
166.7793,74.1060
166.6982,74.0518
166.6440,73.9707
166.6250,73.8750
166.6250,73.2000
166.6440,73.1043
166.6982,73.0232
166.7793,72.9690
166.8750,72.9500
Z" /> 
<path style="fill:#000000; fill-opacity:1.0000; stroke:none;fill-rule:evenodd;"
d="M 168.6750,94.6750
168.7707,94.6940
168.8518,94.7482
168.9060,94.8293
168.9250,94.9250
168.9250,95.6000
168.9060,95.6957
168.8518,95.7768
168.7707,95.8310
168.6750,95.8500
167.7250,95.8500
167.6293,95.8310
167.5482,95.7768
167.4940,95.6957
167.4750,95.6000
167.4750,94.9250
167.4940,94.8293
167.5482,94.7482
167.6293,94.6940
167.7250,94.6750
Z" /> 
<path style="fill:#000000; fill-opacity:1.0000; stroke:none;fill-rule:evenodd;"
d="M 168.6750,96.7500
168.7707,96.7690
168.8518,96.8232
168.9060,96.9043
168.9250,97.0000
168.9250,97.6750
168.9060,97.7707
168.8518,97.8518
168.7707,97.9060
168.6750,97.9250
167.7250,97.9250
167.6293,97.9060
167.5482,97.8518
167.4940,97.7707
167.4750,97.6750
167.4750,97.0000
167.4940,96.9043
167.5482,96.8232
167.6293,96.7690
167.7250,96.7500
Z" /> 
<path style="fill:#000000; fill-opacity:1.0000; stroke:none;fill-rule:evenodd;"
d="M 172.8920,84.8854
172.9877,84.9044
173.0688,84.9586
173.1230,85.0397
173.1420,85.1354
173.1420,85.8104
173.1230,85.9061
173.0688,85.9872
172.9877,86.0414
172.8920,86.0604
171.9420,86.0604
171.8463,86.0414
171.7652,85.9872
171.7110,85.9061
171.6920,85.8104
171.6920,85.1354
171.7110,85.0397
171.7652,84.9586
171.8463,84.9044
171.9420,84.8854
Z" /> 
<path style="fill:#000000; fill-opacity:1.0000; stroke:none;fill-rule:evenodd;"
d="M 172.8920,86.9604
172.9877,86.9794
173.0688,87.0336
173.1230,87.1147
173.1420,87.2104
173.1420,87.8854
173.1230,87.9811
173.0688,88.0622
172.9877,88.1164
172.8920,88.1354
171.9420,88.1354
171.8463,88.1164
171.7652,88.0622
171.7110,87.9811
171.6920,87.8854
171.6920,87.2104
171.7110,87.1147
171.7652,87.0336
171.8463,86.9794
171.9420,86.9604
Z" /> 
<path style="fill:#000000; fill-opacity:1.0000; stroke:none;fill-rule:evenodd;"
d="M 150.0250,94.4750
149.9293,94.4560
149.8482,94.4018
149.7940,94.3207
149.7750,94.2250
149.7750,93.5500
149.7940,93.4543
149.8482,93.3732
149.9293,93.3190
150.0250,93.3000
150.9750,93.3000
151.0707,93.3190
151.1518,93.3732
151.2060,93.4543
151.2250,93.5500
151.2250,94.2250
151.2060,94.3207
151.1518,94.4018
151.0707,94.4560
150.9750,94.4750
Z" /> 
<path style="fill:#000000; fill-opacity:1.0000; stroke:none;fill-rule:evenodd;"
d="M 150.0250,92.4000
149.9293,92.3810
149.8482,92.3268
149.7940,92.2457
149.7750,92.1500
149.7750,91.4750
149.7940,91.3793
149.8482,91.2982
149.9293,91.2440
150.0250,91.2250
150.9750,91.2250
151.0707,91.2440
151.1518,91.2982
151.2060,91.3793
151.2250,91.4750
151.2250,92.1500
151.2060,92.2457
151.1518,92.3268
151.0707,92.3810
150.9750,92.4000
Z" /> 
<path style="fill:#000000; fill-opacity:1.0000; stroke:none;fill-rule:evenodd;"
d="M 150.0250,88.4750
149.9293,88.4560
149.8482,88.4018
149.7940,88.3207
149.7750,88.2250
149.7750,87.5500
149.7940,87.4543
149.8482,87.3732
149.9293,87.3190
150.0250,87.3000
150.9750,87.3000
151.0707,87.3190
151.1518,87.3732
151.2060,87.4543
151.2250,87.5500
151.2250,88.2250
151.2060,88.3207
151.1518,88.4018
151.0707,88.4560
150.9750,88.4750
Z" /> 
<path style="fill:#000000; fill-opacity:1.0000; stroke:none;fill-rule:evenodd;"
d="M 150.0250,86.4000
149.9293,86.3810
149.8482,86.3268
149.7940,86.2457
149.7750,86.1500
149.7750,85.4750
149.7940,85.3793
149.8482,85.2982
149.9293,85.2440
150.0250,85.2250
150.9750,85.2250
151.0707,85.2440
151.1518,85.2982
151.2060,85.3793
151.2250,85.4750
151.2250,86.1500
151.2060,86.2457
151.1518,86.3268
151.0707,86.3810
150.9750,86.4000
Z" /> 
<path style="fill:#000000; fill-opacity:1.0000; stroke:none;fill-rule:evenodd;"
d="M 160.6750,92.9250
160.6940,92.8293
160.7482,92.7482
160.8293,92.6940
160.9250,92.6750
161.6000,92.6750
161.6957,92.6940
161.7768,92.7482
161.8310,92.8293
161.8500,92.9250
161.8500,93.8750
161.8310,93.9707
161.7768,94.0518
161.6957,94.1060
161.6000,94.1250
160.9250,94.1250
160.8293,94.1060
160.7482,94.0518
160.6940,93.9707
160.6750,93.8750
Z" /> 
<path style="fill:#000000; fill-opacity:1.0000; stroke:none;fill-rule:evenodd;"
d="M 162.7500,92.9250
162.7690,92.8293
162.8232,92.7482
162.9043,92.6940
163.0000,92.6750
163.6750,92.6750
163.7707,92.6940
163.8518,92.7482
163.9060,92.8293
163.9250,92.9250
163.9250,93.8750
163.9060,93.9707
163.8518,94.0518
163.7707,94.1060
163.6750,94.1250
163.0000,94.1250
162.9043,94.1060
162.8232,94.0518
162.7690,93.9707
162.7500,93.8750
Z" /> 
<path style="fill:#000000; fill-opacity:1.0000; stroke:none;fill-rule:evenodd;"
d="M 160.6750,82.5750
160.6940,82.4793
160.7482,82.3982
160.8293,82.3440
160.9250,82.3250
161.6000,82.3250
161.6957,82.3440
161.7768,82.3982
161.8310,82.4793
161.8500,82.5750
161.8500,83.5250
161.8310,83.6207
161.7768,83.7018
161.6957,83.7560
161.6000,83.7750
160.9250,83.7750
160.8293,83.7560
160.7482,83.7018
160.6940,83.6207
160.6750,83.5250
Z" /> 
<path style="fill:#000000; fill-opacity:1.0000; stroke:none;fill-rule:evenodd;"
d="M 162.7500,82.5750
162.7690,82.4793
162.8232,82.3982
162.9043,82.3440
163.0000,82.3250
163.6750,82.3250
163.7707,82.3440
163.8518,82.3982
163.9060,82.4793
163.9250,82.5750
163.9250,83.5250
163.9060,83.6207
163.8518,83.7018
163.7707,83.7560
163.6750,83.7750
163.0000,83.7750
162.9043,83.7560
162.8232,83.7018
162.7690,83.6207
162.7500,83.5250
Z" /> 
<path style="fill:#000000; fill-opacity:1.0000; stroke:none;fill-rule:evenodd;"
d="M 105.6500,88.6900
105.5543,88.6710
105.4732,88.6168
105.4190,88.5357
105.4000,88.4400
105.4000,87.7650
105.4190,87.6693
105.4732,87.5882
105.5543,87.5340
105.6500,87.5150
106.6000,87.5150
106.6957,87.5340
106.7768,87.5882
106.8310,87.6693
106.8500,87.7650
106.8500,88.4400
106.8310,88.5357
106.7768,88.6168
106.6957,88.6710
106.6000,88.6900
Z" /> 
<path style="fill:#000000; fill-opacity:1.0000; stroke:none;fill-rule:evenodd;"
d="M 105.6500,86.6150
105.5543,86.5960
105.4732,86.5418
105.4190,86.4607
105.4000,86.3650
105.4000,85.6900
105.4190,85.5943
105.4732,85.5132
105.5543,85.4590
105.6500,85.4400
106.6000,85.4400
106.6957,85.4590
106.7768,85.5132
106.8310,85.5943
106.8500,85.6900
106.8500,86.3650
106.8310,86.4607
106.7768,86.5418
106.6957,86.5960
106.6000,86.6150
Z" /> 
<path style="fill:#000000; fill-opacity:1.0000; stroke:none;fill-rule:evenodd;"
d="M 132.0850,87.2325
131.9893,87.2135
131.9082,87.1593
131.8540,87.0782
131.8350,86.9825
131.8350,86.3075
131.8540,86.2118
131.9082,86.1307
131.9893,86.0765
132.0850,86.0575
133.0350,86.0575
133.1307,86.0765
133.2118,86.1307
133.2660,86.2118
133.2850,86.3075
133.2850,86.9825
133.2660,87.0782
133.2118,87.1593
133.1307,87.2135
133.0350,87.2325
Z" /> 
<path style="fill:#000000; fill-opacity:1.0000; stroke:none;fill-rule:evenodd;"
d="M 132.0850,85.1575
131.9893,85.1385
131.9082,85.0843
131.8540,85.0032
131.8350,84.9075
131.8350,84.2325
131.8540,84.1368
131.9082,84.0557
131.9893,84.0015
132.0850,83.9825
133.0350,83.9825
133.1307,84.0015
133.2118,84.0557
133.2660,84.1368
133.2850,84.2325
133.2850,84.9075
133.2660,85.0032
133.2118,85.0843
133.1307,85.1385
133.0350,85.1575
Z" /> 
<path style="fill:#000000; fill-opacity:1.0000; stroke:none;fill-rule:evenodd;"
d="M 130.7500,95.3500
130.7690,95.2543
130.8232,95.1732
130.9043,95.1190
131.0000,95.1000
131.6750,95.1000
131.7707,95.1190
131.8518,95.1732
131.9060,95.2543
131.9250,95.3500
131.9250,96.3000
131.9060,96.3957
131.8518,96.4768
131.7707,96.5310
131.6750,96.5500
131.0000,96.5500
130.9043,96.5310
130.8232,96.4768
130.7690,96.3957
130.7500,96.3000
Z" /> 
<path style="fill:#000000; fill-opacity:1.0000; stroke:none;fill-rule:evenodd;"
d="M 132.8250,95.3500
132.8440,95.2543
132.8982,95.1732
132.9793,95.1190
133.0750,95.1000
133.7500,95.1000
133.8457,95.1190
133.9268,95.1732
133.9810,95.2543
134.0000,95.3500
134.0000,96.3000
133.9810,96.3957
133.9268,96.4768
133.8457,96.5310
133.7500,96.5500
133.0750,96.5500
132.9793,96.5310
132.8982,96.4768
132.8440,96.3957
132.8250,96.3000
Z" /> 
<path style="fill:#000000; fill-opacity:1.0000; stroke:none;fill-rule:evenodd;"
d="M 130.7500,97.3500
130.7690,97.2543
130.8232,97.1732
130.9043,97.1190
131.0000,97.1000
131.6750,97.1000
131.7707,97.1190
131.8518,97.1732
131.9060,97.2543
131.9250,97.3500
131.9250,98.3000
131.9060,98.3957
131.8518,98.4768
131.7707,98.5310
131.6750,98.5500
131.0000,98.5500
130.9043,98.5310
130.8232,98.4768
130.7690,98.3957
130.7500,98.3000
Z" /> 
<path style="fill:#000000; fill-opacity:1.0000; stroke:none;fill-rule:evenodd;"
d="M 132.8250,97.3500
132.8440,97.2543
132.8982,97.1732
132.9793,97.1190
133.0750,97.1000
133.7500,97.1000
133.8457,97.1190
133.9268,97.1732
133.9810,97.2543
134.0000,97.3500
134.0000,98.3000
133.9810,98.3957
133.9268,98.4768
133.8457,98.5310
133.7500,98.5500
133.0750,98.5500
132.9793,98.5310
132.8982,98.4768
132.8440,98.3957
132.8250,98.3000
Z" /> 
<path style="fill:#000000; fill-opacity:1.0000; stroke:none;fill-rule:evenodd;"
d="M 106.7500,78.5750
106.7690,78.4793
106.8232,78.3982
106.9043,78.3440
107.0000,78.3250
107.6750,78.3250
107.7707,78.3440
107.8518,78.3982
107.9060,78.4793
107.9250,78.5750
107.9250,79.5250
107.9060,79.6207
107.8518,79.7018
107.7707,79.7560
107.6750,79.7750
107.0000,79.7750
106.9043,79.7560
106.8232,79.7018
106.7690,79.6207
106.7500,79.5250
Z" /> 
<path style="fill:#000000; fill-opacity:1.0000; stroke:none;fill-rule:evenodd;"
d="M 108.8250,78.5750
108.8440,78.4793
108.8982,78.3982
108.9793,78.3440
109.0750,78.3250
109.7500,78.3250
109.8457,78.3440
109.9268,78.3982
109.9810,78.4793
110.0000,78.5750
110.0000,79.5250
109.9810,79.6207
109.9268,79.7018
109.8457,79.7560
109.7500,79.7750
109.0750,79.7750
108.9793,79.7560
108.8982,79.7018
108.8440,79.6207
108.8250,79.5250
Z" /> 
<path style="fill:#000000; fill-opacity:1.0000; stroke:none;fill-rule:evenodd;"
d="M 106.7500,76.6000
106.7690,76.5043
106.8232,76.4232
106.9043,76.3690
107.0000,76.3500
107.6750,76.3500
107.7707,76.3690
107.8518,76.4232
107.9060,76.5043
107.9250,76.6000
107.9250,77.5500
107.9060,77.6457
107.8518,77.7268
107.7707,77.7810
107.6750,77.8000
107.0000,77.8000
106.9043,77.7810
106.8232,77.7268
106.7690,77.6457
106.7500,77.5500
Z" /> 
<path style="fill:#000000; fill-opacity:1.0000; stroke:none;fill-rule:evenodd;"
d="M 108.8250,76.6000
108.8440,76.5043
108.8982,76.4232
108.9793,76.3690
109.0750,76.3500
109.7500,76.3500
109.8457,76.3690
109.9268,76.4232
109.9810,76.5043
110.0000,76.6000
110.0000,77.5500
109.9810,77.6457
109.9268,77.7268
109.8457,77.7810
109.7500,77.8000
109.0750,77.8000
108.9793,77.7810
108.8982,77.7268
108.8440,77.6457
108.8250,77.5500
Z" /> 
<path style="fill:#000000; fill-opacity:1.0000; stroke:none;fill-rule:evenodd;"
d="M 124.9500,81.4250
124.9310,81.5207
124.8768,81.6018
124.7957,81.6560
124.7000,81.6750
124.0250,81.6750
123.9293,81.6560
123.8482,81.6018
123.7940,81.5207
123.7750,81.4250
123.7750,80.4750
123.7940,80.3793
123.8482,80.2982
123.9293,80.2440
124.0250,80.2250
124.7000,80.2250
124.7957,80.2440
124.8768,80.2982
124.9310,80.3793
124.9500,80.4750
Z" /> 
<path style="fill:#000000; fill-opacity:1.0000; stroke:none;fill-rule:evenodd;"
d="M 122.8750,81.4250
122.8560,81.5207
122.8018,81.6018
122.7207,81.6560
122.6250,81.6750
121.9500,81.6750
121.8543,81.6560
121.7732,81.6018
121.7190,81.5207
121.7000,81.4250
121.7000,80.4750
121.7190,80.3793
121.7732,80.2982
121.8543,80.2440
121.9500,80.2250
122.6250,80.2250
122.7207,80.2440
122.8018,80.2982
122.8560,80.3793
122.8750,80.4750
Z" /> 
<path style="fill:#000000; fill-opacity:1.0000; stroke:none;fill-rule:evenodd;"
d="M 148.0000,74.9250
147.9886,74.9824
147.9561,75.0311
147.9074,75.0636
147.8500,75.0750
147.5500,75.0750
147.4926,75.0636
147.4439,75.0311
147.4114,74.9824
147.4000,74.9250
147.4000,73.6750
147.4114,73.6176
147.4439,73.5689
147.4926,73.5364
147.5500,73.5250
147.8500,73.5250
147.9074,73.5364
147.9561,73.5689
147.9886,73.6176
148.0000,73.6750
Z" /> 
<path style="fill:#000000; fill-opacity:1.0000; stroke:none;fill-rule:evenodd;"
d="M 147.0000,74.9250
146.9886,74.9824
146.9561,75.0311
146.9074,75.0636
146.8500,75.0750
146.5500,75.0750
146.4926,75.0636
146.4439,75.0311
146.4114,74.9824
146.4000,74.9250
146.4000,73.6750
146.4114,73.6176
146.4439,73.5689
146.4926,73.5364
146.5500,73.5250
146.8500,73.5250
146.9074,73.5364
146.9561,73.5689
146.9886,73.6176
147.0000,73.6750
Z" /> 
<path style="fill:#000000; fill-opacity:1.0000; stroke:none;fill-rule:evenodd;"
d="M 146.0000,74.9250
145.9886,74.9824
145.9561,75.0311
145.9074,75.0636
145.8500,75.0750
145.5500,75.0750
145.4926,75.0636
145.4439,75.0311
145.4114,74.9824
145.4000,74.9250
145.4000,73.6750
145.4114,73.6176
145.4439,73.5689
145.4926,73.5364
145.5500,73.5250
145.8500,73.5250
145.9074,73.5364
145.9561,73.5689
145.9886,73.6176
146.0000,73.6750
Z" /> 
<path style="fill:#000000; fill-opacity:1.0000; stroke:none;fill-rule:evenodd;"
d="M 145.0000,74.9250
144.9886,74.9824
144.9561,75.0311
144.9074,75.0636
144.8500,75.0750
144.5500,75.0750
144.4926,75.0636
144.4439,75.0311
144.4114,74.9824
144.4000,74.9250
144.4000,73.6750
144.4114,73.6176
144.4439,73.5689
144.4926,73.5364
144.5500,73.5250
144.8500,73.5250
144.9074,73.5364
144.9561,73.5689
144.9886,73.6176
145.0000,73.6750
Z" /> 
<path style="fill:#000000; fill-opacity:1.0000; stroke:none;fill-rule:evenodd;"
d="M 144.0000,74.9250
143.9886,74.9824
143.9561,75.0311
143.9074,75.0636
143.8500,75.0750
143.5500,75.0750
143.4926,75.0636
143.4439,75.0311
143.4114,74.9824
143.4000,74.9250
143.4000,73.6750
143.4114,73.6176
143.4439,73.5689
143.4926,73.5364
143.5500,73.5250
143.8500,73.5250
143.9074,73.5364
143.9561,73.5689
143.9886,73.6176
144.0000,73.6750
Z" /> 
<path style="fill:#000000; fill-opacity:1.0000; stroke:none;fill-rule:evenodd;"
d="M 143.0000,74.9250
142.9886,74.9824
142.9561,75.0311
142.9074,75.0636
142.8500,75.0750
142.5500,75.0750
142.4926,75.0636
142.4439,75.0311
142.4114,74.9824
142.4000,74.9250
142.4000,73.6750
142.4114,73.6176
142.4439,73.5689
142.4926,73.5364
142.5500,73.5250
142.8500,73.5250
142.9074,73.5364
142.9561,73.5689
142.9886,73.6176
143.0000,73.6750
Z" /> 
<path style="fill:#000000; fill-opacity:1.0000; stroke:none;fill-rule:evenodd;"
d="M 142.0000,74.9250
141.9886,74.9824
141.9561,75.0311
141.9074,75.0636
141.8500,75.0750
141.5500,75.0750
141.4926,75.0636
141.4439,75.0311
141.4114,74.9824
141.4000,74.9250
141.4000,73.6750
141.4114,73.6176
141.4439,73.5689
141.4926,73.5364
141.5500,73.5250
141.8500,73.5250
141.9074,73.5364
141.9561,73.5689
141.9886,73.6176
142.0000,73.6750
Z" /> 
<path style="fill:#000000; fill-opacity:1.0000; stroke:none;fill-rule:evenodd;"
d="M 141.0000,74.9250
140.9886,74.9824
140.9561,75.0311
140.9074,75.0636
140.8500,75.0750
140.5500,75.0750
140.4926,75.0636
140.4439,75.0311
140.4114,74.9824
140.4000,74.9250
140.4000,73.6750
140.4114,73.6176
140.4439,73.5689
140.4926,73.5364
140.5500,73.5250
140.8500,73.5250
140.9074,73.5364
140.9561,73.5689
140.9886,73.6176
141.0000,73.6750
Z" /> 
<path style="fill:#000000; fill-opacity:1.0000; stroke:none;fill-rule:evenodd;"
d="M 140.0000,74.9250
139.9886,74.9824
139.9561,75.0311
139.9074,75.0636
139.8500,75.0750
139.5500,75.0750
139.4926,75.0636
139.4439,75.0311
139.4114,74.9824
139.4000,74.9250
139.4000,73.6750
139.4114,73.6176
139.4439,73.5689
139.4926,73.5364
139.5500,73.5250
139.8500,73.5250
139.9074,73.5364
139.9561,73.5689
139.9886,73.6176
140.0000,73.6750
Z" /> 
<path style="fill:#000000; fill-opacity:1.0000; stroke:none;fill-rule:evenodd;"
d="M 139.0000,74.9250
138.9886,74.9824
138.9561,75.0311
138.9074,75.0636
138.8500,75.0750
138.5500,75.0750
138.4926,75.0636
138.4439,75.0311
138.4114,74.9824
138.4000,74.9250
138.4000,73.6750
138.4114,73.6176
138.4439,73.5689
138.4926,73.5364
138.5500,73.5250
138.8500,73.5250
138.9074,73.5364
138.9561,73.5689
138.9886,73.6176
139.0000,73.6750
Z" /> 
<path style="fill:#000000; fill-opacity:1.0000; stroke:none;fill-rule:evenodd;"
d="M 138.0000,74.9250
137.9886,74.9824
137.9561,75.0311
137.9074,75.0636
137.8500,75.0750
137.5500,75.0750
137.4926,75.0636
137.4439,75.0311
137.4114,74.9824
137.4000,74.9250
137.4000,73.6750
137.4114,73.6176
137.4439,73.5689
137.4926,73.5364
137.5500,73.5250
137.8500,73.5250
137.9074,73.5364
137.9561,73.5689
137.9886,73.6176
138.0000,73.6750
Z" /> 
<path style="fill:#000000; fill-opacity:1.0000; stroke:none;fill-rule:evenodd;"
d="M 137.0000,74.9250
136.9886,74.9824
136.9561,75.0311
136.9074,75.0636
136.8500,75.0750
136.5500,75.0750
136.4926,75.0636
136.4439,75.0311
136.4114,74.9824
136.4000,74.9250
136.4000,73.6750
136.4114,73.6176
136.4439,73.5689
136.4926,73.5364
136.5500,73.5250
136.8500,73.5250
136.9074,73.5364
136.9561,73.5689
136.9886,73.6176
137.0000,73.6750
Z" /> 
<path style="fill:#000000; fill-opacity:1.0000; stroke:none;fill-rule:evenodd;"
d="M 136.0000,74.9250
135.9886,74.9824
135.9561,75.0311
135.9074,75.0636
135.8500,75.0750
135.5500,75.0750
135.4926,75.0636
135.4439,75.0311
135.4114,74.9824
135.4000,74.9250
135.4000,73.6750
135.4114,73.6176
135.4439,73.5689
135.4926,73.5364
135.5500,73.5250
135.8500,73.5250
135.9074,73.5364
135.9561,73.5689
135.9886,73.6176
136.0000,73.6750
Z" /> 
<path style="fill:#000000; fill-opacity:1.0000; stroke:none;fill-rule:evenodd;"
d="M 135.0000,74.9250
134.9886,74.9824
134.9561,75.0311
134.9074,75.0636
134.8500,75.0750
134.5500,75.0750
134.4926,75.0636
134.4439,75.0311
134.4114,74.9824
134.4000,74.9250
134.4000,73.6750
134.4114,73.6176
134.4439,73.5689
134.4926,73.5364
134.5500,73.5250
134.8500,73.5250
134.9074,73.5364
134.9561,73.5689
134.9886,73.6176
135.0000,73.6750
Z" /> 
<path style="fill:#000000; fill-opacity:1.0000; stroke:none;fill-rule:evenodd;"
d="M 134.0000,74.9250
133.9886,74.9824
133.9561,75.0311
133.9074,75.0636
133.8500,75.0750
133.5500,75.0750
133.4926,75.0636
133.4439,75.0311
133.4114,74.9824
133.4000,74.9250
133.4000,73.6750
133.4114,73.6176
133.4439,73.5689
133.4926,73.5364
133.5500,73.5250
133.8500,73.5250
133.9074,73.5364
133.9561,73.5689
133.9886,73.6176
134.0000,73.6750
Z" /> 
<path style="fill:#000000; fill-opacity:1.0000; stroke:none;fill-rule:evenodd;"
d="M 133.0000,74.9250
132.9886,74.9824
132.9561,75.0311
132.9074,75.0636
132.8500,75.0750
132.5500,75.0750
132.4926,75.0636
132.4439,75.0311
132.4114,74.9824
132.4000,74.9250
132.4000,73.6750
132.4114,73.6176
132.4439,73.5689
132.4926,73.5364
132.5500,73.5250
132.8500,73.5250
132.9074,73.5364
132.9561,73.5689
132.9886,73.6176
133.0000,73.6750
Z" /> 
<path style="fill:#000000; fill-opacity:1.0000; stroke:none;fill-rule:evenodd;"
d="M 132.0000,74.9250
131.9886,74.9824
131.9561,75.0311
131.9074,75.0636
131.8500,75.0750
131.5500,75.0750
131.4926,75.0636
131.4439,75.0311
131.4114,74.9824
131.4000,74.9250
131.4000,73.6750
131.4114,73.6176
131.4439,73.5689
131.4926,73.5364
131.5500,73.5250
131.8500,73.5250
131.9074,73.5364
131.9561,73.5689
131.9886,73.6176
132.0000,73.6750
Z" /> 
<path style="fill:#000000; fill-opacity:1.0000; stroke:none;fill-rule:evenodd;"
d="M 131.0000,74.9250
130.9886,74.9824
130.9561,75.0311
130.9074,75.0636
130.8500,75.0750
130.5500,75.0750
130.4926,75.0636
130.4439,75.0311
130.4114,74.9824
130.4000,74.9250
130.4000,73.6750
130.4114,73.6176
130.4439,73.5689
130.4926,73.5364
130.5500,73.5250
130.8500,73.5250
130.9074,73.5364
130.9561,73.5689
130.9886,73.6176
131.0000,73.6750
Z" /> 
<path style="fill:#000000; fill-opacity:1.0000; stroke:none;fill-rule:evenodd;"
d="M 130.0000,74.9250
129.9886,74.9824
129.9561,75.0311
129.9074,75.0636
129.8500,75.0750
129.5500,75.0750
129.4926,75.0636
129.4439,75.0311
129.4114,74.9824
129.4000,74.9250
129.4000,73.6750
129.4114,73.6176
129.4439,73.5689
129.4926,73.5364
129.5500,73.5250
129.8500,73.5250
129.9074,73.5364
129.9561,73.5689
129.9886,73.6176
130.0000,73.6750
Z" /> 
<path style="fill:#000000; fill-opacity:1.0000; stroke:none;fill-rule:evenodd;"
d="M 129.0000,74.9250
128.9886,74.9824
128.9561,75.0311
128.9074,75.0636
128.8500,75.0750
128.5500,75.0750
128.4926,75.0636
128.4439,75.0311
128.4114,74.9824
128.4000,74.9250
128.4000,73.6750
128.4114,73.6176
128.4439,73.5689
128.4926,73.5364
128.5500,73.5250
128.8500,73.5250
128.9074,73.5364
128.9561,73.5689
128.9886,73.6176
129.0000,73.6750
Z" /> 
<path style="fill:#000000; fill-opacity:1.0000; stroke:none;fill-rule:evenodd;"
d="M 149.4000,71.1250
149.3848,71.2015
149.3414,71.2664
149.2765,71.3098
149.2000,71.3250
148.8000,71.3250
148.7235,71.3098
148.6586,71.2664
148.6152,71.2015
148.6000,71.1250
148.6000,69.7250
148.6152,69.6485
148.6586,69.5836
148.7235,69.5402
148.8000,69.5250
149.2000,69.5250
149.2765,69.5402
149.3414,69.5836
149.3848,69.6485
149.4000,69.7250
Z" /> 
<path style="fill:#000000; fill-opacity:1.0000; stroke:none;fill-rule:evenodd;"
d="M 127.8000,71.1250
127.7848,71.2015
127.7414,71.2664
127.6765,71.3098
127.6000,71.3250
127.2000,71.3250
127.1235,71.3098
127.0586,71.2664
127.0152,71.2015
127.0000,71.1250
127.0000,69.7250
127.0152,69.6485
127.0586,69.5836
127.1235,69.5402
127.2000,69.5250
127.6000,69.5250
127.6765,69.5402
127.7414,69.5836
127.7848,69.6485
127.8000,69.7250
Z" /> 
<path style="fill:#000000; fill-opacity:1.0000; stroke:none;fill-rule:evenodd;"
d="M 133.5750,80.5000
133.5560,80.5957
133.5018,80.6768
133.4207,80.7310
133.3250,80.7500
132.8000,80.7500
132.7043,80.7310
132.6232,80.6768
132.5690,80.5957
132.5500,80.5000
132.5500,79.6000
132.5690,79.5043
132.6232,79.4232
132.7043,79.3690
132.8000,79.3500
133.3250,79.3500
133.4207,79.3690
133.5018,79.4232
133.5560,79.5043
133.5750,79.6000
Z" /> 
<path style="fill:#000000; fill-opacity:1.0000; stroke:none;fill-rule:evenodd;"
d="M 131.7500,80.5000
131.7310,80.5957
131.6768,80.6768
131.5957,80.7310
131.5000,80.7500
130.9750,80.7500
130.8793,80.7310
130.7982,80.6768
130.7440,80.5957
130.7250,80.5000
130.7250,79.6000
130.7440,79.5043
130.7982,79.4232
130.8793,79.3690
130.9750,79.3500
131.5000,79.3500
131.5957,79.3690
131.6768,79.4232
131.7310,79.5043
131.7500,79.6000
Z" /> 
<path style="fill:#000000; fill-opacity:1.0000; stroke:none;fill-rule:evenodd;"
d="M 154.2688,78.0844
154.2878,77.9887
154.3420,77.9076
154.4231,77.8534
154.5188,77.8344
155.0438,77.8344
155.1395,77.8534
155.2206,77.9076
155.2748,77.9887
155.2938,78.0844
155.2938,78.9844
155.2748,79.0800
155.2206,79.1611
155.1395,79.2153
155.0438,79.2344
154.5188,79.2344
154.4231,79.2153
154.3420,79.1611
154.2878,79.0800
154.2688,78.9844
Z" /> 
<path style="fill:#000000; fill-opacity:1.0000; stroke:none;fill-rule:evenodd;"
d="M 156.0938,78.0844
156.1128,77.9887
156.1670,77.9076
156.2481,77.8534
156.3438,77.8344
156.8688,77.8344
156.9645,77.8534
157.0456,77.9076
157.0998,77.9887
157.1188,78.0844
157.1188,78.9844
157.0998,79.0800
157.0456,79.1611
156.9645,79.2153
156.8688,79.2344
156.3438,79.2344
156.2481,79.2153
156.1670,79.1611
156.1128,79.0800
156.0938,78.9844
Z" /> 
<path style="fill:#000000; fill-opacity:1.0000; stroke:none;fill-rule:evenodd;"
d="M 150.8350,78.1264
150.8540,78.0307
150.9082,77.9496
150.9893,77.8954
151.0850,77.8764
151.6100,77.8764
151.7057,77.8954
151.7868,77.9496
151.8410,78.0307
151.8600,78.1264
151.8600,79.0264
151.8410,79.1220
151.7868,79.2031
151.7057,79.2573
151.6100,79.2764
151.0850,79.2764
150.9893,79.2573
150.9082,79.2031
150.8540,79.1220
150.8350,79.0264
Z" /> 
<path style="fill:#000000; fill-opacity:1.0000; stroke:none;fill-rule:evenodd;"
d="M 152.6600,78.1264
152.6790,78.0307
152.7332,77.9496
152.8143,77.8954
152.9100,77.8764
153.4350,77.8764
153.5307,77.8954
153.6118,77.9496
153.6660,78.0307
153.6850,78.1264
153.6850,79.0264
153.6660,79.1220
153.6118,79.2031
153.5307,79.2573
153.4350,79.2764
152.9100,79.2764
152.8143,79.2573
152.7332,79.2031
152.6790,79.1220
152.6600,79.0264
Z" /> 
<path style="fill:#000000; fill-opacity:1.0000; stroke:none;fill-rule:evenodd;"
d="M 173.3250,78.5500
173.3060,78.6457
173.2518,78.7268
173.1707,78.7810
173.0750,78.8000
172.5500,78.8000
172.4543,78.7810
172.3732,78.7268
172.3190,78.6457
172.3000,78.5500
172.3000,77.6500
172.3190,77.5543
172.3732,77.4732
172.4543,77.4190
172.5500,77.4000
173.0750,77.4000
173.1707,77.4190
173.2518,77.4732
173.3060,77.5543
173.3250,77.6500
Z" /> 
<path style="fill:#000000; fill-opacity:1.0000; stroke:none;fill-rule:evenodd;"
d="M 171.5000,78.5500
171.4810,78.6457
171.4268,78.7268
171.3457,78.7810
171.2500,78.8000
170.7250,78.8000
170.6293,78.7810
170.5482,78.7268
170.4940,78.6457
170.4750,78.5500
170.4750,77.6500
170.4940,77.5543
170.5482,77.4732
170.6293,77.4190
170.7250,77.4000
171.2500,77.4000
171.3457,77.4190
171.4268,77.4732
171.4810,77.5543
171.5000,77.6500
Z" /> 
<path style="fill:#000000; fill-opacity:1.0000; stroke:none;fill-rule:evenodd;"
d="M 169.9458,78.6266
169.9268,78.7223
169.8726,78.8034
169.7915,78.8576
169.6958,78.8766
168.9958,78.8766
168.9001,78.8576
168.8190,78.8034
168.7648,78.7223
168.7458,78.6266
168.7458,77.7266
168.7648,77.6309
168.8190,77.5498
168.9001,77.4956
168.9958,77.4766
169.6958,77.4766
169.7915,77.4956
169.8726,77.5498
169.9268,77.6309
169.9458,77.7266
Z" /> 
<path style="fill:#000000; fill-opacity:1.0000; stroke:none;fill-rule:evenodd;"
d="M 167.9458,78.6266
167.9268,78.7223
167.8726,78.8034
167.7915,78.8576
167.6958,78.8766
166.9958,78.8766
166.9001,78.8576
166.8190,78.8034
166.7648,78.7223
166.7458,78.6266
166.7458,77.7266
166.7648,77.6309
166.8190,77.5498
166.9001,77.4956
166.9958,77.4766
167.6958,77.4766
167.7915,77.4956
167.8726,77.5498
167.9268,77.6309
167.9458,77.7266
Z" /> 
<path style="fill:#000000; fill-opacity:1.0000; stroke:none;fill-rule:evenodd;"
d="M 150.7400,89.3298
150.7590,89.2341
150.8132,89.1530
150.8943,89.0988
150.9900,89.0798
151.5150,89.0798
151.6107,89.0988
151.6918,89.1530
151.7460,89.2341
151.7650,89.3298
151.7650,90.2298
151.7460,90.3254
151.6918,90.4065
151.6107,90.4607
151.5150,90.4798
150.9900,90.4798
150.8943,90.4607
150.8132,90.4065
150.7590,90.3254
150.7400,90.2298
Z" /> 
<path style="fill:#000000; fill-opacity:1.0000; stroke:none;fill-rule:evenodd;"
d="M 152.5650,89.3298
152.5840,89.2341
152.6382,89.1530
152.7193,89.0988
152.8150,89.0798
153.3400,89.0798
153.4357,89.0988
153.5168,89.1530
153.5710,89.2341
153.5900,89.3298
153.5900,90.2298
153.5710,90.3254
153.5168,90.4065
153.4357,90.4607
153.3400,90.4798
152.8150,90.4798
152.7193,90.4607
152.6382,90.4065
152.5840,90.3254
152.5650,90.2298
Z" /> 
<path style="fill:#000000; fill-opacity:1.0000; stroke:none;fill-rule:evenodd;"
d="M 154.1280,89.3298
154.1470,89.2341
154.2012,89.1530
154.2823,89.0988
154.3780,89.0798
154.9030,89.0798
154.9987,89.0988
155.0798,89.1530
155.1340,89.2341
155.1530,89.3298
155.1530,90.2298
155.1340,90.3254
155.0798,90.4065
154.9987,90.4607
154.9030,90.4798
154.3780,90.4798
154.2823,90.4607
154.2012,90.4065
154.1470,90.3254
154.1280,90.2298
Z" /> 
<path style="fill:#000000; fill-opacity:1.0000; stroke:none;fill-rule:evenodd;"
d="M 155.9530,89.3298
155.9720,89.2341
156.0262,89.1530
156.1073,89.0988
156.2030,89.0798
156.7280,89.0798
156.8237,89.0988
156.9048,89.1530
156.9590,89.2341
156.9780,89.3298
156.9780,90.2298
156.9590,90.3254
156.9048,90.4065
156.8237,90.4607
156.7280,90.4798
156.2030,90.4798
156.1073,90.4607
156.0262,90.4065
155.9720,90.3254
155.9530,90.2298
Z" /> 
<path style="fill:#000000; fill-opacity:1.0000; stroke:none;fill-rule:evenodd;"
d="M 172.8487,90.2524
172.8296,90.3481
172.7754,90.4292
172.6943,90.4834
172.5987,90.5024
172.0737,90.5024
171.9780,90.4834
171.8969,90.4292
171.8427,90.3481
171.8237,90.2524
171.8237,89.3524
171.8427,89.2567
171.8969,89.1756
171.9780,89.1214
172.0737,89.1024
172.5987,89.1024
172.6943,89.1214
172.7754,89.1756
172.8296,89.2567
172.8487,89.3524
Z" /> 
<path style="fill:#000000; fill-opacity:1.0000; stroke:none;fill-rule:evenodd;"
d="M 171.0237,90.2524
171.0046,90.3481
170.9504,90.4292
170.8693,90.4834
170.7737,90.5024
170.2487,90.5024
170.1530,90.4834
170.0719,90.4292
170.0177,90.3481
169.9987,90.2524
169.9987,89.3524
170.0177,89.2567
170.0719,89.1756
170.1530,89.1214
170.2487,89.1024
170.7737,89.1024
170.8693,89.1214
170.9504,89.1756
171.0046,89.2567
171.0237,89.3524
Z" /> 
<path style="fill:#000000; fill-opacity:1.0000; stroke:none;fill-rule:evenodd;"
d="M 169.4295,90.2104
169.4105,90.3061
169.3563,90.3872
169.2752,90.4414
169.1795,90.4604
168.6545,90.4604
168.5588,90.4414
168.4777,90.3872
168.4235,90.3061
168.4045,90.2104
168.4045,89.3104
168.4235,89.2147
168.4777,89.1336
168.5588,89.0794
168.6545,89.0604
169.1795,89.0604
169.2752,89.0794
169.3563,89.1336
169.4105,89.2147
169.4295,89.3104
Z" /> 
<path style="fill:#000000; fill-opacity:1.0000; stroke:none;fill-rule:evenodd;"
d="M 167.6045,90.2104
167.5855,90.3061
167.5313,90.3872
167.4502,90.4414
167.3545,90.4604
166.8295,90.4604
166.7338,90.4414
166.6527,90.3872
166.5985,90.3061
166.5795,90.2104
166.5795,89.3104
166.5985,89.2147
166.6527,89.1336
166.7338,89.0794
166.8295,89.0604
167.3545,89.0604
167.4502,89.0794
167.5313,89.1336
167.5855,89.2147
167.6045,89.3104
Z" /> 
<path style="fill:#000000; fill-opacity:1.0000; stroke:none;fill-rule:evenodd;"
d="M 140.9750,93.1525
141.0707,93.1715
141.1518,93.2257
141.2060,93.3068
141.2250,93.4025
141.2250,93.9275
141.2060,94.0232
141.1518,94.1043
141.0707,94.1585
140.9750,94.1775
140.0750,94.1775
139.9793,94.1585
139.8982,94.1043
139.8440,94.0232
139.8250,93.9275
139.8250,93.4025
139.8440,93.3068
139.8982,93.2257
139.9793,93.1715
140.0750,93.1525
Z" /> 
<path style="fill:#000000; fill-opacity:1.0000; stroke:none;fill-rule:evenodd;"
d="M 140.9750,94.9775
141.0707,94.9965
141.1518,95.0507
141.2060,95.1318
141.2250,95.2275
141.2250,95.7525
141.2060,95.8482
141.1518,95.9293
141.0707,95.9835
140.9750,96.0025
140.0750,96.0025
139.9793,95.9835
139.8982,95.9293
139.8440,95.8482
139.8250,95.7525
139.8250,95.2275
139.8440,95.1318
139.8982,95.0507
139.9793,94.9965
140.0750,94.9775
Z" /> 
<path style="fill:#000000; fill-opacity:1.0000; stroke:none;fill-rule:evenodd;"
d="M 129.6100,86.9625
129.5143,86.9435
129.4332,86.8893
129.3790,86.8082
129.3600,86.7125
129.3600,86.1875
129.3790,86.0918
129.4332,86.0107
129.5143,85.9565
129.6100,85.9375
130.5100,85.9375
130.6057,85.9565
130.6868,86.0107
130.7410,86.0918
130.7600,86.1875
130.7600,86.7125
130.7410,86.8082
130.6868,86.8893
130.6057,86.9435
130.5100,86.9625
Z" /> 
<path style="fill:#000000; fill-opacity:1.0000; stroke:none;fill-rule:evenodd;"
d="M 129.6100,85.1375
129.5143,85.1185
129.4332,85.0643
129.3790,84.9832
129.3600,84.8875
129.3600,84.3625
129.3790,84.2668
129.4332,84.1857
129.5143,84.1315
129.6100,84.1125
130.5100,84.1125
130.6057,84.1315
130.6868,84.1857
130.7410,84.2668
130.7600,84.3625
130.7600,84.8875
130.7410,84.9832
130.6868,85.0643
130.6057,85.1185
130.5100,85.1375
Z" /> 
<path style="fill:#000000; fill-opacity:1.0000; stroke:none;fill-rule:evenodd;"
d="M 113.2500,77.2775
113.3457,77.2965
113.4268,77.3507
113.4810,77.4318
113.5000,77.5275
113.5000,78.0525
113.4810,78.1482
113.4268,78.2293
113.3457,78.2835
113.2500,78.3025
112.3500,78.3025
112.2543,78.2835
112.1732,78.2293
112.1190,78.1482
112.1000,78.0525
112.1000,77.5275
112.1190,77.4318
112.1732,77.3507
112.2543,77.2965
112.3500,77.2775
Z" /> 
<path style="fill:#000000; fill-opacity:1.0000; stroke:none;fill-rule:evenodd;"
d="M 113.2500,79.1025
113.3457,79.1215
113.4268,79.1757
113.4810,79.2568
113.5000,79.3525
113.5000,79.8775
113.4810,79.9732
113.4268,80.0543
113.3457,80.1085
113.2500,80.1275
112.3500,80.1275
112.2543,80.1085
112.1732,80.0543
112.1190,79.9732
112.1000,79.8775
112.1000,79.3525
112.1190,79.2568
112.1732,79.1757
112.2543,79.1215
112.3500,79.1025
Z" /> 
<path style="fill:#000000; fill-opacity:1.0000; stroke:none;fill-rule:evenodd;"
d="M 107.5375,82.6500
107.5565,82.5543
107.6107,82.4732
107.6918,82.4190
107.7875,82.4000
108.3125,82.4000
108.4082,82.4190
108.4893,82.4732
108.5435,82.5543
108.5625,82.6500
108.5625,83.5500
108.5435,83.6457
108.4893,83.7268
108.4082,83.7810
108.3125,83.8000
107.7875,83.8000
107.6918,83.7810
107.6107,83.7268
107.5565,83.6457
107.5375,83.5500
Z" /> 
<path style="fill:#000000; fill-opacity:1.0000; stroke:none;fill-rule:evenodd;"
d="M 109.3625,82.6500
109.3815,82.5543
109.4357,82.4732
109.5168,82.4190
109.6125,82.4000
110.1375,82.4000
110.2332,82.4190
110.3143,82.4732
110.3685,82.5543
110.3875,82.6500
110.3875,83.5500
110.3685,83.6457
110.3143,83.7268
110.2332,83.7810
110.1375,83.8000
109.6125,83.8000
109.5168,83.7810
109.4357,83.7268
109.3815,83.6457
109.3625,83.5500
Z" /> 
<path style="fill:#000000; fill-opacity:1.0000; stroke:none;fill-rule:evenodd;"
d="M 106.7000,81.7775
106.7957,81.7965
106.8768,81.8507
106.9310,81.9318
106.9500,82.0275
106.9500,82.5525
106.9310,82.6482
106.8768,82.7293
106.7957,82.7835
106.7000,82.8025
105.8000,82.8025
105.7043,82.7835
105.6232,82.7293
105.5690,82.6482
105.5500,82.5525
105.5500,82.0275
105.5690,81.9318
105.6232,81.8507
105.7043,81.7965
105.8000,81.7775
Z" /> 
<path style="fill:#000000; fill-opacity:1.0000; stroke:none;fill-rule:evenodd;"
d="M 106.7000,83.6025
106.7957,83.6215
106.8768,83.6757
106.9310,83.7568
106.9500,83.8525
106.9500,84.3775
106.9310,84.4732
106.8768,84.5543
106.7957,84.6085
106.7000,84.6275
105.8000,84.6275
105.7043,84.6085
105.6232,84.5543
105.5690,84.4732
105.5500,84.3775
105.5500,83.8525
105.5690,83.7568
105.6232,83.6757
105.7043,83.6215
105.8000,83.6025
Z" /> 
<path style="fill:#000000; fill-opacity:1.0000; stroke:none;fill-rule:evenodd;"
d="M 118.8500,76.7750
118.9457,76.7940
119.0268,76.8482
119.0810,76.9293
119.1000,77.0250
119.1000,77.5500
119.0810,77.6457
119.0268,77.7268
118.9457,77.7810
118.8500,77.8000
117.9500,77.8000
117.8543,77.7810
117.7732,77.7268
117.7190,77.6457
117.7000,77.5500
117.7000,77.0250
117.7190,76.9293
117.7732,76.8482
117.8543,76.7940
117.9500,76.7750
Z" /> 
<path style="fill:#000000; fill-opacity:1.0000; stroke:none;fill-rule:evenodd;"
d="M 118.8500,78.6000
118.9457,78.6190
119.0268,78.6732
119.0810,78.7543
119.1000,78.8500
119.1000,79.3750
119.0810,79.4707
119.0268,79.5518
118.9457,79.6060
118.8500,79.6250
117.9500,79.6250
117.8543,79.6060
117.7732,79.5518
117.7190,79.4707
117.7000,79.3750
117.7000,78.8500
117.7190,78.7543
117.7732,78.6732
117.8543,78.6190
117.9500,78.6000
Z" /> 
<path style="fill:#000000; fill-opacity:1.0000; stroke:none;fill-rule:evenodd;"
d="M 128.0250,91.1000
128.0060,91.1957
127.9518,91.2768
127.8707,91.3310
127.7750,91.3500
127.2500,91.3500
127.1543,91.3310
127.0732,91.2768
127.0190,91.1957
127.0000,91.1000
127.0000,90.2000
127.0190,90.1043
127.0732,90.0232
127.1543,89.9690
127.2500,89.9500
127.7750,89.9500
127.8707,89.9690
127.9518,90.0232
128.0060,90.1043
128.0250,90.2000
Z" /> 
<path style="fill:#000000; fill-opacity:1.0000; stroke:none;fill-rule:evenodd;"
d="M 126.2000,91.1000
126.1810,91.1957
126.1268,91.2768
126.0457,91.3310
125.9500,91.3500
125.4250,91.3500
125.3293,91.3310
125.2482,91.2768
125.1940,91.1957
125.1750,91.1000
125.1750,90.2000
125.1940,90.1043
125.2482,90.0232
125.3293,89.9690
125.4250,89.9500
125.9500,89.9500
126.0457,89.9690
126.1268,90.0232
126.1810,90.1043
126.2000,90.2000
Z" /> 
<path style="fill:#000000; fill-opacity:1.0000; stroke:none;fill-rule:evenodd;"
d="M 126.3500,89.2500
126.2735,89.2348
126.2086,89.1914
126.1652,89.1265
126.1500,89.0500
126.1500,88.6500
126.1652,88.5735
126.2086,88.5086
126.2735,88.4652
126.3500,88.4500
127.9500,88.4500
128.0265,88.4652
128.0914,88.5086
128.1348,88.5735
128.1500,88.6500
128.1500,89.0500
128.1348,89.1265
128.0914,89.1914
128.0265,89.2348
127.9500,89.2500
Z" /> 
<path style="fill:#000000; fill-opacity:1.0000; stroke:none;fill-rule:evenodd;"
d="M 126.3500,85.0500
126.2735,85.0348
126.2086,84.9914
126.1652,84.9265
126.1500,84.8500
126.1500,84.4500
126.1652,84.3735
126.2086,84.3086
126.2735,84.2652
126.3500,84.2500
127.9500,84.2500
128.0265,84.2652
128.0914,84.3086
128.1348,84.3735
128.1500,84.4500
128.1500,84.8500
128.1348,84.9265
128.0914,84.9914
128.0265,85.0348
127.9500,85.0500
Z" /> 
<path style="fill:#000000; fill-opacity:1.0000; stroke:none;fill-rule:evenodd;"
d="M 108.0000,90.2500
107.9235,90.2348
107.8586,90.1914
107.8152,90.1265
107.8000,90.0500
107.8000,89.6500
107.8152,89.5735
107.8586,89.5086
107.9235,89.4652
108.0000,89.4500
109.6000,89.4500
109.6765,89.4652
109.7414,89.5086
109.7848,89.5735
109.8000,89.6500
109.8000,90.0500
109.7848,90.1265
109.7414,90.1914
109.6765,90.2348
109.6000,90.2500
Z" /> 
<path style="fill:#000000; fill-opacity:1.0000; stroke:none;fill-rule:evenodd;"
d="M 108.0000,86.0500
107.9235,86.0348
107.8586,85.9914
107.8152,85.9265
107.8000,85.8500
107.8000,85.4500
107.8152,85.3735
107.8586,85.3086
107.9235,85.2652
108.0000,85.2500
109.6000,85.2500
109.6765,85.2652
109.7414,85.3086
109.7848,85.3735
109.8000,85.4500
109.8000,85.8500
109.7848,85.9265
109.7414,85.9914
109.6765,86.0348
109.6000,86.0500
Z" /> 
<path style="fill:#000000; fill-opacity:1.0000; stroke:none;fill-rule:evenodd;"
d="M 124.1800,93.8700
124.1800,94.2700
123.3800,94.2700
123.3800,93.8700
Z" /> 
<path style="fill:#000000; fill-opacity:1.0000; stroke:none;fill-rule:evenodd;"
d="M 124.1800,93.0700
124.1800,93.4700
123.3800,93.4700
123.3800,93.0700
Z" /> 
<path style="fill:#000000; fill-opacity:1.0000; stroke:none;fill-rule:evenodd;"
d="M 124.1800,92.2700
124.1800,92.6700
123.3800,92.6700
123.3800,92.2700
Z" /> 
<path style="fill:#000000; fill-opacity:1.0000; stroke:none;fill-rule:evenodd;"
d="M 124.1800,91.4700
124.1800,91.8700
123.3800,91.8700
123.3800,91.4700
Z" /> 
<path style="fill:#000000; fill-opacity:1.0000; stroke:none;fill-rule:evenodd;"
d="M 124.1800,90.6700
124.1800,91.0700
123.3800,91.0700
123.3800,90.6700
Z" /> 
<path style="fill:#000000; fill-opacity:1.0000; stroke:none;fill-rule:evenodd;"
d="M 124.1800,89.8700
124.1800,90.2700
123.3800,90.2700
123.3800,89.8700
Z" /> 
<path style="fill:#000000; fill-opacity:1.0000; stroke:none;fill-rule:evenodd;"
d="M 124.1800,89.0700
124.1800,89.4700
123.3800,89.4700
123.3800,89.0700
Z" /> 
<path style="fill:#000000; fill-opacity:1.0000; stroke:none;fill-rule:evenodd;"
d="M 124.1800,88.2700
124.1800,88.6700
123.3800,88.6700
123.3800,88.2700
Z" /> 
<path style="fill:#000000; fill-opacity:1.0000; stroke:none;fill-rule:evenodd;"
d="M 124.1800,87.4700
124.1800,87.8700
123.3800,87.8700
123.3800,87.4700
Z" /> 
<path style="fill:#000000; fill-opacity:1.0000; stroke:none;fill-rule:evenodd;"
d="M 124.1800,86.6700
124.1800,87.0700
123.3800,87.0700
123.3800,86.6700
Z" /> 
<path style="fill:#000000; fill-opacity:1.0000; stroke:none;fill-rule:evenodd;"
d="M 124.1800,85.8700
124.1800,86.2700
123.3800,86.2700
123.3800,85.8700
Z" /> 
<path style="fill:#000000; fill-opacity:1.0000; stroke:none;fill-rule:evenodd;"
d="M 122.8800,84.7700
122.8800,85.5700
122.4800,85.5700
122.4800,84.7700
Z" /> 
<path style="fill:#000000; fill-opacity:1.0000; stroke:none;fill-rule:evenodd;"
d="M 122.0800,84.7700
122.0800,85.5700
121.6800,85.5700
121.6800,84.7700
Z" /> 
<path style="fill:#000000; fill-opacity:1.0000; stroke:none;fill-rule:evenodd;"
d="M 121.2800,84.7700
121.2800,85.5700
120.8800,85.5700
120.8800,84.7700
Z" /> 
<path style="fill:#000000; fill-opacity:1.0000; stroke:none;fill-rule:evenodd;"
d="M 120.4800,84.7700
120.4800,85.5700
120.0800,85.5700
120.0800,84.7700
Z" /> 
<path style="fill:#000000; fill-opacity:1.0000; stroke:none;fill-rule:evenodd;"
d="M 119.6800,84.7700
119.6800,85.5700
119.2800,85.5700
119.2800,84.7700
Z" /> 
<path style="fill:#000000; fill-opacity:1.0000; stroke:none;fill-rule:evenodd;"
d="M 118.8800,84.7700
118.8800,85.5700
118.4800,85.5700
118.4800,84.7700
Z" /> 
<path style="fill:#000000; fill-opacity:1.0000; stroke:none;fill-rule:evenodd;"
d="M 118.0800,84.7700
118.0800,85.5700
117.6800,85.5700
117.6800,84.7700
Z" /> 
<path style="fill:#000000; fill-opacity:1.0000; stroke:none;fill-rule:evenodd;"
d="M 117.2800,84.7700
117.2800,85.5700
116.8800,85.5700
116.8800,84.7700
Z" /> 
<path style="fill:#000000; fill-opacity:1.0000; stroke:none;fill-rule:evenodd;"
d="M 116.4800,84.7700
116.4800,85.5700
116.0800,85.5700
116.0800,84.7700
Z" /> 
<path style="fill:#000000; fill-opacity:1.0000; stroke:none;fill-rule:evenodd;"
d="M 115.6800,84.7700
115.6800,85.5700
115.2800,85.5700
115.2800,84.7700
Z" /> 
<path style="fill:#000000; fill-opacity:1.0000; stroke:none;fill-rule:evenodd;"
d="M 114.8800,84.7700
114.8800,85.5700
114.4800,85.5700
114.4800,84.7700
Z" /> 
<path style="fill:#000000; fill-opacity:1.0000; stroke:none;fill-rule:evenodd;"
d="M 114.0800,84.7700
114.0800,85.5700
113.6800,85.5700
113.6800,84.7700
Z" /> 
<path style="fill:#000000; fill-opacity:1.0000; stroke:none;fill-rule:evenodd;"
d="M 113.2800,84.7700
113.2800,85.5700
112.8800,85.5700
112.8800,84.7700
Z" /> 
<path style="fill:#000000; fill-opacity:1.0000; stroke:none;fill-rule:evenodd;"
d="M 112.3800,85.8700
112.3800,86.2700
111.5800,86.2700
111.5800,85.8700
Z" /> 
<path style="fill:#000000; fill-opacity:1.0000; stroke:none;fill-rule:evenodd;"
d="M 112.3800,86.6700
112.3800,87.0700
111.5800,87.0700
111.5800,86.6700
Z" /> 
<path style="fill:#000000; fill-opacity:1.0000; stroke:none;fill-rule:evenodd;"
d="M 112.3800,87.4700
112.3800,87.8700
111.5800,87.8700
111.5800,87.4700
Z" /> 
<path style="fill:#000000; fill-opacity:1.0000; stroke:none;fill-rule:evenodd;"
d="M 112.3800,88.2700
112.3800,88.6700
111.5800,88.6700
111.5800,88.2700
Z" /> 
<path style="fill:#000000; fill-opacity:1.0000; stroke:none;fill-rule:evenodd;"
d="M 112.3800,89.0700
112.3800,89.4700
111.5800,89.4700
111.5800,89.0700
Z" /> 
<path style="fill:#000000; fill-opacity:1.0000; stroke:none;fill-rule:evenodd;"
d="M 112.3800,89.8700
112.3800,90.2700
111.5800,90.2700
111.5800,89.8700
Z" /> 
<path style="fill:#000000; fill-opacity:1.0000; stroke:none;fill-rule:evenodd;"
d="M 112.3800,90.6700
112.3800,91.0700
111.5800,91.0700
111.5800,90.6700
Z" /> 
<path style="fill:#000000; fill-opacity:1.0000; stroke:none;fill-rule:evenodd;"
d="M 112.3800,91.4700
112.3800,91.8700
111.5800,91.8700
111.5800,91.4700
Z" /> 
<path style="fill:#000000; fill-opacity:1.0000; stroke:none;fill-rule:evenodd;"
d="M 112.3800,92.2700
112.3800,92.6700
111.5800,92.6700
111.5800,92.2700
Z" /> 
<path style="fill:#000000; fill-opacity:1.0000; stroke:none;fill-rule:evenodd;"
d="M 112.3800,93.0700
112.3800,93.4700
111.5800,93.4700
111.5800,93.0700
Z" /> 
<path style="fill:#000000; fill-opacity:1.0000; stroke:none;fill-rule:evenodd;"
d="M 112.3800,93.8700
112.3800,94.2700
111.5800,94.2700
111.5800,93.8700
Z" /> 
<path style="fill:#000000; fill-opacity:1.0000; stroke:none;fill-rule:evenodd;"
d="M 113.2800,94.5700
113.2800,95.3700
112.8800,95.3700
112.8800,94.5700
Z" /> 
<path style="fill:#000000; fill-opacity:1.0000; stroke:none;fill-rule:evenodd;"
d="M 114.0800,94.5700
114.0800,95.3700
113.6800,95.3700
113.6800,94.5700
Z" /> 
<path style="fill:#000000; fill-opacity:1.0000; stroke:none;fill-rule:evenodd;"
d="M 114.8800,94.5700
114.8800,95.3700
114.4800,95.3700
114.4800,94.5700
Z" /> 
<path style="fill:#000000; fill-opacity:1.0000; stroke:none;fill-rule:evenodd;"
d="M 115.6800,94.5700
115.6800,95.3700
115.2800,95.3700
115.2800,94.5700
Z" /> 
<path style="fill:#000000; fill-opacity:1.0000; stroke:none;fill-rule:evenodd;"
d="M 116.4800,94.5700
116.4800,95.3700
116.0800,95.3700
116.0800,94.5700
Z" /> 
<path style="fill:#000000; fill-opacity:1.0000; stroke:none;fill-rule:evenodd;"
d="M 117.2800,94.5700
117.2800,95.3700
116.8800,95.3700
116.8800,94.5700
Z" /> 
<path style="fill:#000000; fill-opacity:1.0000; stroke:none;fill-rule:evenodd;"
d="M 118.0800,94.5700
118.0800,95.3700
117.6800,95.3700
117.6800,94.5700
Z" /> 
<path style="fill:#000000; fill-opacity:1.0000; stroke:none;fill-rule:evenodd;"
d="M 118.8800,94.5700
118.8800,95.3700
118.4800,95.3700
118.4800,94.5700
Z" /> 
<path style="fill:#000000; fill-opacity:1.0000; stroke:none;fill-rule:evenodd;"
d="M 119.6800,94.5700
119.6800,95.3700
119.2800,95.3700
119.2800,94.5700
Z" /> 
<path style="fill:#000000; fill-opacity:1.0000; stroke:none;fill-rule:evenodd;"
d="M 120.4800,94.5700
120.4800,95.3700
120.0800,95.3700
120.0800,94.5700
Z" /> 
<path style="fill:#000000; fill-opacity:1.0000; stroke:none;fill-rule:evenodd;"
d="M 121.2800,94.5700
121.2800,95.3700
120.8800,95.3700
120.8800,94.5700
Z" /> 
<path style="fill:#000000; fill-opacity:1.0000; stroke:none;fill-rule:evenodd;"
d="M 122.0800,94.5700
122.0800,95.3700
121.6800,95.3700
121.6800,94.5700
Z" /> 
<path style="fill:#000000; fill-opacity:1.0000; stroke:none;fill-rule:evenodd;"
d="M 122.8800,94.5700
122.8800,95.3700
122.4800,95.3700
122.4800,94.5700
Z" /> 
<path style="fill:#000000; fill-opacity:1.0000; stroke:none;fill-rule:evenodd;"
d="M 118.6050,91.3200
118.6050,92.7700
117.1550,92.7700
117.1550,91.3200
Z" /> 
<path style="fill:#000000; fill-opacity:1.0000; stroke:none;fill-rule:evenodd;"
d="M 116.6300,91.3200
116.6300,92.7700
115.1800,92.7700
115.1800,91.3200
Z" /> 
<path style="fill:#000000; fill-opacity:1.0000; stroke:none;fill-rule:evenodd;"
d="M 116.6300,89.3450
116.6300,90.7950
115.1800,90.7950
115.1800,89.3450
Z" /> 
<path style="fill:#000000; fill-opacity:1.0000; stroke:none;fill-rule:evenodd;"
d="M 116.6300,87.3700
116.6300,88.8200
115.1800,88.8200
115.1800,87.3700
Z" /> 
<path style="fill:#000000; fill-opacity:1.0000; stroke:none;fill-rule:evenodd;"
d="M 118.6050,87.3700
118.6050,88.8200
117.1550,88.8200
117.1550,87.3700
Z" /> 
<path style="fill:#000000; fill-opacity:1.0000; stroke:none;fill-rule:evenodd;"
d="M 120.5800,87.3700
120.5800,88.8200
119.1300,88.8200
119.1300,87.3700
Z" /> 
<path style="fill:#000000; fill-opacity:1.0000; stroke:none;fill-rule:evenodd;"
d="M 120.5800,89.3450
120.5800,90.7950
119.1300,90.7950
119.1300,89.3450
Z" /> 
<path style="fill:#000000; fill-opacity:1.0000; stroke:none;fill-rule:evenodd;"
d="M 118.6050,89.3450
118.6050,90.7950
117.1550,90.7950
117.1550,89.3450
Z" /> 
<path style="fill:#000000; fill-opacity:1.0000; stroke:none;fill-rule:evenodd;"
d="M 112.2800,94.6700
112.2800,95.3700
111.5800,95.3700
111.5800,94.6700
Z" /> 
<path style="fill:#000000; fill-opacity:1.0000; stroke:none;fill-rule:evenodd;"
d="M 112.2800,84.7700
112.2800,85.4700
111.5800,85.4700
111.5800,84.7700
Z" /> 
<path style="fill:#000000; fill-opacity:1.0000; stroke:none;fill-rule:evenodd;"
d="M 124.1800,84.7700
124.1800,85.4700
123.4800,85.4700
123.4800,84.7700
Z" /> 
<path style="fill:#000000; fill-opacity:1.0000; stroke:none;fill-rule:evenodd;"
d="M 124.1800,94.6700
124.1800,95.3700
123.4800,95.3700
123.4800,94.6700
Z" /> 
<path style="fill:#000000; fill-opacity:1.0000; stroke:none;fill-rule:evenodd;"
d="M 157.1000,82.4250
157.1000,83.6250
155.9000,83.6250
155.9000,82.4250
Z" /> 
<path style="fill:#000000; fill-opacity:1.0000; stroke:none;fill-rule:evenodd;"
d="M 154.0000,81.2250
154.0000,82.8250
152.5000,82.8250
152.5000,81.2250
Z" /> 
<path style="fill:#000000; fill-opacity:1.0000; stroke:none;fill-rule:evenodd;"
d="M 157.1000,80.4250
157.1000,81.6250
155.9000,81.6250
155.9000,80.4250
Z" /> 
<path style="fill:#000000; fill-opacity:1.0000; stroke:none;fill-rule:evenodd;"
d="M 115.0000,79.3650
115.0000,80.5650
114.4000,80.5650
114.4000,79.3650
Z" /> 
<path style="fill:#000000; fill-opacity:1.0000; stroke:none;fill-rule:evenodd;"
d="M 115.9500,79.3650
115.9500,80.5650
115.3500,80.5650
115.3500,79.3650
Z" /> 
<path style="fill:#000000; fill-opacity:1.0000; stroke:none;fill-rule:evenodd;"
d="M 116.9000,79.3650
116.9000,80.5650
116.3000,80.5650
116.3000,79.3650
Z" /> 
<path style="fill:#000000; fill-opacity:1.0000; stroke:none;fill-rule:evenodd;"
d="M 116.9000,76.8650
116.9000,78.0650
116.3000,78.0650
116.3000,76.8650
Z" /> 
<path style="fill:#000000; fill-opacity:1.0000; stroke:none;fill-rule:evenodd;"
d="M 115.9500,76.8650
115.9500,78.0650
115.3500,78.0650
115.3500,76.8650
Z" /> 
<path style="fill:#000000; fill-opacity:1.0000; stroke:none;fill-rule:evenodd;"
d="M 115.0000,76.8650
115.0000,78.0650
114.4000,78.0650
114.4000,76.8650
Z" /> 
<path style="fill:#000000; fill-opacity:1.0000; stroke:none;fill-rule:evenodd;"
d="M 166.5670,86.1604
166.5670,84.9604
167.7670,84.9604
167.7670,86.1604
Z" /> 
<path style="fill:#000000; fill-opacity:1.0000; stroke:none;fill-rule:evenodd;"
d="M 169.6670,87.3604
169.6670,85.7604
171.1670,85.7604
171.1670,87.3604
Z" /> 
<path style="fill:#000000; fill-opacity:1.0000; stroke:none;fill-rule:evenodd;"
d="M 166.5670,88.1604
166.5670,86.9604
167.7670,86.9604
167.7670,88.1604
Z" /> 
<path style="fill:#000000; fill-opacity:1.0000; stroke:none;fill-rule:evenodd;"
d="M 166.6745,81.8070
166.6745,80.6070
167.8745,80.6070
167.8745,81.8070
Z" /> 
<path style="fill:#000000; fill-opacity:1.0000; stroke:none;fill-rule:evenodd;"
d="M 169.7745,83.0070
169.7745,81.4070
171.2745,81.4070
171.2745,83.0070
Z" /> 
<path style="fill:#000000; fill-opacity:1.0000; stroke:none;fill-rule:evenodd;"
d="M 166.6745,83.8070
166.6745,82.6070
167.8745,82.6070
167.8745,83.8070
Z" /> 
<path style="fill:#000000; fill-opacity:1.0000; stroke:none;fill-rule:evenodd;"
d="M 157.1000,93.7798
157.1000,94.9798
155.9000,94.9798
155.9000,93.7798
Z" /> 
<path style="fill:#000000; fill-opacity:1.0000; stroke:none;fill-rule:evenodd;"
d="M 154.0000,92.5798
154.0000,94.1798
152.5000,94.1798
152.5000,92.5798
Z" /> 
<path style="fill:#000000; fill-opacity:1.0000; stroke:none;fill-rule:evenodd;"
d="M 157.1000,91.7798
157.1000,92.9798
155.9000,92.9798
155.9000,91.7798
Z" /> 
<path style="fill:#000000; fill-opacity:1.0000; stroke:none;fill-rule:evenodd;"
d="M 147.4300,91.8350
147.4243,91.8637
147.4080,91.8880
147.3837,91.9043
147.3550,91.9100
145.4450,91.9100
145.4163,91.9043
145.3920,91.8880
145.3757,91.8637
145.3700,91.8350
145.3700,91.3850
145.3757,91.3563
145.3920,91.3320
145.4163,91.3157
145.4450,91.3100
147.3550,91.3100
147.3837,91.3157
147.4080,91.3320
147.4243,91.3563
147.4300,91.3850
Z" /> 
<path style="fill:#000000; fill-opacity:1.0000; stroke:none;fill-rule:evenodd;"
d="M 147.4300,90.5650
147.4243,90.5937
147.4080,90.6180
147.3837,90.6343
147.3550,90.6400
145.4450,90.6400
145.4163,90.6343
145.3920,90.6180
145.3757,90.5937
145.3700,90.5650
145.3700,90.1150
145.3757,90.0863
145.3920,90.0620
145.4163,90.0457
145.4450,90.0400
147.3550,90.0400
147.3837,90.0457
147.4080,90.0620
147.4243,90.0863
147.4300,90.1150
Z" /> 
<path style="fill:#000000; fill-opacity:1.0000; stroke:none;fill-rule:evenodd;"
d="M 147.4300,89.2950
147.4243,89.3237
147.4080,89.3480
147.3837,89.3643
147.3550,89.3700
145.4450,89.3700
145.4163,89.3643
145.3920,89.3480
145.3757,89.3237
145.3700,89.2950
145.3700,88.8450
145.3757,88.8163
145.3920,88.7920
145.4163,88.7757
145.4450,88.7700
147.3550,88.7700
147.3837,88.7757
147.4080,88.7920
147.4243,88.8163
147.4300,88.8450
Z" /> 
<path style="fill:#000000; fill-opacity:1.0000; stroke:none;fill-rule:evenodd;"
d="M 147.4300,88.0250
147.4243,88.0537
147.4080,88.0780
147.3837,88.0943
147.3550,88.1000
145.4450,88.1000
145.4163,88.0943
145.3920,88.0780
145.3757,88.0537
145.3700,88.0250
145.3700,87.5750
145.3757,87.5463
145.3920,87.5220
145.4163,87.5057
145.4450,87.5000
147.3550,87.5000
147.3837,87.5057
147.4080,87.5220
147.4243,87.5463
147.4300,87.5750
Z" /> 
<path style="fill:#000000; fill-opacity:1.0000; stroke:none;fill-rule:evenodd;"
d="M 147.4300,86.7550
147.4243,86.7837
147.4080,86.8080
147.3837,86.8243
147.3550,86.8300
145.4450,86.8300
145.4163,86.8243
145.3920,86.8080
145.3757,86.7837
145.3700,86.7550
145.3700,86.3050
145.3757,86.2763
145.3920,86.2520
145.4163,86.2357
145.4450,86.2300
147.3550,86.2300
147.3837,86.2357
147.4080,86.2520
147.4243,86.2763
147.4300,86.3050
Z" /> 
<path style="fill:#000000; fill-opacity:1.0000; stroke:none;fill-rule:evenodd;"
d="M 147.4300,85.4850
147.4243,85.5137
147.4080,85.5380
147.3837,85.5543
147.3550,85.5600
145.4450,85.5600
145.4163,85.5543
145.3920,85.5380
145.3757,85.5137
145.3700,85.4850
145.3700,85.0350
145.3757,85.0063
145.3920,84.9820
145.4163,84.9657
145.4450,84.9600
147.3550,84.9600
147.3837,84.9657
147.4080,84.9820
147.4243,85.0063
147.4300,85.0350
Z" /> 
<path style="fill:#000000; fill-opacity:1.0000; stroke:none;fill-rule:evenodd;"
d="M 147.4300,84.2150
147.4243,84.2437
147.4080,84.2680
147.3837,84.2843
147.3550,84.2900
145.4450,84.2900
145.4163,84.2843
145.3920,84.2680
145.3757,84.2437
145.3700,84.2150
145.3700,83.7650
145.3757,83.7363
145.3920,83.7120
145.4163,83.6957
145.4450,83.6900
147.3550,83.6900
147.3837,83.6957
147.4080,83.7120
147.4243,83.7363
147.4300,83.7650
Z" /> 
<path style="fill:#000000; fill-opacity:1.0000; stroke:none;fill-rule:evenodd;"
d="M 147.4300,82.9450
147.4243,82.9737
147.4080,82.9980
147.3837,83.0143
147.3550,83.0200
145.4450,83.0200
145.4163,83.0143
145.3920,82.9980
145.3757,82.9737
145.3700,82.9450
145.3700,82.4950
145.3757,82.4663
145.3920,82.4420
145.4163,82.4257
145.4450,82.4200
147.3550,82.4200
147.3837,82.4257
147.4080,82.4420
147.4243,82.4663
147.4300,82.4950
Z" /> 
<path style="fill:#000000; fill-opacity:1.0000; stroke:none;fill-rule:evenodd;"
d="M 147.4300,81.6750
147.4243,81.7037
147.4080,81.7280
147.3837,81.7443
147.3550,81.7500
145.4450,81.7500
145.4163,81.7443
145.3920,81.7280
145.3757,81.7037
145.3700,81.6750
145.3700,81.2250
145.3757,81.1963
145.3920,81.1720
145.4163,81.1557
145.4450,81.1500
147.3550,81.1500
147.3837,81.1557
147.4080,81.1720
147.4243,81.1963
147.4300,81.2250
Z" /> 
<path style="fill:#000000; fill-opacity:1.0000; stroke:none;fill-rule:evenodd;"
d="M 147.4300,80.4050
147.4243,80.4337
147.4080,80.4580
147.3837,80.4743
147.3550,80.4800
145.4450,80.4800
145.4163,80.4743
145.3920,80.4580
145.3757,80.4337
145.3700,80.4050
145.3700,79.9550
145.3757,79.9263
145.3920,79.9020
145.4163,79.8857
145.4450,79.8800
147.3550,79.8800
147.3837,79.8857
147.4080,79.9020
147.4243,79.9263
147.4300,79.9550
Z" /> 
<path style="fill:#000000; fill-opacity:1.0000; stroke:none;fill-rule:evenodd;"
d="M 147.4300,79.1350
147.4243,79.1637
147.4080,79.1880
147.3837,79.2043
147.3550,79.2100
145.4450,79.2100
145.4163,79.2043
145.3920,79.1880
145.3757,79.1637
145.3700,79.1350
145.3700,78.6850
145.3757,78.6563
145.3920,78.6320
145.4163,78.6157
145.4450,78.6100
147.3550,78.6100
147.3837,78.6157
147.4080,78.6320
147.4243,78.6563
147.4300,78.6850
Z" /> 
<path style="fill:#000000; fill-opacity:1.0000; stroke:none;fill-rule:evenodd;"
d="M 147.4300,77.8650
147.4243,77.8937
147.4080,77.9180
147.3837,77.9343
147.3550,77.9400
145.4450,77.9400
145.4163,77.9343
145.3920,77.9180
145.3757,77.8937
145.3700,77.8650
145.3700,77.4150
145.3757,77.3863
145.3920,77.3620
145.4163,77.3457
145.4450,77.3400
147.3550,77.3400
147.3837,77.3457
147.4080,77.3620
147.4243,77.3863
147.4300,77.4150
Z" /> 
<path style="fill:#000000; fill-opacity:1.0000; stroke:none;fill-rule:evenodd;"
d="M 138.1500,77.8650
138.1443,77.8937
138.1280,77.9180
138.1037,77.9343
138.0750,77.9400
136.1650,77.9400
136.1363,77.9343
136.1120,77.9180
136.0957,77.8937
136.0900,77.8650
136.0900,77.4150
136.0957,77.3863
136.1120,77.3620
136.1363,77.3457
136.1650,77.3400
138.0750,77.3400
138.1037,77.3457
138.1280,77.3620
138.1443,77.3863
138.1500,77.4150
Z" /> 
<path style="fill:#000000; fill-opacity:1.0000; stroke:none;fill-rule:evenodd;"
d="M 138.1500,79.1350
138.1443,79.1637
138.1280,79.1880
138.1037,79.2043
138.0750,79.2100
136.1650,79.2100
136.1363,79.2043
136.1120,79.1880
136.0957,79.1637
136.0900,79.1350
136.0900,78.6850
136.0957,78.6563
136.1120,78.6320
136.1363,78.6157
136.1650,78.6100
138.0750,78.6100
138.1037,78.6157
138.1280,78.6320
138.1443,78.6563
138.1500,78.6850
Z" /> 
<path style="fill:#000000; fill-opacity:1.0000; stroke:none;fill-rule:evenodd;"
d="M 138.1500,80.4050
138.1443,80.4337
138.1280,80.4580
138.1037,80.4743
138.0750,80.4800
136.1650,80.4800
136.1363,80.4743
136.1120,80.4580
136.0957,80.4337
136.0900,80.4050
136.0900,79.9550
136.0957,79.9263
136.1120,79.9020
136.1363,79.8857
136.1650,79.8800
138.0750,79.8800
138.1037,79.8857
138.1280,79.9020
138.1443,79.9263
138.1500,79.9550
Z" /> 
<path style="fill:#000000; fill-opacity:1.0000; stroke:none;fill-rule:evenodd;"
d="M 138.1500,81.6750
138.1443,81.7037
138.1280,81.7280
138.1037,81.7443
138.0750,81.7500
136.1650,81.7500
136.1363,81.7443
136.1120,81.7280
136.0957,81.7037
136.0900,81.6750
136.0900,81.2250
136.0957,81.1963
136.1120,81.1720
136.1363,81.1557
136.1650,81.1500
138.0750,81.1500
138.1037,81.1557
138.1280,81.1720
138.1443,81.1963
138.1500,81.2250
Z" /> 
<path style="fill:#000000; fill-opacity:1.0000; stroke:none;fill-rule:evenodd;"
d="M 138.1500,82.9450
138.1443,82.9737
138.1280,82.9980
138.1037,83.0143
138.0750,83.0200
136.1650,83.0200
136.1363,83.0143
136.1120,82.9980
136.0957,82.9737
136.0900,82.9450
136.0900,82.4950
136.0957,82.4663
136.1120,82.4420
136.1363,82.4257
136.1650,82.4200
138.0750,82.4200
138.1037,82.4257
138.1280,82.4420
138.1443,82.4663
138.1500,82.4950
Z" /> 
<path style="fill:#000000; fill-opacity:1.0000; stroke:none;fill-rule:evenodd;"
d="M 138.1500,84.2150
138.1443,84.2437
138.1280,84.2680
138.1037,84.2843
138.0750,84.2900
136.1650,84.2900
136.1363,84.2843
136.1120,84.2680
136.0957,84.2437
136.0900,84.2150
136.0900,83.7650
136.0957,83.7363
136.1120,83.7120
136.1363,83.6957
136.1650,83.6900
138.0750,83.6900
138.1037,83.6957
138.1280,83.7120
138.1443,83.7363
138.1500,83.7650
Z" /> 
<path style="fill:#000000; fill-opacity:1.0000; stroke:none;fill-rule:evenodd;"
d="M 138.1500,85.4850
138.1443,85.5137
138.1280,85.5380
138.1037,85.5543
138.0750,85.5600
136.1650,85.5600
136.1363,85.5543
136.1120,85.5380
136.0957,85.5137
136.0900,85.4850
136.0900,85.0350
136.0957,85.0063
136.1120,84.9820
136.1363,84.9657
136.1650,84.9600
138.0750,84.9600
138.1037,84.9657
138.1280,84.9820
138.1443,85.0063
138.1500,85.0350
Z" /> 
<path style="fill:#000000; fill-opacity:1.0000; stroke:none;fill-rule:evenodd;"
d="M 138.1500,86.7550
138.1443,86.7837
138.1280,86.8080
138.1037,86.8243
138.0750,86.8300
136.1650,86.8300
136.1363,86.8243
136.1120,86.8080
136.0957,86.7837
136.0900,86.7550
136.0900,86.3050
136.0957,86.2763
136.1120,86.2520
136.1363,86.2357
136.1650,86.2300
138.0750,86.2300
138.1037,86.2357
138.1280,86.2520
138.1443,86.2763
138.1500,86.3050
Z" /> 
<path style="fill:#000000; fill-opacity:1.0000; stroke:none;fill-rule:evenodd;"
d="M 138.1500,88.0250
138.1443,88.0537
138.1280,88.0780
138.1037,88.0943
138.0750,88.1000
136.1650,88.1000
136.1363,88.0943
136.1120,88.0780
136.0957,88.0537
136.0900,88.0250
136.0900,87.5750
136.0957,87.5463
136.1120,87.5220
136.1363,87.5057
136.1650,87.5000
138.0750,87.5000
138.1037,87.5057
138.1280,87.5220
138.1443,87.5463
138.1500,87.5750
Z" /> 
<path style="fill:#000000; fill-opacity:1.0000; stroke:none;fill-rule:evenodd;"
d="M 138.1500,89.2950
138.1443,89.3237
138.1280,89.3480
138.1037,89.3643
138.0750,89.3700
136.1650,89.3700
136.1363,89.3643
136.1120,89.3480
136.0957,89.3237
136.0900,89.2950
136.0900,88.8450
136.0957,88.8163
136.1120,88.7920
136.1363,88.7757
136.1650,88.7700
138.0750,88.7700
138.1037,88.7757
138.1280,88.7920
138.1443,88.8163
138.1500,88.8450
Z" /> 
<path style="fill:#000000; fill-opacity:1.0000; stroke:none;fill-rule:evenodd;"
d="M 138.1500,90.5650
138.1443,90.5937
138.1280,90.6180
138.1037,90.6343
138.0750,90.6400
136.1650,90.6400
136.1363,90.6343
136.1120,90.6180
136.0957,90.5937
136.0900,90.5650
136.0900,90.1150
136.0957,90.0863
136.1120,90.0620
136.1363,90.0457
136.1650,90.0400
138.0750,90.0400
138.1037,90.0457
138.1280,90.0620
138.1443,90.0863
138.1500,90.1150
Z" /> 
<path style="fill:#000000; fill-opacity:1.0000; stroke:none;fill-rule:evenodd;"
d="M 138.1500,91.8350
138.1443,91.8637
138.1280,91.8880
138.1037,91.9043
138.0750,91.9100
136.1650,91.9100
136.1363,91.9043
136.1120,91.8880
136.0957,91.8637
136.0900,91.8350
136.0900,91.3850
136.0957,91.3563
136.1120,91.3320
136.1363,91.3157
136.1650,91.3100
138.0750,91.3100
138.1037,91.3157
138.1280,91.3320
138.1443,91.3563
138.1500,91.3850
Z" /> 
<path style="fill:#000000; fill-opacity:1.0000; stroke:none;fill-rule:evenodd;"
d="M 161.0000,72.0000
161.0000,70.8000
162.2000,70.8000
162.2000,72.0000
Z" /> 
<path style="fill:#000000; fill-opacity:1.0000; stroke:none;fill-rule:evenodd;"
d="M 164.1000,73.2000
164.1000,71.6000
165.6000,71.6000
165.6000,73.2000
Z" /> 
<path style="fill:#000000; fill-opacity:1.0000; stroke:none;fill-rule:evenodd;"
d="M 161.0000,74.0000
161.0000,72.8000
162.2000,72.8000
162.2000,74.0000
Z" /> 
<path style="fill:#000000; fill-opacity:1.0000; stroke:none;fill-rule:evenodd;"
d="M 158.1779,88.1064
158.1779,87.7508
159.6511,87.7508
159.6511,88.1064
Z" /> 
<path style="fill:#000000; fill-opacity:1.0000; stroke:none;fill-rule:evenodd;"
d="M 158.1779,88.7668
158.1779,88.4112
159.6511,88.4112
159.6511,88.7668
Z" /> 
<path style="fill:#000000; fill-opacity:1.0000; stroke:none;fill-rule:evenodd;"
d="M 158.1779,89.4018
158.1779,89.0462
159.6511,89.0462
159.6511,89.4018
Z" /> 
<path style="fill:#000000; fill-opacity:1.0000; stroke:none;fill-rule:evenodd;"
d="M 158.1779,90.0622
158.1779,89.7066
159.6511,89.7066
159.6511,90.0622
Z" /> 
<path style="fill:#000000; fill-opacity:1.0000; stroke:none;fill-rule:evenodd;"
d="M 158.1779,90.7226
158.1779,90.3670
159.6511,90.3670
159.6511,90.7226
Z" /> 
<path style="fill:#000000; fill-opacity:1.0000; stroke:none;fill-rule:evenodd;"
d="M 158.1779,91.3576
158.1779,91.0020
159.6511,91.0020
159.6511,91.3576
Z" /> 
<path style="fill:#000000; fill-opacity:1.0000; stroke:none;fill-rule:evenodd;"
d="M 158.1779,92.0180
158.1779,91.6624
159.6511,91.6624
159.6511,92.0180
Z" /> 
<path style="fill:#000000; fill-opacity:1.0000; stroke:none;fill-rule:evenodd;"
d="M 164.0199,92.0180
164.0199,91.6624
165.4931,91.6624
165.4931,92.0180
Z" /> 
<path style="fill:#000000; fill-opacity:1.0000; stroke:none;fill-rule:evenodd;"
d="M 164.0199,91.3576
164.0199,91.0020
165.4931,91.0020
165.4931,91.3576
Z" /> 
<path style="fill:#000000; fill-opacity:1.0000; stroke:none;fill-rule:evenodd;"
d="M 164.0199,90.7226
164.0199,90.3670
165.4931,90.3670
165.4931,90.7226
Z" /> 
<path style="fill:#000000; fill-opacity:1.0000; stroke:none;fill-rule:evenodd;"
d="M 164.0199,90.0622
164.0199,89.7066
165.4931,89.7066
165.4931,90.0622
Z" /> 
<path style="fill:#000000; fill-opacity:1.0000; stroke:none;fill-rule:evenodd;"
d="M 164.0199,89.4018
164.0199,89.0462
165.4931,89.0462
165.4931,89.4018
Z" /> 
<path style="fill:#000000; fill-opacity:1.0000; stroke:none;fill-rule:evenodd;"
d="M 164.0199,88.7668
164.0199,88.4112
165.4931,88.4112
165.4931,88.7668
Z" /> 
<path style="fill:#000000; fill-opacity:1.0000; stroke:none;fill-rule:evenodd;"
d="M 164.0199,88.1064
164.0199,87.7508
165.4931,87.7508
165.4931,88.1064
Z" /> 
<path style="fill:#000000; fill-opacity:1.0000; stroke:none;fill-rule:evenodd;"
d="M 142.2500,95.4937
142.2556,95.4655
142.2716,95.4416
142.2955,95.4256
142.3237,95.4200
143.4963,95.4200
143.5245,95.4256
143.5484,95.4416
143.5644,95.4655
143.5700,95.4937
143.5700,95.9363
143.5644,95.9645
143.5484,95.9884
143.5245,96.0044
143.4963,96.0100
142.3237,96.0100
142.2955,96.0044
142.2716,95.9884
142.2556,95.9645
142.2500,95.9363
Z" /> 
<path style="fill:#000000; fill-opacity:1.0000; stroke:none;fill-rule:evenodd;"
d="M 142.2500,96.4437
142.2556,96.4155
142.2716,96.3916
142.2955,96.3756
142.3237,96.3700
143.4963,96.3700
143.5245,96.3756
143.5484,96.3916
143.5644,96.4155
143.5700,96.4437
143.5700,96.8862
143.5644,96.9145
143.5484,96.9384
143.5245,96.9544
143.4963,96.9600
142.3237,96.9600
142.2955,96.9544
142.2716,96.9384
142.2556,96.9145
142.2500,96.8862
Z" /> 
<path style="fill:#000000; fill-opacity:1.0000; stroke:none;fill-rule:evenodd;"
d="M 142.2500,97.3937
142.2556,97.3655
142.2716,97.3416
142.2955,97.3256
142.3237,97.3200
143.4963,97.3200
143.5245,97.3256
143.5484,97.3416
143.5644,97.3655
143.5700,97.3937
143.5700,97.8362
143.5644,97.8645
143.5484,97.8884
143.5245,97.9044
143.4963,97.9100
142.3237,97.9100
142.2955,97.9044
142.2716,97.8884
142.2556,97.8645
142.2500,97.8362
Z" /> 
<path style="fill:#000000; fill-opacity:1.0000; stroke:none;fill-rule:evenodd;"
d="M 144.5400,97.3937
144.5456,97.3655
144.5616,97.3416
144.5855,97.3256
144.6137,97.3200
145.7862,97.3200
145.8145,97.3256
145.8384,97.3416
145.8544,97.3655
145.8600,97.3937
145.8600,97.8362
145.8544,97.8645
145.8384,97.8884
145.8145,97.9044
145.7862,97.9100
144.6137,97.9100
144.5855,97.9044
144.5616,97.8884
144.5456,97.8645
144.5400,97.8362
Z" /> 
<path style="fill:#000000; fill-opacity:1.0000; stroke:none;fill-rule:evenodd;"
d="M 144.5400,96.4437
144.5456,96.4155
144.5616,96.3916
144.5855,96.3756
144.6137,96.3700
145.7862,96.3700
145.8145,96.3756
145.8384,96.3916
145.8544,96.4155
145.8600,96.4437
145.8600,96.8862
145.8544,96.9145
145.8384,96.9384
145.8145,96.9544
145.7862,96.9600
144.6137,96.9600
144.5855,96.9544
144.5616,96.9384
144.5456,96.9145
144.5400,96.8862
Z" /> 
<path style="fill:#000000; fill-opacity:1.0000; stroke:none;fill-rule:evenodd;"
d="M 144.5400,95.4937
144.5456,95.4655
144.5616,95.4416
144.5855,95.4256
144.6137,95.4200
145.7862,95.4200
145.8145,95.4256
145.8384,95.4416
145.8544,95.4655
145.8600,95.4937
145.8600,95.9363
145.8544,95.9645
145.8384,95.9884
145.8145,96.0044
145.7862,96.0100
144.6137,96.0100
144.5855,96.0044
144.5616,95.9884
144.5456,95.9645
144.5400,95.9363
Z" /> 
<path style="fill:#000000; fill-opacity:1.0000; stroke:none;fill-rule:evenodd;"
d="M 157.1000,75.8750
157.1000,77.0750
155.9000,77.0750
155.9000,75.8750
Z" /> 
<path style="fill:#000000; fill-opacity:1.0000; stroke:none;fill-rule:evenodd;"
d="M 154.0000,74.6750
154.0000,76.2750
152.5000,76.2750
152.5000,74.6750
Z" /> 
<path style="fill:#000000; fill-opacity:1.0000; stroke:none;fill-rule:evenodd;"
d="M 157.1000,73.8750
157.1000,75.0750
155.9000,75.0750
155.9000,73.8750
Z" /> 
<path style="fill:#000000; fill-opacity:1.0000; stroke:none;fill-rule:evenodd;"
d="M 158.2239,77.4622
158.2239,77.1066
159.6971,77.1066
159.6971,77.4622
Z" /> 
<path style="fill:#000000; fill-opacity:1.0000; stroke:none;fill-rule:evenodd;"
d="M 158.2239,78.1226
158.2239,77.7670
159.6971,77.7670
159.6971,78.1226
Z" /> 
<path style="fill:#000000; fill-opacity:1.0000; stroke:none;fill-rule:evenodd;"
d="M 158.2239,78.7576
158.2239,78.4020
159.6971,78.4020
159.6971,78.7576
Z" /> 
<path style="fill:#000000; fill-opacity:1.0000; stroke:none;fill-rule:evenodd;"
d="M 158.2239,79.4180
158.2239,79.0624
159.6971,79.0624
159.6971,79.4180
Z" /> 
<path style="fill:#000000; fill-opacity:1.0000; stroke:none;fill-rule:evenodd;"
d="M 158.2239,80.0784
158.2239,79.7228
159.6971,79.7228
159.6971,80.0784
Z" /> 
<path style="fill:#000000; fill-opacity:1.0000; stroke:none;fill-rule:evenodd;"
d="M 158.2239,80.7134
158.2239,80.3578
159.6971,80.3578
159.6971,80.7134
Z" /> 
<path style="fill:#000000; fill-opacity:1.0000; stroke:none;fill-rule:evenodd;"
d="M 158.2239,81.3738
158.2239,81.0182
159.6971,81.0182
159.6971,81.3738
Z" /> 
<path style="fill:#000000; fill-opacity:1.0000; stroke:none;fill-rule:evenodd;"
d="M 164.0659,81.3738
164.0659,81.0182
165.5391,81.0182
165.5391,81.3738
Z" /> 
<path style="fill:#000000; fill-opacity:1.0000; stroke:none;fill-rule:evenodd;"
d="M 164.0659,80.7134
164.0659,80.3578
165.5391,80.3578
165.5391,80.7134
Z" /> 
<path style="fill:#000000; fill-opacity:1.0000; stroke:none;fill-rule:evenodd;"
d="M 164.0659,80.0784
164.0659,79.7228
165.5391,79.7228
165.5391,80.0784
Z" /> 
<path style="fill:#000000; fill-opacity:1.0000; stroke:none;fill-rule:evenodd;"
d="M 164.0659,79.4180
164.0659,79.0624
165.5391,79.0624
165.5391,79.4180
Z" /> 
<path style="fill:#000000; fill-opacity:1.0000; stroke:none;fill-rule:evenodd;"
d="M 164.0659,78.7576
164.0659,78.4020
165.5391,78.4020
165.5391,78.7576
Z" /> 
<path style="fill:#000000; fill-opacity:1.0000; stroke:none;fill-rule:evenodd;"
d="M 164.0659,78.1226
164.0659,77.7670
165.5391,77.7670
165.5391,78.1226
Z" /> 
<path style="fill:#000000; fill-opacity:1.0000; stroke:none;fill-rule:evenodd;"
d="M 164.0659,77.4622
164.0659,77.1066
165.5391,77.1066
165.5391,77.4622
Z" /> 
<path style="fill:#000000; fill-opacity:1.0000; stroke:none;fill-rule:evenodd;"
d="M 157.1000,87.0798
157.1000,88.2798
155.9000,88.2798
155.9000,87.0798
Z" /> 
<path style="fill:#000000; fill-opacity:1.0000; stroke:none;fill-rule:evenodd;"
d="M 154.0000,85.8798
154.0000,87.4798
152.5000,87.4798
152.5000,85.8798
Z" /> 
<path style="fill:#000000; fill-opacity:1.0000; stroke:none;fill-rule:evenodd;"
d="M 157.1000,85.0798
157.1000,86.2798
155.9000,86.2798
155.9000,85.0798
Z" /> 
<path style="fill:#000000; fill-opacity:1.0000; stroke:none;fill-rule:evenodd;"
d="M 162.2000,96.1150
162.2000,94.9150
163.4000,94.9150
163.4000,96.1150
Z" /> 
<path style="fill:#000000; fill-opacity:1.0000; stroke:none;fill-rule:evenodd;"
d="M 165.3000,97.3150
165.3000,95.7150
166.8000,95.7150
166.8000,97.3150
Z" /> 
<path style="fill:#000000; fill-opacity:1.0000; stroke:none;fill-rule:evenodd;"
d="M 162.2000,98.1150
162.2000,96.9150
163.4000,96.9150
163.4000,98.1150
Z" /> 
</g> 
</svg>
